<svg width="323" height="288" viewBox="0 0 323 288" fill="none" xmlns="http://www.w3.org/2000/svg">
<path d="M138.504 0.761392C141.64 -0.0363078 152.979 -0.201207 156.363 0.238493C171.543 0.711993 180.21 3.6565 193.163 10.9093C222.547 1.9514 255.007 30.3975 272.454 51.0166C272.803 51.4816 274.661 53.8906 274.862 54.2506C279.006 59.5856 283.218 66.7086 286.423 72.7816C288.573 76.8576 290.08 80.1686 291.918 84.4086C295.869 95.0366 298.92 105.553 300.463 116.822L301.187 122.786C301.358 125.27 301.582 127.876 301.687 130.352L301.797 133.958L301.757 135.202L301.883 136.089C302.214 138.543 302.295 144.362 302.394 147.021C302.74 156.332 304.084 161.717 307.442 170.214L308.51 172.748C309.642 174.675 310.164 175.743 311.046 177.8C318.751 191.742 323.373 204.875 322.732 220.946C322.488 224.518 322.039 227.066 321.413 230.604L320.826 232.734L319.27 237.655C318.264 240.665 317.486 243.219 316.059 246.065L313.108 251.596L311.973 253.208L309.491 256.911C308.395 258.196 305.671 261.559 304.562 262.535C293.26 274.232 278.131 281.477 261.933 282.95C258.414 283.103 254.519 283.421 251.077 282.897C246.774 282.892 241.467 281.559 237.292 280.575L231.209 278.703L226.715 277.021L224.037 275.756L219.061 273.675C217.824 274.125 214.304 275.866 212.992 276.512C186.744 289.434 153.048 290.286 125.144 282.377C116.687 279.98 111.165 276.37 104.126 273.846L103.369 273.58C98.043 275.989 93.668 277.883 88.038 279.721L85.975 280.096C80.707 281.748 76.5749 282.344 71.0829 282.947C68.6659 283.067 66.674 283.081 64.253 283.04C57.328 282.63 54.055 282.115 47.383 280.244L45.422 279.679L39.071 277.221L36.769 275.953L35.392 275.51C33.438 274.24 31.478 272.98 29.512 271.73L26.222 269.434L24.36 268.193L20.193 264.471C18.135 262.678 16.486 260.565 14.718 258.475C5.48796 246.723 0.94297 234.572 0.0819702 219.739L0 217.622L0.194946 213.429L0.467957 210.528C0.727957 207.715 1.51701 203.989 2.04401 201.14C2.27001 200.599 2.55996 199.31 2.72296 198.683L3.75 195.406L5.23499 190.929L6.85297 186.71L7.89398 184.169L10.989 177.839L14.239 170.957C17.244 163.973 18.899 158.494 19.794 150.93L20.0829 148.46C20.3479 142.071 20.655 135.803 20.582 129.405L20.8719 126.572C20.9819 124.676 21.102 123.305 21.379 121.428C21.954 113.948 24.353 103.294 26.363 96.2456C27.742 91.7716 29.99 84.2696 32.299 80.4526L32.897 78.2426C34.447 75.8176 36.009 72.6366 37.376 70.0306C39.408 66.3336 41.961 61.8916 44.659 58.6596C47.297 54.3016 49.931 51.1196 53.217 47.2536C56.717 42.6466 60.6 39.0186 64.763 35.0685L68.288 32.015L72.147 28.5777L79.546 23.0312L82.102 21.4177L86.349 18.5087C88.044 17.4498 89.947 16.4358 91.703 15.4554L95.384 13.4387C99.17 11.6195 103.019 9.93639 106.925 8.39279C116.513 4.93289 128.456 1.22749 138.504 0.761392Z" fill="#F9C190"/>
<path d="M138.504 0.761392C141.64 -0.0363078 152.979 -0.201207 156.363 0.238493C171.543 0.711993 180.21 3.6565 193.163 10.9093C222.547 1.9514 255.007 30.3975 272.454 51.0166C272.803 51.4816 274.661 53.8906 274.862 54.2506C279.006 59.5856 283.218 66.7086 286.423 72.7816C288.573 76.8576 290.08 80.1686 291.918 84.4086C295.869 95.0366 298.92 105.553 300.463 116.822L301.187 122.786C301.358 125.27 301.582 127.876 301.687 130.352L301.797 133.958L301.757 135.202L301.883 136.089C302.214 138.543 302.295 144.362 302.394 147.021C302.74 156.332 304.084 161.717 307.442 170.214L308.51 172.748C309.642 174.675 310.164 175.743 311.046 177.8C307.736 176.944 304.936 175.246 301.362 176.64C300.086 177.137 299.059 177.2 297.715 177.286L297.215 178.032C295.645 174.8 295.132 173.877 292.995 170.973L292.256 170.225C291.249 169.207 289.73 167.909 288.642 166.92C289.661 165.84 289.739 164.824 289.665 163.324C289.179 153.485 278.413 144.663 269.174 144.813C267.34 144.347 263.062 142.567 261.092 141.8L258.158 140.384L255.843 139.293L254.275 138.607L251.937 137.291C246.927 134.796 242.41 131.982 237.724 128.96L235.736 127.751C234.671 127.16 232.673 125.669 231.609 124.924L228.931 123.08C225.341 120.394 222.643 118.309 219.303 115.343C216.418 112.924 214.779 111.211 212.185 108.445L209.626 105.549C198.322 92.7016 193.779 85.0126 187.438 69.3236L186.979 69.3296L180.899 76.2116L179.398 77.8356C171.658 85.4306 164.552 92.0766 155.358 97.9756L152.244 99.9336C138.493 108.563 126.49 113.32 111.392 118.675C83.194 128.676 55.141 127.557 50.685 163.656C49.874 181.404 49.578 192.344 53.93 210.007C54.912 213.419 56.124 217.274 56.955 220.684L59.263 226.119L60.91 229.22L61.431 230.779L66.611 239.483L69.462 243.487C73.44 248.388 76.652 252.102 81.032 256.72L81.378 257.086C86.715 266.269 89.099 268.211 88.038 279.721L85.975 280.096C80.707 281.748 76.5749 282.344 71.0829 282.947C68.6659 283.067 66.674 283.081 64.253 283.04C57.328 282.63 54.055 282.115 47.383 280.244L45.422 279.679L39.071 277.221L36.769 275.953L35.392 275.51C33.438 274.24 31.478 272.98 29.512 271.73L26.222 269.434L24.36 268.193L20.193 264.471C18.135 262.678 16.486 260.565 14.718 258.475C5.48796 246.723 0.94297 234.572 0.0819702 219.739L0 217.622L0.194946 213.429L0.467957 210.528C0.727957 207.715 1.51701 203.989 2.04401 201.14C2.27001 200.599 2.55996 199.31 2.72296 198.683L3.75 195.406L5.23499 190.929L6.85297 186.71L7.89398 184.169L10.989 177.839L14.239 170.957C17.244 163.973 18.899 158.494 19.794 150.93L20.0829 148.46C20.3479 142.071 20.655 135.803 20.582 129.405L20.8719 126.572C20.9819 124.676 21.102 123.305 21.379 121.428C21.954 113.948 24.353 103.294 26.363 96.2456C27.742 91.7716 29.99 84.2696 32.299 80.4526L32.897 78.2426C34.447 75.8176 36.009 72.6366 37.376 70.0306C39.408 66.3336 41.961 61.8916 44.659 58.6596C47.297 54.3016 49.931 51.1196 53.217 47.2536C56.717 42.6466 60.6 39.0186 64.763 35.0685L68.288 32.015L72.147 28.5777L79.546 23.0312L82.102 21.4177L86.349 18.5087C88.044 17.4498 89.947 16.4358 91.703 15.4554L95.384 13.4387C99.17 11.6195 103.019 9.93639 106.925 8.39279C116.513 4.93289 128.456 1.22749 138.504 0.761392Z" fill="#1D2D53"/>
<path d="M10.989 177.839C15.5 181.184 15.831 181.668 20.868 178.828L24.479 182.51C23.773 187.077 23.578 189.234 23.672 193.894C24.222 196.574 25.009 200.389 25.86 202.97C28.537 208.068 30.013 210.547 33.881 214.798L34.378 215.396L38.977 218.487L39.631 218.548C41.416 222.171 42.862 224.321 46.697 225.959C52.138 225.468 53.741 225.424 56.955 220.684L59.263 226.119L60.91 229.22L61.431 230.779L66.611 239.483L69.462 243.487C73.44 248.388 76.652 252.102 81.032 256.72L81.378 257.086C86.715 266.269 89.099 268.211 88.038 279.721L85.975 280.096C80.707 281.748 76.5749 282.344 71.0829 282.947C68.6659 283.067 66.674 283.081 64.253 283.04C57.328 282.63 54.055 282.115 47.383 280.244L45.422 279.679L39.071 277.221L36.769 275.953L35.392 275.51C33.438 274.24 31.478 272.98 29.512 271.73L26.222 269.434L24.36 268.193L20.193 264.471C18.135 262.678 16.486 260.565 14.718 258.475C5.48796 246.723 0.94297 234.572 0.0819702 219.739L0 217.622L0.194946 213.429L0.467957 210.528C0.727957 207.715 1.51701 203.989 2.04401 201.14C2.27001 200.599 2.55996 199.31 2.72296 198.683L3.75 195.406L5.23499 190.929L6.85297 186.71L7.89398 184.169L10.989 177.839Z" fill="#1D2D53"/>
<path d="M35.3916 275.51C36.0036 266.986 42.1226 257.294 47.8586 251.205C51.5406 247.296 60.6836 239.548 66.2106 239.399L66.6106 239.483L69.4616 243.487C73.4396 248.388 76.6516 252.102 81.0316 256.72L81.3776 257.086C86.7146 266.269 89.0986 268.211 88.0376 279.721L85.9746 280.096C80.7066 281.748 76.5746 282.344 71.0826 282.947C68.6656 283.067 66.6736 283.081 64.2526 283.04C57.3276 282.63 54.0546 282.115 47.3826 280.244L45.4216 279.679L39.0706 277.221L36.7686 275.953L35.3916 275.51Z" fill="#1D2D53"/>
<path d="M45.4219 279.679C46.8059 274.309 48.3159 270.071 53.5839 267.134C57.0789 265.196 61.2009 264.73 65.0399 265.839C73.3509 268.32 75.2558 275.791 71.0828 282.947C68.6658 283.067 66.6739 283.081 64.2529 283.04C57.3279 282.63 54.0549 282.115 47.3829 280.244L45.4219 279.679Z" fill="#1D2D53"/>
<path d="M45.4219 279.679C46.8059 274.309 48.3159 270.071 53.5839 267.134C57.0789 265.196 61.2009 264.73 65.0399 265.839C73.3509 268.32 75.2558 275.791 71.0828 282.947C68.6658 283.067 66.6739 283.081 64.2529 283.04C64.4439 282.514 64.4748 280.765 64.9238 280.458C67.0478 279.007 67.4099 281.942 70.0219 281.27C73.9739 275.885 70.6809 269.205 64.2119 267.722C60.5339 266.848 56.6578 267.557 53.5278 269.676C49.5568 272.358 48.2559 275.74 47.3829 280.244L45.4219 279.679Z" fill="#1D7275"/>
<path d="M35.3916 275.51C36.0036 266.986 42.1226 257.294 47.8586 251.205C51.5406 247.296 60.6836 239.548 66.2106 239.399L66.6106 239.483L69.4616 243.487C73.4396 248.388 76.6516 252.102 81.0316 256.72C78.0236 256.005 75.3996 253.906 72.5536 253.006C56.3286 247.874 41.4996 258.043 37.4176 273.374C37.1906 274.231 36.9746 275.091 36.7686 275.953L35.3916 275.51Z" fill="#1D2D53"/>
<path d="M66.6108 239.483L69.4618 243.487C67.6368 243.395 64.2428 243.517 62.9668 242.617C63.3498 240.986 64.5058 240.681 66.2108 239.399L66.6108 239.483Z" fill="#1D7275"/>
<path d="M36.7686 275.953C36.9746 275.091 37.1905 274.231 37.4175 273.374C41.4995 258.043 56.3285 247.874 72.5535 253.006C75.3995 253.906 78.0236 256.005 81.0316 256.72L81.3776 257.086C86.7146 266.269 89.0985 268.211 88.0375 279.721L85.9745 280.096C87.2595 266.95 81.3556 256.482 67.5126 254.481C60.7996 253.568 53.9996 255.362 48.6116 259.47C42.5146 264.174 40.0116 269.855 39.0706 277.221L36.7686 275.953Z" fill="#1D7275"/>
<path d="M56.9553 220.684L59.2634 226.119L60.9103 229.22L61.4313 230.779L66.6113 239.483L66.2114 239.399C60.6844 239.548 51.5413 247.296 47.8593 251.205C42.1233 257.294 36.0043 266.986 35.3923 275.51C33.4383 274.24 31.4783 272.98 29.5123 271.73L26.2224 269.434L24.3604 268.193L20.1934 264.471C22.0024 263.186 22.7784 264.121 24.3544 261.875C23.7514 259.038 23.1013 257.476 24.4293 254.778C27.9763 247.578 27.6894 243.767 35.3474 240.453C37.7404 228.648 42.1763 236.458 45.4783 227.782L46.6973 225.959C52.1383 225.468 53.7413 225.424 56.9553 220.684Z" fill="#1D3454"/>
<path d="M61.4307 230.779L66.6107 239.483L66.2108 239.399C60.6838 239.548 51.5407 247.296 47.8587 251.205C42.1227 257.294 36.0037 266.986 35.3917 275.51C33.4377 274.24 31.4777 272.98 29.5117 271.73L29.5988 271.196C31.1428 262.382 35.6657 251.697 43.3317 246.624C45.2827 241.427 56.2067 232.91 61.4307 230.779Z" fill="#1D7275"/>
<path d="M60.9097 229.22L61.4307 230.779C56.2067 232.91 45.2827 241.427 43.3317 246.624C35.6657 251.697 31.1427 262.382 29.5987 271.196L29.5117 271.73L26.2217 269.434C26.7647 264.639 28.1487 265.092 29.4597 261.309C28.2337 256.473 28.5747 255.304 33.3007 253.135C34.4007 252.63 34.7957 248.867 35.0037 247.65L41.1927 244.942C41.3997 242.39 41.3797 240.291 43.5837 238.674C52.1777 237.595 48.6327 235.398 51.4317 231.052C53.6647 229.589 58.0727 229.476 60.9097 229.22Z" fill="#1D3454"/>
<path d="M47.3083 235.526C51.3103 225.314 51.5674 230.182 59.2634 226.119L60.9103 229.22C58.0733 229.476 53.6654 229.589 51.4324 231.052C48.6334 235.398 52.1784 237.595 43.5844 238.674C41.3804 240.291 41.4004 242.39 41.1934 244.942L35.0043 247.65C34.7963 248.867 34.4013 252.63 33.3013 253.135C28.5753 255.304 28.2343 256.473 29.4603 261.309C28.1493 265.092 26.7654 264.639 26.2224 269.434L24.3604 268.193C24.8164 265.45 26.4933 263.386 28.0853 261.194C26.3853 255.082 27.9193 254.494 32.5773 251.257L32.6813 249.791C33.0353 244.059 34.8193 246.628 38.4713 243.502C41.2903 241.089 39.4433 239.822 41.0693 237.32C43.2223 236.039 44.8403 235.955 47.3083 235.526Z" fill="#197871"/>
<path d="M10.989 177.839C15.5 181.184 15.831 181.668 20.868 178.828L24.479 182.51C23.773 187.077 23.578 189.234 23.672 193.894C24.222 196.574 25.009 200.389 25.86 202.97L25.604 203.706C24.554 206.774 24.648 208.159 22.918 211.27C18.119 219.902 9.52497 223.121 0.0819702 219.739L0 217.622L0.194946 213.429L0.467957 210.528C0.727957 207.715 1.51701 203.989 2.04401 201.14C2.27001 200.599 2.55996 199.31 2.72296 198.683L3.75 195.406L5.23499 190.929L6.85297 186.71L7.89398 184.169L10.989 177.839Z" fill="#1D2D53"/>
<path d="M10.989 177.839C15.5 181.184 15.831 181.668 20.868 178.828L24.479 182.51C23.773 187.077 23.578 189.234 23.672 193.894C24.222 196.574 25.009 200.389 25.86 202.97L25.604 203.706C24.554 206.774 24.648 208.159 22.918 211.27C18.119 219.902 9.52497 223.121 0.0819702 219.739L0 217.622C1.559 218.203 3.51495 218.481 5.17395 218.575C9.89595 218.889 14.527 217.169 17.9 213.849C21.043 210.738 22.774 206.476 22.693 202.055C22.53 193.135 15.859 186.414 6.85297 186.71L7.89398 184.169L10.989 177.839Z" fill="#1D7275"/>
<path d="M10.9885 177.839C15.4995 181.184 15.8306 181.668 20.8676 178.828L24.4786 182.51C23.7726 187.077 23.5776 189.234 23.6716 193.894C19.4626 187.839 15.9546 183.413 7.89355 184.169L10.9885 177.839Z" fill="#1D2D53"/>
<path d="M3.74982 195.406C8.59182 193.254 13.3718 193.379 15.6118 199.01C16.5578 201.405 16.4238 204.092 15.2438 206.381C12.3478 212.098 5.81477 211.945 0.467773 210.528C0.727773 207.715 1.51682 203.989 2.04382 201.14C2.26982 200.599 2.55978 199.31 2.72278 198.683L3.74982 195.406Z" fill="#1D2D53"/>
<path d="M2.7229 198.683L3.1449 199.102C4.2799 200.208 4.65894 200.838 6.20294 201.004C8.41994 200.487 8.63393 200.321 10.6619 199.193C11.4909 200.41 11.2479 199.738 11.1079 201.338C8.25891 205.933 5.00195 203.845 2.04395 201.14C2.26995 200.599 2.5599 199.31 2.7229 198.683Z" fill="#197871"/>
<path d="M5.23535 190.929C12.5154 190.331 18.7573 192.625 19.5923 200.936C19.9273 204.09 18.9854 207.247 16.9774 209.703C12.5494 215.066 6.37931 214.914 0.195312 213.429L0.468323 210.528C5.81532 211.945 12.3483 212.098 15.2443 206.381C16.4243 204.092 16.5584 201.405 15.6124 199.01C13.3724 193.379 8.59237 193.254 3.75037 195.406L5.23535 190.929Z" fill="#1D7275"/>
<path d="M43.6928 228.785L43.9738 228.114L45.4778 227.782C42.1758 236.458 37.7398 228.648 35.3468 240.453C27.6888 243.767 27.9758 247.578 24.4288 254.778C23.1008 257.476 23.7508 259.038 24.3538 261.875C22.7778 264.121 22.0018 263.186 20.1928 264.471C18.1348 262.678 16.4858 260.565 14.7178 258.475L19.0928 252.678L19.2118 252.464C20.1868 249.687 17.7938 249.075 18.2958 245.746C19.3518 244.077 20.1768 243.953 22.0068 243.18L23.5438 243.827C24.1328 243.386 26.7098 242.081 28.2248 240.988C30.8678 240.125 32.9038 239.723 34.4698 237.515C34.3518 236.087 34.1768 234.74 34.3038 233.316L35.6078 232.373L36.0858 232.751L36.7558 232.045C39.8938 230.736 41.4328 231.739 43.6928 228.785Z" fill="#197871"/>
<path d="M19.0928 252.678C19.5708 252.915 20.5598 253.311 20.8298 253.657C20.5188 256.179 19.6108 260.038 20.6808 262.013C22.4138 262.849 21.8508 262.506 24.3538 261.875C22.7778 264.121 22.0018 263.186 20.1928 264.471C18.1348 262.678 16.4858 260.565 14.7178 258.475L19.0928 252.678Z" fill="#1C5165"/>
<path d="M22.0067 243.18L23.5437 243.827C23.1277 247.252 21.8647 245.055 21.7837 248.03C23.0387 249.331 23.2457 249.442 24.6737 250.434L24.5007 251.124C23.0337 251.936 21.9357 252.393 20.8297 253.657C20.5597 253.311 19.5707 252.915 19.0927 252.678L19.2117 252.464C20.1867 249.687 17.7937 249.075 18.2957 245.746C19.3517 244.077 20.1767 243.953 22.0067 243.18Z" fill="#1D3454"/>
<path d="M38.9769 218.487L39.6309 218.548C41.4159 222.171 42.8618 224.321 46.6968 225.959L45.4778 227.782L43.9739 228.114L43.6929 228.785C41.4329 231.739 39.8939 230.736 36.7559 232.045L36.0859 232.751L35.6078 232.373L34.3038 233.316C34.1768 234.74 34.3518 236.087 34.4698 237.515C32.9038 239.723 30.8679 240.125 28.2249 240.988C26.7099 242.081 24.1329 243.386 23.5439 243.827L22.0068 243.18L22.1888 242.966C22.8888 242.77 22.8528 242.689 23.4838 242.258C24.7448 236.06 24.3918 236.339 30.8688 234.384C29.8248 231.067 29.5598 230.228 29.2148 226.71C37.2758 225.941 35.0049 224.592 38.9769 218.487Z" fill="#1D7275"/>
<path d="M36.7558 232.045C36.5068 231.716 36.4348 231.668 36.5028 231.011C36.8878 227.292 41.4548 228.279 43.6928 228.785C41.4328 231.739 39.8938 230.736 36.7558 232.045Z" fill="#1D3454"/>
<path d="M28.2246 240.988L28.3786 240.191C29.6916 238.726 31.8116 235.75 33.6066 235.496L34.4696 237.515C32.9036 239.723 30.8676 240.125 28.2246 240.988Z" fill="#1D3454"/>
<path d="M28.0585 225.112L28.6145 225.018C37.1045 223.539 29.2385 222.712 34.3785 215.396L38.9775 218.487C35.0055 224.592 37.2765 225.941 29.2155 226.71C29.5605 230.228 29.8255 231.067 30.8695 234.384C24.3925 236.339 24.7455 236.06 23.4845 242.258C22.8535 242.689 22.8895 242.77 22.1895 242.966C21.8145 235.903 20.8285 233.758 28.9995 233.207C28.3285 229.911 27.9225 228.479 28.0585 225.112Z" fill="#1D2D53"/>
<path d="M33.8812 214.798L34.3782 215.396C29.2382 222.712 37.1042 223.539 28.6142 225.018L28.0582 225.112C27.9222 228.479 28.3282 229.911 28.9992 233.207C20.8282 233.758 21.8142 235.903 22.1892 242.966L22.0072 243.18C20.1772 243.953 19.3522 244.077 18.2962 245.746C17.7942 249.075 20.1872 249.687 19.2122 252.464C14.9732 247.806 15.1182 245.146 20.4832 241.969C20.0722 234.872 19.3682 233.202 27.1212 231.522C26.7092 229.245 25.9622 226.889 26.8602 224.867C30.3692 222.585 30.6242 221.276 30.8412 217.154C31.6202 215.688 32.3732 215.529 33.8812 214.798Z" fill="#197871"/>
<path d="M91.7029 15.4554C104.765 31.9912 78.4049 45.7366 73.9389 60.4836C72.2729 65.9876 75.0019 74.7876 73.8239 77.4486C61.2139 78.1936 54.8079 82.2176 54.6629 96.5106C54.6159 101.08 58.3039 107.704 54.5489 111.617C49.5489 116.579 37.7709 115.894 31.0579 117.508C29.0839 117.982 24.4669 120.696 22.3889 121.744L21.3789 121.428C21.9539 113.948 24.3529 103.294 26.3629 96.2456C27.7419 91.7716 29.9899 84.2696 32.2989 80.4526L32.8969 78.2426C34.4469 75.8176 36.0089 72.6366 37.3759 70.0306C39.4079 66.3336 41.9609 61.8916 44.6589 58.6596C47.2969 54.3016 49.9309 51.1196 53.2169 47.2536C56.7169 42.6466 60.5999 39.0186 64.7629 35.0685L68.2879 32.015L72.1469 28.5777L79.5459 23.0312L82.1019 21.4177L86.3489 18.5087C88.0439 17.4498 89.9469 16.4358 91.7029 15.4554Z" fill="#1D2D53"/>
<path d="M37.3763 70.0306C40.4503 71.7886 42.6483 71.2896 45.2843 72.8456C50.7323 76.0606 52.2243 81.4256 48.8263 86.7286C49.8043 88.8766 52.3053 92.2466 51.8333 94.3576C50.6453 99.6626 43.2563 98.3846 42.1003 103.731C41.7603 105.301 41.0243 107.097 39.8373 108.186L38.5103 108.486C34.7773 105.499 35.3533 104.86 30.7103 102.986C29.6383 101.037 27.9353 97.4786 26.3633 96.2456C27.7423 91.7716 29.9903 84.2696 32.2993 80.4526L32.8973 78.2426C34.4473 75.8176 36.0093 72.6366 37.3763 70.0306Z" fill="#1D7275"/>
<path d="M32.8969 78.2426C34.9209 79.2616 38.7229 80.7436 37.1469 83.5816C34.7609 83.8196 33.6708 82.3016 32.2988 80.4526L32.8969 78.2426Z" fill="#1D2D53"/>
<path d="M36.4854 88.9306C38.0594 89.4986 39.2374 90.2826 39.7334 91.8716C38.5554 94.9686 37.4824 93.3156 36.5184 97.2406L36.8474 98.3396L36.1994 98.7676L35.6214 98.0356C35.1834 95.0246 35.6784 91.8416 36.4854 88.9306Z" fill="#1D2D53"/>
<path d="M43.2266 87.6176C47.7176 87.9216 47.9585 91.5756 46.8035 94.9976L44.8895 95.1386C43.8325 94.1086 43.5446 89.5126 43.2266 87.6176Z" fill="#1D2D53"/>
<path d="M40.1592 76.3666C45.0792 76.8166 45.5661 78.5726 44.7361 83.2346L43.1882 82.6596C42.2322 80.3976 40.8812 78.1916 40.1592 76.3666Z" fill="#1D2D53"/>
<path d="M86.3487 18.5087C88.5487 23.4497 90.1786 27.4313 87.9756 32.9645C86.6486 36.3029 84.0336 38.967 80.7206 40.3566C74.6476 42.8856 68.2517 40.503 64.7627 35.0685L68.2877 32.015L72.1467 28.5777L79.5457 23.0312L82.1017 21.4177L86.3487 18.5087Z" fill="#1D7275"/>
<path d="M82.1021 21.4177C83.8701 23.6179 84.9111 25.3671 84.6911 28.339C84.4761 30.9858 83.1591 33.4207 81.0621 35.0492C76.0911 38.9667 71.3491 36.8736 68.2881 32.015L72.1471 28.5777L79.5461 23.0312L82.1021 21.4177Z" fill="#1D2D53"/>
<path d="M72.1475 28.5777L79.5464 23.0312C80.2394 29.6871 78.6385 32.1367 72.1475 28.5777Z" fill="#1D7275"/>
<path d="M44.6592 58.6596C47.2972 54.3016 49.9312 51.1196 53.2172 47.2536C53.0302 51.9356 49.7352 58.5036 44.6592 58.6596Z" fill="#1C5165"/>
<path d="M56.725 52.0216C58.481 53.2916 59.885 56.3056 61.008 58.2936C61.833 56.3216 62.381 54.6016 64.11 53.4136L64.976 53.7156C65.991 55.6756 65.683 57.5496 65.638 59.8266L74.151 59.7036C70.042 62.2986 67.6069 62.8566 68.5229 68.1796C67.3269 68.8816 66.637 68.4766 64.906 68.3036C64.315 70.1496 64.196 71.7516 62.924 72.7726C61.535 72.1706 60.722 70.3196 59.892 68.9186C57.394 69.8316 54.902 70.7626 52.417 71.7096C53.433 69.3156 55.5489 66.5366 55.8329 64.7146C54.5569 63.5386 54.091 63.4466 53.604 61.9546C55.045 60.8846 55.935 60.9756 57.834 60.5956L56.355 57.6526C54.762 54.5436 54.966 54.6016 56.725 52.0216Z" fill="#1D7275"/>
<path d="M139.096 56.8166C144.156 52.7096 149.177 47.7676 152.169 42.0778C157.017 32.8585 164.169 28.1833 171.362 21.1566C172.615 19.9323 174.816 16.2562 175.972 14.5728C172.583 26.6421 168.772 26.7369 160.339 35.3641C157.075 38.7026 154.093 45.3266 151.167 49.0826C148.318 53.0206 144.716 55.9396 141.454 59.4016C140.498 67.4196 139.477 64.2676 134.015 69.1886C132.223 70.8036 132.777 73.4376 130.385 74.8296C128.184 74.4446 127.594 73.5396 126.039 71.8496L125.411 72.2596C121.878 74.6006 121.999 74.5626 122.023 78.9696C122.069 87.3846 111.981 82.4156 108.698 85.0686C107.748 88.0166 108.664 88.4346 107.123 89.8456C105.815 90.1866 105.307 90.1086 104.112 89.4956C100.745 87.7676 95.3379 91.5146 92.0079 92.9766C93.1609 90.7846 94.4779 87.7846 96.2049 86.1596L96.8609 85.9976C100.644 85.0316 101.721 84.9066 103.698 81.4886C105.072 81.2606 108.828 80.9766 109.401 80.3576C107.782 79.2246 107.155 79.0196 105.301 78.2426C104.119 75.8056 103.278 74.1846 102.43 71.5876C100.604 73.1156 99.4239 74.2456 97.2919 75.3496C97.7829 77.9516 99.6619 78.3326 98.7369 81.1866C96.2189 82.2386 96.0169 80.8826 94.1949 80.2946C93.3449 83.0456 92.1969 87.9176 89.9679 89.6356L88.9469 89.6836L88.1859 88.9236L87.7099 88.6646L87.5979 89.0936C86.6019 93.0376 86.3819 97.2806 85.3379 101.015C81.6339 114.251 73.2009 124.315 61.4349 131.292C56.2399 134.372 47.0089 138.547 40.8949 138.927C37.7819 139.12 28.7779 135.459 28.2879 138.531C28.0219 140.191 28.8799 145.048 29.0309 147.221C28.4649 148.264 24.6589 156.291 24.4889 156.425C22.4349 154.307 21.5029 152.279 19.7939 150.93L20.0829 148.46C21.6399 149.475 22.2829 150.166 24.0999 149.983C28.5589 145.779 18.3579 136.635 30.1779 131.022C34.6659 133.55 38.5389 135.68 43.7299 134.47C51.6139 133.929 58.4259 128.931 64.6479 124.689C87.2579 109.273 79.1809 87.5636 92.3069 66.4406L92.5959 66.0536C98.9669 59.6056 108.271 52.4386 116.992 60.1256C122.203 64.7186 120.846 68.8456 119.518 74.9546C123.066 69.0566 122.321 67.9686 127.81 63.2956C128.945 54.8136 131.09 52.6866 139.096 56.8166Z" fill="#1D7275"/>
<path d="M87.71 88.6646C87.857 79.7406 92.378 69.3576 99.485 63.8976C108.096 57.2826 121.038 59.7366 117.707 72.7016C117.332 74.1616 115.755 75.7026 114.437 76.3416C108.725 79.0856 104.329 74.2196 106.907 68.6376C107.926 66.5276 111.618 70.8386 113.958 70.5276C116.687 64.5076 109.747 63.7186 104.768 67.3686C103.925 69.1446 104.239 69.2376 102.855 70.0656C102.202 69.8016 101.63 69.5706 100.987 69.2786L100.458 69.5696L96.929 71.3116L97.043 74.6456C95.114 76.6506 94.4979 77.5336 94.1949 80.2946C93.3449 83.0456 92.197 87.9176 89.968 89.6356L88.947 89.6836L88.186 88.9236L87.71 88.6646Z" fill="#1D2D53"/>
<path d="M88.1855 88.9236C91.5885 85.5696 90.9215 76.5316 96.9285 71.3116L97.0425 74.6456C95.1135 76.6506 94.4975 77.5336 94.1945 80.2946C93.3445 83.0456 92.1965 87.9176 89.9675 89.6356L88.9465 89.6836L88.1855 88.9236Z" fill="#197871"/>
<path d="M100.458 69.5696C100.479 67.7466 100.79 67.0136 102.316 66.0056C104.153 66.1556 103.316 65.8186 104.768 67.3686C103.925 69.1446 104.239 69.2376 102.855 70.0656C102.202 69.8016 101.63 69.5706 100.987 69.2786L100.458 69.5696Z" fill="#1D676E"/>
<path d="M251.937 137.291C267.766 126.535 276.249 127.441 294.868 133.517C297.143 134.259 299.289 136.66 301.291 136.536L301.757 135.202L301.883 136.089C302.214 138.543 302.295 144.362 302.394 147.021C302.74 156.332 304.084 161.717 307.442 170.214L308.51 172.748C309.642 174.675 310.164 175.743 311.046 177.8C307.736 176.944 304.936 175.246 301.362 176.64C300.086 177.137 299.059 177.2 297.715 177.286L297.215 178.032C295.645 174.8 295.132 173.877 292.995 170.973L292.256 170.225C291.249 169.207 289.73 167.909 288.642 166.92C289.661 165.84 289.739 164.824 289.665 163.324C289.179 153.485 278.413 144.663 269.174 144.813C267.34 144.347 263.062 142.567 261.092 141.8L258.158 140.384L255.843 139.293L254.275 138.607L251.937 137.291Z" fill="#1D2D53"/>
<path d="M251.937 137.291C267.766 126.535 276.249 127.441 294.868 133.517C297.143 134.259 299.289 136.66 301.291 136.536L301.757 135.202L301.883 136.089C302.214 138.543 302.295 144.362 302.394 147.021C302.74 156.332 304.084 161.717 307.442 170.214C299.272 170.64 304.268 166.408 301.537 160.947C300.534 158.939 299.31 157.707 297.811 156.073C302.337 143.04 283.998 139.499 276.336 133.82L276.112 131.692C271.78 128.779 257.542 134.645 254.275 138.607L251.937 137.291Z" fill="#1D7275"/>
<path d="M293.806 156.398C305.194 164.111 296.396 166.413 298.997 173.154C302.75 172.703 304.747 172.346 308.51 172.748C309.642 174.675 310.164 175.743 311.046 177.8C307.736 176.944 304.936 175.246 301.362 176.64C300.086 177.137 299.059 177.2 297.715 177.286L297.215 178.032C295.645 174.8 295.132 173.877 292.995 170.973C296.131 167.192 294.51 161.031 293.806 156.398Z" fill="#1D7275"/>
<path d="M261.092 141.8C268.856 140.691 277.005 142.205 283.313 147.06C288.109 150.741 291.24 156.182 292.011 162.178C292.28 164.155 292.241 168.125 292.256 170.225C291.249 169.207 289.73 167.909 288.642 166.92C289.661 165.84 289.739 164.824 289.665 163.324C289.179 153.485 278.413 144.663 269.174 144.813C267.34 144.347 263.062 142.567 261.092 141.8Z" fill="#1D7275"/>
<path d="M255.843 139.293C257.544 138.222 264.569 135.535 264.333 136.311C266.144 130.353 280.367 136.586 282.696 139.896C283.242 140.672 283.651 141.838 283.519 143.48C281.746 144.007 269.479 135.834 258.158 140.384L255.843 139.293Z" fill="#1D7275"/>
<path d="M285.753 142.601C294.016 144.332 297.3 148.569 293.948 156.598C293.612 156.343 284.894 144.705 284.782 144.373L285.753 142.601Z" fill="#1D7275"/>
<path d="M61.925 93.1696C60.691 85.0596 68.257 78.1306 74.759 83.5046C82.03 89.5136 80.147 101.127 76.119 108.312C74.08 112.384 72.587 117.174 67.527 118.322C64.003 119.122 63.525 122.93 61.34 125.278C57.447 129.249 49.077 132.305 43.754 133.466L43.73 134.47C38.539 135.68 34.666 133.55 30.178 131.022C18.358 136.635 28.559 145.779 24.1 149.983C22.283 150.166 21.64 149.475 20.083 148.46C20.348 142.071 20.655 135.803 20.582 129.405L20.872 126.572L22.113 125.709C28.688 120.202 39.3451 119.847 47.6981 118.449L48.135 119.489C51.19 118.399 52.5271 118.289 55.6691 117.877C60.2171 114.602 63.899 110.195 61.666 104.538L61.433 103.964C62.194 102.814 62.759 102.898 64.291 102.238L64.571 101.412C62.018 99.1796 59.952 99.6446 59.261 96.0206C60.079 94.8136 59.5451 95.2966 61.1251 94.8286L61.925 93.1696Z" fill="#1D2D53"/>
<path d="M61.1249 94.8286C63.1089 98.0716 67.4379 98.1146 70.2899 96.1816C72.3229 93.1896 70.3069 90.5046 69.8769 87.1266C74.7649 86.9326 77.9869 94.6496 74.8769 99.4846C73.6389 100.336 72.8439 100.283 71.3539 100.455L71.0309 101.308L71.5419 101.994C72.1339 102.795 72.3379 103.147 72.8029 104.053C72.2929 105.876 72.1379 105.877 70.1389 107.012L69.2879 107.489C68.0949 109.923 67.5089 112.778 65.9179 114.511L64.8719 114.852C63.8739 114.233 63.9169 114.261 63.1609 113.358C61.4739 113.705 60.6639 115.194 59.9089 116.72C57.1629 122.271 52.2899 119.321 46.9709 121.285L46.6289 120.12L48.1349 119.489C51.1899 118.399 52.5269 118.289 55.6689 117.877C60.2169 114.602 63.8989 110.195 61.6659 104.538L61.4329 103.964C62.1939 102.814 62.7589 102.898 64.2909 102.238L64.5709 101.412C62.0179 99.1796 59.9519 99.6446 59.2609 96.0206C60.0789 94.8136 59.5449 95.2966 61.1249 94.8286Z" fill="#1D7275"/>
<path d="M61.9247 93.1696C60.6907 85.0596 68.2567 78.1306 74.7587 83.5046C82.0297 89.5136 80.1467 101.127 76.1187 108.312C74.0797 112.384 72.5867 117.174 67.5267 118.322C64.0027 119.122 63.5247 122.93 61.3397 125.278C57.4467 129.249 49.0767 132.305 43.7537 133.466L41.8747 133.247L41.5547 132.5C42.5687 131.513 49.5417 130.055 52.1517 128.578C64.5147 121.58 88.4567 99.9886 73.7167 85.2246C70.1467 81.6506 61.7796 87.3956 63.8196 91.4576C65.5236 92.4976 66.1987 92.3726 68.2977 92.5306L69.0187 92.5796L69.0577 94.0296L68.1517 94.7636C65.2457 95.0996 64.2427 95.0156 61.9247 93.1696Z" fill="#197871"/>
<path d="M27.6738 124.559C31.4788 123.788 33.8809 122.844 37.8619 122.29L38.2709 122.699C35.1609 125.581 33.5678 124.756 30.2828 126.489L29.3058 125.712L27.6738 124.559Z" fill="#197871"/>
<path d="M22.113 125.709C24.293 126.185 24.804 125.241 26.86 124.749L27.674 124.559L29.306 125.712C26.132 126.053 23.565 127.894 20.582 129.405L20.872 126.572L22.113 125.709Z" fill="#1C5165"/>
<path d="M46.6293 120.12L46.9713 121.285C45.2043 123.226 44.6643 124.253 41.8683 123.706L41.8203 122.905C42.7843 121.397 44.8723 120.838 46.6293 120.12Z" fill="#197871"/>
<path d="M272.454 51.0166C272.803 51.4816 274.661 53.8906 274.862 54.2506C279.006 59.5856 283.218 66.7086 286.423 72.7816C288.573 76.8576 290.08 80.1686 291.918 84.4086C289.075 87.2826 284.016 90.3216 282.762 92.3486C283.008 96.6646 291.358 94.4676 290.805 99.1676C289.14 101.396 286.589 102.418 284.065 103.773C284.625 106.897 285.539 112.615 282.11 114.119C281.096 112.82 281.831 110.725 281.551 108.888C280.866 104.382 273.79 106.715 273.216 101.284C273.903 99.9706 274.655 98.9876 274.488 97.5776C273.409 96.3816 273.341 96.4246 271.514 95.9616C264.373 94.1546 269.148 90.0826 267.473 87.2706C259.211 84.8476 262.517 83.0776 263.596 77.3196C263.048 76.0866 262.938 76.0886 261.818 75.4326L261.242 75.1006C253.063 70.2796 265.467 64.0396 265.448 64.0886C268.134 57.1096 267.128 56.5936 272.454 51.0166Z" fill="#1D7275"/>
<path d="M274.862 54.2506C279.006 59.5856 283.218 66.7086 286.423 72.7816C278.15 81.4216 285.15 78.6396 286.95 82.9986C286.904 85.7736 284.398 87.8146 282.482 89.7606C282.21 87.7756 281.559 81.9046 280.872 80.3756C276.044 69.6236 273.001 67.0976 274.862 54.2506Z" fill="#1D2D53"/>
<path d="M266.513 68.5376C268.555 69.1816 268.868 69.2736 269.693 70.8566C269.386 72.3236 268.3 73.8276 268.154 74.7986C267.24 80.9036 272.813 80.0236 274.912 83.3306C274.059 84.1046 274.07 84.0556 273.513 85.0556C274.355 88.6896 277.25 90.0146 280.018 92.2616C278.81 93.0486 279.251 92.8326 277.873 93.2226C273.363 92.1716 271.798 88.5666 271.946 84.2496C267.855 80.8726 263.434 73.5726 266.513 68.5376Z" fill="#1D2D53"/>
<path d="M282.136 96.0646C283.941 96.5946 285.47 96.7646 286.6 98.1676C286.618 99.7606 286.497 99.3566 285.156 100.962C283.148 102.063 284.101 101.95 282.181 101.937L281.405 101.127C281.038 98.8176 281.364 98.3786 282.136 96.0646Z" fill="#1D2D53"/>
<path d="M35.2214 165.944C36.2294 171.962 37.0834 176.968 38.5434 182.899C40.6264 189.962 44.7754 202.823 49.2274 208.562C50.6884 208.988 52.5494 209.474 53.9304 210.007C54.9124 213.419 56.1244 217.274 56.9554 220.684C53.7414 225.424 52.1384 225.468 46.6974 225.959C42.8624 224.321 41.4164 222.171 39.6314 218.548L38.9774 218.487L34.3784 215.396L33.8814 214.798C30.0134 210.547 28.5374 208.068 25.8604 202.97C25.0094 200.389 24.2224 196.574 23.6724 193.894C23.5784 189.234 23.7735 187.077 24.4795 182.51C27.0445 174.257 29.1764 171.884 35.2214 165.944Z" fill="#F9C190"/>
<path d="M49.2269 208.562C50.6879 208.988 52.5489 209.474 53.9299 210.007C54.9119 213.419 56.1238 217.274 56.9548 220.684C53.7408 225.424 52.1378 225.468 46.6968 225.959C42.8618 224.321 41.4159 222.171 39.6309 218.548C40.2889 217.236 40.8349 214.663 41.2299 213.136C43.2179 210.838 45.1589 210.003 47.7939 208.645L49.2269 208.562Z" fill="#F3C01D"/>
<path d="M38.5431 182.899C40.6261 189.962 44.7751 202.823 49.2271 208.562L47.7941 208.645C43.7911 206.743 42.4081 206.488 39.0011 203.221C33.7701 198.204 32.7981 187.898 38.5431 182.899Z" fill="#F6A575"/>
<path d="M91.7031 15.4554L95.3841 13.4387C101.402 24.7641 99.6801 31.3338 92.3761 41.4435C98.9571 39.2253 110.814 36.5698 114.317 29.8394C115.573 27.426 115.446 22.6604 112.388 21.6645C108.58 20.2362 107.662 23.5193 104.614 24.5635L103.51 24.1208C103.739 20.3653 109.995 17.4404 112.749 18.2733C121.353 20.8755 118.46 33.3705 111.559 36.7105C97.6111 43.4606 82.3771 43.7296 77.3551 61.2806C75.5011 67.8006 76.4611 74.0826 77.6371 80.8786C72.5771 80.5866 65.8391 80.0086 61.9411 83.8416C50.4131 95.1746 69.4491 113.161 47.6981 118.449C39.3451 119.847 28.6881 120.202 22.1131 125.709L20.8721 126.572C20.9821 124.676 21.1021 123.305 21.3791 121.428L22.3891 121.744C24.4671 120.696 29.0841 117.982 31.0581 117.508C37.7711 115.894 49.5491 116.579 54.5491 111.617C58.3041 107.704 54.6161 101.08 54.6631 96.5106C54.8081 82.2176 61.2141 78.1936 73.8241 77.4486C75.0021 74.7876 72.2731 65.9876 73.9391 60.4836C78.4051 45.7366 104.765 31.9912 91.7031 15.4554Z" fill="#1D7275"/>
<path d="M253.733 113.465C266.974 130.242 281.897 122.552 301.797 133.958L301.757 135.202L301.291 136.536C299.289 136.66 297.143 134.259 294.868 133.517C276.249 127.441 267.766 126.535 251.937 137.291C246.927 134.796 242.41 131.982 237.724 128.96C244.824 125.845 249.897 120.06 253.733 113.465Z" fill="#1D2D53"/>
<path d="M253.231 126.606C253.946 126.274 254.783 126.352 255.424 126.809C256.066 127.266 256.412 128.033 256.331 128.816C256.249 129.6 255.754 130.279 255.032 130.595C253.934 131.077 252.653 130.584 252.159 129.491C251.666 128.398 252.144 127.112 253.231 126.606Z" fill="#197871"/>
<path d="M250.308 112.993C259.399 97.0766 255.112 79.6806 252.625 62.3106C251.995 57.9076 247.69 55.7036 247.686 54.5576C256.009 53.3486 256.862 68.5506 257.416 74.2496C258.586 86.2926 260.186 98.5946 255.32 110.065C262.798 122.986 276.934 124.264 290.678 125.127C293.828 123.672 300.114 120.531 300.463 116.822L301.187 122.786C301.358 125.27 301.582 127.876 301.687 130.352L301.797 133.958C281.897 122.552 266.974 130.242 253.733 113.465C249.897 120.06 244.824 125.845 237.724 128.96L235.736 127.751C242.403 122.859 245.951 120.03 250.308 112.993Z" fill="#1D7275"/>
<path d="M301.187 122.786C301.358 125.27 301.582 127.876 301.687 130.352C299.437 129.205 296.834 128.198 294.303 126.901L301.187 122.786Z" fill="#1D2D53"/>
<path d="M209.626 105.549L210.245 105.094C216.166 100.671 211.083 100.337 214.948 95.8946C216.695 93.8856 220.058 96.5186 222.226 95.8756L222.544 95.2756C229.41 82.5786 232.514 105.384 241.06 92.9186C248.185 82.5276 238.868 72.4216 238.417 61.7186C239.164 52.4006 247.066 55.6446 237.834 43.4746L238.73 43.0886C241.437 44.2796 242.872 46.3046 244.094 49.0396C246.469 54.1696 240.439 58.9726 241.251 63.8696C242.846 73.3716 249.377 82.0796 244.824 92.0126C241.67 98.8906 234.205 99.3886 227.756 100.469C224.469 101.019 214.068 106.03 212.185 108.445L209.626 105.549Z" fill="#1D7275"/>
<path d="M219.303 115.343C220.371 114.029 220.41 113.755 221.982 113.093C223.66 113.629 224.086 113.918 225.799 113.462C226.092 110.536 225.639 109.721 228.271 108.38C230.209 108.728 229.853 108.91 231.59 110.502L232.257 110.339C232.937 108.38 233.255 107.398 234.209 105.582L234.991 105.416C235.61 106.378 236.253 107.324 236.919 108.253C238.892 107.448 237.98 105.718 240.332 104.187C243.053 103.949 243.199 104.19 244.772 102.316C244.86 101.353 244.954 100.422 245.206 99.4856C246.21 101.999 245.576 101.353 247.528 102.886C247.019 104.624 246.846 105.833 245.651 107.182C243.971 107.753 243.558 107.805 241.86 108.09C240.747 108.938 240.498 108.906 240.099 110.186C240.657 111.277 240.74 111.268 241.627 112.143C240.965 114.168 239.891 114.11 237.916 114.637C237.205 115.897 237.288 116.585 237.201 118.02C236.211 119.225 236.297 119.294 234.91 119.927C233.588 119.143 234.049 119.535 233.209 118.132C230.368 118.081 230.278 120.896 228.931 123.08C225.341 120.394 222.643 118.309 219.303 115.343Z" fill="#1D7275"/>
<path d="M184.133 38.0217C187.693 28.376 183.779 31.885 183.643 25.4662L184.26 25.1025C188.864 27.8042 188.005 34.1265 187.37 38.5452C184.539 41.7039 181.451 42.9446 179.175 45.6566L178.659 45.9716C179.749 51.1896 176.817 51.0056 176.434 56.3796C177.557 60.2426 175.979 63.6906 177.643 66.3156C177.452 71.0396 178.525 72.1736 180.899 76.2116L179.398 77.8356C177.591 74.4356 176.579 72.3566 175.15 68.7926C174.003 70.2286 173.872 70.3266 172.44 71.5056C170.704 71.8416 171.407 72.0516 170.137 71.3686C170.306 68.7856 173.469 67.5826 173.764 64.1316C174.221 59.5966 171.083 54.9706 171.629 50.4636C172.378 44.2796 179.831 41.7785 184.133 38.0217Z" fill="#1D7275"/>
<path d="M176.434 56.3796L175.609 56.4206C173.603 53.2186 174.71 47.1326 178.659 45.9716C179.749 51.1896 176.817 51.0056 176.434 56.3796Z" fill="#1D2D53"/>
<path d="M14.2393 170.957C23.5403 170.804 26.5493 170.248 33.4553 163.94L34.2593 164.056L35.2213 165.944C29.1763 171.884 27.0443 174.257 24.4793 182.51L20.8683 178.828C15.8313 181.668 15.5003 181.184 10.9893 177.839L14.2393 170.957Z" fill="#1D7275"/>
<path d="M152.244 99.9336C145.778 96.3166 141.054 92.1076 140.711 84.0726C140.504 79.8536 142.026 75.7326 144.925 72.6606C149.537 67.8586 154.952 68.4096 159.566 73.0396C164.669 78.1626 158.979 89.7086 152.869 83.3166C152.044 82.4536 152.108 82.2206 152.313 81.2516C153.742 80.6566 155.734 81.1766 157.364 81.4216L158.391 80.2786C160.688 71.5946 148.104 67.9716 143.997 78.7196C142.659 82.2936 142.89 86.2676 144.634 89.6626C146.805 93.9866 150.264 96.2606 154.704 97.7606L155.358 97.9756L152.244 99.9336Z" fill="#1D7275"/>
<path d="M106.925 8.39278C116.513 4.93288 128.456 1.22748 138.504 0.761383C138.984 7.81048 137.561 12.9378 129.346 7.83389C127.656 9.53238 126.553 10.9704 124.35 11.8248L123.357 11.6973C121.731 9.26178 122.92 8.19238 121.06 6.36148C118.572 6.92468 109.886 8.28098 108.689 9.50958L106.925 8.39278Z" fill="#1D7275"/>
<path d="M92.307 66.4406C86.454 64.2166 88.8 67.9216 84.185 68.9596C82.649 68.2156 83.157 68.7846 82.554 67.2496C83.026 65.8626 83.495 65.0136 83.172 63.6066C82.666 63.1386 81.531 62.1806 81.318 61.5676C80.259 58.5256 85.013 54.8946 86.934 53.9096C88.889 53.8966 88.002 53.6026 89.597 55.0636C91.465 55.5186 91.8 54.3806 94.676 53.8156C96.865 55.5346 95.572 58.0596 94.126 59.7826C92.179 62.1006 92.164 63.0456 92.596 66.0536L92.307 66.4406Z" fill="#1D7275"/>
<path d="M191.165 49.9816C195.214 45.7946 187.305 30.8268 193.708 27.1687L194.221 27.6996C193.941 30.5772 193.189 32.2964 193.4 35.0711C193.746 40.1976 199.166 49.5116 194.386 53.7666C191.838 56.0346 188.37 55.9076 188.06 60.7486C187.821 64.4876 188.721 65.5696 187.438 69.3236L186.979 69.3296C186.019 66.2356 185.419 63.1116 184.792 59.9396C185.33 55.6116 188.269 53.0436 191.165 49.9816Z" fill="#1D7275"/>
<path d="M179.175 45.6566C180.839 46.2886 181.143 46.7986 182.587 46.1036C185.099 44.8936 187.947 40.4624 189.712 38.1362C189.978 43.2026 182.583 50.3946 178.892 53.7846C178.676 56.2226 178.214 64.5456 177.643 66.3156C175.979 63.6906 177.557 60.2426 176.434 56.3796C176.817 51.0056 179.749 51.1896 178.659 45.9716L179.175 45.6566Z" fill="#1D7275"/>
<path d="M232.199 124.166C236.85 126.863 246.682 115.258 249.365 112.088L250.308 112.993C245.951 120.03 242.403 122.859 235.736 127.751C234.671 127.16 232.673 125.669 231.609 124.924L232.199 124.166Z" fill="#1D2D53"/>
<path d="M138.504 0.761392C141.64 -0.0363078 152.979 -0.201207 156.363 0.238493C154.519 0.313293 153.099 0.0191926 151.911 1.00249C152.293 2.39929 154.816 4.77079 156.218 7.35999C151.336 5.43229 142.954 0.371892 138.504 0.761392Z" fill="#1D7275"/>
<path d="M245.206 99.4856C246.352 97.3816 247.718 94.9986 248.871 92.9976C249.751 91.4696 248.087 87.7306 250.986 86.5836C252.274 88.5626 251.503 92.9456 251.235 95.3836C247.089 100.786 249.209 96.2316 247.528 102.886C245.576 101.353 246.21 101.999 245.206 99.4856Z" fill="#197871"/>
<path d="M232.199 124.166C239.154 120.225 241.868 119.597 247.276 112.098C248.53 110.359 249.684 107.767 251.138 106.445L251.683 106.777C251.648 108.412 250.223 110.59 249.365 112.088C246.682 115.258 236.85 126.863 232.199 124.166Z" fill="#1D676E"/>
<path d="M187.131 49.4076L188.336 49.7316L189.798 48.7786C190.472 49.2986 190.614 49.3436 191.165 49.9816C188.269 53.0436 185.33 55.6116 184.792 59.9396C184.431 58.2536 184.503 58.3546 183.382 57.0536C185.147 55.2456 185.673 52.1636 187.131 49.4076Z" fill="#1D3454"/>
<path d="M183.382 57.0536C182.755 54.5106 183.775 48.4456 186.791 48.2226L187.131 49.4076C185.673 52.1636 185.147 55.2456 183.382 57.0536Z" fill="#197871"/>
<path d="M101.998 13.5804C105.728 9.60148 106.121 12.5729 108.689 9.50958C107.907 12.5216 105.294 15.1985 101.998 13.5804Z" fill="#197871"/>
<path d="M218.087 22.5116C219.357 22.8563 218.965 22.7059 220.089 23.3758C221.225 24.9075 221.201 25.6263 221.599 27.5893L221.736 28.2893L222.291 28.6447C224.414 27.3813 225.247 26.3758 227.609 27.3249C228.295 28.3069 228.369 28.8651 228.227 30.0929C227.705 34.595 231.033 31.2855 233.57 36.1303C232.655 39.7317 229.989 38.3274 227.389 40.2627C226.906 40.622 227.033 42.4016 225.323 43.6476C223.73 43.1066 221.869 41.0263 220.568 39.7764C221.23 53.0216 216.053 55.2286 211.911 66.1656C208.336 75.6046 221.39 85.3366 225.695 73.4666C226.086 72.3886 225.428 71.0596 224.773 70.2036C222.732 69.3636 220.846 69.7986 218.58 70.0016L218.391 68.8266C220.948 65.6996 220.921 65.5836 224.937 65.9806C230.817 70.7696 230.509 77.7936 223.153 81.1616C220.506 82.3736 217.115 81.7736 214.519 80.5036C198.36 72.5956 219.176 52.8406 216.631 44.3656C215.437 44.6726 214.515 45.0426 213.372 45.4756C211.332 45.1266 212.214 45.5536 210.674 44.0636C210.065 41.7273 210.761 40.8003 211.604 38.3151C211.179 36.3751 209.999 36.1189 208.45 33.8482C208.335 31.783 208.631 32.0768 209.869 29.9108C209.602 28.5399 207.79 28.2675 205.835 26.4234C205.605 24.761 205.494 25.5894 206.546 23.9286C210.859 21.5893 213.274 26.0837 216.044 26.8489C216.783 24.7826 216.967 24.3892 218.087 22.5116Z" fill="#1D7275"/>
<path d="M213.656 31.2839C214.432 31.1184 215.235 31.3925 215.748 31.9974C216.26 32.6023 216.399 33.44 216.108 34.1777C215.818 34.9154 215.145 35.4337 214.358 35.5267C213.216 35.6616 212.17 34.8749 211.982 33.7403C211.794 32.6057 212.532 31.5239 213.656 31.2839Z" fill="#1D2D53"/>
<path d="M222.566 33.7114C224.344 33.7484 225.006 33.6158 226.577 34.4781C227.058 35.9487 226.913 35.4636 226.029 37.3401C224.16 36.9668 223.023 36.7534 222.081 35.0965L222.566 33.7114Z" fill="#1D3454"/>
<path d="M111.403 94.7526L111.93 94.7766C115.572 94.9206 115.093 96.5646 118.105 97.1926L118.758 96.8936L119.649 96.4976C126.643 93.3106 129.034 104.267 123.016 105.752C120.511 106.371 118.612 104.755 116.574 103.455C112.753 105.857 112.799 106.842 111.082 110.979C107.274 109.121 105.581 107.543 102.197 111.051C102.186 112.392 102.144 113.017 101.979 114.349C100.045 116.167 97.8658 115.763 94.9748 115.876C94.5288 116.224 94.0718 116.558 93.6058 116.876C92.0828 117.897 91.3378 118.175 89.5728 117.8C88.0298 116.673 88.3368 117.361 88.0098 115.93C88.6698 113.615 93.1458 104.344 95.7158 103.31C96.7718 102.885 99.8798 104.343 101.667 103.162C102.183 101.499 102.39 100.946 103.116 99.3646C106.578 96.4116 107.252 98.9146 111.403 94.7526Z" fill="#1D7275"/>
<path d="M167.381 8.43381L168.748 9.56351C172.043 18.7726 154.358 23.5389 149.582 29.4518C145.3 34.7531 143.877 39.4491 142.446 45.8336C141.288 45.8326 138.369 45.8316 137.357 46.0876C132.601 47.2886 127.184 55.2246 124.419 59.1876C124.511 61.0056 124.823 62.3296 123.904 63.8326C122.372 64.3026 123.181 64.2476 121.403 63.6126C121.657 58.7346 121.093 61.7346 119.806 57.0536C120.303 54.8636 122.304 51.6436 123.913 50.0046C125.117 50.4026 125.098 50.4516 126.111 51.1996C127.45 50.2776 129.49 46.8696 130.507 45.3466C134.441 43.3276 135.719 43.3936 140.07 43.0076C142.103 33.4051 145.705 27.3767 154.308 22.0464C161.02 17.8874 166.468 17.1028 167.381 8.43381Z" fill="#1D7275"/>
<path d="M136.06 48.0116C136.686 47.6236 137.477 47.6146 138.112 47.9896C138.748 48.3646 139.122 49.0606 139.084 49.7976C139.046 50.5346 138.603 51.1886 137.932 51.4966C136.981 51.9336 135.854 51.5566 135.359 50.6346C134.864 49.7126 135.17 48.5636 136.06 48.0116Z" fill="#197871"/>
<path d="M265.924 219.926C267.385 222.686 268.5 223.725 271.138 225.42L272.629 225.917L274.38 225.88C276.141 225.592 277.28 224.996 278.907 224.297C283.23 232.483 287.293 236.597 295.53 240.883C296.899 241.366 298.291 241.781 299.701 242.128C307.626 244.076 312.805 241.614 319.27 237.655C318.264 240.665 317.486 243.219 316.059 246.065L313.108 251.596L311.973 253.208L309.491 256.911C308.395 258.196 305.671 261.559 304.562 262.535C293.26 274.232 278.131 281.477 261.933 282.95C258.414 283.103 254.519 283.421 251.077 282.897C246.774 282.892 241.467 281.559 237.292 280.575L231.209 278.703C232.11 276.583 231.173 273.133 231.683 270.916C232.264 268.39 233.89 266.176 234.467 263.552C235.43 262.443 236.575 261.672 237.748 260.781C240.059 258.591 242.383 256.262 244.669 254.031L248.36 249.954C256.996 239.017 260.541 232.535 265.924 219.926Z" fill="#1D2D53"/>
<path d="M248.36 249.954C254.944 251.828 259.34 254.158 262.969 260.48C265.848 265.429 266.561 271.346 264.938 276.837C264.342 278.793 263.004 281.185 261.933 282.95C258.414 283.103 254.519 283.421 251.077 282.897C246.774 282.892 241.467 281.559 237.292 280.575L231.209 278.703C232.11 276.583 231.173 273.133 231.683 270.916C232.264 268.39 233.89 266.176 234.467 263.552C235.43 262.443 236.575 261.672 237.748 260.781C240.059 258.591 242.383 256.262 244.669 254.031L248.36 249.954Z" fill="#1D2D53"/>
<path d="M237.748 260.781C242.614 260.24 242.944 258.203 248.36 260.256C257.858 263.855 258.481 276.119 248.767 279.813C247.102 280.446 243.744 279.36 242.423 278.26C238.206 275.328 238.854 269.633 244.14 268.479L245.07 268.898C246.037 272.952 243.055 272.314 245.699 275.18C246.893 275.544 247.46 275.91 248.722 275.222C255.078 271.752 248.871 262.675 243.914 263.112C234.831 263.913 235.506 275.179 237.292 280.575L231.209 278.703C232.11 276.583 231.173 273.133 231.683 270.916C232.264 268.39 233.89 266.176 234.467 263.552C235.43 262.443 236.575 261.672 237.748 260.781Z" fill="#1D7275"/>
<path d="M248.36 249.954C254.944 251.828 259.34 254.158 262.969 260.48C265.848 265.429 266.561 271.346 264.938 276.837C264.342 278.793 263.004 281.185 261.933 282.95C258.414 283.103 254.519 283.421 251.077 282.897L257.126 282.637C259.183 279.351 260.497 277.518 261.024 273.556C261.657 268.821 260.301 264.035 257.278 260.337C253.817 256.114 249.862 254.545 244.669 254.031L248.36 249.954Z" fill="#1D7275"/>
<path d="M274.38 225.88C276.141 225.592 277.28 224.996 278.907 224.297C283.23 232.483 287.293 236.597 295.53 240.883C296.899 241.366 298.291 241.781 299.701 242.128C307.626 244.076 312.805 241.614 319.27 237.655C318.264 240.665 317.486 243.219 316.059 246.065L313.108 251.596C312.436 251.577 311.139 251.433 310.365 251.503C304.614 252.018 300.05 247.828 294.423 249.763C294.118 249.765 293.813 249.767 293.507 249.769C291.994 248.583 290.224 246.889 288.768 245.572C286.833 245.183 284.943 244.667 283.031 244.173C277.678 235.113 275.798 236.509 272.629 225.917L274.38 225.88Z" fill="#1D7275"/>
<path d="M272.629 225.917L274.38 225.88C275.188 231.842 276.819 234.353 282.043 237.205C282.769 239.31 282.978 240.506 284.416 242.129C285.918 242.665 285.252 242.753 286.499 242.301C289.233 242.918 289.347 242.979 291.51 244.773C292.802 245.968 293.376 246.42 294.804 247.463C300.376 245.882 299.675 246.881 305.024 249.217C310.056 246.511 310.406 246.231 316.059 246.065L313.108 251.596C312.436 251.577 311.139 251.433 310.365 251.503C304.614 252.018 300.05 247.828 294.423 249.763C294.118 249.765 293.813 249.767 293.507 249.769C291.994 248.583 290.224 246.889 288.768 245.572C286.833 245.183 284.943 244.667 283.031 244.173C277.678 235.113 275.798 236.509 272.629 225.917Z" fill="#1D2D53"/>
<path d="M286.499 242.301L286.839 240.889C289.256 240.129 289.727 240.755 291.467 242.422C291.607 243.559 291.648 243.649 291.51 244.773C289.347 242.979 289.233 242.918 286.499 242.301Z" fill="#1D676E"/>
<path d="M283.215 248.327C284.196 250.351 284.659 251.811 286.415 253.192C288.891 253.68 292.207 252.483 293.209 253.049C299.337 256.506 298.227 260.591 305.791 255.634C308.02 255.544 307.269 255.523 309.491 256.911C308.395 258.196 305.671 261.559 304.562 262.535C300.122 260.832 298.041 263.323 295.846 261.825C296.956 249.725 286.601 259.069 282.151 256.415C280.358 254.019 280.967 251.986 281.352 249.077L283.215 248.327Z" fill="#1D7275"/>
<path d="M271.138 225.42L272.629 225.917C275.798 236.509 277.678 235.113 283.031 244.173C284.943 244.667 286.833 245.183 288.768 245.572C290.224 246.889 291.994 248.583 293.507 249.769L293.817 250.744L287.881 251.172C286.417 248.897 285.724 247.86 283.944 245.843C277.225 243.963 277.383 243.774 275.733 237.005C274.374 236.06 272.534 234.995 271.094 234.102C271.03 231.296 271.112 228.249 271.138 225.42Z" fill="#1D7275"/>
<path d="M272.307 239.643C269.388 237.842 265.904 234.597 266.604 230.764C267.566 229.669 267.061 230.154 268.831 229.686C270.718 231.97 264.489 234.411 274.383 238.043C275.58 247.047 275.991 245.248 283.214 248.327L281.352 249.077C280.737 248.751 280.393 248.609 279.673 248.615C272.61 248.665 272.983 245.394 272.307 239.643Z" fill="#197871"/>
<path d="M293.507 249.769C293.813 249.767 294.118 249.765 294.423 249.763C300.05 247.828 304.614 252.018 310.365 251.503C311.139 251.433 312.436 251.577 313.108 251.596L311.973 253.208C309.575 253.241 308.016 252.718 305.701 252.148C303.805 253.325 301.953 254.154 299.945 255.115C297.693 253.303 296.383 252.131 293.817 250.744L293.507 249.769Z" fill="#1D676E"/>
<path d="M270.711 241.669C273.488 244.706 267.013 250.652 278.549 250.914C279.294 260.527 280.692 260.624 289.772 258.484C290.298 261.197 290.497 264.171 292.626 265.886C294.269 266.385 296.852 265.434 298.817 265.04L299.109 265.863C291.634 269.431 290.697 267.433 288.444 260.675C285.312 261.296 282.552 262 279.514 260.701C277.017 258.238 279.643 253.334 273.464 251.656C268.681 250.358 267.681 245.324 270.711 241.669Z" fill="#197871"/>
<path d="M186.979 69.3296L187.438 69.3236C193.779 85.0126 198.322 92.7016 209.626 105.549L212.185 108.445C214.779 111.211 216.418 112.924 219.303 115.343C222.643 118.309 225.341 120.394 228.931 123.08L231.609 124.924C232.673 125.669 234.671 127.16 235.736 127.751L237.724 128.96C242.41 131.982 246.927 134.796 251.937 137.291L254.275 138.607L255.843 139.293L258.158 140.384L261.092 141.8C263.062 142.567 267.34 144.347 269.174 144.813C270.955 147.863 271.066 150.483 271.493 153.996C264.3 152.115 241.906 142.505 237.039 137.597C234.292 132.944 227.315 131.101 222.292 130.001L222.959 129.311C222.605 128.026 219.355 125.768 217.954 124.498C212.604 119.648 207.692 114.337 203.275 108.625C195.199 98.2256 191.447 90.0536 186.891 78.0846C160.015 111.767 132.194 122.888 92.0576 133.529C82.5316 136.055 70.9136 139.714 63.1746 145.963C56.7946 151.114 54.9296 158.196 50.6846 163.656C55.1406 127.557 83.1935 128.676 111.392 118.675C126.49 113.32 138.493 108.563 152.244 99.9336L155.358 97.9756C164.552 92.0766 171.658 85.4306 179.398 77.8356L180.899 76.2116L186.979 69.3296Z" fill="#F6A575"/>
<path d="M297.715 177.286C299.059 177.2 300.086 177.137 301.362 176.64C304.936 175.246 307.736 176.944 311.046 177.8C318.751 191.742 323.373 204.875 322.732 220.946C322.488 224.518 322.039 227.066 321.413 230.604L320.826 232.734L319.27 237.655C312.805 241.614 307.626 244.076 299.701 242.128C298.291 241.781 296.899 241.366 295.53 240.883C287.293 236.597 283.23 232.483 278.907 224.297L280.99 222.354L282.22 220.655L283.063 219.058C285.073 217.972 287.661 216.03 289.558 214.633C291.737 212.458 292.676 211.08 294.441 208.623C300.237 197.505 300.91 189.928 297.215 178.032L297.715 177.286Z" fill="#1D2D53"/>
<path d="M282.22 220.655C286.545 228.425 289.739 235.082 299.169 237.756C307.946 240.246 317.226 236.25 320.175 227.319C320.738 228.54 321.144 229.267 321.413 230.604L320.826 232.734L319.27 237.655C312.805 241.614 307.626 244.076 299.701 242.128C298.291 241.781 296.899 241.366 295.53 240.883C287.293 236.597 283.23 232.483 278.907 224.297L280.99 222.354L282.22 220.655Z" fill="#1D7275"/>
<path d="M297.828 239.944C299.147 240.192 300.471 240.407 301.8 240.588C310.839 241.742 314.571 237.519 320.826 232.734L319.27 237.655C312.805 241.614 307.626 244.076 299.701 242.128C298.291 241.781 296.899 241.366 295.53 240.883L297.828 239.944Z" fill="#1D2D53"/>
<path d="M280.99 222.354C284.217 230.193 288.253 235.89 296.321 239.327C296.821 239.538 297.324 239.744 297.828 239.944L295.53 240.883C287.293 236.597 283.23 232.483 278.907 224.297L280.99 222.354Z" fill="#1D2D53"/>
<path d="M320.175 227.319C320.69 216.328 309.846 207.504 304.7 219.101C305.256 222.701 308.284 220.257 310.641 222.387C310.112 224.043 310.513 223.255 308.981 224.616C305.866 225.309 302.727 222.692 302.612 220.07C302.228 211.314 313.372 210.403 318.426 215.448C321.509 218.524 320.653 219.617 320.819 223.178L321.56 223.528C321.221 222.107 321.079 222.661 321.466 221.534L322.732 220.946C322.488 224.518 322.039 227.066 321.413 230.604C321.144 229.267 320.738 228.54 320.175 227.319Z" fill="#1D7275"/>
<path d="M289.558 214.633C291.737 212.458 292.676 211.08 294.441 208.623C296.036 209.525 296.216 209.456 297.083 211.107C297.094 215.539 292.904 215.917 289.558 214.633Z" fill="#1D7275"/>
<path d="M313.722 196.474C314.657 196.166 315.686 196.401 316.394 197.084C317.102 197.767 317.373 198.786 317.099 199.731C316.825 200.676 316.05 201.392 315.087 201.59C313.71 201.874 312.352 201.034 311.989 199.676C311.627 198.318 312.387 196.914 313.722 196.474Z" fill="#1D676E"/>
<path d="M304.769 201.499C305.949 200.806 307.467 201.189 308.177 202.36C308.886 203.53 308.523 205.054 307.362 205.779C306.597 206.257 305.634 206.286 304.842 205.855C304.049 205.425 303.55 204.6 303.535 203.699C303.52 202.797 303.991 201.956 304.769 201.499Z" fill="#1D7275"/>
<path d="M284.586 181.857C285.8 177.903 286.207 174.259 286.988 170.25C287.509 167.575 287.057 167.991 288.642 166.92C289.73 167.909 291.249 169.207 292.256 170.225L292.995 170.973C295.132 173.877 295.645 174.8 297.215 178.032C300.91 189.928 300.237 197.505 294.441 208.623C292.676 211.08 291.737 212.458 289.558 214.633C287.661 216.03 285.073 217.972 283.063 219.058L282.22 220.655L280.99 222.354L278.907 224.297C277.28 224.996 276.141 225.592 274.38 225.88L272.629 225.917L271.138 225.42C268.5 223.725 267.385 222.686 265.924 219.926C266.53 216.861 268.032 213.536 268.804 210.159L273.603 208.339L273.887 207.921C278.896 199.562 281.911 191.153 284.586 181.857Z" fill="#F9C190"/>
<path d="M273.603 208.339C276.763 209.05 277.688 209.446 280.47 210.998C282.118 214.201 282.652 215.405 283.063 219.058L282.22 220.655L280.99 222.354L278.907 224.297C277.28 224.996 276.141 225.592 274.38 225.88L272.629 225.917L271.138 225.42C268.5 223.725 267.385 222.686 265.924 219.926C266.53 216.861 268.032 213.536 268.804 210.159L273.603 208.339Z" fill="#F3C01D"/>
<path d="M284.586 181.857C292.951 192.928 286.958 205.108 273.887 207.921C278.896 199.562 281.911 191.153 284.586 181.857Z" fill="#F6A575"/>
<path d="M269.174 144.813C278.413 144.663 289.179 153.485 289.665 163.324C289.739 164.824 289.661 165.84 288.642 166.92C287.057 167.991 287.509 167.575 286.988 170.25C286.207 174.259 285.8 177.903 284.586 181.857C281.911 191.153 278.896 199.562 273.887 207.921L273.603 208.339L268.804 210.159C274.079 191.446 273.886 173.024 271.493 153.996C271.066 150.483 270.955 147.863 269.174 144.813Z" fill="#1D2D53"/>
<path d="M237.039 137.597C210.931 126.939 198.193 149.01 189.569 145.529C183.105 137.974 199.507 132.838 204.269 131.53C210.93 129.701 215.417 129.655 222.292 130.001C227.315 131.101 234.292 132.944 237.039 137.597Z" fill="#40210E"/>
<path d="M81.3779 257.086C89.7349 264.319 94.0519 267.441 103.369 273.58C98.0429 275.989 93.6679 277.883 88.0379 279.721C89.0989 268.211 86.7149 266.269 81.3779 257.086Z" fill="#1D2D53"/>
<path d="M234.467 263.552C233.89 266.176 232.264 268.39 231.683 270.916C231.173 273.133 232.11 276.583 231.209 278.703L226.715 277.021C226.647 274.244 226.528 272.01 226.291 269.243C228.468 267.953 232.267 265.1 234.467 263.552Z" fill="#1D3454"/>
<path d="M226.291 269.243C226.528 272.01 226.647 274.244 226.715 277.021L224.037 275.756C224.108 273.518 224.086 273.45 223.06 271.412L226.291 269.243Z" fill="#1D7275"/>
<path d="M223.06 271.412C224.086 273.45 224.108 273.518 224.037 275.756L219.061 273.675L223.06 271.412Z" fill="#1D676E"/>
<path d="M102.667 160.233C107.315 160.472 109.648 160.662 114.263 161.659C122.728 164.625 133.253 175.006 131.321 184.515C131.16 187.712 130.753 189.762 129.479 192.778C127.046 198.655 122.293 203.265 116.344 205.518C109.692 207.957 102.348 207.694 95.8885 204.783C86.3765 200.389 83.9505 193.735 80.7895 184.79L80.4285 185.063C78.0525 184.379 75.6255 180.057 74.1885 177.883C79.8835 166.954 90.5915 161.05 102.667 160.233Z" fill="#582D0F"/>
<path d="M80.79 184.79C84.999 170.931 96.645 166.398 109.786 165.664C80.61 173.892 96.871 208.078 118.054 200.798C122.657 199.208 126.401 195.79 128.402 191.349C129.64 188.59 129.861 186.019 130.108 183.044L130.485 182.953L131.322 184.515C131.161 187.712 130.753 189.762 129.479 192.778C127.046 198.655 122.293 203.265 116.344 205.518C109.692 207.957 102.349 207.694 95.889 204.783C86.377 200.389 83.951 193.735 80.79 184.79Z" fill="white"/>
<path d="M107.397 173.07C117.609 168.225 130.852 176.402 126.222 188.502C124.9 191.857 122.281 194.536 118.957 195.934C115.442 197.441 111.462 197.437 107.95 195.924C102.193 193.402 99.7898 186.398 101.008 180.563L101.791 179.7C100.479 178.048 100.515 175.699 101.878 174.088C103.24 172.477 105.55 172.051 107.397 173.07Z" fill="#40210E"/>
<path d="M101.791 179.7C100.479 178.048 100.515 175.699 101.878 174.088C103.24 172.477 105.55 172.051 107.397 173.07C108.966 173.936 109.859 175.662 109.658 177.443C109.457 179.224 108.202 180.708 106.479 181.203C104.756 181.697 102.906 181.104 101.791 179.7Z" fill="white"/>
<path d="M190.758 183.654L190.295 183.633C193.175 154.909 228.882 153.279 244.413 172.746C245.705 174.357 246.858 176.076 247.857 177.883C245.681 181.156 244.407 182.564 241.106 184.745C239.004 189.305 238.134 193.759 234.731 197.673C230.069 203.031 223.449 206.291 216.359 206.721C204.723 207.452 191.115 198.722 190.833 186.391L190.758 183.654Z" fill="url(#paint0_linear_274_25)"/>
<path d="M211.304 165.16C225.163 165.876 236.505 170.249 241.106 184.745C239.004 189.305 238.134 193.759 234.731 197.673C230.069 203.031 223.449 206.291 216.359 206.721C204.723 207.452 191.115 198.722 190.833 186.391L190.758 183.654L191.489 181.733L191.927 181.732C192.296 187.98 192.767 191.818 197.644 196.567C201.031 199.865 206.013 201.689 210.761 201.447C215.662 201.225 220.248 198.968 223.413 195.219C226.69 191.348 228.224 186.296 227.651 181.256C226.523 171.677 219.762 167.49 211.304 165.16Z" fill="white"/>
<path d="M204.019 173.027C208.493 169.484 216.35 170.957 219.647 175.731C230.138 190.923 207.987 207.539 197.972 190.838C196.29 188.031 194.775 180.766 196.91 178.096C197.898 177.837 197.741 177.693 198.52 177.895C198.246 176.417 198.767 174.902 199.893 173.906C201.018 172.909 202.584 172.575 204.019 173.027Z" fill="#40210E"/>
<path d="M198.52 177.895C198.246 176.417 198.767 174.902 199.893 173.906C201.018 172.909 202.584 172.575 204.019 173.027C206.02 173.656 207.271 175.643 206.974 177.72C206.677 179.797 204.919 181.353 202.822 181.396C200.724 181.44 198.903 179.958 198.52 177.895Z" fill="white"/>
<path d="M81.0713 149.492C95.4663 153.282 107.736 155.848 122.311 152.11C125.313 151.34 133.641 149.609 131.65 156.852C130.295 161.784 119.525 160.899 114.926 160.783L114.264 161.659C109.649 160.662 107.315 160.472 102.667 160.233L103.127 159.043C94.7713 157.372 88.2583 154.077 81.0713 149.492Z" fill="#40210E"/>
<path d="M103.127 159.043C105.681 159.401 112.791 160.227 114.926 160.783L114.264 161.659C109.649 160.662 107.315 160.472 102.667 160.233L103.127 159.043Z" fill="#A47652"/>
<path d="M160.678 203.751C166.13 205.117 173.795 214.756 168.956 219.322C166.999 220.226 165.349 219.907 163.147 219.806C159.792 219.882 154.794 220.8 152.573 218.188C150.82 213.508 156.558 205.805 160.678 203.751Z" fill="#F6A575"/>
<path d="M158.552 236.933C167.605 236.03 176.465 237.087 181.138 245.931L180.644 247.461C177.19 248.064 172.109 243.383 166.887 242.016L166.245 241.854C154.038 241.039 155.74 245.008 145.15 247.574C144.555 247.718 144.25 247.152 143.744 246.626C143.685 241.71 154.407 237.86 158.552 236.933Z" fill="#F37F5B"/>
<path d="M133.325 145.044C139.457 146.007 139.983 154.819 137.725 159.638C137.378 159.898 136.504 160.431 136.112 160.681C135.15 159.556 136.036 156.12 135.568 153.533C134.955 150.149 134.366 148.254 133.325 145.044Z" fill="#F6A575"/>
<path d="M180.422 137.53C181.029 137.695 182.009 137.94 182.13 138.603C182.679 141.613 186.102 149.158 185.232 151.63C180.82 148.946 178.532 142.333 180.422 137.53Z" fill="#F6A575"/>
<path d="M143.966 144.907C149.106 146.651 147.972 155.327 147.231 159.572L145.903 160.079C144.793 158.931 144.189 147.23 143.966 144.907Z" fill="#F6A575"/>
<defs>
<linearGradient id="paint0_linear_274_25" x1="226.596" y1="161.424" x2="208.195" y2="201.208" gradientUnits="userSpaceOnUse">
<stop stop-color="#42220F"/>
<stop offset="1" stop-color="#693713"/>
</linearGradient>
</defs>
</svg>
