<svg width="318" height="282" viewBox="0 0 318 282" fill="none" xmlns="http://www.w3.org/2000/svg">
<path d="M137.137 0.420013C140.914 0.239013 144.693 0.099 148.473 0C165.577 0.639 174.931 1.87699 189.918 10.9C199.202 8.13099 210.702 8.33899 219.528 12.439L222.694 13.941C240.585 22.501 256.281 35.042 268.579 50.603L270.909 53.777C275.144 59.27 279.433 66.351 282.652 72.588L287.659 83.112C291.531 93.308 294.654 103.972 296.055 114.816L296.692 120.594L296.938 126.358C297.085 127.947 297.215 129.33 297.256 130.924L297.29 134.74L297.303 137.525C298.146 145.811 297.488 148.741 299.587 156.994C300.269 159.612 301.709 163.868 303.047 166.231L303.448 167.726C304.827 170.003 305.457 171.425 306.512 173.813C313.555 187.462 318.71 200.902 317.548 216.543C317.086 220.386 316.688 224.073 315.916 227.876L315.488 228.76L314.683 231.76C313.746 234.471 312.915 237.105 311.68 239.695C310.908 241.094 309.697 243.468 308.849 244.715L307.586 247.039L305.62 249.928C303.717 252.269 302.047 254.453 299.815 256.491L295.078 261.074C284.47 269.789 273.858 274.873 260.082 276.478C257.704 276.917 255.762 276.814 253.355 276.812C245.656 276.83 242.336 276.325 234.855 274.535C232.84 273.956 230.754 273.262 228.745 272.631L223.825 270.831L220.877 269.608L216.282 267.536C186.579 283.025 152.548 285.453 120.442 275.696C114.061 273.756 107.542 270.302 101.454 267.481C95.831 269.935 91.594 271.544 85.771 273.617L83.744 273.936C79.242 275.42 75.319 276.062 70.592 276.444C68.319 276.955 65.513 276.778 63.132 276.756C57.238 276.728 51.532 275.629 45.857 274.157L43.975 273.644L37.418 271.015L35.602 269.922L34.109 269.506C32.431 268.313 29.591 266.693 27.76 265.568L25.81 264.155L22.358 261.538L19.783 259.088C18.174 257.489 17.278 256.49 15.858 254.722L14.909 253.769C5.671 241.383 0.714 230.912 0.0979996 215.197L0 213.178L0.183006 208.467L0.437004 205.799C0.741004 202.589 1.466 199.486 2.122 196.328L2.519 194.463L4.106 190.028L5.331 186.237L7.178 181.673L8.29501 179.062L10.954 173.461C11.973 171.681 13.369 168.689 14.326 166.78C17.233 160.281 18.287 154.916 19.48 147.967L19.664 146.319C19.789 141.341 19.94 136.365 20.117 131.389C20.169 128.681 20.252 126.453 20.471 123.739L20.641 120.241C21.763 110.369 23.165 102.745 26.082 93.286C27.561 88.387 29.402 83.605 31.591 78.98L32.088 77.305C33.667 74.919 35.63 70.983 37.036 68.353C39.226 64.204 40.813 61.715 43.452 57.806C45.749 54.035 49.034 49.955 51.989 46.667C54.452 43.118 59.857 37.87 63.059 34.792L66.811 31.454L71.039 27.898L77.873 22.624L80.642 20.793L84.373 18.348C85.985 17.297 87.928 16.288 89.631 15.342L93.89 13.034C97.752 11.245 100.762 9.933 104.741 8.453L107.353 7.32901C114.84 4.83101 128.579 0.891002 135.988 0.746002L137.137 0.420013Z" fill="#F9C190"/>
<path d="M137.137 0.420013C140.914 0.239013 144.693 0.099 148.473 0C165.577 0.639 174.931 1.87699 189.918 10.9C199.202 8.13099 210.702 8.33899 219.528 12.439L222.694 13.941C240.585 22.501 256.281 35.042 268.579 50.603L270.909 53.777C275.144 59.27 279.433 66.351 282.652 72.588L287.659 83.112C291.531 93.308 294.654 103.972 296.055 114.816L296.692 120.594L296.938 126.358C297.085 127.947 297.215 129.33 297.256 130.924L297.29 134.74L297.303 137.525C298.146 145.811 297.488 148.741 299.587 156.994C300.269 159.612 301.709 163.868 303.047 166.231L303.448 167.726C300.655 169.045 299.232 167.87 296.394 169.368C296.296 170.907 296.27 171.05 295.861 172.537C294.629 172.695 293.533 172.742 292.381 173.15C291.241 170.915 290.362 169.618 288.975 167.55L288.043 166.289L284.292 162.737L284.994 161.923C285.996 152.128 273.193 139.12 265.452 142.147C262.748 141.259 261.018 140.351 258.5 139.1C257.667 138.982 255.112 137.877 254.176 137.502L252.505 136.732L250.689 135.894L248.357 134.487C243.93 132.451 239.182 129.59 235.134 126.888L232.28 125.041L225.657 120.754C222.254 118.127 218.935 115.393 215.704 112.558C213.367 110.673 210.92 108.053 208.767 105.875L205.804 102.699C195.005 90.994 190.279 82.285 184.205 68.076L183.712 68.167C181.832 70.303 179.849 72.636 177.914 74.691L176.583 76.212C169.909 83.384 161.596 90.837 153.132 95.857L150 97.905C138.137 105.102 125.499 110.937 112.327 115.299C103.196 118.349 93.365 121.093 84.06 123.665C68.505 127.965 54.82 135.596 50.947 152.535C50.594 154.135 50.32 155.751 50.125 157.378C48.091 171.766 49.157 191.105 53.062 205.013C53.855 207.624 55.292 213.482 56.186 215.536C53.362 219.494 50.757 220.448 45.87 220.225L43.621 225.777C32.364 229.699 38.333 227.507 34.345 234.741C33.109 235.678 28.87 238.181 28.586 238.682C25.244 244.586 28.482 242.967 23.17 248.171C23.871 253.273 24.581 254.608 20.489 258.349L19.783 259.088C18.174 257.489 17.278 256.49 15.858 254.722L14.909 253.769C5.671 241.383 0.714 230.912 0.0979996 215.197L0 213.178L0.183006 208.467L0.437004 205.799C0.741004 202.589 1.466 199.486 2.122 196.328L2.519 194.463L4.106 190.028L5.331 186.237L7.178 181.673L8.29501 179.062L10.954 173.461C11.973 171.681 13.369 168.689 14.326 166.78C17.233 160.281 18.287 154.916 19.48 147.967L19.664 146.319C19.789 141.341 19.94 136.365 20.117 131.389C20.169 128.681 20.252 126.453 20.471 123.739L20.641 120.241C21.763 110.369 23.165 102.745 26.082 93.286C27.561 88.387 29.402 83.605 31.591 78.98L32.088 77.305C33.667 74.919 35.63 70.983 37.036 68.353C39.226 64.204 40.813 61.715 43.452 57.806C45.749 54.035 49.034 49.955 51.989 46.667C54.452 43.118 59.857 37.87 63.059 34.792L66.811 31.454L71.039 27.898L77.873 22.624L80.642 20.793L84.373 18.348C85.985 17.297 87.928 16.288 89.631 15.342L93.89 13.034C97.752 11.245 100.762 9.933 104.741 8.453L107.353 7.32901C114.84 4.83101 128.579 0.891002 135.988 0.746002L137.137 0.420013Z" fill="#1D2D53"/>
<path d="M89.6316 15.342C92.0776 17.946 93.8566 21.817 93.6676 25.462C92.6956 44.158 67.7416 44.4061 73.2476 76.3481C61.4346 75.1211 55.5096 78.9431 54.0006 90.9431C53.3656 95.9941 57.0976 104.819 53.9316 109.186C43.7476 116.563 31.6446 111.099 20.6416 120.241C21.7636 110.369 23.1656 102.745 26.0826 93.286C27.5616 88.387 29.4026 83.605 31.5916 78.98L32.0886 77.3051C33.6676 74.9191 35.6306 70.983 37.0366 68.353C39.2266 64.204 40.8136 61.715 43.4526 57.806C45.7496 54.035 49.0346 49.9551 51.9896 46.6671C54.4526 43.1181 59.8576 37.8701 63.0596 34.7921L66.8116 31.454L71.0396 27.898L77.8736 22.6241L80.6426 20.793L84.3736 18.3481C85.9856 17.2971 87.9286 16.288 89.6316 15.342Z" fill="#1D2D53"/>
<path d="M37.036 68.353C39.365 69.891 41.717 70.138 44.482 70.725C48.148 75.339 52.15 77.894 48.369 83.251C47.266 90.725 58.084 92.515 42.412 98.494C41.16 102.81 40.788 103.886 37.538 107.202C34.589 102.787 34.584 102.235 29.763 99.925C28.898 98.068 27.5 94.48 26.082 93.286C27.561 88.387 29.402 83.605 31.591 78.98L32.088 77.3051C33.667 74.9191 35.63 70.983 37.036 68.353Z" fill="#1D7275"/>
<path d="M32.0878 77.3051C34.6168 77.8641 35.9988 78.002 37.1078 80.574L36.7258 81.481C34.5848 81.725 33.8778 80.805 32.0228 79.327L31.5908 78.98L32.0878 77.3051Z" fill="#1D2D53"/>
<path d="M36.307 87.07C37.649 87.735 38.566 88.218 39.134 89.577C38.562 91.982 36.871 91.377 36.183 95.113L35.98 95.759L35.34 96.013L34.868 95.328C34.719 92.147 34.971 89.956 36.307 87.07Z" fill="#1D2D53"/>
<path d="M42.248 85.473C46.849 85.817 47.307 89.521 45.866 93.048L44.496 93.068L43.914 92.43C43.836 89.366 44.036 88.045 42.248 85.473Z" fill="#1D2D53"/>
<path d="M39.5664 74.281C43.4044 75.185 44.7544 76.492 44.7434 80.485L43.2004 80.748C41.6354 80.019 40.7464 76.589 39.5664 74.281Z" fill="#1D2D53"/>
<path d="M80.6426 20.793L84.3736 18.348C86.7926 22.34 88.1506 25.792 87.0136 30.582C86.2126 34.038 84.0056 37.003 80.9256 38.762C74.5516 42.382 67.8086 39.685 63.0596 34.792L66.8116 31.454L71.0396 27.898L77.8736 22.624L80.6426 20.793Z" fill="#1D7275"/>
<path d="M80.6425 20.793C89.5665 30.488 73.6095 43.738 66.8115 31.454L71.0395 27.898L77.8735 22.624L80.6425 20.793Z" fill="#1D3454"/>
<path d="M77.8731 22.624C78.3941 25.81 78.8691 28.017 75.5281 29.608C73.3341 29.605 72.8861 29.474 71.0391 27.898L77.8731 22.624Z" fill="#197871"/>
<path d="M43.4521 57.806C45.7491 54.035 49.0342 49.955 51.9892 46.667C51.9452 50.668 51.8432 51.494 48.7182 54.445C45.9362 57.072 46.6141 57.14 43.4521 57.806Z" fill="#1C5165"/>
<path d="M54.314 51.39C57.363 51.98 58.551 54.664 60.104 57.109C60.886 55.3 61.219 53.979 62.756 52.786L63.55 52.984C64.566 54.818 64.321 56.501 64.328 58.656C66.24 58.743 69.438 58.76 71.063 59.524C69.64 61.835 67.169 61.172 66.435 62.916C67.323 64.278 67.514 64.497 68.13 66.052C66.981 67.146 65.969 66.806 63.913 66.963C62.924 67.815 63.522 68.877 62.691 70.966L61.77 71.24C60.038 70.368 60.152 69.873 58.889 67.986C57.243 67.245 55.914 68.723 52.963 69.384L52.374 68.968C52.796 67.208 54.493 65.337 55.643 63.83C54.336 62.954 54.01 62.635 52.88 61.599L52.947 60.694C54.34 59.988 54.93 59.872 56.402 59.476C56.699 56.38 53.889 56.197 54.314 51.39Z" fill="#1D7275"/>
<path d="M10.954 173.461C15.265 177.33 15.401 177.642 20.49 174.506L23.827 178.833C23.308 182.924 23.223 184.849 23.258 188.982C23.877 192.634 24.195 194.799 25.373 198.312C27.68 203.214 28.852 205.063 32.603 208.96L33.791 210.182L38.582 213.5L39.156 213.633C41.165 217.136 41.9 218.768 45.87 220.225L43.621 225.777C32.364 229.699 38.333 227.507 34.345 234.741C33.109 235.678 28.87 238.181 28.586 238.682C25.244 244.586 28.482 242.967 23.17 248.171C23.871 253.273 24.581 254.608 20.489 258.349L19.783 259.088C18.174 257.489 17.278 256.49 15.858 254.722L14.909 253.769C5.671 241.383 0.714 230.912 0.0979996 215.197L0 213.178L0.183006 208.467L0.437004 205.799C0.741004 202.589 1.466 199.486 2.122 196.328L2.519 194.463L4.106 190.028L5.331 186.237L7.178 181.673L8.29501 179.062L10.954 173.461Z" fill="#1D2D53"/>
<path d="M10.954 173.461C15.265 177.33 15.401 177.642 20.49 174.506L23.827 178.833C23.308 182.924 23.223 184.849 23.258 188.982C23.877 192.634 24.195 194.799 25.373 198.312C24.433 201.189 24.133 203.265 22.635 206.016C17.606 215.256 9.966 216.583 0.0979996 215.197L0 213.178L0.183006 208.467L0.437004 205.799C0.741004 202.589 1.466 199.486 2.122 196.328L2.519 194.463L4.106 190.028L5.331 186.237L7.178 181.673L8.29501 179.062L10.954 173.461Z" fill="#1D2D53"/>
<path d="M10.954 173.461C15.265 177.33 15.401 177.642 20.49 174.506L23.827 178.833C23.308 182.924 23.223 184.849 23.258 188.982C23.877 192.634 24.195 194.799 25.373 198.312C24.433 201.189 24.133 203.265 22.635 206.016C17.606 215.256 9.966 216.583 0.0979996 215.197L0 213.178C6.535 214 12.46 213.648 17.445 208.765C20.349 205.947 21.991 202.075 21.998 198.029C22.045 189.441 16.239 181.61 7.178 181.673L8.29501 179.062L10.954 173.461Z" fill="#1D7275"/>
<path d="M10.9539 173.461C15.2649 177.33 15.4009 177.642 20.4899 174.506L23.8269 178.833C23.3079 182.924 23.2229 184.849 23.2579 188.982C22.3259 187.713 21.3689 186.463 20.3879 185.233C17.0509 181.122 13.4269 179.623 8.29492 179.062L10.9539 173.461Z" fill="#1D2D53"/>
<path d="M4.1065 190.028C9.0225 188.354 13.8625 189.092 15.4965 194.7C16.2355 197.246 15.8925 199.984 14.5495 202.27C13.2335 204.548 11.0055 206.154 8.4295 206.685C5.8215 207.197 2.9005 206.721 0.4375 205.799C0.7415 202.589 1.4665 199.486 2.1225 196.328L2.5195 194.463L4.1065 190.028Z" fill="#1D2D53"/>
<path d="M2.51907 194.463L3.04408 194.828C4.40608 195.76 4.94807 196.355 6.57207 196.369C8.79507 195.258 8.69108 194.807 10.4741 195.274C11.4471 199.39 6.04307 200.787 2.12207 196.328L2.51907 194.463Z" fill="#197871"/>
<path d="M5.33159 186.237C12.5256 185.801 18.5926 188.507 18.9666 196.642C19.1276 200.077 17.8196 203.418 15.3686 205.829C10.8846 210.262 5.78959 209.892 0.183594 208.467L0.437592 205.799C2.90059 206.721 5.8216 207.197 8.4296 206.685C11.0056 206.154 13.2336 204.548 14.5496 202.27C15.8926 199.984 16.2356 197.246 15.4966 194.7C13.8626 189.092 9.02259 188.354 4.10659 190.028L5.33159 186.237Z" fill="#1D7275"/>
<path d="M32.6032 208.96L33.7912 210.182L38.5822 213.5L39.1562 213.633C41.1652 217.136 41.9002 218.768 45.8702 220.225L43.6212 225.777C32.3642 229.699 38.3332 227.507 34.3452 234.741C33.1092 235.678 28.8702 238.181 28.5862 238.682C25.2442 244.586 28.4822 242.967 23.1702 248.171C23.8712 253.273 24.5812 254.608 20.4892 258.349L19.7832 259.088C18.1742 257.489 17.2782 256.49 15.8582 254.722L14.9092 253.769C16.3022 251.212 17.3382 248.819 18.5152 246.16C11.1302 236.66 21.9392 241.413 20.1652 229.925L20.0562 229.261C21.3722 226.992 23.9942 226.467 26.5262 225.702L26.4112 225.123C26.1172 223.041 25.7062 221.618 26.3142 219.657C33.0442 213.771 28.1862 213.936 32.6032 208.96Z" fill="#1D7275"/>
<path d="M32.603 208.96L33.791 210.182L38.582 213.5C36.054 216.63 34.797 216.126 35.76 220.203L35.308 221.045C33.469 220.635 31.829 220.047 30.061 220.591C27.853 223.47 30.146 224.938 28.903 226.922L28.646 226.831C27.743 225.957 27.834 226.195 26.526 225.702L26.411 225.123C26.117 223.041 25.706 221.618 26.314 219.657C33.044 213.771 28.186 213.936 32.603 208.96Z" fill="url(#paint0_linear_274_26)"/>
<path d="M32.603 208.96L33.791 210.182C31.309 213.157 31.698 213.819 32.491 217.529L32.119 218.248L31.444 218.378C29.86 218.695 28.913 218.685 27.761 219.758C26.944 221.201 27.271 222.533 27.39 224.249C27.109 224.517 26.719 224.934 26.411 225.123C26.117 223.041 25.706 221.618 26.314 219.657C33.044 213.771 28.186 213.936 32.603 208.96Z" fill="#197871"/>
<path d="M26.5262 225.702C27.8342 226.195 27.7432 225.957 28.6462 226.831C27.0752 227.642 26.4522 227.614 24.7272 227.831C22.6492 228.837 23.0862 228.292 21.8792 229.999C21.4182 232.213 21.8792 233.367 22.3862 235.602L22.2962 235.953C16.9842 239.45 16.0322 240.687 20.0472 245.951C19.4122 247.222 18.7792 248.516 18.1292 249.777C17.3992 251.857 17.1282 252.873 15.8582 254.722L14.9092 253.769C16.3022 251.212 17.3382 248.819 18.5152 246.16C11.1302 236.66 21.9392 241.413 20.1652 229.925L20.0562 229.261C21.3722 226.992 23.9942 226.467 26.5262 225.702Z" fill="#197871"/>
<path d="M22.296 235.953L22.925 237.124C22.435 238.543 21.958 238.942 20.995 240.065C20.657 242.594 21.128 242.727 22.95 244.442C22.235 246.612 20.321 247.481 19.081 250.58L18.129 249.777C18.779 248.516 19.412 247.222 20.047 245.951C16.032 240.687 16.984 239.45 22.296 235.953Z" fill="#1D2D53"/>
<path d="M24.7273 227.831C26.3163 227.923 28.0253 227.76 29.1973 228.514C28.5273 229.776 26.3793 230.319 24.8453 230.792L23.9823 231.053C23.5273 232.553 23.5303 232.946 23.3713 234.476L22.3863 235.602C21.8793 233.367 21.4183 232.213 21.8793 229.999C23.0863 228.292 22.6493 228.837 24.7273 227.831Z" fill="#1D2D53"/>
<path d="M15.8584 254.722C17.1284 252.873 17.3994 251.857 18.1294 249.777L19.0814 250.58C18.5074 254.089 19.0464 255.052 20.4894 258.349L19.7834 259.088C18.1744 257.489 17.2784 256.49 15.8584 254.722Z" fill="#1D3454"/>
<path d="M39.349 222.064C40.818 222.088 40.727 222.053 42.066 222.643L42.242 223.474C40.849 224.953 39.307 225.248 37.349 225.927L36.443 226.486L35.918 226.217C36.238 223.593 37.278 223.126 39.349 222.064Z" fill="#1D2D53"/>
<path d="M30.9447 228.357L32.2947 229.217C33.9887 233.005 30.8267 234.386 28.0067 236.464L27.2617 236.463C27.4897 233.804 30.9457 235.419 30.9447 228.357Z" fill="#1D2D53"/>
<path d="M137.073 55.791C146.861 49.006 148.777 41.647 155.61 32.813C157.556 30.297 164.885 24.454 167.562 21.807C170.035 19.361 171.282 16.806 173.108 14.97C171.931 18.509 171.367 20.417 169.235 23.635C166.67 27.506 159.534 31.623 157.341 35.022C151.018 44.822 147.84 49.741 139.346 57.817C138.897 61.016 138.929 64.174 135.454 65.354C128.196 67.819 131.96 78.029 123.42 70.358L122.844 70.874C117.227 75.993 121.816 81.687 114.723 82.944C112.566 83.327 110.304 81.602 107.586 82.628C105.917 84.441 106.141 84.796 105.706 87.512C103.867 88.464 103.031 87.696 101.296 86.749C96.4795 88.232 95.1425 88.864 90.6575 91.536C91.0865 90.645 93.4445 85.685 93.8975 85.35C96.6195 83.341 100.691 83.019 102.816 79.854C104.749 79.376 106.688 78.929 108.635 78.515C106.207 76.01 101.424 76.387 101.312 71.144L102.831 68.213L102.52 67.825C101.589 69.033 99.7795 71.563 99.1565 72.627C98.8155 73.209 96.2535 72.675 95.2895 74.489C95.5325 75.784 96.4455 76.43 97.4115 77.402C97.6515 79.007 97.7625 78.255 97.0395 79.733C95.5985 80.256 94.6085 79.777 93.0865 79.368C89.6775 82.208 93.0845 85.2 87.3635 88.823L85.8055 89.102C82.6735 113.648 68.7845 127.584 45.7485 134.843C38.3885 137.163 33.2275 133.548 28.6595 134.59C27.0625 136.778 28.2115 141.534 28.6205 144.284C27.2695 146.761 25.3685 149.259 25.0915 151.769C25.0705 151.958 24.6855 152.895 24.5795 153.16C22.2435 152.879 22.5235 149.616 19.4805 147.967L19.6645 146.319C21.2475 146.937 21.5865 147.191 23.3035 147C28.9435 142.839 17.8525 135.135 29.6485 128.155C42.2215 135.297 52.8175 129.883 63.7995 122.205C85.0225 107.365 78.3675 85.171 90.9105 64.759L91.2645 64.608C96.0615 60.135 100.52 56.018 107.51 56.122C114.987 56.234 117.818 61.212 118.978 67.677L120.183 68.097C121.237 66.358 121.336 66.249 122.713 64.793C126.682 60.596 125.7 57.543 130.235 53.62C132.528 54.286 134.866 54.897 137.073 55.791Z" fill="#1D7275"/>
<path d="M107.063 58.662C121.749 62.432 117.765 78.448 106.541 75.056C104.269 72.954 103.497 68.018 106.666 66.834C108.518 67.234 108.915 67.765 110.469 69.014L111.003 69.449L111.729 69.36C114.499 65.123 109.688 60.717 103.507 65.97C101.978 65.404 101.997 65.234 100.482 65.676C98.6467 67.439 99.4847 67.216 98.4137 69.913L97.4417 70.31L95.7507 69.536C91.7027 71.267 87.4137 84.738 87.3627 88.823L85.8047 89.102C87.6047 75.359 91.8297 61.94 107.063 58.662Z" fill="#1D2D53"/>
<path d="M118.978 67.677L120.183 68.097C120.367 70.269 119.813 71.975 118.678 73.766L118.494 73.669C117.766 71.886 118.558 69.685 118.978 67.677Z" fill="#1D3454"/>
<path d="M248.357 134.487C252.932 131.575 257.699 128.528 263.1 127.445C274.47 125.165 287.752 128.291 297.29 134.74L297.303 137.525C298.146 145.811 297.488 148.741 299.587 156.994C300.269 159.612 301.709 163.868 303.047 166.231L303.448 167.726C300.655 169.045 299.232 167.87 296.394 169.368C296.296 170.907 296.27 171.05 295.861 172.537C294.629 172.695 293.533 172.742 292.381 173.15C291.241 170.915 290.362 169.618 288.975 167.55L288.043 166.289L284.292 162.737L284.994 161.923C285.996 152.128 273.193 139.12 265.452 142.147C262.748 141.259 261.018 140.351 258.5 139.1C257.667 138.982 255.112 137.877 254.176 137.502L252.505 136.732L250.689 135.894L248.357 134.487Z" fill="#1D2D53"/>
<path d="M248.357 134.487C252.932 131.575 257.699 128.528 263.1 127.445C274.47 125.165 287.752 128.291 297.29 134.74L297.303 137.525C296.753 142.853 298.516 143.872 294.768 147.96C292.848 146.099 291.439 142.216 289.468 140.965C282.931 136.816 282.991 138.949 277.241 133.015C276.388 132.851 275.538 132.669 274.693 132.468C272.695 131.984 272.666 131.63 271.572 129.78L271.313 129.332C267.017 126.235 253.773 132.036 250.689 135.894L248.357 134.487Z" fill="#1D7275"/>
<path d="M258.5 139.1C262.465 137.589 269.795 138.81 273.503 140.539C285.215 146.003 287.746 154.434 288.043 166.289L284.292 162.737L284.994 161.923C285.996 152.128 273.193 139.12 265.452 142.147C262.748 141.259 261.018 140.351 258.5 139.1Z" fill="#1D7275"/>
<path d="M252.505 136.732C259.215 132.014 256.327 135.112 261.204 133.734C261.218 132.716 261.22 132.281 261.639 131.351C265.322 130.342 273.364 133.311 276.854 135.005C278.568 135.836 279.213 138.375 279.451 140.163L279.005 140.734C275.625 140.032 273.874 138.921 270.747 137.734C266.207 136.011 258.846 136.061 254.176 137.502L252.505 136.732Z" fill="#1D7275"/>
<path d="M289.084 152.328C300.435 160.726 292.348 162.595 294.13 168.122C295.067 168.701 295.379 168.969 296.395 169.368C296.297 170.907 296.271 171.05 295.862 172.537C294.63 172.695 293.534 172.742 292.382 173.15C291.242 170.915 290.363 169.618 288.976 167.55C291.07 164.487 289.638 155.869 289.084 152.328Z" fill="#1D7275"/>
<path d="M297.303 137.525C298.146 145.811 297.488 148.741 299.587 156.994L298.069 159.681C296.267 152.965 293.007 156.237 294.768 147.96C298.516 143.872 296.753 142.853 297.303 137.525Z" fill="#1D7275"/>
<path d="M299.587 156.994C300.269 159.612 301.709 163.868 303.047 166.231C301.468 166.019 300.586 165.895 299.009 165.489C297.769 163.893 298.128 161.99 298.069 159.681L299.587 156.994Z" fill="#197871"/>
<path d="M280.862 139.423C288.004 140.768 292.489 145.183 289.869 152.588C287.257 151.432 283.891 145.511 281.563 143.146C280.166 141.727 280.6 141.004 280.862 139.423Z" fill="#1D676E"/>
<path d="M268.579 50.603L270.909 53.777C275.144 59.27 279.433 66.351 282.652 72.588L287.659 83.112C284.012 87.465 280.688 87.362 278.988 91.397C279.657 95.419 284.299 93.116 286.811 95.893C286.501 98.438 282.144 100.661 280.066 101.979C280.363 106.806 281.021 106.868 278.927 111.217L278.207 111.221C277.357 109.018 277.787 107.118 277.997 104.711C271.08 103.403 267.286 103.18 271.417 95.32C268.522 94.879 265.277 94.657 263.891 91.812C264.189 90.064 264.481 89.184 264.079 87.444C262.24 84.261 254.294 84.2 260.419 77.274C259.902 75.506 257.918 74.786 256.745 73.483C251.389 67.537 261.858 63.6191 262.005 63.2621C264.882 56.2731 262.998 56.185 268.579 50.603Z" fill="#1D7275"/>
<path d="M270.909 53.777C275.144 59.27 279.433 66.351 282.652 72.588C279.459 74.833 279.11 75.354 277.89 79.044L277.829 79.221L277.245 79.109C275.126 75.089 273.313 72.059 270.881 68.211C270.702 64.137 270.339 57.633 270.909 53.777Z" fill="#1D2D53"/>
<path d="M277.245 79.109L277.829 79.221C280.285 79.959 280.521 78.044 282.672 81.474C282.697 84.713 280.527 86.206 278.178 88.683C277.82 85.496 277.509 82.305 277.245 79.109Z" fill="#1D2D53"/>
<path d="M262.707 67.461C269.031 70.726 262.436 73.029 265.492 78.326C267.313 81.483 269.464 79.832 271.125 81.779L269.735 84.74C270.406 87.949 273.388 88.41 275.817 90.613C274.896 91.469 274.933 91.394 273.721 91.78C271.889 91.518 270.63 90.148 269.171 88.922C267.529 82.225 259.368 74.069 262.707 67.461Z" fill="#1D2D53"/>
<path d="M278.488 94.486C280.148 94.943 281.808 95.109 282.768 96.393C282.435 98.362 282.106 98.117 280.442 99.893C278.866 100.606 279.629 100.585 278.088 100.111C276.774 97.993 277.403 96.488 278.488 94.486Z" fill="#1D2D53"/>
<path d="M34.6609 162.532C35.4219 166.767 36.5369 173.697 37.8119 177.592C40.4999 187.247 43.6639 194.895 48.2369 203.802C49.7449 204.176 51.5969 204.581 53.0619 205.013C53.8549 207.624 55.2919 213.482 56.1859 215.536C53.3619 219.494 50.7569 220.448 45.8699 220.225C41.8999 218.768 41.1649 217.136 39.1559 213.633L38.5819 213.5L33.7909 210.182L32.6029 208.96C28.8519 205.063 27.6799 203.214 25.3729 198.312C24.1949 194.799 23.8769 192.634 23.2579 188.982C23.2229 184.849 23.3079 182.924 23.8269 178.833C26.0609 171.861 28.6729 167.047 34.6609 162.532Z" fill="#F9C190"/>
<path d="M48.2373 203.802C49.7453 204.176 51.5973 204.581 53.0623 205.013C53.8553 207.624 55.2922 213.482 56.1862 215.536C53.3622 219.494 50.7573 220.448 45.8703 220.225C41.9003 218.768 41.1653 217.136 39.1562 213.633C40.3283 207.542 40.9763 206.046 46.8333 203.915L48.2373 203.802Z" fill="#F3C01D"/>
<path d="M37.8123 177.592C40.5003 187.247 43.6643 194.895 48.2373 203.802L46.8333 203.915C41.0253 200.508 35.8483 197.607 34.3893 190.13C33.4393 185.256 35.0823 181.532 37.8123 177.592Z" fill="#F6A575"/>
<path d="M93.8897 13.034C99.3267 25.06 98.4347 29.426 91.1677 40.134C98.3397 37.636 108.24 36.691 111.796 29.579C114.192 24.785 112.752 19.032 106.358 21.35C104.746 21.935 104.302 23.853 102.001 24.366L102.473 24.434L101.848 24.201C100.526 19.79 108.49 15.519 112.978 19.502C117.975 23.936 116.596 28.389 112.816 33.328C102.981 42.566 88.2457 39.562 79.8847 52.098C73.5357 61.617 74.8617 68.964 76.5887 79.307C66.8267 78.192 56.7787 79.057 56.9247 91.043C57.1357 108.23 63.5907 110.8 43.2717 116.588L43.6117 118.202L42.2047 118.97L40.6957 120.389C39.0787 120.157 39.1457 120.106 37.5687 120.445C34.3937 122.13 31.3507 124.052 28.0427 123.171L27.1887 122.027C25.1337 122.385 24.8307 122.676 22.9667 123.737L21.4297 123.528L20.4707 123.739L20.6407 120.241C31.6437 111.099 43.7467 116.563 53.9307 109.186C57.0967 104.819 53.3647 95.994 53.9997 90.943C55.5087 78.943 61.4337 75.121 73.2467 76.348C67.7407 44.406 92.6947 44.158 93.6667 25.462C93.8557 21.817 92.0767 17.946 89.6307 15.342L93.8897 13.034Z" fill="#1D7275"/>
<path d="M21.4297 123.528C27.7507 117.797 35.1917 117.47 43.2717 116.588L43.6117 118.202L42.2047 118.97L40.6957 120.389C39.0787 120.157 39.1457 120.106 37.5687 120.445C34.3937 122.13 31.3507 124.052 28.0427 123.171L27.1887 122.027C25.1337 122.385 24.8307 122.676 22.9667 123.737L21.4297 123.528Z" fill="#1D2D53"/>
<path d="M27.1895 122.027C31.1815 121.123 33.4765 119.4 37.8335 119.111L37.5695 120.445C34.3945 122.13 31.3515 124.052 28.0435 123.171L27.1895 122.027Z" fill="#1D7275"/>
<path d="M37.8333 119.111C39.1863 118.911 40.8173 118.973 42.2053 118.97L40.6963 120.389C39.0793 120.157 39.1463 120.106 37.5693 120.445L37.8333 119.111Z" fill="#1D676E"/>
<path d="M168.723 51.235C171.07 40.473 180.277 42.305 183.104 32.642C183.864 30.046 180.956 28.21 180.36 25.452L181.168 25.201C185.91 27.989 186.009 34.788 182.895 38.88C179.061 43.916 166.572 48.4901 173.129 56.0851L173.643 55.992C174.177 53.156 174.882 50.87 176.316 48.341C177.568 46.132 175.472 48.139 175.878 45.541C177.244 45.321 176.982 45.553 178.527 46.636C183.134 43.853 184.253 39.523 186.549 37.824L187.509 39.422C186.924 40.528 186.142 42.115 185.519 43.148C186.756 43.807 187.358 44.094 188.471 44.962L189.425 44.824C190.027 49.436 184.458 53.158 182.085 57.959C182.374 60.348 182.976 66.2871 183.712 68.1671C181.832 70.3031 179.849 72.636 177.914 74.691L176.583 76.212C174.985 73.478 173.409 70.733 171.853 67.976C170.9 69.483 169.216 71.091 167.411 70.099C172.808 61.282 171.39 61.073 168.723 51.235Z" fill="#1D7275"/>
<path d="M185.519 43.148C186.756 43.807 187.358 44.094 188.471 44.962L189.425 44.824C190.027 49.436 184.458 53.158 182.085 57.959C182.374 60.348 182.976 66.287 183.712 68.167C181.832 70.303 179.849 72.636 177.914 74.691C176.376 72.09 175.65 70.163 174.528 67.395C177.67 54.086 172.38 55.162 185.519 43.148Z" fill="#1D2D53"/>
<path d="M184.281 47.066C184.743 47.255 184.452 47.098 185.019 47.733C184.602 50.067 182.315 53.622 181.413 56.435L180.515 55.485C179.399 51.314 181.205 49.642 184.281 47.066Z" fill="#1D7275"/>
<path d="M235.134 126.888C242.44 121.373 245.356 119.038 250.017 111.321C262.223 127.001 278.109 121.189 297.256 130.924L297.29 134.74C287.752 128.291 274.47 125.165 263.1 127.445C257.699 128.528 252.932 131.575 248.357 134.487C243.93 132.451 239.182 129.59 235.134 126.888Z" fill="#1D2D53"/>
<path d="M249.521 123.416C251.642 123.82 251.56 123.796 252.634 125.033C252.884 126.662 252.295 127.307 251.483 128.771C249.868 128.297 249.976 128.35 248.934 127.021C248.661 124.6 248.522 125.764 249.521 123.416Z" fill="#197871"/>
<path d="M247.615 57.633C246.06 56.562 244.961 55.968 243.815 54.453L243.943 53.754L245.067 53.635C251.957 56.575 252.356 62.04 253.204 68.663C255.152 83.879 256.651 93.449 251.839 108.245C258.759 121.142 273.07 121.371 286.159 122.968C289.703 121.299 294.587 118.659 296.055 114.816L296.692 120.594L296.938 126.358C297.085 127.947 297.215 129.33 297.256 130.924C278.109 121.189 262.223 127.001 250.017 111.321C245.356 119.038 242.44 121.373 235.134 126.888L232.28 125.041C241.298 118.823 245.216 114.752 249.963 104.528C254.235 95.329 251.396 65.916 247.615 57.633Z" fill="#1D7275"/>
<path d="M288.963 124.578C291.741 123.356 293.74 121.827 296.692 120.594L296.938 126.358L296.141 126.952C293.468 126.72 291.449 125.638 288.963 124.578Z" fill="#1D3454"/>
<path d="M230.233 95.41C247.436 91.634 237.405 74.042 235.186 63.306C234.281 58.923 239.375 53.974 238.553 49.509C238.027 45.358 234.11 44.786 234.615 42.534C238.816 41.377 241.101 50.791 241.886 53.545C239.59 56.571 236.687 60.596 238.118 64.8C241.892 75.885 248.405 95.387 230.352 97.658C220.874 98.85 217.122 101.006 208.767 105.875L205.804 102.699L206.527 102.448C208.312 101.811 209.367 101.684 210.364 100.083C210.763 98.441 210.526 97.976 210.139 96.352C210.623 94.77 211.125 94.61 212.483 93.653C215.175 92.902 216.536 94.008 218.204 94.079C220.108 94.161 221.762 89.895 224.83 89.818C227.407 91.361 228.467 92.965 230.233 95.41Z" fill="#1D7275"/>
<path d="M70.0233 91.846C70.7283 87.526 68.3333 87.853 69.2793 85.718C72.7293 85.221 79.8053 95.675 70.2923 98.692L70.0923 99.477L71.8223 101.724C71.4333 103.421 68.6483 106.498 67.3903 108.096C66.6303 107.959 65.8923 107.873 65.1213 107.845L64.5963 108.475C66.3423 110.045 65.9133 109.132 66.3633 111.07C65.3443 112.87 66.0463 112.374 64.5323 113.073L62.5453 111.67C57.6693 113.451 59.3083 117.035 54.2223 117.739C51.2033 118.157 48.8623 117.551 46.0933 119.035C43.8063 120.26 43.0473 121.615 40.6963 120.389L42.2053 118.97L43.6123 118.202C48.0883 116.15 49.5033 116.235 54.3373 115.943C58.0563 113.132 63.4213 107.543 60.3983 102.925C60.0113 102.333 60.1763 102.427 60.3553 101.585C61.7103 100.582 61.9173 100.704 62.5533 99.297C61.9203 97.99 61.2023 97.846 59.8623 97.192L59.3423 96.944C58.4323 95.616 58.6433 94.984 58.7353 93.359L58.7733 92.78L60.6973 91.421C64.0963 94.576 65.5923 94.361 69.0853 91.589L70.0233 91.846Z" fill="#1D7275"/>
<path d="M60.6974 91.421C64.0964 94.576 65.5924 94.361 69.0854 91.589L70.0234 91.846C67.0244 98.398 62.7864 94.513 58.7734 92.78L60.6974 91.421Z" fill="#1D2D53"/>
<path d="M230.98 104.244C231.035 102.736 230.959 102.586 231.445 101.188C233.336 99.718 232.483 100.003 234.761 99.71C236.572 100.444 235.929 99.851 236.859 101.429L237.409 102.031C238.372 103.357 239.469 104.963 240.503 106.203C238.437 106.699 238.779 106.286 237.621 107.609L237.637 108.21C237.67 110.177 237.842 111.566 235.964 112.708L234.449 112.459C233.755 113.551 233.923 114.476 233.929 115.799C232.778 117.286 233.476 116.787 231.862 117.485C230.862 116.937 230.51 116.695 229.591 116.015C227.467 116.644 227.165 117.965 225.995 120.125L225.657 120.754C222.254 118.127 218.935 115.393 215.704 112.558C218.708 111.153 218.399 111.216 221.767 111.651L222.587 111.761L223.101 111.165C223.103 109.453 223.069 109.103 223.392 107.373C224.644 106.449 223.921 106.744 225.741 106.799C226.902 107.664 227.019 107.868 228.362 108.329C229.921 107.37 230.232 105.987 230.98 104.244Z" fill="#1D7275"/>
<path d="M230.98 104.244C231.035 102.736 230.959 102.586 231.445 101.188C233.336 99.718 232.483 100.003 234.761 99.71C236.572 100.444 235.929 99.851 236.859 101.429C235.687 103.439 235.548 103.91 235.555 106.237L235.037 106.703C233.011 105.65 233.405 105.384 231.938 103.85L230.98 104.244Z" fill="#1D2D53"/>
<path d="M60.6972 91.421C58.5832 74.571 80.1252 78.412 78.7472 93.611C78.0692 101.088 75.1862 104.633 71.9682 111.213C69.9072 115.428 67.6322 116.128 63.4402 117.606C62.5812 119.347 61.6812 121.305 60.7112 122.964C51.7062 128.131 47.7902 129.729 37.4102 130.518C47.4072 125.237 55.2202 127.831 62.4502 116.252C66.1402 115.118 66.1652 114.968 69.3762 111.528C75.9572 104.478 83.4492 80.557 66.4112 82.709C64.4202 82.961 59.5572 88.552 63.7122 90.914L65.2322 90.65C65.6472 89.411 65.5602 89.828 65.6182 88.544L66.4132 88.536C67.0262 89.282 68.7332 90.982 69.0852 91.589C65.5922 94.361 64.0962 94.576 60.6972 91.421Z" fill="#197871"/>
<path d="M14.3261 166.78C18.0641 166.867 23.5641 166.8 27.0221 165.163C29.1101 164.175 30.7011 159.91 33.6061 159.514L34.6611 162.532C28.6731 167.047 26.0611 171.861 23.8271 178.833L20.4901 174.506C15.4011 177.642 15.2651 177.33 10.9541 173.461C11.9731 171.681 13.3691 168.689 14.3261 166.78Z" fill="#1D7275"/>
<path d="M150.001 97.905C148.256 96.669 146.563 95.755 144.767 94.299C135.407 86.714 136.067 69.417 150.015 68.258C154.926 67.758 159.782 72.703 159.401 77.517C159.076 81.619 155.928 83.824 151.967 82.995C150.767 81.872 150.021 81.444 149.75 79.848C151.416 79.068 153.662 80.26 156.035 78.902C156.756 77.478 156.842 77.629 156.452 75.947C154.198 66.205 143.23 71.488 141.342 78.471C139.024 87.047 145.011 93.581 153.133 95.857L150.001 97.905Z" fill="#1D7275"/>
<path d="M107.354 7.32898C114.841 4.83098 128.58 0.890972 135.989 0.745972C137.71 9.12997 134.568 11.97 126.758 7.81799C125.413 9.57599 124.714 10.934 122.683 11.655C118.96 10.957 121.007 7.57097 118.749 6.30997C114.526 6.54697 112.051 7.98298 107.832 7.93298L107.354 7.32898Z" fill="#1D7275"/>
<path d="M187.598 35.875C188.049 33.119 188.381 28.521 190.59 26.894L191.277 27.011C190.866 29.106 190.123 32.378 190.215 34.6C190.434 39.89 196.663 49.952 190.793 53.987C189.006 55.215 185.575 55.863 185.039 58.319C184.118 62.543 185.805 63.9141 184.205 68.076L183.712 68.1671C182.976 66.2871 182.374 60.348 182.085 57.959C184.458 53.158 190.027 49.436 189.425 44.824L188.471 44.962C187.358 44.094 186.756 43.807 185.519 43.148C186.142 42.115 186.924 40.528 187.509 39.422C187.429 38.342 187.547 36.983 187.598 35.875Z" fill="#1D7275"/>
<path d="M187.599 35.875C188.418 38.559 189.155 42.022 189.426 44.824L188.472 44.962C187.359 44.094 186.757 43.807 185.52 43.148C186.143 42.115 186.925 40.528 187.51 39.422C187.43 38.342 187.548 36.983 187.599 35.875Z" fill="#1D2D53"/>
<path d="M90.9097 64.759C87.0507 63.709 87.0997 65.014 84.0037 67.238C82.1777 67.266 82.9527 67.528 81.5447 66.616C81.1917 65.039 81.3797 64.764 81.8517 63.289C80.6087 59.098 79.6707 53.067 86.0967 52.85C87.3117 53.653 87.4007 53.767 88.7527 54.243C90.7917 53.501 92.1427 52.704 93.9587 53.366C95.0337 56.441 90.9557 58.902 91.2637 64.608L90.9097 64.759Z" fill="#1D7275"/>
<path d="M237.409 102.031C244.841 100.084 243.661 89.156 247.021 85.407C251.738 87.142 243.587 101.344 242.635 104.423C242.336 105.389 241.338 105.862 240.503 106.203C239.469 104.963 238.372 103.357 237.409 102.031Z" fill="#1D7275"/>
<path d="M137.137 0.420013C140.914 0.239013 144.693 0.099 148.473 0C149.849 2.004 151.219 3.269 151.571 5.521L150.801 5.86401C147.478 4.39801 140.318 0.745013 137.137 0.420013Z" fill="#1D7275"/>
<path d="M21.4302 123.528L22.9672 123.737C24.8312 122.676 25.1342 122.385 27.1892 122.027L28.0432 123.171C25.7712 123.652 25.6942 123.682 23.8072 124.986C21.6252 128.725 24.7842 129.907 20.1172 131.389C20.1692 128.681 20.2522 126.453 20.4712 123.739L21.4302 123.528Z" fill="#1C5165"/>
<path d="M219.529 12.439L222.695 13.941C219.51 16.3 219.238 18.687 216.264 20.858L215.808 20.485C216.192 17.715 218.095 14.906 219.529 12.439Z" fill="#1D3454"/>
<path d="M107.353 7.32898L107.831 7.93298C106.285 9.16198 106.141 11.671 102.75 14.187L101.79 14.318C100.868 13.022 101.081 13.719 101.072 12.174C103.126 10.162 103.758 11.618 104.971 9.53299L104.741 8.45297L107.353 7.32898Z" fill="#1D7275"/>
<path d="M214.303 22.318C216.028 22.744 216.171 22.632 217.407 23.954C217.754 25.76 217.745 27.02 219.091 28.062C220.871 27.156 220.889 27.093 222.81 26.704C224.26 27.236 223.643 26.817 224.651 28.106C224.691 32.46 225.976 31.685 229.487 34.049C230.268 35.624 230.209 34.84 229.752 36.472C226.374 40.086 224.869 36.471 222.906 42.394C220.196 43.38 220.613 40.637 217.819 39.906C216.952 41.9 217.784 46.59 216.916 48.85C214.243 55.921 200.507 73.565 214.11 77.117C220.309 78.736 225.503 72.788 221.454 68.665C219.195 68.109 218.101 69.355 215.735 69.517L215.569 68.451C216.083 66.558 217.055 66.139 218.557 65.013C226.668 66.179 227.287 71.731 223.559 78.003C219.064 80.65 216.779 81.379 211.865 79.381C200.361 74.703 206.915 62.074 210.782 54.346C212.075 51.762 214.609 46.164 213.574 43.435C212.381 43.844 211.193 44.267 210.009 44.704C206.096 43.805 207.911 40.475 208.411 37.699C208.693 36.135 206.662 34.873 205.542 33.787C205.205 31.789 205.734 31.727 206.836 29.445L206.504 28.56C204.327 27.494 203.291 27.459 202.814 25.033C203.606 23.111 202.98 23.774 204.468 22.739C207.459 22.676 209.604 26.25 213.168 25.082L214.303 22.318Z" fill="#1D7275"/>
<path d="M219.149 33.319C221.341 33.252 223.254 32.659 224.037 34.891L223.124 36.655C221.357 36.888 219.765 35.93 218.854 34.45L219.149 33.319Z" fill="#1D2D53"/>
<path d="M210.262 31.0761C211.204 30.5731 212.376 30.8901 212.936 31.8001C213.497 32.7091 213.254 33.8981 212.382 34.5141C211.767 34.9491 210.961 35.0061 210.291 34.6621C209.621 34.3191 209.197 33.6311 209.191 32.8781C209.184 32.1251 209.597 31.4311 210.262 31.0761Z" fill="#1D3454"/>
<path d="M109.442 92.687C113.962 93.061 114.651 95.816 117.818 94.587C119.767 93.831 120.22 93.348 122.295 94.019C124.199 95.889 125.373 99.376 124.316 101.943C121.191 104.734 116.613 101.808 113.525 102.142C111.918 102.316 110.127 107.373 109.401 109.164C105.123 106.552 104.363 105.713 100.224 108.939C100.258 110.336 100.209 111.237 100.125 112.616C98.5078 114.541 95.9568 112.974 93.6618 113.855C91.0338 114.864 90.1047 117.025 87.1727 115.545C86.2747 111.696 90.5587 108.764 90.3517 106.767C89.6107 99.619 99.1948 102.622 99.6718 101.304C101.547 96.12 101.786 96.359 107.307 94.975C107.307 94.975 109.229 92.915 109.442 92.687Z" fill="#1D7275"/>
<path d="M165.005 8.51599L165.946 9.29898C169.021 18.455 152.491 22.696 147.712 28.342C143.197 33.676 141.809 38.533 139.697 44.925C131.553 44.958 127.903 50.328 123.844 56.514C121.853 59.548 122.916 60.758 120.634 62.927C119.686 60.89 118.356 58.512 117.297 56.486C118.1 54.894 119.347 52.199 120.407 50.836C121.947 48.855 121.867 51.326 124.089 49.523C130.061 44.677 129.303 42.667 137.451 42.548C139.693 33.529 143.21 27.386 151.153 22.174C157.72 17.866 163.958 17.024 165.005 8.51599Z" fill="#1D7275"/>
<path d="M133.846 47.392C134.735 46.986 135.786 47.353 136.228 48.225C136.67 49.096 136.346 50.162 135.493 50.639C134.909 50.965 134.194 50.945 133.63 50.588C133.065 50.231 132.741 49.593 132.786 48.926C132.831 48.259 133.238 47.671 133.846 47.392Z" fill="#197871"/>
<path d="M261.804 214.846C263.715 217.645 264.542 218.56 267.519 220.182L268.013 220.342C271.048 220.409 272.061 220.328 274.787 219.09C279.215 226.892 284.477 233.054 293.431 235.718C302.577 238.44 307.101 235.466 314.683 231.76C313.746 234.471 312.915 237.105 311.68 239.695C310.908 241.094 309.697 243.468 308.849 244.715L307.586 247.039L305.62 249.928C303.717 252.269 302.047 254.453 299.815 256.491L295.078 261.074C284.47 269.789 273.858 274.873 260.082 276.478C257.704 276.917 255.762 276.814 253.355 276.812C245.656 276.83 242.336 276.325 234.855 274.535C232.84 273.956 230.754 273.262 228.745 272.631C229.249 271.102 228.726 266.286 229.171 264.466C229.688 262.352 231.461 258.968 232.469 256.948C233.131 256.033 233.659 255.726 234.541 255.003L241.462 248.187L245.006 244.152C252.332 234.478 257.469 226.301 261.804 214.846Z" fill="#1D2D53"/>
<path d="M241.462 248.187C247.115 249.263 251.421 250.992 254.905 256.019C257.475 259.661 258.42 264.205 257.515 268.569C256.775 272.171 255.421 273.945 253.355 276.812C245.656 276.83 242.336 276.325 234.855 274.535C232.84 273.956 230.754 273.262 228.745 272.631C229.249 271.102 228.726 266.286 229.171 264.466C229.688 262.352 231.461 258.968 232.469 256.948C233.131 256.033 233.659 255.726 234.541 255.003L241.462 248.187Z" fill="#1D2D53"/>
<path d="M234.541 255.003L235.276 254.876C240.055 254.028 242.619 252.304 247.209 255.341C251.912 258.379 254.378 265.22 250.853 270.062C247.436 274.756 238.308 274.825 236.89 268.41C236.426 266.31 238.691 263.506 240.113 262.19L241.907 262.537C242.242 265.173 241.977 268.257 242.886 270.236L244.202 270.563C250.95 266.086 249.376 259.103 241.992 257.949C233.239 256.581 231.275 267.559 234.855 274.535C232.84 273.956 230.754 273.262 228.745 272.631C229.249 271.102 228.726 266.286 229.171 264.466C229.688 262.352 231.461 258.968 232.469 256.948C233.131 256.033 233.659 255.726 234.541 255.003Z" fill="#1D7275"/>
<path d="M274.788 219.09C279.216 226.892 284.478 233.054 293.432 235.718C302.578 238.44 307.102 235.466 314.684 231.76C313.747 234.471 312.916 237.105 311.681 239.695C306.899 239.708 304.607 241.136 300.252 243.09C295.74 240.542 296.762 241.339 291.539 241.044C284.143 240.626 279.28 231.491 273.768 229.11L272.908 229.695L271.894 229.645L271.419 230.888L270.16 230.807C271.699 227.416 269.654 223.926 267.795 221.052L267.52 220.182L268.014 220.342C271.049 220.409 272.062 220.328 274.788 219.09Z" fill="#1D7275"/>
<path d="M267.52 220.182L268.014 220.342C271.88 221.859 270.011 226.065 273.768 229.11L272.908 229.695L271.894 229.645L271.419 230.888L270.16 230.807C271.699 227.416 269.654 223.926 267.795 221.052L267.52 220.182Z" fill="#1D3454"/>
<path d="M267.957 233.955C265.054 231.804 262.037 229.728 263.832 225.542L264.562 225.437C265.735 226.872 265.603 227.928 265.977 229.936L271.269 233.83C271.574 236.357 271.985 237.913 272.605 240.34C274.807 240.737 276.605 241.261 278.75 241.855C280.668 244.899 280.884 245.338 283.575 247.783L289.151 246.677C291.532 248.398 293.858 250.193 296.127 252.059C299.978 249.815 301.281 248.135 305.62 249.928C303.717 252.269 302.047 254.453 299.815 256.491L295.078 261.074C294.797 260.332 294.51 259.592 294.219 258.854L292.921 259.561C285.219 261.131 288.535 257.079 284.464 252.421L284.218 251.486C282.223 251.643 280.356 251.866 278.37 252.107C277.2 249.012 277.339 246.704 277.24 243.417L270.806 242.875C270.21 241.6 268.594 235.822 267.957 233.955Z" fill="#1D7275"/>
<path d="M284.218 251.486C286.133 250.346 287.073 249.551 289.221 249.282C293.189 250.57 290.281 254.052 292.39 256.315C295.011 256.087 297.504 255.504 299.815 256.491L295.078 261.074C294.797 260.332 294.51 259.592 294.219 258.854L292.921 259.561C285.219 261.131 288.535 257.079 284.464 252.421L284.218 251.486Z" fill="#1D3454"/>
<path d="M245.006 244.152C259.863 248.345 265.811 261.504 259.462 275.529C259.779 276.392 259.51 276.127 260.082 276.478C257.704 276.917 255.762 276.814 253.355 276.812C255.421 273.945 256.775 272.171 257.515 268.569C258.42 264.205 257.475 259.661 254.905 256.019C251.421 250.992 247.115 249.263 241.462 248.187L245.006 244.152Z" fill="#1D7275"/>
<path d="M277.414 255.932C272.682 252.102 274.837 252.494 272.883 247.545C271.759 247.314 270.743 247.134 269.609 246.951C267.721 245.496 267.316 244.6 265.962 242.567C265.798 240.416 265.452 237.48 266.753 235.773C267.754 237.478 268.537 241.735 269.025 243.853C270.955 244.643 273.064 245.064 275.102 245.557C275.59 248.818 275.304 250.659 277.075 253.312L278.37 252.107C280.356 251.866 282.223 251.643 284.218 251.486L284.464 252.421C288.535 257.079 285.219 261.131 292.921 259.561C291.786 261.158 290.809 261.549 288.901 261.553C285.889 260.248 285.2 257.55 283.998 254.585C281.943 255.118 279.524 255.524 277.414 255.932Z" fill="#1D7275"/>
<path d="M278.37 252.107C280.356 251.866 282.223 251.643 284.218 251.486L284.464 252.421C281.53 253.54 280.17 253.887 277.075 253.312L278.37 252.107Z" fill="#1D2D53"/>
<path d="M271.418 230.888L271.893 229.645L272.907 229.695L273.32 230.128C275.423 232.372 278.999 238.223 281.25 239C285.677 240.527 285.221 239.815 289.104 243.16L288.777 244.627C284.378 246.846 282.411 243.121 280.117 240.089L274.562 238.28C273.47 235.14 273.042 233.807 271.418 230.888Z" fill="#1D7275"/>
<path d="M289.104 243.16C294.253 243.309 295.912 243.778 300.884 245.44L300.898 246.185C296.452 252.457 292.205 244.816 288.777 244.627L289.104 243.16Z" fill="#1D7275"/>
<path d="M267.794 221.052C269.653 223.926 271.698 227.416 270.159 230.807C266.145 227.38 265.991 225.807 267.794 221.052Z" fill="#1D7275"/>
<path d="M302.265 244.92L308.849 244.715L307.586 247.039C305.528 246.747 303.211 246.812 302.265 244.92Z" fill="#1D676E"/>
<path d="M45.8702 220.225C50.7572 220.448 53.3622 219.494 56.1862 215.536L57.8512 220.181L59.7492 224.215L59.9502 224.802C62.7032 229.731 64.8722 233.505 68.0872 238.213C78.9812 251.732 86.8362 258.442 101.454 267.481C95.8312 269.935 91.5942 271.544 85.7712 273.617L83.7442 273.936C79.2422 275.42 75.3192 276.062 70.5922 276.444C68.3192 276.955 65.5132 276.778 63.1322 276.756C57.2382 276.728 51.5322 275.629 45.8572 274.157L43.9752 273.644L37.4182 271.015L35.6022 269.922L34.1092 269.506C32.4312 268.313 29.5912 266.693 27.7602 265.568L25.8102 264.155L22.3582 261.538L19.7832 259.088L20.4892 258.349C24.5812 254.608 23.8712 253.273 23.1702 248.171C28.4822 242.967 25.2442 244.586 28.5862 238.682C28.8702 238.181 33.1092 235.678 34.3452 234.741C38.3332 227.507 32.3642 229.699 43.6212 225.777L45.8702 220.225Z" fill="#1D2D53"/>
<path d="M37.418 271.015C44.702 236.6 88.997 244.348 83.744 273.936C79.242 275.42 75.319 276.062 70.592 276.444C68.319 276.955 65.513 276.778 63.132 276.756C57.238 276.728 51.532 275.629 45.857 274.157L43.975 273.644L37.418 271.015Z" fill="#1D2D53"/>
<path d="M43.9756 273.644C45.5476 268.29 47.4156 263.52 52.6626 260.761C61.8276 255.944 69.5986 260.342 71.8176 269.888C71.2676 272.058 70.7736 273.845 70.0806 275.972L70.5926 276.444C68.3196 276.955 65.5136 276.778 63.1326 276.756C57.2386 276.728 51.5326 275.629 45.8576 274.157L43.9756 273.644Z" fill="#1D2D53"/>
<path d="M43.9756 273.644C45.5476 268.29 47.4156 263.52 52.6626 260.761C61.8276 255.944 69.5986 260.342 71.8176 269.888C71.2676 272.058 70.7736 273.845 70.0806 275.972L70.5926 276.444C68.3196 276.955 65.5136 276.778 63.1326 276.756C62.7306 274.68 62.4396 275.402 63.2806 274.155C65.7096 274.468 66.3516 274.67 68.7046 274.265C69.1786 273.871 69.9206 273.479 69.9216 272.846C69.9416 255.042 48.4106 258.302 45.8576 274.157L43.9756 273.644Z" fill="#1D7275"/>
<path d="M45.8702 220.225C50.7572 220.448 53.3622 219.494 56.1862 215.536L57.8512 220.181L59.7492 224.215L59.9502 224.802C57.9922 227.064 54.9452 227.562 52.6162 229.279C51.3342 230.225 50.3372 233.209 49.0592 234.294C48.1582 235.097 43.9942 235.675 43.7242 236.351C41.9242 240.869 44.2432 239.563 39.8402 242.686C33.6662 247.065 30.1772 258.933 27.7602 265.568L25.8102 264.155L22.3582 261.538L19.7832 259.088L20.4892 258.349C24.5812 254.608 23.8712 253.273 23.1702 248.171C28.4822 242.967 25.2442 244.586 28.5862 238.682C28.8702 238.181 33.1092 235.678 34.3452 234.741C38.3332 227.507 32.3642 229.699 43.6212 225.777L45.8702 220.225Z" fill="#1D2D53"/>
<path d="M45.8702 220.225C50.7572 220.448 53.3622 219.494 56.1862 215.536L57.8512 220.181C56.3242 221.139 49.7362 223.72 49.4692 223.964C44.5542 228.464 49.0932 230.364 40.4762 231.307C38.4652 232.736 38.5052 235.424 38.3512 237.688C36.4922 238.338 34.2242 238.898 32.8482 240.211C31.6452 245.016 31.5412 246.417 26.6482 248.453C25.6502 250.162 26.2952 252.438 26.6752 254.389C24.6462 256.143 23.3502 259.085 22.3582 261.538L19.7832 259.088L20.4892 258.349C24.5812 254.608 23.8712 253.273 23.1702 248.171C28.4822 242.967 25.2442 244.586 28.5862 238.682C28.8702 238.181 33.1092 235.678 34.3452 234.741C38.3332 227.507 32.3642 229.699 43.6212 225.777L45.8702 220.225Z" fill="#1D2D53"/>
<path d="M57.8514 220.181L59.7494 224.215C56.4024 224.676 53.3734 225.119 50.0554 225.752C49.2554 228.436 48.9384 229.885 48.4374 232.624C41.3794 232.264 40.9784 232.9 40.2874 239.836C38.0494 240.332 36.7994 240.424 34.9404 241.726C33.1654 246.342 35.6574 246.677 29.0754 249.682C27.9854 251.266 28.2664 253.233 28.3674 255.198C27.0454 255.022 27.6054 255.3 26.6754 254.389C26.2954 252.438 25.6504 250.162 26.6484 248.453C31.5414 246.417 31.6454 245.016 32.8484 240.211C34.2244 238.898 36.4924 238.338 38.3514 237.688C38.5054 235.424 38.4654 232.736 40.4764 231.307C49.0934 230.364 44.5544 228.464 49.4694 223.964C49.7364 223.72 56.3244 221.139 57.8514 220.181Z" fill="#197871"/>
<path d="M26.6754 254.389C27.6054 255.3 27.0454 255.022 28.3674 255.198L29.1484 256.024C28.1624 259.158 26.5394 259.127 25.8104 264.155L22.3584 261.538C23.3504 259.085 24.6464 256.143 26.6754 254.389Z" fill="#1D676E"/>
<path d="M59.9498 224.802C62.7028 229.731 64.8718 233.505 68.0868 238.213C65.5078 238.008 63.7658 238.063 61.4008 237.013L61.0718 236.428C62.2238 235.536 62.6888 235.379 63.9908 234.752L64.0948 234.215C61.1578 234.095 58.6818 235.603 56.3838 237.296C45.9188 245.002 36.1208 256.333 34.1088 269.506C32.4308 268.313 29.5908 266.693 27.7598 265.568C30.1768 258.933 33.6658 247.065 39.8398 242.686C44.2428 239.563 41.9238 240.869 43.7238 236.351C43.9938 235.675 48.1578 235.097 49.0588 234.294C50.3368 233.209 51.3338 230.225 52.6158 229.279C54.9448 227.562 57.9918 227.064 59.9498 224.802Z" fill="#1D7275"/>
<path d="M35.6025 269.922C38.3155 260.546 40.8315 254.216 50.1425 249.191C56.4485 245.756 63.8745 245.012 70.7375 247.128C83.8075 251.213 86.0585 261.572 85.7715 273.617L83.7445 273.936C88.9975 244.348 44.7025 236.6 37.4185 271.015L35.6025 269.922Z" fill="#1D7275"/>
<path d="M183.712 68.1671L184.205 68.076C190.279 82.285 195.005 90.994 205.804 102.699L208.767 105.875C210.92 108.053 213.367 110.673 215.704 112.558C218.935 115.393 222.254 118.127 225.657 120.754L232.28 125.041L235.134 126.888C239.182 129.59 243.93 132.451 248.357 134.487L250.689 135.894L252.505 136.732L254.176 137.502C255.112 137.877 257.667 138.982 258.5 139.1C261.018 140.351 262.748 141.259 265.452 142.147C266.656 145.294 266.864 147.762 267.328 151.088C230.544 137.907 196.089 115.278 183.659 76.095C165.994 104.548 129.1 119.429 98.616 128.833C97.037 129.044 96.793 128.985 95.284 129.531C81.097 133.095 63.834 136.693 55.316 150.208C53.552 153.006 52.845 155.652 50.125 157.378C50.32 155.751 50.594 154.135 50.947 152.535C54.82 135.596 68.505 127.965 84.06 123.665C93.365 121.093 103.196 118.349 112.327 115.299C125.499 110.937 138.137 105.102 150 97.905L153.132 95.857C161.596 90.837 169.909 83.384 176.583 76.212L177.914 74.691C179.849 72.636 181.832 70.3031 183.712 68.1671Z" fill="#F6A575"/>
<path d="M303.448 167.726C304.827 170.003 305.457 171.425 306.512 173.813C313.555 187.462 318.71 200.902 317.548 216.543C317.086 220.386 316.688 224.073 315.916 227.876L315.488 228.76L314.683 231.76C307.101 235.466 302.577 238.44 293.431 235.718C284.477 233.054 279.215 226.892 274.787 219.09L277.383 216.207L278.511 214.474L278.93 213.63C281.864 211.918 282.762 211.322 285.369 209.12C286.854 207.55 288.463 205.38 289.826 203.648C295.735 193.834 296.298 183.762 292.381 173.15C293.533 172.742 294.629 172.695 295.861 172.537C296.27 171.05 296.296 170.907 296.394 169.368C299.232 167.87 300.655 169.045 303.448 167.726Z" fill="#1D2D53"/>
<path d="M278.511 214.474C283.616 226.338 292.841 237.009 307.602 231.057C309.717 230.204 312.33 226.911 313.935 225.137C314.792 224.661 314.686 224.611 315.606 224.413C315.801 225.714 315.843 226.571 315.916 227.876L315.488 228.76L314.683 231.76C307.101 235.466 302.577 238.44 293.431 235.718C284.477 233.054 279.215 226.892 274.787 219.09L277.383 216.207L278.511 214.474Z" fill="#1D7275"/>
<path d="M274.787 219.09L277.383 216.207C278.642 221.729 283.102 228.574 287.959 231.307C298.649 237.323 306.667 235.771 314.974 228.17L315.488 228.76L314.683 231.76C307.101 235.466 302.577 238.44 293.431 235.718C284.477 233.054 279.215 226.892 274.787 219.09Z" fill="#1D2D53"/>
<path d="M313.936 225.137C315.076 222.538 315.653 220.726 315.256 217.818C314.874 214.96 313.29 212.4 310.903 210.783C306.483 207.79 298.639 209.175 300.568 215.254C302.191 216.367 304.063 216.057 306.31 216.339L306.384 217.063C305.109 218.502 305.151 218.627 303.323 219.404C293.877 218.949 298.773 204.827 308.126 206.905C313.287 208.051 315.559 215.726 317.549 216.543C317.087 220.386 316.689 224.073 315.917 227.876C315.844 226.571 315.802 225.714 315.607 224.413C314.687 224.611 314.793 224.661 313.936 225.137Z" fill="#1D7275"/>
<path d="M303.448 167.726C304.827 170.003 305.457 171.425 306.512 173.813C301.535 171.685 300.857 171.08 295.861 172.537C296.27 171.05 296.296 170.907 296.394 169.368C299.232 167.87 300.655 169.045 303.448 167.726Z" fill="#1D7275"/>
<path d="M285.369 209.12C286.854 207.55 288.463 205.38 289.826 203.648C291.44 204.368 292.014 204.442 292.901 205.969C293.027 210.507 288.44 211.275 285.369 209.12Z" fill="#1D7275"/>
<path d="M309.231 191.468C310.618 191.206 311.967 192.076 312.301 193.448C312.634 194.819 311.834 196.211 310.481 196.614C309.542 196.894 308.526 196.633 307.838 195.936C307.149 195.239 306.902 194.219 307.193 193.284C307.485 192.349 308.269 191.651 309.231 191.468Z" fill="#1D7275"/>
<path d="M300.284 196.449C301.425 195.892 302.802 196.342 303.394 197.466C303.985 198.59 303.576 199.98 302.471 200.605C301.726 201.026 300.81 201.008 300.082 200.559C299.354 200.109 298.927 199.299 298.969 198.444C299.011 197.589 299.515 196.825 300.284 196.449Z" fill="#1D7275"/>
<path d="M280.152 177.153C281.302 173.526 281.579 164.865 284.292 162.737L288.043 166.289L288.975 167.55C290.362 169.618 291.241 170.915 292.381 173.15C296.298 183.762 295.735 193.834 289.826 203.648C288.463 205.38 286.854 207.55 285.369 209.12C282.762 211.322 281.864 211.918 278.93 213.63L278.511 214.474L277.383 216.207L274.787 219.09C272.061 220.328 271.048 220.409 268.013 220.342L267.519 220.182C264.542 218.56 263.715 217.645 261.804 214.846C262.279 213.804 264.143 206.899 264.673 205.151C266.09 204.897 268.259 203.923 269.681 203.346C274.217 195.451 277.894 185.961 280.152 177.153Z" fill="#F9C190"/>
<path d="M269.681 203.346L270.631 203.494C276.293 205.886 277.819 207.505 278.93 213.63L278.511 214.474L277.383 216.207L274.787 219.09C272.061 220.328 271.048 220.409 268.013 220.342L267.519 220.182C264.542 218.56 263.715 217.645 261.804 214.846C262.279 213.804 264.143 206.899 264.673 205.151C266.09 204.897 268.259 203.923 269.681 203.346Z" fill="#F3C01D"/>
<path d="M280.152 177.153C286.639 184.619 285.015 193.691 277.541 199.933C275.364 201.751 273.005 202.194 270.631 203.494L269.681 203.346C274.217 195.451 277.894 185.961 280.152 177.153Z" fill="#F6A575"/>
<path d="M265.452 142.147C273.193 139.12 285.996 152.128 284.994 161.923L284.292 162.737C281.579 164.865 281.302 173.526 280.152 177.153C277.894 185.961 274.217 195.451 269.681 203.346C268.259 203.923 266.09 204.897 264.673 205.151C269.494 184.548 269.476 171.901 267.328 151.088C266.864 147.762 266.656 145.294 265.452 142.147Z" fill="#1D2D53"/>
<path d="M98.6159 128.833C100.471 128.904 102.74 128.891 104.509 129.313C109.743 129.385 121.229 128.706 122.211 135.468C121.562 137.64 122.142 136.775 120.494 138.214C117.681 139.078 114.983 137.289 112.04 136.668C99.8429 134.095 92.0029 135.81 81.2529 141.427C85.3609 135.73 89.2709 133.594 95.7729 131.143L95.2839 129.531C96.7929 128.985 97.0369 129.044 98.6159 128.833Z" fill="#40210E"/>
<path d="M98.6162 128.833C100.471 128.904 102.74 128.891 104.509 129.313C101.313 129.849 98.8852 130.221 95.7732 131.143L95.2842 129.531C96.7932 128.985 97.0372 129.044 98.6162 128.833Z" fill="#FEB688"/>
<path d="M223.739 263.13C226.636 261.052 229.547 258.991 232.469 256.948C231.461 258.968 229.688 262.352 229.171 264.466C228.726 266.286 229.249 271.102 228.745 272.631L223.825 270.831L220.877 269.608C221.752 268.384 221.792 265.936 221.964 264.303C222.127 264.145 223.504 263.281 223.739 263.13Z" fill="#1D2D53"/>
<path d="M221.964 264.303C222.127 264.145 223.504 263.281 223.739 263.13C223.755 265.644 223.721 268.334 223.825 270.831L220.877 269.608C221.752 268.384 221.792 265.936 221.964 264.303Z" fill="#1D7275"/>
<path d="M216.282 267.536L221.964 264.303C221.792 265.936 221.752 268.384 220.877 269.608L216.282 267.536Z" fill="#1D676E"/>
<path d="M67.7784 155.421C70.4144 157.579 73.1784 160.097 77.0454 159.73C78.6304 159.58 83.4654 155.738 85.2484 154.842C93.7804 150.554 105.517 150.303 113.933 154.886C120.07 158.228 124.896 163.615 126.758 170.318C127.398 172.62 128.177 175.534 127.296 177.777C127.253 210.509 77.4024 211.782 77.6804 176.371C68.2894 170.713 66.7234 166.127 67.7784 155.421Z" fill="white"/>
<path d="M125.871 177.729C126.481 186.512 120.946 194.554 112.524 197.12C104.101 199.685 95.022 196.096 90.632 188.464C86.242 180.832 87.703 171.179 94.155 165.188C100.607 159.197 110.341 158.455 117.627 163.398C122.43 166.656 125.469 171.94 125.871 177.729Z" fill="#582D0F"/>
<path d="M103.599 167.359C107.591 163.641 118.434 167.033 120.74 171.43C124.616 178.817 123.131 188.449 115.178 192.232C111.618 193.927 107.516 194.077 103.843 192.645C99.7838 191.107 96.5068 188.094 94.7868 184.089C93.4528 180.982 93.9738 174.755 95.9558 172.108C95.2138 170.065 96.0048 167.781 97.8508 166.634C99.6978 165.486 102.095 165.789 103.599 167.359Z" fill="#40210E"/>
<path d="M95.9562 172.108C95.2142 170.065 96.0052 167.781 97.8512 166.634C99.6982 165.486 102.095 165.789 103.599 167.359C104.894 168.711 105.24 170.714 104.473 172.422C103.706 174.13 101.98 175.203 100.109 175.134C98.2372 175.065 96.5952 173.868 95.9562 172.108Z" fill="white"/>
<path d="M67.7784 155.421C70.4144 157.579 73.1784 160.097 77.0454 159.73C78.6304 159.58 83.4654 155.738 85.2484 154.842C93.7804 150.554 105.517 150.303 113.933 154.886C120.07 158.228 124.896 163.615 126.758 170.318C127.398 172.62 128.177 175.534 127.296 177.777L125.871 177.729C125.469 171.94 122.43 166.656 117.627 163.398L118.813 162.774C102.557 151.822 83.1844 156.391 77.6804 176.371C68.2894 170.713 66.7234 166.127 67.7784 155.421Z" fill="#40210E"/>
<path d="M118.813 162.774C124.11 167.64 125.573 170.727 127.296 177.777L125.871 177.729C125.469 171.94 122.43 166.656 117.627 163.398L118.813 162.774Z" fill="#D7C3B4"/>
<path d="M215.384 166.919C224.706 166.242 231.058 168.63 238.249 174.194C243.075 173.209 244.676 172.545 248.941 170.471C247.451 178.765 245.817 182.11 238.839 187.086C234.807 182.011 231.997 179.795 226.386 176.818C212.135 171.108 199.684 176.042 188.787 185.73C194.592 173.7 202.176 168.418 215.384 166.919Z" fill="#40210E"/>
<path d="M133.302 224.86C137.242 225.737 144.1 236.685 155.97 237.038C162.959 237.511 170.161 236.251 176.16 232.557C179.222 230.673 185.139 222.578 187.851 226.738C187.989 228.732 187.786 228.747 186.753 230.42C182.335 234.981 178.577 237.799 172.494 239.99C162.89 243.49 152.274 242.916 143.103 238.401C138.424 236.136 133.464 233.135 131.668 228.073C131.893 225.964 131.703 226.714 133.302 224.86Z" fill="#F37F5B"/>
<path d="M207.152 138.435C213.857 137.572 223.294 138.963 229.287 142.127C230.934 142.997 234.826 144.817 235.372 146.426C235.37 146.425 235.368 146.424 235.365 146.423C229.417 145.531 227.693 143.956 221.167 143.538C214.119 143.583 209.366 144.982 202.601 146.821C199.378 147.697 194.104 148.739 192.964 144.591C194.277 138.889 202.258 139.013 207.152 138.435Z" fill="#40210E"/>
<path d="M158.908 197.624C164.474 198.473 171.702 208.424 167.221 212.796C165.384 213.671 163.862 213.352 161.785 213.237C159.663 213.313 157.539 213.361 155.415 213.382C153.353 213.388 152.731 213.302 151.252 211.823C149.258 207.176 155.112 199.944 158.908 197.624Z" fill="#F6A575"/>
<defs>
<linearGradient id="paint0_linear_274_26" x1="31.0713" y1="211.859" x2="31.8279" y2="225.028" gradientUnits="userSpaceOnUse">
<stop stop-color="#1F2B50"/>
<stop offset="1" stop-color="#223D5A"/>
</linearGradient>
</defs>
</svg>
