<svg width="318" height="282" viewBox="0 0 318 282" fill="none" xmlns="http://www.w3.org/2000/svg">
<path d="M138.941 0.336975C141.196 0.0719751 145.84 0.073 148.278 0C166.101 0.402 174.521 1.97597 190.106 10.741C199.527 7.89497 210.01 7.99497 219.065 12.077L223.259 14.102C240.623 22.724 256.408 34.7419 268.396 50.0699L271.172 53.707C274.728 58.464 279.721 66.333 282.443 71.851C284.555 75.831 285.967 78.903 287.752 83.055C292.087 94.097 295.009 104.089 296.231 116.002L296.872 120.845L297.138 127.737L297.166 130.949C297.648 134.344 297.505 138.983 297.505 142.524L297.687 143.278C298.16 151.615 299.572 158.991 302.931 166.682L303.913 168.775L306.79 174.767C313.812 187.609 318.81 201.322 317.842 216.204C317.465 219.861 317.037 225.073 315.781 228.519L314.868 232.052C313.802 235.032 312.913 237.776 311.419 240.573C309.576 243.966 308.234 246.274 306.089 249.469L302.251 254.185L300.542 256.049L297.872 258.865L296.665 259.792C286.206 269.809 273.109 275.245 258.808 276.811L253.238 277.047C246.202 276.988 241.339 276.047 234.499 274.567L228.999 272.949L224.093 271.092C221.184 269.946 219.135 268.956 216.348 267.572C210.724 270.769 202.616 274.143 196.59 276.011C165.045 285.774 130.924 282.708 101.626 267.476C96.094 269.841 91.744 271.774 85.93 273.454L83.821 274.022C78.36 275.456 74.088 276.291 68.435 276.8L65.755 276.692C57.617 276.922 53.622 276.159 45.741 274.243L44.141 273.709C41.962 272.914 39.753 272.021 37.587 271.177C36.997 270.899 36.005 270.261 35.406 269.903L34.021 269.42C31.844 268.104 29.682 266.764 27.534 265.401L25.696 264.17L22.956 261.872L20.117 259.366C19.166 258.506 17.185 256.225 16.227 255.187L15.339 254.12C6.72899 243.671 2.043 233.343 0.362 219.849C0.0199995 218.045 0.047 215.384 0 213.481L0.0899963 208.964L0.375 206.346C0.844 202.777 1.392 200.175 2.189 196.651L2.81 194.013L4.085 190.455L5.297 186.814L7.03299 182.382L8.325 179.482L11.171 173.651L14.606 166.749C17.413 160.579 18.481 154.549 19.48 147.914L19.776 143.573C20.066 139.943 19.985 134.982 20.032 131.251C20.091 128.786 20.208 127.453 20.565 125.012L20.424 123.985L20.815 120.257C21.764 110.398 23.506 102.514 26.217 93.112C27.709 88.59 29.545 83.532 31.701 79.299L32.235 77.765C33.873 74.638 35.531 71.522 37.209 68.416C43.448 56.793 53.788 43.4489 63.545 34.8199L66.637 32C68.071 30.655 69.659 29.317 71.147 28.021C73.348 26.301 75.763 24.5669 78.019 22.8929L80.547 21.244L84.727 18.474C86.278 17.496 88.223 16.468 89.847 15.553L93.976 13.304C98.084 11.363 101.099 10.019 105.345 8.44995L106.414 7.69897L107.211 7.82196C113.005 4.69396 128.907 1.61895 135.648 0.665955L138.941 0.336975Z" fill="#F9C190"/>
<path d="M138.941 0.336975C141.196 0.0719751 145.84 0.073 148.278 0C166.101 0.402 174.521 1.97597 190.106 10.741C199.527 7.89497 210.01 7.99497 219.065 12.077L223.259 14.102C240.623 22.724 256.408 34.7419 268.396 50.0699L271.172 53.707C274.728 58.464 279.721 66.333 282.443 71.851C284.555 75.831 285.967 78.903 287.752 83.055C292.087 94.097 295.009 104.089 296.231 116.002L296.872 120.845L297.138 127.737L297.166 130.949C297.648 134.344 297.505 138.983 297.505 142.524L297.687 143.278C298.16 151.615 299.572 158.991 302.931 166.682L303.913 168.775C300.602 168.686 299.203 168.73 295.971 169.822C296.051 170.665 296.245 172.164 296.247 172.951C294.934 173.232 293.852 173.415 292.578 173.851C291.698 172.057 290.328 169.943 289.268 168.201L288.058 166.978C286.5 165.378 286.179 165.009 284.956 163.159C288.394 154.885 275.542 141.447 265.798 142.455C262.942 141.516 260.612 140.315 257.911 139.021C256.797 138.846 255.416 138.109 254.325 137.624L252.935 137.193C252.64 136.97 251.027 136.146 250.6 135.917L248.77 134.879C244.841 132.969 238.641 129.283 235.089 126.913L232.555 125.195L229.513 123.223L227.578 121.62L225.589 120.43C222.243 117.856 219.528 115.717 216.388 112.911C213.817 110.716 211.27 108.216 208.807 105.876L206.712 103.644C194.803 90.743 191.331 83.472 184.378 68.144L183.495 68.238C181.472 70.8 180.088 72.363 177.819 74.715L176.669 76.061C169.651 83.496 161.776 90.827 152.896 95.994L150.05 97.81C139.035 104.869 127.176 110.515 114.752 114.617C89.944 122.932 51.558 125.902 49.836 159.293C48.355 176.816 48.872 188.147 52.865 205.528C53.47 207.207 55.849 214.597 56.179 216.343L58.413 221.669L59.735 224.097L60.233 225.562L64.959 234.13C60.908 233.844 54.545 238.844 51.541 241.393C43.073 248.58 36.084 258.324 34.021 269.42C31.844 268.104 29.682 266.764 27.534 265.401L25.696 264.17L22.956 261.872L20.117 259.366C19.166 258.506 17.185 256.225 16.227 255.187L15.339 254.12C6.72899 243.671 2.043 233.343 0.362 219.849C0.0199995 218.045 0.047 215.384 0 213.481L0.0899963 208.964L0.375 206.346C0.844 202.777 1.392 200.175 2.189 196.651L2.81 194.013L4.085 190.455L5.297 186.814L7.03299 182.382L8.325 179.482L11.171 173.651L14.606 166.749C17.413 160.579 18.481 154.549 19.48 147.914L19.776 143.573C20.066 139.943 19.985 134.982 20.032 131.251C20.091 128.786 20.208 127.453 20.565 125.012L20.424 123.985L20.815 120.257C21.764 110.398 23.506 102.514 26.217 93.112C27.709 88.59 29.545 83.532 31.701 79.299L32.235 77.765C33.873 74.638 35.531 71.522 37.209 68.416C43.448 56.793 53.788 43.4489 63.545 34.8199L66.637 32C68.071 30.655 69.659 29.317 71.147 28.021C73.348 26.301 75.763 24.5669 78.019 22.8929L80.547 21.244L84.727 18.474C86.278 17.496 88.223 16.468 89.847 15.553L93.976 13.304C98.084 11.363 101.099 10.019 105.345 8.44995L106.414 7.69897L107.211 7.82196C113.005 4.69396 128.907 1.61895 135.648 0.665955L138.941 0.336975Z" fill="#1D2D53"/>
<path d="M11.171 173.651C17.007 180.08 16.632 174.876 21.431 176.172C22.565 177.289 23.107 177.926 24.107 179.128C23.815 181.023 23.419 183.217 23.272 185.105C23.563 189.848 23.877 193.314 25.298 197.912C27.382 202.662 28.971 204.973 32.338 208.938L33.435 210.176C35.044 211.369 36.662 212.552 38.287 213.723L38.949 213.794C40.914 217.068 41.971 218.875 45.401 220.872C50.666 220.92 52.692 220.355 56.179 216.343L58.413 221.669L59.735 224.097L60.233 225.562L64.959 234.13C60.908 233.844 54.545 238.844 51.541 241.393C43.073 248.58 36.084 258.324 34.021 269.42C31.844 268.104 29.682 266.764 27.534 265.401L25.696 264.17L22.956 261.872L20.117 259.366C19.166 258.506 17.185 256.225 16.227 255.187L15.339 254.12C6.72899 243.671 2.043 233.343 0.362 219.849C0.0199995 218.045 0.047 215.384 0 213.481L0.0899963 208.964L0.375 206.346C0.844 202.777 1.392 200.175 2.189 196.651L2.81 194.013L4.085 190.455L5.297 186.814L7.03299 182.382L8.325 179.482L11.171 173.651Z" fill="#1D2D53"/>
<path d="M56.1792 216.343L58.4132 221.669L59.7352 224.097L60.2332 225.562L64.9592 234.13C60.9082 233.844 54.5452 238.844 51.5412 241.393C43.0732 248.58 36.0842 258.324 34.0212 269.42C31.8442 268.104 29.6822 266.764 27.5342 265.401L25.6962 264.17L22.9562 261.872L20.1172 259.366C21.0062 258.998 21.7432 258.332 22.5372 257.733C23.3242 256.585 24.1542 255.189 23.7142 253.697C21.9002 247.551 28.2992 245.114 28.7862 238.936C28.9212 237.228 32.9692 235.703 34.6132 234.968C35.5682 228.246 37.5882 227.658 44.0342 226.413C44.4392 224.42 44.8522 222.831 45.4012 220.872C50.6662 220.92 52.6922 220.355 56.1792 216.343Z" fill="#1D7275"/>
<path d="M60.2332 225.562L64.9592 234.13C60.9082 233.844 54.5452 238.844 51.5412 241.393C43.0732 248.58 36.0842 258.324 34.0212 269.42C31.8442 268.104 29.6822 266.764 27.5342 265.401C28.8882 263.178 30.3742 259.498 30.0642 256.861L30.0272 256.561C34.8852 252.213 34.9922 243.819 41.8352 241.779C42.8712 241.47 43.2272 238.792 43.4452 237.617L43.5812 236.854C44.6002 235.765 46.9292 235.383 48.6032 234.887C50.5112 232.967 51.5272 231.286 53.0382 229.063C55.6892 227.936 57.6902 226.896 60.2332 225.562Z" fill="#1D7275"/>
<path d="M56.1792 216.343L58.4132 221.669C50.0472 223.574 49.7032 222.914 46.0182 230.521C43.4472 230.773 42.4072 230.713 40.0322 231.848C38.4352 233.895 39.1412 237.612 37.1792 238.148C29.8252 240.158 33.2012 243.676 30.9012 246.483C28.9952 247.432 27.0362 248.127 26.1992 250.042C27.1352 258.11 25.1522 255.535 22.9562 261.872L20.1172 259.366C21.0062 258.998 21.7432 258.332 22.5372 257.733C23.3242 256.585 24.1542 255.189 23.7142 253.697C21.9002 247.551 28.2992 245.114 28.7862 238.936C28.9212 237.228 32.9692 235.703 34.6132 234.968C35.5682 228.246 37.5882 227.658 44.0342 226.413C44.4392 224.42 44.8522 222.831 45.4012 220.872C50.6662 220.92 52.6922 220.355 56.1792 216.343Z" fill="#1D2D53"/>
<path d="M59.7349 224.097L60.2329 225.562C57.6899 226.896 55.6889 227.936 53.0379 229.063C51.5269 231.286 50.5109 232.967 48.6029 234.887C46.9289 235.383 44.5999 235.765 43.5809 236.854L43.4449 237.617C43.2269 238.792 42.8709 241.47 41.8349 241.779C34.9919 243.819 34.8849 252.213 30.0269 256.561C24.7129 253.067 30.4099 248.749 33.2559 247.151C34.3189 246.554 33.4929 241.909 35.6369 241.387C39.7929 240.374 40.7449 239.59 41.0629 235.257C41.3749 232.455 46.0139 233.099 48.0849 233.078L50.1439 225.89C53.3299 225.523 56.5869 224.757 59.7349 224.097Z" fill="#1D2D53"/>
<path d="M30.0643 256.861C30.3743 259.498 28.8883 263.178 27.5343 265.401L25.6963 264.17C26.2783 260.587 26.3213 258.196 30.0643 256.861Z" fill="#1D3454"/>
<path d="M11.171 173.651C17.007 180.08 16.632 174.876 21.431 176.172C22.565 177.289 23.107 177.926 24.107 179.128C23.815 181.023 23.419 183.217 23.272 185.105C23.563 189.848 23.877 193.314 25.298 197.912C23.523 205.14 22.806 208.83 15.998 213.825C10.839 217.611 3.75599 214.735 0.483994 216.119C0.401994 217.462 0.361 218.487 0.362 219.849C0.0199995 218.045 0.047 215.384 0 213.481L0.0899963 208.964L0.375 206.346C0.844 202.777 1.392 200.175 2.189 196.651L2.81 194.013L4.085 190.455L5.297 186.814L7.03299 182.382L8.325 179.482L11.171 173.651Z" fill="#1D2D53"/>
<path d="M11.171 173.651C17.007 180.08 16.632 174.876 21.431 176.172C22.565 177.289 23.107 177.926 24.107 179.128C23.815 181.023 23.419 183.217 23.272 185.105C23.563 189.848 23.877 193.314 25.298 197.912C23.523 205.14 22.806 208.83 15.998 213.825C10.839 217.611 3.75599 214.735 0.483994 216.119C0.401994 217.462 0.361 218.487 0.362 219.849C0.0199995 218.045 0.047 215.384 0 213.481C0.834 213.566 1.669 213.639 2.505 213.699C8.053 214.088 13.156 213.158 17.378 209.244C20.27 206.588 21.964 202.873 22.071 198.948C22.361 189.884 16.218 182.713 7.03299 182.382L8.325 179.482L11.171 173.651Z" fill="#1D7275"/>
<path d="M11.1712 173.651C17.0072 180.08 16.6322 174.876 21.4312 176.172C22.5652 177.289 23.1072 177.926 24.1072 179.128C23.8152 181.023 23.4192 183.217 23.2722 185.105L22.9712 187.829C22.1702 188.036 21.6412 186.819 20.7752 185.763C17.1242 181.313 13.7132 180.316 8.3252 179.482L11.1712 173.651Z" fill="#1D2D53"/>
<path d="M4.085 190.455C9.188 189.188 14.163 189.524 15.708 195.597C16.32 198.081 15.854 200.709 14.425 202.832C11.053 207.861 5.545 207.479 0.375 206.346C0.844 202.777 1.392 200.175 2.189 196.651L2.81 194.013L4.085 190.455Z" fill="#1D2D53"/>
<path d="M2.18945 196.651L2.81046 194.013C6.39946 197.679 5.70145 196.695 10.7814 195.487C11.5834 199.874 5.60245 202.026 2.18945 196.651Z" fill="#1D7275"/>
<path d="M5.29684 186.814C12.6728 186.138 18.8308 188.581 19.2268 197.036C19.3888 200.361 18.1558 203.602 15.8258 205.979C11.4588 210.429 5.72484 210.397 0.0898438 208.964L0.374847 206.346C5.54485 207.479 11.0529 207.861 14.4249 202.832C15.8539 200.709 16.3198 198.081 15.7078 195.597C14.1628 189.524 9.18785 189.188 4.08485 190.455L5.29684 186.814Z" fill="#1D7275"/>
<path d="M38.2876 213.723L38.9495 213.794C40.9145 217.068 41.9715 218.875 45.4016 220.872C44.8526 222.831 44.4395 224.42 44.0345 226.413C37.5885 227.658 35.5685 228.246 34.6135 234.968C32.9695 235.703 28.9215 237.228 28.7865 238.936C28.2995 245.114 21.9005 247.551 23.7145 253.697C24.1545 255.189 23.3246 256.585 22.5376 257.733C21.7436 258.332 21.0065 258.998 20.1175 259.366C19.1665 258.506 17.1855 256.225 16.2275 255.187C17.8605 252.474 18.1635 249.242 20.0135 246.265C19.0315 243.493 17.7656 243.927 17.9276 240.16C18.7276 238.152 20.5185 236.869 22.1725 235.357L22.5875 235.184C23.2665 234.204 23.5176 233.459 23.8456 232.309C24.4776 230.097 26.8525 230.521 29.0145 229.579C30.2935 226.262 26.6455 224.323 30.1225 220.742C32.0245 219.984 33.3915 220.679 35.6845 220.861L35.5945 219.915C35.9645 216.951 36.6276 216.134 38.2876 213.723Z" fill="#1D7275"/>
<path d="M22.1722 235.357L22.9832 236.674C21.9782 240.386 18.1212 239.243 23.2022 244.146L23.1462 245.207L21.5692 246.607L20.0132 246.265C19.0312 243.493 17.7652 243.927 17.9272 240.16C18.7272 238.152 20.5182 236.869 22.1722 235.357Z" fill="#1D2D53"/>
<path d="M20.0135 246.265L21.5695 246.607C19.9235 248.556 18.3345 253.803 19.2505 256.096L20.0396 256.183L21.8006 253.922L22.1965 253.961C21.9275 255.658 21.3206 256.459 22.5376 257.733C21.7436 258.332 21.0065 258.998 20.1175 259.366C19.1665 258.506 17.1855 256.225 16.2275 255.187C17.8605 252.474 18.1635 249.242 20.0135 246.265Z" fill="#1D3454"/>
<path d="M39.2912 222.51C40.5122 222.49 41.3502 222.684 42.5062 223.07L42.6892 223.787C41.9402 224.514 41.3862 224.988 40.3992 225.32C39.2612 225.702 39.6952 225.508 38.6982 225.963C38.5252 226.042 38.3552 226.127 38.1832 226.208C37.2382 226.768 36.6182 227.101 35.5192 227.222L35.3672 226.472C36.5152 224.697 37.5222 223.668 39.2912 222.51Z" fill="#1D3454"/>
<path d="M32.0863 228.489C32.2753 228.747 32.4933 228.986 32.6533 229.263C32.9963 229.857 33.2333 231.155 33.0703 231.785C32.4783 234.068 29.3613 235.374 27.4673 236.471L27.1553 236.122C27.8383 233.337 30.6343 233.604 32.0863 228.489Z" fill="#1D3454"/>
<path d="M20.6649 234.714C20.0159 232.573 19.6769 231.977 19.8769 229.82C20.9939 227.719 24.7769 226.036 27.1029 226.307L27.5809 227.061L27.1319 227.759C26.4569 227.911 25.7849 228.078 25.1169 228.259C23.3129 228.761 22.6379 228.994 21.6979 230.607C21.3239 232.439 21.6179 232.753 22.3559 234.616L22.5869 235.184L22.1719 235.357C20.5179 236.869 18.7269 238.152 17.9269 240.16C17.7649 243.927 19.0309 243.493 20.0129 246.265C18.1629 249.242 17.8599 252.474 16.2269 255.187L15.3389 254.12C16.4829 251.579 17.5789 249.018 18.6259 246.436C14.1969 240.29 15.7669 239.346 20.6649 234.714Z" fill="#197871"/>
<path d="M33.5263 218.829L33.7073 218.036C31.2143 215.229 31.7313 213.247 33.4353 210.176C35.0443 211.369 36.6623 212.552 38.2873 213.723C36.6273 216.134 35.9643 216.951 35.5943 219.915C35.0453 219.691 34.0873 219.131 33.5263 218.829Z" fill="#1D3454"/>
<path d="M32.338 208.938L33.435 210.176C31.731 213.247 31.214 215.229 33.707 218.036L33.526 218.829C31.253 218.64 29.752 218.268 28.072 219.939C27.806 221.927 27.884 223.262 27.925 225.278L27.402 225.385C24.188 220.644 26.628 218.833 30.501 216.206C30.523 213.27 30.027 210.975 32.338 208.938Z" fill="#197871"/>
<path d="M84.7274 18.474C86.2784 17.496 88.2234 16.468 89.8474 15.553C92.3704 18.582 94.0414 22.26 93.6974 26.293C92.1324 44.59 67.2904 45.509 73.2404 76.691C67.8144 76.459 62.8674 76.46 58.7114 80.491C50.7864 88.179 54.7384 98.687 55.7894 107.568C46.5294 116.832 35.1874 110.718 20.8154 120.257C21.7644 110.398 23.5064 102.514 26.2174 93.112C27.7094 88.59 29.5454 83.532 31.7014 79.299L32.2354 77.765C33.8734 74.638 35.5314 71.522 37.2094 68.416C43.4484 56.793 53.7884 43.4489 63.5454 34.8199L66.6374 32C68.0714 30.655 69.6594 29.317 71.1474 28.021C73.3484 26.301 75.7634 24.5669 78.0194 22.8929L80.5474 21.244L84.7274 18.474Z" fill="#1D2D53"/>
<path d="M37.2088 68.416C40.6298 72.254 48.1368 70.62 50.3018 80.001C49.8128 82.23 49.2018 82.862 47.9138 84.824C52.6898 94.396 51.7168 95.018 42.1888 99.389C41.4258 101.721 40.9038 104.002 39.4178 105.899C37.1438 106.681 36.1558 104.913 34.4818 103.254C33.0678 101.854 30.3958 100.727 29.4108 99.26C28.3168 97.63 27.5438 94.6641 26.2168 93.1121C27.7088 88.5901 29.5448 83.532 31.7008 79.299L32.2348 77.765C33.8728 74.638 35.5308 71.522 37.2088 68.416Z" fill="#1D7275"/>
<path d="M32.2352 77.7649C34.6482 78.3799 36.0582 78.5849 37.0872 81.0759L36.6422 81.8659C34.4422 81.8909 33.4682 80.7699 31.7012 79.2989L32.2352 77.7649Z" fill="#1D2D53"/>
<path d="M36.3126 87.376C37.7316 88.276 38.2866 88.466 39.1156 89.944C38.9796 91.594 37.1506 92.459 36.4686 95.317L36.3746 95.858L35.6276 96.069L35.1546 95.399C34.7636 91.965 34.8586 90.496 36.3126 87.376Z" fill="#1D2D53"/>
<path d="M43.3124 85.4089C47.2824 87.0009 47.2524 90.4439 45.7704 93.8129L44.6744 93.7389C43.3284 92.4299 42.9194 87.3579 43.3124 85.4089Z" fill="#1D2D53"/>
<path d="M39.2109 75.052C43.2659 75.02 45.2879 76.603 44.5269 80.683L43.0059 81.024C42.2059 80.448 40.2409 76.559 39.2109 75.052Z" fill="#1D2D53"/>
<path d="M80.5469 21.244L84.7269 18.474C87.0139 22.792 88.4859 26.034 86.9629 31.173C85.9639 34.595 83.6349 37.475 80.4979 39.167C74.2729 42.472 67.8879 39.7949 63.5449 34.8199L66.6369 32C68.0709 30.655 69.6589 29.317 71.1469 28.021C73.3479 26.301 75.7629 24.5669 78.0189 22.8929L80.5469 21.244Z" fill="#1D7275"/>
<path d="M80.5467 21.2439C89.5427 29.0099 74.8557 44.4179 66.6367 31.9999C68.0707 30.6549 69.6587 29.3169 71.1467 28.0209C73.3477 26.3009 75.7627 24.5669 78.0187 22.8929L80.5467 21.2439Z" fill="#1D3454"/>
<path d="M71.1475 28.021C73.3485 26.301 75.7635 24.5669 78.0195 22.8929C78.6435 26.0579 78.9715 28.332 75.5865 29.761C73.3995 29.691 72.9935 29.332 71.1475 28.021Z" fill="#197871"/>
<path d="M54.8764 51.645C57.3864 52.285 58.8874 55.238 60.2364 57.369C61.0004 55.517 61.3034 54.134 62.8994 52.999L63.7114 53.2061C64.7834 54.9991 64.4994 56.739 64.4884 58.908C66.2244 58.953 70.3684 58.7211 71.3074 60.0521C70.4664 61.2731 68.3354 62.041 66.8834 62.725C66.2694 64.681 67.6764 63.77 68.3604 66.488C67.2404 67.333 65.1894 67.164 63.6634 67.209C63.4464 68.939 63.4824 70.612 62.0084 71.608C60.4744 70.723 60.1154 69.407 59.3224 67.757L51.0234 70.6591C52.5994 68.2481 53.8814 66.6511 55.3884 64.0341C55.2054 62.7071 54.2694 62.481 52.8024 61.353L52.8564 60.5861C54.7574 59.7891 54.9804 59.751 57.0214 59.341C56.4704 58.379 55.9324 57.41 55.4064 56.434C54.1564 54.081 54.1934 53.892 54.8764 51.645Z" fill="#1D7275"/>
<path d="M137.34 55.8849C147.652 47.9209 148.094 42.7969 155.743 32.8179C158.106 29.7349 164.872 24.8649 167.778 21.7939C170.117 19.3209 170.964 17.5239 172.995 14.8679C170.019 26.6979 163.802 27.6969 156.321 36.3119C153.483 39.5789 151.728 44.6369 149.14 48.1629C147.204 51.0619 141.818 54.7839 140.188 57.2359C136.361 62.9939 140.842 64.5819 131.813 67.2639C131.084 70.5719 130.884 73.6359 126.896 73.3189C125.401 72.3779 125.25 72.3059 123.914 71.0219C122.081 72.2709 120.415 73.0279 119.671 75.0009C119.803 77.5799 120.168 79.2139 118.274 81.3539C112.308 88.0939 107.104 76.1939 105.613 88.6919L100.911 87.3379C98.6985 88.0379 93.0385 90.5559 92.1175 90.5539C91.0985 88.5579 94.2855 85.0539 95.9375 84.0139C97.5495 82.9999 99.8085 83.7559 101.447 82.4329C102.36 77.9499 104.707 80.6759 108.144 78.8459C104.133 76.5589 100.243 75.2069 102.262 69.2589L101.45 69.0319C100.71 69.9709 100.888 69.5919 100.507 70.7029L99.7835 70.6009C97.6145 70.2689 96.7465 69.6789 95.0025 70.9839C90.6215 74.2629 88.0205 83.2289 87.2995 88.3669C87.8355 89.1379 87.4955 88.9229 88.2135 89.1539C85.2275 91.4429 86.9235 93.1859 85.2325 93.5959C81.4315 109.736 75.7445 119.306 61.3525 128.308C54.4975 132.596 43.1015 137.574 35.2065 135.478C32.1555 134.668 29.4815 133.784 27.9655 135.936C27.3495 139.448 28.4375 140.929 28.4925 144.322C26.7335 147.679 25.4695 148.992 24.9385 152.762L24.8605 153.385L24.2425 153.606C21.6635 151.391 22.3605 150.266 19.4805 147.914L19.7765 143.573C20.0825 145.812 19.6835 145.464 20.9505 146.823C23.2535 147.361 22.2275 147.489 24.1825 146.888C27.4745 142.054 18.5215 135.289 29.6615 128.226C32.4705 129.84 34.7915 130.857 37.7445 132.175C38.3035 131.97 39.0645 131.592 39.6245 131.335L40.0455 130.18C45.7375 132.13 56.2715 125.48 61.2075 122.564C61.8425 121.118 62.5985 119.588 63.2785 118.15C63.1235 119.477 63.0005 120.616 62.9095 121.956L63.5325 122.512C88.8195 103.461 77.3875 81.7439 90.8345 65.4639L91.2435 65.2339C95.5585 60.7079 100.201 56.3829 106.875 56.5719C118.288 56.8959 120.089 64.6179 117.468 73.8909L117.77 74.5179C119.662 73.1619 120.196 69.4319 120.745 67.0439C126.674 61.6249 125.037 58.7869 130.203 53.6329L137.34 55.8849Z" fill="#1D7275"/>
<path d="M85.2324 93.5959C86.0774 82.2139 88.5524 72.16 96.5364 64.026C106.921 53.447 125.148 64.9509 112.537 75.4049C107.136 79.8829 101.035 69.3269 106.48 67.2599C108.687 67.5769 109.211 68.747 111.274 69.902L112.062 69.4659C113.422 63.6189 107.074 62.0499 103.947 66.6759L102.262 69.2589L101.45 69.032C100.71 69.971 100.888 69.592 100.507 70.703L99.7834 70.6009C97.6144 70.2689 96.7464 69.6789 95.0024 70.9839C90.6214 74.2629 88.0204 83.2289 87.2994 88.3669C87.8354 89.1379 87.4954 88.923 88.2134 89.154C85.2274 91.443 86.9234 93.1859 85.2324 93.5959Z" fill="#1D2D53"/>
<path d="M99.7829 70.6009C99.2419 68.4839 98.8339 67.472 100.432 65.793C102.559 65.646 101.822 65.632 103.947 66.676L102.262 69.259L101.45 69.032C100.71 69.971 100.888 69.592 100.507 70.703L99.7829 70.6009Z" fill="#1D7275"/>
<path d="M63.2781 118.15C63.1231 119.477 63.0001 120.616 62.9091 121.956L63.5321 122.512C55.6431 128.872 47.7811 131.595 37.7441 132.175C38.3031 131.97 39.0641 131.592 39.6241 131.335L40.0451 130.18C45.7371 132.13 56.2711 125.48 61.2071 122.564C61.8421 121.118 62.5981 119.588 63.2781 118.15Z" fill="#1D3454"/>
<path d="M248.771 134.879C257.381 129.783 261.123 126.641 271.651 127.015C281.161 127.352 287.801 130.291 296.414 133.99C297.111 133.01 297.001 132.272 297.167 130.949C297.649 134.344 297.505 138.983 297.505 142.524L297.688 143.278C298.16 151.615 299.572 158.991 302.931 166.682L303.914 168.775C300.603 168.686 299.203 168.73 295.971 169.822C296.051 170.665 296.245 172.164 296.247 172.951C294.934 173.232 293.852 173.415 292.578 173.851C291.698 172.057 290.328 169.943 289.268 168.201L288.059 166.978C286.501 165.378 286.18 165.009 284.957 163.159C288.395 154.885 275.542 141.447 265.798 142.455C262.942 141.516 260.612 140.315 257.911 139.021C256.797 138.846 255.417 138.109 254.326 137.624L252.935 137.193C252.64 136.97 251.027 136.146 250.6 135.917L248.771 134.879Z" fill="#1D2D53"/>
<path d="M248.771 134.879C257.381 129.783 261.123 126.641 271.651 127.015C281.161 127.352 287.801 130.291 296.414 133.99C297.111 133.01 297.001 132.272 297.167 130.949C297.649 134.344 297.505 138.983 297.505 142.524L297.688 143.278C296.494 146.593 295.64 144.565 294.237 147.233L293.625 146.648C289.525 141.18 278.987 133.824 272.535 131.804L272.111 133.01C270.449 133.021 269.598 133.044 267.991 132.457C263.776 130.92 256.01 134.589 252.935 137.193C252.64 136.97 251.027 136.146 250.6 135.917L248.771 134.879Z" fill="#1D7275"/>
<path d="M250.601 135.917C254.712 133.03 266.183 126.155 271.808 129.503C272.583 129.965 272.401 130.793 272.536 131.804L272.111 133.01C270.449 133.021 269.598 133.044 267.991 132.457C263.776 130.92 256.011 134.589 252.936 137.193C252.641 136.97 251.028 136.146 250.601 135.917Z" fill="#1D2D53"/>
<path d="M291.689 139.785C292.434 138.88 292.839 138.136 293.452 137.143C293.85 139.532 295.053 141.834 297.505 142.524L297.687 143.278C296.494 146.593 295.64 144.565 294.237 147.233L293.624 146.648C295.123 143.106 294.315 142.133 291.689 139.785Z" fill="#1D676E"/>
<path d="M291.689 139.785L290.008 138.495C289.781 136.698 289.632 137.542 290.583 135.898C292.324 135.172 291.532 135.132 293.029 135.613L293.452 137.143C292.839 138.136 292.434 138.88 291.689 139.785Z" fill="#1D2D53"/>
<path d="M257.911 139.021C260.961 137.542 269.506 139.363 272.694 140.558C285.568 145.384 287.897 155.135 288.058 166.978C286.5 165.378 286.179 165.009 284.956 163.159C288.394 154.885 275.542 141.447 265.798 142.455C262.942 141.516 260.612 140.315 257.911 139.021Z" fill="#1D7275"/>
<path d="M252.936 137.193C256.011 134.589 263.776 130.92 267.991 132.457C269.598 133.044 270.449 133.021 272.111 133.01C275.029 134.172 281.26 136.289 278.756 140.712C275.993 140.341 274.568 139.478 271.97 138.447C266.793 136.369 261.096 135.963 255.676 137.284L254.831 137.49C254.662 137.535 254.494 137.579 254.326 137.624L252.936 137.193Z" fill="#1D7275"/>
<path d="M289.166 152.595C295.432 157.234 296.314 159.645 293.984 167.571C294.475 169.034 294.532 168.703 295.971 169.822C296.051 170.665 296.245 172.164 296.247 172.951C294.934 173.232 293.852 173.415 292.578 173.851C291.698 172.057 290.328 169.943 289.268 168.201C291.167 164.235 289.83 156.904 289.166 152.595Z" fill="#1D7275"/>
<path d="M297.687 143.278C298.16 151.615 299.572 158.991 302.931 166.682C301.091 166.588 299.918 166.678 298.24 165.902C299.076 154.376 296.083 159.337 294.155 152.699C294.56 150.247 294.675 149.651 294.237 147.233C295.64 144.565 296.494 146.593 297.687 143.278Z" fill="#1D7275"/>
<path d="M280.023 140.787C287.79 139.451 292.613 146.018 290.242 153.244L289.044 152.972C287.71 151.017 280.253 141.7 280.023 140.787Z" fill="#1D7275"/>
<path d="M268.396 50.0699L271.172 53.707C274.728 58.464 279.721 66.333 282.443 71.851C284.555 75.831 285.967 78.903 287.752 83.055C285.199 85.099 280.541 88.674 279.717 91.666C280.844 95.229 284.465 93.4739 286.886 95.8719L286.677 96.974C284.931 99.137 282.715 100.299 280.351 101.816C280.591 106.035 281.107 107.675 279.016 111.261L278.288 111.062C277.486 108.98 277.917 106.641 278.088 104.334C274.887 103.94 272.063 104.075 269.993 101.629C269.506 100.041 270.055 99.14 270.604 97.5L270.846 96.793C269.181 92.51 262.786 97.8729 264.011 87.0569C261.201 82.8979 254.258 83.616 261.247 76.549C250.01 70.0509 256.011 67.557 262.025 62.962C262.42 62.66 263.873 57.526 264.129 56.611C264.881 53.926 266.557 52.2059 268.396 50.0699Z" fill="#1D7275"/>
<path d="M271.172 53.707C274.728 58.464 279.721 66.333 282.443 71.851C274.485 81.056 280.185 78.0571 283.267 81.1641C283.091 83.6741 280.199 86.524 278.489 88.439C278.32 87.289 277.605 80.145 277.345 79.642C273.617 72.428 267.608 62.392 271.172 53.707Z" fill="#1D2D53"/>
<path d="M262.96 67.313C268.753 70.573 262.821 72.8069 265.278 77.8979C266.708 80.8619 268.719 79.826 271.002 81.476C271.256 84.983 270.158 81.455 270.118 85.171C271.017 86.811 271.077 86.986 272.562 88.102L275.667 90.422C275.001 91.427 275.088 91.411 273.98 91.853C271.984 91.46 270.555 89.783 268.996 88.366L267.769 83.224L264.335 79.81C263.567 76.719 262.764 73.629 261.864 70.564C261.411 69.021 262.101 68.561 262.96 67.313Z" fill="#1D2D53"/>
<path d="M278.651 94.541C280.672 95.064 281.486 95.0931 282.692 96.4871C282.348 98.4091 282.156 98.0811 280.636 99.8151C279.771 100.241 279.655 100.231 278.72 100.499C276.367 99.136 277.573 96.404 278.651 94.541Z" fill="#1D2D53"/>
<path d="M70.8164 80.632C84.3354 88.971 78.0044 101.118 71.9204 111.677C68.1534 118.214 65.7764 115.787 63.2784 118.15C62.5984 119.588 61.8424 121.118 61.2074 122.564C56.2714 125.48 45.7374 132.13 40.0454 130.18L39.6244 131.335C39.0644 131.592 38.3034 131.97 37.7444 132.175C34.7914 130.857 32.4704 129.84 29.6614 128.226C18.5214 135.289 27.4744 142.054 24.1824 146.888C22.2274 147.489 23.2534 147.361 20.9504 146.823C19.6834 145.464 20.0824 145.812 19.7764 143.573C20.0664 139.943 19.9854 134.982 20.0324 131.251C20.0914 128.786 20.2084 127.453 20.5654 125.012C20.4164 125.026 34.1684 120.506 35.9324 120.032C41.9454 118.331 49.5794 118.038 55.5094 115.07C56.5744 114.537 62.1184 107.23 61.8874 105.924C61.6234 104.428 60.0384 103.532 60.5004 100.94L62.7684 99.663L62.7314 99.0179C61.0744 98.5649 60.7694 98.567 59.2654 97.677C58.5834 96.326 57.9604 94.947 59.1994 93.796L60.3964 94.128L61.6114 93.049C63.7754 94.1569 67.9164 94.846 68.2724 91.529L67.3074 91.087C65.5084 91.49 65.1644 91.6919 63.3854 91.1089C59.7764 87.3069 65.0564 81.933 70.6524 82.641L70.8164 80.632Z" fill="#1D2D53"/>
<path d="M67.8196 87.601C69.6096 85.951 68.8876 86.117 70.8496 86.043C75.5396 88.278 76.6296 98.9129 70.5986 99.7419L70.1776 100.716C70.9536 101.524 71.3776 101.918 71.7836 102.968C70.4846 104.445 69.4806 104.418 69.1766 104.75C67.6866 106.379 66.6766 112.962 64.2596 113.238L62.3626 111.341L61.4736 111.497L59.3846 114.645C55.9446 119.873 51.3796 117.355 46.2156 119.101C42.9186 120.216 43.7576 123.281 40.4476 120.493L39.0156 120.28L35.9326 120.032C41.9456 118.331 49.5796 118.038 55.5096 115.07C56.5746 114.537 62.1186 107.23 61.8876 105.924C61.6236 104.428 60.0386 103.532 60.5006 100.94L62.7686 99.663L62.7316 99.0179C61.0746 98.5649 60.7696 98.567 59.2656 97.677C58.5836 96.326 57.9606 94.947 59.1996 93.796L60.3966 94.128L61.6116 93.049C63.7756 94.1569 67.9166 94.846 68.2726 91.529L67.3076 91.087C67.0006 90.194 66.6096 89.49 66.1106 88.69L66.4466 87.881L67.8196 87.601Z" fill="#1D7275"/>
<path d="M67.3075 91.087C67.0005 90.194 66.6095 89.49 66.1105 88.69L66.4465 87.881L67.8195 87.601C74.8655 92.469 66.4465 98.4 60.3965 94.128L61.6115 93.049C63.7755 94.1569 67.9165 94.846 68.2725 91.529L67.3075 91.087Z" fill="#1D3454"/>
<path d="M70.8159 80.632C84.3349 88.971 78.0039 101.118 71.9199 111.677C68.1529 118.214 65.7759 115.787 63.2779 118.15C62.5979 119.588 61.8419 121.118 61.2069 122.564C56.2709 125.48 45.7369 132.13 40.0449 130.18C42.5729 126.961 55.3209 129.043 62.1429 116.694C71.2059 113.775 77.2379 100.583 76.9929 91.377C76.8899 87.476 73.5099 84.9 70.6519 82.641L70.8159 80.632Z" fill="#197871"/>
<path d="M35.9322 120.032L39.0152 120.28C37.1112 121.236 35.2972 122.163 33.2332 122.735C29.2222 123.847 25.8642 123.223 22.6782 126.219C22.3832 127.739 22.5022 127.937 22.7132 129.442C21.7522 130.644 21.4382 130.633 20.0322 131.251C20.0912 128.786 20.2082 127.453 20.5652 125.012C20.4162 125.026 34.1682 120.506 35.9322 120.032Z" fill="#1D676E"/>
<path d="M24.1075 179.128C26.1005 171.756 29.2855 167.979 34.6915 162.97C35.5295 167.776 36.6084 174.921 38.1694 179.35C41.0104 189.635 43.4734 195.075 48.5145 204.362L52.8654 205.528C53.4704 207.207 55.8495 214.597 56.1795 216.343C52.6925 220.355 50.6665 220.92 45.4015 220.872C41.9715 218.875 40.9144 217.068 38.9494 213.794L38.2875 213.723C36.6625 212.552 35.0445 211.369 33.4355 210.176L32.3385 208.938C28.9715 204.973 27.3824 202.662 25.2984 197.912C23.8774 193.314 23.5635 189.848 23.2725 185.105C23.4195 183.217 23.8155 181.023 24.1075 179.128Z" fill="#F9C190"/>
<path d="M48.5142 204.362L52.8652 205.528C53.4702 207.207 55.8492 214.597 56.1792 216.343C52.6922 220.355 50.6662 220.92 45.4012 220.872C41.9712 218.875 40.9142 217.068 38.9492 213.794C42.8442 208.143 39.1602 208.071 47.4752 204.535L48.5142 204.362Z" fill="#F3C01D"/>
<path d="M38.169 179.35C41.01 189.635 43.473 195.075 48.514 204.362L47.475 204.535C43.515 202.489 42.173 202.924 38.759 199.189C33.479 193.413 31.99 185.073 38.169 179.35Z" fill="#F6A575"/>
<path d="M89.8468 15.553L93.9758 13.304C99.4658 24.668 98.6608 30.042 91.3398 40.151C98.1188 38.141 108.479 36.067 112.316 29.652C114.668 25.72 111.795 18.574 106.488 21.47C104.879 22.347 104.228 23.952 102.258 24.322L101.674 23.677C103.175 14.257 118.797 17.681 115.801 27.809C114.5 32.206 111.893 35.465 107.732 37.468C94.9108 42.756 82.2638 43.046 76.7528 58.53C74.3308 65.336 75.4168 72.716 76.5068 79.904C56.0038 76.292 54.9678 89.522 58.7608 105.751C57.4048 109.731 55.6448 112.935 51.5488 114.603C38.9268 119.745 32.9888 115.629 20.4238 123.985L20.8148 120.257C35.1868 110.718 46.5288 116.832 55.7888 107.568C54.7378 98.687 50.7858 88.179 58.7108 80.491C62.8668 76.46 67.8138 76.459 73.2398 76.691C67.2898 45.509 92.1318 44.59 93.6968 26.293C94.0408 22.26 92.3698 18.582 89.8468 15.553Z" fill="#1D7275"/>
<path d="M250.357 111.372C255.484 119.073 263.486 122.092 272.22 123.741C281.958 125.581 288.14 126.635 297.166 130.949C297 132.272 297.11 133.01 296.413 133.99C287.8 130.291 281.16 127.352 271.65 127.015C261.122 126.641 257.38 129.783 248.77 134.879C244.841 132.969 238.641 129.283 235.089 126.913C242.118 122.666 246.181 118.402 250.357 111.372Z" fill="#1D2D53"/>
<path d="M250.729 124.417C251.87 124.365 252.857 125.201 252.995 126.335C253.132 127.469 252.373 128.517 251.253 128.739C250.449 128.899 249.624 128.595 249.116 127.953C248.607 127.31 248.501 126.437 248.841 125.692C249.181 124.946 249.91 124.454 250.729 124.417Z" fill="#1D7275"/>
<path d="M248.091 57.95C246.753 56.765 243.804 54.897 243.18 53.64C246.268 52.609 250.552 55.9821 251.363 59.1931C254.378 71.1381 255.316 84.2271 254.799 96.5291C254.656 99.5131 252.919 105.878 252.169 108.759C259.724 120.598 273.101 121.745 286.144 123.029C290.777 120.89 292.455 119.506 296.232 116.002L296.873 120.845L297.139 127.737L297.167 130.949C288.141 126.635 281.959 125.581 272.221 123.741C263.487 122.092 255.485 119.073 250.358 111.372C246.182 118.402 242.119 122.666 235.09 126.913L232.556 125.195C239.89 120.118 246.605 113.979 249.701 105.341C254.56 94.004 251.474 69.55 248.091 57.95Z" fill="#1D7275"/>
<path d="M289.023 124.776C291.594 123.615 294.514 121.302 296.872 120.845L297.138 127.737C294.417 126.794 291.712 125.807 289.023 124.776Z" fill="#1D2D53"/>
<path d="M230.485 95.5659C233.86 94.3849 236.814 93.3769 238.55 89.9069C243.102 80.8079 236.223 71.7129 235.156 62.6389C234.593 57.8509 239.313 54.1669 238.708 50.1589C238.518 48.8949 235.599 44.2549 235.201 42.2109C238.344 42.1419 240.834 49.6649 241.539 52.1509C240.332 55.8619 239.562 56.8089 237.364 59.9779C238.759 71.4229 247.045 82.6489 240.007 92.6389C235.833 98.5639 226.136 97.6119 220.366 99.9989C216.038 101.789 213.733 103.997 208.807 105.876L206.712 103.644C208.234 101.856 208.548 101.631 210.53 100.354C211.456 96.9929 208.492 95.9389 212.149 93.7169C214.143 92.5049 218.269 94.4659 218.692 94.1929C224.07 90.7129 223.041 85.4009 230.485 95.5659Z" fill="#1D7275"/>
<path d="M168.587 50.548C172.134 40.377 178.044 42.865 182.78 34.594C184.377 31.804 180.674 27.579 180.215 25.603L181.218 25.094C184.533 26.097 185.75 32.646 184.884 35.601C183.513 40.279 179.307 42.407 175.441 44.711L178.496 46.743C184.955 41.364 182.139 43.549 186.235 37.788L186.719 38.198C187.554 44.331 177.981 48.187 176.22 54.795C174.092 62.774 174.267 67.395 177.82 74.715L176.67 76.061C174.868 72.931 172.835 70.863 172.672 67.133C171.145 68.796 170.028 70.337 167.931 70.681L167.353 69.877C167.993 68.839 170.339 65.464 170.703 64.724C172.102 61.884 169.42 53.797 168.587 50.548Z" fill="#1D7275"/>
<path d="M174.334 45.3689C178.116 47.9499 174.663 51.2719 173.703 55.3859L173.579 55.9409L173.368 56.2179C170.407 54.1299 172.519 47.9399 174.334 45.3689Z" fill="#1D2D53"/>
<path d="M216.388 112.911C217.704 111.719 217.59 111.666 219.286 111.275C220.427 111.664 221.338 111.949 222.5 112.265C224.702 110.915 222.089 109.798 223.958 107.095C225.957 106.619 226.669 107.349 228.801 108.325C230.919 107.053 229.853 105.229 231.979 103.803C232.777 104.67 233.366 105.24 234.233 106.041L235.36 105.878C236.222 104.435 235.737 103.491 235.715 101.37L236.509 101.239L237.605 102.537C238.998 102.715 239.069 102.359 240.585 101.636L242.082 102.962C241.863 104.228 242.092 103.661 241.435 104.678C239.891 105.522 239.331 106.204 238.095 107.419C237.689 109.218 238.029 110.904 236.936 112.227C235.886 112.402 235.088 112.498 234.148 113.02C233.896 114.506 233.982 114.622 234.16 116.146C233.318 117.368 233.663 117.103 232.537 117.951L231.786 118.016L231.424 117.311C231.024 116.548 230.895 116.312 230.431 115.633C227.757 115.666 227.165 118.372 225.589 120.43C222.243 117.856 219.528 115.717 216.388 112.911Z" fill="#1D7275"/>
<path d="M14.6059 166.749C23.1759 170.288 31.6869 160.88 33.7989 160.961L34.6909 162.97C29.2849 167.979 26.0999 171.756 24.1069 179.128C23.1069 177.926 22.5649 177.289 21.4309 176.172C16.6319 174.876 17.0069 180.08 11.1709 173.651L14.6059 166.749Z" fill="#1D7275"/>
<path d="M150.05 97.81C149.016 97.258 147.957 96.688 146.958 96.074C142.911 93.545 140.04 89.506 138.982 84.852C137.348 77.579 140.284 70.0719 148.17 68.9969C151.031 68.6069 153.408 68.652 155.793 70.465C157.684 71.892 158.897 74.0409 159.142 76.3979C159.581 80.4979 157.435 83.3369 153.228 83.5359C151.556 82.8629 151.476 82.9629 150.411 81.4369C150.305 79.6599 150.169 80.5169 150.999 78.8069C152.957 78.3159 151.748 79.854 154.659 80.44C158.368 77.607 155.92 72.54 152.81 71.585C143.101 68.604 138.01 79.943 142.514 87.735C145.153 92.301 147.746 94.48 152.896 95.994L150.05 97.81Z" fill="#1D7275"/>
<path d="M107.211 7.82202C113.005 4.69402 128.907 1.61902 135.648 0.666016C138.106 8.85302 134.834 12.246 126.919 7.87604C125.522 9.61104 124.801 10.943 122.733 11.584C122.11 11.475 121.523 11.602 121.134 10.926C118.803 6.87103 121.271 5.924 115.741 6.979C112.781 7.544 109.87 8.28602 107.211 7.82202Z" fill="#1D7275"/>
<path d="M90.8339 65.4641L89.0659 64.42C86.8639 64.648 85.7519 66.1591 83.8839 67.8281C82.3669 68.0811 83.0739 68.198 81.7039 67.408C80.9329 64.926 82.4099 65.112 81.9499 62.413C81.3959 61.946 79.8389 60.824 79.9609 60.186C80.5019 57.369 82.9729 53.039 86.0279 53.025C89.2509 55.71 88.7929 54.384 92.4119 52.8C93.8109 53.521 93.2019 52.998 93.8869 54.88C93.4069 59.861 90.4379 58.399 91.2429 65.234L90.8339 65.4641Z" fill="#1D7275"/>
<path d="M188.95 48.335C190.339 42.437 185.923 33.064 189.754 27.352L190.58 27.241C191.716 29.755 189.712 33.566 190.295 36.121C192.99 47.922 197.863 49.659 184.723 57.481C184.87 60.777 185.24 64.2169 184.536 67.3979L184.378 68.144L183.495 68.238C182.943 66.421 182.499 61.227 182.259 59.065C182.5 54.43 185.702 52.016 188.95 48.335Z" fill="#1D7275"/>
<path d="M88.2128 89.1541C87.4948 88.9231 87.8348 89.138 87.2988 88.367C88.0198 83.229 90.6208 74.263 95.0018 70.984C96.7458 69.679 97.6138 70.269 99.7828 70.601L100.507 70.7031L100.565 71.6731C98.2558 73.9241 97.0438 72.6931 95.8458 74.8921C96.3908 77.3901 97.2068 78.0991 96.7808 80.1341L96.0208 80.5171L93.3138 79.466C92.0218 80.48 90.5888 85.9341 88.2128 89.1541Z" fill="#1D7275"/>
<path d="M240.585 101.636C243.002 95.5029 245.451 92.4479 245.921 86.1259L246.529 85.3879C248.813 87.3769 248.873 91.2639 248.339 94.0569C247.352 95.0779 247.074 94.9769 245.653 95.3749C244.377 98.7529 244.157 103.151 242.948 105.433L242.167 105.49L241.435 104.678C242.092 103.661 241.863 104.228 242.082 102.962L240.585 101.636Z" fill="#1D7275"/>
<path d="M248.035 105.497L249.7 105.341C246.604 113.979 239.889 120.118 232.555 125.195L229.513 123.223C238.508 119.299 243.731 114.296 248.035 105.497Z" fill="#1D2D53"/>
<path d="M61.6112 93.049C57.8372 86.428 63.7242 80.48 70.8162 80.632L70.6522 82.641C65.0562 81.933 59.7762 87.307 63.3852 91.109C65.1642 91.692 65.5082 91.49 67.3072 91.087L68.2722 91.529C67.9162 94.846 63.7752 94.157 61.6112 93.049Z" fill="#197871"/>
<path d="M227.578 121.62C235.351 120.59 239.961 115.646 244.086 109.402C245.004 108.013 246.279 105.854 247.507 104.942L248.035 105.497C243.731 114.296 238.508 119.299 229.513 123.223L227.578 121.62Z" fill="#1D7275"/>
<path d="M138.941 0.336975C141.196 0.0719751 145.84 0.073 148.278 0C149.568 1.609 151.115 3.12896 151.46 5.09796L150.805 5.54999C147.217 4.85399 142.346 1.91198 138.941 0.336975Z" fill="#1D7275"/>
<path d="M219.066 12.0769L223.26 14.1019C219.715 16.0709 220.038 18.5089 216.738 20.0839L216.167 19.5249C216.131 16.7759 217.71 14.6349 219.066 12.0769Z" fill="#1D3454"/>
<path d="M185.905 47.645C187.888 47.481 186.892 47.386 188.95 48.335C185.702 52.016 182.5 54.43 182.259 59.065C181.791 57.933 181.814 58.144 181.011 57.148C182.463 52.254 182.963 51.662 185.905 47.645Z" fill="#1D2D53"/>
<path d="M181.011 57.1479L180.435 56.722C178.633 52.938 181.537 47.057 185.493 46.839L185.905 47.645C182.963 51.662 182.463 52.2539 181.011 57.1479Z" fill="#1D7275"/>
<path d="M105.345 8.44995L106.414 7.69897C107.309 11.246 104.694 13.77 101.216 13.416C101.377 11.507 104.535 10.94 105.345 8.44995Z" fill="#197871"/>
<path d="M214.098 22.381L216.192 22.7939C217.715 24.1479 217.669 24.4899 218.145 26.7079L218.329 27.582L219.158 27.899C220.768 27.219 221.745 26.631 223.489 26.686C225.613 28.268 224.228 30.202 224.813 30.659C226.514 31.984 228.594 34.09 230.078 35.69L229.839 36.821L230.186 35.849L230.061 36.799C221.451 38.466 224.985 40.32 222.309 42.697C220.234 42.455 220.133 40.685 217.86 39.929C217.664 41.494 216.855 48.974 216.506 49.795C213.733 56.363 208.176 62.8429 208.259 70.2599C208.366 79.7809 224.548 80.058 222.768 69.473C222.65 68.767 222.029 68.672 221.405 68.339C219.402 68.297 219.184 68.505 217.257 69.332L216.704 69.575C215.368 69.019 215.842 69.472 215.215 68.193C216.488 65.897 217.931 65.2749 220.401 64.9709C226.518 67.4719 227.97 73.46 222.724 77.855C220.361 79.804 217.296 80.685 214.26 80.289C211.858 79.996 209.037 78.78 207.723 76.698C201.935 67.533 209.345 58.177 212.675 49.728C213.632 47.299 213.949 44.554 214.286 42.108C212.362 43.568 211.021 45.108 208.591 44.265C207.628 42.596 208.2 40.0849 208.199 37.9789C208.198 35.7199 206.57 34.93 204.656 33.107C205.484 31.691 205.84 31.206 206.313 29.595C205.244 27.365 205.161 27.909 202.887 26.185L202.789 25.194C205.2 19.708 207.665 24.7 212.178 25.46C213.618 24.799 213.313 24.419 214.098 22.381Z" fill="#1D7275"/>
<path d="M210.065 30.973C210.994 30.408 212.199 30.63 212.865 31.49C213.531 32.349 213.445 33.572 212.665 34.33C212.077 34.902 211.213 35.086 210.442 34.804C209.672 34.522 209.131 33.824 209.05 33.007C208.97 32.191 209.364 31.4 210.065 30.973Z" fill="#1D2D53"/>
<path d="M218.868 33.1551C220.955 32.9791 222.635 32.7121 224.183 34.2671L223.807 35.382C222.074 36.098 221.948 36.3391 220.109 35.9381C218.705 34.4381 219.15 35.3121 218.868 33.1551Z" fill="#1D3454"/>
<path d="M109.855 92.988C113.762 93.289 113.695 94.8991 116.68 95.4041C117.927 94.7301 119.361 93.771 120.787 94.066C123.581 94.643 125.264 98.999 124.786 101.557C121.298 105.563 115.734 101.507 112.866 102.618C111.103 104.577 110.404 106.715 109.352 109.155C105.529 106.92 103.452 105.585 100.085 109.351C100.303 111.039 100.403 111.24 100.162 112.967C98.4214 113.911 95.6993 113.454 93.1373 113.818C90.8763 115.682 90.9344 116.037 87.9984 115.664C86.3804 114.23 86.8654 115.067 86.2354 113.229C86.8184 111.047 89.0253 110.319 89.3523 109.629C91.8103 104.454 89.2034 106.144 93.6344 101.545L99.0374 101.878C100.927 100.548 100.217 98.328 101.646 97.314C105.478 94.596 105.917 97.423 109.855 92.988Z" fill="#1D7275"/>
<path d="M165.028 8.46094C172.56 16.8389 150.795 23.7149 147.156 29.4449C143.637 34.9869 142.219 38.7829 139.63 44.7589C139.308 45.5019 135.001 45.7019 134.069 46.1429C130.877 46.3699 124.022 55.9829 122.281 58.7349C122.439 61.7999 122.692 61.6309 120.242 63.4449C119.374 60.3889 118.619 59.0439 117.207 56.2659C118.049 54.9339 119.349 52.7059 120.32 51.5129C122.472 48.8699 122.698 51.4019 124.27 49.9169C130.286 44.2359 129.228 43.1079 137.423 42.5259C141.264 27.7019 147.976 24.1559 160.221 16.9579C163.758 14.8789 164.386 12.2969 165.028 8.46094Z" fill="#1D7275"/>
<path d="M262.01 215.567C263.982 218.295 264.801 219.375 267.821 220.88L269.417 221.174L269.988 221.134C272.673 220.672 273.078 220.601 275.446 219.285C283.151 235.79 298.686 241.922 314.868 232.052C313.802 235.032 312.913 237.776 311.419 240.573C309.576 243.966 308.234 246.274 306.089 249.469L302.251 254.185L300.542 256.049L297.872 258.865L296.665 259.792C286.206 269.809 273.109 275.245 258.808 276.811L253.238 277.047C246.202 276.988 241.339 276.047 234.499 274.567L228.999 272.949C228.732 265.286 228.92 265.039 231.726 257.729C232.556 256.771 234.311 255.397 235.352 254.524L241.649 248.32L245.496 244.043C253.8 233.002 256.461 227.894 262.01 215.567Z" fill="#1D2D53"/>
<path d="M241.649 248.32C256.123 250.613 263.622 265.41 253.238 277.047C246.202 276.988 241.339 276.047 234.499 274.567L228.999 272.949C228.732 265.286 228.92 265.039 231.726 257.729C232.556 256.771 234.311 255.397 235.352 254.524L241.649 248.32Z" fill="#1D2D53"/>
<path d="M235.352 254.524C240.984 253.675 243.253 253.169 248.303 256.322C259.242 263.153 248.04 280.074 238.79 271.528C235.826 268.789 236.406 262.082 242.312 263.268C243.707 265.577 240.799 269.454 243.048 269.813C246.165 270.311 249.253 267.739 248.763 264.397C247.828 258.01 238.154 254.87 234.932 261.663C232.832 266.091 232.593 268.266 233.94 272.769C234.12 273.371 234.307 273.97 234.499 274.567L228.999 272.949C228.732 265.286 228.92 265.039 231.726 257.729C232.556 256.771 234.311 255.397 235.352 254.524Z" fill="#1D7275"/>
<path d="M275.446 219.285C283.151 235.79 298.686 241.922 314.868 232.052C313.802 235.032 312.913 237.776 311.419 240.573C307.885 238.63 304.017 241.506 301.118 243.476L295.563 240.634L290.093 241.769L289.578 241.303C289.552 241.279 288.796 240.627 288.773 240.594C285.256 236.641 282.928 238.878 279.77 234.456C274.787 227.479 273.346 229.877 269.988 221.134C272.673 220.672 273.078 220.601 275.446 219.285Z" fill="#1D7275"/>
<path d="M241.649 248.32L245.496 244.043C259.966 249.737 267.48 262.157 258.808 276.811L253.238 277.047C263.622 265.41 256.123 250.613 241.649 248.32Z" fill="#1D7275"/>
<path d="M274.984 241.147C279.905 241.983 279.956 243.498 282.411 247.676C284.658 247.436 287.043 247.136 289.281 246.959C291.487 248.823 293.872 251.302 296.48 252.067C297.125 251.903 297.949 251.724 298.562 251.512C299.489 252.363 299.28 252.21 299.767 253.283C301.127 254.087 300.643 253.844 302.252 254.185L300.543 256.049C296.282 254.262 295.764 257.35 292.326 256.481C291.216 255.015 291.756 253.715 291.961 251.489C288.843 245.514 284.009 254.02 277.916 250.73C276.707 248.048 278.077 247.82 277.331 244.145C275.95 242.481 276.818 243.095 274.434 242.552L274.984 241.147Z" fill="#1D7275"/>
<path d="M267.821 220.88L269.417 221.174C270.661 228.163 274.68 234.351 280.56 238.328C280.45 238.253 290.255 243.609 289.879 243.453L288.415 244.386C286.787 244.932 286.748 245.031 284.969 245.002C283.198 244.24 282.415 242.522 281.347 240.845C278.185 239.962 277.609 239.728 274.675 238.235C273.575 235.975 272.705 233.634 271.782 231.293L267.392 228.765C267.351 225.473 267.345 224.174 267.821 220.88Z" fill="#1D7275"/>
<path d="M284.367 254.411C281.236 255.268 278.754 256.219 275.729 254.728C273.492 252.221 275.73 249.493 272.167 247.084C270.5 246.886 269.288 246.935 267.947 245.971C266.487 243.245 265.59 241.455 265.874 238.371C266.681 237.005 266.127 237.331 267.323 236.952C269.338 239.469 267.079 242.414 270.569 244.992C279.159 245.635 274.334 249.973 277.308 253.414C279.653 254.25 282.968 253.061 285.303 252.331C285.827 253.651 286.738 256.542 287.319 257.61C289.421 261.477 294.098 257.153 297.873 258.865L296.666 259.792C289.374 259.664 288.576 265.632 284.367 254.411Z" fill="#1D7275"/>
<path d="M268.686 234.577C265.195 232.114 261.878 229.744 264.889 225.001L265.67 224.877L265.692 229.481C266.737 231.113 268.871 232.144 270.586 233.194C271.481 236.809 271.38 239.72 274.983 241.147L274.433 242.552C272.515 243.31 272.147 243.076 270.637 242.032C269.379 239.883 269.131 237.102 268.686 234.577Z" fill="#197871"/>
<path d="M289.879 243.453C291.381 243.952 291.424 244.017 292.986 243.967C296.359 243.859 299.514 245.17 302.561 246.466C300.396 247.311 298.239 248.181 296.093 249.074C293.822 247.7 290.367 244.788 288.415 244.386L289.879 243.453Z" fill="#1D676E"/>
<path d="M298.562 251.512L298.817 251.077C301.618 249.405 302.878 249.059 306.09 249.469L302.252 254.185C300.643 253.844 301.127 254.087 299.767 253.283C299.28 252.21 299.489 252.363 298.562 251.512Z" fill="#1D676E"/>
<path d="M183.495 68.238L184.378 68.144C191.331 83.472 194.803 90.743 206.712 103.644L208.807 105.876C211.27 108.216 213.817 110.716 216.388 112.911C219.528 115.717 222.243 117.856 225.589 120.43L227.578 121.62L229.513 123.223L232.555 125.195L235.089 126.913C238.641 129.283 244.841 132.969 248.77 134.879L250.6 135.917C251.027 136.146 252.64 136.97 252.935 137.193L254.325 137.624C255.416 138.109 256.797 138.846 257.911 139.021C260.612 140.315 262.942 141.516 265.798 142.455C266.924 145.165 267.143 148.102 267.518 151.018C264.239 150.167 259.901 148.352 256.677 147.058C232.048 137.173 206.722 119.075 193.017 96.033C189.481 90.086 186.396 83.1551 183.664 76.7791C160.662 106.62 131.797 120.059 96.3329 129.107C84.7149 132.071 73.9559 134.529 63.8489 141.309C56.4529 146.271 54.2429 155.086 49.8359 159.293C51.5579 125.902 89.9439 122.932 114.752 114.617C127.176 110.515 139.035 104.869 150.05 97.8101L152.896 95.994C161.776 90.827 169.651 83.496 176.669 76.061L177.819 74.715C180.088 72.363 181.472 70.8 183.495 68.238Z" fill="#F6A575"/>
<path d="M303.913 168.775L306.79 174.767C313.812 187.609 318.81 201.322 317.842 216.204C317.465 219.861 317.037 225.073 315.781 228.519L314.868 232.052C298.686 241.922 283.151 235.79 275.446 219.285L277.73 216.88L278.801 214.985L279.026 213.998C281.186 212.853 283.352 211.185 285.361 209.749C287.834 207.257 288.396 206.448 290.329 203.587C290.718 202.799 291.097 202.007 291.467 201.211C295.923 191.593 296.181 183.746 292.578 173.851C293.852 173.415 294.934 173.232 296.247 172.951C296.245 172.164 296.051 170.665 295.971 169.822C299.203 168.73 300.602 168.686 303.913 168.775Z" fill="#1D2D53"/>
<path d="M278.801 214.985C281.467 221.873 285.629 228.154 292.67 231.241C297.187 233.239 302.32 233.328 306.904 231.489C314.298 228.449 317.945 221.208 313.704 213.923C311.538 210.203 308.283 207.928 303.948 210.195C301.796 211.321 299.931 213.676 300.842 216.201C302.933 217.229 303.021 216.87 305.12 215.877L305.884 216.351C305.708 218.24 306.017 217.381 304.795 218.968C303.393 219.563 303.433 219.755 301.782 219.387C298.049 218.554 297.833 213.843 299.351 211.085C302.931 204.583 314.537 208.612 316.155 214.89C316.332 215.55 316.82 216.076 317.256 216.542L317.842 216.204C317.465 219.861 317.037 225.073 315.781 228.519L314.868 232.052C298.686 241.922 283.151 235.79 275.446 219.285L277.73 216.88L278.801 214.985Z" fill="#1D7275"/>
<path d="M277.73 216.88C281.983 229.697 292.752 237.857 306.832 233.824C308.823 233.253 314.24 229.876 315.224 228.041L315.781 228.519L314.868 232.052C298.686 241.922 283.151 235.79 275.446 219.285L277.73 216.88Z" fill="#1D2D53"/>
<path d="M303.913 168.775L306.79 174.767C302.717 172.553 300.678 171.746 296.247 172.951C296.245 172.164 296.051 170.665 295.971 169.822C299.203 168.73 300.602 168.686 303.913 168.775Z" fill="#1D7275"/>
<path d="M285.361 209.749C287.834 207.257 288.396 206.448 290.329 203.587C292.123 204.681 292.411 204.714 293.294 206.511C293.387 211.242 288.694 211.156 285.361 209.749Z" fill="#1D7275"/>
<path d="M309.472 192.291C310.825 192.026 312.151 192.858 312.5 194.192C312.85 195.526 312.102 196.902 310.793 197.334C309.87 197.639 308.854 197.406 308.155 196.729C307.457 196.052 307.193 195.044 307.469 194.112C307.746 193.179 308.517 192.478 309.472 192.291Z" fill="#1D7275"/>
<path d="M300.96 196.869C301.775 196.62 302.662 196.831 303.278 197.42C303.894 198.009 304.145 198.885 303.933 199.711C303.721 200.537 303.08 201.184 302.256 201.404C301.013 201.735 299.734 201.01 299.38 199.773C299.027 198.536 299.729 197.245 300.96 196.869Z" fill="#1D7275"/>
<path d="M34.0215 269.42C36.0845 258.324 43.0735 248.58 51.5415 241.393C54.5455 238.844 60.9085 233.844 64.9595 234.13L65.0955 234.368L67.9055 238.159C78.4275 251.517 86.9775 258.63 101.626 267.476C96.0945 269.841 91.7445 271.774 85.9305 273.454L83.8215 274.022C78.3605 275.456 74.0885 276.291 68.4355 276.8L65.7555 276.692C57.6175 276.922 53.6225 276.159 45.7415 274.243L44.1415 273.709C41.9625 272.914 39.7535 272.021 37.5875 271.177C36.9975 270.899 36.0055 270.261 35.4065 269.903L34.0215 269.42Z" fill="#1D2D53"/>
<path d="M34.0215 269.42C36.0845 258.324 43.0735 248.58 51.5415 241.393C54.5455 238.844 60.9085 233.844 64.9595 234.13L65.0955 234.368L67.9055 238.159C78.4275 251.517 86.9775 258.63 101.626 267.476C96.0945 269.841 91.7445 271.774 85.9305 273.454L83.8215 274.022C84.2345 267.705 83.9135 262.234 80.0345 256.844C76.8655 252.506 72.0925 249.616 66.7795 248.818C52.0225 246.489 39.7765 256.712 37.5875 271.177C36.9975 270.899 36.0055 270.261 35.4065 269.903L34.0215 269.42Z" fill="#1D2D53"/>
<path d="M35.4062 269.903C36.4483 267.543 36.9143 264.97 37.8563 262.543C43.0103 249.453 59.7183 242.798 72.7023 248.089C79.2183 250.745 81.4783 254.465 84.4743 260.379C86.8233 265.018 84.9933 270.063 85.9303 273.454L83.8213 274.022C84.2343 267.705 83.9133 262.234 80.0343 256.844C76.8653 252.506 72.0923 249.616 66.7793 248.818C52.0223 246.489 39.7762 256.712 37.5872 271.177C36.9972 270.899 36.0052 270.261 35.4062 269.903Z" fill="#1D7275"/>
<path d="M65.0955 234.368L67.9055 238.159C65.7755 238.208 62.9565 238.583 61.4385 236.976C62.3545 235.327 63.0435 235.435 65.0955 234.368Z" fill="#1D7275"/>
<path d="M45.7412 274.243C50.0352 249.736 81.0992 265.689 65.7552 276.692C57.6172 276.922 53.6222 276.159 45.7412 274.243Z" fill="#1D2D53"/>
<path d="M44.1416 273.709C49.1196 247.011 81.7436 263.09 68.4356 276.8L65.7556 276.692C81.0996 265.689 50.0356 249.736 45.7416 274.243L44.1416 273.709Z" fill="#1D7275"/>
<path d="M280.305 178.353C281.479 174.547 282.579 165.624 283.679 163.383L284.956 163.159C286.179 165.009 286.5 165.378 288.058 166.978L289.268 168.201C290.328 169.943 291.698 172.057 292.578 173.851C296.181 183.746 295.923 191.593 291.467 201.211C291.097 202.007 290.718 202.799 290.329 203.587C288.396 206.448 287.834 207.257 285.361 209.749C283.352 211.185 281.186 212.853 279.026 213.998L278.801 214.985L277.73 216.88L275.446 219.285C273.078 220.601 272.673 220.672 269.988 221.134L269.417 221.174L267.821 220.88C264.801 219.375 263.982 218.295 262.01 215.567C263.057 212.38 264.004 209.424 264.903 206.191L270.021 204.028L270.286 203.589C274.274 196.462 278.295 186.22 280.305 178.353Z" fill="#F9C190"/>
<path d="M270.021 204.028C276.379 206.259 277.572 207.261 279.026 213.998L278.801 214.985L277.73 216.88L275.446 219.285C273.078 220.601 272.673 220.672 269.988 221.134L269.417 221.174L267.821 220.88C264.801 219.375 263.982 218.295 262.01 215.567C263.057 212.38 264.004 209.424 264.903 206.191L270.021 204.028Z" fill="#F3C01D"/>
<path d="M280.305 178.353C286.464 184.339 284.984 193.436 279.231 199.234C276.404 202.083 274.06 202.61 270.286 203.589C274.274 196.462 278.295 186.22 280.305 178.353Z" fill="#F6A575"/>
<path d="M265.798 142.455C275.542 141.447 288.394 154.885 284.956 163.159L283.679 163.383C282.579 165.624 281.479 174.547 280.305 178.353C278.295 186.22 274.274 196.462 270.286 203.589L270.021 204.028L264.903 206.191C269.813 184.82 269.919 172.555 267.518 151.018C267.143 148.102 266.924 145.165 265.798 142.455Z" fill="#1D2D53"/>
<path d="M224.037 263.055C226.513 261.27 229.203 259.475 231.726 257.729C228.92 265.039 228.732 265.286 228.999 272.949L224.093 271.092C223.575 267.992 223.523 266.118 224.037 263.055Z" fill="#1D2D53"/>
<path d="M216.349 267.572C218.886 266.023 221.45 264.517 224.038 263.055C223.524 266.118 223.576 267.992 224.094 271.092C221.185 269.946 219.136 268.956 216.349 267.572Z" fill="#197871"/>
<path d="M190.558 178.539C197.007 158.408 233.152 158.732 248.253 169.229C245.825 171.51 244.908 172.443 242.073 174.22C238.946 182.585 236.84 188.708 227.965 192.759C220.829 195.948 212.699 196.079 205.465 193.121C200.111 190.946 191.824 184.34 190.558 178.539Z" fill="#40210E"/>
<path d="M195.244 174.842C198.273 182.606 203.198 189.027 212.225 189.535C217.095 189.81 221.87 188.101 225.46 184.798C230.406 180.245 231.376 175.33 231.549 169.07C235.614 170.543 238.595 171.632 242.073 174.22C238.946 182.585 236.84 188.708 227.965 192.759C220.829 195.948 212.699 196.079 205.465 193.121C200.111 190.946 191.824 184.34 190.558 178.539L195.244 174.842Z" fill="white"/>
<path d="M205.364 169.639C207.006 169.715 207.376 169.654 208.78 170.613C209.047 171.453 209.296 171.748 209.039 172.639C208.367 174.969 207.064 175.61 205.026 176.624C204.129 176.222 202.787 175.653 202.082 174.956C201.08 173.967 201.166 173.624 201.273 172.341C202.192 170.841 203.828 170.345 205.364 169.639Z" fill="white"/>
<path d="M68.9609 169.414C79.8239 162.411 93.0399 160.054 105.653 162.871C113.353 164.547 120.975 168.344 125.456 175.051C126.138 176.07 126.971 177.515 126.623 178.77C125.337 180.765 124.022 182.84 122.495 184.67C112.104 197.125 91.3329 199.676 80.9119 185.676C77.9469 181.694 77.0799 178.704 75.5939 174.058C73.2799 174.055 71.4859 171.962 69.8849 170.353C69.5749 170.042 69.2669 169.729 68.9609 169.414Z" fill="white"/>
<path d="M68.9609 169.414C79.8239 162.411 93.0399 160.054 105.653 162.871C113.353 164.547 120.975 168.344 125.456 175.051C126.138 176.07 126.971 177.515 126.623 178.77C124.989 177.385 123.292 175.719 121.716 174.24C120.984 173.047 121.029 173.135 119.815 172.417L118.462 172.531C115.225 176.698 113.623 183.632 107.08 184.511C101.81 185.218 93.5379 181.563 91.6209 176.381L91.9599 175.065C91.1449 172.041 89.5139 172.497 90.9719 168.255C88.2299 167.524 87.5559 168.156 84.8669 169.413C81.6419 170.674 78.2599 171.809 75.5939 174.058C73.2799 174.055 71.4859 171.962 69.8849 170.353C69.5749 170.042 69.2669 169.729 68.9609 169.414Z" fill="#40210E"/>
<path d="M90.9721 168.255C103.031 165.618 100.548 177.924 91.96 175.065C91.145 172.041 89.5141 172.497 90.9721 168.255Z" fill="white"/>
<path d="M84.8672 169.413C87.5562 168.156 88.2302 167.524 90.9722 168.255C89.5142 172.497 91.1452 172.041 91.9602 175.065L91.6212 176.381C93.5382 181.563 101.81 185.218 107.08 184.511C113.623 183.632 115.225 176.698 118.462 172.531L119.815 172.417C121.029 173.135 120.984 173.047 121.716 174.24C118.764 182.267 114.128 188.811 104.818 189.553C99.9802 189.907 95.2142 188.22 91.6762 184.9C87.2012 180.76 85.1352 175.401 84.8672 169.413Z" fill="#582D0F"/>
<path d="M219.913 145.855C228.007 144.912 235.629 146.889 242.596 150.923C224.671 148.677 220.061 150.749 203.369 157.645C202.406 158.1 197.419 160.291 196.667 160.77C190.125 165.942 181.232 160.217 186.063 154.26C189.101 150.512 215.483 146.273 219.913 145.855Z" fill="#40210E"/>
<path d="M88.2939 146.297C97.7849 144.77 110.821 148.199 120.129 150.266C124.145 151.158 133.368 153.117 132.33 158.737C129.876 163.061 126.044 163.085 121.863 161.462C101.76 152.392 95.895 148.543 74.127 150.909C79.683 148.127 82.1779 147.225 88.2939 146.297Z" fill="#40210E"/>
<path d="M153.235 227.814C163.796 227.051 175.272 228.221 184.792 233.197C187.06 234.383 190.483 235.795 191.284 238.336C191.048 238.768 190.646 239.568 190.311 239.907C189.813 240.41 189.032 240.8 188.324 240.711C184.864 240.28 180.525 237.57 177.171 236.286C173.866 235.021 170.589 234.308 167.107 233.727C160.548 232.937 154.255 232.912 147.77 234.293C143.605 235.18 131.961 240.691 129.071 239.827C128.242 239.579 128.486 239.626 128.029 238.792C128.171 237.851 128.365 237.183 128.946 236.43C132.818 231.411 147.122 228.685 153.235 227.814Z" fill="#F37F5B"/>
<path d="M158.993 196.619C160.282 196.948 161.498 197.242 162.54 198.115C164.96 200.144 168.691 204.996 168.638 208.2C168.615 209.58 168.246 210.576 167.169 211.485C165.095 213.238 161.878 212.596 159.368 212.453C157.689 212.547 155.278 212.942 153.643 212.495C152.426 212.163 151.399 211.49 150.791 210.353C150.007 208.89 150.311 207.194 150.861 205.715C152.185 202.156 155.633 198.254 158.993 196.619Z" fill="#F6A575"/>
<path d="M178.085 147.403L178.973 148.431C179.278 151.354 179.697 153.327 180.111 155.984C180.608 159.18 183.083 163.165 182.642 165.04C176.68 162.725 174.356 152.012 178.085 147.403Z" fill="#F6A575"/>
<path d="M138.959 147.605L140.431 148.446C143.31 154.121 140.115 160.524 135.864 164.503L134.564 164.505C134.02 163.531 134.744 162.649 135.617 161.369C138.987 156.433 137.627 153.216 138.959 147.605Z" fill="#F6A575"/>
<path d="M167.508 149.258C168.619 149.657 168.263 149.445 169.107 150.23C169.875 153.36 172.447 163.121 172.086 165.809C167.272 164.281 166.535 153.377 167.508 149.258Z" fill="#F6A575"/>
<path d="M148.535 150.42C151.577 154.028 148.316 163.186 145.241 166.385L144.481 165.39C144.734 162.48 147.3 153.067 148.535 150.42Z" fill="#F6A575"/>
</svg>
