<svg width="317" height="282" viewBox="0 0 317 282" fill="none" xmlns="http://www.w3.org/2000/svg">
<path d="M138.989 0.408997C141.168 0.135997 145.296 0.089 147.634 0C165.083 0.277 173.756 1.76902 188.928 10.645C207.499 6.35002 218.463 11.285 234.558 21.037C245.92 27.921 259.183 39.772 267.253 50.452C267.565 50.861 269.419 53.247 269.584 53.545C274.419 59.9 277.399 65.431 281.261 72.368C283.095 75.906 284.794 79.512 286.356 83.179C290.673 93.971 293.638 104.071 295.053 115.67L295.766 120.584L295.997 127.25L296.329 131.064L296.38 134.642L296.748 142.892C296.893 148.243 297.222 152.394 298.494 157.643C299.239 160.436 300.225 164.004 301.55 166.599L302.204 168.635C303.389 170.618 304.06 172.096 305.018 174.207C312.456 188.004 316.919 200.165 316.243 215.979C315.816 220.647 315.425 223.305 314.449 227.886L312.956 233.089C312.311 234.734 310.993 238.399 310.243 239.812C309.399 241.426 308.353 243.591 307.405 245.084L306.171 247.155L304.772 249.407C303.014 251.649 301.425 253.826 299.379 255.809L296.969 258.434C295.973 259.318 294.529 260.674 293.512 261.439C283.504 270.091 272.65 274.437 259.68 276.445C256.813 276.77 254.333 276.841 251.454 276.939C245.115 277.046 238.798 276.173 232.725 274.352C230.928 274.051 228.636 273.204 226.861 272.619L222.43 270.851C219.994 269.779 217.564 268.694 215.139 267.597C185.256 283.545 151.555 285.166 119.256 275.355C113.309 273.548 107.152 270.121 101.513 267.447C95.4812 270.371 91.5632 272.031 85.1522 273.995C86.5402 264.399 84.6512 257.663 77.6942 250.806L78.4272 250.515C74.2842 246.397 71.2982 242.864 67.6172 238.404L64.8821 234.499L64.7712 233.775C63.5892 232.202 61.6772 228.581 60.6352 226.736L59.5732 224.403L58.0771 221.223L56.0502 216.136C55.1582 212.755 53.9162 208.901 52.8712 205.53C52.2192 205.429 49.0452 204.355 48.2722 204.108L46.7772 204.404C39.5392 208.773 42.6561 208.615 38.8351 214.128C36.5351 212.712 35.1932 211.747 33.0752 210.137L32.2402 208.924C29.3912 206.141 26.8332 201.939 25.2422 198.307C24.4092 195.956 24.0122 193.586 23.5132 191.14L23.3502 190.225C23.2492 186.076 23.4032 183.601 23.8102 179.483L22.3152 176.787C17.7552 174.345 17.5582 179.753 11.2842 173.415L14.1321 167.717C17.3411 160.513 18.3081 155.519 19.3221 147.793C19.3371 146.089 19.5712 144.293 19.7512 142.586L19.8792 131.207L20.4102 124.563C20.6072 122.431 20.7952 120.427 21.0822 118.299C22.0442 109.762 23.8122 101.335 26.3632 93.132C28.0592 88.197 29.6022 84.368 31.6232 79.608L32.6002 77.1151L36.4592 69.949C42.5042 57.507 53.7112 44.357 63.6132 34.814L66.7682 31.95L71.3072 28.152L78.4542 22.686L80.7432 21.218L84.7802 18.435C86.4042 17.401 88.3832 16.334 90.0762 15.363L93.8832 13.28C98.5242 10.974 102.26 9.28401 107.167 7.68701C117.314 4.12601 124.706 2.175 135.319 0.710999L138.989 0.408997Z" fill="#F9C190"/>
<path d="M138.989 0.408997C141.168 0.135997 145.296 0.089 147.634 0C165.083 0.277 173.756 1.76902 188.928 10.645C207.499 6.35002 218.463 11.285 234.558 21.037C245.92 27.921 259.183 39.772 267.253 50.452C267.565 50.861 269.419 53.247 269.584 53.545C274.419 59.9 277.399 65.431 281.261 72.368C283.095 75.906 284.794 79.512 286.356 83.179C290.673 93.971 293.638 104.071 295.053 115.67L295.766 120.584L295.997 127.25L296.329 131.064L296.38 134.642L296.748 142.892C296.893 148.243 297.222 152.394 298.494 157.643C299.239 160.436 300.225 164.004 301.55 166.599L302.204 168.635C303.389 170.618 304.06 172.096 305.018 174.207L298.538 171.71C296.246 172.581 294.01 173.547 291.613 174.008C290.398 171.549 289.752 170.551 288.174 168.293L286.66 166.529L283.344 163.255L283.998 162.635C286.326 153.683 273.959 141.223 264.591 142.339C263.586 142.148 258.472 139.885 257.163 139.318L253.344 137.685L251.755 136.926L249.801 136.12L247.858 135.057C243.081 132.639 238.453 129.936 233.999 126.963L231.707 125.412C230.455 124.755 229.322 123.941 228.14 123.155L226.601 121.991L224.389 120.508C221.005 118.028 218.337 115.748 215.148 113.002C212.6 110.808 210.32 108.651 207.883 106.334L204.574 102.507C194.245 90.541 189.816 82.424 183.824 67.835L183.241 68.033L177.606 74.592L175.931 76.23C170.2 82.505 159.736 92.152 152.242 96.247C151.459 96.774 149.708 98.034 148.94 98.364C136.585 106.028 124.663 111.005 111.032 115.739C88.0072 123.735 52.9462 126.339 50.2242 157.301C47.9752 173.17 49.2632 189.981 52.8712 205.53C52.2192 205.429 49.0452 204.355 48.2722 204.108L46.7772 204.404C39.5392 208.773 42.6561 208.615 38.8351 214.128C36.5351 212.712 35.1932 211.747 33.0752 210.137L32.2402 208.924C29.3912 206.141 26.8332 201.939 25.2422 198.307C24.4092 195.956 24.0122 193.586 23.5132 191.14L23.3502 190.225C23.2492 186.076 23.4032 183.601 23.8102 179.483L22.3152 176.787C17.7552 174.345 17.5582 179.753 11.2842 173.415L14.1321 167.717C17.3411 160.513 18.3081 155.519 19.3221 147.793C19.3371 146.089 19.5712 144.293 19.7512 142.586L19.8792 131.207L20.4102 124.563C20.6072 122.431 20.7952 120.427 21.0822 118.299C22.0442 109.762 23.8122 101.335 26.3632 93.132C28.0592 88.197 29.6022 84.368 31.6232 79.608L32.6002 77.1151L36.4592 69.949C42.5042 57.507 53.7112 44.357 63.6132 34.814L66.7682 31.95L71.3072 28.152L78.4542 22.686L80.7432 21.218L84.7802 18.435C86.4042 17.401 88.3832 16.334 90.0762 15.363L93.8832 13.28C98.5242 10.974 102.26 9.28401 107.167 7.68701C117.314 4.12601 124.706 2.175 135.319 0.710999L138.989 0.408997Z" fill="#1D2D53"/>
<path d="M90.076 15.363C92.523 18.592 93.94 22.639 93.481 26.734C91.495 44.439 68.031 44.173 72.58 76.761C60.502 76.152 54.5551 80.224 53.8021 92.945C53.5241 97.642 56.9991 105.815 53.5421 109.638C47.7421 114.659 36.534 113.265 29.275 115.662C25.193 117.009 25.1591 117.687 21.8121 119.54C21.0511 118.939 21.321 119.335 21.082 118.299C22.044 109.762 23.812 101.335 26.363 93.132C28.059 88.197 29.602 84.368 31.623 79.608L32.6 77.1151L36.459 69.949C42.504 57.507 53.711 44.357 63.613 34.814L66.7681 31.95L71.3071 28.152L78.454 22.686L80.743 21.218L84.78 18.435C86.404 17.401 88.383 16.334 90.076 15.363Z" fill="#1D2D53"/>
<path d="M36.4593 69.9491C39.8903 70.4101 42.3593 70.6811 45.6923 71.6411C47.5323 74.8281 50.2483 77.9371 50.0363 81.3861C43.3743 89.1671 60.2383 92.0821 42.4163 99.2561C41.7103 101.952 41.1783 104.763 38.7923 106.396C35.9963 106.458 35.7283 104.672 34.5273 102.275C32.9313 101.604 31.2023 100.918 29.6393 100.202C28.7403 98.0101 27.6753 95.0111 26.3633 93.1321C28.0593 88.1971 29.6023 84.3681 31.6233 79.6081L32.6003 77.1151L36.4593 69.9491Z" fill="#1D7275"/>
<path d="M32.6 77.1151C34.538 78.2301 35.708 78.5961 36.691 80.4731L36.788 81.7251C34.698 82.6281 33.283 80.9381 31.623 79.6081L32.6 77.1151Z" fill="#1D2D53"/>
<path d="M36.1015 87.288C38.0155 88.214 39.0305 88.339 38.9105 90.553C37.6705 92.189 37.4535 92.565 36.6555 94.473L36.4675 94.934L36.2565 95.5049L35.4325 95.66C34.4735 93.547 35.5475 89.599 36.1015 87.288Z" fill="#1D2D53"/>
<path d="M42.6641 85.5431C47.2641 86.7041 47.1481 90.1531 45.6641 93.8011L44.3721 93.9271C43.7831 93.1821 42.9911 87.1811 42.6641 85.5431Z" fill="#1D2D53"/>
<path d="M40.0762 74.743C43.8132 76.036 44.7552 76.972 44.1362 80.959C43.2332 81.128 43.3402 81.067 42.4022 81.004C41.7782 80.14 40.7472 76.368 40.0762 74.743Z" fill="#1D2D53"/>
<path d="M80.7433 21.218L84.7803 18.4349C89.1813 25.8499 88.8753 34.823 80.5443 39.225C77.4853 40.852 73.8873 41.136 70.6103 40.009C67.5593 38.966 65.5723 37.291 63.6133 34.814L66.7683 31.95L71.3073 28.152L78.4543 22.686L80.7433 21.218Z" fill="#1D7275"/>
<path d="M80.7426 21.218C89.0516 27.994 75.7186 44.323 66.7676 31.95L71.3066 28.152L78.4536 22.686L80.7426 21.218Z" fill="#1D2D53"/>
<path d="M71.3066 28.152L78.4536 22.686C79.2936 28.831 77.1946 31.401 71.3066 28.152Z" fill="#197871"/>
<path d="M54.3317 51.816L56.2907 52.314C58.1437 53.818 58.7607 55.501 59.8727 57.644C60.7707 55.95 61.9427 53.024 63.3037 52.163L63.7167 52.445C64.6347 54.139 64.7697 56.372 65.0497 58.326C66.4147 59.225 69.9967 59.331 71.8177 59.51C70.1697 60.662 68.3567 61.796 66.6617 62.899C66.0267 65.383 67.8348 64.567 67.4448 67.077C65.9388 67.803 64.7977 67.583 63.1107 67.525C63.0037 69.101 63.1048 70.266 62.2678 71.574L61.3367 71.707C59.4287 70.846 60.1588 69.59 58.3228 68.181C56.7548 68.715 53.2857 70.243 51.8867 69.402C52.4517 67.589 54.5147 65.676 55.8707 64.194C54.2537 62.849 52.9707 62.567 52.3387 61.036C53.7187 60.132 54.8678 59.944 56.4528 59.515C56.4768 56.922 54.1787 55.804 54.3317 51.816Z" fill="#1D7275"/>
<path d="M90.076 15.363L93.883 13.28C99.674 24.386 97.892 30.548 91.092 40.53C97.457 38.237 108.851 35.918 112.171 29.435C113.971 25.921 112.813 21.924 108.533 20.828C106.584 21.787 103.08 24.104 101.49 24.226C100.043 20.337 107.419 16.335 112.313 19.247C114.066 20.288 115.31 22.008 115.751 23.998C119.411 40.381 88.95 39.207 81.369 50.457C73.317 62.405 74.194 66.6421 75.87 79.938C54.219 76.829 55.642 90.086 58.53 106.153C56.098 112.766 53.698 113.499 47.69 116.854C49.793 116.78 51.895 116.658 53.992 116.489C56.842 114.255 60.826 109.047 62.381 105.825C62.032 104.573 61.162 104.178 60.072 103.384C59.477 101.072 60.353 100.95 62.284 99.675C60.709 97.3661 58.732 99.1991 58.482 94.7531L59.14 93.849C60.301 94.007 60.254 93.944 61.214 94.593L62.112 93.809C62.01 93.645 61.908 93.4821 61.806 93.3181C58.171 89.3341 61.375 83.094 65.53 81.29C76.146 76.679 80.584 93.599 76.994 101.172C74.382 106.683 73.053 112.489 67.758 116.035C67.164 116.367 64.827 117.151 64.511 117.475C57.931 124.217 60.774 124.579 51.06 128.357C47.146 129.72 45.328 130.194 41.257 131.009C40.02 131.181 39.556 131.033 38.69 131.68C35.118 131.678 32.557 129.94 29.515 128.187C27.629 129.448 23.72 131.67 23.651 133.913C23.541 137.52 25.85 143.954 23.919 146.961C22.352 147.616 22.805 147.396 20.808 146.973C19.455 145.716 19.925 145.089 19.751 142.586L19.879 131.207L20.41 124.563C20.607 122.431 20.795 120.427 21.082 118.299C21.321 119.335 21.051 118.939 21.812 119.54C25.159 117.687 25.193 117.009 29.275 115.662C36.534 113.265 47.742 114.659 53.542 109.638C56.999 105.815 53.524 97.642 53.802 92.945C54.555 80.224 60.502 76.152 72.58 76.761C68.031 44.173 91.495 44.439 93.481 26.734C93.94 22.639 92.523 18.592 90.076 15.363Z" fill="#1D7275"/>
<path d="M62.112 93.809C62.01 93.645 61.908 93.4821 61.806 93.3181C58.171 89.3341 61.375 83.0941 65.53 81.2901C76.146 76.6791 80.584 93.599 76.994 101.172C74.382 106.683 73.053 112.489 67.758 116.035C67.164 116.367 64.827 117.151 64.511 117.475C57.931 124.217 60.774 124.579 51.06 128.357C47.146 129.72 45.328 130.194 41.257 131.009C40.02 131.181 39.556 131.033 38.69 131.68C35.118 131.678 32.557 129.94 29.515 128.187C27.629 129.448 23.72 131.67 23.651 133.913C23.541 137.52 25.85 143.954 23.919 146.961C22.352 147.616 22.805 147.396 20.808 146.973C19.455 145.716 19.925 145.089 19.751 142.586L19.879 131.207L20.41 124.563L21.331 123.686C28.845 117.67 39.163 117.4 48.465 116.474C45.746 117.795 43.532 118.464 41.678 120.718L41.997 121.166C44.685 120.795 46.238 119.563 48.585 118.149C50.861 118.122 53.447 118.244 55.75 118.298C59.05 115.991 60.346 112.482 62.084 111.802C62.967 112.811 62.989 112.906 64.089 113.638C67.122 111.816 66.893 107.773 68.413 104.894C69.015 103.754 70.097 103.797 71.524 103.412L71.773 102.525L70.111 100.944C70.645 96.118 80.713 95.319 70.597 85.888C68.729 85.63 69.235 85.7711 67.192 86.8521C72.835 92.3381 68.808 97.229 61.214 94.593L62.112 93.809Z" fill="#1D2D53"/>
<path d="M62.1119 93.809C62.0099 93.645 61.9079 93.4821 61.8059 93.3181C58.1709 89.3341 61.3749 83.0941 65.5299 81.2901C76.1459 76.6791 80.5839 93.599 76.9939 101.172C74.3819 106.683 73.0529 112.489 67.7579 116.035C67.1639 116.367 64.8269 117.151 64.5109 117.475C57.9309 124.217 60.7739 124.579 51.0599 128.357L50.127 126.857C57.79 123.724 57.9019 121.663 62.8409 115.888C63.4789 115.142 66.5339 114.922 67.5569 113.768C72.1899 108.544 76.7479 99.69 76.8759 92.64C76.8689 89.579 74.7199 86.9371 72.8419 84.7921C68.9049 80.2961 61.2209 84.2041 62.4479 89.7511C64.0149 90.9191 63.1259 90.518 65.3329 90.664C67.3569 91.351 66.7299 90.726 67.6419 92.187C66.3959 94.323 64.3679 94.392 62.1119 93.809Z" fill="#197871"/>
<path d="M21.3309 123.686C24.5139 123.482 25.3799 122.222 29.2219 122.047L28.5849 123.399C23.4359 123.841 23.065 125.398 22.502 129.81C21.286 130.723 21.3159 130.825 19.8789 131.207L20.4099 124.563L21.3309 123.686Z" fill="#1C5165"/>
<path d="M41.2568 131.009L40.4588 130.578L40.2998 129.913C41.8498 128.893 46.9448 127.96 49.5188 127.071L50.1268 126.857L51.0598 128.357C47.1458 129.72 45.3278 130.194 41.2568 131.009Z" fill="#197871"/>
<path d="M29.222 122.047C32.719 120.975 33.922 120.444 37.59 120.537L37.644 120.825C35.077 121.996 31.207 124.182 28.585 123.399L29.222 122.047Z" fill="#197871"/>
<path d="M136.561 55.996C146.464 47.91 147.707 42.428 155.148 32.758C157.41 29.819 164.176 24.883 167.072 21.883C169.737 19.122 170.517 17.4611 172.77 14.4561C168.977 27.8711 164.651 26.4951 155.958 35.9431C153.66 38.4401 150.419 45.665 148.133 48.561C146.589 51.132 139.568 56.565 138.596 58.758C136.938 64.204 138.307 65.179 132.079 66.825C129.668 67.462 131.918 71.604 127.306 73.527C125.561 73.097 124.553 71.858 123.189 70.604C116.368 76.12 121.159 75.896 118.304 81.481C116.408 85.19 110.03 82.109 107.32 82.744C105.431 84.631 106.744 89.097 103.584 88.485C96.9783 87.205 97.0023 88.932 92.2303 91.01L91.4083 90.534C91.1293 83.536 99.8203 85.444 101.59 80.351C103.575 78.969 104.512 80.098 107.624 79.1L107.593 78.511C102.981 77.366 102.345 76.106 101.1 71.618C100.513 71.96 99.9103 72.247 99.4243 72.683C99.3783 71.762 99.2043 70.855 99.0643 69.939C95.0793 70.793 92.8873 71.245 90.9503 75.474C89.4133 78.828 88.6533 82.602 87.3833 86.127L85.9433 86.541C84.5343 102.167 79.8673 113.675 67.5613 124.061C60.6483 129.896 47.2423 136.999 37.8203 136.483C35.5003 136.356 31.9393 134.358 28.7843 134.708C26.9873 136.899 28.1683 140.878 28.5913 143.619C27.7433 145.266 24.8913 152.549 23.7743 153.135C21.5193 150.955 21.3593 149.747 19.3223 147.793C19.3373 146.089 19.5713 144.293 19.7513 142.586C19.9253 145.089 19.4553 145.716 20.8083 146.973C22.8053 147.396 22.3523 147.616 23.9193 146.961C25.8503 143.954 23.5413 137.52 23.6513 133.913C23.7203 131.67 27.6293 129.448 29.5153 128.187C32.5573 129.94 35.1183 131.678 38.6903 131.68C44.9083 133.44 57.2023 126.789 62.3573 123.432C79.2633 112.421 80.3903 95.995 84.0463 78.108C84.6903 74.956 90.4743 66.912 88.8323 64.739C85.9533 65.111 84.3723 67.9 81.7413 68.122C79.7233 64.849 79.5603 54.0351 85.7553 53.2531C87.0243 54.0141 87.1943 54.241 88.6723 54.466C90.3423 53.59 91.1813 52.779 92.9133 53.664C93.9053 57.209 90.6993 59.8131 90.1833 65.5681L90.1173 66.368C94.1083 61.326 100.252 55.61 106.965 56.145C118.616 57.073 118.082 65.463 117.579 73.57C119.175 69.949 127.11 55.906 129.621 53.454C132.42 54.299 133.84 54.742 136.561 55.996Z" fill="#1D7275"/>
<path d="M85.9434 86.5411C94.7704 42.4171 124.537 63.1891 113.781 73.9071C112.394 75.3121 110.479 76.0681 108.506 75.9891C102.859 75.8081 102.898 69.3601 106.185 67.3131C109.215 67.7541 107.996 68.7911 110.831 69.6571L111.525 68.7751C112.144 63.9501 108.331 63.0031 104.642 65.3191L102.103 66.9181L100.042 64.9311C98.6064 67.0651 99.4233 67.5721 99.0643 69.9391C95.0793 70.7931 92.8874 71.2451 90.9504 75.4741C89.4134 78.8281 88.6534 82.6021 87.3834 86.1271L85.9434 86.5411Z" fill="#1D2D53"/>
<path d="M99.0645 69.939C99.4235 67.572 98.6065 67.065 100.042 64.931C100.131 67.382 100.288 67.645 101.702 69.665C101.51 70.336 101.356 70.974 101.1 71.618C100.513 71.96 99.9105 72.247 99.4245 72.683C99.3785 71.762 99.2045 70.855 99.0645 69.939Z" fill="#1D676E"/>
<path d="M247.858 135.057C257.856 127.7 264.493 125.945 276.991 127.717C281.683 128.383 291.651 131.241 294.974 134.492L296.38 134.642L296.748 142.892C296.893 148.243 297.222 152.394 298.494 157.643C299.239 160.436 300.225 164.004 301.55 166.599L302.204 168.635C303.389 170.618 304.06 172.096 305.018 174.207L298.538 171.71C296.246 172.581 294.01 173.547 291.613 174.008C290.398 171.549 289.752 170.551 288.174 168.293L286.66 166.529L283.344 163.255L283.998 162.635C286.326 153.683 273.959 141.223 264.591 142.339C263.586 142.148 258.472 139.885 257.163 139.318L253.344 137.685L251.755 136.926L249.801 136.12L247.858 135.057Z" fill="#1D2D53"/>
<path d="M247.858 135.057C257.856 127.7 264.493 125.945 276.991 127.717C281.683 128.383 291.651 131.241 294.974 134.492L296.38 134.642L296.748 142.892C296.893 148.243 297.222 152.394 298.494 157.643L297.161 161.124C296.14 155.472 293.763 156.069 292.975 152.637C296.092 143.029 284.991 140.299 279.647 136.657C277.524 132.562 273.603 133.844 271.282 131.144C270.032 129.69 272.597 131.645 271.22 129.142C267.399 127.933 264.424 128.94 260.492 129.75L261.097 131.08C260.946 132.094 261.079 132.863 260.465 133.149C256.234 135.122 255.699 133.895 251.755 136.926L249.801 136.12L247.858 135.057Z" fill="#1D7275"/>
<path d="M260.492 129.75L261.097 131.08C260.946 132.094 261.079 132.863 260.465 133.149C256.234 135.122 255.699 133.895 251.755 136.926L249.801 136.12C252.437 133.414 257.081 131.327 260.492 129.75Z" fill="#1D2D53"/>
<path d="M292.516 136.732C293.325 134.783 293.152 135.104 294.974 134.492L296.38 134.642L296.748 142.892L295.112 142.039C294.258 140.532 293.889 139.539 292.446 138.587L292.516 136.732Z" fill="#197871"/>
<path d="M292.446 138.587C290.773 139.265 290.492 139.379 289.166 138.415L289.172 137.275C290.241 135.374 289.527 136.075 291.29 134.988L292.138 135.241L292.516 136.732L292.446 138.587Z" fill="#1D3454"/>
<path d="M257.163 139.318C261.747 136.301 271.703 139.969 276.1 142.809C285.3 148.75 287.41 156.186 286.66 166.529L283.344 163.255L283.998 162.635C286.326 153.683 273.959 141.223 264.591 142.339C263.586 142.148 258.472 139.885 257.163 139.318Z" fill="#1D7275"/>
<path d="M288.174 168.293C290.151 163.478 287.734 155.438 289.748 154.19C291.95 155.137 292.844 157.566 293.829 159.509C295.464 162.731 292.323 166.62 293.629 169.339C295.232 170.013 300.462 169.185 302.204 168.635C303.389 170.618 304.06 172.096 305.018 174.207L298.538 171.71C296.246 172.581 294.01 173.547 291.613 174.008C290.398 171.549 289.752 170.551 288.174 168.293Z" fill="#1D7275"/>
<path d="M261.097 131.08C266.401 130.914 276.019 133.509 278.972 138.433C277.534 141.426 277.845 141.106 274.892 139.94C267.346 136.96 261.265 134.772 253.344 137.685L251.755 136.926C255.699 133.895 256.234 135.122 260.465 133.149C261.079 132.863 260.946 132.094 261.097 131.08Z" fill="#1D7275"/>
<path d="M298.494 157.643C299.239 160.436 300.225 164.004 301.55 166.599C299.254 166.539 298.794 166.934 297.262 165.859C296.927 164.036 297.068 162.949 297.161 161.124L298.494 157.643Z" fill="#1D7275"/>
<path d="M279.101 140.712C286.932 140.097 291.741 145.579 289.034 153.158L288.288 153.049C287.263 152.078 279.67 142.132 279.101 140.712Z" fill="#1D7275"/>
<path d="M267.253 50.452C267.565 50.861 269.419 53.247 269.584 53.545C274.419 59.9 277.399 65.431 281.261 72.368C283.095 75.906 284.794 79.512 286.356 83.179C283.047 87.187 279.073 87.954 278.21 91.248C279.691 94.957 282.686 93.923 286.03 96.699L285.979 97.656C284.295 99.297 281.267 100.851 279.152 102.078C279.686 105.707 280.337 108.099 278.164 111.346L277.374 111.199C276.445 109.261 276.849 107.202 276.98 104.966C273.686 104.204 269.043 103.846 268.435 100.006C269.097 98.6 269.69 97.732 269.61 96.194C266.419 92.196 261.433 97.494 263.024 86.673C260.833 83.985 258.98 86.931 257.213 81.4C257.328 79.467 257.834 78.979 258.896 77.234L259.27 76.6281C258.018 73.7651 254.442 74.088 254.28 70.508C254.07 65.842 257.488 65.205 260.786 63.303C261.543 62.866 262.883 56.196 263.485 55.158C264.355 53.464 265.888 51.919 267.253 50.452Z" fill="#1D7275"/>
<path d="M269.584 53.545C274.419 59.9 277.399 65.431 281.261 72.368C279.82 74.318 278.873 75.099 277.351 77.437C277.802 81.003 286.969 80.244 277.054 88.778C276.93 86.814 276.593 81.811 276.003 80.316C271.304 68.401 267.834 67.541 269.584 53.545Z" fill="#1D2D53"/>
<path d="M262.05 75.54C262.419 74.822 262.836 73.493 263.122 72.686C264.051 82.746 265.776 77.359 269.938 81.458C269.659 84.286 267.599 84.341 269.053 86.312C270.368 88.094 272.784 88.529 273.735 90.397C272.179 92.03 270.273 90.903 268.908 89.543C267.121 87.76 266.952 85.672 266.74 83.249C264.236 80.829 262.11 79.309 262.05 75.54Z" fill="#1D3454"/>
<path d="M277.035 94.8451C278.825 95.1461 280.354 95.2101 281.538 96.5221C281.526 98.3441 281.447 97.8501 280.087 99.6581C277.997 100.514 278.501 100.707 276.937 100.101C276.226 98.5001 276.755 96.6501 277.035 94.8451Z" fill="#1D2D53"/>
<path d="M262.05 75.5401C261.808 72.7631 260.495 72.4491 260.34 69.6231C261.159 68.2101 260.592 68.7191 262.13 68.0751C264.004 68.5441 263.288 68.0461 264.394 69.5561C264.426 71.4591 264.465 70.8141 263.122 72.6861C262.836 73.4931 262.419 74.8221 262.05 75.5401Z" fill="#1D2D53"/>
<path d="M34.3963 162.935C35.2643 167.784 36.3093 174.166 37.6783 178.783C40.3563 187.891 43.4023 195.87 48.2723 204.108L46.7773 204.404C39.5393 208.773 42.6563 208.615 38.8353 214.128C36.5353 212.712 35.1934 211.747 33.0754 210.137L32.2403 208.924C29.3913 206.141 26.8334 201.939 25.2424 198.307C24.4094 195.956 24.0124 193.586 23.5134 191.14L23.3503 190.225C23.2493 186.076 23.4034 183.601 23.8104 179.483C26.1924 171.227 28.2903 168.66 34.3963 162.935Z" fill="#F9C190"/>
<path d="M37.6783 178.783C40.3563 187.891 43.4022 195.87 48.2722 204.108L46.7773 204.404C35.5363 200.286 29.4953 188.807 37.6783 178.783Z" fill="#F6A575"/>
<path d="M249.219 111.534C249.736 110.723 249.931 110.463 250.558 109.733L251.266 110.485L251.493 110.186C262.046 121.504 269.481 120.607 284.498 123.442C289.958 121.13 291.114 120.253 295.053 115.67L295.766 120.584L295.997 127.25L296.329 131.064L296.38 134.642L294.974 134.492C291.651 131.241 281.683 128.383 276.991 127.717C264.493 125.945 257.856 127.7 247.858 135.057C243.081 132.639 238.453 129.936 233.999 126.963C240.4 123.377 245.292 117.591 249.219 111.534Z" fill="#1D2D53"/>
<path d="M249.219 111.534C249.736 110.723 249.931 110.463 250.558 109.733L251.266 110.485L251.493 110.186C262.046 121.504 269.481 120.607 284.498 123.442C289.958 121.13 291.114 120.253 295.053 115.67L295.766 120.584L295.997 127.25L296.329 131.064C285.851 126.241 282.194 125.397 270.815 123.611C262.063 122.238 254.452 119.134 249.219 111.534Z" fill="#1D7275"/>
<path d="M288.649 125.101L295.766 120.584L295.997 127.25C294.422 127.51 290.4 125.746 288.649 125.101Z" fill="#1D2D53"/>
<path d="M248.481 124.929C249.075 124.432 249.892 124.296 250.614 124.576C251.336 124.856 251.849 125.506 251.952 126.274C252.056 127.042 251.733 127.805 251.111 128.265C250.188 128.949 248.889 128.775 248.178 127.873C247.467 126.971 247.601 125.667 248.481 124.929Z" fill="#197871"/>
<path d="M233.5 60.955C235.25 57.411 238.451 52.346 237.119 48.425C236.384 46.263 234.284 44.842 233.297 42.962L234.045 42.558C238.299 43.939 241.437 50.7759 239.48 54.8929C238.521 56.9089 237.196 58.943 236.031 60.866C238.345 70.708 249.562 93.4419 230.975 97.4109C221.294 99.479 216.184 100.415 207.883 106.334L204.574 102.507C206.898 101.802 207.715 101.966 209.192 100.348C209.649 95.981 208.329 92.2189 215.478 93.8199L217.407 94.249C218.953 92.837 221.569 89.735 223.067 89.352C225.646 89.76 227.906 93.421 229.109 95.562C246.906 90.006 235.851 73.321 233.5 60.955Z" fill="#1D7275"/>
<path d="M175.931 76.23C174.287 73.268 173.056 70.573 171.641 67.501C170.728 68.797 170.586 69.1009 169.389 70.1849C167.511 70.4289 168.278 70.669 166.922 69.811C175.14 56.349 166.563 59.4769 168.975 47.0569C169.852 42.5459 180.743 39.8929 181.882 34.7079C182.857 30.2649 181.302 29.309 179.897 25.809L180.968 25.662C184.912 27.612 184.543 32.171 183.896 36.054C183.332 39.438 179.058 42.175 176.256 43.83L175.402 44.326L175.311 45.056C176.79 46.024 176.664 46.0109 178.422 46.0339C182.924 44.3869 183.436 38.291 185.995 37.727C187.32 42.452 180.171 46.551 177.563 50.304C174.273 55.037 174.592 62.5529 173.94 68.4999C175.151 70.9929 175.715 72.541 177.606 74.592L175.931 76.23Z" fill="#1D7275"/>
<path d="M173.493 45.364C177.128 47.787 173.922 52.4761 173.107 56.8391C169.585 53.635 171.284 48.721 173.493 45.364Z" fill="#1D2D53"/>
<path d="M245.19 90.332L246.919 90.424C246.982 93.881 247.658 93.899 244.745 95.688C242.992 98.402 243.397 103.436 241.757 105.007C239.731 106.949 234.097 105.934 236.87 111.184C235.959 113.038 235.138 112.824 233.171 112.905C232.878 114.184 232.999 114.882 233.061 116.195C232.182 117.707 232.784 117.218 231.358 117.887C229.914 117.422 229.348 116.429 228.356 115.231L227.585 115.45C226.54 117.68 226.211 118.802 224.389 120.508C221.005 118.028 218.337 115.748 215.148 113.002C217.953 111.287 218.341 111.757 221.701 112.215L222.151 111.578C221.841 109.797 221.747 109.476 221.891 107.605C224.408 104.655 224.996 108.253 228.18 107.849C228.899 106.234 229.048 105.789 230.151 104.337C233.568 104.148 230.056 105.106 233.334 106.156C235.04 105.22 234.342 102.671 235.83 99.486C237.132 98.467 236.418 98.668 238.03 98.821L238.338 99.396C237.303 100.133 236.509 100.56 235.832 101.634L236.29 102.399L237.488 102.62C240.432 101.492 242.482 93.78 245.19 90.332Z" fill="#1D7275"/>
<path d="M231.707 125.412C233.062 124.156 235.067 122.696 236.517 121.522C248.758 111.614 253.114 98.055 250.972 82.677C249.872 74.785 249.755 65.963 246.754 58.384C246.462 57.647 242.942 54.867 242.129 54.205L242.369 53.648C255.183 53.053 252.697 85.78 254.2 94.583C254.739 97.742 250.298 106.243 251.493 110.186L251.266 110.485L250.558 109.733C249.931 110.463 249.736 110.723 249.219 111.534C245.292 117.591 240.4 123.377 233.999 126.963L231.707 125.412Z" fill="#1D7275"/>
<path d="M148.94 98.364C142.731 93.914 138.434 89.724 137.944 81.662C137.376 72.314 148.465 64.233 156.111 71.036C158.797 73.425 160.103 80.034 156.747 82.567C154.012 84.483 151.978 83.789 150.163 81.447C149.803 79.434 149.524 80.179 150.399 78.903C151.814 78.907 153.006 79.81 154.295 80.54C159.915 76.414 151.486 68.299 146.396 71.593C135.579 78.593 140.541 91.773 151.646 96.026L152.242 96.247C151.459 96.774 149.708 98.034 148.94 98.364Z" fill="#1D7275"/>
<path d="M14.1321 167.717C24.5911 167.516 25.7622 167.169 32.8882 160.387C33.9062 160.901 33.8282 161.527 34.3962 162.935C28.2902 168.66 26.1922 171.227 23.8102 179.483L22.3152 176.787C17.7552 174.345 17.5582 179.753 11.2842 173.415L14.1321 167.717Z" fill="#1D7275"/>
<path d="M107.167 7.68707C117.314 4.12607 124.706 2.17506 135.319 0.71106C137.136 8.91606 134.273 12.2021 126.354 7.81207C124.939 9.44607 124.146 10.7231 122.147 11.4551C119.209 10.9651 119.428 8.71109 119.032 6.10309C114.85 7.10609 111.383 8.33507 107.167 7.68707Z" fill="#1D7275"/>
<path d="M188.54 44.815C187.586 38.32 185.794 32.31 189.733 26.974L190.437 26.884C191.568 30.232 188.885 31.687 189.205 33.821C190.038 39.37 193.718 45.9091 191.654 51.5811C190.531 54.6661 185.538 55.154 184.829 57.329C183.511 61.372 185.412 62.86 183.824 67.835L183.241 68.033C182.053 65.412 181.837 60.907 181.484 57.886C182.351 52.617 188.718 50.983 188.54 44.815Z" fill="#1D7275"/>
<path d="M87.3826 86.1271C88.6526 82.6021 89.4126 78.8281 90.9496 75.4741C92.8866 71.2451 95.0785 70.7931 99.0635 69.9391C99.2035 70.8551 99.3776 71.7621 99.4236 72.6831L98.7346 72.9341C94.4026 72.8521 93.4895 74.8021 92.6055 78.6851C91.6715 81.5921 90.1825 86.9801 87.6445 88.7621L87.1006 88.3501C87.1696 87.2611 87.1506 87.1941 87.3826 86.1271Z" fill="#1D7275"/>
<path d="M226.601 121.991C242.891 117.048 240.771 107.838 246.765 105.241C244.409 112.724 235.662 120.943 228.14 123.155L226.601 121.991Z" fill="#1D7275"/>
<path d="M138.989 0.408997C141.168 0.135997 145.296 0.089 147.634 0L148.152 0.770996C149.463 2.697 151.003 3.601 151.394 5.63L150.821 6.12C147.692 4.406 140.713 2.48 138.989 0.408997Z" fill="#1D7275"/>
<path d="M188.54 44.8151C188.718 50.9831 182.351 52.6171 181.484 57.8861C181.305 57.3291 180.889 57.0211 180.433 56.5151C181.7 52.5261 183.789 50.1071 184.738 46.1631L185.26 46.2981C186.854 45.2591 187.239 45.7291 188.54 44.8151Z" fill="#1D2D53"/>
<path d="M92.6055 78.685C93.4895 74.802 94.4025 72.852 98.7345 72.934C97.1165 73.765 96.3035 73.821 95.4895 75.127L95.8245 75.789C96.5685 77.284 97.2335 78.123 97.0425 79.719C95.7575 80.816 96.5105 80.414 94.5495 80.609C93.4165 79.802 93.4585 79.799 92.6055 78.685Z" fill="#1D7275"/>
<path d="M180.433 56.515L180.173 56.838L179.653 56.4999C179.385 52.3159 180.28 47.689 184.738 46.163C183.789 50.107 181.7 52.526 180.433 56.515Z" fill="#1D7275"/>
<path d="M245.19 90.3321C244.751 88.5301 244.493 88.0671 245.017 86.2681L245.926 85.5011C248.15 86.4391 247.569 88.4261 246.919 90.4241L245.19 90.3321Z" fill="#197871"/>
<path d="M213.326 22.2731C215.636 22.9511 215.087 22.4481 216.515 24.0351L216.575 24.8781C216.717 26.6851 216.719 27.1141 217.899 28.1261C220.145 26.9731 221.749 25.8251 223.577 27.8801C223.571 33.6081 226.808 31.4931 229.009 35.9991C228.188 39.1781 225.482 37.3951 222.821 39.5681C222.293 41.0111 222.236 41.4251 221.324 42.6771C219.766 42.6891 218.741 41.3701 217.176 40.1691L216.613 40.4701C216.405 42.0461 215.692 49.1491 215.325 50.0121C212.528 56.5071 208.242 61.7051 207.332 68.9101C206.053 79.0311 222.772 80.6551 221.793 70.3441C219.391 67.2491 217.8 69.7851 214.409 68.8541C215.205 66.0361 216.759 65.5851 219.324 65.2201L219.89 65.1441C229.438 70.5961 224.526 78.6151 215.236 80.8071C192.22 75.0101 213.513 55.2641 212.509 43.6311L212.023 43.4141C210.243 44.2281 209.073 45.1301 207.298 44.2661C205.916 41.0761 206.731 39.9491 207.93 36.7691C205.886 35.3251 204.928 34.9561 204.212 32.7031C204.625 31.3411 204.908 30.7821 205.649 29.5621C204.948 27.6271 203.855 27.9231 201.79 25.8341C202.086 19.4811 209.223 25.3001 210.969 25.5191C212.679 24.8631 212.269 24.6161 213.326 22.2731Z" fill="#1D7275"/>
<path d="M209.167 31.029C210.121 30.456 211.357 30.732 211.978 31.655C212.599 32.579 212.387 33.827 211.496 34.495C210.878 34.958 210.055 35.043 209.355 34.715C208.656 34.387 208.194 33.7 208.155 32.929C208.115 32.157 208.504 31.427 209.167 31.029Z" fill="#1D2D53"/>
<path d="M218.264 33.1151C220.166 33.2211 222.073 33.0001 222.987 34.7931L222.028 36.2341C220.238 36.5501 220.369 36.5551 218.694 35.8441C217.707 34.2151 217.888 35.0871 218.264 33.1151Z" fill="#1D2D53"/>
<path d="M109.678 93.0599C112.76 93.3519 113.268 94.031 115.819 95.295C117.308 95.031 119.955 93.614 121.378 93.941C124.195 94.588 124.411 99.64 123.636 102.108C120.183 105.559 116.845 101.491 112.684 102.686C110.876 104.296 109.817 107.017 108.702 109.272C104.829 106.951 103.637 105.512 99.7972 108.716C99.7332 110.154 99.6592 111.592 99.5752 113.029C97.7312 114.116 95.7562 113.236 93.8352 113.744C91.2772 114.42 89.7582 116.697 86.8372 115.775C85.0812 112.909 87.4702 110.557 89.8332 109.209C89.8282 108.779 89.8282 108.349 89.8342 107.919C89.9722 99.8119 94.6412 103.27 99.4282 101.494C100.15 101.32 101.229 97.542 101.667 97.259C105.696 94.646 105.675 96.8789 109.678 93.0599Z" fill="#1D7275"/>
<path d="M164.24 8.32202C164.821 8.76202 165.579 9.49101 165.659 10.265C166.615 19.519 153.706 22.315 148.307 27.767C146.367 29.726 145.345 30.172 143.667 33.032C141.746 36.307 141.089 41.753 139.111 44.876C139.13 44.845 134.584 45.919 134.131 46.078C133.758 46.209 131.264 46.871 130.957 47.22C128.234 50.316 124.279 55.303 122.074 58.601C122.264 59.721 122.308 60.2281 122.361 61.3651C120.868 63.2491 121.767 62.8261 119.82 63.1541C118.795 60.1001 118.475 59.399 116.936 56.554C117.772 55.099 119.05 52.638 120.014 51.298C121.484 49.254 122.482 51.077 124.016 49.6C129.523 44.3 128.764 43.002 136.68 42.478C139.317 33.235 143.017 26.937 151.453 21.853C158.496 17.609 163.39 17.039 164.24 8.32202Z" fill="#1D7275"/>
<path d="M105.8 9.24902C106.042 9.49102 105.891 9.26804 106.139 10.321C104.841 12.315 103.424 13.337 101.627 14.892C101.189 14.291 101.142 14.069 100.83 13.388C101.835 11.429 103.368 11.185 105.202 9.729L105.8 9.24902Z" fill="#197871"/>
<path d="M133.52 47.3001C134.353 47.0811 135.222 47.498 135.573 48.284C135.925 49.07 135.655 49.9951 134.936 50.4701C134.354 50.8531 133.6 50.857 133.014 50.479C132.428 50.102 132.121 49.4131 132.23 48.7251C132.34 48.0371 132.846 47.4781 133.52 47.3001Z" fill="#197871"/>
<path d="M261.097 215.414C262.916 218.516 263.879 219.367 267.091 220.978L268.282 221.142L269.511 220.86C272.018 220.544 272.462 220.22 274.7 218.986C280.455 233.503 295.591 241.738 310.356 234.042C311.303 233.618 311.967 233.41 312.956 233.089C312.311 234.734 310.993 238.399 310.243 239.812C309.399 241.426 308.353 243.591 307.405 245.084L306.171 247.155L304.772 249.407C303.014 251.649 301.425 253.826 299.379 255.809L296.969 258.434C295.973 259.318 294.529 260.674 293.512 261.439C283.504 270.091 272.65 274.437 259.68 276.445C256.813 276.77 254.333 276.841 251.454 276.939C245.115 277.046 238.798 276.173 232.725 274.352C230.928 274.051 228.636 273.204 226.861 272.619C228.902 267.316 225.487 265.615 230.43 258.891L230.24 257.648C230.43 257.41 233.164 255.235 233.572 254.906L240.616 248.151L244.34 244.038C252.354 233.672 255.954 227.463 261.097 215.414Z" fill="#1D2D53"/>
<path d="M240.616 248.151C255.388 251.283 262.026 264.847 251.454 276.939C245.115 277.046 238.798 276.173 232.725 274.352C230.928 274.051 228.636 273.204 226.861 272.619C228.902 267.316 225.487 265.615 230.43 258.891L230.24 257.648C230.43 257.41 233.164 255.235 233.572 254.906L240.616 248.151Z" fill="#1D2D53"/>
<path d="M233.572 254.906L234.337 254.827C239.544 254.25 242.28 252.547 247.084 256.462C252.411 260.802 251.641 266.438 248.575 271.455C236.813 278.168 231.259 266.594 239.432 262.607L240.388 262.788C241.901 265.495 240.248 269.165 242.292 270.36C248.072 269.823 248.851 260.894 242.458 258.506C240.377 257.747 238.072 257.893 236.103 258.909C230.16 262.042 231.241 269.103 232.725 274.352C230.928 274.051 228.636 273.204 226.861 272.619C228.902 267.316 225.487 265.615 230.43 258.891L230.24 257.648C230.43 257.41 233.164 255.235 233.572 254.906Z" fill="#1D7275"/>
<path d="M269.511 220.86C272.018 220.544 272.462 220.22 274.7 218.986C280.455 233.503 295.591 241.738 310.356 234.042C311.303 233.618 311.967 233.41 312.956 233.089C312.311 234.734 310.993 238.399 310.243 239.812C309.399 241.426 308.353 243.591 307.405 245.084L306.171 247.155C304.3 246.51 302.325 246.687 300.325 246.697L300.146 246.175C294.222 242.448 293.133 245.072 288.288 243.318C282.605 239.183 278.158 239.034 273.685 232.81C270.253 228.035 269.505 226.876 268.282 221.142L269.511 220.86Z" fill="#1D7275"/>
<path d="M268.282 221.142L269.511 220.86C269.905 224.097 270.369 225.787 272.645 228.234C278.01 234.002 285.679 241.859 294.247 241.119C296.363 240.936 298.055 242.245 299.79 243.301C303.856 240.8 305.399 239.49 310.243 239.812C309.399 241.426 308.353 243.591 307.405 245.084L306.171 247.155C304.3 246.51 302.325 246.687 300.325 246.697L300.146 246.175C294.222 242.448 293.133 245.072 288.288 243.318C282.605 239.183 278.158 239.034 273.685 232.81C270.253 228.035 269.505 226.876 268.282 221.142Z" fill="#1D2D53"/>
<path d="M300.146 246.175C303.496 245.186 303.833 245.115 307.405 245.084L306.171 247.155C304.3 246.51 302.326 246.687 300.326 246.697L300.146 246.175Z" fill="#1C5165"/>
<path d="M240.616 248.151L244.34 244.038C252.194 247.31 255.596 249.567 259.51 257.261C263.26 264.633 258.144 274.263 258.786 276.176L259.68 276.445C256.813 276.77 254.333 276.841 251.454 276.939C262.026 264.847 255.388 251.283 240.616 248.151Z" fill="#1D7275"/>
<path d="M275.683 241.934C282.328 243.503 276.293 248.67 288.365 247.147C296.865 255.003 294.613 250.134 304.772 249.407C303.014 251.649 301.425 253.826 299.379 255.809C296.862 254.688 294.878 256.118 291.317 256.034C290.405 254.997 290.839 252.87 290.92 251.192C288.247 246.417 281.499 253.805 277.587 251.276C273.729 248.782 279.343 244.801 274.327 242.848L275.683 241.934Z" fill="#1D7275"/>
<path d="M267.091 220.978L268.282 221.142C269.505 226.876 270.253 228.035 273.685 232.81C278.158 239.034 282.605 239.183 288.288 243.318L287.939 244.137C286.255 244.859 285.932 245.114 284.063 245.045C282.211 244.231 281.63 242.799 280.511 241.022C278.247 240.246 275.997 239.43 273.761 238.575C272.362 236.15 271.828 234.195 270.95 231.559C264.867 228.368 265.366 227.413 267.091 220.978Z" fill="#1D7275"/>
<path d="M265.278 233.96C266.479 237.486 266.511 241.667 268.875 244.573C273.915 244.284 274.54 247.395 274.71 251.141C274.885 255.015 280.755 253.342 283.438 252.844C285.542 254.291 285.445 257.341 286.613 258.683C288.257 260.572 293.862 258.141 296.969 258.434C295.973 259.318 294.529 260.674 293.512 261.439L293.363 260.687C291.097 260.588 289.943 261.273 288.095 261.344C285.009 261.461 285.403 257.54 283.325 255.08C281.391 254.241 278.767 256.029 277.312 255.773C271.422 254.733 273.97 250.251 271.64 247.487C269.919 245.444 267.413 246.893 265.512 244.885C264.118 241.636 264.909 237.504 265.278 233.96Z" fill="#1D7275"/>
<path d="M267.73 234.33C266.967 233.888 266.213 233.429 265.47 232.954C262.47 231.028 261.748 227.777 263.944 224.908L264.465 225.089C264.262 230.86 264.881 230.513 269.693 233.219C270.584 238.356 270.082 240.448 275.683 241.934L274.327 242.848C272.151 243.181 271.721 243.432 269.866 242.509C267.65 240.338 267.915 237.454 267.73 234.33Z" fill="#1D7275"/>
<path d="M288.288 243.318C293.133 245.072 294.222 242.448 300.146 246.175L300.326 246.697C293.636 250.046 293.757 247.867 287.939 244.137L288.288 243.318Z" fill="#1D7275"/>
<path d="M183.241 68.0331L183.824 67.8351C189.816 82.4241 194.245 90.5411 204.574 102.507L207.883 106.334C210.32 108.651 212.6 110.808 215.148 113.002C218.337 115.748 221.005 118.028 224.389 120.508L226.601 121.991L228.14 123.155C229.322 123.941 230.455 124.755 231.707 125.412L233.999 126.963C238.453 129.936 243.081 132.639 247.858 135.057L249.801 136.12L251.755 136.926L253.344 137.685L257.163 139.318C258.472 139.885 263.586 142.148 264.591 142.339C265.777 145.285 266.063 148.586 266.511 151.752C259.562 148.533 251.787 146.011 245.229 142.61C214.75 126.805 195.271 109.007 183.201 76.6291C166.08 101.029 136.858 117.341 108.62 125.576C94.2366 129.771 82.6296 132.02 68.7576 138.509C58.0876 143.5 54.4476 155.513 50.2236 157.301C52.9456 126.339 88.0066 123.735 111.032 115.739C124.663 111.005 136.585 106.028 148.94 98.3641C149.708 98.0341 151.459 96.7741 152.242 96.2471C159.736 92.1521 170.2 82.5051 175.931 76.2301L177.606 74.5921L183.241 68.0331Z" fill="#F6A575"/>
<path d="M298.538 171.71L305.018 174.207C312.456 188.004 316.919 200.165 316.243 215.979C315.816 220.647 315.425 223.305 314.449 227.886L312.956 233.089C311.967 233.41 311.303 233.618 310.356 234.042C295.591 241.738 280.455 233.503 274.7 218.986L276.194 217.2L277.392 215.432L278.072 214.252C280.37 212.91 282.161 211.365 284.232 209.706C286.277 207.732 287.154 206.526 288.831 204.3C289.339 203.386 289.829 202.462 290.3 201.528C294.904 192.356 294.813 183.54 291.613 174.008C294.01 173.547 296.246 172.581 298.538 171.71Z" fill="#1D2D53"/>
<path d="M277.392 215.432C279.406 219.361 281.092 222.66 284.146 225.876C292.66 234.837 304.816 236.158 312.596 225.683C312.819 226.43 313.006 227.011 313.262 227.762L314.449 227.886L312.956 233.089C311.967 233.41 311.303 233.618 310.356 234.042C295.591 241.738 280.455 233.503 274.7 218.986L276.194 217.2L277.392 215.432Z" fill="#1D676E"/>
<path d="M276.194 217.2C278.744 223.77 282.977 230.089 289.635 233.033C297.749 236.622 301.866 234.146 308.757 232.756L305.61 234.497C307.932 234.718 308.057 234.652 310.356 234.042C295.591 241.738 280.455 233.503 274.7 218.986L276.194 217.2Z" fill="#1D2D53"/>
<path d="M312.596 225.683C314.164 222.758 314.695 219.542 313.718 216.322C312.934 213.793 311.106 211.72 308.695 210.627C304.298 208.593 296.563 210.734 299.649 216.399C300.978 217.009 301.873 216.561 303.376 216.203L304.042 216.039L304.648 216.58L304.197 218.334C298.329 223.878 292.935 210.571 302.487 207.243C309.069 204.95 313.762 215.005 316.243 215.979C315.816 220.647 315.425 223.305 314.449 227.886L313.262 227.762C313.006 227.011 312.819 226.43 312.596 225.683Z" fill="#1D7275"/>
<path d="M288.831 204.3C290.838 205.624 290.364 204.951 291.406 206.937C290.9 210.852 287.299 211.088 284.232 209.706C286.277 207.732 287.154 206.526 288.831 204.3Z" fill="#197871"/>
<path d="M308.455 192.379C309.817 192.34 310.987 193.341 311.158 194.693C311.33 196.045 310.448 197.306 309.119 197.609C308.136 197.832 307.112 197.479 306.476 196.697C305.84 195.915 305.704 194.839 306.124 193.923C306.544 193.007 307.447 192.408 308.455 192.379Z" fill="#1D7275"/>
<path d="M298.654 197.54C299.648 196.612 301.207 196.664 302.138 197.655C303.069 198.646 303.022 200.204 302.034 201.138C301.042 202.078 299.475 202.032 298.539 201.036C297.603 200.039 297.654 198.472 298.654 197.54Z" fill="#1D7275"/>
<path d="M279.203 178.559C280.293 174.946 281.522 164.675 283.344 163.255L286.66 166.529L288.174 168.293C289.752 170.551 290.398 171.549 291.613 174.008C294.813 183.54 294.904 192.356 290.3 201.528C289.829 202.462 289.339 203.386 288.831 204.3C287.154 206.526 286.277 207.732 284.232 209.706C282.161 211.365 280.37 212.91 278.072 214.252L277.392 215.432L276.194 217.2L274.7 218.986C272.462 220.22 272.018 220.544 269.511 220.86L268.282 221.142L267.091 220.978C263.879 219.367 262.916 218.516 261.097 215.414L263.856 206.131C266.095 205.149 266.557 204.852 268.921 204.511C272.527 194.545 275.844 191.421 279.203 178.559Z" fill="#F9C190"/>
<path d="M268.921 204.511L269.877 203.933C273.529 205.915 276.038 206.918 277.261 211.147C277.553 212.176 277.823 213.211 278.072 214.252L277.392 215.432L276.194 217.2L274.7 218.986C272.462 220.22 272.018 220.544 269.511 220.86L268.282 221.142L267.091 220.978C263.879 219.367 262.916 218.516 261.097 215.414L263.856 206.131C266.095 205.149 266.557 204.852 268.921 204.511Z" fill="#F3C01D"/>
<path d="M279.203 178.559C282.146 181.723 283.112 183.655 283.038 188.23C282.993 192.687 281.173 196.942 277.98 200.052C275.019 202.886 273.503 202.467 269.877 203.933L268.921 204.511C272.527 194.545 275.844 191.421 279.203 178.559Z" fill="#F6A575"/>
<path d="M264.591 142.339C273.959 141.223 286.325 153.683 283.997 162.635L283.344 163.255C281.522 164.675 280.293 174.946 279.203 178.559C275.844 191.421 272.526 194.545 268.92 204.511C266.556 204.852 266.094 205.149 263.855 206.131C268.942 184.717 268.717 173.251 266.51 151.752C266.062 148.586 265.777 145.285 264.591 142.339Z" fill="#1D2D53"/>
<path d="M78.4274 250.515C86.4634 258.173 92.2434 261.836 101.513 267.447C95.4814 270.371 91.5633 272.031 85.1523 273.995C86.5403 264.399 84.6513 257.663 77.6943 250.806L78.4274 250.515Z" fill="#1D2D53"/>
<path d="M230.24 257.648L230.43 258.891C225.487 265.615 228.902 267.316 226.861 272.619L222.43 270.851L222.2 263.374L230.24 257.648Z" fill="#1D3454"/>
<path d="M215.139 267.597C217.501 266.203 219.855 264.796 222.2 263.374L222.43 270.851C219.994 269.779 217.564 268.694 215.139 267.597Z" fill="#1D7275"/>
<path d="M193.238 146.877C206.391 155.886 219.44 160.928 234.657 165.433C241.608 167.491 244.55 167.435 251.717 166.927C248.453 173.091 245.693 178.267 238.749 180.845C232.239 215.305 186.248 206.822 189.269 176.806L188.594 177.795C186.669 170.156 194.081 160.5 199.564 155.733C196.518 152.519 195.196 151.045 193.238 146.877Z" fill="url(#paint0_linear_274_29)"/>
<path d="M227.369 171.496C234.841 174.315 234.883 174.014 238.749 180.845C232.239 215.305 186.248 206.822 189.269 176.806L189.234 176.155L190.724 175.072C189.314 186.22 194.282 196.121 206.214 197.653C211.549 198.339 216.93 196.784 221.075 193.356C225.225 189.807 227.77 184.734 228.133 179.285C228.336 176.497 227.927 174.202 227.369 171.496Z" fill="white"/>
<path d="M189.234 176.155C189.96 171.774 199.253 156.243 203.349 159.803C202.35 161.231 201.328 161.444 199.773 162.405C194.173 165.868 192.63 169.255 190.724 175.072L189.234 176.155Z" fill="#E8DED6"/>
<path d="M202.42 167.473C206.048 162.1 223.269 166.737 222.55 175.43C222.265 178.882 222.908 182.286 221.39 185.753L220.784 186.208C221.62 187.153 221.849 188.489 221.378 189.659C220.906 190.828 219.813 191.631 218.556 191.732C217.299 191.832 216.093 191.214 215.441 190.135C215.108 191.27 215.209 190.897 214.388 191.894C198.431 198.531 189.797 179.259 196.828 173.706C196.446 172.081 196.883 170.372 197.998 169.13C199.112 167.888 200.764 167.269 202.42 167.473Z" fill="#40210E"/>
<path d="M202.42 167.473C204.987 167.789 206.912 169.976 206.9 172.563C206.887 175.149 204.942 177.317 202.372 177.609C199.802 177.901 197.42 176.224 196.828 173.706C196.446 172.081 196.883 170.372 197.998 169.13C199.112 167.888 200.764 167.269 202.42 167.473Z" fill="white"/>
<path d="M215.441 190.135C214.55 188.66 214.931 186.75 216.319 185.731C217.707 184.711 219.644 184.918 220.784 186.208C221.62 187.153 221.849 188.489 221.378 189.659C220.906 190.828 219.813 191.631 218.556 191.732C217.299 191.832 216.093 191.214 215.441 190.135Z" fill="white"/>
<path d="M64.9219 167.48C70.3769 167.854 74.1349 168.204 79.5099 166.475C94.8879 161.531 110.867 156.69 123.931 147.054C121.675 150.794 120.414 152.54 117.555 155.748C124.082 161.531 129.503 170.162 127.949 179.227C126.791 207.401 84.8189 213.917 78.0869 181.315C72.2349 180.24 67.4729 172.408 64.9219 167.48Z" fill="#40210E"/>
<path d="M89.3309 171.611C87.9449 178.196 88.0459 184.237 92.1089 189.975C94.9809 194.053 99.3629 196.814 104.28 197.643C116.498 199.672 124.724 191.822 126.373 180.154C126.821 178.052 126.351 178.914 127.687 177.392L127.949 179.227C126.791 207.401 84.8189 213.917 78.0869 181.315C79.9949 174.133 82.5989 174.13 89.3309 171.611Z" fill="white"/>
<path d="M126.372 180.154C125.746 167.569 122.119 166.538 113.396 160.014L114.005 159.3C120.127 158.244 126.484 172.453 127.687 177.392C126.351 178.914 126.82 178.052 126.372 180.154Z" fill="#D7C3B4"/>
<path d="M99.6118 167.601C106.913 168.102 106.494 174.789 100.752 178.224L99.9278 178.013C92.9118 176.242 92.6488 170.919 99.6118 167.601Z" fill="white"/>
<path d="M113.49 184.805C115.325 184.22 117.299 185.166 117.992 186.963C118.685 188.761 117.859 190.787 116.107 191.587C114.876 192.149 113.435 191.982 112.365 191.153C111.295 190.325 110.773 188.972 111.009 187.639C111.245 186.307 112.201 185.215 113.49 184.805Z" fill="white"/>
<path d="M197.748 127.53C198.223 127.504 200.124 127.364 200.465 127.634C203.285 129.862 206.26 133.238 209.094 135.488C215.135 140.283 222.159 143.234 229.696 144.647C231.926 145.064 234.586 144.91 236.511 145.677C235.772 146.724 235.189 146.638 233.726 147.195C232.075 147.447 230.417 147.656 228.755 147.82C218.226 148.841 206.67 145.121 198.474 138.519C194.18 135.061 194.223 131.434 197.748 127.53Z" fill="#40210E"/>
<path d="M116.31 127.944C117.749 127.935 120.084 128.825 121.213 129.644C124.761 132.353 120.013 137.376 117.759 139.13C108.612 146.251 97.6499 148.74 86.3169 147.69C84.5239 147.494 81.6499 147.353 80.5459 145.89C83.9589 144.718 87.4239 144.904 90.7229 144.029C102.001 141.038 108.448 135.81 116.31 127.944Z" fill="#40210E"/>
<path d="M156.912 198.58C158.221 198.654 159.489 198.703 160.58 199.533C163.418 201.693 166.726 205.968 167.012 209.643C167.139 211.264 166.673 212.291 165.598 213.507C163.752 214.551 161.631 214.173 159.578 214.083C156.306 214.204 152.41 215.082 149.805 212.756C149.178 211.438 149.024 210.547 149.348 209.129C150.267 205.115 153.506 200.735 156.912 198.58Z" fill="#F6A575"/>
<path d="M158.031 230.345C159.776 230.379 161.516 230.419 163.231 230.772C167.241 231.599 173.922 234.822 175.757 238.751C176.337 239.992 176.253 240.271 175.811 241.46C172.358 242.941 165.988 236.777 160.299 235.784L159.564 235.663C153.086 235.964 148.887 239.115 143.639 242.497C143.264 242.396 142.813 242.299 142.486 242.085C141.356 241.345 141.213 240.735 140.875 239.528C141.026 238.858 141.195 238.291 141.621 237.735C145.019 233.304 152.73 230.817 158.031 230.345Z" fill="#F37F5B"/>
<path d="M11.284 173.415C17.558 179.753 17.755 174.345 22.315 176.787L23.81 179.483C23.403 183.601 23.249 186.076 23.35 190.225L23.513 191.14C24.012 193.586 24.409 195.956 25.242 198.307C26.833 201.939 29.391 206.141 32.24 208.924L33.075 210.137C35.193 211.747 36.535 212.712 38.835 214.128C42.656 208.615 39.539 208.773 46.777 204.404L48.272 204.108C49.045 204.355 52.219 205.429 52.871 205.53C53.916 208.901 55.158 212.755 56.05 216.136L58.077 221.223L59.573 224.403L60.635 226.736C61.677 228.581 63.589 232.202 64.771 233.775L64.882 234.499L67.617 238.404C71.298 242.864 74.284 246.397 78.427 250.515L77.694 250.806C84.651 257.663 86.54 264.399 85.152 273.995L83.118 274.301C78.439 275.467 73.733 276.412 68.916 276.802L65.83 276.857C57.746 276.946 53.902 276.25 45.985 274.35L44.208 273.623C42.083 272.952 39.699 271.945 37.599 271.119L35.732 269.902L34.374 269.429C32.113 268.099 30.434 267.065 28.258 265.534L25.882 264.028L23.362 261.995C21.402 260.329 19.561 258.435 17.726 256.624L15.952 254.666L14.655 253.095C5.39397 241.94 1.00595 229.681 0.152954 215.341L0 213.29L0.257996 208.578L0.511963 205.724C0.976963 202.205 1.30298 200.227 2.16998 196.8L2.87201 194.231L3.88 190.564C4.409 189.122 4.94801 187.683 5.49701 186.249L6.91797 182.551L8.19299 179.424C9.06799 177.469 10.269 175.33 11.284 173.415Z" fill="#1D7275"/>
<path d="M11.284 173.415C17.558 179.753 17.755 174.345 22.315 176.787L23.81 179.483C23.403 183.601 23.249 186.076 23.35 190.225L23.513 191.14C24.012 193.586 24.409 195.956 25.242 198.307C26.833 201.939 29.391 206.141 32.24 208.924L33.075 210.137C35.193 211.747 36.535 212.712 38.835 214.128L38.933 214.498C36.041 216.293 36.142 217.328 34.82 220.345C32.372 220.526 31.301 219.846 29.273 221.079C28.906 222.215 28.898 221.901 28.893 223.044L28.508 223.766C27.439 225.809 28.61 225.775 28.063 227.769C18.885 227.595 22.598 231.101 21.186 237.35L20.732 237.76C19.108 238.636 17.961 238.979 17.205 240.613C17.821 243.518 20.468 243.104 18.944 246.33L18.365 246.602L18.045 245.529C16.883 248.696 16.217 250.116 14.655 253.095C5.39397 241.94 1.00595 229.681 0.152954 215.341L0 213.29L0.257996 208.578L0.511963 205.724C0.976963 202.205 1.30298 200.227 2.16998 196.8L2.87201 194.231L3.88 190.564C4.409 189.122 4.94801 187.683 5.49701 186.249L6.91797 182.551L8.19299 179.424C9.06799 177.469 10.269 175.33 11.284 173.415Z" fill="#1D2D53"/>
<path d="M11.284 173.415C17.558 179.753 17.755 174.345 22.315 176.787L23.81 179.483C23.403 183.601 23.249 186.076 23.35 190.225L23.513 191.14C24.012 193.586 24.409 195.956 25.242 198.307C22.051 211.742 15.344 218.564 0.704956 215.455L0.152954 215.341L0 213.29L0.257996 208.578L0.511963 205.724C0.976963 202.205 1.30298 200.227 2.16998 196.8L2.87201 194.231L3.88 190.564C4.409 189.122 4.94801 187.683 5.49701 186.249L6.91797 182.551L8.19299 179.424C9.06799 177.469 10.269 175.33 11.284 173.415Z" fill="#1D2D53"/>
<path d="M3.87976 190.564C7.12576 189.772 9.11976 189.104 12.1688 190.917C16.4848 193.484 16.7418 199.159 14.1218 203.005C12.6988 205.14 10.4598 206.595 7.93176 207.029C5.05076 207.527 3.05772 206.88 0.511719 205.724C0.976719 202.205 1.30274 200.227 2.16974 196.8L2.87177 194.231L3.87976 190.564Z" fill="#1D2D53"/>
<path d="M2.87195 194.231C4.61995 196.266 3.97291 196.136 6.12891 196.696C8.01291 196.214 8.48893 195.664 10.0029 194.478C11.0569 195.141 10.621 194.71 11.114 195.98C9.75795 200.497 5.25092 200.09 2.16992 196.8L2.87195 194.231Z" fill="#1D7275"/>
<path d="M5.49683 186.249L6.16882 186.787C24.2158 182.53 22.9878 216.831 0.257812 208.578L0.51178 205.724C3.05778 206.88 5.05082 207.527 7.93182 207.029C10.4598 206.595 12.6988 205.14 14.1218 203.005C16.7418 199.159 16.4848 193.484 12.1688 190.917C9.11982 189.104 7.12582 189.772 3.87982 190.564C4.40882 189.122 4.94783 187.683 5.49683 186.249Z" fill="url(#paint1_linear_274_29)"/>
<path d="M11.2844 173.415C17.5584 179.753 17.7554 174.345 22.3154 176.787L23.8104 179.483C23.4034 183.601 23.2493 186.076 23.3503 190.225C18.8233 183.14 16.8724 180.67 8.19336 179.424C9.06836 177.469 10.2694 175.33 11.2844 173.415Z" fill="#1D2D53"/>
<path d="M23.513 191.14C24.012 193.586 24.409 195.956 25.242 198.307C22.051 211.742 15.344 218.564 0.704956 215.455L0.152954 215.341L0 213.29L0.618958 213.449C12.746 216.447 20.033 209.816 22.297 198.364C22.508 195.239 22.512 194.21 23.513 191.14Z" fill="#197871"/>
<path d="M8.19299 179.424C16.872 180.67 18.823 183.14 23.35 190.225L23.513 191.14C22.512 194.21 22.508 195.239 22.297 198.364C20.765 189.22 16.981 182.728 6.91797 182.551L8.19299 179.424Z" fill="#1D7275"/>
<path d="M32.2397 208.924L33.0748 210.137C35.1928 211.747 36.5347 212.712 38.8347 214.128L38.9327 214.498C36.0407 216.293 36.1418 217.328 34.8198 220.345C32.3718 220.526 31.3008 219.846 29.2728 221.079C28.9058 222.215 28.8978 221.901 28.8928 223.044L28.5078 223.766C27.4388 225.809 28.6097 225.775 28.0627 227.769C18.8847 227.595 22.5977 231.101 21.1857 237.35L20.7318 237.76C19.1078 238.636 17.9607 238.979 17.2047 240.613C17.8207 243.518 20.4677 243.104 18.9437 246.33L18.3647 246.602L18.0447 245.529C16.7097 243.207 15.8488 242.656 15.8018 239.896C16.1938 238.597 16.4288 238.33 17.4968 237.591C22.5028 234.124 19.4427 233.742 20.0197 229.303C20.2017 227.899 24.6757 226.454 26.2307 225.845C26.9167 224.581 25.8437 223.1 25.8167 221.394C25.7507 217.308 31.0128 217.844 30.3588 213.537C30.0098 211.237 30.7017 210.42 32.2397 208.924Z" fill="#197871"/>
<path d="M33.0754 210.137C35.1934 211.747 36.5353 212.712 38.8353 214.128L38.9333 214.498C36.0413 216.293 36.1424 217.328 34.8204 220.345C32.3724 220.526 31.3014 219.846 29.2734 221.079C28.9064 222.215 28.8984 221.901 28.8934 223.044L28.5084 223.766C27.4304 222.949 27.4453 222.518 27.2773 221.475C28.4673 219.588 29.7754 219.137 31.8464 218.202C33.5554 217.431 31.4793 215.683 31.7073 213.771C31.8663 212.434 32.4864 211.341 33.0754 210.137Z" fill="#1D2D53"/>
<path d="M64.7711 233.775L64.882 234.499L67.6171 238.404C71.2981 242.864 74.2841 246.397 78.4271 250.515L77.694 250.806C84.651 257.663 86.54 264.399 85.152 273.995L83.118 274.301C78.439 275.467 73.733 276.412 68.916 276.802L65.83 276.857C57.746 276.946 53.902 276.25 45.985 274.35L44.2081 273.623C42.0831 272.952 39.6991 271.945 37.5991 271.119L35.7321 269.902L34.374 269.429C35.939 262.645 36.9791 259.3 40.8981 253.125C45.1421 246.438 57.0151 235.365 64.7711 233.775Z" fill="#1D2D53"/>
<path d="M64.7711 233.775L64.882 234.499L67.6171 238.404C71.2981 242.864 74.2841 246.397 78.4271 250.515L77.694 250.806C64.724 243.118 48.1461 245.838 39.8381 259.131C37.7371 262.494 37.4261 266.855 35.7321 269.902L34.374 269.429C35.939 262.645 36.9791 259.3 40.8981 253.125C45.1421 246.438 57.0151 235.365 64.7711 233.775Z" fill="#1D2D53"/>
<path d="M64.882 234.499L67.6171 238.404C65.4351 238.319 62.6511 238.439 61.0811 237.065C62.0221 235.517 62.937 235.488 64.882 234.499Z" fill="#197871"/>
<path d="M45.9854 274.35C48.2064 261.216 63.2414 255.265 70.0024 269.487L71.6893 271.391C70.7473 273.97 70.5733 274.653 68.9163 276.802L65.8303 276.857C57.7463 276.946 53.9024 276.25 45.9854 274.35Z" fill="#1D2D53"/>
<path d="M70.0021 269.487L71.6891 271.391C70.7471 273.97 70.5731 274.653 68.9161 276.802L65.8301 276.857C69.1831 273.933 69.5251 273.805 70.0021 269.487Z" fill="#197871"/>
<path d="M35.7324 269.902C37.4264 266.855 37.7374 262.494 39.8384 259.131C48.1464 245.838 64.7244 243.118 77.6944 250.806C84.6514 257.663 86.5404 264.399 85.1524 273.995L83.1184 274.301C89.7164 247.075 46.5484 235.593 37.5994 271.119L35.7324 269.902Z" fill="#1D7275"/>
<path d="M44.208 273.623C49.072 255.435 70.282 254.008 71.689 271.391L70.002 269.487C63.241 255.265 48.206 261.216 45.985 274.35L44.208 273.623Z" fill="#1D7275"/>
<path d="M60.6349 226.736C61.6769 228.581 63.5889 232.202 64.7709 233.775C57.0149 235.365 45.1419 246.438 40.8979 253.125C36.9789 259.3 35.9388 262.645 34.3738 269.429C32.1128 268.099 30.4339 267.065 28.2579 265.534L25.8818 264.028C26.5478 258.917 27.1469 259.436 30.0049 255.165L31.4969 255.184C34.6539 249.709 37.1509 245.491 41.5189 240.837C45.3429 236.763 43.5509 237.102 48.9089 235.131C51.4189 231.423 52.2469 230.024 56.0149 227.654L60.6349 226.736Z" fill="#1D7275"/>
<path d="M30.0049 255.165L31.4969 255.184C30.8369 257.346 29.0349 263.776 28.2579 265.534L25.8818 264.028C26.5478 258.917 27.1469 259.436 30.0049 255.165Z" fill="#1D3454"/>
<path d="M28.8933 223.044C28.8983 221.901 28.9063 222.215 29.2733 221.079C31.3013 219.846 32.3723 220.526 34.8203 220.345C36.5893 221.032 36.7233 221.141 38.3293 222.198L38.3783 222.93C36.6593 224.144 34.9873 225.574 34.4793 227.736L34.6413 228.19L35.4853 230.198C35.3743 233.204 35.5193 233.407 33.1673 235.224C29.8633 237.777 27.3373 241.727 25.4463 245.399C23.5093 249.163 22.4323 250.584 23.0443 254.919L23.2163 256.154L22.4243 256.847C21.1043 256.726 19.7853 256.597 18.4673 256.461L17.7263 256.624L15.9523 254.666L14.6553 253.095C16.2173 250.116 16.8833 248.696 18.0453 245.529L18.3653 246.602L18.9443 246.33C20.4683 243.104 17.8213 243.518 17.2053 240.613C17.9613 238.979 19.1083 238.636 20.7323 237.76L21.1863 237.35C22.5983 231.101 18.8853 227.595 28.0633 227.769C28.6103 225.775 27.4393 225.809 28.5083 223.766L28.8933 223.044Z" fill="#1D7275"/>
<path d="M18.0453 245.529L18.3653 246.602L18.9443 246.33C20.4683 243.104 17.8213 243.518 17.2053 240.613C17.9613 238.979 19.1083 238.636 20.7323 237.76L21.3913 240.735C21.0923 245.098 24.0603 243.797 22.8323 246.128C21.5223 246.907 20.6433 247.411 19.2853 248.08L18.4433 248.22C17.7153 250.091 16.8243 253.172 15.9523 254.666L14.6553 253.095C16.2173 250.116 16.8833 248.696 18.0453 245.529Z" fill="url(#paint2_linear_274_29)"/>
<path d="M20.7324 237.76L21.1864 237.35C22.5984 231.101 18.8854 227.595 28.0634 227.769L27.4514 229.995C21.7494 231.575 23.3794 236.187 21.3914 240.735L20.7324 237.76Z" fill="#1D2D53"/>
<path d="M15.9521 254.666C16.8241 253.172 17.7152 250.091 18.4432 248.22L19.2852 248.08C19.2742 251.068 19.4432 253.615 18.4672 256.461L17.7262 256.624L15.9521 254.666Z" fill="#1D3454"/>
<path d="M28.8932 223.044C29.4432 225.4 30.2762 227.065 29.7452 229.095C28.6462 229.723 28.6832 229.714 27.4512 229.995L28.0632 227.769C28.6102 225.775 27.4392 225.809 28.5082 223.766L28.8932 223.044Z" fill="#1D3454"/>
<path d="M31.9404 229.331C32.1874 229.496 32.4634 229.623 32.6804 229.825C33.4694 230.563 33.3604 231.2 33.3204 232.163C31.8004 234.281 28.4044 235.796 26.1564 237.174L25.5254 236.708C27.2224 233.328 30.4674 234.01 31.9404 229.331Z" fill="#1D3454"/>
<path d="M46.7773 204.404L48.2723 204.108C49.0453 204.355 52.2193 205.429 52.8713 205.53C53.9163 208.901 55.1583 212.755 56.0503 216.136C53.7043 219.071 52.3563 220.589 48.4143 220.965C47.5253 221.043 46.6353 221.1 45.7433 221.135L45.2493 222.807C43.8813 223.468 43.9983 223.275 42.9033 224.232L41.9953 223.234C40.7473 223.216 39.6173 223.133 38.3783 222.93L38.3293 222.198C36.7233 221.141 36.5893 221.032 34.8203 220.345C36.1423 217.328 36.0413 216.293 38.9333 214.498L38.8353 214.128C42.6563 208.615 39.5393 208.773 46.7773 204.404Z" fill="#F3C01D"/>
<path d="M38.9333 214.498C41.2363 217.687 42.1513 219.591 45.7433 221.135L45.2493 222.807C43.8813 223.468 43.9983 223.275 42.9033 224.232L41.9953 223.234C40.7473 223.216 39.6173 223.133 38.3783 222.93L38.3293 222.198C36.7233 221.141 36.5893 221.032 34.8203 220.345C36.1423 217.328 36.0413 216.293 38.9333 214.498Z" fill="#1D676E"/>
<path d="M45.7427 221.135C46.6347 221.1 47.5247 221.043 48.4137 220.965C52.3557 220.589 53.7037 219.071 56.0497 216.136L58.0766 221.223C55.3036 222.755 54.9207 222.75 51.8457 223.364L49.4587 223.845C48.2697 226.237 47.0657 228.621 45.8467 230.998C39.0087 231.12 38.8326 232.189 37.6446 238.642C35.7866 239.123 34.0317 239.354 32.6667 240.656L32.5816 241.283C31.4996 248.849 25.8877 244.565 25.8327 251.77L23.0437 254.919C22.4317 250.584 23.5087 249.163 25.4457 245.399C27.3367 241.727 29.8627 237.777 33.1667 235.224C35.5187 233.407 35.3737 233.204 35.4847 230.198L34.6407 228.19L34.4787 227.736C34.9867 225.574 36.6587 224.144 38.3777 222.93C39.6167 223.133 40.7467 223.216 41.9947 223.234L42.9026 224.232C43.9976 223.275 43.8806 223.468 45.2486 222.807L45.7427 221.135Z" fill="#1D2D53"/>
<path d="M38.3775 222.93C39.6165 223.133 40.7465 223.216 41.9945 223.234L42.9025 224.232C43.9975 223.275 43.8805 223.468 45.2485 222.807C42.7375 229.613 40.2025 224.79 35.4845 230.198L34.6405 228.19L34.4785 227.736C34.9865 225.574 36.6585 224.144 38.3775 222.93Z" fill="#197871"/>
<path d="M38.3775 222.93C39.6165 223.133 40.7465 223.216 41.9945 223.234L42.9025 224.232C40.8785 226.287 38.9595 224.716 34.6405 228.19L34.4785 227.736C34.9865 225.574 36.6585 224.144 38.3775 222.93Z" fill="#1D2D53"/>
<path d="M48.3788 232.642C49.3218 227.792 48.7278 226.196 54.0168 225.553L56.0149 227.654C52.2469 230.024 51.4188 231.423 48.9088 235.131C43.5508 237.102 45.3428 236.763 41.5188 240.837C37.1508 245.491 34.6539 249.709 31.4969 255.184L30.0049 255.165C24.4249 251.787 32.1228 248.518 33.7358 246.189C33.7388 246.185 34.3268 242.676 34.3778 242.374C35.3478 241.124 38.4459 240.242 40.0989 239.622C40.9639 232.769 41.8808 233.274 48.3788 232.642Z" fill="#1D3454"/>
<path d="M25.8326 251.77C28.1416 258.299 25.2086 256.507 23.3616 261.995C21.4016 260.329 19.5606 258.435 17.7256 256.624L18.4666 256.461C19.7846 256.597 21.1036 256.726 22.4236 256.847L23.2156 256.154L23.0436 254.919L25.8326 251.77Z" fill="#1D3454"/>
<path d="M59.5726 224.403L60.6346 226.736L56.0146 227.654L54.0166 225.553L59.5726 224.403Z" fill="#1D3454"/>
<defs>
<linearGradient id="paint0_linear_274_29" x1="223.072" y1="156.56" x2="205.924" y2="197.166" gradientUnits="userSpaceOnUse">
<stop stop-color="#40210F"/>
<stop offset="1" stop-color="#6C3915"/>
</linearGradient>
<linearGradient id="paint1_linear_274_29" x1="17.4033" y1="199.777" x2="3.20173" y2="197.13" gradientUnits="userSpaceOnUse">
<stop stop-color="#19776C"/>
<stop offset="1" stop-color="#246E74"/>
</linearGradient>
<linearGradient id="paint2_linear_274_29" x1="22.6572" y1="243.637" x2="13.8935" y2="246.841" gradientUnits="userSpaceOnUse">
<stop stop-color="#1D2147"/>
<stop offset="1" stop-color="#20717F"/>
</linearGradient>
</defs>
</svg>
