<svg width="326" height="289" viewBox="0 0 326 289" fill="none" xmlns="http://www.w3.org/2000/svg">
<path d="M141.937 0.483902C145.077 0.302102 148.218 0.1408 151.359 0C169.249 0.0554 178.339 2.1802 193.713 10.8441C213.252 6.7826 224.858 10.8417 241.794 21.8558C254.017 29.7923 264.899 39.6239 274.032 50.9814L276.616 54.4884C281.18 60.6824 284.513 66.5904 288.286 73.2324C290.402 77.1174 291.912 80.6044 293.68 84.6374C298.081 95.3714 301.152 106.603 302.825 118.083L303.411 123.203L303.735 126.503C303.965 129.317 304.077 131.496 304.118 134.317L304.099 137.717C304.683 150.505 304.518 159.09 309.522 171.062L310.791 173.713L313.325 179.011C320.546 191.951 326.564 207.797 325.049 222.873C324.979 226.783 324.347 230.663 323.173 234.394L323.027 234.794C322.672 236.075 322.299 237.6 321.868 238.834C320.732 242.276 320.067 244.386 318.462 247.639C316.513 251.25 314.561 254.704 312.067 257.98C310.237 260.176 308.38 262.349 306.495 264.498L305.914 264.917C304.574 266.215 303.159 267.795 301.609 268.725C291.996 277.587 277.46 283.013 264.545 284.246C262.596 284.359 260.712 284.497 258.756 284.47C251.448 284.644 245.855 283.542 238.843 281.733L233.951 280.403L228.518 278.355L221.107 275.211C219.736 275.405 210.623 279.774 208.682 280.592C182.298 291.717 147.548 291.075 120.724 282.26C114.642 280.261 109.469 276.95 104.083 274.824L103.442 274.575C98.249 277.113 93.579 279.217 87.999 280.835L85.353 281.59C80.838 282.702 75.736 283.839 71.084 284.188C67.398 284.651 63.665 284.601 59.992 284.04C55.688 283.807 51.272 282.668 47.101 281.641L45.016 280.889L38.768 278.285L36.922 277.2L35.314 276.863C34.153 275.905 30.456 273.748 29.002 272.848L25.988 270.584L24.901 269.871L20.094 265.717C18.094 263.886 17.069 262.545 15.373 260.462C6.622 249.68 2.354 239.296 0.362 225.649C0.0359995 223.851 0.052 221.243 0 219.352L0.0670013 214.73L0.404999 211.609C0.800999 208.549 1.233 206.393 1.882 203.395L2.759 199.651L4.184 195.621C4.477 194.442 5.257 192.345 5.675 191.118L7.104 187.508L8.153 184.847L11.169 178.526C12.352 176.191 13.492 173.835 14.591 171.459C17.698 163.665 18.539 160.152 20.032 151.973C20.01 148.931 20.165 146.931 20.437 143.921C20.307 141.161 20.459 137.346 20.489 134.505C20.505 131.908 20.65 130.178 20.904 127.621C20.997 126.25 21.108 124.881 21.238 123.513C22.39 113.42 23.717 105.737 26.612 95.9994C28.002 91.5384 30.043 85.0264 32.351 80.9834L32.619 79.3854C33.475 78.4234 36.555 72.3074 37.362 70.7714C44.216 57.8914 54.016 45.8704 64.488 35.8116L68.25 32.3974C69.549 31.1863 71.193 29.8808 72.574 28.722C74.887 26.8416 77.45 25.0506 79.87 23.291L82.336 21.6639C83.533 20.8018 85.076 19.8314 86.328 18.9993C87.746 17.9762 90.064 16.7809 91.651 15.8993L95.408 13.8513C100.432 11.5281 104.105 9.9112 109.354 8.0011C118.82 4.4351 128.672 1.996 138.709 0.7342L141.937 0.483902Z" fill="#F9C190"/>
<path d="M141.936 0.483902C145.076 0.302102 148.217 0.1408 151.358 0C169.248 0.0554 178.338 2.1802 193.712 10.8441C213.251 6.7826 224.857 10.8417 241.793 21.8558C254.016 29.7923 264.898 39.6239 274.031 50.9814L276.615 54.4884C281.179 60.6824 284.512 66.5904 288.285 73.2324C290.401 77.1174 291.911 80.6044 293.679 84.6374C298.08 95.3714 301.151 106.603 302.824 118.083L303.41 123.203L303.734 126.503C303.964 129.317 304.076 131.496 304.117 134.317C301.868 133.591 297.648 131.277 294.048 130.118C285.834 127.471 279.354 126.428 270.904 124.877C262.505 126.663 258.518 127.955 256.151 136.904L255.919 138.983C254.507 141.55 254.988 143.768 254.184 146.724L253.616 146.348L252.763 146.747C248.342 144.962 241.777 142.257 238.898 138.383C238.35 132.471 225.441 128.488 220.616 127.166L220.769 126.025C202.856 108.111 197.762 103.377 187.642 78.6644C172.494 97.0814 159.27 108.13 137.503 118.884C133.962 120.633 119.584 126.021 117.854 127.398C104.391 126.19 94.2914 127.484 84.5744 137.652C81.0444 136.879 71.5084 140.796 68.9344 143.388C65.4294 142.299 63.8314 141.76 61.1714 139.25C60.2144 137.614 59.3614 135.505 58.5854 133.744C58.5274 132.959 58.1004 130.731 57.9544 129.853C56.1934 131.352 56.4574 134.121 55.5204 136.541C51.6084 136.457 45.5914 139.6 41.1234 139.995C37.0534 140.354 30.7334 136.503 28.6794 138.948C28.2174 141.522 29.2114 144.345 29.7964 147.049C28.3714 150.455 26.5574 152.335 25.9604 155.293C25.5964 157.095 26.0104 156.854 24.9314 157.823C22.2734 155.991 23.4004 153.715 20.0314 151.973C20.0094 148.931 20.1644 146.931 20.4364 143.921C20.3064 141.161 20.4584 137.346 20.4884 134.505C20.5044 131.908 20.6494 130.178 20.9034 127.621C20.9964 126.25 21.1074 124.881 21.2374 123.513C22.3894 113.42 23.7164 105.737 26.6114 95.9994C28.0014 91.5384 30.0424 85.0264 32.3504 80.9834L32.6184 79.3854C33.4744 78.4234 36.5544 72.3074 37.3614 70.7714C44.2154 57.8914 54.0154 45.8704 64.4874 35.8116L68.2494 32.3974C69.5484 31.1863 71.1924 29.8808 72.5734 28.722C74.8864 26.8416 77.4494 25.0506 79.8694 23.291L82.3354 21.6639C83.5324 20.8018 85.0754 19.8314 86.3274 18.9993C87.7454 17.9762 90.0634 16.7809 91.6504 15.8993L95.4074 13.8513C100.431 11.5281 104.104 9.9112 109.353 8.0011C118.819 4.4351 128.671 1.996 138.708 0.7342L141.936 0.483902Z" fill="#1D2D53"/>
<path d="M86.3273 18.9993C87.7453 17.9762 90.0633 16.7809 91.6503 15.8993C102.453 31.5887 86.5513 40.3978 78.7993 51.7934C72.7473 60.6894 73.1443 68.3044 74.2783 78.4864C62.1873 77.1384 56.1873 82.4034 54.9143 94.3424C54.3813 99.3394 58.0183 108.721 54.0333 112.906C42.9413 119.845 33.5423 114.246 21.2373 123.513C22.3893 113.42 23.7163 105.737 26.6113 95.9994C28.0013 91.5384 30.0423 85.0264 32.3503 80.9834L32.6183 79.3854C33.4743 78.4234 36.5543 72.3074 37.3613 70.7714C44.2153 57.8914 54.0153 45.8704 64.4873 35.8116L68.2493 32.3974C69.5483 31.1863 71.1923 29.8808 72.5733 28.722C74.8863 26.8416 77.4493 25.0506 79.8693 23.291L82.3353 21.6639C83.5323 20.8018 85.0753 19.8314 86.3273 18.9993Z" fill="#1D2D53"/>
<path d="M37.3613 70.7714C40.4523 72.5594 41.4853 72.8324 45.0483 73.0864C46.9473 75.1174 51.3173 79.3674 51.2863 82.2174C50.9773 83.7014 47.1763 87.4554 49.5553 88.9444C52.9303 91.0564 52.2563 98.1524 49.4923 98.6314C41.1693 100.07 43.4883 106.155 39.7023 109.229C37.1853 109.691 36.7923 107.821 35.5623 105.721C33.9963 105.007 32.2163 104.247 30.7053 103.459C29.6543 101.641 27.5083 97.3624 26.6113 95.9994C28.0013 91.5384 30.0423 85.0264 32.3503 80.9834L32.6183 79.3854C33.4743 78.4234 36.5543 72.3074 37.3613 70.7714Z" fill="#1D7275"/>
<path d="M32.6186 79.3854C34.7426 80.3324 35.5286 80.4944 37.0656 82.1394L37.4946 83.4314L36.9166 84.1344C34.5166 83.8174 34.0396 82.9134 32.3506 80.9834L32.6186 79.3854Z" fill="#1D2D53"/>
<path d="M36.8299 89.8624C38.5299 90.6064 39.0569 91.0024 39.7769 92.5054C39.0749 95.1644 37.4969 94.7854 36.5779 98.3044L36.7499 99.0374L36.1579 99.2534C34.4789 96.6774 35.5009 92.4224 36.8299 89.8624Z" fill="#1D2D53"/>
<path d="M43.1777 88.4274L44.9927 88.6104C48.0337 90.4684 47.8127 92.7744 46.9167 95.8364L45.4537 95.8554C44.0747 94.8554 44.3047 91.8254 43.4607 89.2664L43.1777 88.4274Z" fill="#1D2D53"/>
<path d="M39.917 77.3564C42.094 77.4154 43.063 77.3994 44.575 78.8734C45.353 80.5914 45.06 81.6634 44.892 83.5514C42.398 83.2264 43.299 81.1254 39.917 77.3564Z" fill="#1D2D53"/>
<path d="M82.3353 21.6639C83.5323 20.8018 85.0753 19.8314 86.3273 18.9993C88.7343 23.3684 90.1123 27.108 88.4833 32.2304C87.3613 35.7714 84.8583 38.7098 81.5403 40.3799C78.3453 41.9679 74.6353 42.157 71.2963 40.9022C68.2233 39.7796 66.6383 38.2157 64.4873 35.8116L68.2493 32.3974C69.5483 31.1863 71.1923 29.8808 72.5733 28.722C74.8863 26.8416 77.4493 25.0506 79.8693 23.291L82.3353 21.6639Z" fill="#1D7275"/>
<path d="M82.336 21.6639C90.347 35.3104 73.37 43.2963 68.25 32.3974C69.549 31.1863 71.193 29.8808 72.574 28.722C74.887 26.8416 77.45 25.0506 79.87 23.291L82.336 21.6639Z" fill="#1D2D53"/>
<path d="M72.5732 28.722C74.8862 26.8416 77.4492 25.0506 79.8692 23.291C80.1522 27.0326 80.4262 27.6203 78.0832 30.4099C75.6942 31.3341 74.2412 30.8286 72.5732 28.722Z" fill="#197871"/>
<path d="M56.0369 52.6454C58.2329 53.8144 59.6279 56.6714 60.9809 58.8524C61.9129 56.9304 62.2419 55.7324 63.8819 54.4964L64.7889 54.6674C65.7889 56.5614 65.4639 58.2294 65.3819 60.4324L73.7429 60.4804C71.8209 61.8274 69.9079 63.1884 68.0059 64.5644C67.0009 66.8104 69.1189 65.9304 68.9229 68.3394C67.6659 69.1714 66.4239 68.9894 64.8659 69.0214L63.3919 74.8624C62.2039 73.0864 61.0169 71.1184 59.8699 69.2984C57.3199 70.2344 54.8299 71.3674 52.3389 72.4534C53.5069 70.2274 54.8389 68.1244 56.1509 65.9794C55.5929 63.5854 54.3529 65.2424 53.6749 63.0514C54.8709 61.7484 56.1099 61.5514 57.8129 60.9874C55.7889 57.2644 54.5969 56.6854 56.0369 52.6454Z" fill="#1D7275"/>
<path d="M188.159 68.9184C193.611 83.0654 199.973 94.3484 210.613 105.373L213.464 108.675C216.351 111.644 218.113 113.52 221.379 116.012C224.551 118.668 227.8 121.231 231.12 123.699L232.155 124.473L236.993 124.168C250.379 119.157 250.214 118.369 253.721 105.103L254.556 104.895C257.911 125.585 269.19 119.622 270.905 124.877C262.506 126.663 258.519 127.955 256.152 136.904L255.92 138.983C254.508 141.55 254.989 143.768 254.185 146.724L253.617 146.348L252.764 146.747C248.343 144.962 241.778 142.257 238.899 138.383C238.351 132.471 225.442 128.488 220.617 127.166L220.77 126.025C202.857 108.111 197.763 103.377 187.643 78.6644C172.495 97.0814 159.271 108.13 137.504 118.884C133.963 120.633 119.585 126.021 117.855 127.398C104.392 126.19 94.2919 127.484 84.5749 137.652C81.0449 136.879 71.5089 140.796 68.9349 143.388C65.4299 142.299 63.8319 141.76 61.1719 139.25C76.0029 127.131 97.3429 124.786 115.658 117.814C130.832 112.037 138.234 109.366 152.634 100.443L156.069 98.3264C163.825 93.9624 174.005 84.4464 180.209 77.9554L181.849 76.2384C183.895 73.9354 186.313 71.3334 188.159 68.9184Z" fill="#F6A575"/>
<path d="M236.993 124.168C250.379 119.157 250.214 118.369 253.721 105.103L254.556 104.895C257.911 125.585 269.19 119.622 270.905 124.877C262.506 126.663 258.519 127.955 256.152 136.904L255.92 138.983C254.508 141.55 254.989 143.768 254.185 146.724L253.617 146.348C253.56 142.666 253.362 141.234 252.718 137.589C251.71 133.344 250.097 130.542 246.693 127.842C245.271 127.089 243.448 126.299 241.962 125.603C239.805 124.704 239.32 124.618 236.993 124.168Z" fill="white"/>
<path d="M241.962 125.603C243.448 126.299 245.271 127.089 246.693 127.842C250.097 130.542 251.71 133.344 252.718 137.589C248.177 135.115 244.61 133.177 240.294 130.275L238.137 128.627C239.528 127.115 240.219 126.759 241.962 125.603Z" fill="#1D3454"/>
<path d="M241.962 125.603C243.448 126.299 245.271 127.089 246.693 127.842C244.904 128.509 241.934 129.508 240.294 130.275L238.137 128.627C239.528 127.115 240.219 126.759 241.962 125.603Z" fill="#368C97"/>
<path d="M232.154 124.473L236.992 124.168C239.319 124.618 239.804 124.704 241.961 125.603C240.218 126.759 239.527 127.115 238.136 128.627C236.283 127.456 233.997 125.757 232.154 124.473Z" fill="#1D3454"/>
<path d="M139.44 57.1034C143.555 53.7724 149.369 48.2684 151.648 43.7156C156.67 33.6801 163.253 29.5187 171.398 22.4069C172.814 21.1709 174.18 17.221 175.38 16.7454C176.505 24.8446 164.37 30.5468 160.546 36.0535C153.951 45.5514 150.434 51.5904 141.788 59.4104C140.919 66.2334 140.565 66.2784 134.293 68.6124C133.661 70.9994 133.459 72.6544 131.913 74.5564C129.165 75.9894 127.865 74.2004 126.222 72.1344C120.579 77.0874 123.585 75.9524 121.947 81.7434C120.227 87.8264 112.836 82.7754 108.695 85.7224C108.062 86.8574 108.171 87.8464 108.123 89.1624C106.133 92.0644 103.741 89.1864 100.659 89.5864C98.0891 89.9214 95.8961 92.8404 93.6351 92.8074C92.8461 90.5804 96.3641 85.9294 98.6631 85.3454C99.3021 85.1824 101.215 85.2604 101.96 85.2884C104.386 83.8674 103.143 82.0564 107.543 81.3894L111.611 80.8034C104.956 78.8934 104.424 78.3674 103.102 71.4264C101.045 74.3884 100.331 74.7124 97.3191 76.6124C97.2641 79.5114 100.863 78.6774 98.3591 81.8914C95.3661 82.3854 95.1491 80.0984 94.1651 82.0954C92.9451 84.5714 92.5161 88.1184 90.7201 90.3284C90.0321 90.5944 89.4301 90.8684 88.7211 91.0374L87.6131 90.5544C84.8861 106.982 81.4041 118.03 67.0451 128.188C64.2731 130.111 61.4521 131.963 58.5861 133.744C58.5281 132.959 58.1011 130.731 57.9551 129.853L58.1111 129.374L58.8901 129.151C63.1551 127.334 66.9851 123.886 70.3261 120.769C87.4651 104.776 79.9361 85.6574 91.9831 67.2404L92.6811 66.6204C94.6411 64.5424 96.2181 62.7234 98.5421 61.1454C107.353 55.1644 121.261 56.1884 120.855 69.4654C120.794 71.4604 119.17 75.3464 119.728 76.7714C123.302 73.3864 119.04 70.3744 127.818 64.2754C128.921 56.5764 131.341 52.3604 139.44 57.1034Z" fill="#1D7275"/>
<path d="M87.6123 90.5544C89.0183 79.6834 91.4553 71.1244 100.308 63.9384C105.912 59.3884 112.691 58.9144 117.247 65.1684C118.542 66.9364 119.006 69.1784 118.519 71.3154C117.968 73.6364 116.524 75.6474 114.5 76.9104C108.061 80.9494 103.682 72.4984 108.449 68.2304C110.714 68.1284 111.575 70.0654 112.862 71.8394L113.936 71.7494C114.422 70.9214 114.979 69.4444 114.461 68.6444C109.873 61.5524 106.04 67.2534 104.16 70.5164L103.591 70.8044L103.163 70.2084C103.473 69.0184 103.63 68.7884 104.189 67.6754L103.58 67.2554C101.8 67.7594 101.903 67.6764 100.565 68.9424C99.9713 70.8084 100.183 71.3734 98.9193 72.2254C92.8273 72.7104 90.0003 85.9754 88.7203 91.0374L87.6123 90.5544Z" fill="#1D2D53"/>
<path d="M274.032 50.9814L276.616 54.4884C281.18 60.6824 284.513 66.5904 288.286 73.2324C290.402 77.1174 291.912 80.6044 293.68 84.6374C290.469 89.6194 289.325 88.3354 285.484 91.9484C284.558 97.2864 292.1 95.1524 293.76 98.8844C292.865 101.072 288.601 102.835 286.427 103.918C286.781 107.153 287.462 112.556 284.481 114.552C283.103 113.926 284.388 110.056 283.19 107.673C281.932 105.172 278.862 106.286 277.041 105.202C272.513 102.507 277.192 99.8024 276.296 97.3234C269.701 95.7214 269.274 95.2894 269.847 88.5104C269.95 87.2974 264.856 86.9824 264.136 84.4934C263.306 81.6224 264.517 80.6784 265.299 77.9564C263.883 74.4054 259.107 76.0554 260.899 69.8584C260.737 66.9114 266.985 65.1834 267.269 64.3284C269.153 58.6624 270.32 55.6634 274.032 50.9814Z" fill="#1D7275"/>
<path d="M276.616 54.4884C281.18 60.6824 284.513 66.5904 288.286 73.2324C280.58 82.3854 287.463 79.6304 289.316 83.2814C289.091 85.9974 286.337 88.4484 284.439 90.3414C284.039 87.9754 283.667 81.9334 282.796 80.2184C277.048 68.9024 274.745 67.9984 276.616 54.4884Z" fill="#1D2D53"/>
<path d="M274.276 89.0514C274.152 88.4994 273.981 85.9704 273.829 85.0174C271.017 81.7224 266.86 75.3864 266.935 70.9024C267.883 69.1724 267.206 69.8014 269.103 69.0244C271.007 69.6574 270.319 69.1174 271.502 70.3844C271.739 78.0844 264.676 74.1304 276.173 83.3384C276.486 85.1014 275.949 85.1614 274.797 87.2124L274.276 89.0514Z" fill="#1D2D53"/>
<path d="M284.568 96.1314C286.097 96.8214 287.936 97.3904 288.754 98.7444C288.333 100.47 287.845 100.438 286.318 101.932C285.036 102.461 285.543 102.348 284.133 102.29L283.429 101.478C283.25 99.4314 283.898 98.1164 284.568 96.1314Z" fill="#1D2D53"/>
<path d="M274.796 87.2124C276.963 88.9544 280.282 90.8864 281.094 93.4144C279.043 94.3334 275.444 90.5784 274.275 89.0514L274.796 87.2124Z" fill="#1D2D53"/>
<path d="M91.6503 15.8993L95.4073 13.8513C101.621 26.1904 99.8443 30.3165 92.8423 41.6392C99.4813 39.276 111.199 36.9436 114.33 30.5019C116.667 25.693 115.013 21.1416 108.764 21.9783C105.981 23.875 106.419 25.3103 104.52 25.2462C103.383 23.8316 103.721 24.6253 103.558 22.7456C105.933 17.2516 116.771 18.0069 118.074 23.467C120.604 34.0779 109.619 39.2162 101.206 41.5184C78.4013 47.7584 73.9463 60.7474 78.2403 81.9814C69.3893 80.8714 58.6043 81.1844 57.6583 93.1814C56.7103 105.2 65.2723 111.406 50.2553 118.536L50.0053 119.558C47.7183 120.194 41.7153 122.461 39.9823 123.881L38.6913 123.903C34.9093 125.245 32.1453 126.609 28.1693 126.583C25.8393 127.748 24.0613 128.586 21.8933 130.078C23.1793 131.911 22.9053 130.956 23.0823 132.933C21.9073 134.496 22.6663 133.88 20.4883 134.505C20.5043 131.908 20.6493 130.178 20.9033 127.621C20.9963 126.25 21.1073 124.881 21.2373 123.513C33.5423 114.246 42.9413 119.845 54.0333 112.906C58.0183 108.721 54.3813 99.3394 54.9143 94.3424C56.1873 82.4034 62.1873 77.1384 74.2783 78.4864C73.1443 68.3044 72.7473 60.6894 78.7993 51.7934C86.5513 40.3978 102.453 31.5887 91.6503 15.8993Z" fill="#1D7275"/>
<path d="M50.2553 118.536L50.0053 119.558C47.7183 120.194 41.7153 122.461 39.9823 123.881L38.6913 123.903C34.9093 125.245 32.1453 126.609 28.1693 126.583C25.8393 127.748 24.0613 128.586 21.8933 130.078C23.1793 131.911 22.9053 130.956 23.0823 132.933C21.9073 134.496 22.6663 133.88 20.4883 134.505C20.5043 131.908 20.6493 130.178 20.9033 127.621C22.9163 126.445 24.1243 125.086 26.7883 123.882C34.2303 120.517 42.0753 120.471 50.2553 118.536Z" fill="url(#paint0_linear_274_24)"/>
<path d="M28.1699 126.583L28.5089 125.756C31.6389 124.13 35.3519 122.104 38.6919 123.903C34.9099 125.245 32.1459 126.609 28.1699 126.583Z" fill="#197871"/>
<path d="M254.555 104.895C260.485 103.167 255.732 67.1044 253.643 61.1914C252.502 57.9624 251.781 57.1434 249.241 55.1184L249.455 54.5444C256.238 54.1694 257.467 63.4864 258.294 68.5514C259.548 76.2274 260.132 83.9534 260.57 91.6944C260.98 98.9404 259.064 104.476 257.015 111.115C263.588 122.893 280.398 124.854 292.66 125.815C296.95 123.782 299.894 122.03 302.824 118.083L303.41 123.203L303.734 126.503C303.964 129.317 304.076 131.496 304.117 134.317C301.868 133.591 297.648 131.277 294.048 130.118C285.834 127.471 279.354 126.428 270.904 124.877C269.189 119.622 257.91 125.585 254.555 104.895Z" fill="#1D7275"/>
<path d="M296.411 127.538C298.769 126.135 301.103 124.689 303.411 123.203L303.735 126.503C303.678 127.72 303.628 127.995 303.368 129.189C301.044 129.943 298.893 128.553 296.411 127.538Z" fill="#1D2D53"/>
<path d="M210.612 105.373C211.876 104.847 214.549 104.097 214.568 102.794C214.647 97.1624 214.766 93.7734 222.822 96.7254C225.254 95.7484 224.432 92.6414 227.827 92.0414C232.479 91.2194 232.269 95.7574 235.572 96.8704C241.043 96.8064 243.871 92.8714 244.911 87.2124C246.488 78.6284 237.021 65.0864 241.147 57.6274C244.114 52.2654 245.425 49.6364 240.51 45.2524C240.085 44.8784 239.648 44.5164 239.201 44.1694L239.478 43.5355C243.067 43.2113 246.446 49.5254 246.156 52.7834C245.829 56.4454 242.137 59.8624 242.55 63.8024C244.681 74.3254 253.204 87.6604 242.497 96.8364C238.003 100.688 229.881 100.135 225.13 101.958C222.538 102.952 216.915 106.919 213.463 108.675L210.612 105.373Z" fill="#1D7275"/>
<path d="M50.0054 119.558L50.7294 119.51C57.7014 118.989 58.9114 116.453 61.8214 110.503C62.5214 109.072 63.5784 111.263 63.3474 108.311C61.6884 106.798 61.3334 106.997 60.9224 105.228C61.3594 103.861 62.4904 103.319 63.7114 102.435C63.1314 100.677 57.9314 100.023 59.7104 96.1384C62.3624 97.0364 63.6034 99.0324 67.2784 98.1194C70.1704 97.4014 72.0364 96.2074 71.6654 92.8184C70.7544 91.5884 68.5544 89.2064 68.5294 88.1024C74.0194 86.2834 78.2624 95.7454 75.0634 100.234C73.5494 100.985 73.2554 100.95 71.6184 101.243L71.0534 101.958C71.9544 103.233 72.2334 103.425 73.3544 104.466L73.3884 105.401C72.1514 106.444 72.1204 106.417 70.6324 107.1C67.9344 110.372 68.8964 114.56 65.4904 116.05C64.1154 115.524 64.1874 115.465 63.1174 114.411C60.0234 116.43 60.1904 118.755 55.1244 121.574L49.2084 121.117C47.1064 122.35 44.8784 124.285 42.6154 124.72L39.9824 123.881C41.7154 122.461 47.7184 120.194 50.0054 119.558Z" fill="#1D7275"/>
<path d="M171.801 52.2664C174.463 41.6917 179.191 44.8614 185.254 37.1073C188.49 32.9693 184.876 28.9213 184.222 26.1852L184.693 25.4815C187.201 26.6792 189.085 30.5115 189.083 33.3195C189.079 39.9967 184.933 41.3781 180.794 45.3534L180.989 46.1544L183.375 47.0884L184.345 48.6564C183.195 50.8194 180.577 52.8254 180.223 53.7364C178.57 57.9884 178.889 65.3774 177.901 69.8954L181.848 76.2384L180.208 77.9554C177.854 73.6574 177.908 73.0264 176.102 68.8334L175.509 68.9104C174.764 70.2904 174.498 70.5694 173.541 71.7684C171.827 72.2954 172.664 72.3094 170.944 71.6734C170.994 69.2744 174.206 67.4134 174.322 64.7314C174.505 60.4974 172.982 56.3284 171.801 52.2664Z" fill="#1D7275"/>
<path d="M178.502 46.2174L179.389 46.6624C180.42 48.8304 177.73 53.7564 176.627 57.0434C173.356 53.3734 175.672 49.1664 178.502 46.2174Z" fill="#1D2D53"/>
<path d="M54.3254 130.648L54.6484 130.107C56.5344 129.03 55.7624 129.315 58.1104 129.374L57.9544 129.853C56.1934 131.352 56.4574 134.121 55.5204 136.541C51.6084 136.457 45.5914 139.6 41.1234 139.995C37.0534 140.354 30.7334 136.503 28.6794 138.948C28.2174 141.522 29.2114 144.345 29.7964 147.049C28.3714 150.455 26.5574 152.335 25.9604 155.293C25.5964 157.095 26.0104 156.854 24.9314 157.823C22.2734 155.991 23.4004 153.715 20.0314 151.973C20.0094 148.931 20.1644 146.931 20.4364 143.921C20.6464 146.547 20.1784 148.203 21.3344 150.274C22.9004 151.026 22.0734 150.892 23.9234 150.482C30.1984 145.143 17.2494 139.025 30.0084 131.766C34.2234 133.83 35.4094 134.412 39.9084 135.668L41.2834 133.872C45.0594 134.43 50.9104 132.321 54.3254 130.648Z" fill="#1D7275"/>
<path d="M54.3262 130.648L54.5712 131.456C52.1582 133.816 43.3472 135.359 39.9092 135.668L41.2842 133.872C45.0602 134.43 50.9112 132.321 54.3262 130.648Z" fill="#1D3454"/>
<path d="M247.467 101.569L249.129 101.363C248.654 110.002 245.242 106.249 242.725 110.032C243.035 111.127 243.374 112.214 243.742 113.291C241.589 116.86 239.695 112.136 238.943 118.968C237.838 120.285 238.524 119.771 236.639 120.29C235.119 119.796 234.866 119.293 233.821 118.094C231.867 118.852 231.583 121.772 231.12 123.699C227.8 121.231 224.551 118.668 221.379 116.012C222.293 114.19 222.375 113.536 224.298 113.268C225.531 114.104 225.758 114.341 227.182 114.855C229.206 113.173 226.539 112.257 228.75 109.459C232.946 107.845 231.572 110.341 234.297 110.917C234.883 108.957 234.981 108.2 236.119 106.555C238.498 106.455 236.896 108.145 239.707 108.382C240.411 107.299 241.125 106.222 241.849 105.151C244.004 104.501 246.264 103.617 247.467 101.569Z" fill="#1D7275"/>
<path d="M152.634 100.443C145.271 95.8874 140.659 90.7124 141.341 81.1544C142.064 71.0304 155.739 65.7144 161.444 74.8374C163.955 78.8524 161.375 88.0644 154.581 84.8424C153.331 83.2714 153.685 84.1314 153.422 82.1894C154.344 80.8034 153.729 81.2014 155.255 80.8514C156.027 81.4054 156.693 81.8544 157.493 82.3664C158.858 81.8074 158.752 81.6914 159.577 80.4134C160.068 77.4264 158.388 73.9864 155.501 72.8994C146.161 69.3854 141.016 83.3894 145.471 90.2864C148.34 94.7264 150.241 96.5174 155.479 98.1484L156.069 98.3264L152.634 100.443Z" fill="#1D7275"/>
<path d="M109.354 8.00109C118.82 4.43509 128.672 1.99599 138.709 0.734192C139.468 3.71139 139.903 6.13939 138.595 9.02879C134.915 12.0526 132.166 7.5692 128.985 9.1074C127.983 9.59159 127.603 11.6626 125.27 12.2037C122.231 11.3535 122.458 10.1351 121.598 7.11819C117.148 6.63739 115.123 9.0104 109.354 8.00109Z" fill="#1D7275"/>
<path d="M91.9823 67.2404C90.6633 65.9384 90.1663 65.7434 88.5383 66.2464C86.5953 68.5064 86.3333 69.7964 83.4033 69.1364L82.8293 68.0864C83.0463 66.4364 83.1153 65.9414 83.0943 64.2264C82.1533 62.7854 81.9643 62.6264 81.4062 60.9554C82.3553 54.3204 85.6892 54.8424 90.8582 55.4994C92.4002 54.7574 93.3963 54.0964 95.0983 54.0614C97.6063 57.0194 94.7783 59.5694 92.7823 61.6724L92.6803 66.6204L91.9823 67.2404Z" fill="#1D7275"/>
<path d="M64.7097 118.438C76.1577 116.798 86.5627 83.4224 68.2597 85.2214C66.1287 85.4304 62.5817 89.0694 63.5717 91.8624C65.1087 93.0084 65.7287 92.8634 67.6097 93.0684L68.4647 93.1654C68.6387 93.1824 68.8127 93.1984 68.9867 93.2154C68.9727 94.0934 69.2117 94.3374 68.4967 94.9444C63.3087 99.3444 60.0867 92.6854 61.9427 88.1714C65.5007 79.5144 75.6937 81.8154 78.8667 89.5344C81.3987 95.6924 79.9627 101.081 77.3747 106.871C74.2827 113.351 72.5867 118.58 64.9047 120.236L64.7097 118.438Z" fill="#197871"/>
<path d="M41.2842 133.872C42.6392 131.942 49.6892 131.364 52.6412 129.792C58.3732 126.738 60.4722 122.742 64.0752 119.073L64.7102 118.438L64.9052 120.236C63.1312 125.048 60.1802 126.119 58.8902 129.151L58.1112 129.374C55.7632 129.315 56.5352 129.03 54.6492 130.107L54.3262 130.648C50.9112 132.321 45.0602 134.43 41.2842 133.872Z" fill="#197871"/>
<path d="M141.937 0.483902C145.077 0.302102 148.218 0.1408 151.359 0C152.933 1.7018 154.296 2.826 154.98 4.9993L154.634 5.713C152.303 5.877 143.564 1.8848 141.937 0.483902Z" fill="#1D7275"/>
<path d="M252.362 93.0704C253.333 95.0474 253.276 94.1064 253.056 95.9404C250.492 98.1694 249.024 97.8004 249.128 101.363L247.466 101.569C246.766 100.952 247.019 101.203 246.653 100.23C247.227 98.3534 249.223 94.9204 250.838 93.8364L252.362 93.0704Z" fill="#197871"/>
<path d="M183.376 47.0884C185.889 44.4694 188.609 40.3396 190.369 38.9389L190.758 39.1843C188.012 46.7214 187.716 44.1344 184.346 48.6564L183.376 47.0884Z" fill="#197871"/>
<path d="M250.839 93.8364C250.306 91.3494 249.955 88.3624 252.911 87.5504C255.086 89.2744 253.89 91.3544 252.363 93.0704L250.839 93.8364Z" fill="#197871"/>
<path d="M218.96 22.0953C222.245 22.8289 222.488 24.8622 223.056 27.7581L223.186 28.4508L223.741 28.801C225.984 27.6684 226.876 26.8299 229.291 27.6958C230.302 29.336 229.923 29.0677 229.686 31.4888C230.532 33.2046 232.203 33.1025 234.332 34.924C235.973 39.2922 231.726 38.6162 228.88 40.3611C228.348 42.2184 228.465 43.3621 226.534 43.7275C224.847 43.0468 223.341 41.0615 222.054 39.6537C222.162 43.3239 222.062 44.9014 221.478 48.5904C220.22 56.5354 210.926 64.7254 212.717 72.6974C214.325 79.8494 224.808 81.8654 227.205 74.1254C227.73 72.4334 227.801 72.6824 227.122 71.0734C225.257 70.0104 222.809 70.4644 220.355 70.3404L219.969 69.5924C221.392 66.6834 221.62 66.7294 224.825 65.9344C227.662 67.3234 231.396 70.3644 230.606 73.7114C227.723 86.8034 207.708 83.5074 209.783 69.6444C211.343 59.2184 217.227 54.8804 218.584 43.6861C216.302 45.0154 214.999 46.3374 212.535 45.1124C211.663 43.2221 212.593 41.2197 212.71 39.0413C212.819 37.0267 211.176 36.1765 209.547 34.3146C209.285 31.9067 209.813 32.6248 210.686 30.2295C211.587 27.7556 208.435 28.9837 206.941 25.9885C207.55 24.058 207.036 24.8496 208.507 23.502C211.833 22.734 213.96 24.9207 217.268 26.2296C217.895 24.8162 218.404 23.5385 218.96 22.0953Z" fill="#1D7275"/>
<path d="M214.659 31.4064C215.666 30.9647 216.844 31.3429 217.406 32.2883C217.968 33.2336 217.737 34.4495 216.867 35.1229C216.202 35.6385 215.298 35.7241 214.547 35.3427C213.797 34.9612 213.333 34.181 213.357 33.3392C213.381 32.4973 213.888 31.7447 214.659 31.4064Z" fill="#1D2D53"/>
<path d="M224.019 33.96C226.019 34.2327 227.594 34.147 228.787 35.4708L228.334 36.7943C226.304 36.9677 225.017 37.0988 223.649 35.4721L224.019 33.96Z" fill="#1D2D53"/>
<path d="M111.552 95.4054C116.3 95.5894 116.095 97.5334 118.702 97.6524C124.832 94.6644 127.457 97.9034 126.43 104.589C125.744 109.05 117.72 103.797 115.403 105.059C113.176 106.271 112.531 109.115 111.669 111.569C108.014 110.008 105.617 108.125 102.653 111.696C102.616 113.476 102.747 114.317 101.957 115.923C99.1985 116.792 90.9095 119.025 88.4545 117.342C87.9835 115.192 87.8665 116.175 88.6055 114.273C92.2405 111.815 91.8535 112.181 92.3735 107.91C92.7215 105.055 95.5495 103.534 98.2005 104.238C102.889 105.484 101.495 102.132 103.407 99.9044C106.591 96.1944 107.514 99.9444 111.552 95.4054Z" fill="#1D7275"/>
<path d="M168.172 8.25308L169.298 9.15658C171.789 17.4929 161.434 21.4599 156.003 24.8998C147.726 30.142 146.052 34.8148 143.298 43.7806C142.274 47.1164 137.182 46.6874 134.468 47.9834C131.707 49.3014 130.375 52.3634 128.444 54.6124C127.015 56.3554 125.304 57.8374 124.607 59.9834C124.952 61.5364 125.158 61.7534 124.619 63.2484C122.946 64.7174 123.898 64.2254 121.583 64.6304C121.771 61.7124 120.555 60.5994 119.981 58.0964C119.682 56.7914 120.806 54.2824 121.606 53.2404C122.571 51.9854 123.658 51.3684 125.217 51.1844C129.854 50.6394 128.086 44.1094 140.042 43.2514C142.78 32.472 146.908 26.426 156.943 21.0108C163.373 17.541 167.693 16.0273 168.172 8.25308Z" fill="#1D7275"/>
<path d="M192.48 49.4734C194.848 43.7226 188.087 30.2321 195.187 27.1704L195.66 27.6945C195.37 28.9093 194.044 34.1587 194.197 35.1104C195.031 40.3187 197.286 44.2894 197.095 49.7484C196.843 56.9404 191.98 54.9234 188.806 58.7954C188.055 61.6294 189.273 65.0154 188.44 68.2024C186.681 66.8314 186.154 62.0384 185.749 59.7084C187.107 56.4714 187.679 55.5404 189.6 52.6024C190.615 51.6424 191.552 50.5234 192.48 49.4734Z" fill="#1D7275"/>
<path d="M184.486 51.5394C186.603 48.8144 188.198 46.4114 191.911 46.6304C189.747 50.1254 186.353 48.1274 187.505 52.0144C187.461 54.1354 184.654 57.8604 183.4 59.7784L184.486 51.5394Z" fill="#1D7275"/>
<path d="M107.857 9.42148L108.792 9.79358C108.425 11.8557 105.774 14.1491 104.159 15.8571C103.391 14.7384 103.286 14.7757 103.103 13.4627C103.8 12.1275 106.184 11.5228 107.857 9.42148Z" fill="#1D7275"/>
<path d="M136.396 48.1814C137.438 47.6514 138.712 48.0714 139.234 49.1174C139.756 50.1634 139.327 51.4354 138.276 51.9484C137.238 52.4564 135.984 52.0324 135.468 50.9974C134.951 49.9634 135.366 48.7064 136.396 48.1814Z" fill="#1D7275"/>
<path d="M49.5485 124.333C50.8305 124.955 50.7535 124.895 51.6815 125.977C51.4125 127.596 51.6475 126.814 50.0065 128.275C48.6165 127.844 48.6565 127.941 47.7295 126.844C48.0775 125.249 48.0715 125.681 49.5485 124.333Z" fill="#197871"/>
<path d="M11.169 178.526C12.797 180.051 13.3 180.783 15.349 181.44C18.172 181.157 19.954 180.352 22.21 181.149L24.499 183.747C24.136 185.874 23.924 187.265 23.764 189.408C23.769 195.434 24.093 197.977 25.875 203.768C28.162 208.525 29.83 211.353 33.448 215.272L34.345 216.225C36.079 217.474 37.603 218.607 39.447 219.705L39.434 220.072C41.523 223.074 42.55 224.962 45.982 226.453L46.413 226.882C51.726 227.105 53.967 226.077 57.182 221.95L59.945 228.225L61.06 230.331L61.917 232.417C63.437 234.907 64.923 237.419 66.372 239.952L66.812 240.655L69.937 245.047C73.731 249.917 76.844 253.607 81.243 258.029L80.814 258.69C86.759 265.188 88.084 270.878 87.822 279.472C87.795 280.352 87.766 280.026 87.999 280.835L85.353 281.59C80.838 282.702 75.736 283.839 71.084 284.188C67.398 284.651 63.665 284.601 59.992 284.04C55.688 283.807 51.272 282.668 47.101 281.641L45.016 280.889L38.768 278.285L36.922 277.2L35.314 276.863C34.153 275.905 30.456 273.748 29.002 272.848L25.988 270.584L24.901 269.871L20.094 265.717C18.094 263.886 17.069 262.545 15.373 260.462C6.622 249.68 2.354 239.296 0.362 225.649C0.0359995 223.851 0.052 221.243 0 219.352L0.0670013 214.73L0.404999 211.609C0.800999 208.549 1.233 206.393 1.882 203.395L2.759 199.651L4.184 195.621C4.477 194.442 5.257 192.345 5.675 191.118L7.104 187.508L8.153 184.847L11.169 178.526Z" fill="#1D2D53"/>
<path d="M66.3715 239.952L66.8115 240.655L69.9365 245.047C73.7305 249.917 76.8435 253.607 81.2425 258.029L80.8135 258.69C86.7585 265.188 88.0835 270.878 87.8215 279.472C87.7945 280.352 87.7655 280.026 87.9985 280.835L85.3525 281.59C80.8375 282.702 75.7355 283.839 71.0835 284.188C67.3975 284.651 63.6645 284.601 59.9915 284.04C55.6875 283.807 51.2715 282.668 47.1005 281.641L45.0155 280.889L38.7675 278.285L36.9215 277.2L35.3135 276.863C36.6645 262.324 49.9865 247.545 62.9095 241.718C63.3845 241.377 65.7125 240.279 66.3715 239.952Z" fill="#1D2D53"/>
<path d="M45.0156 280.889C46.8776 275.604 49.4536 269.721 54.9976 267.686C67.3586 263.148 76.5556 271.995 71.0836 284.188C67.3976 284.651 63.6646 284.601 59.9916 284.04C55.6876 283.807 51.2716 282.668 47.1006 281.641L45.0156 280.889Z" fill="#1D2D53"/>
<path d="M45.0156 280.889C46.8776 275.604 49.4536 269.721 54.9976 267.686C67.3586 263.148 76.5556 271.995 71.0836 284.188C67.3976 284.651 63.6646 284.601 59.9916 284.04C61.3136 284.062 62.3046 284.248 63.4056 283.583C64.0826 281.694 64.0076 281.189 65.9116 281.157C66.9326 282.545 66.4716 282.218 67.8316 283.089C72.2036 281.49 72.6126 277.995 70.4586 274.248C68.9166 271.564 66.3536 269.619 63.3536 268.857C60.3106 268.065 57.0786 268.524 54.3766 270.131C50.3366 272.556 48.2266 277.26 47.1006 281.641L45.0156 280.889Z" fill="#1D7275"/>
<path d="M66.3715 239.952L66.8115 240.655L69.9365 245.047C73.7305 249.917 76.8435 253.607 81.2425 258.029L80.8135 258.69C73.9655 254.133 67.6745 251.58 59.1795 253.299C51.7965 254.858 45.3705 259.363 41.3885 265.771C38.8405 269.849 38.0895 272.664 36.9215 277.2L35.3135 276.863C36.6645 262.324 49.9865 247.545 62.9095 241.718C63.3845 241.377 65.7125 240.279 66.3715 239.952Z" fill="#1D2D53"/>
<path d="M66.3719 239.952L66.8119 240.655L69.9369 245.047C67.4809 244.926 64.0499 245.015 62.2109 243.42L62.9099 241.718C63.3849 241.377 65.7129 240.279 66.3719 239.952Z" fill="#197871"/>
<path d="M66.3719 239.952L66.8119 240.655C65.2529 241.655 63.8199 242.502 62.2109 243.42L62.9099 241.718C63.3849 241.377 65.7129 240.279 66.3719 239.952Z" fill="#1D3454"/>
<path d="M36.9219 277.2C38.0899 272.664 38.8409 269.849 41.3889 265.771C45.3709 259.363 51.7969 254.858 59.1799 253.299C67.6749 251.58 73.9659 254.133 80.8139 258.69C86.7589 265.188 88.0839 270.878 87.8219 279.472C87.7949 280.352 87.7659 280.026 87.9989 280.835L85.3529 281.59C92.1789 251.608 45.2809 243.54 38.7679 278.285L36.9219 277.2Z" fill="#1D7275"/>
<path d="M46.4128 226.882C51.7257 227.105 53.9668 226.077 57.1818 221.95L59.9448 228.225L61.0598 230.331L61.9168 232.417C63.4368 234.907 64.9227 237.419 66.3717 239.952C65.7127 240.279 63.3848 241.377 62.9098 241.718C49.9868 247.545 36.6648 262.324 35.3138 276.863C34.1528 275.905 30.4558 273.748 29.0018 272.848L25.9878 270.584L24.9008 269.871L20.0938 265.717C24.7558 263.75 23.9748 260.755 23.4318 256.68C24.8818 254.279 25.8778 253.374 27.7938 251.405C28.2128 249.218 28.6558 247.542 29.2438 245.388C32.0348 243.215 32.8318 242.846 35.9728 241.337C35.8948 238.175 35.6098 237.497 37.5198 235.26L36.6108 233.425C37.3358 229.66 41.4008 228.505 44.7408 227.586L45.9818 226.453L46.4128 226.882Z" fill="#1D3454"/>
<path d="M61.917 232.417C63.437 234.907 64.9229 237.419 66.3719 239.952C65.7129 240.279 63.385 241.377 62.91 241.718C49.987 247.545 36.6649 262.324 35.3139 276.863C34.1529 275.905 30.456 273.748 29.002 272.848C31.719 261.976 34.61 260.356 38.843 251.033C46.124 246.912 41.952 246.784 45.835 243.054C55.985 239.763 49.76 236.265 61.917 232.417Z" fill="#1D7275"/>
<path d="M50.8983 232.594C54.1393 231.579 57.6793 230.479 61.0593 230.331L61.9163 232.417C49.7593 236.265 55.9843 239.763 45.8343 243.054C41.9513 246.784 46.1233 246.912 38.8423 251.033C34.6093 260.356 31.7183 261.976 29.0013 272.848L25.9873 270.584C27.1583 265.843 28.3063 265.963 29.9573 261.896C30.2213 261.247 28.3463 260.278 29.1853 257.499C30.8323 255.665 32.2703 255.297 34.5483 254.333L35.0823 248.76C43.9873 245.434 38.5223 246.875 43.3093 240.474C45.1433 239.216 46.9923 239.316 49.2763 239.1C49.7623 236.712 50.2403 234.921 50.8983 232.594Z" fill="#1D2D53"/>
<path d="M59.9444 228.225L61.0594 230.331C57.6794 230.479 54.1394 231.579 50.8984 232.594C50.2404 234.921 49.7624 236.712 49.2764 239.1C46.9924 239.316 45.1434 239.216 43.3094 240.474C38.5224 246.875 43.9874 245.434 35.0824 248.76L34.5484 254.333C32.2704 255.297 30.8324 255.665 29.1854 257.499C28.3464 260.278 30.2214 261.247 29.9574 261.896C28.3064 265.963 27.1584 265.843 25.9874 270.584L24.9004 269.871C25.8474 266.398 26.1554 265.211 27.8034 262.025L27.7414 261.534C27.4354 259.279 26.9694 258.141 27.8344 256.157C29.1584 254.501 30.8294 254.126 32.8644 253.328L33.0924 247.553C36.1524 246.33 39.2184 245.971 39.6354 242.352C40.1284 238.082 42.7554 237.579 46.3624 237.189C53.7734 232.389 43.6034 230.468 59.9444 228.225Z" fill="#197871"/>
<path d="M36.6104 233.425C37.3354 229.66 41.4003 228.505 44.7403 227.586C42.8903 232.855 41.3194 231.376 36.6104 233.425Z" fill="#1D3454"/>
<path d="M45.9813 226.453L46.4123 226.882L44.6653 232.291C41.4823 233.321 40.4893 233.634 37.5193 235.26L36.6104 233.425C41.3194 231.376 42.8903 232.855 44.7403 227.586L45.9813 226.453Z" fill="#197871"/>
<path d="M11.169 178.526C12.797 180.051 13.3 180.783 15.349 181.44C18.172 181.157 19.954 180.352 22.21 181.149L24.499 183.747C24.136 185.874 23.924 187.265 23.764 189.408C23.769 195.434 24.093 197.977 25.875 203.768C23.942 211.254 22.464 215.844 15.554 220.352C10.255 223.81 2.717 220.815 0.465004 222.127C0.410004 223.343 0.362 224.428 0.362 225.649C0.0359995 223.851 0.052 221.243 0 219.352L0.0670013 214.73L0.404999 211.609C0.800999 208.549 1.233 206.393 1.882 203.395L2.759 199.651L4.184 195.621C4.477 194.442 5.257 192.345 5.675 191.118L7.104 187.508L8.153 184.847L11.169 178.526Z" fill="#1D2D53"/>
<path d="M11.169 178.526C12.797 180.051 13.3 180.783 15.349 181.44C18.172 181.157 19.954 180.352 22.21 181.149L24.499 183.747C24.136 185.874 23.924 187.265 23.764 189.408C23.769 195.434 24.093 197.977 25.875 203.768C23.942 211.254 22.464 215.844 15.554 220.352C10.255 223.81 2.717 220.815 0.465004 222.127C0.410004 223.343 0.362 224.428 0.362 225.649C0.0359995 223.851 0.052 221.243 0 219.352C6.815 220.34 12.423 220.225 17.758 215.039C20.978 211.952 22.777 207.671 22.729 203.211C22.617 198.834 20.794 194.675 17.653 191.626C14.543 188.649 11.319 187.5 7.104 187.508L8.153 184.847L11.169 178.526Z" fill="#1D7275"/>
<path d="M11.1684 178.526C12.7964 180.051 13.2993 180.783 15.3483 181.44C18.1713 181.157 19.9534 180.352 22.2094 181.149L24.4983 183.747C24.1353 185.874 23.9234 187.265 23.7634 189.408C23.6524 191.005 23.8203 192.217 23.0483 193.418C18.3543 187.718 16.1763 185.214 8.15234 184.847L11.1684 178.526Z" fill="#1D2D53"/>
<path d="M4.1833 195.621C7.2833 195.254 11.1743 194.617 13.4443 196.996C20.7013 204.602 14.3753 211.436 6.4993 213.197L0.404297 211.609C0.800297 208.549 1.2323 206.393 1.8813 203.395L2.7583 199.651L4.1833 195.621Z" fill="#1D2D53"/>
<path d="M1.88184 203.395L2.75883 199.651L3.17883 200.088C4.24183 201.179 4.64283 201.861 6.10483 202.107C7.72083 201.709 8.78784 201.409 10.3608 200.872L10.9138 201.303C10.9608 203.144 11.0588 203.052 10.0908 204.591C7.19384 206.437 4.44584 205.052 1.88184 203.395Z" fill="#1D7275"/>
<path d="M5.67441 191.118C7.33841 192.283 13.4584 191.179 15.7744 193.925C26.4394 206.569 14.5204 218.902 0.0664062 214.73L0.404404 211.609L6.4994 213.197C14.3754 211.436 20.7014 204.602 13.4444 196.996C11.1744 194.617 7.2834 195.254 4.1834 195.621C4.4764 194.442 5.25641 192.345 5.67441 191.118Z" fill="#1D7275"/>
<path d="M33.448 215.272L34.345 216.225C36.079 217.474 37.6031 218.607 39.4471 219.705L39.4341 220.072C41.5231 223.074 42.55 224.962 45.982 226.453L44.741 227.586C41.401 228.505 37.3361 229.66 36.6111 233.425L37.5201 235.26C35.6101 237.497 35.8951 238.175 35.9731 241.337C32.8321 242.846 32.035 243.215 29.244 245.388C28.656 247.542 28.2131 249.218 27.7941 251.405C25.8781 253.374 24.8821 254.279 23.4321 256.68C23.9751 260.755 24.756 263.75 20.094 265.717C18.094 263.886 17.069 262.545 15.373 260.462C16.542 258.774 18.247 255.817 19.369 253.992C15.252 247.753 15.672 247.093 20.916 242.325C19.409 234.719 21.058 234.432 27.592 232.259C24.725 223.832 28.279 226.817 31.038 220.922C30.832 217.092 30.465 217.235 33.448 215.272Z" fill="#1D7275"/>
<path d="M34.3443 216.225C36.0783 217.474 37.6023 218.607 39.4463 219.705L39.4333 220.072C38.9913 220.298 38.1363 220.905 37.6913 221.202C36.1013 223.782 37.5433 223.945 36.6093 226.161C34.3363 226.346 33.1953 226.34 31.0493 227.016C29.7633 228.361 29.9633 229.702 29.6013 231.699C24.1353 224.745 31.2143 226.175 33.7693 223.968C32.3943 220.311 31.6813 219.361 34.3443 216.225Z" fill="#1D3454"/>
<path d="M20.5394 244.718C21.7434 244.837 21.3354 244.725 22.4724 245.281C20.1414 253.175 23.6444 249.86 25.1964 251.827L22.3584 254.045C21.6224 254.655 21.7784 254.495 20.8594 254.875C18.6994 250.659 17.1704 248.375 20.5394 244.718Z" fill="#1D3454"/>
<path d="M28.3515 234.068C28.7245 234.059 29.1665 234.259 29.5645 234.389L29.4045 235.273C25.0305 237.972 23.7805 238.637 23.8705 243.71C23.1105 243.971 23.5325 243.95 22.6115 243.567L22.2975 241.839C21.2045 235.907 22.8805 234.98 28.3515 234.068Z" fill="#1D3454"/>
<path d="M32.6788 234.736C34.1638 236.126 34.3528 237.094 33.8778 238.97C32.3788 240.7 30.8538 241.105 28.7258 242.016L27.9268 241.772C28.4308 239.195 31.8338 240.53 32.6788 234.736Z" fill="#1D3454"/>
<path d="M267.97 221.441C270.003 224.392 270.866 225.215 274.054 226.836L274.869 227.053L276.139 227.043C278.675 226.615 279.098 226.439 281.433 225.336C289.776 242.365 304.591 249.135 321.868 238.834C320.732 242.276 320.067 244.386 318.462 247.639C316.513 251.25 314.561 254.704 312.067 257.98C310.237 260.176 308.38 262.349 306.495 264.498L305.914 264.917C304.574 266.215 303.159 267.795 301.609 268.725C291.996 277.587 277.46 283.013 264.545 284.246C262.596 284.359 260.712 284.497 258.756 284.47C251.448 284.644 245.855 283.542 238.843 281.733L233.951 280.403C233.457 275.641 233.764 271.163 235.866 266.818C236.313 265.894 236.145 266.382 235.934 265.104C237.078 263.966 237.873 263.408 239.148 262.462C241.636 260.144 244.098 257.799 246.533 255.427L250.21 251.447C259.064 240.184 262.394 234.378 267.97 221.441Z" fill="#1D2D53"/>
<path d="M246.533 255.427C261.629 256.172 268.5 272.242 258.756 284.47C251.448 284.644 245.855 283.542 238.843 281.733L233.951 280.403C233.457 275.641 233.764 271.163 235.866 266.818C236.313 265.894 236.145 266.382 235.934 265.104C237.078 263.966 237.873 263.408 239.148 262.462C241.636 260.144 244.098 257.799 246.533 255.427Z" fill="#1D2D53"/>
<path d="M239.148 262.462L239.807 262.328C244.194 261.396 247.089 259.118 252.673 262.624C255.278 264.253 257.082 266.898 257.647 269.918C258.174 272.581 257.568 275.343 255.974 277.542C249.178 287.066 235.056 276.03 245.448 269.816L246.771 270.235C246.993 272.5 246.796 274.978 247.966 276.647C253.053 278.592 254.983 271.711 252.436 268.441C251.387 267.095 248.02 264.317 246.343 264.424C237.275 265.003 237.165 275.945 238.843 281.733L233.951 280.403C233.457 275.641 233.764 271.163 235.866 266.818C236.313 265.894 236.145 266.382 235.934 265.104C237.078 263.966 237.873 263.408 239.148 262.462Z" fill="#1D7275"/>
<path d="M276.139 227.043C278.675 226.615 279.098 226.439 281.433 225.336C289.776 242.365 304.591 249.135 321.868 238.834C320.732 242.276 320.067 244.386 318.462 247.639C313.402 246.791 311.995 248.063 307.86 250.732C306.025 249.772 303.964 248.5 302.148 247.445L297.099 248.901C291.465 242.876 289.524 246.045 286.18 242.647C284.615 236.918 281.685 237.751 278.488 233.495C277.673 232.41 276.58 228.538 276.139 227.043Z" fill="#1D7275"/>
<path d="M250.209 251.447C256.536 252.869 260.847 255.24 264.542 260.961C267.735 265.801 268.753 271.758 267.347 277.384C266.784 279.692 265.61 282.119 264.544 284.246C262.595 284.359 260.711 284.497 258.755 284.47C268.499 272.242 261.628 256.172 246.532 255.427L250.209 251.447Z" fill="#1D7275"/>
<path d="M274.983 241.066C270.844 239.059 266.377 236.114 270.995 231.393L271.453 231.85C271.59 236.781 271.661 237.263 276.135 239.223L276.834 239.523C277.16 241.732 277.388 245.14 278.673 246.759C284.014 248.413 285.037 249.417 288.801 253.654L289.416 254.352C291.317 255.111 294.399 254.562 296.572 254.365C299.465 257.202 300.821 258.126 304.313 259.846L304.635 263.077C302.764 263.49 301.356 264.005 299.51 263.601C297.485 261.288 300.266 260.626 297.388 257.681C289.444 254.86 282.404 265.868 284.091 249.833C275.501 249.848 275.573 249.871 274.983 241.066Z" fill="#1D7275"/>
<path d="M274.054 226.836L274.869 227.053C277.111 235.104 280.381 238.057 285.583 244.663C287.065 246.546 289.352 246.455 291.69 246.592C292.232 247.153 292.785 247.703 293.347 248.244C294.962 249.786 295.376 250.334 297.717 250.079C302.107 249.601 305.168 251.59 309.339 253.178C302.748 256.225 303.06 257.067 297.685 252.117L290.59 252.542C289.217 250.751 287.803 248.991 286.348 247.265C279.565 245.491 279.861 244.637 278.123 237.995C272.021 234.848 271.896 233.404 274.054 226.836Z" fill="#1D7275"/>
<path d="M290.984 261.935C274.779 266.138 285.132 255.716 276.52 253.388C271.182 251.945 270.277 246.392 272.798 243.402C275.934 245.931 269.173 250.913 281.336 252.144C281.416 261.838 283.264 261.622 292.201 260.101C294.31 269.41 297.42 268.338 305.914 264.917C304.574 266.215 303.159 267.795 301.609 268.725C298.68 267.33 296.691 269.711 293.544 267.997C291.952 266.19 291.667 264.291 290.984 261.935Z" fill="#1D7275"/>
<path d="M304.312 259.846C307.362 256.879 307.987 256.261 312.066 257.98C310.236 260.176 308.38 262.349 306.495 264.498L304.635 263.077L304.312 259.846Z" fill="#197871"/>
<path d="M29.7969 147.049C29.2119 144.345 28.2179 141.522 28.6799 138.948C30.7339 136.503 37.0539 140.354 41.1239 139.995C45.5919 139.6 51.6089 136.457 55.5209 136.541C52.4549 141.54 49.6639 142.179 44.2909 144.111C48.9369 144.963 51.3949 145.356 54.4869 149.251C48.2959 168.689 49.8529 190.989 53.8439 210.749C54.9039 214.466 55.9429 218.299 57.1819 221.95C53.9669 226.077 51.7259 227.105 46.4129 226.882L45.9819 226.453C42.5499 224.962 41.5229 223.074 39.4339 220.072L39.4469 219.705C37.6029 218.607 36.0789 217.474 34.3449 216.225L33.4479 215.272C29.8299 211.353 28.1619 208.525 25.8749 203.768C24.0929 197.977 23.7689 195.434 23.7639 189.408C23.9239 187.265 24.1359 185.874 24.4989 183.747L22.2099 181.149C19.9539 180.352 18.1719 181.157 15.3489 181.44C13.2999 180.783 12.7969 180.051 11.1689 178.526C12.3519 176.191 13.4919 173.835 14.5909 171.459C17.6979 163.665 18.5389 160.152 20.0319 151.973C23.4009 153.715 22.2739 155.991 24.9319 157.823C26.0109 156.854 25.5969 157.095 25.9609 155.293C26.5579 152.335 28.3719 150.455 29.7969 147.049Z" fill="#1D2D53"/>
<path d="M35.4257 166.793C36.2997 171.744 37.4577 178.914 38.8337 183.572C41.4567 193.435 44.2657 200.406 49.1497 209.505C50.2157 209.818 52.8947 210.685 53.8437 210.749C54.9037 214.466 55.9427 218.299 57.1817 221.95C53.9667 226.077 51.7257 227.105 46.4127 226.882L45.9817 226.453C42.5497 224.962 41.5227 223.074 39.4337 220.072L39.4467 219.705C37.6027 218.607 36.0787 217.474 34.3447 216.225L33.4477 215.272C29.8297 211.353 28.1617 208.525 25.8747 203.768C24.0927 197.977 23.7687 195.434 23.7637 189.408C23.9237 187.265 24.1357 185.874 24.4987 183.747C26.2887 176.693 29.7637 171.349 35.4257 166.793Z" fill="#F9C190"/>
<path d="M49.1496 209.505C50.2156 209.818 52.8946 210.685 53.8436 210.749C54.9036 214.466 55.9426 218.299 57.1816 221.95C53.9666 226.077 51.7256 227.105 46.4126 226.882L45.9816 226.453C42.5496 224.962 41.5226 223.074 39.4336 220.072L39.4466 219.705C40.6576 218.044 41.2666 215.179 41.8576 213.111C44.6086 211.26 45.1296 210.945 48.2726 209.734L49.1496 209.505Z" fill="#F3C01D"/>
<path d="M38.8335 183.572C41.4565 193.435 44.2655 200.406 49.1495 209.505L48.2725 209.734C45.3055 207.469 41.2625 207.078 38.5475 203.73C34.2925 198.48 33.1235 188.188 38.8335 183.572Z" fill="#F6A575"/>
<path d="M14.5909 171.459C14.9299 171.598 15.2279 171.743 15.6009 171.758C25.3359 172.15 27.2969 169.88 33.8279 164.122C35.0299 164.717 34.7889 165.082 35.4259 166.793C29.7639 171.349 26.2889 176.693 24.4989 183.747L22.2099 181.149C19.9539 180.352 18.1719 181.157 15.3489 181.44C13.2999 180.783 12.7969 180.051 11.1689 178.526C12.3519 176.191 13.4919 173.835 14.5909 171.459Z" fill="#1D7275"/>
<path d="M310.791 173.713L313.325 179.011C320.546 191.951 326.564 207.797 325.049 222.873C324.979 226.783 324.347 230.663 323.173 234.394L323.027 234.794C322.672 236.075 322.299 237.6 321.868 238.834C304.591 249.135 289.776 242.365 281.433 225.336L283.484 223.276L284.41 221.314L285.287 220.339C286.973 219.374 289.608 217.282 291.249 216.058C293.99 213.314 294.671 212.45 296.843 209.227C302.418 199.103 303.167 188.997 299.289 178.203C301.62 178.043 302.813 178.159 304.827 177.041L304.091 176.469L304.022 173.996C306.763 173.522 308.046 173.64 310.791 173.713Z" fill="#1D2D53"/>
<path d="M283.484 223.276L284.41 221.314C288.27 229.13 292.479 236.13 301.327 238.938C309.572 241.555 315.718 238.45 321.075 232.367C321.83 232.775 322.035 232.904 322.885 233.084L323.173 234.394L323.027 234.794C322.672 236.075 322.299 237.6 321.868 238.834C304.591 249.135 289.776 242.365 281.433 225.336L283.484 223.276Z" fill="#1D7275"/>
<path d="M281.433 225.336L283.484 223.276C287.335 238.106 305.062 247.372 317.648 238.581C318.856 237.737 322.154 234.789 323.027 234.794C322.672 236.075 322.299 237.6 321.868 238.834C304.591 249.135 289.776 242.365 281.433 225.336Z" fill="#1D2D53"/>
<path d="M321.074 232.367C326.083 223.569 317.359 209.218 308.263 218.024C307.182 219.07 306.973 219.378 306.902 220.793C307.847 222.143 310.561 222.775 312.346 223.474L312.642 224.26C307.445 231.307 299.416 217.303 310.56 213.658C319.943 210.588 321.702 221.323 325.048 222.873C324.978 226.783 324.346 230.663 323.172 234.394L322.884 233.084C322.034 232.904 321.829 232.775 321.074 232.367Z" fill="#1D7275"/>
<path d="M291.249 216.058C293.99 213.314 294.671 212.45 296.843 209.227C298.362 210.552 298.976 210.832 299.428 212.791C298.667 217.247 294.693 216.649 291.249 216.058Z" fill="#1D7275"/>
<path d="M310.79 173.713L313.324 179.011C310.121 177.451 308.301 176.219 304.826 177.041L304.09 176.469L304.021 173.996C306.762 173.522 308.045 173.64 310.79 173.713Z" fill="#1D7275"/>
<path d="M316.216 197.117C317.237 196.869 318.313 197.201 319.015 197.983C319.718 198.765 319.935 199.869 319.58 200.858C319.225 201.848 318.356 202.562 317.316 202.719C315.805 202.947 314.382 201.944 314.087 200.444C313.793 198.944 314.731 197.478 316.216 197.117Z" fill="#1D676E"/>
<path d="M306.93 202.672C307.698 202.18 308.676 202.158 309.465 202.615C310.254 203.073 310.722 203.933 310.676 204.844C310.63 205.754 310.08 206.563 309.249 206.94C308.086 207.466 306.714 207.006 306.105 205.884C305.495 204.763 305.855 203.361 306.93 202.672Z" fill="#1D7275"/>
<path d="M270.905 124.877C279.355 126.428 285.835 127.471 294.049 130.118C297.649 131.277 301.869 133.591 304.118 134.317L304.099 137.717C304.683 150.505 304.518 159.09 309.522 171.062L310.791 173.713C308.046 173.64 306.763 173.522 304.022 173.996L304.091 176.469L304.827 177.041C302.813 178.159 301.62 178.043 299.289 178.203C297.853 175.357 297.402 174.357 295.315 171.82L294.246 170.511L291.066 167.504L291.751 166.804C292.936 156.721 281.726 144.147 271.549 145.602C269.174 145.126 266.315 143.757 264.025 142.788L260.4 141.315L257.48 139.912L256.349 139.004L255.92 138.983L256.152 136.904C258.519 127.955 262.506 126.663 270.905 124.877Z" fill="#1D2D53"/>
<path d="M270.905 124.877C279.355 126.428 285.835 127.471 294.049 130.118C297.649 131.277 301.869 133.591 304.118 134.317L304.099 137.717C304.683 150.505 304.518 159.09 309.522 171.062C307.961 171.073 306.799 171.292 305.544 170.452C304.557 168.855 305.049 165.25 305.036 163.233C304.5 162.195 300.545 156.81 300.573 156.697C302.736 147.931 296.68 142.433 288.158 140.85C284.211 136.665 283.262 136.133 277.937 134.841L277.989 136.171L277.545 136.117C274.192 135.671 270.026 133.582 267.399 134.826C267.053 135.722 266.937 136.109 266.707 137.042C262.14 138.162 261.896 137.503 257.48 139.912L256.349 139.004L255.92 138.983L256.152 136.904C258.519 127.955 262.506 126.663 270.905 124.877Z" fill="#1D7275"/>
<path d="M270.904 124.877C279.354 126.428 285.834 127.471 294.048 130.118C297.648 131.277 301.868 133.591 304.117 134.317L304.098 137.717C299.407 134.607 290.673 131.653 285.138 130.687C271.696 128.34 267.155 129.388 256.151 136.904C258.518 127.955 262.505 126.663 270.904 124.877Z" fill="#1D2D53"/>
<path d="M256.349 139.004C259.417 135.856 274.826 128.876 278.271 132.692L277.937 134.841L277.989 136.171L277.545 136.117C274.192 135.671 270.026 133.582 267.399 134.826C267.053 135.722 266.937 136.109 266.707 137.042C262.14 138.162 261.896 137.503 257.48 139.912L256.349 139.004Z" fill="#1D3454"/>
<path d="M264.024 142.788C272.112 138.973 288.475 146.881 292.025 154.866C294.214 159.787 294.442 165.23 294.245 170.511L291.065 167.504L291.75 166.804C292.935 156.721 281.725 144.147 271.548 145.602C269.173 145.126 266.314 143.757 264.024 142.788Z" fill="#1D7275"/>
<path d="M257.479 139.912C261.895 137.503 262.139 138.162 266.706 137.042C266.936 136.109 267.052 135.722 267.398 134.826C270.025 133.582 274.191 135.671 277.544 136.117L277.988 136.171C282.881 137.412 285.572 138.308 285.444 143.798C283.126 144.485 269.33 135.798 260.399 141.315L257.479 139.912Z" fill="#1D7275"/>
<path d="M295.314 171.82C299.503 167.793 295.301 161.488 296.751 158.345C299.167 158.226 301.775 161.996 302.149 164.215C302.674 167.339 300.076 170.158 301.304 173.085C302.657 173.655 302.599 173.724 304.021 173.996L304.09 176.469L304.826 177.041C302.812 178.159 301.619 178.043 299.288 178.203C297.852 175.357 297.401 174.357 295.314 171.82Z" fill="#1D7275"/>
<path d="M288.544 142.763C295.142 145.009 300.611 149.58 296.028 156.775C296.111 156.821 288.406 147.046 287.373 145.887C287.229 144.277 287.497 144.499 288.544 142.763Z" fill="#1D7275"/>
<path d="M286.742 182.418C288.131 177.833 288.718 170.651 289.946 167.391L291.066 167.504L294.246 170.511L295.315 171.82C297.402 174.357 297.853 175.357 299.289 178.203C303.167 188.997 302.418 199.103 296.843 209.227C294.671 212.45 293.99 213.314 291.249 216.058C289.608 217.282 286.973 219.374 285.287 220.339L284.41 221.314L283.484 223.276L281.433 225.336C279.098 226.439 278.675 226.615 276.139 227.043L274.869 227.053L274.054 226.836C270.866 225.215 270.003 224.392 267.97 221.441C268.544 218.825 270.057 214.278 270.854 211.417L275.854 209.515L276.068 209.169C280.741 200.738 284.327 191.75 286.742 182.418Z" fill="#F9C190"/>
<path d="M270.854 211.417L275.854 209.515C282.916 211.769 283.816 212.943 285.287 220.339L284.41 221.314L283.484 223.276L281.433 225.336C279.098 226.439 278.675 226.615 276.139 227.043L274.869 227.053L274.054 226.836C270.866 225.215 270.003 224.392 267.97 221.441C268.544 218.825 270.057 214.278 270.854 211.417Z" fill="#F3C01D"/>
<path d="M286.741 182.418C294.999 193.72 289.235 205.933 276.067 209.169C280.74 200.738 284.326 191.75 286.741 182.418Z" fill="#F6A575"/>
<path d="M271.549 145.602C281.726 144.147 292.936 156.721 291.751 166.804L291.066 167.504L289.946 167.391C288.718 170.651 288.131 177.833 286.742 182.418C284.327 191.75 280.741 200.738 276.068 209.169L275.854 209.515L270.854 211.417C275.731 191.324 276.209 175.928 273.458 155.57C272.958 151.542 272.763 149.435 271.549 145.602Z" fill="#1D2D53"/>
<path d="M84.5742 137.652C94.2912 127.484 104.391 126.19 117.854 127.398C120.927 128.272 123.273 128.767 125.212 131.438C125.605 133.363 125.651 132.42 124.933 134.358C123.767 135.372 122.772 135.785 121.169 135.525C109.061 133.569 104.14 131.171 91.8692 135.626C90.1262 136.259 85.7242 138.412 84.5742 137.652Z" fill="#40210E"/>
<path d="M238.899 138.383C218.706 127.172 206.825 137.803 200.994 135.384C199.819 134.896 199.647 134.214 199.175 133.147C199.409 125.063 215.286 126.794 220.617 127.166C225.442 128.488 238.351 132.471 238.899 138.383Z" fill="#40210E"/>
<path d="M57.955 129.853C58.101 130.731 58.528 132.959 58.586 133.744C59.362 135.505 60.215 137.614 61.172 139.25C63.832 141.76 65.43 142.299 68.935 143.388L69.456 144C64.011 147.409 60.909 146.136 58.677 155.69C58.334 157.203 58.024 158.723 57.747 160.25C56.793 156.173 55.197 152.338 54.487 149.251C51.395 145.356 48.937 144.963 44.291 144.111C49.664 142.179 52.455 141.54 55.521 136.541C56.458 134.121 56.194 131.352 57.955 129.853Z" fill="white"/>
<path d="M255.92 138.983L256.349 139.004L257.48 139.912L260.4 141.315L264.025 142.788C266.315 143.757 269.174 145.126 271.549 145.602C272.763 149.435 272.958 151.542 273.458 155.57C269.947 154.14 255.885 148.969 254.185 146.724C254.989 143.768 254.508 141.55 255.92 138.983Z" fill="#F6A575"/>
<path d="M81.2425 258.029C89.4565 265.825 93.8265 269.058 103.441 274.575C98.2485 277.113 93.5785 279.217 87.9985 280.835C87.7655 280.026 87.7945 280.352 87.8215 279.472C88.0835 270.878 86.7585 265.188 80.8135 258.69L81.2425 258.029Z" fill="#1D2D53"/>
<path d="M235.933 265.104C236.144 266.382 236.312 265.894 235.865 266.818C233.763 271.163 233.456 275.641 233.95 280.403L228.517 278.355C228.367 275.797 228.232 273.239 228.114 270.679L235.933 265.104Z" fill="#1D3454"/>
<path d="M221.106 275.211C222.054 274.203 226.65 271.565 228.114 270.679C228.232 273.239 228.367 275.797 228.517 278.355L221.106 275.211Z" fill="#1D7275"/>
<path d="M78.0525 164.807C89.0565 157.897 95.6345 153.687 109.317 156.476C120.908 158.84 131.889 170.51 129.603 182.718C129.643 190.783 127.069 197.135 120.571 202.201C115.016 206.477 107.987 208.365 101.036 207.449C88.4705 205.856 77.4365 193.94 79.2005 180.982C72.0505 179.603 65.3775 164.323 69.5825 160.884C73.6995 162.576 72.3725 163.391 78.0525 164.807Z" fill="white"/>
<path d="M128.098 181.468C129.018 190.39 123.648 198.763 115.157 201.648C106.665 204.534 97.3057 201.167 92.5987 193.533C87.8917 185.898 89.0877 176.024 95.4807 169.733C101.874 163.443 111.766 162.407 119.324 167.236C124.266 170.394 127.496 175.635 128.098 181.468Z" fill="#582D0F"/>
<path d="M104.481 171.097C108.167 167.789 115.999 169.012 119.534 172.406C130.255 182.702 124.691 199.25 108.678 198.569C98.3988 198.132 92.3088 182.992 97.9908 177.525C96.9208 175.667 97.2358 173.321 98.7598 171.812C100.284 170.302 102.633 170.009 104.481 171.097Z" fill="#40210E"/>
<path d="M97.9909 177.525C96.9209 175.667 97.2359 173.321 98.7599 171.812C100.284 170.302 102.633 170.009 104.481 171.097C106.188 172.102 107.087 174.066 106.731 176.016C106.376 177.965 104.841 179.485 102.888 179.822C100.936 180.16 98.9799 179.242 97.9909 177.525Z" fill="white"/>
<path d="M78.0525 164.807C89.0565 157.897 95.6345 153.687 109.317 156.476C120.908 158.84 131.889 170.51 129.603 182.718L129.568 181.548L128.097 181.468C127.495 175.635 124.265 170.394 119.323 167.236L120.227 166.299C107.978 157.966 91.1865 159.471 82.6305 172.177C80.8555 174.826 79.6845 177.831 79.2005 180.982C72.0505 179.603 65.3775 164.323 69.5825 160.884C73.6995 162.576 72.3725 163.391 78.0525 164.807Z" fill="#40210E"/>
<path d="M120.227 166.299C125.62 170.679 127.747 175.008 129.568 181.548L128.097 181.468C127.495 175.635 124.265 170.394 119.323 167.236L120.227 166.299Z" fill="#D7C3B4"/>
<path d="M195.088 182.333C192.105 160.239 221.093 149.58 237.722 158.99C241.192 160.954 243.022 162.156 246.222 164.635C251.12 163.375 252.216 162.796 255.963 159.749C256.562 171.088 254.789 174.784 245.601 181.177C244.25 220.32 193.433 211.483 195.408 183.491L195.088 182.333Z" fill="#582D0F"/>
<path d="M195.088 182.333C192.105 160.239 221.093 149.58 237.722 158.99C241.192 160.954 243.022 162.156 246.222 164.635C251.12 163.375 252.216 162.796 255.963 159.749C256.562 171.088 254.789 174.784 245.601 181.177C244.25 220.32 193.433 211.483 195.408 183.491L196.685 184.567C197.241 193.552 203.97 200.941 212.863 202.335C221.756 203.729 230.422 198.752 233.7 190.368C236.978 181.985 233.987 172.449 226.507 167.441C219.027 162.432 209.071 163.298 202.568 169.522L201.857 168.846C197.743 173.679 196.689 176.16 195.088 182.333Z" fill="white"/>
<path d="M195.088 182.333C192.105 160.239 221.093 149.58 237.722 158.99C241.192 160.954 243.022 162.156 246.222 164.635C251.12 163.375 252.216 162.796 255.963 159.749C256.562 171.088 254.789 174.784 245.601 181.177C241.512 160.413 216.543 154.497 201.857 168.846C197.743 173.679 196.689 176.16 195.088 182.333Z" fill="#40210E"/>
<path d="M195.089 182.333C196.69 176.16 197.744 173.679 201.858 168.846L202.569 169.522C198.489 173.427 196.337 178.931 196.686 184.567L195.409 183.491L195.089 182.333Z" fill="#E8DED6"/>
<path d="M209.565 170.945C213.333 167.367 222.293 170.058 225.663 173.773C228.295 176.719 229.649 180.591 229.426 184.535C229.191 188.76 227.29 192.902 223.97 195.582C220.98 197.97 217.15 199.045 213.353 198.562C201.726 197.037 196.285 180.357 203.395 176.05C203.197 174.441 203.833 172.842 205.082 171.808C206.331 170.774 208.021 170.449 209.565 170.945Z" fill="#40210E"/>
<path d="M203.395 176.05C203.197 174.441 203.833 172.842 205.082 171.808C206.331 170.774 208.021 170.449 209.565 170.945C211.812 171.668 213.188 173.929 212.797 176.256C212.406 178.583 210.366 180.271 208.007 180.219C205.648 180.167 203.684 178.392 203.395 176.05Z" fill="white"/>
<path d="M133.443 228.134C138.461 225.774 184.349 226.202 191.084 227.597C192.639 227.606 192.541 227.662 193.897 228.476C197.576 234.511 188.19 247.504 183.271 251.264C169.496 260.368 155.16 261.453 141.344 251.525C135.891 247.589 129.937 239.678 129.441 232.789C129.282 230.58 131.028 228.011 133.443 228.134Z" fill="#961B0B"/>
<path d="M133.442 228.134C138.46 225.774 184.348 226.202 191.083 227.597C188.306 231.619 184.934 233.462 180.086 234.141C168.972 235.698 139.976 238.738 133.442 228.134Z" fill="white"/>
<path d="M141.344 251.525C154.218 241.787 170.12 242.67 183.271 251.264C169.496 260.368 155.16 261.453 141.344 251.525Z" fill="#F37F5B"/>
<path d="M224.457 211.428C235.704 209.018 246.757 216.242 249.064 227.51C251.371 238.778 244.046 249.764 232.758 251.968C221.614 254.144 210.799 246.934 208.522 235.811C206.245 224.688 213.355 213.807 224.457 211.428Z" fill="#F6A575"/>
<path d="M93.7114 211.423C105.019 210.221 115.171 218.387 116.422 229.69C117.672 240.994 109.55 251.181 98.2524 252.48C86.8854 253.787 76.6224 245.604 75.3644 234.232C74.1064 222.859 82.3334 212.631 93.7114 211.423Z" fill="#F6A575"/>
<path d="M162.107 203.421C166.578 204.513 171.047 210.335 171.875 214.768C172.891 220.21 166.714 219.576 163.263 219.475C159.368 219.513 156.018 220.586 153.59 217.503C152.424 212.502 157.59 205.372 162.107 203.421Z" fill="#F6A575"/>
<defs>
<linearGradient id="paint0_linear_274_24" x1="33.1163" y1="121.937" x2="34.2423" y2="126.358" gradientUnits="userSpaceOnUse">
<stop stop-color="#1F2657"/>
<stop offset="1" stop-color="#185064"/>
</linearGradient>
</defs>
</svg>
