<svg width="319" height="282" viewBox="0 0 319 282" fill="none" xmlns="http://www.w3.org/2000/svg">
<path d="M139.724 0.516998C141.803 0.187998 146.731 0.097 149.009 0C166.888 0.288 175.082 1.84001 190.655 10.739C201.698 7.62701 209.435 8.561 220.073 12.267L224.55 14.436C241.983 22.847 257.278 35.11 269.278 50.298L271.79 53.756C276.277 59.676 279.595 65.483 283.279 71.904C285.178 75.564 286.939 79.294 288.558 83.087C292.594 93.356 295.984 104.458 297.105 115.488L297.728 120.261C297.898 122.565 298.118 124.975 298.183 127.275L298.261 131.392L298.314 133.75C298.839 142.781 298.746 149.33 300.596 158.328C301.546 160.9 302.488 163.527 303.473 166.079L304.564 168.716L306.991 174.047C314.339 186.001 319.117 201.41 318.16 215.527C318.098 219.469 317.352 223.85 316.498 227.706L315.001 232.518C314.043 235.125 313.129 237.712 311.995 240.25C311.242 241.702 309.936 244.473 308.935 245.605C308.084 246.965 307.109 248.633 306.177 249.907C304.327 252.128 302.572 254.24 300.614 256.372L297.708 259.372C297.322 259.671 295.906 260.811 295.579 260.99C286.713 269.875 271.364 275.864 258.995 276.91C256.678 277.123 255.19 277.226 252.87 277.19C246.524 277.233 240.916 276.338 234.808 274.762L229.146 273.171L223.67 271.054C221.273 270.103 218.89 268.941 216.547 267.85C214.032 268.451 203.328 274.052 199.329 275.381C173.748 283.88 143.815 283.654 118.287 275.156C113.535 273.575 106.405 269.889 101.674 267.767C86.9908 258.785 78.5957 251.937 68.0468 238.133L65.2358 233.972L65.0618 233.215C63.7628 231.722 61.6568 227.617 60.4748 225.646L59.8588 223.994L57.9418 220.12L56.3018 215.89C53.1868 219.195 51.6958 219.94 47.1308 220.624C42.1528 218.715 41.5828 217.295 38.3728 212.977L37.5178 213.088C36.9778 212.396 35.1638 211.072 34.3818 210.454L32.9998 209.015C28.9928 204.874 27.8028 203.296 25.3328 198.106C24.4248 195.658 23.6758 191.799 23.1698 189.17C23.0618 185.106 23.0478 182.644 23.8688 178.681C19.9908 173.984 20.8768 176.297 15.0518 176.193C14.2248 176.179 11.5618 174.472 10.6338 173.899L13.7328 167.254C17.0748 159.773 18.0328 155.293 19.1068 147.246L18.9198 146.378C19.8438 140.392 19.4688 133.503 19.9738 127.162L20.0518 123.978L20.5818 119.149C21.7648 109.995 23.3278 102.934 25.9118 94.135C27.4988 89.151 29.3238 83.443 31.8068 78.828L32.5807 76.707C33.5187 75.372 35.8068 70.836 36.6888 69.172C38.7758 65.192 41.1408 61.363 43.7658 57.715C45.8568 53.888 49.2608 50.058 52.1208 46.806C55.3388 42.572 60.0038 38.101 63.8758 34.404L67.1808 31.557L71.2648 28.146L77.9698 22.955L81.3348 20.685L84.9418 18.398C86.5228 17.312 88.7918 16.111 90.5028 15.14L94.3288 13.263C98.0288 11.495 101.783 9.84301 105.585 8.30701L107.551 7.526C117.735 4.038 125.55 1.95999 136.23 0.838989L139.724 0.516998Z" fill="#F9C190"/>
<path d="M139.724 0.516998C141.803 0.187998 146.731 0.097 149.009 0C166.888 0.288 175.082 1.84001 190.655 10.739C201.698 7.62701 209.435 8.561 220.073 12.267L224.55 14.436C241.983 22.847 257.278 35.11 269.278 50.298L271.79 53.756C276.277 59.676 279.595 65.483 283.279 71.904C285.178 75.564 286.939 79.294 288.558 83.087C292.594 93.356 295.984 104.458 297.105 115.488L297.728 120.261C297.898 122.565 298.118 124.975 298.183 127.275L298.261 131.392L298.314 133.75C298.839 142.781 298.746 149.33 300.596 158.328C301.546 160.9 302.488 163.527 303.473 166.079L304.564 168.716L306.991 174.047C300.546 171.419 299.74 171.44 293.188 173.643C292.205 171.693 290.95 169.664 289.833 167.768L288.715 166.567C287.751 165.55 286.225 164.199 285.174 163.208C290.417 157.006 276.818 140.962 266.087 141.705C264.403 141.342 258.508 138.883 256.579 138.12L255.171 137.553L253.095 136.377L251.017 135.537L249.21 134.411C244.973 132.624 239.638 129.344 235.801 126.853L233.169 125.174C231.342 124.119 228.897 122.377 227.084 121.17C222.949 117.998 218.915 114.696 214.987 111.269C213.138 109.496 211.319 107.692 209.532 105.856L207.032 103.102C195.849 90.792 191.403 82.808 185.15 67.708L184.699 67.71C182.752 69.924 180.766 72.104 178.742 74.248L177.668 75.596C169.922 82.948 162.09 90.582 152.874 96.046L150.315 97.605C137.226 105.768 123.841 111.16 109.33 116.141C83.0328 125.166 54.5348 124.75 50.1978 158.536C49.1508 176.448 48.7028 186.873 52.9288 204.765C54.2188 207.793 55.3888 212.579 56.3018 215.89C53.1868 219.195 51.6958 219.94 47.1308 220.624C42.1528 218.715 41.5828 217.295 38.3728 212.977L37.5178 213.088C36.9778 212.396 35.1638 211.072 34.3818 210.454L32.9998 209.015C28.9928 204.874 27.8028 203.296 25.3328 198.106C24.4248 195.658 23.6758 191.799 23.1698 189.17C23.0618 185.106 23.0478 182.644 23.8688 178.681C19.9908 173.984 20.8768 176.297 15.0518 176.193C14.2248 176.179 11.5618 174.472 10.6338 173.899L13.7328 167.254C17.0748 159.773 18.0328 155.293 19.1068 147.246L18.9198 146.378C19.8438 140.392 19.4688 133.503 19.9738 127.162L20.0518 123.978L20.5818 119.149C21.7648 109.995 23.3278 102.934 25.9118 94.135C27.4988 89.151 29.3238 83.443 31.8068 78.828L32.5807 76.707C33.5187 75.372 35.8068 70.836 36.6888 69.172C38.7758 65.192 41.1408 61.363 43.7658 57.715C45.8568 53.888 49.2608 50.058 52.1208 46.806C55.3388 42.572 60.0038 38.101 63.8758 34.404L67.1808 31.557L71.2648 28.146L77.9698 22.955L81.3348 20.685L84.9418 18.398C86.5228 17.312 88.7918 16.111 90.5028 15.14L94.3288 13.263C98.0288 11.495 101.783 9.84301 105.585 8.30701L107.551 7.526C117.735 4.038 125.55 1.95999 136.23 0.838989L139.724 0.516998Z" fill="#1D2D53"/>
<path d="M90.5031 15.14C93.0421 18.242 94.753 22.49 94.238 26.556C91.98 44.379 68.274 44.149 73.287 76.14C68.434 75.476 63.124 75.721 59.274 78.873C53.531 83.575 53.496 92.41 54.791 99.062C55.394 102.159 56.347 106.961 53.558 109.051C46.502 114.66 36.357 113.066 28.122 115.636C25.339 116.491 22.501 118.739 20.582 119.149C21.765 109.995 23.328 102.934 25.912 94.135C27.499 89.151 29.324 83.443 31.807 78.828L32.581 76.707C33.519 75.372 35.807 70.836 36.689 69.172C38.776 65.192 41.1411 61.363 43.7661 57.715C45.8571 53.888 49.261 50.058 52.121 46.806C55.339 42.572 60.004 38.101 63.876 34.404L67.181 31.557L71.265 28.146L77.97 22.955L81.335 20.685L84.942 18.398C86.523 17.312 88.7921 16.111 90.5031 15.14Z" fill="#1D2D53"/>
<path d="M36.6891 69.172C39.3251 70.014 41.6881 70.324 44.4001 70.756C47.8201 73.929 48.9771 75.896 51.1111 80.036C50.0561 81.519 48.2251 83.53 48.1091 85.054C51.7661 92.599 53.4771 95.584 42.6141 98.081C41.7851 100.621 41.2621 103.006 39.5931 105.031C36.4241 106.475 34.2441 101.88 30.2271 100.225C29.1281 98.472 27.3941 95.232 25.9121 94.135C27.4991 89.151 29.3241 83.443 31.8071 78.828L32.5811 76.707C33.5191 75.372 35.8071 70.836 36.6891 69.172Z" fill="#1D7275"/>
<path d="M32.5806 76.707C34.9376 77.512 37.4467 78.714 36.4877 81.601C34.0827 82.121 33.2976 80.589 31.8066 78.828L32.5806 76.707Z" fill="#1D3454"/>
<path d="M35.4414 86.872C36.9224 87.585 38.4703 88.289 39.1073 89.762C38.6953 91.569 36.9574 92.108 36.0024 94.907L36.0464 95.769L35.2254 95.993C33.9934 94 35.0514 89.355 35.4414 86.872Z" fill="#1D2D53"/>
<path d="M42.4092 85.4C46.1962 86.289 46.6942 89.055 46.0142 92.356C44.9412 92.853 45.3512 92.779 44.1392 92.682C43.3602 91.011 43.3852 87.976 42.4092 85.4Z" fill="#1D2D53"/>
<path d="M39.8359 74.468C43.5529 75.107 44.33 76.4 44.674 79.988C43.608 80.198 43.771 80.127 42.654 80.059C41.736 79.212 41.0399 76.652 40.0939 74.931L39.8359 74.468Z" fill="#1D2D53"/>
<path d="M81.335 20.685L84.942 18.398C87.29 21.505 88.487 24.854 87.89 28.798C87.316 32.602 85.199 36.001 82.038 38.195C75.655 42.577 68.112 40.707 63.876 34.404L67.181 31.557L71.265 28.146L77.97 22.955L81.335 20.685Z" fill="#1D7275"/>
<path d="M81.3347 20.685C84.6547 25.614 84.4197 32.147 78.8937 35.273C76.9017 36.42 74.5096 36.642 72.3406 35.882C69.9906 35.067 68.4787 33.603 67.1807 31.557L71.2646 28.146L77.9697 22.955L81.3347 20.685Z" fill="#1D2D53"/>
<path d="M71.2646 28.146L77.9697 22.955C78.8127 25.06 79.1936 25.477 78.7026 27.554C76.4936 30.476 74.1136 29.401 71.2646 28.146Z" fill="#197871"/>
<path d="M43.7656 57.715C45.8566 53.888 49.2606 50.058 52.1206 46.806C52.1486 52.001 52.2536 50.659 48.2736 55.069C46.6886 56.825 45.9866 57.258 43.7656 57.715Z" fill="#1C5165"/>
<path d="M55.5872 50.945C57.5172 52.39 58.7821 54.943 60.0861 57.076C61.0841 55.139 61.6222 53.499 63.5562 52.613L64.4492 53.084C65.2272 54.773 64.8491 56.419 64.6711 58.313C67.1951 58.448 68.1181 58.466 70.5391 59.03L70.7811 59.674C69.4931 60.713 67.6371 62.078 66.6401 63.327C67.4301 64.412 67.8982 64.777 67.9932 66.086C66.9342 67.02 65.0391 66.725 63.3981 67.254C63.2771 68.861 63.3191 70.023 62.6611 71.495L61.9172 71.563C60.3152 70.39 58.8111 67.895 58.0701 67.528C55.8211 68.59 53.5592 69.626 51.2852 70.635C52.4222 68.442 53.9432 66.257 55.3052 64.177C54.4572 63.33 53.5982 62.402 52.7642 61.531L52.9122 60.778C54.7762 59.89 55.6541 59.792 56.1091 57.844C54.5751 54.604 53.9632 54.171 55.5872 50.945Z" fill="#1D7275"/>
<path d="M137.071 55.359C146.482 49.344 149.077 41.419 155.774 33.069C159.024 29.017 164.729 25.537 168.397 21.774C170.164 20.039 171.232 16.885 172.571 16.74C173.024 19.086 171.962 19.916 170.807 21.907C167.519 27.573 161.46 30.807 157.396 35.264C154.016 39.395 151.603 44.484 148.607 48.87C145.851 52.903 139.04 55.699 138.85 60.725C138.662 65.71 134.667 65.188 132.013 67.056C131.018 67.756 131.468 73.475 127.521 72.865C126.4 72.834 124.097 70.766 123.082 69.912C122.015 71.06 119.609 73.338 119.772 74.823C121.132 87.212 111.075 80.362 107.062 83.073C106.216 84.611 106.282 85.057 106.136 86.773C105.178 87.606 103.943 87.996 102.699 87.787C97.1799 86.859 95.3209 88.262 90.3689 91.471C92.1289 87.877 92.7589 86.664 95.1099 83.465C102.212 82.721 100.174 79.044 108.868 78.505C105.719 77.031 104.761 76.577 102.064 74.404C101.679 73.937 100.816 72.271 100.498 71.669C98.4509 72.223 98.1209 72.176 96.7349 73.648C96.0079 77.263 99.3299 77.634 96.3109 79.697C95.1509 79.592 94.3639 79.497 93.2169 79.298C89.7919 83.056 92.9889 85.839 86.5649 89.029L85.6909 89.325C83.5839 114.195 62.9989 134.454 36.5589 135.831C34.2279 135.952 31.6309 133.837 28.5779 134.238C26.0759 136.941 27.6429 139.991 28.4639 143.373C27.6379 145.007 24.2729 152.459 23.5389 152.832C21.2549 150.484 21.0569 148.965 19.1069 147.246L18.9199 146.378C21.3409 147.044 21.1999 147.401 23.3169 146.899C27.9069 142.064 18.3629 135.089 29.0569 127.859C35.3929 130.672 38.2009 132.703 45.2469 131.009C53.5279 129.018 57.8499 126.226 64.3169 121.405C87.3239 104.254 76.6869 86.734 90.7909 64.944L91.5379 64.342C93.5089 62.728 95.4239 60.256 97.3949 58.893C105.203 53.493 119.22 55.708 118.544 67.36C118.421 69.491 117.69 71.762 117.654 73.802C118.778 72.95 120.567 67.839 121.031 66.423L125.274 62.814C127.636 54.241 128.373 52.434 137.071 55.359Z" fill="#1D7275"/>
<path d="M85.6914 89.325C86.7514 79.815 89.8564 69.348 97.3094 62.848C101.607 59.1 105.232 59.005 110.497 59.251C113.434 61.17 113.563 61.149 115.915 63.915C116.147 65.295 116.513 67.24 116.296 68.6C115.477 73.714 109.055 79.085 105.196 72.956C103.493 70.249 103.923 68.425 106.896 66.966C108.663 66.839 109.343 67.505 110.901 68.441L111.521 68.82L112.246 68.508C112.392 67.709 112.775 66.642 112.435 65.934C109.902 60.649 106.102 64.519 102.923 66.176C101.924 65.761 101.192 65.52 100.16 65.19L99.4324 65.654L99.3104 67.022L100.782 68.178L100.427 68.438L100.498 71.669C98.4514 72.223 98.1214 72.176 96.7354 73.648C96.0084 77.263 99.3304 77.634 96.3114 79.697C95.1514 79.592 94.3644 79.497 93.2174 79.298C89.7924 83.056 92.9894 85.839 86.5654 89.029L85.6914 89.325Z" fill="#1D2D53"/>
<path d="M86.5654 89.029C88.3904 83.397 90.3185 75.727 94.0145 71.247C96.0475 68.783 97.4164 68.663 100.427 68.438L100.498 71.669C98.4515 72.223 98.1215 72.176 96.7355 73.648C96.0085 77.263 99.3305 77.634 96.3115 79.697C95.1515 79.592 94.3645 79.497 93.2175 79.298C89.7925 83.056 92.9894 85.839 86.5654 89.029Z" fill="#1D7275"/>
<path d="M100.782 68.178C102.312 69.586 101.938 71.879 102.064 74.404C101.679 73.937 100.816 72.271 100.498 71.669L100.427 68.438L100.782 68.178Z" fill="#1D3454"/>
<path d="M249.21 134.411C266.599 122.666 279.698 124.972 297.662 134.448L298.314 133.75C298.839 142.781 298.746 149.33 300.596 158.328C301.546 160.9 302.488 163.527 303.473 166.079L304.564 168.716L306.991 174.047C300.546 171.419 299.74 171.44 293.188 173.643C292.205 171.693 290.95 169.664 289.833 167.768L288.715 166.567C287.751 165.55 286.225 164.199 285.174 163.208C290.417 157.006 276.818 140.962 266.087 141.705C264.403 141.342 258.508 138.883 256.579 138.12L255.171 137.553L253.095 136.377L251.017 135.537L249.21 134.411Z" fill="#1D2D53"/>
<path d="M249.21 134.411C266.599 122.666 279.698 124.972 297.662 134.448L298.314 133.75C298.839 142.781 298.746 149.33 300.596 158.328C299.339 159.003 299.917 158.605 299.182 160.425C297.796 156.075 296.061 155.615 294.752 151.949C296.375 140.424 286.764 140.139 279.594 134.6C276.87 132.496 276.054 132.373 272.826 131.51L271.614 133.093C267.419 131.535 261.724 128.224 261.299 135.171L261.5 135.481C260.616 135.594 259.636 135.663 258.801 135.918C256.795 136.442 256.801 136.356 255.171 137.553L253.095 136.377L251.017 135.537L249.21 134.411Z" fill="#1D7275"/>
<path d="M251.017 135.537C254.268 132.852 270.361 125.076 272.926 129.468C272.775 130.24 272.812 129.871 272.816 130.797L272.826 131.51L271.614 133.093C267.419 131.535 261.724 128.224 261.299 135.171L261.5 135.481C260.616 135.594 259.636 135.663 258.801 135.918C256.795 136.442 256.801 136.356 255.171 137.553L253.095 136.377L251.017 135.537Z" fill="#1D2D53"/>
<path d="M253.095 136.377C256.873 133.431 257.133 132.604 261.299 135.171L261.5 135.481C260.616 135.594 259.636 135.663 258.801 135.918C256.795 136.442 256.801 136.356 255.171 137.553L253.095 136.377Z" fill="#1D7275"/>
<path d="M256.579 138.12C259.095 137.728 261.435 137.766 263.937 138.095C281.81 140.443 288.634 149.24 288.715 166.567C287.751 165.55 286.225 164.199 285.174 163.208C290.417 157.006 276.818 140.962 266.087 141.705C264.403 141.342 258.508 138.883 256.579 138.12Z" fill="#1D7275"/>
<path d="M289.833 167.768C292.733 163.336 289.618 156.867 291.079 154.441C293.78 154.593 296.649 158.865 296.297 161.419C295.888 164.378 294.079 165.15 295.079 168.215L296.016 169.074C298.503 168.942 302.203 168.567 304.564 168.716L306.991 174.047C300.546 171.419 299.74 171.44 293.188 173.643C292.205 171.693 290.95 169.664 289.833 167.768Z" fill="#1D7275"/>
<path d="M261.299 135.171C261.724 128.224 267.419 131.535 271.614 133.093C275.336 133.227 279.86 135.37 280.081 139.538L279.366 140.246C268.422 136.894 269.515 137.037 258.801 135.918C259.636 135.663 260.616 135.594 261.5 135.481L261.299 135.171Z" fill="#1D7275"/>
<path d="M299.182 160.425C299.917 158.605 299.339 159.003 300.596 158.328C301.546 160.9 302.488 163.527 303.473 166.079C301.961 166.187 300.928 166.441 299.599 165.768C298.681 164.412 299.081 162.197 299.182 160.425Z" fill="#1D7275"/>
<path d="M282.088 139.989C283.848 140.144 285.558 140.659 287.11 141.503C292.101 144.278 292.967 148.196 290.122 152.93C289.655 152.576 282.064 142.23 281.487 141.338L282.088 139.989Z" fill="#1D7275"/>
<path d="M269.278 50.298L271.79 53.756C276.277 59.676 279.595 65.483 283.279 71.904C285.178 75.564 286.939 79.294 288.558 83.087C286.044 85.601 280.59 88.599 279.929 90.693C280.72 94.889 285.775 93.063 288.184 96.002C287.137 98.841 283.739 100.18 280.992 101.65C281.501 104.561 282.634 110.895 278.635 111.641C277.687 110.298 279.457 106.929 278.312 105.234C275.978 101.778 271.876 104.444 270.26 100.425C270.406 98.082 270.97 97.502 272.188 95.385C269.042 94.513 265.794 93.963 264.548 90.683C266.687 80.499 254.978 88.748 260.591 76.917C259.578 73.857 257.263 72.773 255.935 69.166C256.287 65.72 259.624 64.15 262.718 63.505C264.123 56.788 264.715 55.309 269.278 50.298Z" fill="#1D7275"/>
<path d="M271.79 53.756C276.277 59.676 279.595 65.483 283.279 71.904C282.104 73.102 278.59 76.534 279.056 78.353L278.397 80.143C274.61 70.317 268.972 66.837 271.79 53.756Z" fill="#1D2D53"/>
<path d="M279.056 78.353C281.205 78.767 281.515 78.707 283.166 80.013C284.671 83.439 281.463 86.045 279.253 88.562C278.903 85.762 278.617 82.956 278.397 80.143L279.056 78.353Z" fill="#1D2D53"/>
<path d="M265.004 75.423L265.274 75.909C268.44 81.487 271.274 79.561 271.645 82.005C270.299 83.981 270.191 83.45 270.367 85.296C272.41 87.986 275.112 88.217 276.014 90.195C275.303 91.366 275.804 90.901 274.207 91.312C268.886 89.638 268.97 82.115 264.873 78.842C264.708 78.623 264.543 78.403 264.378 78.184L265.004 75.423Z" fill="#1D2D53"/>
<path d="M278.819 94.396C280.649 94.643 282.386 94.753 283.695 95.995C283.721 97.67 283.695 97.148 282.206 98.816C280.287 100.023 280.927 100.022 279.063 99.867L278.338 98.937C277.996 96.757 278.148 96.575 278.819 94.396Z" fill="#1D2D53"/>
<path d="M264.378 78.184C264.028 73.668 261.903 71.563 262.777 68.724C264.361 67.699 263.519 67.904 265.388 68.075C266.641 69.298 266.287 68.572 266.452 70.343C265.358 72.528 265.003 73.001 265.004 75.423L264.378 78.184Z" fill="#1D3454"/>
<path d="M34.8795 162.301C35.5635 167.346 36.6905 173.807 38.0735 178.737C40.8385 188.72 43.5245 194.885 48.5185 203.989L52.9295 204.765C54.2195 207.793 55.3895 212.579 56.3025 215.89C53.1875 219.195 51.6965 219.94 47.1315 220.624C42.1535 218.715 41.5835 217.295 38.3735 212.977L37.5185 213.088C36.9785 212.396 35.1645 211.072 34.3825 210.454L33.0005 209.015C28.9935 204.874 27.8035 203.296 25.3335 198.106C24.4255 195.658 23.6765 191.799 23.1705 189.17C23.0625 185.106 23.0485 182.644 23.8695 178.681C25.7575 171.046 28.9865 167.153 34.8795 162.301Z" fill="#F9C190"/>
<path d="M46.773 204.039L48.518 203.989L52.929 204.765C54.219 207.793 55.389 212.579 56.302 215.89C53.187 219.195 51.696 219.94 47.131 220.624C42.153 218.715 41.583 217.295 38.373 212.977C41.263 209.028 40.321 206.486 46.773 204.039Z" fill="#F3C01D"/>
<path d="M38.073 178.737C40.838 188.72 43.524 194.885 48.518 203.989L46.773 204.039C36.841 199.173 32.015 193.572 35.125 181.997C35.653 180.029 36.341 179.605 38.073 178.737Z" fill="#F6A575"/>
<path d="M90.5028 15.14L94.3288 13.263C99.8708 24.152 99.1648 30.675 91.3088 40.251C98.0838 37.969 108.653 36.451 112.185 29.95C114.021 26.572 113.34 19.189 107.93 20.811C106.153 21.332 104.837 24.132 102.798 24.608C101.846 23.521 102.205 24.175 102.284 22.234C103.323 20.418 104.826 18.533 106.83 18.129C114.96 16.487 119.22 25.423 114.549 31.673C109.189 38.847 101.686 38.978 93.9688 42.043C77.7397 48.635 73.2528 60.113 75.9918 76.485C76.1188 77.257 76.2578 78.027 76.4088 78.795C70.9338 78.449 65.2548 77.724 60.9348 81.804C54.1988 88.164 57.3958 98.316 58.9348 105.967C56.8728 110.649 55.8318 112.16 51.0948 114.541L50.7568 115.985C48.4558 116.406 47.7918 116.529 45.6258 117.334L44.7057 116.281C33.9507 117.67 29.1288 117.378 20.0518 123.978L20.5818 119.149C22.5008 118.739 25.3388 116.491 28.1218 115.636C36.3568 113.066 46.5018 114.66 53.5578 109.051C56.3468 106.961 55.3938 102.159 54.7908 99.062C53.4958 92.41 53.5308 83.575 59.2738 78.873C63.1238 75.721 68.4338 75.476 73.2868 76.14C68.2738 44.149 91.9798 44.379 94.2378 26.556C94.7528 22.49 93.0418 18.242 90.5028 15.14Z" fill="#1D7275"/>
<path d="M51.0951 114.541L50.7571 115.985C48.4561 116.406 47.7921 116.529 45.6261 117.334L44.7061 116.281L51.0951 114.541Z" fill="#1D2D53"/>
<path d="M251.154 110.974C262.295 127.708 283.489 120.699 298.261 131.392L298.314 133.75L297.662 134.448C279.698 124.972 266.599 122.666 249.21 134.411C244.973 132.624 239.638 129.344 235.801 126.853C242.884 121.894 246.657 118.524 251.154 110.974Z" fill="#1D2D53"/>
<path d="M250.723 123.983C251.811 123.63 252.987 124.18 253.412 125.241C253.838 126.303 253.369 127.513 252.338 128.009C251.607 128.361 250.74 128.277 250.091 127.79C249.441 127.303 249.117 126.495 249.25 125.694C249.383 124.893 249.951 124.233 250.723 123.983Z" fill="#197871"/>
<path d="M248.757 57.7C247.283 56.303 245.955 55.508 245.443 53.786L246.26 53.49C248.048 54.111 250.541 55.511 251.187 57.359C256.591 72.803 257.403 92.597 252.651 108.073C260.107 120.679 274.001 121.261 287.309 122.744C292.136 120.336 293.476 119.242 297.105 115.488L297.728 120.261C297.898 122.565 298.118 124.975 298.183 127.275L298.261 131.392C283.489 120.699 262.295 127.708 251.154 110.974C246.657 118.524 242.884 121.894 235.801 126.853L233.169 125.174C253.103 110.503 255.532 97.229 251.905 73.178C251.128 68.023 250.607 62.632 248.757 57.7Z" fill="#1D7275"/>
<path d="M291.16 124.378L297.728 120.261C297.898 122.565 298.118 124.975 298.183 127.275C295.199 126.296 293.995 125.922 291.16 124.378Z" fill="#1D2D53"/>
<path d="M172.464 67.724C171.022 69.397 170.197 70.244 167.822 69.942C175.176 60.511 168.88 58.752 169.78 48.823C171.387 40.176 182.572 41.824 183.312 32.35C183.731 26.989 181.45 28.071 181.128 25.449L182.118 25.167C186.704 28.201 185.949 34.41 183.952 38.767L183.698 39.311L184.8 40.347C185.63 38.688 185.441 38.316 186.766 37.626C188.587 41.024 183.033 46.058 180.726 48.06L181.333 49.64C181.029 51.423 180.778 52.959 180.581 54.755L181.042 55.342L181.697 55.19C182.106 56.376 182.178 56.658 182.798 57.733C183.141 61.256 183.094 64.646 184.699 67.71C182.752 69.924 180.766 72.104 178.742 74.248L177.668 75.596C174.897 72.868 174.083 71.108 172.464 67.724Z" fill="#1D7275"/>
<path d="M180.726 48.06L181.333 49.64C181.029 51.423 180.778 52.959 180.581 54.755L181.042 55.342L181.697 55.19C182.106 56.376 182.178 56.658 182.798 57.733C183.141 61.256 183.094 64.646 184.699 67.71C182.752 69.924 180.766 72.104 178.742 74.248C173.2 68.331 176.478 63.842 175.96 56.898C176.843 52.023 177.467 51.666 180.726 48.06Z" fill="#1D2D53"/>
<path d="M184.8 40.347C185.63 38.688 185.441 38.316 186.766 37.626C188.587 41.024 183.033 46.058 180.726 48.06C177.467 51.666 176.843 52.023 175.96 56.898L174.98 57.397C174.716 56.627 174.461 55.925 174.178 55.164C175.094 51.066 177.844 48.831 176.722 45.052L176.568 44.652C178.723 42.904 181.431 40.991 183.698 39.311L184.8 40.347Z" fill="#1D7275"/>
<path d="M176.568 44.652C178.723 42.904 181.431 40.991 183.698 39.311L184.8 40.347C182.854 43.113 182.277 44.326 179.294 45.741C177.96 45.717 177.964 45.613 176.722 45.052L176.568 44.652Z" fill="#1D2D53"/>
<path d="M176.568 44.652L176.722 45.052C177.844 48.831 175.094 51.066 174.178 55.164L173.54 55.904C170.8 51.815 171.704 46.597 176.568 44.652Z" fill="#1D2D53"/>
<path d="M238.238 46.0701C236.62 44.4741 236.095 44.5141 235.708 42.6961C238.652 41.9131 241.439 47.706 241.89 49.964C242.803 54.541 238.505 57.782 238.574 62.229C238.649 66.999 241.677 71.579 242.732 76.017C243.872 80.815 244.424 87.778 241.507 91.977C237.115 98.303 228.429 97.1451 221.954 99.1531C218.423 100.402 213.973 103.908 209.532 105.856L207.032 103.102C208.719 101.909 209.371 101.508 211.207 100.569C211.779 97.593 209.347 95.968 212.543 93.815C215.366 91.914 217.53 94.71 219.659 94.026L220.034 93.401C221.176 91.529 221.348 90.9261 223.105 89.8071C230.265 88.4161 227.092 94.7071 233.398 94.7091C239.093 94.7111 241.035 86.4061 240.741 82.0051C239.773 67.5471 231.564 65.937 239.753 51.952C239.288 49.974 238.873 47.9991 238.238 46.0701Z" fill="#1D7275"/>
<path d="M214.987 111.269C217.95 111.257 220.489 111.64 223.126 110.639C224.1 108.543 222.803 110.655 223.221 107.878C224.785 106.689 224.999 106.704 226.946 106.175C228.075 106.641 228.847 107.077 229.871 107.743C231.385 106.711 230.267 105.971 231.76 103.322L232.469 103.324C233.159 104.99 233.029 105.258 234.287 106.387C235.884 105.442 235.738 104.58 236.958 102.557C237.995 102.31 238.869 102.274 239.933 102.258C243.584 99.162 241.67 98.352 242.922 95.398C243.124 94.92 244.966 93.824 246.296 90.625L249.145 90.721C249.121 93.075 249.141 93.509 247.43 95.189C246.846 95.755 246.248 96.307 245.637 96.844C244.383 102.409 244.894 105.121 238.777 106.294C237.398 107.62 237.772 106.872 237.27 108.453L238.918 110.374L238.744 111.219C236.477 112.69 235.306 112.341 234.585 113.891C234.816 116.15 235.119 115.66 234.158 117.22C232.054 118.205 231.827 117.618 229.92 116.324C227.863 117.011 227.634 119.197 227.084 121.17C222.949 117.998 218.915 114.696 214.987 111.269Z" fill="#1D7275"/>
<path d="M70.0106 91.723C69.9596 89.32 69.5245 89.25 67.8145 87.241C68.4725 85.512 67.9146 86.091 69.3466 85.273C73.5726 86.073 78.0266 94.128 73.1306 96.863C71.6966 97.664 70.9275 97.222 69.8975 98.865C70.8355 99.902 70.5276 99.552 71.9296 100.18C72.4796 102.184 70.4855 103.02 68.9675 104.026C67.7235 106.828 66.6126 110.821 64.9796 113.01L64.2355 113.027C63.2065 111.864 63.1005 111.303 61.8865 111.03C58.9075 113.803 57.3385 119.318 51.8525 117.807L52.1725 116.526C55.9745 115.641 62.1125 108.543 62.2715 105.289C61.4145 104.412 60.8895 103.844 60.1165 102.895L60.2465 101.691C61.2795 100.762 61.9916 100.191 63.0756 99.358C62.6086 98.167 60.8376 98.248 58.7786 96.905C58.3316 94.69 58.2845 94.555 58.5585 92.348L59.1685 92.019L60.0546 93.076L60.7485 91.351C63.8725 94.112 64.6015 94.324 68.2245 92.059L69.0195 91.406L70.0106 91.723Z" fill="#1D7275"/>
<path d="M68.2247 92.059L69.0197 91.406L70.0107 91.723C67.6987 95.364 62.5187 97.062 60.0547 93.076L60.7487 91.351C63.8727 94.112 64.6017 94.324 68.2247 92.059Z" fill="#1D2D53"/>
<path d="M60.7495 91.351C59.9015 81.061 66.8084 76.576 75.2604 83.406C84.3854 90.781 73.4134 115.191 64.2994 116.954C62.2554 120.748 60.6824 122.879 56.8774 125.374C53.9584 127.287 42.7654 131.238 39.7734 129.953C41.7494 127.253 54.0095 129.337 62.7155 115.527C65.4025 114.844 67.0474 114.622 68.8434 112.303C74.1274 105.478 77.8915 98.465 76.2545 89.638C73.9765 77.351 61.7094 81.771 62.9354 89.608L63.6644 90.405C64.9474 90.164 66.0224 89.991 67.3174 89.814C68.4144 90.769 67.9545 90.182 68.2255 92.059C64.6025 94.324 63.8735 94.112 60.7495 91.351Z" fill="#197871"/>
<path d="M13.7328 167.254C23.7968 166.186 25.9808 167.328 33.2078 159.712L33.9238 160.001L34.8788 162.301C28.9858 167.153 25.7568 171.046 23.8688 178.681C19.9908 173.984 20.8768 176.297 15.0518 176.193C14.2248 176.179 11.5618 174.472 10.6338 173.899L13.7328 167.254Z" fill="#1D7275"/>
<path d="M150.315 97.605C145.678 95.033 143.993 94.637 141.058 89.593C137.252 83.055 138.041 73.076 145.303 69.328C149.686 67.066 157.19 68.585 159.099 73.586C159.818 75.427 159.76 77.4809 158.938 79.2789C157.606 82.2109 154.952 84.052 151.785 82.541C150.751 81.047 150.784 81.174 150.698 79.363L151.383 78.872C153.07 79.261 154.354 79.782 155.957 79.272C157.506 76.938 156.608 72.6469 154.299 71.5629C146.407 67.8589 138.699 77.333 141.512 84.838C143.849 91.074 147.603 93.4049 152.874 96.0459L150.315 97.605Z" fill="#1D7275"/>
<path d="M107.551 7.526C117.735 4.038 125.55 1.95999 136.23 0.838989C137.886 8.43799 134.893 12.748 127.344 7.65201C125.854 9.39101 124.963 10.862 122.855 11.556L121.718 11.298C120.104 8.6 121.258 8.12601 119.484 6.47601C116.177 6.52201 111.833 7.801 108.193 8.276L107.551 7.526Z" fill="#1D7275"/>
<path d="M83.8869 54.109C85.4349 52.638 84.5859 52.93 86.3149 52.689C87.3979 53.424 87.9319 53.785 89.1729 54.188C91.1109 53.427 91.7779 52.741 93.5759 52.937C94.9799 56.113 91.0369 60.014 90.7909 64.944C84.9159 63.421 85.7419 67.147 82.5169 67.296C79.9579 63.46 84.1649 64.539 80.4249 60.02C80.2129 57.142 81.9369 56.134 83.8869 54.109Z" fill="#1D7275"/>
<path d="M182.798 57.733C184.093 51.21 188.448 51.071 189.362 47.362C190.997 40.726 185.747 33.951 190.512 27.175L191.562 26.77C192.103 27.779 191.35 30.086 190.964 31.127C188.704 37.209 198.803 49.9 190.307 53.979C181.087 58.404 187.652 61.376 185.15 67.708L184.699 67.71C183.094 64.646 183.141 61.256 182.798 57.733Z" fill="#1D7275"/>
<path d="M20.0516 123.978C29.1286 117.378 33.9506 117.67 44.7056 116.281L45.6257 117.334C43.4757 118.455 40.8426 119.315 39.5516 120.002L38.8337 120.128C36.2357 121.461 32.3757 122.652 29.5167 123.5L27.5397 122.739C24.7857 124.18 22.2036 126.004 19.9736 127.162L20.0516 123.978Z" fill="url(#paint0_linear_274_27)"/>
<path d="M27.5402 122.739C27.0832 122.588 27.3322 122.725 26.9072 122.166C30.5782 120.804 35.1382 119.024 38.8342 120.128C36.2362 121.461 32.3762 122.652 29.5172 123.5L27.5402 122.739Z" fill="#197871"/>
<path d="M139.724 0.516998C141.803 0.187998 146.731 0.097 149.009 0C150.59 2.335 152.551 5.059 153.926 7.474C149.718 4.885 141.958 2.194 139.724 0.516998Z" fill="#1D7275"/>
<path d="M220.073 12.267L224.55 14.436C221.415 15.529 218.46 18.967 215.887 21.399C216.945 18.275 218.714 15.417 220.073 12.267Z" fill="#1D3454"/>
<path d="M50.7568 115.985L52.1728 116.526L51.8528 117.807C42.2308 117.341 46.3878 123.486 39.5518 120.002C40.8428 119.315 43.4758 118.455 45.6258 117.334C47.7918 116.529 48.4558 116.406 50.7568 115.985Z" fill="#197871"/>
<path d="M105.585 8.30701L107.551 7.526L108.193 8.276C106.904 11.08 105.091 12.563 102.437 14.127L101.918 14.026C102.195 11.602 104.022 11.341 105.585 8.30701Z" fill="#197871"/>
<path d="M246.296 90.625C246.418 88.697 246.277 86.943 247.437 85.462L248.301 85.191C250.115 86.988 249.578 88.442 249.145 90.721L246.296 90.625Z" fill="#1D7275"/>
<path d="M181.333 49.64C182.84 48.2 182.078 48.397 183.717 48.096C184.287 50.285 182.691 53.127 181.697 55.19L181.042 55.342L180.581 54.755C180.778 52.959 181.029 51.423 181.333 49.64Z" fill="#197871"/>
<path d="M215.45 21.933C220.366 24.447 217.428 25.703 219.523 28.383C220.879 27.674 221.701 27.314 223.088 26.737C224.866 27.041 224.087 26.669 225.44 28.021C226.518 35.14 230.706 32.07 230.783 35.935C229.594 37.397 226.623 38.369 224.54 39.607C224.036 41.201 224.048 41.543 223.013 42.875C220.6 42.559 221.305 41.433 218.461 39.958C218.236 41.613 217.81 47.704 217.442 48.627C214.845 54.934 211.236 59.546 209.299 66.235C207.139 73.691 215.047 80.361 221.604 75.729C223.451 74.425 224.357 70.217 222.592 68.286C219.353 67.726 218.345 70.825 216.145 68.46C216.586 66.302 218.272 65.333 220.177 64.678C220.731 64.801 223.517 65.62 223.894 66.218C236.815 86.6991 194.633 83.069 208.229 61.408C210.965 57.049 213.922 48.443 214.658 42.654C212.594 43.816 211.281 45.064 209.063 44.018C206.38 40.06 209.734 39.415 208.803 35.973C207.403 35.063 206.624 34.763 205.918 33.258C205.583 30.318 207.194 30.734 206.908 28.571L203.901 26.477C202.989 24.486 203.045 25.421 203.203 23.574L204.239 22.983C207.183 22.992 210.368 24.317 212.92 25.711C214.091 24.959 214.723 23.295 215.45 21.933Z" fill="#1D7275"/>
<path d="M210.73 29.827C212.28 30.48 212.775 30.823 213.626 32.202C213.688 34.33 213.892 33.288 212.6 35.337C211.126 34.393 210.782 34.241 209.587 32.886C209.459 31.092 209.477 31.681 210.73 29.827Z" fill="#1D2D53"/>
<path d="M219.049 33.3211C220.924 33.0551 221.703 32.7821 223.511 33.3851C224.463 34.9251 224.192 34.054 223.911 36.19C221.288 36.261 219.723 35.9621 219.049 33.3211Z" fill="#1D2D53"/>
<path d="M109.779 92.54C113.322 92.54 113.077 93.333 116.141 94.952C117.237 94.613 117.301 94.493 118.3 93.875C122.945 91.002 128.177 100.463 122.06 102.748C119.033 103.878 117.147 102.614 114.192 101.399C111.224 104.123 111.02 105.068 109.339 108.719C105.434 106.663 104.028 105.068 100.567 108.668C100.422 110.338 100.405 110.91 99.9251 112.565C97.5111 114.036 95.0761 112.23 92.6311 114.263C90.5991 115.953 86.8811 116.543 86.2061 113.209C86.8771 111.353 89.9971 108.221 89.9781 108.363C90.8081 102.234 91.6261 100.685 98.2141 101.325C101.228 101.617 100.425 97.806 101.924 96.701C105.721 93.901 105.992 97.029 109.779 92.54Z" fill="#1D7275"/>
<path d="M165.359 7.98102L166.456 8.81802C170.074 18.54 152.965 22.781 147.779 28.615C143.772 33.123 142.113 39.216 140.24 44.795C129.015 45.804 130.871 48.622 123.93 56.477C122.25 58.378 123.466 62.113 120.43 62.722L120.044 61.976C119.472 58.353 116.198 56.172 119.145 52.086C121.637 48.63 123.547 51.386 126.356 47.764C129.955 43.124 132.645 42.518 138.055 41.757C140.674 31.472 144.425 26.057 153.878 20.785C160.361 17.171 164.8 15.929 165.359 7.98102Z" fill="#1D7275"/>
<path d="M134.355 46.746C135.047 46.47 135.836 46.615 136.384 47.121C136.932 47.627 137.14 48.402 136.92 49.114C136.7 49.826 136.09 50.348 135.353 50.456C134.382 50.598 133.459 49.992 133.204 49.045C132.95 48.098 133.444 47.11 134.355 46.746Z" fill="#1D7275"/>
<path d="M49.8907 121.549C50.9947 121.912 50.6037 121.705 51.4637 122.532C50.7917 124.117 50.5177 123.884 48.8017 125.059C47.2707 124.245 47.8127 124.813 47.0107 123.409C48.0687 121.898 47.8337 122.349 49.8907 121.549Z" fill="#197871"/>
<path d="M262.185 215.19C263.921 217.443 265.194 218.884 267.872 220.071L270.005 220.758L270.717 220.506C272.815 220.254 273.549 219.95 275.587 219.269C278.42 224.524 282.373 230.275 287.755 233.18C289.588 234.336 291.562 235.25 293.628 235.901C302.363 238.748 307.432 236.295 315.001 232.518C314.043 235.125 313.129 237.712 311.995 240.25C311.242 241.702 309.936 244.473 308.935 245.605C308.084 246.965 307.109 248.633 306.177 249.907C304.327 252.128 302.572 254.24 300.614 256.372L297.708 259.372C297.322 259.671 295.906 260.811 295.579 260.99C286.713 269.875 271.364 275.864 258.995 276.91C256.678 277.123 255.19 277.226 252.87 277.19C246.524 277.233 240.916 276.338 234.808 274.762L229.146 273.171C228.312 262.956 229.459 263.975 233.928 255.93L234.392 255.518L241.733 248.413L245.241 244.391C253.228 234.093 257.421 227.367 262.185 215.19Z" fill="#1D2D53"/>
<path d="M275.587 219.269C278.42 224.524 282.373 230.275 287.755 233.18C289.588 234.336 291.562 235.25 293.628 235.901C302.363 238.748 307.432 236.295 315.001 232.518C314.043 235.125 313.129 237.712 311.995 240.25C311.242 241.702 309.936 244.473 308.935 245.605C308.084 246.965 307.109 248.633 306.177 249.907C304.327 252.128 302.572 254.24 300.614 256.372L299.013 255.423C297.201 256.092 295.786 256.45 293.882 256.611C291.333 255.049 293.712 253.627 290.937 250.64C287.217 249.337 283.922 250.993 279.971 252.182L278.474 251.056C277.343 248.762 277.62 245.882 277.558 243.201C269.984 243.859 270.29 241.912 269.877 235.201C266.722 232.947 263.317 230.774 263.962 226.382C264.84 225.235 264.732 225.203 266.09 224.794C266.661 224.499 267.008 224.155 267.522 223.743L267.872 220.071L270.005 220.758L270.717 220.506C272.815 220.254 273.549 219.95 275.587 219.269Z" fill="#1D2D53"/>
<path d="M275.587 219.269C278.42 224.524 282.373 230.275 287.755 233.18C289.588 234.336 291.562 235.25 293.628 235.901C302.363 238.748 307.432 236.295 315.001 232.518C314.043 235.125 313.129 237.712 311.995 240.25C306.772 239.814 307.709 240.359 302.925 242.31C301.382 242.939 299.229 242.596 298.058 241.661C295.549 239.659 292.675 241.668 291.35 241.106C286.578 239.081 286.167 237.439 280.828 236.062L280.056 235.867L278.715 231.556C272.841 228.119 272.732 226.999 270.717 220.506C272.815 220.254 273.549 219.95 275.587 219.269Z" fill="#1D7275"/>
<path d="M269.877 235.201C266.722 232.947 263.317 230.774 263.962 226.382C264.84 225.235 264.732 225.203 266.09 224.794C265.998 231.631 266.546 230.046 271.667 233.572C272.17 235.936 272.658 238.484 273.22 240.817C279.541 241.878 279.402 242.15 282.609 247.705C285.1 247.684 287.539 247.705 290.023 247.503C292.869 249.747 294.218 251.46 297.559 252.385C297.966 253.603 298.131 254.5 299.013 255.423C297.201 256.092 295.786 256.45 293.882 256.611C291.333 255.049 293.712 253.627 290.937 250.64C287.217 249.337 283.922 250.993 279.971 252.182L278.474 251.056C277.343 248.762 277.62 245.882 277.558 243.201C269.984 243.859 270.29 241.912 269.877 235.201Z" fill="#1D7275"/>
<path d="M267.872 220.071L270.005 220.758C270.497 230.226 282.032 241.222 291.227 243.474C295.869 244.611 297.401 243.66 302.133 246.161C296.533 249.476 295.658 249.209 290.902 245.032C284.347 245.853 284.428 245.979 280.849 240.444C279.038 239.991 277.078 239.589 275.245 239.175L273.193 232.551C269.233 228.77 267.721 230.028 267.522 223.743L267.872 220.071Z" fill="#1D7275"/>
<path d="M297.559 252.385C300.449 249.993 302.585 248.857 306.177 249.907C304.327 252.128 302.572 254.24 300.614 256.372L299.013 255.423C298.131 254.5 297.966 253.603 297.559 252.385Z" fill="#1D7275"/>
<path d="M241.733 248.413C256.903 250.396 263.12 265.314 252.87 277.19C246.524 277.233 240.916 276.338 234.808 274.762L229.146 273.171C228.312 262.956 229.459 263.975 233.928 255.93L234.392 255.518L241.733 248.413Z" fill="#1D2D53"/>
<path d="M234.392 255.518C238.512 254.163 241.714 252.739 245.852 254.674C248.74 256.06 250.964 258.531 252.039 261.55C257.52 277.058 229.462 277.555 238.562 263.866C239.107 263.046 240.293 262.843 241.228 262.79C243.573 265.235 240.898 270.379 244.518 270.577C248.088 268.414 250.404 264.426 247.419 261.174C238.064 250.984 228.857 265.251 234.808 274.762L229.146 273.171C228.312 262.956 229.459 263.975 233.928 255.93L234.392 255.518Z" fill="#1D7275"/>
<path d="M241.733 248.413L245.241 244.391C247.429 244.939 249.635 245.388 251.527 246.631C263.337 254.385 264.917 265.306 258.995 276.91C256.678 277.123 255.19 277.226 252.87 277.19C263.12 265.314 256.903 250.396 241.733 248.413Z" fill="#1D7275"/>
<path d="M284.674 254.564C271.052 258.58 276.889 250.797 272.793 247.377C270.907 247.185 268.875 247.207 267.742 245.445C266.226 243.087 264.754 237.78 268.01 236.228C269.193 238.255 267.674 239.822 269.108 243.196C269.864 244.051 270.012 244.307 271.189 244.617C279.445 246.789 273.541 247.978 277.58 253.443C278.94 253.144 279.388 253.06 280.719 252.551L279.971 252.182C283.922 250.993 287.217 249.337 290.937 250.64C293.712 253.627 291.333 255.049 293.882 256.611C295.786 256.45 297.201 256.092 299.013 255.423L300.614 256.372L297.708 259.372C297.322 259.671 295.907 260.811 295.58 260.99C288.213 260.693 287.82 263.961 284.674 254.564Z" fill="#1D7275"/>
<path d="M279.971 252.182C283.922 250.993 287.217 249.337 290.937 250.64C293.712 253.627 291.333 255.049 293.882 256.611C295.786 256.45 297.201 256.092 299.013 255.423L300.614 256.372L297.708 259.372C294.025 258.994 291.735 260.264 289.035 259.251C287.676 257.996 287.662 257.889 287.014 256.125L285.739 252.73C282.561 253.429 280.788 254.018 277.579 253.443C278.939 253.144 279.388 253.06 280.719 252.551L279.971 252.182Z" fill="#1D2D53"/>
<path d="M184.699 67.71L185.15 67.708C191.403 82.808 195.849 90.792 207.032 103.102L209.532 105.856C211.319 107.692 213.138 109.496 214.987 111.269C218.915 114.696 222.949 117.998 227.084 121.17C228.897 122.377 231.342 124.119 233.169 125.174L235.801 126.853C239.638 129.344 244.973 132.624 249.21 134.411L251.017 135.537L253.095 136.377L255.171 137.553L256.579 138.12C258.508 138.883 264.403 141.342 266.087 141.705C267.181 145.185 267.36 147.103 267.816 150.719C263.934 149.458 260.101 148.053 256.323 146.51C252.843 145.057 238.671 138.101 236.431 137.9C233.876 132.869 226.725 129.874 221.752 128.001L222.422 127.191C221.71 125.637 217.802 123.115 216.182 121.783C211.45 117.86 207.042 113.563 202.998 108.935C193.929 98.459 189.306 88.244 184.12 75.633C174.186 93.609 146.058 111.965 127.133 119.109C122.738 120.768 110.801 124.176 108.013 126.641C99.7532 127.358 94.7433 128.402 87.4943 132.805C85.1493 131.593 81.6183 133.27 79.1093 134.016C68.1933 137.262 60.5373 141.717 54.7593 151.905C54.1013 153.066 51.2732 157.685 50.1982 158.536C54.5352 124.75 83.0333 125.166 109.33 116.141C123.841 111.16 137.226 105.768 150.315 97.605L152.874 96.046C162.09 90.582 169.922 82.948 177.668 75.596L178.742 74.248C180.766 72.104 182.752 69.924 184.699 67.71Z" fill="#F6A575"/>
<path d="M293.188 173.643C299.74 171.44 300.546 171.419 306.991 174.047C314.339 186.001 319.117 201.41 318.16 215.527C318.098 219.469 317.352 223.85 316.498 227.706L315.001 232.518C307.432 236.295 302.363 238.748 293.628 235.901C291.562 235.25 289.588 234.336 287.755 233.18C282.373 230.275 278.42 224.524 275.587 219.269L277.97 216.838L278.746 215.169L279.875 213.709C281.472 212.865 283.239 211.452 284.735 210.358C287.486 207.651 288.428 206.65 290.671 203.535C291.318 202.333 291.936 201.116 292.526 199.885C296.728 190.978 296.388 182.73 293.188 173.643Z" fill="#1D2D53"/>
<path d="M278.746 215.169C284.478 226.15 293.907 238.219 308.842 231.06C314.976 228.12 315.641 223.253 315.897 216.923L318.16 215.527C318.098 219.469 317.352 223.85 316.498 227.706L315.001 232.518C307.432 236.295 302.363 238.748 293.628 235.901C291.562 235.25 289.588 234.336 287.755 233.18C282.373 230.275 278.42 224.524 275.587 219.269L277.97 216.838L278.746 215.169Z" fill="#1D7275"/>
<path d="M289.873 232.225C300.669 238.931 307.18 234.158 315.762 228.208L316.498 227.706L315.001 232.518C307.432 236.295 302.363 238.748 293.628 235.901C291.562 235.25 289.588 234.336 287.755 233.18L289.873 232.225Z" fill="#1D2D53"/>
<path d="M277.97 216.838C279.543 222.075 284.487 230.457 289.873 232.225L287.755 233.18C282.373 230.275 278.42 224.524 275.587 219.269L277.97 216.838Z" fill="#1D2D53"/>
<path d="M284.735 210.358C287.486 207.651 288.428 206.65 290.671 203.535C292.19 204.717 292.731 204.925 293.321 206.763C292.545 210.793 287.956 210.423 284.735 210.358Z" fill="#1D7275"/>
<path d="M305.94 207.256C308.493 207.423 309.364 207.797 311.79 208.565C313.489 210.183 316.623 213.294 315.826 215.667C313.392 216.203 311.622 203.909 301.475 211.222C298.869 218.194 303.239 214.712 306.175 216.215L306.328 217.06C304.519 220.591 299.265 219.689 298.801 216.5C297.966 210.777 301.39 208.344 305.94 207.256Z" fill="#1D7275"/>
<path d="M308.695 192.431C309.458 191.848 310.474 191.72 311.358 192.095C312.241 192.47 312.854 193.291 312.964 194.244C313.074 195.197 312.663 196.136 311.888 196.702C310.709 197.564 309.055 197.316 308.18 196.146C307.305 194.975 307.535 193.319 308.695 192.431Z" fill="#1D7275"/>
<path d="M300.752 196.9C301.833 196.226 303.252 196.52 303.977 197.567C304.701 198.614 304.476 200.045 303.464 200.819C302.766 201.353 301.83 201.46 301.029 201.097C300.228 200.733 299.692 199.959 299.634 199.081C299.577 198.204 300.006 197.365 300.752 196.9Z" fill="#1D7275"/>
<path d="M281 177.72C282.268 173.147 282.845 168.446 284.039 163.799L285.174 163.208C286.225 164.199 287.751 165.55 288.715 166.567L289.833 167.768C290.95 169.664 292.205 171.693 293.188 173.643C296.388 182.73 296.728 190.978 292.526 199.885C291.936 201.116 291.318 202.333 290.671 203.535C288.428 206.65 287.486 207.651 284.735 210.358C283.239 211.452 281.472 212.865 279.875 213.709L278.746 215.169L277.97 216.838L275.587 219.269C273.549 219.95 272.815 220.254 270.717 220.506L270.005 220.758L267.872 220.071C265.194 218.884 263.921 217.443 262.185 215.19C262.934 213.636 264.617 207.377 265.261 205.263C266.811 204.899 268.613 204.078 270.124 203.454C274.817 196.689 278.81 185.592 281 177.72Z" fill="#F9C190"/>
<path d="M270.124 203.454L271.632 203.83C277.186 206.11 278.45 207.921 279.875 213.709L278.746 215.169L277.97 216.838L275.587 219.269C273.549 219.95 272.815 220.254 270.717 220.506L270.005 220.758L267.872 220.071C265.194 218.884 263.921 217.443 262.185 215.19C262.934 213.636 264.617 207.377 265.261 205.263C266.811 204.899 268.613 204.078 270.124 203.454Z" fill="#F3C01D"/>
<path d="M281 177.72C287.437 186.423 286.268 194.336 277.548 200.487C276.076 201.526 272.388 202.921 271.632 203.83L270.124 203.454C274.817 196.689 278.81 185.592 281 177.72Z" fill="#F6A575"/>
<path d="M266.087 141.705C276.818 140.962 290.417 157.006 285.174 163.208L284.039 163.799C282.845 168.446 282.268 173.147 281 177.72C278.81 185.592 274.817 196.689 270.124 203.454C268.613 204.078 266.811 204.899 265.261 205.263C270.438 188.406 270.22 168.021 267.816 150.719C267.36 147.103 267.181 145.185 266.087 141.705Z" fill="#1D2D53"/>
<path d="M236.431 137.9C229.945 136.678 225.855 132.633 217.279 132.598C210.895 132.572 201.018 136.355 196.748 134.312C196.329 133.737 195.77 133.302 195.939 132.691C198.426 123.698 216.667 126.918 221.752 128.001C226.725 129.874 233.876 132.869 236.431 137.9Z" fill="#40210E"/>
<path d="M108.013 126.641C113.031 126.888 117.227 126.842 121.472 129.836C122.662 131.741 122.979 134.833 120.302 135.348C116.319 136.116 111.456 133.519 107.489 133.039C97.0194 131.686 90.2354 134.337 81.4424 139.093C83.6414 136.025 84.3754 135.156 87.4944 132.805C94.7434 128.402 99.7534 127.358 108.013 126.641Z" fill="#40210E"/>
<path d="M233.928 255.93C229.459 263.975 228.312 262.956 229.146 273.171L223.67 271.054C223.575 268.574 223.572 265.989 223.531 263.497C226.995 261.064 230.499 258.433 233.928 255.93Z" fill="#1D3454"/>
<path d="M216.547 267.85C217.902 266.656 221.778 264.526 223.531 263.497C223.572 265.989 223.575 268.574 223.67 271.054C221.273 270.103 218.89 268.941 216.547 267.85Z" fill="#1D7275"/>
<path d="M67.5523 153.115C77.0963 161.135 77.3233 157.035 86.7593 151.882C103.456 142.765 131.251 155.196 127.231 176.567C127.224 176.838 127.218 177.11 127.212 177.381C126.964 183.635 124.208 189.527 119.566 193.725C103.505 208.122 75.6883 197.824 77.8063 174.215C68.6263 170.49 66.5733 162.137 67.5523 153.115Z" fill="white"/>
<path d="M125.822 175.6C126.224 184.382 120.514 192.281 112.049 194.652C103.583 197.023 94.6005 193.241 90.3815 185.528C86.1625 177.816 87.8225 168.212 94.3855 162.363C100.948 156.513 110.678 155.965 117.857 161.04C122.616 164.405 125.556 169.778 125.822 175.6Z" fill="#582D0F"/>
<path d="M102.604 164.27C104.584 162.472 108.192 162.509 110.806 162.756C123.744 163.976 126.424 180.586 117.839 188.222C111.79 193.602 101.241 191.119 96.9147 185.264C93.7577 181.295 93.2737 174.466 95.8237 170.145C94.9537 168.257 95.4357 166.022 97.0067 164.661C98.5777 163.299 100.859 163.14 102.604 164.27Z" fill="#40210E"/>
<path d="M95.8236 170.145C94.9536 168.257 95.4356 166.022 97.0066 164.661C98.5776 163.299 100.859 163.14 102.604 164.27C104.272 165.35 105.074 167.367 104.603 169.297C104.132 171.227 102.492 172.648 100.515 172.839C98.5366 173.03 96.6546 171.949 95.8236 170.145Z" fill="white"/>
<path d="M67.5523 153.115C77.0963 161.135 77.3233 157.035 86.7593 151.882C103.456 142.765 131.251 155.196 127.231 176.567L127.15 174.933L125.821 175.6C125.555 169.778 122.616 164.405 117.857 161.04L118.822 160.024C103.12 148.912 81.6173 154.689 77.8063 174.215C68.6263 170.49 66.5733 162.137 67.5523 153.115Z" fill="#40210E"/>
<path d="M118.822 160.024C123.344 164.621 125.068 166.972 126.754 173.426L127.006 174.367L127.15 174.933L125.821 175.6C125.555 169.778 122.616 164.405 117.857 161.04L118.822 160.024Z" fill="#E8DED6"/>
<path d="M191.466 175.753C188.643 162.43 201.76 150.577 214.238 149.181C226.175 147.847 232.644 151.069 241.847 158.06C245.614 157.021 246.925 156.082 250.262 154.068L250.953 154.414C252.715 164.062 248.698 169.089 241.064 174.154C240.868 181.584 239.692 188.008 233.931 193.351C221.198 205.159 198.63 200.795 192.72 183.911C191.763 181.185 191.163 178.653 191.466 175.753Z" fill="white"/>
<path d="M197.665 163.716C203.871 156.789 214.199 155.419 221.997 160.486C229.795 165.554 232.738 175.548 228.93 184.033C225.122 192.518 215.699 196.962 206.729 194.504C197.76 192.046 191.919 183.419 192.969 174.178L191.705 173.199C192.986 168.688 194.275 166.646 196.921 162.974L197.665 163.716Z" fill="#40210E"/>
<path d="M196.921 162.974L197.665 163.716C195.052 166.631 193.411 170.288 192.969 174.178L191.705 173.199C192.986 168.688 194.275 166.646 196.921 162.974Z" fill="#E8DED6"/>
<path d="M203.277 163.45C205.7 162.925 208.11 164.387 208.764 166.778C209.419 169.17 208.088 171.655 205.736 172.437C204.097 172.982 202.292 172.577 201.042 171.385C199.793 170.192 199.305 168.407 199.773 166.745C200.241 165.083 201.589 163.815 203.277 163.45Z" fill="white"/>
<path d="M191.466 175.753C188.643 162.43 201.76 150.577 214.238 149.181C226.175 147.847 232.644 151.069 241.847 158.06C245.614 157.021 246.925 156.082 250.262 154.068L250.953 154.414C252.715 164.062 248.698 169.089 241.064 174.154C235.271 152.981 211.955 147.485 196.921 162.974C194.275 166.646 192.986 168.688 191.705 173.199L191.466 175.753Z" fill="#40210E"/>
<path d="M220.402 204.506C227.597 203.004 235.042 205.509 239.865 211.056C244.687 216.602 246.135 224.323 243.648 231.239C241.161 238.156 235.129 243.187 227.879 244.393C216.982 246.205 206.637 238.969 204.602 228.112C202.566 217.254 209.589 206.763 220.402 204.506Z" fill="#F6A575"/>
<path d="M90.5641 204.594C101.585 202.7 112.053 210.108 113.933 221.132C115.812 232.157 108.391 242.615 97.3641 244.481C86.3581 246.343 75.9221 238.938 74.0461 227.933C72.1691 216.929 79.5611 206.484 90.5641 204.594Z" fill="#F6A575"/>
<path d="M158.854 225.765C174.349 225.973 176.385 248.48 161.361 253.198C145.762 253.699 143.718 229.955 158.854 225.765Z" fill="#961B0B"/>
<path d="M157.587 196.555C163.633 196.527 167.252 202.517 168.531 208.074C168.865 209.523 168.051 210.693 167.16 211.76C165.22 212.682 164.276 212.399 162.036 212.256C158.898 212.321 153.795 212.881 151.324 211.327C148.476 206.857 154.246 199.407 157.587 196.555Z" fill="#F6A575"/>
<path d="M10.634 173.899C11.562 174.472 14.225 176.179 15.052 176.193C20.877 176.297 19.991 173.984 23.869 178.681C23.048 182.644 23.062 185.106 23.17 189.17C23.676 191.799 24.425 195.658 25.333 198.106C27.803 203.296 28.993 204.874 33 209.015L34.382 210.454C35.164 211.072 36.978 212.396 37.518 213.088L38.373 212.977C41.583 217.295 42.153 218.715 47.131 220.624C51.696 219.94 53.187 219.195 56.302 215.89L57.942 220.12L59.859 223.994L60.475 225.646C61.657 227.617 63.763 231.722 65.062 233.215L65.236 233.972L68.047 238.133C78.596 251.937 86.991 258.785 101.674 267.767C95.917 270.465 92.013 271.859 86.019 273.961L84.201 274.363C79.3791 275.551 74.365 276.506 69.408 276.887C66.322 277.307 62.164 277.194 59.082 276.79C54.951 276.614 49.674 275.342 45.697 274.321L44.11 273.963C42.963 273.256 38.839 271.639 37.383 271.028L35.2531 269.774L34.636 269.659C32.342 268.366 29.9361 266.89 27.6541 265.544L25.387 263.806L23.433 262.425C20.523 260.001 18.718 258.102 16.091 255.347L14.44 253.336C5.673 242.524 0.628998 229.17 0.0599976 215.261L0 213.132L0.0890503 208.95L0.39801 205.406C0.77201 202.46 1.305 200.003 1.922 197.104L2.62103 194.212L4.133 189.658L5.21301 186.254L7.04901 181.589L8.10901 179.131C8.87401 177.415 9.80503 175.601 10.634 173.899Z" fill="#1D2D53"/>
<path d="M65.2357 233.972L68.0467 238.133C78.5957 251.937 86.9907 258.785 101.674 267.767C95.9167 270.465 92.0127 271.859 86.0187 273.961L84.2007 274.363C79.3787 275.551 74.3647 276.506 69.4077 276.887C66.3217 277.307 62.1637 277.194 59.0817 276.79C54.9507 276.614 49.6737 275.342 45.6967 274.321L44.1097 273.963C42.9627 273.256 38.8387 271.639 37.3827 271.028L35.2527 269.774L34.6357 269.659C34.7747 255.849 49.0907 241.325 60.5897 235.373L60.9497 236.273C62.3777 235.693 63.8727 234.754 65.2357 233.972Z" fill="#1D2D53"/>
<path d="M65.2357 233.972L68.0467 238.133C78.5957 251.937 86.9907 258.785 101.674 267.767C95.9167 270.465 92.0127 271.859 86.0187 273.961L84.2007 274.363C88.7847 245.27 50.7767 239.632 39.7947 263.787C38.7297 266.13 38.0887 268.556 37.3827 271.028L35.2527 269.774L34.6357 269.659C34.7747 255.849 49.0907 241.325 60.5897 235.373L60.9497 236.273C62.3777 235.693 63.8727 234.754 65.2357 233.972Z" fill="#1D2D53"/>
<path d="M35.2529 269.774C37.3289 268.308 38.2719 261.271 40.5609 258.243C56.5629 237.075 88.1269 244.286 86.0189 273.961L84.2009 274.363C88.7849 245.27 50.7769 239.632 39.7949 263.787C38.7299 266.13 38.0889 268.556 37.3829 271.028L35.2529 269.774Z" fill="#1D7275"/>
<path d="M65.2362 233.972L68.0472 238.133C67.4732 238.155 66.8982 238.17 66.3232 238.178C63.4682 238.211 62.9642 238.218 60.9502 236.273C62.3782 235.693 63.8732 234.754 65.2362 233.972Z" fill="#197871"/>
<path d="M44.1104 273.963C44.7614 272.201 45.3503 270.338 46.0963 268.623C50.8393 257.715 67.3453 254.324 71.4703 267.764C72.2393 271.744 72.0523 273.739 69.4083 276.887C66.3223 277.307 62.1643 277.194 59.0823 276.79C54.9513 276.614 49.6743 275.342 45.6973 274.321L44.1104 273.963Z" fill="#1D2D53"/>
<path d="M44.1104 273.963C44.7614 272.201 45.3503 270.338 46.0963 268.623C50.8393 257.715 67.3453 254.324 71.4703 267.764C70.2943 269.919 70.9003 270.357 70.4833 272.193C69.8363 265.732 66.5003 260.339 59.0563 261.216C51.4813 262.108 47.9413 267.632 45.6973 274.321L44.1104 273.963Z" fill="#1D7275"/>
<path d="M71.47 267.764C72.239 271.744 72.052 273.739 69.408 276.887C66.322 277.307 62.164 277.194 59.082 276.79C62.059 276.807 61.839 277.241 63.386 274.748L64.901 274.574C66.027 275.223 66.313 275.555 67.573 275.668C69.07 274.771 69.546 273.68 70.483 272.193C70.9 270.357 70.294 269.919 71.47 267.764Z" fill="#197871"/>
<path d="M56.3018 215.89L57.9418 220.12L59.8588 223.994L60.4749 225.646C61.6569 227.617 63.7628 231.722 65.0618 233.215L65.2358 233.972C63.8728 234.754 62.3778 235.693 60.9498 236.273L60.5898 235.373C49.0908 241.325 34.7749 255.849 34.6359 269.659C32.3419 268.366 29.9359 266.89 27.6539 265.544L25.3868 263.806L23.4329 262.425C20.5229 260.001 18.7178 258.102 16.0908 255.347C16.4258 253.742 17.4769 250.815 18.8029 249.86L19.3948 250.555C19.4648 250.367 19.5938 248.94 19.6198 248.695C21.1698 246.67 23.2588 245.623 24.0378 243.875L25.2228 243.783L26.6498 245.124C27.2398 242.936 27.8108 240.743 28.3638 238.546C30.4088 237.35 32.4738 236.188 34.5568 235.059C36.4158 228.057 36.0498 228.402 43.0248 226.374C44.6128 223.7 45.1539 222.966 47.1309 220.624C51.6959 219.94 53.1868 219.195 56.3018 215.89Z" fill="#1D7275"/>
<path d="M56.3018 215.89L57.9418 220.12C55.4198 221.176 50.7968 223.007 48.5728 224.348C48.1178 225.151 46.1789 228.663 45.5549 228.976C42.0989 230.71 38.6518 231.507 37.7158 235.876C37.0878 238.814 34.3299 239.525 31.7529 240.713L30.3928 246.349C25.1128 249.71 25.2559 249.569 26.5839 255.734C24.2979 258.34 23.8079 259.007 23.4329 262.425C20.5229 260.001 18.7178 258.102 16.0908 255.347C16.4258 253.742 17.4769 250.815 18.8029 249.86L19.3948 250.555C19.4648 250.367 19.5938 248.94 19.6198 248.695C21.1698 246.67 23.2588 245.623 24.0378 243.875L25.2228 243.783L26.6498 245.124C27.2398 242.936 27.8108 240.743 28.3638 238.546C30.4088 237.35 32.4738 236.188 34.5568 235.059C36.4158 228.057 36.0498 228.402 43.0248 226.374C44.6128 223.7 45.1539 222.966 47.1309 220.624C51.6959 219.94 53.1868 219.195 56.3018 215.89Z" fill="#1D2D53"/>
<path d="M24.0384 243.875L25.2234 243.783L26.6504 245.124C21.8004 249.721 23.9144 255.208 20.8984 257.228C18.1004 255.648 18.7384 253.146 19.3954 250.555C19.4654 250.367 19.5944 248.94 19.6204 248.695C21.1704 246.67 23.2594 245.623 24.0384 243.875Z" fill="#1D7275"/>
<path d="M57.942 220.12L59.8589 223.994L60.475 225.646C50.055 229.38 44.763 239.635 37.235 244.541C36.643 246.75 36.08 247.701 34.452 249.41C33.774 248.55 33.674 248.267 33.142 247.298L28.644 250.465C28.641 250.69 28.821 257.894 28.986 257.158C27.752 256.087 27.996 256.009 26.584 255.734C25.256 249.569 25.1129 249.71 30.3929 246.349L31.753 240.713C34.33 239.525 37.0879 238.814 37.7159 235.876C38.6519 231.507 42.099 230.71 45.555 228.976C46.179 228.663 48.1179 225.151 48.5729 224.348C50.7969 223.007 55.42 221.176 57.942 220.12Z" fill="#1D7275"/>
<path d="M59.8586 223.994L60.4746 225.646C50.0546 229.38 44.7626 239.635 37.2346 244.541C36.6426 246.75 36.0796 247.701 34.4516 249.41C33.7736 248.55 33.6736 248.267 33.1416 247.298C35.4156 239.11 39.9736 242.762 40.7966 235.21C41.9546 233.596 46.1226 232.634 48.3056 231.899C49.4346 230.821 49.5736 228.068 49.8456 226.369C53.4846 225.075 56.0906 224.584 59.8586 223.994Z" fill="#1D2D53"/>
<path d="M33.1416 247.298C33.6736 248.267 33.7736 248.55 34.4516 249.41C31.8586 254.817 29.5536 259.848 27.6536 265.544L25.3866 263.806L23.4326 262.425C23.8076 259.007 24.2976 258.34 26.5836 255.734C27.9956 256.009 27.7516 256.087 28.9856 257.158C28.8206 257.894 28.6406 250.69 28.6436 250.465L33.1416 247.298Z" fill="#1D2D53"/>
<path d="M26.5836 255.734C27.9956 256.009 27.7516 256.087 28.9856 257.158C25.5576 259.217 25.9246 260.014 25.3866 263.806L23.4326 262.425C23.8076 259.007 24.2976 258.34 26.5836 255.734Z" fill="#197871"/>
<path d="M65.0618 233.215L65.2358 233.972C63.8728 234.754 62.3778 235.693 60.9498 236.273L60.5898 235.373C62.4928 233.952 62.7668 233.828 65.0618 233.215Z" fill="#1D3454"/>
<path d="M10.634 173.899C11.562 174.472 14.225 176.179 15.052 176.193C20.877 176.297 19.991 173.984 23.869 178.681C23.048 182.644 23.062 185.106 23.17 189.17C23.676 191.799 24.425 195.658 25.333 198.106C24.819 199.444 24.738 200.115 24.367 201.475C21 213.814 11.542 217.435 0.0599976 215.261L0 213.132L0.0890503 208.95L0.39801 205.406C0.77201 202.46 1.305 200.003 1.922 197.104L2.62103 194.212L4.133 189.658L5.21301 186.254L7.04901 181.589L8.10901 179.131C8.87401 177.415 9.80503 175.601 10.634 173.899Z" fill="#1D2D53"/>
<path d="M10.634 173.899C11.562 174.472 14.225 176.179 15.052 176.193C20.877 176.297 19.991 173.984 23.869 178.681C23.048 182.644 23.062 185.106 23.17 189.17C23.676 191.799 24.425 195.658 25.333 198.106C24.819 199.444 24.738 200.115 24.367 201.475C21 213.814 11.542 217.435 0.0599976 215.261L0 213.132C6.063 213.645 11.51 213.953 16.658 209.761C19.985 207.033 22.006 203.028 22.223 198.732C22.497 194.33 21.007 190.001 18.082 186.7C14.96 183.232 11.603 181.8 7.04901 181.589L8.10901 179.131C8.87401 177.415 9.80503 175.601 10.634 173.899Z" fill="#1D7275"/>
<path d="M10.6344 173.899C11.5624 174.472 14.2254 176.179 15.0524 176.193C20.8774 176.297 19.9914 173.984 23.8694 178.681C23.0484 182.644 23.0624 185.106 23.1704 189.17C19.1214 183.207 15.7104 179.273 8.10938 179.131C8.87437 177.415 9.8054 175.601 10.6344 173.899Z" fill="#1D2D53"/>
<path d="M4.13342 189.658C19.6714 184.891 20.2954 211.912 0.398438 205.406C0.772438 202.46 1.30542 200.003 1.92242 197.104L2.62146 194.212L4.13342 189.658Z" fill="#1D2D53"/>
<path d="M1.92188 197.104L2.62091 194.212C8.07691 198.057 6.45789 194.457 10.4289 195.482C10.1529 200.861 4.95388 199.171 1.92188 197.104Z" fill="#197871"/>
<path d="M5.21283 186.254C12.3988 185.191 18.3848 188.314 18.9918 196.103C19.2678 199.506 18.1119 202.87 15.8029 205.386C11.3269 210.263 6.47587 209.824 0.661865 209.031L0.0888672 208.95L0.397827 205.406C20.2948 211.912 19.6708 184.891 4.13281 189.658L5.21283 186.254Z" fill="#1D7275"/>
<path d="M34.3824 210.454C35.1644 211.072 36.9784 212.396 37.5184 213.088L38.3735 212.977C41.5835 217.295 42.1535 218.715 47.1315 220.624C45.1545 222.966 44.6135 223.7 43.0255 226.374C36.0505 228.402 36.4164 228.057 34.5574 235.059C32.4744 236.188 30.4094 237.35 28.3644 238.546C27.8114 240.743 27.2405 242.936 26.6505 245.124L25.2234 243.783L24.0385 243.875C21.4135 243.825 21.3444 244.071 20.3984 241.868C21.1824 240.052 22.0744 237.969 22.5214 236.058C23.9784 229.837 24.5505 230.014 30.1185 229.618L30.8975 229.559L28.8984 226.806L27.7084 227.327C27.5774 223.88 26.6634 221.748 29.3854 219.446C31.9174 219.116 32.2975 219.475 32.8475 217.017C32.2865 215.67 32.1074 215.189 31.7374 213.783C32.2334 211.972 32.9244 211.654 34.3824 210.454Z" fill="#1D7275"/>
<path d="M30.8975 229.559L33.0984 229.529C33.2914 230.517 33.3024 230.101 33.2194 230.772C32.2294 233.696 30.8035 234.39 28.1605 236.098C26.1065 238.658 23.4114 240.586 20.3984 241.868C21.1824 240.052 22.0744 237.969 22.5214 236.058C23.9784 229.837 24.5505 230.014 30.1185 229.618L30.8975 229.559Z" fill="#1D7275"/>
<path d="M28.1602 236.098C28.5322 233.782 30.3241 232.193 31.9681 230.511L33.2191 230.772C32.2291 233.696 30.8032 234.39 28.1602 236.098Z" fill="#1D2D53"/>
<path d="M34.3822 210.454C35.1642 211.072 36.9781 212.396 37.5181 213.088C37.7841 214.373 37.8082 213.897 37.4752 215.17L37.8472 214.755L37.7131 215.345L37.9611 215.281L38.0872 216.16L37.9782 215.776L37.8812 216.269L37.5231 215.617C35.2321 216.62 35.2721 217.83 34.7551 220.209C31.5221 222.422 30.8862 219.476 28.8812 222.574C28.7702 224.161 28.6081 225.224 28.8981 226.806L27.7081 227.327C27.5771 223.88 26.6631 221.748 29.3851 219.446C31.9171 219.116 32.2972 219.475 32.8472 217.017C32.2862 215.67 32.1071 215.189 31.7371 213.783C32.2331 211.972 32.9242 211.654 34.3822 210.454Z" fill="#1D2D53"/>
<path d="M40.1499 221.089C41.6629 221.933 41.6649 221.841 42.7469 223.157L42.5989 223.982C40.2279 225.627 38.2859 224.664 36.3499 226.665C35.2149 227.717 35.8279 227.523 34.5449 227.785C34.6799 225.19 38.1919 222.589 40.1499 221.089Z" fill="#1D3454"/>
<path d="M33.0004 209.015L34.3824 210.454C32.9244 211.654 32.2334 211.972 31.7374 213.783C32.1074 215.189 32.2865 215.67 32.8475 217.017C32.2975 219.475 31.9174 219.116 29.3854 219.446C26.6634 221.748 27.5774 223.88 27.7084 227.327L28.8984 226.806L30.8975 229.559L30.1185 229.618C24.5505 230.014 23.9784 229.837 22.5214 236.058C22.0744 237.969 21.1824 240.052 20.3984 241.868C21.3444 244.071 21.4135 243.825 24.0385 243.875C23.2595 245.623 21.1704 246.67 19.6204 248.695C19.5944 248.94 19.4654 250.367 19.3954 250.555L18.8035 249.86C17.4775 250.815 16.4264 253.742 16.0914 255.347L14.4404 253.336C15.6644 252.08 17.7284 248.201 18.7474 246.442C12.5564 238.74 16.5145 240.023 20.0635 235.697C22.4635 232.772 13.4794 230.915 25.7084 225.731C26.2354 224.913 26.3984 223.52 26.1464 222.681C24.9764 218.783 29.5305 217.643 29.8505 216.472C31.0215 212.18 29.2274 212.697 33.0004 209.015Z" fill="#197871"/>
<path d="M28.8985 226.806L30.8975 229.559L30.1185 229.618C24.5505 230.014 23.9784 229.837 22.5214 236.058C22.0744 237.969 21.1825 240.052 20.3985 241.868C21.3445 244.071 21.4135 243.825 24.0385 243.875C23.2595 245.623 21.1704 246.67 19.6204 248.695C19.4594 241.247 14.3195 241.818 22.2785 235.701C21.5565 232.906 20.8655 231.62 22.0095 229.164C23.7225 227.894 25.5685 227.76 27.7085 227.327L28.8985 226.806Z" fill="#1D2D53"/>
<defs>
<linearGradient id="paint0_linear_274_27" x1="31.5787" y1="118.42" x2="32.5037" y2="123.547" gradientUnits="userSpaceOnUse">
<stop stop-color="#1E2756"/>
<stop offset="1" stop-color="#1C5C67"/>
</linearGradient>
</defs>
</svg>
