<svg width="30" height="30" viewBox="0 0 30 30" fill="none" xmlns="http://www.w3.org/2000/svg">
<path d="M7.50223 9.375C6.40723 9.55375 5.60223 9.88125 4.94848 10.4838C3.51723 11.8038 3.31723 13.9863 2.91848 18.35L2.50973 22.8087C2.35473 25.0062 4.07223 26.875 6.24848 26.875H7.18223C7.93475 26.8723 8.66906 26.6433 9.28969 26.2178C9.91032 25.7922 10.3886 25.1898 10.6622 24.4887L11.5897 22.14C11.8947 21.37 12.0472 20.9838 12.3647 20.7663C12.6822 20.5488 13.0922 20.5487 13.9122 20.5487H16.0872C16.9072 20.5487 17.3172 20.5488 17.6347 20.7663C17.9522 20.9838 18.1047 21.37 18.4097 22.1412L19.3372 24.4887C19.6109 25.1898 20.0891 25.7922 20.7098 26.2178C21.3304 26.6433 22.0647 26.8723 22.8172 26.875H23.751C25.926 26.875 27.6447 25.0062 27.4897 22.8087L27.086 18.3563C26.6885 13.99 26.4897 11.8062 25.0585 10.485C24.4047 9.88125 23.5985 9.55375 22.5022 9.375" stroke="#FFA559" stroke-width="1.875" stroke-linecap="round" stroke-linejoin="round"/>
<path d="M21.25 15.625H21.2613M8.75 15.625H8.76125" stroke="#FFA559" stroke-width="2.5" stroke-linecap="round" stroke-linejoin="round"/>
<path d="M14.9971 3.125L15.3196 3.99625C15.7421 5.13875 15.9533 5.71 16.3696 6.12625C16.7871 6.54375 17.3583 6.755 18.5008 7.1775L19.3721 7.5L18.5008 7.8225C17.3583 8.245 16.7871 8.45625 16.3708 8.8725C15.9533 9.29 15.7421 9.86125 15.3196 11.0038L14.9971 11.875L14.6746 11.0038C14.2521 9.86125 14.0408 9.29 13.6246 8.87375C13.2071 8.45625 12.6371 8.245 11.4933 7.8225L10.6221 7.5L11.4933 7.1775C12.6358 6.755 13.2071 6.54375 13.6233 6.1275C14.0408 5.71 14.2521 5.13875 14.6746 3.99625L14.9971 3.125Z" stroke="#FFA559" stroke-width="1.875" stroke-linejoin="round"/>
</svg>
