<svg width="30" height="30" viewBox="0 0 30 30" fill="none" xmlns="http://www.w3.org/2000/svg">
<g clip-path="url(#clip0_143_22)">
<path d="M15.625 18.7494C20.6187 18.7388 23.9825 18.6037 25.945 18.4906C27.2425 18.4156 28.29 17.4963 28.44 16.2056C28.5981 14.85 28.75 12.8125 28.75 10C28.75 7.1875 28.5981 5.15 28.44 3.79375C28.29 2.50375 27.2425 1.58437 25.9456 1.50937C23.9019 1.39125 20.3394 1.25 15 1.25C14.5717 1.25 14.155 1.25083 13.75 1.2525M7.8125 21.25V28.125M3.75 5.9375C3.75 7.01494 4.17801 8.04825 4.93988 8.81012C5.70175 9.57199 6.73506 10 7.8125 10C8.88994 10 9.92325 9.57199 10.6851 8.81012C11.447 8.04825 11.875 7.01494 11.875 5.9375C11.875 4.86006 11.447 3.82675 10.6851 3.06488C9.92325 2.30301 8.88994 1.875 7.8125 1.875C6.73506 1.875 5.70175 2.30301 4.93988 3.06488C4.17801 3.82675 3.75 4.86006 3.75 5.9375Z" stroke="#6FAF7E" stroke-width="1.875" stroke-linecap="round" stroke-linejoin="round"/>
<path d="M17.8373 10.2112C18.2279 10.2337 18.5823 10.4481 18.666 10.8299C18.756 11.2399 18.8073 11.8768 18.6441 12.7693C18.5548 13.2574 18.1385 13.6081 17.6466 13.6756L12.5004 14.3749L11.3754 26.4499C11.3004 27.2524 10.7191 27.9143 9.91913 28.0062C9.23383 28.085 8.54458 28.1247 7.85476 28.1249C7.06538 28.1249 6.35288 28.0724 5.781 28.0093C4.94475 27.9162 4.3435 27.2124 4.29788 26.3718L3.91163 19.2987C3.37386 19.2709 2.83668 19.2328 2.30038 19.1843C2.00943 19.1579 1.73978 19.0206 1.54732 18.8008C1.35487 18.581 1.25436 18.2956 1.26663 18.0037C1.33975 15.6474 1.63725 13.4937 1.88475 12.0568C2.071 10.9768 2.986 10.1962 4.081 10.1431C8.42976 9.93182 13.356 9.95432 17.8373 10.2118V10.2112Z" stroke="#6FAF7E" stroke-width="1.875" stroke-linecap="round" stroke-linejoin="round"/>
</g>
<defs>
<clipPath id="clip0_143_22">
<rect width="30" height="30" fill="white"/>
</clipPath>
</defs>
</svg>
