<svg width="660" height="105" viewBox="0 0 660 105" fill="none" xmlns="http://www.w3.org/2000/svg">
<path d="M22.9204 1.98572C22.9204 3.27644 23.6154 3.97144 24.9061 3.97144C26.1968 3.97144 26.8918 3.27644 26.8918 1.98572C26.8918 0.695007 26.1968 6.97374e-06 24.9061 6.97374e-06C23.6154 6.97374e-06 22.9204 0.695007 22.9204 1.98572Z" fill="#3A4651"/>
<path d="M52.7061 1.98572C52.7061 3.27644 53.4011 3.97144 54.6918 3.97144C55.9825 3.97144 56.6775 3.27644 56.6775 1.98572C56.6775 0.695007 55.9825 6.97374e-06 54.6918 6.97374e-06C53.4011 6.97374e-06 52.7061 0.695007 52.7061 1.98572Z" fill="#3A4651"/>
<path d="M60.6489 1.98572C60.6489 3.07786 61.3439 3.97144 62.1382 3.97144C62.9325 3.97144 63.6275 3.07786 63.6275 1.98572C63.6275 0.893578 62.9325 6.97374e-06 62.1382 6.97374e-06C61.3439 6.97374e-06 60.6489 0.893578 60.6489 1.98572Z" fill="#3A4651"/>
<path d="M22.9204 7.94275C22.9204 9.23347 23.6154 9.92847 24.9061 9.92847C26.1968 9.92847 26.8918 9.23347 26.8918 7.94275C26.8918 6.65204 26.1968 5.95704 24.9061 5.95704C23.6154 5.95704 22.9204 6.65204 22.9204 7.94275Z" fill="#3A4651"/>
<path d="M30.8633 7.94275C30.8633 9.0349 31.5583 9.92847 32.3526 9.92847C33.1469 9.92847 33.8419 9.0349 33.8419 7.94275C33.8419 6.85061 33.1469 5.95704 32.3526 5.95704C31.5583 5.95704 30.8633 6.85061 30.8633 7.94275Z" fill="#3A4651"/>
<path d="M37.8135 7.94275C37.8135 9.23347 38.5085 9.92847 39.7992 9.92847C41.0899 9.92847 41.7849 9.23347 41.7849 7.94275C41.7849 6.65204 41.0899 5.95704 39.7992 5.95704C38.5085 5.95704 37.8135 6.65204 37.8135 7.94275Z" fill="#3A4651"/>
<path d="M45.2598 6.9499C44.4655 8.3399 45.5577 9.92847 47.3448 9.92847C48.1391 9.92847 48.7348 9.0349 48.7348 7.94275C48.7348 5.85775 46.352 5.16275 45.2598 6.9499Z" fill="#3A4651"/>
<path d="M52.7061 7.94275C52.7061 9.23347 53.4011 9.92847 54.6918 9.92847C55.9825 9.92847 56.6775 9.23347 56.6775 7.94275C56.6775 6.65204 55.9825 5.95704 54.6918 5.95704C53.4011 5.95704 52.7061 6.65204 52.7061 7.94275Z" fill="#3A4651"/>
<path d="M60.6489 7.94275C60.6489 9.0349 61.3439 9.92847 62.1382 9.92847C62.9325 9.92847 63.6275 9.0349 63.6275 7.94275C63.6275 6.85061 62.9325 5.95704 62.1382 5.95704C61.3439 5.95704 60.6489 6.85061 60.6489 7.94275Z" fill="#3A4651"/>
<path d="M67.5991 7.94275C67.5991 9.23347 68.2941 9.92847 69.5848 9.92847C70.8755 9.92847 71.5705 9.23347 71.5705 7.94275C71.5705 6.65204 70.8755 5.95704 69.5848 5.95704C68.2941 5.95704 67.5991 6.65204 67.5991 7.94275Z" fill="#3A4651"/>
<path d="M15.3747 12.411C14.6797 14.1981 15.6726 15.886 17.559 15.886C18.3533 15.886 18.949 14.8931 18.949 13.4038C18.949 10.7231 16.2683 9.92884 15.3747 12.411Z" fill="#3A4651"/>
<path d="M22.9204 12.9071C22.9204 14.1978 23.6154 14.8928 24.9061 14.8928C26.1968 14.8928 26.8918 14.1978 26.8918 12.9071C26.8918 11.6164 26.1968 10.9214 24.9061 10.9214C23.6154 10.9214 22.9204 11.6164 22.9204 12.9071Z" fill="#3A4651"/>
<path d="M31.0618 13.1056C31.5583 16.2827 33.8418 16.5806 33.8418 13.5027C33.8418 11.8148 33.3454 10.9213 32.2533 10.9213C31.2604 10.9213 30.8633 11.6163 31.0618 13.1056Z" fill="#3A4651"/>
<path d="M37.8135 12.9071C37.8135 14.1978 38.5085 14.8928 39.7992 14.8928C41.0899 14.8928 41.7849 14.1978 41.7849 12.9071C41.7849 11.6164 41.0899 10.9214 39.7992 10.9214C38.5085 10.9214 37.8135 11.6164 37.8135 12.9071Z" fill="#3A4651"/>
<path d="M45.359 11.8149C44.4654 13.2049 45.8554 15.9849 47.1461 15.5878C48.9333 14.9921 49.1319 10.9214 47.3447 10.9214C46.5504 10.9214 45.6569 11.3185 45.359 11.8149Z" fill="#3A4651"/>
<path d="M52.9048 13.1053C53.1034 14.2968 53.8977 15.3889 54.692 15.3889C56.8762 15.3889 56.5784 11.5168 54.3941 11.1196C52.9048 10.8218 52.607 11.2189 52.9048 13.1053Z" fill="#3A4651"/>
<path d="M60.4504 12.1128C59.6562 14.1978 60.649 15.7863 62.2376 15.1906C64.0247 14.4956 64.0247 10.9213 62.2376 10.9213C61.4433 10.9213 60.649 11.5171 60.4504 12.1128Z" fill="#3A4651"/>
<path d="M67.5991 12.808C67.5991 14.6944 69.8827 16.283 70.9748 15.1909C72.3648 13.7016 71.4713 10.9216 69.5848 10.9216C68.2941 10.9216 67.5991 11.6166 67.5991 12.808Z" fill="#3A4651"/>
<path d="M74.946 12.4108C74.6482 13.205 74.6482 14.2972 74.946 14.7936C75.9389 16.3822 78.5203 14.8929 78.5203 12.8079C78.5203 10.6236 75.7403 10.2265 74.946 12.4108Z" fill="#3A4651"/>
<path d="M82.6905 13.1053C82.8891 14.3961 83.6834 15.3889 84.4777 15.3889C85.272 15.3889 86.0663 14.3961 86.2648 13.1053C86.5627 11.4175 86.0663 10.9211 84.4777 10.9211C82.8891 10.9211 82.3927 11.4175 82.6905 13.1053Z" fill="#3A4651"/>
<path d="M97.3848 12.808C97.3848 14.6944 99.6683 16.283 100.76 15.1909C102.15 13.7016 101.257 10.9216 99.3705 10.9216C98.0798 10.9216 97.3848 11.6166 97.3848 12.808Z" fill="#3A4651"/>
<path d="M15.4742 17.8713C14.6799 19.2613 15.772 20.8499 17.5592 20.8499C18.3535 20.8499 18.9492 19.9563 18.9492 18.8641C18.9492 16.7791 16.5663 16.0841 15.4742 17.8713Z" fill="#3A4651"/>
<path d="M22.9204 18.8641C22.9204 20.1549 23.6154 20.8499 24.9061 20.8499C26.1968 20.8499 26.8918 20.1549 26.8918 18.8641C26.8918 17.5734 26.1968 16.8784 24.9061 16.8784C23.6154 16.8784 22.9204 17.5734 22.9204 18.8641Z" fill="#3A4651"/>
<path d="M30.8633 18.8641C30.8633 19.9563 31.5583 20.8499 32.3526 20.8499C33.1469 20.8499 33.8419 19.9563 33.8419 18.8641C33.8419 17.772 33.1469 16.8784 32.3526 16.8784C31.5583 16.8784 30.8633 17.772 30.8633 18.8641Z" fill="#3A4651"/>
<path d="M37.8135 18.8641C37.8135 20.1549 38.5085 20.8499 39.7992 20.8499C41.0899 20.8499 41.7849 20.1549 41.7849 18.8641C41.7849 17.5734 41.0899 16.8784 39.7992 16.8784C38.5085 16.8784 37.8135 17.5734 37.8135 18.8641Z" fill="#3A4651"/>
<path d="M45.2598 17.8713C44.4655 19.2613 45.5577 20.8499 47.3448 20.8499C48.1391 20.8499 48.7348 19.9563 48.7348 18.8641C48.7348 16.7791 46.352 16.0841 45.2598 17.8713Z" fill="#3A4651"/>
<path d="M52.7061 18.8641C52.7061 20.1549 53.4011 20.8499 54.6918 20.8499C55.9825 20.8499 56.6775 20.1549 56.6775 18.8641C56.6775 17.5734 55.9825 16.8784 54.6918 16.8784C53.4011 16.8784 52.7061 17.5734 52.7061 18.8641Z" fill="#3A4651"/>
<path d="M60.3512 17.4741C59.4577 18.467 60.7484 20.8499 62.2377 20.8499C63.0319 20.8499 63.6277 19.9563 63.6277 18.8641C63.6277 16.9777 61.7412 16.1834 60.3512 17.4741Z" fill="#3A4651"/>
<path d="M67.5991 18.8641C67.5991 20.1549 68.2941 20.8499 69.5848 20.8499C70.8755 20.8499 71.5705 20.1549 71.5705 18.8641C71.5705 17.5734 70.8755 16.8784 69.5848 16.8784C68.2941 16.8784 67.5991 17.5734 67.5991 18.8641Z" fill="#3A4651"/>
<path d="M75.0455 17.8713C74.2512 19.2613 75.3433 20.8499 77.1305 20.8499C77.9247 20.8499 78.5205 19.9563 78.5205 18.8641C78.5205 16.7791 76.1376 16.0841 75.0455 17.8713Z" fill="#3A4651"/>
<path d="M82.4917 18.8641C82.4917 20.1549 83.1867 20.8499 84.4774 20.8499C85.7681 20.8499 86.4631 20.1549 86.4631 18.8641C86.4631 17.5734 85.7681 16.8784 84.4774 16.8784C83.1867 16.8784 82.4917 17.5734 82.4917 18.8641Z" fill="#3A4651"/>
<path d="M89.9383 17.8713C89.144 19.2613 90.2361 20.8499 92.0233 20.8499C92.8176 20.8499 93.4133 19.9563 93.4133 18.8641C93.4133 16.7791 91.0304 16.0841 89.9383 17.8713Z" fill="#3A4651"/>
<path d="M97.3848 18.8641C97.3848 20.1549 98.0798 20.8499 99.3705 20.8499C100.661 20.8499 101.356 20.1549 101.356 18.8641C101.356 17.5734 100.661 16.8784 99.3705 16.8784C98.0798 16.8784 97.3848 17.5734 97.3848 18.8641Z" fill="#3A4651"/>
<path d="M104.335 18.8641C104.335 20.1549 105.03 20.8499 106.32 20.8499C107.611 20.8499 108.306 20.1549 108.306 18.8641C108.306 17.5734 107.611 16.8784 106.32 16.8784C105.03 16.8784 104.335 17.5734 104.335 18.8641Z" fill="#3A4651"/>
<path d="M179.494 17.5734C178.104 18.8641 178.898 20.8499 180.785 20.8499C182.076 20.8499 182.771 20.1549 182.771 18.8641C182.771 16.9777 180.785 16.1834 179.494 17.5734Z" fill="#3A4651"/>
<path d="M186.742 18.8641C186.742 20.1549 187.437 20.8499 188.727 20.8499C190.018 20.8499 190.713 20.1549 190.713 18.8641C190.713 17.5734 190.018 16.8784 188.727 16.8784C187.437 16.8784 186.742 17.5734 186.742 18.8641Z" fill="#3A4651"/>
<path d="M24.2113 22.5376C22.4241 23.2326 22.6227 26.8069 24.4098 26.8069C26.197 26.8069 27.4877 24.0269 26.2963 22.9347C25.7998 22.4383 24.807 22.339 24.2113 22.5376Z" fill="#3A4651"/>
<path d="M194.784 22.8355C193.096 23.8283 194.089 26.8069 196.174 26.8069C196.968 26.8069 197.663 25.9133 197.663 24.9205C197.663 22.5376 196.472 21.7433 194.784 22.8355Z" fill="#3A4651"/>
<path d="M202.23 22.538C201.933 22.9351 201.635 24.0272 201.635 25.0201C201.635 27.403 204.911 27.1051 205.408 24.7222C205.705 23.0344 203.323 21.4458 202.23 22.538Z" fill="#3A4651"/>
<path d="M8.02759 24.8212C8.02759 26.1119 8.72259 26.8069 10.0133 26.8069C11.304 26.8069 11.999 26.1119 11.999 24.8212C11.999 23.5305 11.304 22.8355 10.0133 22.8355C8.72259 22.8355 8.02759 23.5305 8.02759 24.8212Z" fill="#3A4651"/>
<path d="M15.1763 24.5238C15.6727 27.1052 18.9491 27.4031 18.9491 24.9209C18.9491 23.4317 18.3534 22.8359 16.8641 22.8359C15.4741 22.8359 14.9777 23.3324 15.1763 24.5238Z" fill="#3A4651"/>
<path d="M30.8633 24.8212C30.8633 25.9133 31.5583 26.8069 32.3526 26.8069C33.1469 26.8069 33.8419 25.9133 33.8419 24.8212C33.8419 23.729 33.1469 22.8355 32.3526 22.8355C31.5583 22.8355 30.8633 23.729 30.8633 24.8212Z" fill="#3A4651"/>
<path d="M37.8135 24.8212C37.8135 26.1119 38.5085 26.8069 39.7992 26.8069C41.0899 26.8069 41.7849 26.1119 41.7849 24.8212C41.7849 23.5305 41.0899 22.8355 39.7992 22.8355C38.5085 22.8355 37.8135 23.5305 37.8135 24.8212Z" fill="#3A4651"/>
<path d="M44.9619 24.5238C45.4583 27.1052 48.7348 27.4031 48.7348 24.9209C48.7348 23.4317 48.1391 22.8359 46.6498 22.8359C45.2598 22.8359 44.7633 23.3324 44.9619 24.5238Z" fill="#3A4651"/>
<path d="M52.7061 24.8212C52.7061 26.1119 53.4011 26.8069 54.6918 26.8069C55.9825 26.8069 56.6775 26.1119 56.6775 24.8212C56.6775 23.5305 55.9825 22.8355 54.6918 22.8355C53.4011 22.8355 52.7061 23.5305 52.7061 24.8212Z" fill="#3A4651"/>
<path d="M60.3512 23.4312C59.4577 24.424 60.7484 26.8069 62.2377 26.8069C63.0319 26.8069 63.6277 25.9133 63.6277 24.8212C63.6277 22.9347 61.7412 22.1405 60.3512 23.4312Z" fill="#3A4651"/>
<path d="M67.5991 24.8212C67.5991 26.1119 68.2941 26.8069 69.5848 26.8069C70.8755 26.8069 71.5705 26.1119 71.5705 24.8212C71.5705 23.5305 70.8755 22.8355 69.5848 22.8355C68.2941 22.8355 67.5991 23.5305 67.5991 24.8212Z" fill="#3A4651"/>
<path d="M74.7476 24.5238C75.244 27.1052 78.5204 27.4031 78.5204 24.9209C78.5204 23.4317 77.9247 22.8359 76.4354 22.8359C75.0454 22.8359 74.549 23.3324 74.7476 24.5238Z" fill="#3A4651"/>
<path d="M82.4917 24.9209C82.4917 27.4031 85.7681 27.1052 86.2646 24.5238C86.4631 23.3324 85.9667 22.8359 84.5767 22.8359C83.0874 22.8359 82.4917 23.4317 82.4917 24.9209Z" fill="#3A4651"/>
<path d="M89.6406 24.5238C90.1371 27.1052 93.4135 27.4031 93.4135 24.9209C93.4135 23.4317 92.8178 22.8359 91.3285 22.8359C89.9385 22.8359 89.4421 23.3324 89.6406 24.5238Z" fill="#3A4651"/>
<path d="M97.3848 24.8212C97.3848 26.1119 98.0798 26.8069 99.3705 26.8069C100.661 26.8069 101.356 26.1119 101.356 24.8212C101.356 23.5305 100.661 22.8355 99.3705 22.8355C98.0798 22.8355 97.3848 23.5305 97.3848 24.8212Z" fill="#3A4651"/>
<path d="M104.533 24.5238C105.03 27.1052 108.306 27.4031 108.306 24.9209C108.306 23.4317 107.71 22.8359 106.221 22.8359C104.831 22.8359 104.335 23.3324 104.533 24.5238Z" fill="#3A4651"/>
<path d="M178.998 24.5238C179.494 27.1052 182.77 27.4031 182.77 24.9209C182.77 23.4317 182.175 22.8359 180.685 22.8359C179.295 22.8359 178.799 23.3324 178.998 24.5238Z" fill="#3A4651"/>
<path d="M186.742 24.9209C186.742 27.4031 190.018 27.1052 190.515 24.5238C190.713 23.3324 190.217 22.8359 188.827 22.8359C187.337 22.8359 186.742 23.4317 186.742 24.9209Z" fill="#3A4651"/>
<path d="M0.779749 28.3953C-0.808822 29.9839 0.184035 31.8703 2.36832 31.5725C3.55975 31.3739 4.55261 30.5796 4.55261 29.7853C4.55261 28.1967 1.97118 27.3032 0.779749 28.3953Z" fill="#3A4651"/>
<path d="M8.72266 28.3955C7.33266 29.8848 8.12695 31.7712 10.1127 31.7712C11.5027 31.7712 11.9991 31.2748 11.8005 30.0834C11.5027 28.2962 9.8148 27.4027 8.72266 28.3955Z" fill="#3A4651"/>
<path d="M15.6726 28.4948C14.2826 29.7855 15.0769 31.7712 16.9633 31.7712C18.254 31.7712 18.949 31.0762 18.949 29.7855C18.949 27.8991 16.9633 27.1048 15.6726 28.4948Z" fill="#3A4651"/>
<path d="M23.6155 28.3955C22.2255 29.8848 23.0198 31.7712 25.0055 31.7712C26.3955 31.7712 26.8919 31.2748 26.6933 30.0834C26.3955 28.2962 24.7076 27.4027 23.6155 28.3955Z" fill="#3A4651"/>
<path d="M30.8633 29.7855C30.8633 30.8777 31.5583 31.7712 32.3526 31.7712C33.1469 31.7712 33.8419 30.8777 33.8419 29.7855C33.8419 28.6934 33.1469 27.7998 32.3526 27.7998C31.5583 27.7998 30.8633 28.6934 30.8633 29.7855Z" fill="#3A4651"/>
<path d="M38.5083 28.3955C37.1183 29.8848 37.9126 31.7712 39.8983 31.7712C41.2883 31.7712 41.7847 31.2748 41.5862 30.0834C41.2883 28.2962 39.6004 27.4027 38.5083 28.3955Z" fill="#3A4651"/>
<path d="M45.4583 28.4948C44.0683 29.7855 44.8625 31.7712 46.749 31.7712C48.0397 31.7712 48.7347 31.0762 48.7347 29.7855C48.7347 27.8991 46.749 27.1048 45.4583 28.4948Z" fill="#3A4651"/>
<path d="M53.4011 28.3955C52.0111 29.8848 52.8054 31.7712 54.7911 31.7712C56.1811 31.7712 56.6776 31.2748 56.479 30.0834C56.1811 28.2962 54.4933 27.4027 53.4011 28.3955Z" fill="#3A4651"/>
<path d="M60.6489 29.7855C60.6489 30.8777 61.3439 31.7712 62.1382 31.7712C62.9325 31.7712 63.6275 30.8777 63.6275 29.7855C63.6275 28.6934 62.9325 27.7998 62.1382 27.7998C61.3439 27.7998 60.6489 28.6934 60.6489 29.7855Z" fill="#3A4651"/>
<path d="M68.2939 28.3955C66.9039 29.8848 67.6982 31.7712 69.6839 31.7712C71.0739 31.7712 71.5704 31.2748 71.3718 30.0834C71.0739 28.2962 69.3861 27.4027 68.2939 28.3955Z" fill="#3A4651"/>
<path d="M75.2439 28.3955C73.8539 29.8848 74.6482 31.7712 76.6339 31.7712C78.0239 31.7712 78.5203 31.2748 78.3218 30.0834C78.0239 28.2962 76.336 27.4027 75.2439 28.3955Z" fill="#3A4651"/>
<path d="M83.1868 28.3955C81.7968 29.8848 82.5911 31.7712 84.5768 31.7712C85.9668 31.7712 86.4632 31.2748 86.2646 30.0834C85.9668 28.2962 84.2789 27.4027 83.1868 28.3955Z" fill="#3A4651"/>
<path d="M90.137 28.3955C88.747 29.8848 89.5413 31.7712 91.527 31.7712C92.917 31.7712 93.4134 31.2748 93.2148 30.0834C92.917 28.2962 91.2291 27.4027 90.137 28.3955Z" fill="#3A4651"/>
<path d="M98.0798 28.3955C96.6898 29.8848 97.4841 31.7712 99.4698 31.7712C100.86 31.7712 101.356 31.2748 101.158 30.0834C100.86 28.2962 99.172 27.4027 98.0798 28.3955Z" fill="#3A4651"/>
<path d="M105.03 28.3955C103.64 29.8848 104.434 31.7712 106.42 31.7712C107.81 31.7712 108.306 31.2748 108.108 30.0834C107.81 28.2962 106.122 27.4027 105.03 28.3955Z" fill="#3A4651"/>
<path d="M112.973 28.3955C111.583 29.8848 112.377 31.7712 114.363 31.7712C115.753 31.7712 116.249 31.2748 116.051 30.0834C115.753 28.2962 114.065 27.4027 112.973 28.3955Z" fill="#3A4651"/>
<path d="M171.849 29.6862C171.849 31.1755 172.445 31.7712 173.934 31.7712C175.324 31.7712 175.821 31.2748 175.622 30.0834C175.126 27.502 171.849 27.2041 171.849 29.6862Z" fill="#3A4651"/>
<path d="M179.494 28.4948C178.104 29.7855 178.898 31.7712 180.785 31.7712C182.076 31.7712 182.771 31.0762 182.771 29.7855C182.771 27.8991 180.785 27.1048 179.494 28.4948Z" fill="#3A4651"/>
<path d="M186.742 29.6862C186.742 31.1755 187.337 31.7712 188.827 31.7712C190.217 31.7712 190.713 31.2748 190.515 30.0834C190.018 27.502 186.742 27.2041 186.742 29.6862Z" fill="#3A4651"/>
<path d="M194.387 28.4948C192.997 29.7855 193.791 31.7712 195.677 31.7712C196.968 31.7712 197.663 31.0762 197.663 29.7855C197.663 27.8991 195.677 27.1048 194.387 28.4948Z" fill="#3A4651"/>
<path d="M202.33 28.3955C200.94 29.8848 201.734 31.7712 203.72 31.7712C205.11 31.7712 205.606 31.2748 205.408 30.0834C205.11 28.2962 203.422 27.4027 202.33 28.3955Z" fill="#3A4651"/>
<path d="M209.28 28.3955C207.89 29.8848 208.684 31.7712 210.67 31.7712C212.06 31.7712 212.556 31.2748 212.358 30.0834C212.06 28.2962 210.372 27.4027 209.28 28.3955Z" fill="#3A4651"/>
<path d="M217.223 28.3955C215.833 29.8848 216.627 31.7712 218.613 31.7712C220.003 31.7712 220.499 31.2748 220.301 30.0834C220.003 28.2962 218.315 27.4027 217.223 28.3955Z" fill="#3A4651"/>
<path d="M30.8633 35.7428C30.8633 38.0264 33.3454 38.4235 34.1397 36.3385C34.8347 34.75 34.0404 33.7571 32.154 33.7571C31.459 33.7571 30.8633 34.6507 30.8633 35.7428Z" fill="#3A4651"/>
<path d="M37.8135 35.743C37.8135 37.0338 38.5085 37.7288 39.7992 37.7288C41.0899 37.7288 41.7849 37.0338 41.7849 35.743C41.7849 34.4523 41.0899 33.7573 39.7992 33.7573C38.5085 33.7573 37.8135 34.4523 37.8135 35.743Z" fill="#3A4651"/>
<path d="M45.2598 34.7502C44.4655 36.1402 45.5577 37.7288 47.3448 37.7288C48.1391 37.7288 48.7348 36.8352 48.7348 35.743C48.7348 33.658 46.352 32.963 45.2598 34.7502Z" fill="#3A4651"/>
<path d="M52.7061 35.743C52.7061 37.0338 53.4011 37.7288 54.6918 37.7288C55.9825 37.7288 56.6775 37.0338 56.6775 35.743C56.6775 34.4523 55.9825 33.7573 54.6918 33.7573C53.4011 33.7573 52.7061 34.4523 52.7061 35.743Z" fill="#3A4651"/>
<path d="M60.3511 35.1473C59.6561 36.7359 60.4504 37.7288 62.3368 37.7288C63.0318 37.7288 63.6275 36.8352 63.6275 35.743C63.6275 33.4595 61.1454 33.0623 60.3511 35.1473Z" fill="#3A4651"/>
<path d="M67.5991 35.743C67.5991 37.0338 68.2941 37.7288 69.5848 37.7288C70.8755 37.7288 71.5705 37.0338 71.5705 35.743C71.5705 34.4523 70.8755 33.7573 69.5848 33.7573C68.2941 33.7573 67.5991 34.4523 67.5991 35.743Z" fill="#3A4651"/>
<path d="M75.0455 34.7502C74.2512 36.1402 75.3433 37.7288 77.1305 37.7288C77.9247 37.7288 78.5205 36.8352 78.5205 35.743C78.5205 33.658 76.1376 32.963 75.0455 34.7502Z" fill="#3A4651"/>
<path d="M82.4917 35.743C82.4917 37.0338 83.1867 37.7288 84.4774 37.7288C85.7681 37.7288 86.4631 37.0338 86.4631 35.743C86.4631 34.4523 85.7681 33.7573 84.4774 33.7573C83.1867 33.7573 82.4917 34.4523 82.4917 35.743Z" fill="#3A4651"/>
<path d="M89.9383 34.7502C89.144 36.1402 90.2361 37.7288 92.0233 37.7288C92.8176 37.7288 93.4133 36.8352 93.4133 35.743C93.4133 33.658 91.0304 32.963 89.9383 34.7502Z" fill="#3A4651"/>
<path d="M97.3848 35.743C97.3848 37.0338 98.0798 37.7288 99.3705 37.7288C100.661 37.7288 101.356 37.0338 101.356 35.743C101.356 34.4523 100.661 33.7573 99.3705 33.7573C98.0798 33.7573 97.3848 34.4523 97.3848 35.743Z" fill="#3A4651"/>
<path d="M104.533 35.4447C105.03 38.0261 108.306 38.324 108.306 35.8418C108.306 34.3525 107.71 33.7568 106.221 33.7568C104.831 33.7568 104.335 34.2533 104.533 35.4447Z" fill="#3A4651"/>
<path d="M112.278 35.743C112.278 37.0338 112.973 37.7288 114.263 37.7288C115.554 37.7288 116.249 37.0338 116.249 35.743C116.249 34.4523 115.554 33.7573 114.263 33.7573C112.973 33.7573 112.278 34.4523 112.278 35.743Z" fill="#3A4651"/>
<path d="M119.426 35.4447C119.923 38.0261 123.199 38.324 123.199 35.8418C123.199 34.3525 122.603 33.7568 121.114 33.7568C119.724 33.7568 119.228 34.2533 119.426 35.4447Z" fill="#3A4651"/>
<path d="M127.17 35.743C127.17 37.0338 127.865 37.7288 129.156 37.7288C130.447 37.7288 131.142 37.0338 131.142 35.743C131.142 34.4523 130.447 33.7573 129.156 33.7573C127.865 33.7573 127.17 34.4523 127.17 35.743Z" fill="#3A4651"/>
<path d="M134.319 35.4447C134.816 38.0261 138.092 38.324 138.092 35.8418C138.092 34.3525 137.496 33.7568 136.007 33.7568C134.617 33.7568 134.121 34.2533 134.319 35.4447Z" fill="#3A4651"/>
<path d="M142.063 35.8422C142.063 37.2322 142.56 37.7286 143.751 37.53C146.333 37.0336 146.631 33.7572 144.148 33.7572C142.659 33.7572 142.063 34.3529 142.063 35.8422Z" fill="#3A4651"/>
<path d="M149.51 34.7502C148.716 36.1402 149.808 37.7288 151.595 37.7288C152.389 37.7288 152.985 36.8352 152.985 35.743C152.985 33.658 150.602 32.963 149.51 34.7502Z" fill="#3A4651"/>
<path d="M156.956 35.743C156.956 37.0338 157.651 37.7288 158.942 37.7288C160.232 37.7288 160.927 37.0338 160.927 35.743C160.927 34.4523 160.232 33.7573 158.942 33.7573C157.651 33.7573 156.956 34.4523 156.956 35.743Z" fill="#3A4651"/>
<path d="M164.105 35.4447C164.601 38.0261 167.878 38.324 167.878 35.8418C167.878 34.3525 167.282 33.7568 165.793 33.7568C164.403 33.7568 163.906 34.2533 164.105 35.4447Z" fill="#3A4651"/>
<path d="M171.849 35.8418C171.849 38.324 175.126 38.0261 175.622 35.4447C175.821 34.2533 175.324 33.7568 173.934 33.7568C172.445 33.7568 171.849 34.3525 171.849 35.8418Z" fill="#3A4651"/>
<path d="M178.998 35.4447C179.494 38.0261 182.77 38.324 182.77 35.8418C182.77 34.3525 182.175 33.7568 180.685 33.7568C179.295 33.7568 178.799 34.2533 178.998 35.4447Z" fill="#3A4651"/>
<path d="M186.742 35.743C186.742 37.0338 187.437 37.7288 188.727 37.7288C190.018 37.7288 190.713 37.0338 190.713 35.743C190.713 34.4523 190.018 33.7573 188.727 33.7573C187.437 33.7573 186.742 34.4523 186.742 35.743Z" fill="#3A4651"/>
<path d="M193.692 35.743C193.692 37.0338 194.387 37.7288 195.678 37.7288C196.968 37.7288 197.663 37.0338 197.663 35.743C197.663 34.4523 196.968 33.7573 195.678 33.7573C194.387 33.7573 193.692 34.4523 193.692 35.743Z" fill="#3A4651"/>
<path d="M201.635 35.8418C201.635 38.324 204.911 38.0261 205.408 35.4447C205.606 34.2533 205.11 33.7568 203.72 33.7568C202.23 33.7568 201.635 34.3525 201.635 35.8418Z" fill="#3A4651"/>
<path d="M208.783 35.4447C209.28 38.0261 212.556 38.324 212.556 35.8418C212.556 34.3525 211.961 33.7568 210.471 33.7568C209.081 33.7568 208.585 34.2533 208.783 35.4447Z" fill="#3A4651"/>
<path d="M216.528 35.743C216.528 37.0338 217.223 37.7288 218.513 37.7288C219.804 37.7288 220.499 37.0338 220.499 35.743C220.499 34.4523 219.804 33.7573 218.513 33.7573C217.223 33.7573 216.528 34.4523 216.528 35.743Z" fill="#3A4651"/>
<path d="M223.478 35.743C223.478 37.0338 224.173 37.7288 225.463 37.7288C226.754 37.7288 227.449 37.0338 227.449 35.743C227.449 34.4523 226.754 33.7573 225.463 33.7573C224.173 33.7573 223.478 34.4523 223.478 35.743Z" fill="#3A4651"/>
<path d="M231.42 35.7427C231.42 37.232 231.917 37.7284 233.208 37.5298C234.101 37.3312 234.895 36.537 234.895 35.7427C234.895 34.9484 234.101 34.1541 233.208 33.9555C231.917 33.757 231.42 34.2534 231.42 35.7427Z" fill="#3A4651"/>
<path d="M253.263 35.743C253.263 37.0338 253.958 37.7288 255.249 37.7288C256.54 37.7288 257.235 37.0338 257.235 35.743C257.235 34.4523 256.54 33.7573 255.249 33.7573C253.958 33.7573 253.263 34.4523 253.263 35.743Z" fill="#3A4651"/>
<path d="M261.206 35.7427C261.206 37.232 261.702 37.7284 262.993 37.5298C263.887 37.3312 264.681 36.537 264.681 35.7427C264.681 34.9484 263.887 34.1541 262.993 33.9555C261.702 33.757 261.206 34.2534 261.206 35.7427Z" fill="#3A4651"/>
<path d="M268.355 35.4447C268.851 38.0261 272.128 38.324 272.128 35.8418C272.128 34.3525 271.532 33.7568 270.043 33.7568C268.653 33.7568 268.156 34.2533 268.355 35.4447Z" fill="#3A4651"/>
<path d="M275.702 35.2463C275.106 36.9341 277.39 38.3241 279.078 37.232C279.574 36.9341 280.07 35.9413 280.07 35.147C280.07 33.2605 276.496 33.3598 275.702 35.2463Z" fill="#3A4651"/>
<path d="M283.049 35.743C283.049 37.0338 283.744 37.7288 285.035 37.7288C286.326 37.7288 287.021 37.0338 287.021 35.743C287.021 34.4523 286.326 33.7573 285.035 33.7573C283.744 33.7573 283.049 34.4523 283.049 35.743Z" fill="#3A4651"/>
<path d="M290.992 35.7427C290.992 37.232 291.488 37.7284 292.779 37.5298C293.673 37.3312 294.467 36.537 294.467 35.7427C294.467 34.9484 293.673 34.1541 292.779 33.9555C291.488 33.757 290.992 34.2534 290.992 35.7427Z" fill="#3A4651"/>
<path d="M44.7632 40.4091C44.7632 42.097 46.6496 43.8841 47.6425 43.2884C49.4296 42.097 48.8339 39.7141 46.7489 39.7141C45.6568 39.7141 44.7632 40.012 44.7632 40.4091Z" fill="#3A4651"/>
<path d="M52.9048 41.4021C53.1033 42.3949 53.8976 43.1892 54.6919 43.1892C55.4862 43.1892 56.2805 42.3949 56.479 41.4021C56.6776 40.2106 56.1812 39.7142 54.6919 39.7142C53.2026 39.7142 52.7062 40.2106 52.9048 41.4021Z" fill="#3A4651"/>
<path d="M60.6489 41.7001C60.6489 42.7922 61.3439 43.6858 62.1382 43.6858C62.9325 43.6858 63.6275 42.7922 63.6275 41.7001C63.6275 40.6079 62.9325 39.7144 62.1382 39.7144C61.3439 39.7144 60.6489 40.6079 60.6489 41.7001Z" fill="#3A4651"/>
<path d="M67.5991 41.7989C67.5991 44.281 70.8756 43.9832 71.372 41.4017C71.5706 40.2103 71.0741 39.7139 69.6841 39.7139C68.1948 39.7139 67.5991 40.3096 67.5991 41.7989Z" fill="#3A4651"/>
<path d="M74.5491 41.2033C74.5491 41.9976 74.7476 42.6926 74.9462 42.6926C75.1448 42.6926 76.0384 42.9904 76.9319 43.2883C78.1234 43.6854 78.5205 43.2883 78.5205 41.799C78.5205 40.409 77.9248 39.714 76.5348 39.714C75.4426 39.714 74.5491 40.409 74.5491 41.2033Z" fill="#3A4651"/>
<path d="M82.4917 41.1039C82.4917 42.5932 84.8746 43.8839 85.8674 42.9903C87.1581 41.6003 86.3638 39.7139 84.4774 39.7139C83.3853 39.7139 82.4917 40.3096 82.4917 41.1039Z" fill="#3A4651"/>
<path d="M89.4419 41.2033C89.4419 41.9976 90.3355 42.6926 91.4276 42.6926C92.5198 42.6926 93.4133 41.9976 93.4133 41.2033C93.4133 40.4091 92.5198 39.7141 91.4276 39.7141C90.3355 39.7141 89.4419 40.4091 89.4419 41.2033Z" fill="#3A4651"/>
<path d="M97.5832 41.4021C97.7818 42.3949 98.5761 43.1892 99.3704 43.1892C100.165 43.1892 100.959 42.3949 101.158 41.4021C101.356 40.2106 100.86 39.7142 99.3704 39.7142C97.8811 39.7142 97.3847 40.2106 97.5832 41.4021Z" fill="#3A4651"/>
<path d="M104.335 41.2033C104.335 41.9976 105.228 42.6926 106.32 42.6926C107.413 42.6926 108.306 41.9976 108.306 41.2033C108.306 40.4091 107.413 39.7141 106.32 39.7141C105.228 39.7141 104.335 40.4091 104.335 41.2033Z" fill="#3A4651"/>
<path d="M112.476 41.4021C112.675 42.3949 113.469 43.1892 114.263 43.1892C115.058 43.1892 115.852 42.3949 116.051 41.4021C116.249 40.2106 115.753 39.7142 114.263 39.7142C112.774 39.7142 112.278 40.2106 112.476 41.4021Z" fill="#3A4651"/>
<path d="M119.426 41.4021C119.625 42.3949 120.419 43.1892 121.213 43.1892C122.007 43.1892 122.802 42.3949 123 41.4021C123.199 40.2106 122.702 39.7142 121.213 39.7142C119.724 39.7142 119.227 40.2106 119.426 41.4021Z" fill="#3A4651"/>
<path d="M127.17 41.6003C127.17 43.9832 130.546 43.7846 130.943 41.4017C131.142 40.2103 130.645 39.7139 129.255 39.7139C127.865 39.7139 127.17 40.3096 127.17 41.6003Z" fill="#3A4651"/>
<path d="M134.319 41.4021C134.518 42.3949 135.312 43.1892 136.106 43.1892C136.9 43.1892 137.695 42.3949 137.893 41.4021C138.092 40.2106 137.595 39.7142 136.106 39.7142C134.617 39.7142 134.12 40.2106 134.319 41.4021Z" fill="#3A4651"/>
<path d="M142.063 41.1039C142.063 42.5932 144.446 43.8839 145.439 42.9903C146.73 41.6003 145.936 39.7139 144.049 39.7139C142.957 39.7139 142.063 40.3096 142.063 41.1039Z" fill="#3A4651"/>
<path d="M149.212 41.4021C149.41 42.3949 150.205 43.1892 150.999 43.1892C151.793 43.1892 152.588 42.3949 152.786 41.4021C152.985 40.2106 152.488 39.7142 150.999 39.7142C149.51 39.7142 149.013 40.2106 149.212 41.4021Z" fill="#3A4651"/>
<path d="M157.155 41.4021C157.353 42.3949 158.148 43.1892 158.942 43.1892C159.736 43.1892 160.53 42.3949 160.729 41.4021C160.928 40.2106 160.431 39.7142 158.942 39.7142C157.453 39.7142 156.956 40.2106 157.155 41.4021Z" fill="#3A4651"/>
<path d="M163.906 41.0052C163.906 42.8917 164.899 43.686 166.488 42.991C168.573 42.1967 168.176 39.7145 165.892 39.7145C164.8 39.7145 163.906 40.3102 163.906 41.0052Z" fill="#3A4651"/>
<path d="M172.048 41.4021C172.246 42.3949 173.04 43.1892 173.835 43.1892C174.629 43.1892 175.423 42.3949 175.622 41.4021C175.82 40.2106 175.324 39.7142 173.835 39.7142C172.345 39.7142 171.849 40.2106 172.048 41.4021Z" fill="#3A4651"/>
<path d="M178.998 41.4017C179.395 43.7846 182.77 43.9832 182.77 41.6003C182.77 40.3096 182.075 39.7139 180.685 39.7139C179.295 39.7139 178.799 40.2103 178.998 41.4017Z" fill="#3A4651"/>
<path d="M186.94 41.4021C187.139 42.3949 187.933 43.1892 188.728 43.1892C189.522 43.1892 190.316 42.3949 190.515 41.4021C190.713 40.2106 190.217 39.7142 188.728 39.7142C187.238 39.7142 186.742 40.2106 186.94 41.4021Z" fill="#3A4651"/>
<path d="M193.692 41.2033C193.692 41.9976 193.89 42.6926 194.089 42.6926C194.288 42.6926 195.181 42.9904 196.075 43.2883C197.266 43.6854 197.663 43.2883 197.663 41.799C197.663 40.409 197.068 39.714 195.678 39.714C194.585 39.714 193.692 40.409 193.692 41.2033Z" fill="#3A4651"/>
<path d="M201.635 41.2033C201.635 41.9976 202.528 42.6926 203.62 42.6926C204.713 42.6926 205.606 41.9976 205.606 41.2033C205.606 40.4091 204.713 39.7141 203.62 39.7141C202.528 39.7141 201.635 40.4091 201.635 41.2033Z" fill="#3A4651"/>
<path d="M208.783 41.4021C208.982 42.3949 209.776 43.1892 210.571 43.1892C211.365 43.1892 212.159 42.3949 212.358 41.4021C212.556 40.2106 212.06 39.7142 210.571 39.7142C209.081 39.7142 208.585 40.2106 208.783 41.4021Z" fill="#3A4651"/>
<path d="M216.528 41.1039C216.528 42.5932 218.91 43.8839 219.903 42.9903C221.194 41.6003 220.4 39.7139 218.513 39.7139C217.421 39.7139 216.528 40.3096 216.528 41.1039Z" fill="#3A4651"/>
<path d="M223.478 41.1039C223.478 42.5932 225.86 43.8839 226.853 42.9903C228.144 41.6003 227.35 39.7139 225.463 39.7139C224.371 39.7139 223.478 40.3096 223.478 41.1039Z" fill="#3A4651"/>
<path d="M231.619 41.4021C231.818 42.3949 232.612 43.1892 233.406 43.1892C234.201 43.1892 234.995 42.3949 235.193 41.4021C235.392 40.2106 234.896 39.7142 233.406 39.7142C231.917 39.7142 231.421 40.2106 231.619 41.4021Z" fill="#3A4651"/>
<path d="M246.313 41.7989C246.313 44.281 249.59 43.9832 250.086 41.4017C250.285 40.2103 249.788 39.7139 248.398 39.7139C246.909 39.7139 246.313 40.3096 246.313 41.7989Z" fill="#3A4651"/>
<path d="M253.462 41.4017C253.958 43.9832 257.235 44.281 257.235 41.7989C257.235 40.3096 256.639 39.7139 255.15 39.7139C253.76 39.7139 253.263 40.2103 253.462 41.4017Z" fill="#3A4651"/>
<path d="M261.206 41.6997C261.206 43.189 261.702 43.6854 262.993 43.4868C263.887 43.2883 264.681 42.494 264.681 41.6997C264.681 40.9054 263.887 40.1111 262.993 39.9126C261.702 39.714 261.206 40.2104 261.206 41.6997Z" fill="#3A4651"/>
<path d="M268.355 41.4021C268.553 42.3949 269.348 43.1892 270.142 43.1892C270.936 43.1892 271.73 42.3949 271.929 41.4021C272.128 40.2106 271.631 39.7142 270.142 39.7142C268.653 39.7142 268.156 40.2106 268.355 41.4021Z" fill="#3A4651"/>
<path d="M276.099 41.7989C276.099 44.281 279.376 43.9832 279.872 41.4017C280.071 40.2103 279.574 39.7139 278.184 39.7139C276.695 39.7139 276.099 40.3096 276.099 41.7989Z" fill="#3A4651"/>
<path d="M283.248 41.4021C283.446 42.3949 284.24 43.1892 285.035 43.1892C285.829 43.1892 286.623 42.3949 286.822 41.4021C287.02 40.2106 286.524 39.7142 285.035 39.7142C283.545 39.7142 283.049 40.2106 283.248 41.4021Z" fill="#3A4651"/>
<path d="M297.942 41.1039C297.942 42.5932 300.325 43.8839 301.318 42.9903C302.608 41.6003 301.814 39.7139 299.928 39.7139C298.835 39.7139 297.942 40.3096 297.942 41.1039Z" fill="#3A4651"/>
<path d="M305.09 41.4021C305.289 42.3949 306.282 43.1892 307.374 43.1892C308.466 43.1892 309.459 42.3949 309.658 41.4021C309.955 40.1114 309.36 39.7142 307.374 39.7142C305.388 39.7142 304.793 40.1114 305.09 41.4021Z" fill="#3A4651"/>
<path d="M37.8135 46.6639C37.8135 47.9547 38.5085 48.6497 39.7992 48.6497C41.0899 48.6497 41.7849 47.9547 41.7849 46.6639C41.7849 45.3732 41.0899 44.6782 39.7992 44.6782C38.5085 44.6782 37.8135 45.3732 37.8135 46.6639Z" fill="#3A4651"/>
<path d="M45.2598 45.6711C44.4655 47.0611 45.5577 48.6497 47.3448 48.6497C48.1391 48.6497 48.7348 47.7561 48.7348 46.6639C48.7348 44.5789 46.352 43.8839 45.2598 45.6711Z" fill="#3A4651"/>
<path d="M52.7061 46.6639C52.7061 47.9547 53.4011 48.6497 54.6918 48.6497C55.9825 48.6497 56.6775 47.9547 56.6775 46.6639C56.6775 45.3732 55.9825 44.6782 54.6918 44.6782C53.4011 44.6782 52.7061 45.3732 52.7061 46.6639Z" fill="#3A4651"/>
<path d="M60.6489 46.6639C60.6489 47.7561 61.3439 48.6497 62.1382 48.6497C62.9325 48.6497 63.6275 47.7561 63.6275 46.6639C63.6275 45.5718 62.9325 44.6782 62.1382 44.6782C61.3439 44.6782 60.6489 45.5718 60.6489 46.6639Z" fill="#3A4651"/>
<path d="M67.5991 46.6639C67.5991 47.9547 68.2941 48.6497 69.5848 48.6497C70.8755 48.6497 71.5705 47.9547 71.5705 46.6639C71.5705 45.3732 70.8755 44.6782 69.5848 44.6782C68.2941 44.6782 67.5991 45.3732 67.5991 46.6639Z" fill="#3A4651"/>
<path d="M75.0455 45.6711C74.2512 47.0611 75.3433 48.6497 77.1305 48.6497C77.9247 48.6497 78.5205 47.7561 78.5205 46.6639C78.5205 44.5789 76.1376 43.8839 75.0455 45.6711Z" fill="#3A4651"/>
<path d="M82.4917 46.5647C82.4917 48.0539 83.0874 48.6497 84.5767 48.6497C85.9667 48.6497 86.4631 48.1532 86.2646 46.9618C85.7681 44.3804 82.4917 44.0825 82.4917 46.5647Z" fill="#3A4651"/>
<path d="M89.9383 45.6711C89.144 47.0611 90.2361 48.6497 92.0233 48.6497C92.8176 48.6497 93.4133 47.7561 93.4133 46.6639C93.4133 44.5789 91.0304 43.8839 89.9383 45.6711Z" fill="#3A4651"/>
<path d="M97.3848 46.6639C97.3848 47.9547 98.0798 48.6497 99.3705 48.6497C100.661 48.6497 101.356 47.9547 101.356 46.6639C101.356 45.3732 100.661 44.6782 99.3705 44.6782C98.0798 44.6782 97.3848 45.3732 97.3848 46.6639Z" fill="#3A4651"/>
<path d="M105.03 45.3732C103.64 46.6639 104.434 48.6497 106.32 48.6497C107.611 48.6497 108.306 47.9547 108.306 46.6639C108.306 44.7775 106.32 43.9832 105.03 45.3732Z" fill="#3A4651"/>
<path d="M112.278 46.5647C112.278 48.0539 112.873 48.6497 114.363 48.6497C116.845 48.6497 116.547 45.3732 113.965 44.8768C112.774 44.6782 112.278 45.1747 112.278 46.5647Z" fill="#3A4651"/>
<path d="M119.923 45.3732C118.533 46.6639 119.327 48.6497 121.213 48.6497C122.504 48.6497 123.199 47.9547 123.199 46.6639C123.199 44.7775 121.213 43.9832 119.923 45.3732Z" fill="#3A4651"/>
<path d="M127.17 46.6639C127.17 47.9547 127.865 48.6497 129.156 48.6497C130.447 48.6497 131.142 47.9547 131.142 46.6639C131.142 45.3732 130.447 44.6782 129.156 44.6782C127.865 44.6782 127.17 45.3732 127.17 46.6639Z" fill="#3A4651"/>
<path d="M134.815 45.3732C133.425 46.6639 134.22 48.6497 136.106 48.6497C137.397 48.6497 138.092 47.9547 138.092 46.6639C138.092 44.7775 136.106 43.9832 134.815 45.3732Z" fill="#3A4651"/>
<path d="M142.063 46.5647C142.063 48.0539 142.659 48.6497 144.148 48.6497C145.538 48.6497 146.035 48.1532 145.836 46.9618C145.34 44.3804 142.063 44.0825 142.063 46.5647Z" fill="#3A4651"/>
<path d="M149.609 46.2668C148.715 48.5504 148.815 48.6497 150.999 48.6497C152.29 48.6497 152.985 47.9547 152.985 46.6639C152.985 44.2811 150.502 43.9832 149.609 46.2668Z" fill="#3A4651"/>
<path d="M156.956 46.6639C156.956 47.9547 157.651 48.6497 158.942 48.6497C160.232 48.6497 160.927 47.9547 160.927 46.6639C160.927 45.3732 160.232 44.6782 158.942 44.6782C157.651 44.6782 156.956 45.3732 156.956 46.6639Z" fill="#3A4651"/>
<path d="M164.601 45.3732C163.211 46.6639 164.005 48.6497 165.892 48.6497C167.183 48.6497 167.878 47.9547 167.878 46.6639C167.878 44.7775 165.892 43.9832 164.601 45.3732Z" fill="#3A4651"/>
<path d="M171.849 46.5647C171.849 48.0539 172.445 48.6497 173.934 48.6497C175.324 48.6497 175.821 48.1532 175.622 46.9618C175.126 44.3804 171.849 44.0825 171.849 46.5647Z" fill="#3A4651"/>
<path d="M179.494 45.3732C178.104 46.6639 178.898 48.6497 180.785 48.6497C182.076 48.6497 182.771 47.9547 182.771 46.6639C182.771 44.7775 180.785 43.9832 179.494 45.3732Z" fill="#3A4651"/>
<path d="M186.742 46.6639C186.742 47.9547 187.437 48.6497 188.727 48.6497C190.018 48.6497 190.713 47.9547 190.713 46.6639C190.713 45.3732 190.018 44.6782 188.727 44.6782C187.437 44.6782 186.742 45.3732 186.742 46.6639Z" fill="#3A4651"/>
<path d="M194.387 45.3732C192.997 46.6639 193.791 48.6497 195.677 48.6497C196.968 48.6497 197.663 47.9547 197.663 46.6639C197.663 44.7775 195.677 43.9832 194.387 45.3732Z" fill="#3A4651"/>
<path d="M201.635 46.5647C201.635 48.0539 202.23 48.6497 203.72 48.6497C206.202 48.6497 205.904 45.3732 203.323 44.8768C202.131 44.6782 201.635 45.1747 201.635 46.5647Z" fill="#3A4651"/>
<path d="M209.28 45.3732C207.89 46.6639 208.684 48.6497 210.57 48.6497C211.861 48.6497 212.556 47.9547 212.556 46.6639C212.556 44.7775 210.57 43.9832 209.28 45.3732Z" fill="#3A4651"/>
<path d="M216.528 46.6639C216.528 47.9547 217.223 48.6497 218.513 48.6497C219.804 48.6497 220.499 47.9547 220.499 46.6639C220.499 45.3732 219.804 44.6782 218.513 44.6782C217.223 44.6782 216.528 45.3732 216.528 46.6639Z" fill="#3A4651"/>
<path d="M224.173 45.3732C222.783 46.6639 223.577 48.6497 225.463 48.6497C226.754 48.6497 227.449 47.9547 227.449 46.6639C227.449 44.7775 225.463 43.9832 224.173 45.3732Z" fill="#3A4651"/>
<path d="M231.42 46.6645C231.42 48.1538 231.917 48.6503 233.208 48.4517C234.101 48.2531 234.895 47.4588 234.895 46.6645C234.895 45.8703 234.101 45.076 233.208 44.8774C231.917 44.6788 231.42 45.1753 231.42 46.6645Z" fill="#3A4651"/>
<path d="M239.065 45.3732C237.675 46.6639 238.47 48.6497 240.356 48.6497C241.647 48.6497 242.342 47.9547 242.342 46.6639C242.342 44.7775 240.356 43.9832 239.065 45.3732Z" fill="#3A4651"/>
<path d="M67.5991 52.6215C67.5991 53.9122 68.2941 54.6072 69.5848 54.6072C70.8755 54.6072 71.5705 53.9122 71.5705 52.6215C71.5705 51.3307 70.8755 50.6357 69.5848 50.6357C68.2941 50.6357 67.5991 51.3307 67.5991 52.6215Z" fill="#3A4651"/>
<path d="M74.7476 52.3236C75.244 54.905 78.5204 55.2029 78.5204 52.7207C78.5204 51.2315 77.9247 50.6357 76.4354 50.6357C75.0454 50.6357 74.549 51.1322 74.7476 52.3236Z" fill="#3A4651"/>
<path d="M82.4917 52.6215C82.4917 53.9122 83.1867 54.6072 84.4774 54.6072C85.7681 54.6072 86.4631 53.9122 86.4631 52.6215C86.4631 51.3307 85.7681 50.6357 84.4774 50.6357C83.1867 50.6357 82.4917 51.3307 82.4917 52.6215Z" fill="#3A4651"/>
<path d="M89.9383 51.6286C89.144 53.0186 90.2361 54.6072 92.0233 54.6072C92.8176 54.6072 93.4133 53.7136 93.4133 52.6215C93.4133 50.5365 91.0304 49.8415 89.9383 51.6286Z" fill="#3A4651"/>
<path d="M97.3848 52.6215C97.3848 53.9122 98.0798 54.6072 99.3705 54.6072C100.661 54.6072 101.356 53.9122 101.356 52.6215C101.356 51.3307 100.661 50.6357 99.3705 50.6357C98.0798 50.6357 97.3848 51.3307 97.3848 52.6215Z" fill="#3A4651"/>
<path d="M104.533 52.3236C105.03 54.905 108.306 55.2029 108.306 52.7207C108.306 51.2315 107.71 50.6357 106.221 50.6357C104.831 50.6357 104.335 51.1322 104.533 52.3236Z" fill="#3A4651"/>
<path d="M112.278 52.7207C112.278 55.2029 115.554 54.905 116.05 52.3236C116.249 51.1322 115.753 50.6357 114.363 50.6357C112.873 50.6357 112.278 51.2315 112.278 52.7207Z" fill="#3A4651"/>
<path d="M119.426 52.3236C119.923 54.905 123.199 55.2029 123.199 52.7207C123.199 51.2315 122.603 50.6357 121.114 50.6357C119.724 50.6357 119.228 51.1322 119.426 52.3236Z" fill="#3A4651"/>
<path d="M127.17 52.6215C127.17 53.9122 127.865 54.6072 129.156 54.6072C130.447 54.6072 131.142 53.9122 131.142 52.6215C131.142 51.3307 130.447 50.6357 129.156 50.6357C127.865 50.6357 127.17 51.3307 127.17 52.6215Z" fill="#3A4651"/>
<path d="M134.319 52.3236C134.816 54.905 138.092 55.2029 138.092 52.7207C138.092 51.2315 137.496 50.6357 136.007 50.6357C134.617 50.6357 134.121 51.1322 134.319 52.3236Z" fill="#3A4651"/>
<path d="M142.063 52.7207C142.063 55.2029 145.34 54.905 145.836 52.3236C146.035 51.1322 145.538 50.6357 144.148 50.6357C142.659 50.6357 142.063 51.2315 142.063 52.7207Z" fill="#3A4651"/>
<path d="M149.212 52.3236C149.708 54.905 152.985 55.2029 152.985 52.7207C152.985 51.2315 152.389 50.6357 150.9 50.6357C149.51 50.6357 149.013 51.1322 149.212 52.3236Z" fill="#3A4651"/>
<path d="M156.956 52.6215C156.956 53.9122 157.651 54.6072 158.942 54.6072C160.232 54.6072 160.927 53.9122 160.927 52.6215C160.927 51.3307 160.232 50.6357 158.942 50.6357C157.651 50.6357 156.956 51.3307 156.956 52.6215Z" fill="#3A4651"/>
<path d="M164.105 52.3236C164.601 54.905 167.878 55.2029 167.878 52.7207C167.878 51.2315 167.282 50.6357 165.793 50.6357C164.403 50.6357 163.906 51.1322 164.105 52.3236Z" fill="#3A4651"/>
<path d="M171.849 52.7207C171.849 55.2029 175.126 54.905 175.622 52.3236C175.821 51.1322 175.324 50.6357 173.934 50.6357C172.445 50.6357 171.849 51.2315 171.849 52.7207Z" fill="#3A4651"/>
<path d="M178.998 52.3236C179.494 54.905 182.77 55.2029 182.77 52.7207C182.77 51.2315 182.175 50.6357 180.685 50.6357C179.295 50.6357 178.799 51.1322 178.998 52.3236Z" fill="#3A4651"/>
<path d="M186.742 52.7207C186.742 55.2029 190.018 54.905 190.515 52.3236C190.713 51.1322 190.217 50.6357 188.827 50.6357C187.337 50.6357 186.742 51.2315 186.742 52.7207Z" fill="#3A4651"/>
<path d="M193.89 52.3236C194.387 54.905 197.663 55.2029 197.663 52.7207C197.663 51.2315 197.068 50.6357 195.578 50.6357C194.188 50.6357 193.692 51.1322 193.89 52.3236Z" fill="#3A4651"/>
<path d="M201.635 52.7207C201.635 55.2029 204.911 54.905 205.408 52.3236C205.606 51.1322 205.11 50.6357 203.72 50.6357C202.23 50.6357 201.635 51.2315 201.635 52.7207Z" fill="#3A4651"/>
<path d="M208.783 52.3236C209.28 54.905 212.556 55.2029 212.556 52.7207C212.556 51.2315 211.961 50.6357 210.471 50.6357C209.081 50.6357 208.585 51.1322 208.783 52.3236Z" fill="#3A4651"/>
<path d="M216.528 52.7207C216.528 55.2029 219.804 54.905 220.3 52.3236C220.499 51.1322 220.003 50.6357 218.613 50.6357C217.123 50.6357 216.528 51.2315 216.528 52.7207Z" fill="#3A4651"/>
<path d="M223.478 52.6215C223.478 53.9122 224.173 54.6072 225.463 54.6072C226.754 54.6072 227.449 53.9122 227.449 52.6215C227.449 51.3307 226.754 50.6357 225.463 50.6357C224.173 50.6357 223.478 51.3307 223.478 52.6215Z" fill="#3A4651"/>
<path d="M231.42 52.7207C231.42 55.2029 234.697 54.905 235.193 52.3236C235.392 51.1322 234.895 50.6357 233.505 50.6357C232.016 50.6357 231.42 51.2315 231.42 52.7207Z" fill="#3A4651"/>
<path d="M238.569 52.3236C239.065 54.905 242.342 55.2029 242.342 52.7207C242.342 51.2315 241.746 50.6357 240.257 50.6357C238.867 50.6357 238.37 51.1322 238.569 52.3236Z" fill="#3A4651"/>
<path d="M83.1868 56.1958C81.7968 57.6851 82.5911 59.5715 84.5768 59.5715C85.9668 59.5715 86.4632 59.0751 86.2646 57.8837C85.9668 56.0965 84.2789 55.203 83.1868 56.1958Z" fill="#3A4651"/>
<path d="M89.9383 56.593C89.144 57.983 90.2361 59.5715 92.0233 59.5715C92.8176 59.5715 93.4133 58.678 93.4133 57.5858C93.4133 55.5008 91.0304 54.8058 89.9383 56.593Z" fill="#3A4651"/>
<path d="M98.0798 56.1958C96.6898 57.6851 97.4841 59.5715 99.4698 59.5715C100.86 59.5715 101.356 59.0751 101.158 57.8837C100.86 56.0965 99.172 55.203 98.0798 56.1958Z" fill="#3A4651"/>
<path d="M105.03 56.1958C103.64 57.6851 104.434 59.5715 106.42 59.5715C107.81 59.5715 108.306 59.0751 108.108 57.8837C107.81 56.0965 106.122 55.203 105.03 56.1958Z" fill="#3A4651"/>
<path d="M112.973 56.1958C111.583 57.6851 112.377 59.5715 114.363 59.5715C115.753 59.5715 116.249 59.0751 116.051 57.8837C115.753 56.0965 114.065 55.203 112.973 56.1958Z" fill="#3A4651"/>
<path d="M119.923 56.1958C118.533 57.6851 119.327 59.5715 121.313 59.5715C122.703 59.5715 123.199 59.0751 123 57.8837C122.703 56.0965 121.015 55.203 119.923 56.1958Z" fill="#3A4651"/>
<path d="M127.865 56.1958C126.475 57.6851 127.27 59.5715 129.255 59.5715C130.645 59.5715 131.142 59.0751 130.943 57.8837C130.645 56.0965 128.958 55.203 127.865 56.1958Z" fill="#3A4651"/>
<path d="M134.815 56.1958C133.425 57.6851 134.22 59.5715 136.205 59.5715C137.595 59.5715 138.092 59.0751 137.893 57.8837C137.595 56.0965 135.908 55.203 134.815 56.1958Z" fill="#3A4651"/>
<path d="M142.758 56.1958C141.368 57.6851 142.163 59.5715 144.148 59.5715C145.538 59.5715 146.035 59.0751 145.836 57.8837C145.538 56.0965 143.85 55.203 142.758 56.1958Z" fill="#3A4651"/>
<path d="M149.708 56.2951C148.318 57.5858 149.113 59.5715 150.999 59.5715C152.29 59.5715 152.985 58.8765 152.985 57.5858C152.985 55.6994 150.999 54.9051 149.708 56.2951Z" fill="#3A4651"/>
<path d="M156.956 57.4865C156.956 58.9758 157.552 59.5715 159.041 59.5715C160.431 59.5715 160.927 59.0751 160.729 57.8837C160.232 55.3022 156.956 55.0044 156.956 57.4865Z" fill="#3A4651"/>
<path d="M164.601 56.1958C163.211 57.6851 164.005 59.5715 165.991 59.5715C167.381 59.5715 167.878 59.0751 167.679 57.8837C167.381 56.0965 165.693 55.203 164.601 56.1958Z" fill="#3A4651"/>
<path d="M172.544 56.1958C171.154 57.6851 171.948 59.5715 173.934 59.5715C175.324 59.5715 175.82 59.0751 175.622 57.8837C175.324 56.0965 173.636 55.203 172.544 56.1958Z" fill="#3A4651"/>
<path d="M179.494 56.1958C178.104 57.6851 178.898 59.5715 180.884 59.5715C182.274 59.5715 182.77 59.0751 182.572 57.8837C182.274 56.0965 180.586 55.203 179.494 56.1958Z" fill="#3A4651"/>
<path d="M187.437 56.1958C186.047 57.6851 186.841 59.5715 188.827 59.5715C190.217 59.5715 190.713 59.0751 190.515 57.8837C190.217 56.0965 188.529 55.203 187.437 56.1958Z" fill="#3A4651"/>
<path d="M194.387 56.2951C192.997 57.5858 193.791 59.5715 195.677 59.5715C196.968 59.5715 197.663 58.8765 197.663 57.5858C197.663 55.6994 195.677 54.9051 194.387 56.2951Z" fill="#3A4651"/>
<path d="M202.33 56.1958C200.94 57.6851 201.734 59.5715 203.72 59.5715C205.11 59.5715 205.606 59.0751 205.408 57.8837C205.11 56.0965 203.422 55.203 202.33 56.1958Z" fill="#3A4651"/>
<path d="M209.28 56.1958C207.89 57.6851 208.684 59.5715 210.67 59.5715C212.06 59.5715 212.556 59.0751 212.358 57.8837C212.06 56.0965 210.372 55.203 209.28 56.1958Z" fill="#3A4651"/>
<path d="M216.528 57.4865C216.528 58.9758 217.123 59.5715 218.613 59.5715C221.095 59.5715 220.797 56.2951 218.215 55.7987C217.024 55.6001 216.528 56.0965 216.528 57.4865Z" fill="#3A4651"/>
<path d="M224.173 56.1958C222.783 57.6851 223.577 59.5715 225.563 59.5715C226.953 59.5715 227.449 59.0751 227.25 57.8837C226.953 56.0965 225.265 55.203 224.173 56.1958Z" fill="#3A4651"/>
<path d="M232.115 56.1958C230.725 57.6851 231.52 59.5715 233.505 59.5715C234.895 59.5715 235.392 59.0751 235.193 57.8837C234.895 56.0965 233.208 55.203 232.115 56.1958Z" fill="#3A4651"/>
<path d="M239.661 56.2951C237.576 56.9901 238.172 59.5715 240.356 59.5715C241.448 59.5715 242.342 58.9758 242.342 58.1815C242.342 56.3944 241.25 55.6994 239.661 56.2951Z" fill="#3A4651"/>
<path d="M247.008 56.1958C245.618 57.6851 246.413 59.5715 248.398 59.5715C249.788 59.5715 250.285 59.0751 250.086 57.8837C249.788 56.0965 248.1 55.203 247.008 56.1958Z" fill="#3A4651"/>
<path d="M97.3848 63.5429C97.3848 64.8336 98.0798 65.5286 99.3705 65.5286C100.661 65.5286 101.356 64.8336 101.356 63.5429C101.356 62.2521 100.661 61.5571 99.3705 61.5571C98.0798 61.5571 97.3848 62.2521 97.3848 63.5429Z" fill="#3A4651"/>
<path d="M104.533 63.245C105.03 65.8264 108.306 66.1243 108.306 63.6421C108.306 62.1528 107.71 61.5571 106.221 61.5571C104.831 61.5571 104.335 62.0536 104.533 63.245Z" fill="#3A4651"/>
<path d="M149.708 62.1528C148.815 63.1457 150.105 65.5286 151.595 65.5286C152.389 65.5286 152.985 64.635 152.985 63.5429C152.985 61.6564 151.098 60.8621 149.708 62.1528Z" fill="#3A4651"/>
<path d="M156.956 63.5429C156.956 64.8336 157.651 65.5286 158.942 65.5286C160.232 65.5286 160.927 64.8336 160.927 63.5429C160.927 62.2521 160.232 61.5571 158.942 61.5571C157.651 61.5571 156.956 62.2521 156.956 63.5429Z" fill="#3A4651"/>
<path d="M164.105 63.245C164.601 65.8264 167.878 66.1243 167.878 63.6421C167.878 62.1528 167.282 61.5571 165.793 61.5571C164.403 61.5571 163.906 62.0536 164.105 63.245Z" fill="#3A4651"/>
<path d="M171.849 63.5429C171.849 64.8336 172.544 65.5286 173.835 65.5286C175.126 65.5286 175.821 64.8336 175.821 63.5429C175.821 62.2521 175.126 61.5571 173.835 61.5571C172.544 61.5571 171.849 62.2521 171.849 63.5429Z" fill="#3A4651"/>
<path d="M178.799 63.5429C178.799 64.8336 179.494 65.5286 180.785 65.5286C182.076 65.5286 182.771 64.8336 182.771 63.5429C182.771 62.2521 182.076 61.5571 180.785 61.5571C179.494 61.5571 178.799 62.2521 178.799 63.5429Z" fill="#3A4651"/>
<path d="M186.742 63.5429C186.742 64.8336 187.437 65.5286 188.727 65.5286C190.018 65.5286 190.713 64.8336 190.713 63.5429C190.713 62.2521 190.018 61.5571 188.727 61.5571C187.437 61.5571 186.742 62.2521 186.742 63.5429Z" fill="#3A4651"/>
<path d="M193.692 63.5429C193.692 64.8336 194.387 65.5286 195.678 65.5286C196.968 65.5286 197.663 64.8336 197.663 63.5429C197.663 62.2521 196.968 61.5571 195.678 61.5571C194.387 61.5571 193.692 62.2521 193.692 63.5429Z" fill="#3A4651"/>
<path d="M201.635 63.6421C201.635 66.1243 204.911 65.8264 205.408 63.245C205.606 62.0536 205.11 61.5571 203.72 61.5571C202.23 61.5571 201.635 62.1528 201.635 63.6421Z" fill="#3A4651"/>
<path d="M208.585 63.5429C208.585 64.8336 209.28 65.5286 210.57 65.5286C211.861 65.5286 212.556 64.8336 212.556 63.5429C212.556 62.2521 211.861 61.5571 210.57 61.5571C209.28 61.5571 208.585 62.2521 208.585 63.5429Z" fill="#3A4651"/>
<path d="M216.528 63.5429C216.528 64.8336 217.223 65.5286 218.513 65.5286C219.804 65.5286 220.499 64.8336 220.499 63.5429C220.499 62.2521 219.804 61.5571 218.513 61.5571C217.223 61.5571 216.528 62.2521 216.528 63.5429Z" fill="#3A4651"/>
<path d="M223.478 63.5429C223.478 64.8336 224.173 65.5286 225.463 65.5286C226.754 65.5286 227.449 64.8336 227.449 63.5429C227.449 62.2521 226.754 61.5571 225.463 61.5571C224.173 61.5571 223.478 62.2521 223.478 63.5429Z" fill="#3A4651"/>
<path d="M231.42 63.5425C231.42 65.0318 231.917 65.5282 233.208 65.3296C234.101 65.131 234.895 64.3368 234.895 63.5425C234.895 62.7482 234.101 61.9539 233.208 61.7553C231.917 61.5568 231.42 62.0532 231.42 63.5425Z" fill="#3A4651"/>
<path d="M238.371 63.5429C238.371 64.8336 239.066 65.5286 240.356 65.5286C241.647 65.5286 242.342 64.8336 242.342 63.5429C242.342 62.2521 241.647 61.5571 240.356 61.5571C239.066 61.5571 238.371 62.2521 238.371 63.5429Z" fill="#3A4651"/>
<path d="M246.313 63.6421C246.313 66.1243 249.59 65.8264 250.086 63.245C250.285 62.0536 249.788 61.5571 248.398 61.5571C246.909 61.5571 246.313 62.1528 246.313 63.6421Z" fill="#3A4651"/>
<path d="M253.263 63.5429C253.263 64.8336 253.958 65.5286 255.249 65.5286C256.54 65.5286 257.235 64.8336 257.235 63.5429C257.235 62.2521 256.54 61.5571 255.249 61.5571C253.958 61.5571 253.263 62.2521 253.263 63.5429Z" fill="#3A4651"/>
<path d="M261.206 63.5425C261.206 65.0318 261.702 65.5282 262.993 65.3296C263.887 65.131 264.681 64.3368 264.681 63.5425C264.681 62.7482 263.887 61.9539 262.993 61.7553C261.702 61.5568 261.206 62.0532 261.206 63.5425Z" fill="#3A4651"/>
<path d="M268.355 63.245C268.851 65.8264 272.128 66.1243 272.128 63.6421C272.128 62.1528 271.532 61.5571 270.043 61.5571C268.653 61.5571 268.156 62.0536 268.355 63.245Z" fill="#3A4651"/>
<path d="M276.099 63.6421C276.099 66.1243 279.376 65.8264 279.872 63.245C280.071 62.0536 279.574 61.5571 278.184 61.5571C276.695 61.5571 276.099 62.1528 276.099 63.6421Z" fill="#3A4651"/>
<path d="M283.049 63.5429C283.049 64.8336 283.744 65.5286 285.035 65.5286C286.326 65.5286 287.021 64.8336 287.021 63.5429C287.021 62.2521 286.326 61.5571 285.035 61.5571C283.744 61.5571 283.049 62.2521 283.049 63.5429Z" fill="#3A4651"/>
<path d="M290.992 63.5425C290.992 65.0318 291.488 65.5282 292.779 65.3296C293.673 65.131 294.467 64.3368 294.467 63.5425C294.467 62.7482 293.673 61.9539 292.779 61.7553C291.488 61.5568 290.992 62.0532 290.992 63.5425Z" fill="#3A4651"/>
<path d="M297.942 63.5429C297.942 64.8336 298.637 65.5286 299.928 65.5286C301.218 65.5286 301.913 64.8336 301.913 63.5429C301.913 62.2521 301.218 61.5571 299.928 61.5571C298.637 61.5571 297.942 62.2521 297.942 63.5429Z" fill="#3A4651"/>
<path d="M208.883 68.1099C208.287 69.7977 210.372 71.7834 211.762 70.8899C213.053 69.9963 212.655 67.7127 211.067 67.117C210.173 66.8191 209.28 67.2163 208.883 68.1099Z" fill="#3A4651"/>
<path d="M223.875 68.0106C223.577 68.8049 223.577 69.897 223.974 70.4927C225.066 72.1806 227.449 71.5849 227.449 69.5992C227.449 67.3156 224.57 66.0249 223.875 68.0106Z" fill="#3A4651"/>
<path d="M247.406 67.4149C245.916 68.4077 246.611 71.4856 248.299 71.4856C249.788 71.4856 250.781 68.6063 249.689 67.5142C249.193 67.0177 248.2 67.0177 247.406 67.4149Z" fill="#3A4651"/>
<path d="M156.956 69.5992C156.956 72.0813 160.232 71.7834 160.729 69.202C160.927 68.0106 160.431 67.5142 159.041 67.5142C157.552 67.5142 156.956 68.1099 156.956 69.5992Z" fill="#3A4651"/>
<path d="M164.105 69.2024C164.303 70.1952 165.098 70.9895 165.892 70.9895C166.686 70.9895 167.48 70.1952 167.679 69.2024C167.878 68.0109 167.381 67.5145 165.892 67.5145C164.403 67.5145 163.906 68.0109 164.105 69.2024Z" fill="#3A4651"/>
<path d="M172.048 69.2024C172.246 70.1952 173.04 70.9895 173.835 70.9895C174.629 70.9895 175.423 70.1952 175.622 69.2024C175.82 68.0109 175.324 67.5145 173.835 67.5145C172.345 67.5145 171.849 68.0109 172.048 69.2024Z" fill="#3A4651"/>
<path d="M178.998 69.2024C179.196 70.1952 179.99 70.9895 180.785 70.9895C181.579 70.9895 182.373 70.1952 182.572 69.2024C182.77 68.0109 182.274 67.5145 180.785 67.5145C179.295 67.5145 178.799 68.0109 178.998 69.2024Z" fill="#3A4651"/>
<path d="M186.94 69.2024C187.139 70.1952 187.933 70.9895 188.728 70.9895C189.522 70.9895 190.316 70.1952 190.515 69.2024C190.713 68.0109 190.217 67.5145 188.728 67.5145C187.238 67.5145 186.742 68.0109 186.94 69.2024Z" fill="#3A4651"/>
<path d="M193.89 69.202C194.387 71.7834 197.663 72.0813 197.663 69.5992C197.663 68.1099 197.068 67.5142 195.578 67.5142C194.188 67.5142 193.692 68.0106 193.89 69.202Z" fill="#3A4651"/>
<path d="M201.635 68.805C201.635 70.6915 202.628 71.4858 204.216 70.7908C206.301 69.9965 205.904 67.5143 203.62 67.5143C202.528 67.5143 201.635 68.11 201.635 68.805Z" fill="#3A4651"/>
<path d="M216.528 69.4999C216.528 71.6842 216.627 71.7834 218.91 70.8899C221.194 69.9963 220.896 67.5142 218.513 67.5142C217.223 67.5142 216.528 68.2092 216.528 69.4999Z" fill="#3A4651"/>
<path d="M231.619 69.2024C231.818 70.1952 232.612 70.9895 233.406 70.9895C234.201 70.9895 234.995 70.1952 235.193 69.2024C235.392 68.0109 234.896 67.5145 233.406 67.5145C231.917 67.5145 231.421 68.0109 231.619 69.2024Z" fill="#3A4651"/>
<path d="M238.569 69.2024C238.768 70.1952 239.562 70.9895 240.356 70.9895C241.15 70.9895 241.945 70.1952 242.143 69.2024C242.342 68.0109 241.845 67.5145 240.356 67.5145C238.867 67.5145 238.37 68.0109 238.569 69.2024Z" fill="#3A4651"/>
<path d="M253.462 69.202C253.958 71.7834 257.235 72.0813 257.235 69.5992C257.235 68.1099 256.639 67.5142 255.15 67.5142C253.76 67.5142 253.263 68.0106 253.462 69.202Z" fill="#3A4651"/>
<path d="M261.405 69.2024C261.603 70.1952 262.398 70.9895 263.192 70.9895C263.986 70.9895 264.78 70.1952 264.979 69.2024C265.178 68.0109 264.681 67.5145 263.192 67.5145C261.703 67.5145 261.206 68.0109 261.405 69.2024Z" fill="#3A4651"/>
<path d="M268.156 68.805C268.156 70.6915 269.149 71.4858 270.738 70.7908C272.823 69.9965 272.426 67.5143 270.142 67.5143C269.05 67.5143 268.156 68.11 268.156 68.805Z" fill="#3A4651"/>
<path d="M276.298 69.2024C276.496 70.1952 277.29 70.9895 278.085 70.9895C278.879 70.9895 279.673 70.1952 279.872 69.2024C280.07 68.0109 279.574 67.5145 278.085 67.5145C276.595 67.5145 276.099 68.0109 276.298 69.2024Z" fill="#3A4651"/>
<path d="M283.049 68.9044C283.049 69.5994 283.943 70.4929 285.035 70.7908C286.524 71.1879 287.021 70.7908 287.021 69.4008C287.021 68.2094 286.326 67.5144 285.035 67.5144C283.943 67.5144 283.049 68.1101 283.049 68.9044Z" fill="#3A4651"/>
<path d="M290.992 69.5992C290.992 72.0813 294.268 71.7834 294.765 69.202C294.963 68.0106 294.467 67.5142 293.077 67.5142C291.588 67.5142 290.992 68.1099 290.992 69.5992Z" fill="#3A4651"/>
<path d="M297.942 69.0036C297.942 69.7979 298.14 70.4929 298.339 70.4929C298.538 70.4929 299.431 70.7907 300.325 71.0886C301.516 71.4857 301.913 71.0886 301.913 69.5993C301.913 68.2093 301.318 67.5143 299.928 67.5143C298.835 67.5143 297.942 68.2093 297.942 69.0036Z" fill="#3A4651"/>
<path d="M171.849 74.365C171.849 75.8542 172.445 76.45 173.934 76.45C175.324 76.45 175.821 75.9535 175.622 74.7621C175.126 72.1807 171.849 71.8828 171.849 74.365Z" fill="#3A4651"/>
<path d="M179.494 73.1735C178.104 74.4642 178.898 76.45 180.785 76.45C182.076 76.45 182.771 75.755 182.771 74.4642C182.771 72.5778 180.785 71.7835 179.494 73.1735Z" fill="#3A4651"/>
<path d="M186.742 74.4642C186.742 75.755 187.437 76.45 188.727 76.45C190.018 76.45 190.713 75.755 190.713 74.4642C190.713 73.1735 190.018 72.4785 188.727 72.4785C187.437 72.4785 186.742 73.1735 186.742 74.4642Z" fill="#3A4651"/>
<path d="M194.387 73.1735C192.997 74.4642 193.791 76.45 195.677 76.45C196.968 76.45 197.663 75.755 197.663 74.4642C197.663 72.5778 195.677 71.7835 194.387 73.1735Z" fill="#3A4651"/>
<path d="M201.635 74.365C201.635 75.8542 202.23 76.45 203.72 76.45C205.11 76.45 205.606 75.9535 205.408 74.7621C204.911 72.1807 201.635 71.8828 201.635 74.365Z" fill="#3A4651"/>
<path d="M209.28 73.1735C207.89 74.4642 208.684 76.45 210.57 76.45C211.861 76.45 212.556 75.755 212.556 74.4642C212.556 72.5778 210.57 71.7835 209.28 73.1735Z" fill="#3A4651"/>
<path d="M216.528 74.4642C216.528 75.755 217.223 76.45 218.513 76.45C219.804 76.45 220.499 75.755 220.499 74.4642C220.499 73.1735 219.804 72.4785 218.513 72.4785C217.223 72.4785 216.528 73.1735 216.528 74.4642Z" fill="#3A4651"/>
<path d="M223.478 74.4642C223.478 75.755 224.173 76.45 225.463 76.45C226.754 76.45 227.449 75.755 227.449 74.4642C227.449 73.1735 226.754 72.4785 225.463 72.4785C224.173 72.4785 223.478 73.1735 223.478 74.4642Z" fill="#3A4651"/>
<path d="M231.42 74.365C231.42 75.8542 232.016 76.45 233.505 76.45C234.895 76.45 235.392 75.9535 235.193 74.7621C234.697 72.1807 231.42 71.8828 231.42 74.365Z" fill="#3A4651"/>
<path d="M239.065 73.1735C237.675 74.4642 238.47 76.45 240.356 76.45C241.647 76.45 242.342 75.755 242.342 74.4642C242.342 72.5778 240.356 71.7835 239.065 73.1735Z" fill="#3A4651"/>
<path d="M246.313 74.365C246.313 75.8542 246.909 76.45 248.398 76.45C249.788 76.45 250.285 75.9535 250.086 74.7621C249.59 72.1807 246.313 71.8828 246.313 74.365Z" fill="#3A4651"/>
<path d="M253.263 74.4642C253.263 75.755 253.958 76.45 255.249 76.45C256.54 76.45 257.235 75.755 257.235 74.4642C257.235 73.1735 256.54 72.4785 255.249 72.4785C253.958 72.4785 253.263 73.1735 253.263 74.4642Z" fill="#3A4651"/>
<path d="M261.206 74.365C261.206 75.8542 261.802 76.45 263.291 76.45C264.681 76.45 265.177 75.9535 264.979 74.7621C264.482 72.1807 261.206 71.8828 261.206 74.365Z" fill="#3A4651"/>
<path d="M268.851 73.1735C267.461 74.4642 268.255 76.45 270.142 76.45C271.433 76.45 272.128 75.755 272.128 74.4642C272.128 72.5778 270.142 71.7835 268.851 73.1735Z" fill="#3A4651"/>
<path d="M275.9 73.0742C274.709 74.1664 276.298 76.45 278.283 76.45C279.574 76.45 280.07 75.8542 279.872 74.7621C279.574 72.975 276.993 71.8828 275.9 73.0742Z" fill="#3A4651"/>
<path d="M283.744 73.1735C282.354 74.4642 283.148 76.45 285.035 76.45C286.326 76.45 287.021 75.755 287.021 74.4642C287.021 72.5778 285.035 71.7835 283.744 73.1735Z" fill="#3A4651"/>
<path d="M290.992 74.4643C290.992 75.9536 291.488 76.4501 292.779 76.2515C293.673 76.0529 294.467 75.2586 294.467 74.4643C294.467 73.6701 293.673 72.8758 292.779 72.6772C291.488 72.4786 290.992 72.9751 290.992 74.4643Z" fill="#3A4651"/>
<path d="M297.942 74.4642C297.942 75.755 298.637 76.45 299.928 76.45C301.218 76.45 301.913 75.755 301.913 74.4642C301.913 73.1735 301.218 72.4785 299.928 72.4785C298.637 72.4785 297.942 73.1735 297.942 74.4642Z" fill="#3A4651"/>
<path d="M327.728 74.4642C327.728 75.755 328.423 76.45 329.713 76.45C331.004 76.45 331.699 75.755 331.699 74.4642C331.699 73.1735 331.004 72.4785 329.713 72.4785C328.423 72.4785 327.728 73.1735 327.728 74.4642Z" fill="#3A4651"/>
<path d="M409.638 73.4714C408.844 74.8614 409.936 76.45 411.723 76.45C412.518 76.45 413.113 75.5564 413.113 74.4642C413.113 72.3792 410.73 71.6842 409.638 73.4714Z" fill="#3A4651"/>
<path d="M417.085 74.4642C417.085 75.755 417.78 76.45 419.07 76.45C420.361 76.45 421.056 75.755 421.056 74.4642C421.056 73.1735 420.361 72.4785 419.07 72.4785C417.78 72.4785 417.085 73.1735 417.085 74.4642Z" fill="#3A4651"/>
<path d="M454.813 74.464C454.813 76.7476 457.295 77.1447 458.09 75.0597C458.785 73.4712 457.99 72.4783 456.104 72.4783C455.409 72.4783 454.813 73.3719 454.813 74.464Z" fill="#3A4651"/>
<path d="M573.46 73.4714C572.665 74.8614 573.758 76.45 575.545 76.45C576.339 76.45 576.935 75.5564 576.935 74.4642C576.935 72.3792 574.552 71.6842 573.46 73.4714Z" fill="#3A4651"/>
<path d="M580.906 74.4642C580.906 75.755 581.601 76.45 582.892 76.45C584.183 76.45 584.878 75.755 584.878 74.4642C584.878 73.1735 584.183 72.4785 582.892 72.4785C581.601 72.4785 580.906 73.1735 580.906 74.4642Z" fill="#3A4651"/>
<path d="M610.692 74.4642C610.692 75.755 611.387 76.45 612.678 76.45C613.968 76.45 614.663 75.755 614.663 74.4642C614.663 73.1735 613.968 72.4785 612.678 72.4785C611.387 72.4785 610.692 73.1735 610.692 74.4642Z" fill="#3A4651"/>
<path d="M632.535 74.4642C632.535 75.755 633.23 76.45 634.521 76.45C635.811 76.45 636.506 75.755 636.506 74.4642C636.506 73.1735 635.811 72.4785 634.521 72.4785C633.23 72.4785 632.535 73.1735 632.535 74.4642Z" fill="#3A4651"/>
<path d="M640.478 74.365C640.478 75.8542 641.073 76.45 642.563 76.45C645.045 76.45 644.747 73.1735 642.165 72.6771C640.974 72.4785 640.478 72.975 640.478 74.365Z" fill="#3A4651"/>
<path d="M647.428 74.4642C647.428 75.755 648.123 76.45 649.413 76.45C650.704 76.45 651.399 75.755 651.399 74.4642C651.399 73.1735 650.704 72.4785 649.413 72.4785C648.123 72.4785 647.428 73.1735 647.428 74.4642Z" fill="#3A4651"/>
<path d="M655.371 74.4643C655.371 75.9536 655.867 76.4501 657.158 76.2515C658.051 76.0529 658.846 75.2586 658.846 74.4643C658.846 73.6701 658.051 72.8758 657.158 72.6772C655.867 72.4786 655.371 72.9751 655.371 74.4643Z" fill="#3A4651"/>
<path d="M201.635 80.5205C201.635 83.0027 204.911 82.7048 205.408 80.1234C205.606 78.932 205.11 78.4355 203.72 78.4355C202.23 78.4355 201.635 79.0313 201.635 80.5205Z" fill="#3A4651"/>
<path d="M208.783 80.1234C209.28 82.7048 212.556 83.0027 212.556 80.5205C212.556 79.0313 211.961 78.4355 210.471 78.4355C209.081 78.4355 208.585 78.932 208.783 80.1234Z" fill="#3A4651"/>
<path d="M216.528 80.4213C216.528 81.712 217.223 82.407 218.513 82.407C219.804 82.407 220.499 81.712 220.499 80.4213C220.499 79.1306 219.804 78.4356 218.513 78.4356C217.223 78.4356 216.528 79.1306 216.528 80.4213Z" fill="#3A4651"/>
<path d="M223.676 80.1234C224.173 82.7048 227.449 83.0027 227.449 80.5205C227.449 79.0313 226.853 78.4355 225.364 78.4355C223.974 78.4355 223.478 78.932 223.676 80.1234Z" fill="#3A4651"/>
<path d="M231.42 80.5205C231.42 83.0027 234.697 82.7048 235.193 80.1234C235.392 78.932 234.895 78.4355 233.505 78.4355C232.016 78.4355 231.42 79.0313 231.42 80.5205Z" fill="#3A4651"/>
<path d="M238.569 80.1234C239.065 82.7048 242.342 83.0027 242.342 80.5205C242.342 79.0313 241.746 78.4355 240.257 78.4355C238.867 78.4355 238.37 78.932 238.569 80.1234Z" fill="#3A4651"/>
<path d="M246.313 80.5205C246.313 83.0027 249.59 82.7048 250.086 80.1234C250.285 78.932 249.788 78.4355 248.398 78.4355C246.909 78.4355 246.313 79.0313 246.313 80.5205Z" fill="#3A4651"/>
<path d="M253.263 80.4213C253.263 81.712 253.958 82.407 255.249 82.407C256.54 82.407 257.235 81.712 257.235 80.4213C257.235 79.1306 256.54 78.4356 255.249 78.4356C253.958 78.4356 253.263 79.1306 253.263 80.4213Z" fill="#3A4651"/>
<path d="M261.206 80.5205C261.206 83.0027 264.482 82.7048 264.979 80.1234C265.177 78.932 264.681 78.4355 263.291 78.4355C261.802 78.4355 261.206 79.0313 261.206 80.5205Z" fill="#3A4651"/>
<path d="M268.355 80.1234C268.851 82.7048 272.128 83.0027 272.128 80.5205C272.128 79.0313 271.532 78.4355 270.043 78.4355C268.653 78.4355 268.156 78.932 268.355 80.1234Z" fill="#3A4651"/>
<path d="M276.099 80.5205C276.099 83.0027 279.376 82.7048 279.872 80.1234C280.071 78.932 279.574 78.4355 278.184 78.4355C276.695 78.4355 276.099 79.0313 276.099 80.5205Z" fill="#3A4651"/>
<path d="M283.248 80.1234C283.744 82.7048 287.02 83.0027 287.02 80.5205C287.02 79.0313 286.425 78.4355 284.935 78.4355C283.545 78.4355 283.049 78.932 283.248 80.1234Z" fill="#3A4651"/>
<path d="M290.992 80.4214C290.992 81.9107 291.488 82.4071 292.779 82.2085C293.673 82.01 294.467 81.2157 294.467 80.4214C294.467 79.6271 293.673 78.8328 292.779 78.6342C291.488 78.4357 290.992 78.9321 290.992 80.4214Z" fill="#3A4651"/>
<path d="M312.835 80.4213C312.835 81.712 313.53 82.407 314.82 82.407C316.111 82.407 316.806 81.712 316.806 80.4213C316.806 79.1306 316.111 78.4356 314.82 78.4356C313.53 78.4356 312.835 79.1306 312.835 80.4213Z" fill="#3A4651"/>
<path d="M320.778 80.4214C320.778 81.9107 321.274 82.4071 322.565 82.2085C323.458 82.01 324.253 81.2157 324.253 80.4214C324.253 79.6271 323.458 78.8328 322.565 78.6342C321.274 78.4357 320.778 78.9321 320.778 80.4214Z" fill="#3A4651"/>
<path d="M327.728 80.5205C327.728 83.0027 331.004 82.7048 331.5 80.1234C331.699 78.932 331.203 78.4355 329.813 78.4355C328.323 78.4355 327.728 79.0313 327.728 80.5205Z" fill="#3A4651"/>
<path d="M335.075 79.5278C334.181 81.0171 336.266 82.8043 338.053 82.1093C338.947 81.7121 339.642 80.8186 339.642 79.925C339.642 78.2371 336.167 77.84 335.075 79.5278Z" fill="#3A4651"/>
<path d="M365.456 80.4214C365.456 81.9107 365.952 82.4071 367.243 82.2085C368.137 82.01 368.931 81.2157 368.931 80.4214C368.931 79.6271 368.137 78.8328 367.243 78.6342C365.952 78.4357 365.456 78.9321 365.456 80.4214Z" fill="#3A4651"/>
<path d="M372.406 80.4213C372.406 81.712 373.101 82.407 374.392 82.407C375.683 82.407 376.378 81.712 376.378 80.4213C376.378 79.1306 375.683 78.4356 374.392 78.4356C373.101 78.4356 372.406 79.1306 372.406 80.4213Z" fill="#3A4651"/>
<path d="M402.192 80.4213C402.192 81.712 402.887 82.407 404.178 82.407C405.468 82.407 406.163 81.712 406.163 80.4213C406.163 79.1306 405.468 78.4356 404.178 78.4356C402.887 78.4356 402.192 79.1306 402.192 80.4213Z" fill="#3A4651"/>
<path d="M409.638 79.4284C408.844 80.8184 409.936 82.407 411.723 82.407C412.518 82.407 413.113 81.5134 413.113 80.4213C413.113 78.3363 410.73 77.6413 409.638 79.4284Z" fill="#3A4651"/>
<path d="M417.085 80.4213C417.085 81.712 417.78 82.407 419.07 82.407C420.361 82.407 421.056 81.712 421.056 80.4213C421.056 79.1306 420.361 78.4356 419.07 78.4356C417.78 78.4356 417.085 79.1306 417.085 80.4213Z" fill="#3A4651"/>
<path d="M425.028 80.5205C425.028 83.0027 428.304 82.7048 428.8 80.1234C428.999 78.932 428.503 78.4355 427.113 78.4355C425.623 78.4355 425.028 79.0313 425.028 80.5205Z" fill="#3A4651"/>
<path d="M431.978 80.4213C431.978 81.712 432.673 82.407 433.963 82.407C435.254 82.407 435.949 81.712 435.949 80.4213C435.949 79.1306 435.254 78.4356 433.963 78.4356C432.673 78.4356 431.978 79.1306 431.978 80.4213Z" fill="#3A4651"/>
<path d="M446.871 80.4213C446.871 81.712 447.566 82.407 448.856 82.407C450.147 82.407 450.842 81.712 450.842 80.4213C450.842 79.1306 450.147 78.4356 448.856 78.4356C447.566 78.4356 446.871 79.1306 446.871 80.4213Z" fill="#3A4651"/>
<path d="M491.549 80.4213C491.549 81.712 492.244 82.407 493.535 82.407C494.826 82.407 495.521 81.712 495.521 80.4213C495.521 79.1306 494.826 78.4356 493.535 78.4356C492.244 78.4356 491.549 79.1306 491.549 80.4213Z" fill="#3A4651"/>
<path d="M498.698 80.1233C498.896 81.1161 499.889 81.9104 500.981 81.9104C502.073 81.9104 503.066 81.1161 503.265 80.1233C503.563 78.8325 502.967 78.4354 500.981 78.4354C498.995 78.4354 498.4 78.8325 498.698 80.1233Z" fill="#3A4651"/>
<path d="M536.228 80.5205C536.228 83.0027 539.504 82.7048 540 80.1234C540.199 78.932 539.703 78.4355 538.313 78.4355C536.823 78.4355 536.228 79.0313 536.228 80.5205Z" fill="#3A4651"/>
<path d="M580.906 80.4213C580.906 81.712 581.601 82.407 582.892 82.407C584.183 82.407 584.878 81.712 584.878 80.4213C584.878 79.1306 584.183 78.4356 582.892 78.4356C581.601 78.4356 580.906 79.1306 580.906 80.4213Z" fill="#3A4651"/>
<path d="M588.055 80.1234C588.551 82.7048 591.828 83.0027 591.828 80.5205C591.828 79.0313 591.232 78.4355 589.743 78.4355C588.353 78.4355 587.856 78.932 588.055 80.1234Z" fill="#3A4651"/>
<path d="M595.799 80.5205C595.799 83.0027 599.076 82.7048 599.572 80.1234C599.771 78.932 599.274 78.4355 597.884 78.4355C596.395 78.4355 595.799 79.0313 595.799 80.5205Z" fill="#3A4651"/>
<path d="M603.245 79.4284C602.451 80.8184 603.543 82.407 605.33 82.407C606.125 82.407 606.72 81.5134 606.72 80.4213C606.72 78.3363 604.338 77.6413 603.245 79.4284Z" fill="#3A4651"/>
<path d="M610.692 80.5205C610.692 83.0027 613.968 82.7048 614.465 80.1234C614.663 78.932 614.167 78.4355 612.777 78.4355C611.288 78.4355 610.692 79.0313 610.692 80.5205Z" fill="#3A4651"/>
<path d="M617.841 80.1234C618.337 82.7048 621.613 83.0027 621.613 80.5205C621.613 79.0313 621.018 78.4355 619.528 78.4355C618.138 78.4355 617.642 78.932 617.841 80.1234Z" fill="#3A4651"/>
<path d="M625.585 80.5204C625.585 81.9104 626.081 82.4068 627.273 82.2083C629.854 81.7118 630.152 78.4354 627.67 78.4354C626.18 78.4354 625.585 79.0311 625.585 80.5204Z" fill="#3A4651"/>
<path d="M632.733 80.1234C633.23 82.7048 636.506 83.0027 636.506 80.5205C636.506 79.0313 635.911 78.4355 634.421 78.4355C633.031 78.4355 632.535 78.932 632.733 80.1234Z" fill="#3A4651"/>
<path d="M640.478 80.5204C640.478 81.9104 640.974 82.4068 642.165 82.2083C644.747 81.7118 645.045 78.4354 642.563 78.4354C641.073 78.4354 640.478 79.0311 640.478 80.5204Z" fill="#3A4651"/>
<path d="M647.428 80.4213C647.428 81.712 648.123 82.407 649.413 82.407C650.704 82.407 651.399 81.712 651.399 80.4213C651.399 79.1306 650.704 78.4356 649.413 78.4356C648.123 78.4356 647.428 79.1306 647.428 80.4213Z" fill="#3A4651"/>
<path d="M655.371 80.5204C655.371 81.9104 655.867 82.4068 657.058 82.2083C659.64 81.7118 659.938 78.4354 657.456 78.4354C655.966 78.4354 655.371 79.0311 655.371 80.5204Z" fill="#3A4651"/>
<path d="M261.206 85.8822C261.206 87.8679 261.603 88.4636 262.993 88.1657C263.887 87.9672 264.681 86.9743 264.681 85.8822C264.681 84.79 263.887 83.7972 262.993 83.5986C261.603 83.3007 261.206 83.8964 261.206 85.8822Z" fill="#3A4651"/>
<path d="M275.801 85.4847C275.503 86.7754 275.801 87.6689 276.695 88.0661C278.68 88.7611 280.468 86.9739 279.773 84.9882C278.879 82.7047 276.397 83.0025 275.801 85.4847Z" fill="#3A4651"/>
<path d="M283.446 84.8895C282.751 86.6766 283.744 88.3645 285.631 88.3645C286.425 88.3645 287.021 87.3716 287.021 85.8824C287.021 83.2016 284.34 82.4074 283.446 84.8895Z" fill="#3A4651"/>
<path d="M291.19 85.5843C291.389 86.7758 292.183 87.8679 292.978 87.8679C295.162 87.8679 294.864 83.9958 292.68 83.5986C291.19 83.3008 290.893 83.6979 291.19 85.5843Z" fill="#3A4651"/>
<path d="M320.778 85.8822C320.778 87.8679 321.175 88.4636 322.565 88.1657C323.458 87.9672 324.253 86.9743 324.253 85.8822C324.253 84.79 323.458 83.7972 322.565 83.5986C321.175 83.3007 320.778 83.8964 320.778 85.8822Z" fill="#3A4651"/>
<path d="M328.025 84.9882C327.231 87.0732 329.316 89.1582 330.805 87.6689C332.096 86.3782 331.302 83.3996 329.713 83.3996C329.118 83.3996 328.423 84.0946 328.025 84.9882Z" fill="#3A4651"/>
<path d="M335.075 84.8889C334.678 85.7825 334.876 86.9739 335.472 87.5696C336.961 89.0589 339.84 87.6689 339.443 85.6832C339.046 83.3996 335.869 82.8039 335.075 84.8889Z" fill="#3A4651"/>
<path d="M357.811 84.9882C357.017 87.0732 359.102 89.1582 360.591 87.6689C361.882 86.3782 361.087 83.3996 359.499 83.3996C358.903 83.3996 358.208 84.0946 357.811 84.9882Z" fill="#3A4651"/>
<path d="M365.754 84.9882C364.96 87.0732 367.045 89.1582 368.534 87.6689C369.825 86.3782 369.031 83.3996 367.442 83.3996C366.846 83.3996 366.151 84.0946 365.754 84.9882Z" fill="#3A4651"/>
<path d="M372.704 84.9882C371.91 87.0732 373.995 89.1582 375.484 87.6689C376.775 86.3782 375.981 83.3996 374.392 83.3996C373.796 83.3996 373.101 84.0946 372.704 84.9882Z" fill="#3A4651"/>
<path d="M387.597 84.9882C386.802 87.0732 388.887 89.1582 390.377 87.6689C391.667 86.3782 390.873 83.3996 389.285 83.3996C388.689 83.3996 387.994 84.0946 387.597 84.9882Z" fill="#3A4651"/>
<path d="M395.242 85.8822C395.242 87.8679 395.639 88.4636 397.029 88.1657C397.923 87.9672 398.717 86.9743 398.717 85.8822C398.717 84.79 397.923 83.7972 397.029 83.5986C395.639 83.3007 395.242 83.8964 395.242 85.8822Z" fill="#3A4651"/>
<path d="M417.382 84.9882C416.588 87.0732 418.673 89.1582 420.162 87.6689C421.453 86.3782 420.659 83.3996 419.07 83.3996C418.474 83.3996 417.779 84.0946 417.382 84.9882Z" fill="#3A4651"/>
<path d="M425.723 83.996C424.233 85.4853 425.028 88.4638 426.815 88.166C427.708 87.9674 428.503 86.9746 428.503 85.9817C428.503 83.996 426.914 82.9038 425.723 83.996Z" fill="#3A4651"/>
<path d="M432.275 84.9882C431.481 87.0732 433.566 89.1582 435.055 87.6689C436.346 86.3782 435.552 83.3996 433.963 83.3996C433.368 83.3996 432.673 84.0946 432.275 84.9882Z" fill="#3A4651"/>
<path d="M439.226 84.8892C438.63 86.6763 439.325 87.6692 441.41 87.967C442.403 88.0663 442.899 87.3713 442.899 85.7827C442.899 83.102 440.218 82.407 439.226 84.8892Z" fill="#3A4651"/>
<path d="M447.168 84.9882C446.374 87.0732 448.459 89.1582 449.948 87.6689C451.239 86.3782 450.445 83.3996 448.856 83.3996C448.261 83.3996 447.566 84.0946 447.168 84.9882Z" fill="#3A4651"/>
<path d="M476.954 84.9882C476.16 87.0732 478.245 89.1582 479.734 87.6689C481.025 86.3782 480.231 83.3996 478.642 83.3996C478.046 83.3996 477.351 84.0946 476.954 84.9882Z" fill="#3A4651"/>
<path d="M484.4 83.996C484.103 84.2938 484.003 85.386 484.301 86.4781C485.095 89.2581 487.578 88.861 487.578 85.8824C487.578 83.5988 485.79 82.5067 484.4 83.996Z" fill="#3A4651"/>
<path d="M491.847 84.9882C491.052 87.0732 493.137 89.1582 494.627 87.6689C495.917 86.3782 495.123 83.3996 493.535 83.3996C492.939 83.3996 492.244 84.0946 491.847 84.9882Z" fill="#3A4651"/>
<path d="M498.896 84.8889C498.499 85.7825 498.698 86.9739 499.293 87.5696C500.783 89.0589 503.662 87.6689 503.265 85.6832C502.868 83.3996 499.691 82.8039 498.896 84.8889Z" fill="#3A4651"/>
<path d="M513.988 84.2938C513.094 85.6838 514.385 88.3645 515.973 88.3645C516.768 88.3645 517.363 87.3716 517.363 85.8824C517.363 83.4002 515.08 82.4074 513.988 84.2938Z" fill="#3A4651"/>
<path d="M522.03 83.996C520.54 85.4853 521.335 88.4638 523.122 88.166C524.015 87.9674 524.81 86.9746 524.81 85.9817C524.81 83.996 523.221 82.9038 522.03 83.996Z" fill="#3A4651"/>
<path d="M536.525 84.9882C535.731 87.0732 537.816 89.1582 539.305 87.6689C540.596 86.3782 539.802 83.3996 538.213 83.3996C537.618 83.3996 536.923 84.0946 536.525 84.9882Z" fill="#3A4651"/>
<path d="M543.575 84.7902C542.88 86.6766 543.873 88.3645 545.759 88.3645C546.752 88.3645 547.149 87.5702 546.95 86.1802C546.553 83.5988 544.369 82.6059 543.575 84.7902Z" fill="#3A4651"/>
<path d="M551.121 85.6838C551.121 87.471 551.617 88.166 552.908 87.9674C553.801 87.7688 554.596 86.8753 554.596 85.7831C554.596 84.7903 553.801 83.7974 552.908 83.5988C551.617 83.301 551.121 83.8967 551.121 85.6838Z" fill="#3A4651"/>
<path d="M558.468 84.8895C557.773 86.6766 558.765 88.3645 560.453 88.3645C561.843 88.3645 563.233 84.8895 562.24 83.9959C561.248 82.9038 558.964 83.4002 558.468 84.8895Z" fill="#3A4651"/>
<path d="M566.212 85.5843C566.411 86.7758 567.205 87.8679 567.999 87.8679C570.183 87.8679 569.886 83.9958 567.701 83.5986C566.212 83.3008 565.914 83.6979 566.212 85.5843Z" fill="#3A4651"/>
<path d="M573.361 84.8895C572.666 86.6766 573.658 88.3645 575.545 88.3645C576.339 88.3645 576.935 87.3716 576.935 85.8824C576.935 83.2016 574.254 82.4074 573.361 84.8895Z" fill="#3A4651"/>
<path d="M580.906 85.8822C580.906 87.8679 581.303 88.4636 582.693 88.1657C583.587 87.9672 584.381 86.9743 584.381 85.8822C584.381 84.79 583.587 83.7972 582.693 83.5986C581.303 83.3007 580.906 83.8964 580.906 85.8822Z" fill="#3A4651"/>
<path d="M588.253 84.8895C587.558 86.6766 588.551 88.3645 590.438 88.3645C591.232 88.3645 591.828 87.3716 591.828 85.8824C591.828 83.2016 589.147 82.4074 588.253 84.8895Z" fill="#3A4651"/>
<path d="M596.097 84.9882C595.302 87.0732 597.387 89.1582 598.877 87.6689C600.167 86.3782 599.373 83.3996 597.785 83.3996C597.189 83.3996 596.494 84.0946 596.097 84.9882Z" fill="#3A4651"/>
<path d="M618.039 84.8895C617.344 86.6766 618.337 88.3645 620.223 88.3645C621.018 88.3645 621.613 87.3716 621.613 85.8824C621.613 83.2016 618.933 82.4074 618.039 84.8895Z" fill="#3A4651"/>
<path d="M625.882 84.9882C625.088 87.0732 627.173 89.1582 628.662 87.6689C629.953 86.3782 629.159 83.3996 627.57 83.3996C626.974 83.3996 626.279 84.0946 625.882 84.9882Z" fill="#3A4651"/>
<path d="M297.942 91.3427C297.942 92.6334 298.637 93.3284 299.928 93.3284C301.218 93.3284 301.913 92.6334 301.913 91.3427C301.913 90.0519 301.218 89.3569 299.928 89.3569C298.637 89.3569 297.942 90.0519 297.942 91.3427Z" fill="#3A4651"/>
<path d="M327.728 91.3427C327.728 92.6334 328.423 93.3284 329.713 93.3284C331.004 93.3284 331.699 92.6334 331.699 91.3427C331.699 90.0519 331.004 89.3569 329.713 89.3569C328.423 89.3569 327.728 90.0519 327.728 91.3427Z" fill="#3A4651"/>
<path d="M342.621 91.3427C342.621 92.6334 343.316 93.3284 344.606 93.3284C345.897 93.3284 346.592 92.6334 346.592 91.3427C346.592 90.0519 345.897 89.3569 344.606 89.3569C343.316 89.3569 342.621 90.0519 342.621 91.3427Z" fill="#3A4651"/>
<path d="M357.513 91.3427C357.513 92.6334 358.208 93.3284 359.499 93.3284C360.79 93.3284 361.485 92.6334 361.485 91.3427C361.485 90.0519 360.79 89.3569 359.499 89.3569C358.208 89.3569 357.513 90.0519 357.513 91.3427Z" fill="#3A4651"/>
<path d="M365.456 91.3427C365.456 92.7327 366.151 93.3284 367.541 93.3284C369.03 93.3284 369.427 92.9312 369.03 91.7398C368.732 90.8462 368.435 89.9527 368.435 89.7541C368.435 89.5555 367.74 89.3569 366.945 89.3569C366.151 89.3569 365.456 90.2505 365.456 91.3427Z" fill="#3A4651"/>
<path d="M372.406 91.3427C372.406 92.6334 373.101 93.3284 374.392 93.3284C375.683 93.3284 376.378 92.6334 376.378 91.3427C376.378 90.0519 375.683 89.3569 374.392 89.3569C373.101 89.3569 372.406 90.0519 372.406 91.3427Z" fill="#3A4651"/>
<path d="M387.299 91.3427C387.299 92.6334 387.994 93.3284 389.285 93.3284C390.576 93.3284 391.271 92.6334 391.271 91.3427C391.271 90.0519 390.576 89.3569 389.285 89.3569C387.994 89.3569 387.299 90.0519 387.299 91.3427Z" fill="#3A4651"/>
<path d="M395.242 91.3428C395.242 92.8321 395.738 93.3285 397.029 93.1299C397.923 92.9313 398.717 92.1371 398.717 91.3428C398.717 90.5485 397.923 89.7542 397.029 89.5556C395.738 89.3571 395.242 89.8535 395.242 91.3428Z" fill="#3A4651"/>
<path d="M402.192 91.3427C402.192 92.6334 402.887 93.3284 404.178 93.3284C405.468 93.3284 406.163 92.6334 406.163 91.3427C406.163 90.0519 405.468 89.3569 404.178 89.3569C402.887 89.3569 402.192 90.0519 402.192 91.3427Z" fill="#3A4651"/>
<path d="M409.638 90.3498C408.844 91.7398 409.936 93.3284 411.723 93.3284C412.518 93.3284 413.113 92.4348 413.113 91.3427C413.113 89.2577 410.73 88.5627 409.638 90.3498Z" fill="#3A4651"/>
<path d="M417.085 91.3427C417.085 92.6334 417.78 93.3284 419.07 93.3284C420.361 93.3284 421.056 92.6334 421.056 91.3427C421.056 90.0519 420.361 89.3569 419.07 89.3569C417.78 89.3569 417.085 90.0519 417.085 91.3427Z" fill="#3A4651"/>
<path d="M425.028 91.3428C425.028 92.8321 425.524 93.3285 426.815 93.1299C427.708 92.9313 428.503 92.1371 428.503 91.3428C428.503 90.5485 427.708 89.7542 426.815 89.5556C425.524 89.3571 425.028 89.8535 425.028 91.3428Z" fill="#3A4651"/>
<path d="M431.978 91.3427C431.978 92.6334 432.673 93.3284 433.963 93.3284C435.254 93.3284 435.949 92.6334 435.949 91.3427C435.949 90.0519 435.254 89.3569 433.963 89.3569C432.673 89.3569 431.978 90.0519 431.978 91.3427Z" fill="#3A4651"/>
<path d="M439.623 90.0519C438.233 91.3427 439.027 93.3284 440.913 93.3284C442.204 93.3284 442.899 92.6334 442.899 91.3427C442.899 89.4562 440.913 88.6619 439.623 90.0519Z" fill="#3A4651"/>
<path d="M446.871 91.3427C446.871 92.6334 447.566 93.3284 448.856 93.3284C450.147 93.3284 450.842 92.6334 450.842 91.3427C450.842 90.0519 450.147 89.3569 448.856 89.3569C447.566 89.3569 446.871 90.0519 446.871 91.3427Z" fill="#3A4651"/>
<path d="M461.763 91.3427C461.763 92.6334 462.458 93.3284 463.749 93.3284C465.04 93.3284 465.735 92.6334 465.735 91.3427C465.735 90.0519 465.04 89.3569 463.749 89.3569C462.458 89.3569 461.763 90.0519 461.763 91.3427Z" fill="#3A4651"/>
<path d="M469.408 90.0519C468.018 91.3427 468.812 93.3284 470.699 93.3284C471.99 93.3284 472.685 92.6334 472.685 91.3427C472.685 89.4562 470.699 88.6619 469.408 90.0519Z" fill="#3A4651"/>
<path d="M476.656 91.3427C476.656 92.6334 477.351 93.3284 478.642 93.3284C479.933 93.3284 480.628 92.6334 480.628 91.3427C480.628 90.0519 479.933 89.3569 478.642 89.3569C477.351 89.3569 476.656 90.0519 476.656 91.3427Z" fill="#3A4651"/>
<path d="M484.599 91.3427C484.599 92.4348 485.294 93.3284 486.088 93.3284C486.883 93.3284 487.578 92.4348 487.578 91.3427C487.578 90.2505 486.883 89.3569 486.088 89.3569C485.294 89.3569 484.599 90.2505 484.599 91.3427Z" fill="#3A4651"/>
<path d="M491.549 91.3427C491.549 92.6334 492.244 93.3284 493.535 93.3284C494.826 93.3284 495.521 92.6334 495.521 91.3427C495.521 90.0519 494.826 89.3569 493.535 89.3569C492.244 89.3569 491.549 90.0519 491.549 91.3427Z" fill="#3A4651"/>
<path d="M499.194 89.9529C497.605 91.5415 498.598 93.4279 500.783 93.1301C501.974 92.9315 502.967 92.1372 502.967 91.3429C502.967 89.7544 500.385 88.8608 499.194 89.9529Z" fill="#3A4651"/>
<path d="M506.442 91.3427C506.442 92.6334 507.137 93.3284 508.428 93.3284C509.718 93.3284 510.413 92.6334 510.413 91.3427C510.413 90.0519 509.718 89.3569 508.428 89.3569C507.137 89.3569 506.442 90.0519 506.442 91.3427Z" fill="#3A4651"/>
<path d="M514.087 90.0519C512.697 91.3427 513.491 93.3284 515.378 93.3284C516.668 93.3284 517.363 92.6334 517.363 91.3427C517.363 89.4562 515.378 88.6619 514.087 90.0519Z" fill="#3A4651"/>
<path d="M521.335 91.3427C521.335 92.6334 522.03 93.3284 523.32 93.3284C524.611 93.3284 525.306 92.6334 525.306 91.3427C525.306 90.0519 524.611 89.3569 523.32 89.3569C522.03 89.3569 521.335 90.0519 521.335 91.3427Z" fill="#3A4651"/>
<path d="M528.285 91.3431C528.285 92.9317 528.781 93.4281 530.568 93.1303C531.76 92.9317 532.753 92.1374 532.753 91.3431C532.753 90.5488 531.76 89.7545 530.568 89.556C528.781 89.2581 528.285 89.7545 528.285 91.3431Z" fill="#3A4651"/>
<path d="M536.228 91.3427C536.228 92.6334 536.923 93.3284 538.213 93.3284C539.504 93.3284 540.199 92.6334 540.199 91.3427C540.199 90.0519 539.504 89.3569 538.213 89.3569C536.923 89.3569 536.228 90.0519 536.228 91.3427Z" fill="#3A4651"/>
<path d="M543.674 90.3498C542.88 91.7398 543.972 93.3284 545.759 93.3284C546.553 93.3284 547.149 92.4348 547.149 91.3427C547.149 89.2577 544.766 88.5627 543.674 90.3498Z" fill="#3A4651"/>
<path d="M551.121 91.3427C551.121 92.6334 551.816 93.3284 553.106 93.3284C554.397 93.3284 555.092 92.6334 555.092 91.3427C555.092 90.0519 554.397 89.3569 553.106 89.3569C551.816 89.3569 551.121 90.0519 551.121 91.3427Z" fill="#3A4651"/>
<path d="M558.071 91.3427C558.071 92.6334 558.766 93.3284 560.056 93.3284C561.347 93.3284 562.042 92.6334 562.042 91.3427C562.042 90.0519 561.347 89.3569 560.056 89.3569C558.766 89.3569 558.071 90.0519 558.071 91.3427Z" fill="#3A4651"/>
<path d="M566.013 91.3427C566.013 92.6334 566.708 93.3284 567.999 93.3284C569.29 93.3284 569.985 92.6334 569.985 91.3427C569.985 90.0519 569.29 89.3569 567.999 89.3569C566.708 89.3569 566.013 90.0519 566.013 91.3427Z" fill="#3A4651"/>
<path d="M327.728 97.2997C327.728 98.5904 328.423 99.2854 329.713 99.2854C331.004 99.2854 331.699 98.5904 331.699 97.2997C331.699 96.009 331.004 95.314 329.713 95.314C328.423 95.314 327.728 96.009 327.728 97.2997Z" fill="#3A4651"/>
<path d="M350.563 97.2997C350.563 98.3918 351.159 99.2854 351.953 99.2854C352.648 99.2854 353.542 98.3918 353.84 97.2997C354.237 95.8104 353.84 95.314 352.45 95.314C351.258 95.314 350.563 96.009 350.563 97.2997Z" fill="#3A4651"/>
<path d="M357.513 97.2997C357.513 98.5904 358.208 99.2854 359.499 99.2854C360.79 99.2854 361.485 98.5904 361.485 97.2997C361.485 96.009 360.79 95.314 359.499 95.314C358.208 95.314 357.513 96.009 357.513 97.2997Z" fill="#3A4651"/>
<path d="M365.456 97.3003C365.456 98.7896 365.952 99.286 367.243 99.0874C368.137 98.8889 368.931 98.0946 368.931 97.3003C368.931 96.506 368.137 95.7117 367.243 95.5131C365.952 95.3146 365.456 95.811 365.456 97.3003Z" fill="#3A4651"/>
<path d="M379.753 96.9025C380.051 97.7961 380.349 98.6897 380.349 98.8883C380.349 99.0868 381.044 99.2854 381.838 99.2854C382.633 99.2854 383.328 98.3918 383.328 97.2997C383.328 95.9097 382.633 95.314 381.243 95.314C379.753 95.314 379.356 95.7111 379.753 96.9025Z" fill="#3A4651"/>
<path d="M387.299 97.2997C387.299 98.5904 387.994 99.2854 389.285 99.2854C390.576 99.2854 391.271 98.5904 391.271 97.2997C391.271 96.009 390.576 95.314 389.285 95.314C387.994 95.314 387.299 96.009 387.299 97.2997Z" fill="#3A4651"/>
<path d="M395.242 97.3995C395.242 99.8816 398.518 99.5837 399.015 97.0023C399.213 95.8109 398.717 95.3145 397.327 95.3145C395.838 95.3145 395.242 95.9102 395.242 97.3995Z" fill="#3A4651"/>
<path d="M402.192 97.2997C402.192 98.5904 402.887 99.2854 404.178 99.2854C405.468 99.2854 406.163 98.5904 406.163 97.2997C406.163 96.009 405.468 95.314 404.178 95.314C402.887 95.314 402.192 96.009 402.192 97.2997Z" fill="#3A4651"/>
<path d="M409.638 96.3068C408.844 97.5975 409.936 99.2854 411.624 99.2854C413.014 99.2854 414.305 96.9025 413.411 95.9097C412.418 95.0161 410.333 95.2147 409.638 96.3068Z" fill="#3A4651"/>
<path d="M417.085 97.2997C417.085 98.5904 417.78 99.2854 419.07 99.2854C420.361 99.2854 421.056 98.5904 421.056 97.2997C421.056 96.009 420.361 95.314 419.07 95.314C417.78 95.314 417.085 96.009 417.085 97.2997Z" fill="#3A4651"/>
<path d="M425.028 97.3995C425.028 99.8816 428.304 99.5837 428.8 97.0023C428.999 95.8109 428.503 95.3145 427.113 95.3145C425.623 95.3145 425.028 95.9102 425.028 97.3995Z" fill="#3A4651"/>
<path d="M439.126 97.0023C439.623 99.5837 442.899 99.8816 442.899 97.3995C442.899 95.9102 442.303 95.3145 440.814 95.3145C439.424 95.3145 438.928 95.8109 439.126 97.0023Z" fill="#3A4651"/>
<path d="M446.871 97.2997C446.871 98.5904 447.566 99.2854 448.856 99.2854C450.147 99.2854 450.842 98.5904 450.842 97.2997C450.842 96.009 450.147 95.314 448.856 95.314C447.566 95.314 446.871 96.009 446.871 97.2997Z" fill="#3A4651"/>
<path d="M469.21 96.3068C468.415 97.6968 469.508 99.2854 471.295 99.2854C472.089 99.2854 472.685 98.3918 472.685 97.2997C472.685 95.2147 470.302 94.5197 469.21 96.3068Z" fill="#3A4651"/>
<path d="M476.656 97.2997C476.656 98.5904 477.351 99.2854 478.642 99.2854C479.933 99.2854 480.628 98.5904 480.628 97.2997C480.628 96.009 479.933 95.314 478.642 95.314C477.351 95.314 476.656 96.009 476.656 97.2997Z" fill="#3A4651"/>
<path d="M484.599 97.2997C484.599 98.3918 485.294 99.2854 486.088 99.2854C486.883 99.2854 487.578 98.3918 487.578 97.2997C487.578 96.2075 486.883 95.314 486.088 95.314C485.294 95.314 484.599 96.2075 484.599 97.2997Z" fill="#3A4651"/>
<path d="M491.549 97.2997C491.549 98.5904 492.244 99.2854 493.535 99.2854C494.826 99.2854 495.521 98.5904 495.521 97.2997C495.521 96.009 494.826 95.314 493.535 95.314C492.244 95.314 491.549 96.009 491.549 97.2997Z" fill="#3A4651"/>
<path d="M498.698 97.0022C498.896 97.995 499.889 98.7893 500.981 98.7893C502.073 98.7893 503.066 97.995 503.265 97.0022C503.563 95.7114 502.967 95.3143 500.981 95.3143C498.995 95.3143 498.4 95.7114 498.698 97.0022Z" fill="#3A4651"/>
<path d="M506.442 97.2997C506.442 98.5904 507.137 99.2854 508.428 99.2854C509.718 99.2854 510.413 98.5904 510.413 97.2997C510.413 96.009 509.718 95.314 508.428 95.314C507.137 95.314 506.442 96.009 506.442 97.2997Z" fill="#3A4651"/>
<path d="M521.335 97.2997C521.335 98.5904 522.03 99.2854 523.32 99.2854C524.611 99.2854 525.306 98.5904 525.306 97.2997C525.306 96.009 524.611 95.314 523.32 95.314C522.03 95.314 521.335 96.009 521.335 97.2997Z" fill="#3A4651"/>
<path d="M528.483 97.0024C528.881 99.1867 532.753 99.4845 532.753 97.3002C532.753 96.506 531.661 95.7117 530.469 95.5131C528.583 95.2152 528.186 95.5131 528.483 97.0024Z" fill="#3A4651"/>
<path d="M536.228 97.2997C536.228 98.5904 536.923 99.2854 538.213 99.2854C539.504 99.2854 540.199 98.5904 540.199 97.2997C540.199 96.009 539.504 95.314 538.213 95.314C536.923 95.314 536.228 96.009 536.228 97.2997Z" fill="#3A4651"/>
<path d="M543.376 97.0023C543.873 99.5837 547.149 99.8816 547.149 97.3995C547.149 95.9102 546.553 95.3145 545.064 95.3145C543.674 95.3145 543.178 95.8109 543.376 97.0023Z" fill="#3A4651"/>
<path d="M380.548 102.463C380.746 103.753 381.342 104.746 381.838 104.746C382.434 104.746 382.931 103.753 383.129 102.463C383.328 100.973 382.931 100.278 381.838 100.278C380.746 100.278 380.349 100.973 380.548 102.463Z" fill="#3A4651"/>
<path d="M387.299 102.265C387.299 103.555 387.994 104.25 389.285 104.25C390.576 104.25 391.271 103.555 391.271 102.265C391.271 100.974 390.576 100.279 389.285 100.279C387.994 100.279 387.299 100.974 387.299 102.265Z" fill="#3A4651"/>
<path d="M395.242 102.165C395.242 103.655 395.838 104.25 397.327 104.25C398.717 104.25 399.213 103.754 399.015 102.562C398.518 99.981 395.242 99.6831 395.242 102.165Z" fill="#3A4651"/>
<path d="M402.192 102.265C402.192 103.555 402.887 104.25 404.178 104.25C405.468 104.25 406.163 103.555 406.163 102.265C406.163 100.974 405.468 100.279 404.178 100.279C402.887 100.279 402.192 100.974 402.192 102.265Z" fill="#3A4651"/>
</svg>
