<svg width="1161" height="1175" viewBox="0 0 1161 1175" fill="none" xmlns="http://www.w3.org/2000/svg">
<path d="M782.44 561.998C802.63 569.618 818.18 579.028 827.96 599.478C829.46 602.608 832.169 609.678 832.489 612.988C859.109 621.088 885.95 629.788 912.37 638.548C972.5 658.508 1038.93 667.838 1070.1 731.088C1082.81 756.868 1091.34 783.098 1101.91 809.698C1111.12 834.498 1124.6 863.868 1132.56 888.708C1125.94 895.878 1119.05 901.778 1111.36 907.768C1113 912.848 1114.08 917.648 1115.31 922.838L973.11 959.148C973.11 994.648 967.9 975.128 969.61 1014.15C967.11 1076.09 966.54 1084.15 966.54 1133.65V1168.65H700.38H686.84C686.65 1147.62 686.63 1126.59 686.8 1105.56C688.87 1066.01 687.36 1014.36 687.41 973.618L686.97 725.338C682.28 719.738 674.5 707.518 669.18 700.528C660.02 713.988 649.41 726.688 640.69 740.268C616.26 710.008 572.81 654.978 583.33 613.878C588.15 589.738 605.44 565.768 631.65 563.708C631.65 571.078 631.24 591.988 632.46 598.168C628.79 600.388 623.85 602.608 622.22 606.188C622.87 609.728 623.37 609.268 626.18 612.458C645.91 638.468 672.12 664.028 692.8 690.738C725.35 662.208 762.63 635.188 794.79 606.208L787.34 600.278L782.16 595.418C782.57 584.208 782.02 572.918 782.44 561.998Z" fill="#FCFDFD"/>
<path d="M1113.11 914.147C1114.75 919.227 1115.38 923.957 1116.61 929.147L1136.64 1008.09C1146.84 1045.63 1158.98 1083.56 1160.69 1122.58C1160.91 1127.5 1160.69 1143.65 1160.69 1148.15V1174.53H1033.04H1018C1009 1174.53 1011.5 1174.53 1006.5 1174.53C1008.5 1166.1 1007.61 1119.65 1003.11 1068.15C1001.68 1051.76 989.607 1001.65 986.107 983.147L982.107 965.647C1029.75 953.307 1071.13 942.487 1113.11 914.147Z" fill="#DB6D6B"/>
<path d="M1111.36 907.768C1113 912.848 1114.08 917.648 1115.31 922.838C1109.76 941.648 1005.5 971.098 984.67 976.398L980.06 958.028C1027.7 945.688 1069.38 936.108 1111.36 907.768Z" fill="#C15B56"/>
<path d="M960.83 992.397C957.99 981.397 952.84 969.407 949.16 958.427C936.89 921.807 919.77 882.687 912.71 844.807C908.09 820.027 911.18 792.057 917.41 767.857C919.06 761.447 920.409 753.767 924.239 748.407C926.839 747.087 927.44 747.297 930.29 747.397C932.29 748.597 935.12 751.237 934.43 753.697C918.12 812.307 927.79 866.527 950.47 921.837C955.3 933.597 958.99 947.737 965.18 959.957C968.33 961.007 968.91 960.227 972.73 959.437C973.11 975.867 971.729 992.097 971.269 1008.54C970.679 1037.97 969.87 1067.4 968.83 1096.83C968 1119.9 966.509 1145.7 966.539 1168.65H700.38H686.84C686.65 1147.62 686.63 1126.59 686.8 1105.56C689.33 1104.62 697.4 1104.35 700.58 1104.14L700.8 1103.47C705.83 1104.19 731.909 1097.82 737.779 1096.53C825.199 1077.35 888.72 1043.04 960.83 992.397Z" fill="#E4E8F0"/>
<path d="M686.8 1105.56C689.33 1104.62 697.4 1104.35 700.58 1104.14L700.38 1168.65H686.84C686.65 1147.62 686.63 1126.59 686.8 1105.56Z" fill="#C9CDDA"/>
<path d="M782.44 561.998C802.63 569.618 818.18 579.028 827.96 599.478C829.46 602.608 832.169 609.678 832.489 612.988L832.46 614.058C832.36 619.858 833.94 630.188 833.45 633.908C827.47 680.118 799.29 718.358 770.17 752.038C757.43 737.268 736.359 713.808 725.249 698.188C717.729 706.918 707.16 717.928 700.71 726.798L700.8 1103.47L700.58 1104.14C697.4 1104.35 689.33 1104.62 686.8 1105.56C688.87 1066.01 687.36 1014.36 687.41 973.618L686.97 725.338C682.28 719.738 674.5 707.518 669.18 700.528C660.02 713.988 649.41 726.688 640.69 740.268C616.26 710.008 572.81 654.978 583.33 613.878C588.15 589.738 605.44 565.768 631.65 563.708C631.65 571.078 631.24 591.988 632.46 598.168C628.79 600.388 623.85 602.608 622.22 606.188C622.87 609.728 623.37 609.268 626.18 612.458C645.91 638.468 672.12 664.028 692.8 690.738C725.35 662.208 762.63 635.188 794.79 606.208L787.34 600.278L782.16 595.418C782.57 584.208 782.02 572.918 782.44 561.998Z" fill="#E4E8F0"/>
<path d="M616.419 141.913C618.459 146.241 620.519 153.411 625.289 154.288L626.209 155.516C631.569 162.666 636.509 172.243 642.879 178.91C671.529 208.909 710.719 222.395 750.749 228.567C757.319 229.581 780.199 232.255 785.259 230.506C784.589 226.292 783.349 224.162 782.579 219.93C779.889 204.999 780.57 193.912 782.23 178.941C791.98 209.942 808.579 228.761 837.279 244.063C838.689 235.959 845.069 210.132 852.869 207.296C855.879 209.557 861.149 231.171 869.039 234.739C872.659 239.858 871.499 247.083 871.259 253.517C877.699 254.928 883.709 260.165 890.149 262.592C908.789 269.617 930.8 270.341 950.46 268.322L952.97 268.426L953.119 269.601C953.379 271.513 953.32 273.119 954.44 274.376C954.93 266.916 951.679 260.967 952.109 252.648C952.999 257.691 954.41 268.364 954.44 274.376C954.47 294.208 955.109 313.648 955.109 333.648C981.019 360.897 988.439 392.965 958.809 422.06C935.649 444.803 896.669 448.549 865.529 447.722C859.339 474.803 840.249 497.247 817.029 511.728C806.219 518.458 794.849 522.948 783.269 528.008C782.519 528.338 781.829 529.548 781.589 530.338C781.649 541.488 781.009 588.828 782.159 595.418L787.339 600.278L794.789 606.208C762.629 635.188 725.349 662.208 692.799 690.738C672.119 664.028 645.909 638.468 626.179 612.458C623.369 609.268 622.869 609.728 622.219 606.188C623.849 602.608 628.789 600.388 632.459 598.168C631.239 591.988 631.649 571.078 631.649 563.708L631.749 548.418L631.569 537.268L627.319 536.808C620.629 534.308 605.849 530.418 598.259 528.098C594.689 526.068 586.989 523.298 582.689 521.348C548.269 505.728 524.769 481.38 515.509 443.7C480.509 442.094 439.739 430.314 431.149 391.112C428.149 377.512 430.819 363.276 438.539 351.683C445.299 341.508 459.439 329.686 471.609 327.148C472.339 299.875 472.899 271.813 471.169 244.648L470.309 238.8L471.169 238.518C472.819 239.77 473.369 241.267 474.339 243.12C478.489 242.204 473.549 229.4 476.629 224.84C478.709 227.185 478.149 226.078 477.939 230.102C477.769 235.7 475.859 253.568 478.569 257.169L480.739 257.999C486.409 254.488 502.229 259.103 508.459 255.848C510.749 254.65 510.539 252.967 511.379 250.037L511.549 245.82L511.199 242.001L513.229 245.106C516.439 245.498 532.069 239.515 535.559 237.684C580.009 214.363 599.479 185.95 616.419 141.913Z" fill="#DB6D6B"/>
<path d="M871.26 253.517C877.7 254.928 883.71 260.165 890.15 262.592C908.79 269.617 934.95 269.666 954.61 267.647C954.83 278.392 955.11 323.147 955.11 333.647C926.01 315.274 893.16 325.301 870.75 346.248C870.9 318.961 871.26 290.327 870.77 263.121C871.09 260.164 871.14 256.542 871.26 253.517Z" fill="#2E3C6B"/>
<path d="M480.74 257.999C486.41 254.488 502.229 259.103 508.459 255.848C510.749 254.65 510.54 252.967 511.38 250.037L511.17 282.227C511.23 295.244 510.649 321.078 512.329 333.034C508.689 331.932 505.88 330.177 502.53 328.352C498.86 327.937 493.679 326.581 489.949 325.726L490.03 325.078C485.35 325.15 484.629 325.003 481.449 322.236C480.689 316.656 481.12 304.904 481.13 298.791C481.22 285.193 481.09 271.594 480.74 257.999Z" fill="#2E3C6B"/>
<path d="M631.569 537.268L638.029 538.178C690.599 546.088 698.029 542.818 749.019 538.488C732.319 546.178 721.269 548.568 703.399 551.658C697.379 552.128 691.349 552.548 685.319 552.908C675.559 552.808 640.009 552.558 632.769 548.708L631.749 548.418L631.569 537.268Z" fill="#1E2847"/>
<path d="M631.569 537.268L638.029 538.178C633.889 545.368 638.069 545.768 634.799 548.498L632.769 548.708L631.749 548.418L631.569 537.268Z" fill="#102045"/>
<path d="M470.31 238.8L471.17 238.518C472.82 239.77 473.37 241.267 474.34 243.12C478.49 242.204 473.55 229.4 476.63 224.84C478.71 227.185 478.15 226.078 477.94 230.102C477.77 235.7 475.86 253.568 478.57 257.169L480.74 257.999C481.09 271.594 481.22 285.193 481.13 298.791C481.12 304.904 480.69 316.656 481.45 322.236C484.63 325.003 485.35 325.15 490.03 325.078L489.95 325.726C482.73 325.804 478.76 326.078 471.61 327.022C471.86 317.445 472.11 249.148 470.88 243.983L470.31 238.8Z" fill="#283263"/>
<path d="M777.649 596.968C780.209 580.318 776.089 537.908 779.969 529.888L781.589 530.338C781.649 541.488 781.009 588.828 782.159 595.418L787.339 600.278C783.479 600.058 781.169 598.608 777.649 596.968Z" fill="#D3615B"/>
<path d="M632.459 598.168C634.699 587.688 630.179 556.178 634.109 551.768C635.309 552.718 636.26 553.018 636.02 555.568C634.81 568.428 636.609 585.108 633.559 597.048C631.779 604.038 626.809 603.988 626.319 612.128C626.269 612.238 626.229 612.348 626.179 612.458C623.369 609.268 622.869 609.728 622.219 606.188C623.849 602.608 628.789 600.388 632.459 598.168Z" fill="#D3615B"/>
<path d="M634.449 428.054C641.889 424.989 662.839 428.045 674.819 424.735C687.089 421.347 707.919 403.197 717.229 406.755L718.139 409.361L718.809 406.735C728.029 403.288 744.689 416.288 747.209 425.477C751.039 439.41 749.129 448.468 740.909 460.108C728.949 475.921 705.979 488.468 686.359 490.787C680.809 491.443 662.529 492.219 657.899 490.198C634.219 484.408 613.069 473.319 620.559 441.816C622.189 434.969 628.349 431.024 634.449 428.054Z" fill="#1E2847"/>
<path d="M696.879 467.555C697.549 466.515 698.249 465.488 698.959 464.476C710.099 448.569 726.449 448.99 740.909 460.108C728.949 475.921 705.979 488.468 686.359 490.787C680.809 491.443 662.529 492.219 657.899 490.198L659.229 489.036C665.809 468.354 675.359 461.627 696.879 467.555Z" fill="#C15B56"/>
<path d="M634.449 428.054C641.889 424.989 662.839 428.045 674.819 424.735C687.089 421.347 707.92 403.197 717.23 406.755L718.14 409.361C716.27 435.349 689.46 445.634 666.51 443.501C652.3 442.18 644.849 437.168 634.449 428.054Z" fill="#FCFDFD"/>
<path d="M518.769 348.556C521.599 346.33 520.829 347.687 521.799 344.783C527.089 346.532 531.319 344.785 536.939 345.355L540.699 346.959C553.519 348.192 559.559 364.35 557.679 375.772C556.569 382.711 552.669 388.896 546.889 392.893C534.309 401.428 522.459 396.828 511.449 388.892C511.629 396.29 512.149 405.856 511.509 413.054C511.419 417.478 512.169 417.334 510.049 420.193C506.669 420.389 505.089 419.835 501.739 419.093C495.249 418.509 484.919 415.091 479.139 411.726C454.459 397.37 459.929 361.874 488.459 356.845C494.289 355.819 502.979 357.638 507.789 361.364C512.059 356.84 513.169 352.301 518.769 348.556Z" fill="#9D504B"/>
<path d="M518.77 348.556C521.6 346.33 520.829 347.687 521.799 344.783C527.089 346.532 531.319 344.785 536.939 345.355L540.699 346.959C553.519 348.192 559.559 364.35 557.679 375.772C556.569 382.711 552.67 388.896 546.89 392.893C534.31 401.428 522.459 396.828 511.449 388.892C511.629 396.29 512.15 405.856 511.51 413.054C510.99 409.796 510.889 400.416 510.679 396.486C510.179 387.042 508.649 382.682 506.609 373.73C506.429 368.963 505.84 365.663 507.79 361.364C512.06 356.84 513.17 352.301 518.77 348.556Z" fill="#C15B56"/>
<path d="M518.77 348.556C521.6 346.33 520.829 347.687 521.799 344.783C527.089 346.532 531.319 344.785 536.939 345.355L540.699 346.959C532.849 350.31 525.51 347.108 518.77 348.556Z" fill="#D3615B"/>
<path d="M501.739 419.093C495.249 418.509 484.919 415.091 479.139 411.726C454.459 397.37 459.929 361.874 488.459 356.845C494.289 355.819 502.979 357.638 507.789 361.364C505.839 365.663 506.429 368.963 506.609 373.73C505.839 369.973 505.049 366.42 504.559 362.607C468.209 371.768 470.399 404.88 501.739 419.093Z" fill="#C15B56"/>
<path d="M890.32 361.666C898.23 356.196 906.13 353.451 915.95 355.034C924.33 356.38 931.75 361.203 936.37 368.313C940.78 374.883 942.4 382.93 940.88 390.692C937.35 407.925 920.26 416.808 904.5 420.256C893.15 422.803 881.87 423.594 870.29 424.135C871.09 408.503 870.92 390.313 871.1 374.443C878.15 368.652 882.29 365.866 890.32 361.666Z" fill="#9D504B"/>
<path d="M890.319 361.666C898.229 356.196 906.129 353.451 915.949 355.034C924.329 356.38 931.749 361.203 936.369 368.313C940.779 374.883 942.399 382.93 940.879 390.692C937.349 407.925 920.259 416.808 904.499 420.256C933.669 404.191 933.939 359.811 890.319 361.666Z" fill="#C15B56"/>
<path d="M817.23 346.883C837.66 348.626 854.989 358.085 852.049 382.008C851.009 390.743 846.47 398.683 839.48 404.018C832.85 409.113 824.4 411.204 816.17 409.785C797.63 406.583 786.719 389.027 790.299 371.48C792.459 360.907 801.35 357.325 803.68 352.007C808.24 350.682 813.52 349.607 817.23 346.883Z" fill="#C15B56"/>
<path d="M763.369 321.494C783.159 319.174 808.699 327.358 817.229 346.882C813.519 349.606 808.239 350.682 803.679 352.007C794.659 342.609 791.459 339.857 778.849 336.142L770.269 335.405C733.899 336.461 736.809 362.435 725.259 369.619C702.929 370.431 726.489 324.238 763.369 321.494Z" fill="#1E2847"/>
<path d="M768.089 330.436L768.889 330.669C773.509 331.993 777.859 331.697 780.729 333.996C780.049 335.907 780.669 335.186 778.849 336.142L770.269 335.405C765.949 335.028 765.189 335.435 762.029 332.884C764.369 330.46 764.019 331.203 768.089 330.436Z" fill="#102045"/>
<path d="M637.84 357.498C650.05 354.609 662.29 362.212 665.11 374.446C667.93 386.68 660.25 398.871 648 401.62C635.85 404.346 623.78 396.748 620.99 384.613C618.19 372.478 625.72 360.363 637.84 357.498Z" fill="#C15B56"/>
<path d="M541.359 322.951C563.339 312.395 589.029 318.854 601.339 341.036C603.499 344.924 604.319 351.064 602.539 355.268C601.919 356.698 600.669 357.763 599.159 358.158C587.029 361.236 585.629 318.208 545.699 336.304L539.789 341.026L536.939 345.355C531.319 344.785 527.089 346.532 521.799 344.783L524.749 337.408C528.349 330.647 534.669 326.211 541.359 322.951Z" fill="#102045"/>
<path d="M616.419 141.913C618.459 146.241 620.519 153.411 625.289 154.288L626.209 155.516C631.569 162.666 636.509 172.243 642.879 178.91C671.529 208.909 710.719 222.395 750.749 228.567C757.319 229.581 780.199 232.255 785.259 230.506C784.589 226.292 783.349 224.162 782.579 219.93C779.889 204.999 780.57 193.912 782.23 178.941C791.98 209.942 808.579 228.761 837.279 244.063C838.689 235.959 845.069 210.132 852.869 207.296C855.879 209.557 861.149 231.171 869.039 234.739C872.659 239.858 871.499 247.083 871.259 253.517C871.139 256.542 871.089 260.164 870.769 263.121L870.139 252.701C866.139 248.747 857.919 239.75 853.499 237.258L851.779 237.775C849.569 243.175 849.659 256.538 849.159 262.854C834.909 256.341 822.519 249.623 809.279 241.318C806.039 239.291 803.449 241.578 800.599 243.511C791.679 244.303 781.96 242.929 772.97 242.489C714.13 239.61 646.749 217.73 615.779 164.159C602.199 202.08 552.899 246.018 513.109 252.556C512.519 269.746 512.549 285.551 512.899 302.668C513.019 308.509 513.269 328.052 512.329 333.034C510.649 321.078 511.229 295.244 511.169 282.227L511.379 250.037L511.549 245.82L511.199 242.001L515.609 239.648C518.819 240.04 532.069 239.515 535.559 237.684C580.009 214.363 599.479 185.95 616.419 141.913Z" fill="#C15B56"/>
<path d="M524.749 337.408C534.019 344.361 531.239 338.618 539.789 341.026L536.939 345.355C531.319 344.785 527.089 346.532 521.799 344.783L524.749 337.408Z" fill="#102045"/>
<path d="M753.09 266.673C764.14 260.708 791.059 265.737 801.029 272.662C808.959 280.549 807.19 287.422 798.11 293.063C793 291.6 787.69 290.158 782.63 288.589C781.12 288.343 779.61 288.111 778.1 287.893C771.07 286.809 767.029 286.794 759.789 286.666C746.339 287.86 745.69 273.916 753.09 266.673Z" fill="#1E2847"/>
<path d="M801.029 272.663C808.959 280.55 807.189 287.423 798.109 293.064C792.999 291.601 787.689 290.159 782.629 288.59C791.049 283.558 796.149 291.315 801.369 284.247C801.929 280.355 801.409 279.698 800.029 275.988L799.599 274.855L801.029 272.663Z" fill="#102045"/>
<path d="M759.789 286.667C746.339 287.861 745.69 273.917 753.09 266.674C749.7 286.635 759.569 284.732 759.789 286.667Z" fill="#102045"/>
<path d="M566.749 266.999C575.019 266.146 583.649 265.378 587.449 274.23C588.979 277.795 589.46 278.651 588.16 282.359C581.16 290.73 568.5 287.197 556.9 289.358L555.499 289.626C553.579 290.279 551.64 290.849 549.67 291.336C527.28 297.015 526.319 272.222 566.749 266.999Z" fill="#102045"/>
<path d="M547.85 338.759C551.96 338.338 564.16 338.726 567.87 340.138L568.19 341.901C562.23 342.174 553.57 344.098 548.46 341.508L547.85 338.759Z" fill="#D3615B"/>
<path d="M416.429 595.897C428.139 598.867 447.709 606.957 459.089 611.637C479.609 620.057 500.05 628.697 520.4 637.537C535.17 633.407 568.059 619.767 583.329 613.877C572.809 654.977 616.259 710.007 640.689 740.267C649.409 726.687 660.019 713.987 669.179 700.527C674.499 707.517 682.279 719.737 686.969 725.337L687.41 973.617C687.36 1014.36 688.869 1066.01 686.799 1105.56C686.629 1126.59 686.649 1147.62 686.839 1168.65H473.699C473.639 1145.58 473.259 1122.51 472.559 1099.46L471.76 1089.35C472.39 1079.28 471.309 1057.35 471.079 1046.44L468.49 952.127C469.32 923.907 466.66 883.058 466.4 853.328C461.1 851.588 457.87 850.327 452.77 848.047C443.83 843.727 430.889 838.727 421.339 834.507C392.409 821.587 363.279 809.127 333.949 797.127C334.629 787.017 335.439 774.467 337.599 764.688C347.259 707.018 365.009 664.157 398.699 616.987L416.429 595.897Z" fill="#FCFDFD"/>
<path d="M472.56 1099.46C534.5 1111.81 597.92 1114.99 660.78 1108.89C665.13 1108.48 683.61 1106.98 686.8 1105.56C686.63 1126.59 686.65 1147.62 686.84 1168.65H473.7C473.64 1145.58 473.26 1122.51 472.56 1099.46Z" fill="#E4E8F0"/>
<path d="M452.77 848.047C453.47 834.737 450.099 779.557 456.339 772.927C459.779 772.007 459.889 772.037 463.349 773.227C467.379 777.697 465.73 792.967 465.79 799.847L466.4 853.327C461.1 851.587 457.87 850.327 452.77 848.047Z" fill="#E4E8F0"/>
<path d="M652.9 929.257C658.8 927.327 665.15 930.517 667.13 936.407C669.1 942.287 665.96 948.667 660.09 950.687C654.15 952.727 647.689 949.547 645.689 943.597C643.699 937.647 646.93 931.207 652.9 929.257Z" fill="#E4E8F0"/>
<path d="M653.699 1043.4C657.629 1042.37 661.8 1043.52 664.63 1046.42C667.46 1049.33 668.51 1053.53 667.38 1057.43C666.24 1061.32 663.1 1064.3 659.15 1065.23C653.16 1066.64 647.15 1062.97 645.66 1057C644.17 1051.03 647.749 1044.97 653.699 1043.4Z" fill="#E4E8F0"/>
<path d="M652.38 816.197C658.11 813.867 664.639 816.627 666.949 822.367C669.269 828.107 666.48 834.627 660.73 836.917C655.02 839.187 648.54 836.417 646.24 830.717C643.94 825.017 646.69 818.527 652.38 816.197Z" fill="#E4E8F0"/>
<path d="M712.69 0.18273C749.82 -0.93127 800.49 2.66775 833.52 21.6077C857.69 31.3557 904.42 63.7168 918.26 85.6518C922.22 89.8918 928.61 98.3037 931.47 103.424C942.37 115.372 960.07 154.715 963.09 171.011C966.4 182.324 967.85 190.895 969.89 202.484L970.61 206.648C971.9 215.852 974.18 233.348 971.52 241.63C969.58 243.165 968.89 242.901 966.37 243.028L963.24 242.913C960.33 242.691 957.31 242.222 954.4 241.837L954.84 248.989C954.41 257.308 954.93 266.916 954.44 274.376C953.32 273.119 953.38 271.513 953.12 269.601L952.97 268.426L950.46 268.322C930.8 270.341 908.79 269.617 890.15 262.592C883.71 260.165 877.7 254.928 871.26 253.517C871.5 247.083 872.66 239.858 869.04 234.739C861.15 231.171 855.88 209.557 852.87 207.296C845.07 210.132 838.69 235.959 837.28 244.063C808.58 228.761 791.98 209.942 782.23 178.941C780.57 193.912 779.89 204.999 782.58 219.93C783.35 224.162 784.59 226.292 785.26 230.506C780.2 232.255 757.32 229.581 750.75 228.567C710.72 222.395 671.53 208.909 642.88 178.91C636.51 172.243 631.57 162.666 626.21 155.516L625.29 154.288C620.52 153.411 618.46 146.241 616.42 141.913C599.48 185.95 580.01 214.363 535.56 237.684C532.07 239.515 516.61 245.106 513.23 245.106C513.23 245.106 513.11 245.148 512.61 245.148C511.492 245.148 511.55 245.648 511.55 245.648V245.82L511.38 250.037C510.54 252.967 510.75 254.65 508.46 255.848C502.23 259.103 486.41 254.488 480.74 257.999L478.57 257.169C475.86 253.568 477.77 235.7 477.94 230.102C478.15 226.078 480.02 238.993 477.94 236.648C478.61 241.648 479.11 242.648 476.63 245.148C475.13 244.148 473.76 242.9 472.11 241.648L470.31 238.8C468.61 235.148 468.63 234.741 466.61 226.148C462.72 209.599 462.1 161.445 465.64 144.795C465.97 131.628 470.49 118.94 475.03 106.738C488.38 80.5038 511.01 55.2347 539.6 45.8827C560.01 38.6667 575.28 39.1287 596.38 41.1477C598.8 39.0107 600.52 37.9657 603.25 36.1967C623.77 20.6467 656.68 9.78574 681.72 4.26574L695.59 2.03972C701.06 1.29872 707.16 0.77673 712.69 0.18273Z" fill="#2E3C6B"/>
<path d="M924.74 231.365C931.33 234.061 935.96 235.994 942.79 237.842C945.95 238.716 952.27 239.988 954.4 241.837L954.84 248.989C954.41 257.308 955.1 256.188 954.61 263.648C954.544 264.648 954.61 267.648 954.61 269.148C953.11 270.648 908.79 269.617 890.15 262.592C883.71 260.165 877.7 254.928 871.26 253.517C871.5 247.083 872.66 239.858 869.04 234.739C871.93 235.142 883.22 244.597 889.22 247.419C903.18 253.985 912.27 255.164 927.46 255.702C926.17 248.038 924.75 239.154 924.74 231.365Z" fill="#1E2847"/>
<path d="M476.609 244.648C478.609 244.648 477.68 244.648 479.18 244.648C480.109 244.647 479.609 244.647 480.109 244.647C480.109 244.647 478.405 244.648 481.109 244.648C487.409 244.319 506.85 241.372 510.08 242.409L511.55 245.82L511.38 250.036C510.54 252.966 513.109 255.848 508.46 255.848C502.109 257.169 488.609 258.147 481.609 258.147L478.57 257.169C475.86 253.568 476.439 250.246 476.609 244.648Z" fill="#1E2847"/>
<path d="M153.7 207.34C175.15 184.488 202.86 194.056 209.74 224.228L211.02 231.733C227.21 231.231 238.83 229.472 251.83 242.394C269.1 259.569 273.9 295.973 274.43 319.289C274.71 331.524 264.16 345.183 257.7 354.412C256.74 355.779 251.99 362.196 251.53 363.434C252.34 366.588 254.45 374.095 254.82 376.955C259.63 406.09 272.73 453.754 279.76 483.616C283.36 499.051 286.87 514.508 290.29 529.978C291.9 537.198 294.54 550.438 296.84 557.088L299.3 566.728C303.37 570.878 314.27 574.998 319.49 577.888C335.01 586.478 387.98 608.288 398.7 616.988C365.01 664.158 347.26 707.018 337.6 764.688C319.98 753.848 299.74 743.548 281.76 732.968C220.84 697.128 183.09 691.658 164.16 616.938C162.34 608.388 160.36 599.878 158.24 591.408C157.73 586.898 153.32 568.428 152.05 563.518C148.58 550.098 145.38 531.238 141.05 518.508C140.24 511.808 136.04 495.82 134.23 489.133C133.71 482.723 129.32 466.597 127.79 459.797C122.88 438.019 116.35 415.505 112.33 393.567C79.8495 357.37 62.4696 319.889 60.2696 270.485C59.0096 242.049 73.1695 223.952 102.58 223.443C113.95 204.596 133.92 203.12 153.7 207.34Z" fill="#DB6D6B"/>
<path d="M179.66 292.635C175.68 291.344 172.65 289.821 169.39 287.185C161.68 280.892 156.77 271.81 155.73 261.916C152.44 229.272 186.19 225.345 209.74 224.228L211.02 231.733C200.14 234.775 188.14 234.625 176.01 237.89C169.47 245.108 164.62 250.058 165.39 260.556C167.51 289.347 203.26 283.221 222.64 284.207C208.86 299.921 197.529 319.333 195.189 340.549C194.639 345.546 195.04 347.492 190.61 350.616C186.64 350.803 188.43 351.243 185.01 349.314C179.71 341.345 187.58 318.627 190.66 310.076C171.36 320.068 158.21 326.682 136.17 319.929C135.53 319.731 134.9 319.522 134.26 319.301C122.41 328.1 102.12 334.708 88.8996 325.4C87.0696 321.638 88.5095 320.608 91.5695 318.143C109.439 319.157 116.959 319.874 131.179 307.865C151.839 312.319 161.33 313.571 180.85 302.536L179.459 299.073C179.869 296.232 180.07 295.571 179.66 292.635Z" fill="#9D504B"/>
<path d="M179.66 292.636C186.17 293.862 191.729 294.783 198.299 295.611L198.78 296.439C190.21 300.323 185.859 297.4 180.849 302.536L179.459 299.073C179.869 296.232 180.07 295.572 179.66 292.636Z" fill="#D3615B"/>
<path d="M296.84 557.088L299.3 566.728C296.68 570.958 259.66 585.068 254.42 582.848C252.02 579.708 252.38 581.348 252.61 577.948C257.14 570.418 287.75 559.758 296.84 557.088Z" fill="#9D504B"/>
<path d="M251.53 363.434C252.34 366.588 254.45 374.095 254.82 376.955C249.07 382.368 230.56 397.537 222.85 394.17C222.29 392.988 220.99 388.891 221.99 387.893C231.28 378.604 242.02 372.883 251.53 363.434Z" fill="#9D504B"/>
<path d="M120.109 143.269C120.189 133.629 116.689 105.412 127.849 103.773C129.559 104.595 131.839 105.443 132.269 107.703C134.259 118.274 132.249 131.259 132.759 142.444C139.859 142.241 148.129 141.101 152.079 148.373C150.809 157.312 138.389 155.202 132.049 154.615C132.329 163.087 134.139 176.152 126.589 181.829C117.559 180.975 119.629 162.583 119.899 155.92C110.929 157.895 102.079 160.398 93.3995 163.416C90.8695 164.562 88.3194 165.69 85.7594 166.8C89.1894 174.077 92.2994 178.869 92.5694 186.921C90.2194 188.27 89.0995 188.429 86.5295 189.096C82.2695 187.813 83.7694 188.515 80.4894 185.029L75.3294 173.048C67.1694 176.272 52.3894 184.602 47.3394 191.717C47.7794 193.63 47.5094 193.038 48.9694 194.569C52.1494 196.941 59.2994 201.976 61.9394 204.426C62.7094 208.54 63.0094 208.923 61.3394 212.533C58.3594 214.994 59.7694 214.329 55.7094 214.683C53.3694 213.662 52.7494 213.534 50.7294 211.92C45.6694 207.478 40.9994 201.046 34.4394 203.027C31.5694 209.388 29.9694 216.24 21.7294 214.951C14.5594 207.694 21.2794 200.19 26.2194 193.809C27.3694 191.092 33.3694 185.751 35.9294 184.018C44.9494 175.23 58.4495 167.358 69.2795 160.851C66.6295 156.09 63.9595 149.776 61.6595 144.707L53.9594 127.929L50.5994 121.665C49.0194 117.815 47.4794 115.236 47.7994 111.155C49.6594 108.194 49.6795 107.987 52.7895 106.723C62.1295 108.494 68.4694 129.138 72.0894 137.654C74.6094 142.659 77.2994 149.945 80.7194 153.423C84.1594 154.335 83.0095 154.095 87.0395 152.441C100.119 147.199 105.989 145.691 120.109 143.269Z" fill="#283263"/>
<path d="M61.9395 204.427C62.7095 208.541 63.0095 208.924 61.3395 212.534C58.3595 214.995 59.7695 214.33 55.7095 214.684C53.3695 213.663 52.7495 213.535 50.7295 211.921L51.8795 210.653C57.4095 209.931 58.4595 208.588 61.9395 204.427Z" fill="#283263"/>
<path d="M80.4895 185.03C83.8095 183.061 86.5295 181.87 90.4695 182.786C91.4195 184.484 91.8095 185.126 92.5695 186.922C90.2195 188.271 89.0995 188.43 86.5295 189.097C82.2695 187.814 83.7695 188.516 80.4895 185.03Z" fill="#283263"/>
<path d="M50.5996 121.666L51.8696 118.681C54.9996 118.272 53.4296 118.088 56.6096 119.935C58.5996 123.561 58.2896 121.727 57.9696 125.548C56.2196 127.307 56.3396 127.176 53.9596 127.93L50.5996 121.666Z" fill="#283263"/>
<path d="M5.42944 176.485C0.139444 172.722 -2.14046 168.366 2.52954 162.888C6.52954 161.739 4.60952 161.741 8.50952 162.671C15.3495 167.128 29.3594 178.422 35.9294 184.019C33.3694 185.752 27.3695 191.093 26.2195 193.81C19.2895 186.485 11.8894 182.958 5.42944 176.485Z" fill="#283263"/>
<path d="M5.42944 176.485C0.139444 172.722 -2.14046 168.366 2.52954 162.888C6.52954 161.739 4.60952 161.741 8.50952 162.671C7.44952 167.213 4.79955 167.398 4.40955 171.724C4.36955 172.193 5.37944 175.14 5.42944 176.485Z" fill="#283263"/>
</svg>
