
<svg width="40" height="24" viewBox="0 0 137 29" fill="none" xmlns="http://www.w3.org/2000/svg">
<path d="M38.4283 7.03677C39.3323 6.96528 41.2189 6.9973 41.6562 7.97108C44.0392 13.2938 46.3772 18.6759 48.5782 24.0791C49.8992 27.3219 44.7575 28.8249 43.9196 25.2332C43.8268 24.8356 43.2878 23.7647 43.1237 23.2301C42.1318 23.2486 41.1095 23.2352 40.115 23.2342C38.5373 23.2358 36.8676 23.2626 35.2976 23.2184C34.9164 24.1574 34.5455 25.102 34.1262 26.0245C32.9458 28.6217 28.6661 26.9541 29.7092 24.2045C30.5059 22.1044 31.5016 20.1057 32.38 18.0409C33.3693 15.6706 34.3845 13.311 35.4253 10.9628C35.8357 10.0382 36.2288 9.05408 36.6787 8.15188C37.0181 7.47099 37.7447 7.23082 38.4283 7.03677ZM37.0885 18.8692L39.1523 18.8644L41.2976 18.8629C41.0071 18.2243 39.3837 13.7474 39.1968 13.5624C38.5177 15.3406 37.8149 17.1097 37.0885 18.8692Z" fill="#3ABEFF"/>
<path d="M127.431 12.4222C129.169 12.2195 130.671 12.5294 132.087 13.5666C132.219 13.1989 132.415 12.8974 132.75 12.6834C133.341 12.3065 134.385 12.336 135.052 12.4821C135.625 12.6075 136.122 12.9388 136.415 13.4566C136.571 13.7342 136.579 14.1536 136.597 14.4669C136.681 15.9062 136.709 25.2546 136.467 26.0532C136.339 26.4747 135.99 26.8524 135.604 27.053C134.947 27.3941 133.88 27.4427 133.185 27.203C132.57 26.9907 132.255 26.5862 131.986 26.0215C131.452 26.5308 130.451 27.0647 129.719 27.1792C120.388 28.6382 118.32 14.2786 127.431 12.4222ZM129.396 22.7369C132.948 22.0564 132.425 16.6306 128.568 16.9194C127.717 17.1456 127.137 17.4711 126.672 18.2605C126.254 18.9869 126.146 19.851 126.371 20.6582C126.76 22.0918 127.92 22.8816 129.396 22.7369Z" fill="#3ABEFF"/>
<path d="M107.58 6.50961C110.426 6.32743 110.867 7.29384 110.762 9.98564C110.67 12.3599 110.936 14.9502 110.714 17.3097C111.496 16.4559 115.645 12.566 116.441 12.1342C116.585 12.1271 116.729 12.1226 116.872 12.1204C118.292 12.1031 119.326 13.2896 119.288 14.6626C119.276 15.0567 119.144 15.4378 118.911 15.7555C118.565 16.2301 117.819 16.7702 117.353 17.1735C116.583 17.842 115.822 18.5189 115.067 19.204C115.85 20.0685 116.701 20.8324 117.514 21.6584C118.454 22.6132 119.812 23.4106 120.045 24.7849C119.999 26.1957 118.914 27.2569 117.518 27.3196C116.642 27.359 115.848 26.4791 115.291 25.8913C114.008 24.5388 112.656 23.2594 111.359 21.9217C111.184 22.0919 110.972 22.2653 110.785 22.4263C110.762 23.4383 110.913 25.3046 110.55 26.1399C110.338 26.6361 109.925 27.0183 109.414 27.19C108.695 27.4381 107.706 27.3839 107.016 27.0319C106.072 26.5725 106.077 25.7353 106.073 24.8067C106.062 22.5064 106.068 20.1955 106.068 17.8942L106.071 11.7034C106.072 10.567 106.056 9.428 106.101 8.29281C106.14 7.33349 106.671 6.74918 107.58 6.50961Z" fill="#3ABEFF"/>
<path d="M66.3559 12.4002C66.5637 12.3852 66.7717 12.3741 66.98 12.3671C67.9772 12.3351 69.1782 12.8636 69.2656 13.9573C69.4214 15.9057 69.302 18.001 69.323 19.9565C69.2246 22.0781 70.771 23.4727 72.8833 22.3523C74.9783 21.2412 73.7392 16.8169 74.0476 14.7988C74.1494 14.1326 74.0634 13.5633 74.5671 13.0215C75.3884 12.1378 77.3523 12.1528 78.2543 12.9051C79.0345 13.6064 78.8599 15.3069 78.8556 16.2642C78.8463 17.487 78.845 18.71 78.8518 19.933C78.8313 21.3207 79.0995 25.144 78.6063 26.1907C78.375 26.6814 77.9719 27.0315 77.4532 27.1897C76.8404 27.3766 75.6531 27.366 75.096 27.0438C74.7139 26.8229 74.3732 26.4946 74.2518 26.0621C74.2458 26.0408 74.2407 26.0192 74.2353 25.9978C74.0506 26.0282 73.3576 26.574 73.1018 26.7077C71.3551 27.6237 68.9655 27.4317 67.3191 26.3827C64.1849 24.3899 64.6711 20.483 64.664 17.2702C64.6613 16.054 64.4387 14.2118 65.047 13.1291C65.302 12.675 65.8754 12.5004 66.3559 12.4002Z" fill="#3ABEFF"/>
<path d="M86.1573 13.6818C88.344 11.9385 91.4519 11.877 93.6939 13.6854C96.7572 16.1562 95.5283 20.5086 95.8066 23.9083C95.8632 25.5847 95.8623 27.186 93.7853 27.3155C91.1299 27.481 91.0262 25.9317 91.1029 23.8172C91.1321 23.0132 91.1105 21.928 91.1143 21.0726C91.1199 20.2483 91.1586 19.5717 91.0173 18.7199C90.6298 16.3834 87.5126 16.2543 86.5643 18.2079C86.124 19.1152 86.2721 20.5202 86.2518 21.5209C86.282 22.3699 86.2291 23.3331 86.27 24.1691C86.3263 25.3176 86.2591 27.0434 84.7429 27.2465C81.2947 27.7085 81.5975 25.7932 81.5992 23.4043L81.6033 19.6741C81.6046 18.2134 81.5898 16.7464 81.5952 15.2858C81.6012 13.717 81.591 12.6689 83.4415 12.4379C84.5913 12.2848 85.6091 12.5972 86.1573 13.6818Z" fill="#3ABEFF"/>
<path d="M55.5959 13.6863C55.6655 13.6232 55.737 13.5621 55.8101 13.503C57.1074 12.444 58.3316 12.3069 60.1031 12.3949C63.0641 12.5419 64.3075 14.9729 62.1106 17.1281C61.0733 18.0051 59.9491 16.9747 58.9438 16.8668C56.8837 16.6459 55.9058 17.9634 55.7064 19.8067C55.6877 21.3543 55.7135 22.8968 55.7164 24.4771C55.7922 25.8813 55.4575 27.1603 53.8281 27.2776C52.2269 27.3932 51.0107 26.9515 50.9809 25.1273C50.9401 22.0189 50.9542 18.9044 50.9615 15.7952C50.9661 13.8585 50.7934 12.5644 53.1426 12.4043C54.3173 12.3441 55.1024 12.5634 55.5959 13.6863Z" fill="#3ABEFF"/>
<path d="M100.036 12.4199C101.67 12.3414 103.166 12.465 103.179 14.547C103.203 18.1546 103.201 21.7679 103.161 25.3752C103.15 26.3781 102.664 26.9563 101.715 27.2468C101.024 27.3625 100.163 27.3842 99.5228 27.0639C99.1828 26.8937 98.7523 26.5155 98.633 26.1412C98.402 25.4161 98.4213 15.5674 98.5143 14.2987C98.5389 13.9637 98.5799 13.6745 98.7377 13.3725C99.0336 12.8063 99.4548 12.5979 100.036 12.4199Z" fill="#3ABEFF"/>
<path d="M100.373 6.9602C99.8189 5.91927 98.8161 5.48054 99.3037 4.05922C99.4297 3.69181 99.6667 2.84605 100.115 2.77438C100.639 3.00565 101.27 3.65209 101.482 4.19026C101.855 5.14006 101.352 6.01568 101.073 6.89053C102.278 5.09687 102.533 4.34509 104.933 5.05809C104.147 7.58094 103.742 7.35972 101.457 7.38352C102.32 7.58544 103.341 7.73639 103.834 8.56112C104.07 8.95726 104.444 10.0886 104.217 10.5064C103.219 10.9397 101.543 10.0221 101.317 9.01837C101.232 8.64447 100.953 8.04173 101.073 7.63477C101.258 7.65641 101.317 7.79985 101.465 7.92506C101.613 8.14256 101.909 8.475 102.16 8.5754L102.169 8.48989C102.026 8.15659 101.71 7.89434 101.446 7.63477C101.349 7.39105 101.351 7.40525 101.414 7.14923C101.863 6.96635 102.351 6.6205 102.74 6.338C102.127 6.52546 101.804 6.65987 101.278 7.02356C101.148 6.99759 100.98 6.9956 100.939 6.87642C100.73 6.26529 100.735 5.84033 100.494 5.21743C100.49 5.64888 100.634 6.85608 100.469 7.07739C100.129 7.07964 99.2344 6.98963 99.0485 7.04519C99.6513 7.33514 100.181 7.16039 100.36 7.61132C99.9553 7.69406 99.603 7.83895 99.208 7.9544C97.8592 8.34873 96.9214 7.75352 96.3154 6.56865C97.936 5.14715 98.9858 5.6018 100.373 6.9602Z" fill="#00B894"/>
<path d="M100.36 7.61132C100.465 7.99725 99.9772 8.80874 99.8105 9.30225C100.343 8.65996 100.457 8.19527 100.869 7.5535C101.016 8.81402 101.242 9.81835 100.177 10.7559C99.5696 11.0695 99.2882 11.2294 98.6197 11.3649C98.0379 9.23293 98.4545 8.54797 100.36 7.61132Z" fill="#00B894"/>
<path d="M13.8364 14.0562C12.6753 10.7625 9.93278 9.03318 11.9909 5.08726C12.5227 4.06723 13.5917 1.69564 14.9375 1.68469C16.3678 2.5939 17.9298 4.76669 18.3119 6.43656C18.9859 9.38363 17.1234 11.7246 15.9188 14.1627C20.2426 9.44447 21.3232 7.35617 28.0376 10.5082C24.6164 17.5473 23.5266 16.7197 16.8245 15.7765C19.2622 16.7504 22.1863 17.6451 23.2638 20.2786C23.7813 21.5436 24.3757 25.0225 23.5235 26.1449C20.4099 26.9714 15.9061 23.5411 15.6885 20.5016C15.6072 19.3693 15.0575 17.4807 15.5889 16.3421C16.1204 16.4874 16.2286 16.9334 16.609 17.3661C16.9445 18.0683 17.6659 19.1733 18.3543 19.5783L18.4198 19.332C18.1497 18.2928 17.3391 17.3845 16.6802 16.5073C16.5041 15.7506 16.5054 15.7933 16.8037 15.0716C18.1985 14.7349 19.7819 13.9386 21.0445 13.2835C19.1674 13.5609 18.1607 13.8112 16.4607 14.6432C16.0918 14.5096 15.599 14.4291 15.5325 14.062C15.1901 12.1796 15.3929 10.9374 14.9644 9.00668C14.7598 10.2681 14.6487 13.8673 14.0673 14.4422C13.0705 14.2981 10.489 13.6377 9.91971 13.718C11.5568 14.8343 13.1873 14.5576 13.5113 15.9574C12.2883 16.0201 11.1921 16.2882 9.98403 16.4512C5.85852 17.0078 3.37541 14.8491 2.12582 11.1108C7.50265 7.66671 10.376 9.46348 13.8364 14.0562Z" fill="#00B894"/>
<path d="M13.5113 15.9574C13.6474 17.134 11.8583 19.2939 11.1512 20.6652C12.9943 19.0202 13.5343 17.71 15.0256 16.0134C14.8979 19.7698 15.1165 22.8113 11.5797 25.0842C9.66235 25.7335 8.76733 26.0769 6.74925 26.1774C5.99018 19.6763 7.51381 17.8552 13.5113 15.9574Z" fill="#00B894"/>
</svg>