<svg width="78" height="48" viewBox="0 0 78 48" fill="none" xmlns="http://www.w3.org/2000/svg">
<path d="M45.2119 30.1053C45.7103 30.2208 46.4303 30.1893 47.0489 30.3074C46.7669 30.6617 46.4809 31.0339 46.3413 31.4645C46.0303 32.4237 46.4319 33.6913 47.5537 33.9607C47.7236 34.0015 48.1418 34.0215 48.2887 33.9343C48.2248 33.7532 47.7981 33.5364 47.6555 33.3719C45.9344 31.387 49.0081 29.4397 50.8257 31.3432C50.996 31.5713 51.1254 31.8246 51.2088 32.0929C51.7022 33.7011 50.4153 35.0773 48.847 35.4728C47.9203 35.6982 46.9372 35.5615 46.1172 35.0933C45.3384 34.6635 44.7797 33.9484 44.5719 33.1156C44.2973 32.05 44.626 31.0183 45.2119 30.1053Z" fill="#345063"/>
<path d="M32.1988 30.1462L32.8232 30.1053C33.9828 31.8631 33.7722 34.1453 31.7122 35.1993C29.344 36.4111 25.8232 34.5768 26.8759 31.7569C28.2808 29.0925 32.3589 31.1948 30.1727 33.5898C30.0597 33.7137 29.7717 33.7891 29.6593 33.9485C30.5575 34.1932 31.469 33.5257 31.6813 32.6977C31.9469 31.6619 31.5282 31.0544 30.998 30.2224C31.3978 30.191 31.7981 30.1656 32.1988 30.1462Z" fill="#345063"/>
<path d="M55.9387 25.3158C56.4467 25.8634 57.005 26.3536 57.6048 26.7784C58.9917 27.7425 61.0309 28.8015 59.8635 31.2165C59.5659 31.8322 58.9648 32.1581 58.3209 32.1579C58.2494 32.1481 58.1782 32.1363 58.1074 32.1226C56.5004 31.8 56.2897 29.8955 57.664 28.9607C56.7794 28.5732 55.498 27.8574 54.7368 27.2571C55.132 26.5941 55.5422 26.0139 55.9387 25.3158Z" fill="#345063"/>
<path d="M21.9569 25.3158C22.0619 25.3805 23.075 26.9906 23.2632 27.2697C22.5757 27.8371 21.0427 28.6203 20.2378 28.9375C20.9931 29.5672 21.4667 30.3911 20.9048 31.4602C20.6939 31.8615 20.2818 32.0632 19.8717 32.1556C18.5807 32.2101 17.8406 31.2809 17.7911 29.9052C17.7302 28.2112 19.4519 27.4355 20.5198 26.6163C21.0637 26.1992 21.4669 25.8576 21.9569 25.3158Z" fill="#345063"/>
<path d="M39.0518 3.8147e-06C40.6584 0.00370809 42.2349 0.439542 43.6152 1.26172C45.2448 2.23202 46.5995 3.91204 47.2988 5.667C47.5665 6.33878 47.7408 7.07503 47.9219 7.77735C51.5546 6.72196 54.8534 7.69306 56.3721 11.4268C56.7803 12.4308 56.6827 13.5172 56.6689 14.582C57.4928 14.483 57.9992 14.1867 58.9736 14.2275C60.6985 14.2934 62.5477 14.9197 63.7529 16.1914C65.2423 17.7634 65.6707 20.2046 64.7773 22.1797C64.3318 23.1646 63.617 23.7998 62.8486 24.5264C63.5933 24.4609 64.1677 24.4039 64.7822 23.9199C65.808 23.1119 66.0935 21.8359 66.2324 20.6084C66.4645 20.6448 66.7522 20.6727 66.9893 20.7012C67.5278 20.4343 68.1121 19.9823 68.6768 19.6856C70.1818 18.8847 71.945 18.7191 73.5723 19.2275C75.5776 19.8559 77.0372 21.1381 78 23.001L77.708 22.9033C76.3841 22.471 75.6143 22.4872 74.292 22.8115C70.0658 23.8483 70.9356 27.7982 67.4717 29.5303C65.9731 30.2795 64.8583 30.2347 63.3057 29.7236C63.1564 30.7858 62.9372 31.807 62.3643 32.7275C61.5759 33.9804 60.323 34.8697 58.8799 35.1992C57.1801 35.5727 55.8722 35.0153 54.4785 34.1338C53.0961 37.2245 50.0262 39.1281 46.6289 38.3447C44.7789 37.9351 43.1742 36.7928 42.1816 35.1787C41.1533 33.5056 40.8109 31.5886 41.2588 29.6758C40.2318 30.3967 39.6983 30.9328 39.2812 32.1035C39.2177 32.2751 39.1371 32.5949 39.084 32.7813C38.6687 31.2888 38.1452 30.5301 36.8096 29.7373C37.086 30.9885 36.8881 32.4996 36.5078 33.6943C34.8339 38.9521 27.7633 40.2324 24.4434 35.7783C24.0495 35.2498 23.8062 34.7163 23.5186 34.1397C22.3727 34.6774 21.9372 35.1827 20.5078 35.292C19.1188 35.3841 17.7495 34.9232 16.6982 34.0107C15.5279 32.9867 14.8061 31.3039 14.7129 29.7695L14.5596 29.8174C13.4132 30.1755 12.4593 30.2338 11.3047 29.8731C7.68984 28.7434 7.99065 24.7338 4.79102 23.2139C3.05274 22.3881 1.73328 22.4424 0 23.0088C0.837451 21.3559 2.25736 20.0712 3.98535 19.4023C5.83983 18.7036 7.60909 18.8037 9.3916 19.7168C9.96258 20.0094 10.5239 20.4359 11.1104 20.6934L11.1768 20.7217L11.7764 20.6563C12.0098 22.1319 12.4536 23.9683 14.1465 24.3936C14.4909 24.4801 14.793 24.4675 15.1465 24.4678C13.3262 23.0094 12.3499 21.1006 12.8818 18.7344C13.2121 17.3069 14.1057 16.0737 15.3594 15.3154C15.9216 14.9684 16.4185 14.767 17.0361 14.5645C18.7872 13.9903 19.8441 14.2422 21.5488 14.6387C21.0784 11.8354 22.1216 9.39243 24.6973 8.01563C26.3936 7.10876 28.374 7.23032 30.1631 7.81348C30.5381 5.93537 30.7984 4.93338 32.0322 3.36914C33.6184 1.35828 35.6503 0.33566 38.1836 0.0459023C38.3154 0.0177136 38.9063 -0.000267999 39.0518 3.8147e-06ZM34.8164 13.9717C39.9336 12.5108 37.7119 7.27463 34.7412 7.67383C32.7678 8.00985 31.5444 9.96374 33.4424 11.4629C33.3176 11.1637 33.2242 10.9601 33.1865 10.6328C33.0234 9.21066 34.4829 8.37162 35.7246 8.93555C36.1708 9.13582 36.5145 9.51131 36.6738 9.97364C37.1237 11.2477 36.3046 12.4057 35.0889 12.7842C32.9953 13.4358 30.6859 12.4567 28.6201 13.3203C26.0642 14.2749 24.3517 16.7001 25.1113 19.4619C25.3859 20.4596 26.1281 21.3827 27.0693 21.8711C28.0133 22.3715 29.1208 22.464 30.1348 22.127C31.055 21.8206 31.6692 21.2696 32.1309 20.4238C32.4299 19.876 32.4976 18.8521 32.6416 18.6445C33.2278 18.5755 33.7194 20.4963 33.7451 20.9805C33.7938 21.9817 33.4373 22.9602 32.7559 23.6953C30.8156 25.8132 28.2136 25.1084 26.0479 23.8115C27.3491 26.2699 29.9548 26.74 32.3252 25.4912C33.4257 24.9085 34.2527 23.916 34.6279 22.7285C35.0074 21.5028 35.0024 20.175 34.3711 19.0381C33.4492 17.3783 32.305 16.7859 30.4844 16.6631C31.0758 17.3442 31.5221 17.9703 31.4336 18.9453C31.375 19.6244 31.033 20.2474 30.4912 20.6611C29.2357 21.6308 27.5355 21.249 26.6572 19.9981C25.4344 18.2561 26.2608 15.9629 27.9629 14.8848C30.9814 12.9727 35.118 14.4361 36.9775 17.29C38.1109 19.0297 38.4484 21.0925 38.0469 23.1045C37.6468 25.1566 36.4287 26.9578 34.6729 28.0928C30.846 30.6057 25.2101 29.2102 23.1699 25.1045C22.9182 24.5978 22.7079 24.092 22.4932 23.5693C21.5623 25.021 20.4776 25.8967 18.9131 26.5576C16.6797 27.5011 13.7191 27.3808 11.6787 26.0156C9.15008 24.3232 8.05814 20.3111 4.20312 21.3848C6.22796 21.939 7.06492 22.3151 8.37305 24.0557C9.4481 25.4862 10.7023 26.8147 12.3867 27.4961C13.4302 27.9416 14.6434 28.1733 15.79 28.1738C16.1159 28.1738 17.1396 27.9722 17.3545 28.0371C17.4659 28.3278 17.0756 28.9656 16.9951 29.3535C16.5536 31.4888 18.5872 33.8183 20.8242 32.8691C21.4111 32.624 21.8739 32.1509 22.1055 31.5586C22.3779 30.8457 22.2362 30.1219 21.9961 29.4277C22.6709 28.9827 23.4789 28.4627 24.2441 28.2148C25.5085 29.1334 25.8047 29.3012 27.2441 29.9512C26.9816 30.1248 26.7017 30.3014 26.4619 30.5049C25.1404 31.6266 25.103 33.5587 26.0459 34.9336C26.7111 35.9037 27.8067 36.4271 28.9414 36.624C30.1838 36.8357 31.4597 36.5457 32.4883 35.8174C34.0207 34.7118 34.5009 32.5348 33.8154 30.8281C33.6963 30.5316 33.5587 30.2384 33.4229 29.9492C35.6161 29.1869 37.2803 27.8214 38.3457 25.7246C38.617 25.1908 38.8575 24.478 39.0586 23.9014C40.2606 27.2279 41.3778 28.5365 44.6318 29.9668C44.3715 30.5228 44.1481 30.9853 44.0088 31.5898C43.5888 33.4135 44.4437 35.4737 46.2002 36.2412C46.449 36.3496 46.6747 36.4302 46.9336 36.5137C48.3749 36.8589 49.52 36.7261 50.8223 35.9844C52.4852 35.0369 53.2032 32.771 52.1475 31.1201C51.7763 30.5398 51.3994 30.288 50.8213 29.9619C51.9168 29.5028 52.8494 29.0226 53.7158 28.1934C54.8911 28.5684 55.081 28.9026 56.0352 29.4004C55.7827 30.1503 55.57 30.993 55.9619 31.6982C57.429 34.3373 60.9657 32.7558 61.1182 30.1465C61.1737 29.1942 60.879 28.8143 60.6475 27.9971C63.4105 28.3293 65.2415 28.0817 67.5918 26.3242C69.4082 24.9657 70.1657 22.6001 72.3398 21.8018C72.9786 21.5673 73.3801 21.538 73.9893 21.3838C71.5734 20.803 70.1756 21.813 68.7061 23.6602C68.115 24.4032 67.2841 25.4254 66.4775 25.9522C63.4438 27.9336 58.836 27.4477 56.4531 24.6514C56.1763 24.3081 55.9451 23.9735 55.6797 23.6387C55.058 24.8825 54.5955 25.809 53.6475 26.8623C51.2795 29.4928 47.2084 30.0474 44.084 28.4805C42.2813 27.5593 40.9152 25.9626 40.2842 24.0391C39.6415 22.0437 39.8123 19.8753 40.7588 18.0049C42.3303 14.9267 46.4166 12.9656 49.6475 14.6143C51.4771 15.5482 52.7043 17.7517 51.6338 19.6885C51.2505 20.3793 50.6028 20.8847 49.8398 21.0898C47.5502 21.7164 45.8018 19.172 47.1377 17.2725C47.2918 17.0534 47.4543 16.8466 47.6299 16.6445C46.0339 16.8385 45.2249 17.0372 44.1465 18.376C43.3908 19.314 43.0886 20.5576 43.2324 21.7529C43.3965 23.0585 44.0712 24.2459 45.1084 25.0557C46.2196 25.9085 47.6755 26.2548 49.0566 26.0645C50.0307 25.9376 50.9127 25.4225 51.501 24.6357C51.7077 24.3616 51.8275 24.1287 51.9541 23.8106C50.7099 24.6907 49.2428 25.2063 47.6826 24.9785C45.5847 24.6722 44.0606 22.6615 44.3877 20.5596C44.4751 19.9982 44.9012 18.9438 45.3945 18.6064L45.4805 18.625C45.5728 18.8239 45.6237 19.4152 45.6846 19.6865C45.9261 20.7791 46.714 21.6701 47.7686 22.0439C51.4127 23.3719 54.4296 19.3373 52.6709 16.0596C51.6247 14.1097 49.6672 13.0028 47.4619 12.9473C45.5282 12.9114 42.6324 13.6145 41.4688 11.5322C41.2269 11.0828 41.2228 10.4796 41.3887 9.99805C41.5464 9.53621 41.8854 9.15785 42.3271 8.9502C43.1813 8.53879 44.2793 8.8006 44.6924 9.70606C44.9497 10.2705 44.8422 10.8051 44.6533 11.3711C45.6541 10.6239 45.8916 9.58971 45.0967 8.6084C43.4506 6.57703 40.3469 8.13372 40.1777 10.4092C40.1196 11.2625 40.4122 12.1032 40.9883 12.7354C41.6686 13.4853 42.3819 13.7228 43.3262 13.9658C42.8834 14.2623 42.3908 14.5451 41.9766 14.8652C40.3742 16.104 39.7169 17.5534 39.1377 19.415C38.0175 16.7336 37.4646 15.4786 34.8164 13.9717ZM18.6455 17.8428C17.8284 17.9254 16.8586 18.2819 16.3672 18.9482C15.1691 20.5734 15.5769 22.5867 17.7861 22.7197C17.4764 22.5142 17.206 22.3633 16.9766 22.0654C16.239 21.1074 16.4166 20.0437 17.2617 19.2549C18.9677 18.0988 20.7381 18.9879 21.7256 20.5537C21.8882 20.8125 22.0351 21.0813 22.166 21.3574C22.1625 21.0655 22.167 20.7583 22.1338 20.4688C21.9297 18.6927 20.3464 17.7985 18.6953 17.8408L18.6455 17.8428ZM58.9082 17.8398C58.0049 17.9579 57.1156 18.3119 56.5488 19.0527C55.9567 19.8273 55.9783 20.4336 56.0254 21.3272C56.3518 20.6989 56.6377 20.0784 57.1533 19.5791C58.2795 18.4891 60.1595 18.3461 61.1982 19.6553C61.9424 20.9022 61.5326 21.8675 60.4209 22.6699C60.9464 22.618 61.6113 22.4787 61.9004 22.0195C63.3673 19.6872 61.1045 17.6464 58.9082 17.8398ZM35.5518 10.4629C35.4344 10.0519 35.0054 9.81493 34.5947 9.9336C34.1862 10.0517 33.9498 10.4777 34.0664 10.8867C34.1832 11.2954 34.6083 11.5328 35.0176 11.418C35.4292 11.3022 35.669 10.874 35.5518 10.4629ZM43.083 9.89161C42.6551 9.93085 42.3396 10.3105 42.3799 10.7383C42.4201 11.1662 42.8008 11.4798 43.2285 11.4385C43.6547 11.3972 43.9669 11.019 43.9268 10.5928C43.8866 10.1665 43.5094 9.85278 43.083 9.89161Z" fill="#345063"/>
<path d="M39.0289 34.8947C40.7218 34.9499 41.4086 36.1016 42.5131 37.2088C43.4098 38.1079 44.5971 39.1322 45.3361 40.1374C46.6025 41.8595 45.347 44.2921 43.1764 44.4658C42.417 44.5222 41.6669 44.2735 41.0971 43.7766C40.511 43.2556 40.1635 42.5241 40.1332 41.7477C40.1019 40.8956 40.4101 40.2829 40.9699 39.6736C41.2785 39.9921 41.6318 40.3155 41.9553 40.623C41.8212 40.8283 41.7061 41.0016 41.6325 41.2388C41.5028 41.6446 41.5546 42.0853 41.775 42.4513C42.7141 44.0035 45.2708 42.3391 44.0925 40.8656C43.3859 39.982 42.2226 38.9597 41.3904 38.1386C40.7 37.4574 39.9228 36.4452 38.9993 36.2839C38.8058 36.3033 38.6105 36.32 38.4276 36.3892C38.1555 36.4921 34.476 40.1478 34.1205 40.5326C33.9625 40.7035 33.7746 40.9002 33.686 41.115C33.5327 41.4871 33.5459 41.9434 33.7246 42.3039C33.8944 42.6463 34.1946 42.8879 34.5659 42.993C34.9693 43.1072 35.3933 43.037 35.7479 42.8186C36.0646 42.6234 36.3022 42.2404 36.3806 41.8846C36.4756 41.4536 36.2943 41.0192 36.0559 40.6667L36.0164 40.6091C36.3455 40.3212 36.6724 39.9882 36.9858 39.6804C38.0912 40.6028 37.997 42.3703 37.1435 43.4249C36.6719 43.9995 35.9892 44.3683 35.2431 44.4513C32.692 44.7253 31.1418 41.5781 32.9274 39.75C34.0089 38.6428 35.1497 37.5913 36.2299 36.4849C37.2262 35.4646 37.5189 34.9977 39.0289 34.8947Z" fill="#44A5F1"/>
<path d="M38.9832 43.6806C39.2092 43.8047 40.7205 45.3748 40.9421 45.6395C40.3415 46.3308 39.6963 46.9282 39.0876 47.6249C38.7973 47.5127 37.3911 45.9291 37.113 45.6229C37.696 45.0379 38.4753 44.3038 38.9832 43.6806ZM39.3113 45.3895C39.5013 45.4641 39.6589 45.4971 39.7576 45.6688C39.777 45.85 39.7975 45.7699 39.7009 45.9188C39.3922 46.0611 39.2652 45.9463 39.0349 45.746C38.8592 45.8686 38.737 45.9801 38.5291 46.0165C38.3502 45.9834 38.3614 45.9886 38.2136 45.8827L38.1833 45.7792C38.3298 45.5332 38.4915 45.5296 38.5339 45.3114C38.4462 45.142 38.5051 45.2162 38.3289 45.1005C38.0784 45.1018 38.0267 45.2216 37.8855 45.4169C37.8973 45.736 37.9186 45.9372 38.1814 46.1532C38.6255 46.5183 38.6647 46.5112 38.9988 46.9706C39.5691 46.1886 39.5905 46.4533 40.0603 45.9501C40.1197 45.7164 40.1986 45.5127 40.155 45.2821C40.0611 45.1271 39.9646 45.0714 39.7878 45.0438C39.6326 45.1557 39.4611 45.2733 39.3113 45.3895ZM38.6414 44.746C38.7689 44.8736 38.9005 44.9987 39.0183 45.1347C39.1345 44.9937 39.2671 44.8402 39.3777 44.6972L39.0291 44.3397L38.6414 44.746Z" fill="#44A5F1"/>
<path d="M38.9586 37.6316C39.1345 37.7013 40.1703 38.872 40.3684 39.0882C39.8854 39.5026 39.4644 39.9241 39.0138 40.3684C38.7373 40.2352 37.8949 39.3446 37.6316 39.0734C38.0457 38.5696 38.4887 38.0883 38.9586 37.6316Z" fill="#44A5F1"/>
<path d="M42.8431 41.105C43.1903 40.961 43.5885 41.1239 43.7352 41.47C43.8818 41.8159 43.7219 42.2155 43.377 42.3646C43.0284 42.5154 42.6237 42.3534 42.4756 42.0038C42.3273 41.6541 42.4924 41.2506 42.8431 41.105Z" fill="#44A5F1"/>
<path d="M34.8029 41.0589C35.1703 41.0092 35.5104 41.2612 35.5699 41.627C35.6295 41.9929 35.3867 42.3396 35.0225 42.409C34.7781 42.4555 34.5277 42.3656 34.3686 42.1744C34.2095 41.983 34.1668 41.7205 34.2571 41.4887C34.3473 41.2568 34.5563 41.0922 34.8029 41.0589Z" fill="#44A5F1"/>
</svg>
