<svg width="1566" height="332" viewBox="0 0 1566 332" fill="none" xmlns="http://www.w3.org/2000/svg">
<path d="M441.581 80.7527C451.921 79.935 473.5 80.3013 478.501 91.4389C505.757 152.319 532.498 213.876 557.673 275.677C572.781 312.766 513.972 329.957 504.389 288.876C503.328 284.33 497.163 272.08 495.286 265.966C483.941 266.178 472.248 266.025 460.873 266.013C442.828 266.032 423.731 266.338 405.774 265.832C401.414 276.573 397.171 287.377 392.376 297.927C378.875 327.633 329.925 308.56 341.856 277.111C350.968 253.09 362.357 230.23 372.403 206.614C383.718 179.503 395.33 152.516 407.234 125.657C411.929 115.082 416.425 103.826 421.57 93.507C425.452 85.7192 433.763 82.9721 441.581 80.7527ZM426.258 216.088L449.862 216.033L474.399 216.016C471.077 208.712 452.509 157.507 450.372 155.39C442.604 175.729 434.566 195.964 426.258 216.088Z" fill="#3ABEFF"/>
<path d="M1459.57 142.349C1479.45 140.031 1496.63 143.576 1512.82 155.439C1514.34 151.233 1516.57 147.784 1520.41 145.337C1527.16 141.026 1539.11 141.363 1546.74 143.034C1553.29 144.469 1558.98 148.258 1562.33 154.181C1564.12 157.356 1564.21 162.153 1564.41 165.735C1565.37 182.198 1565.69 289.122 1562.93 298.256C1561.46 303.077 1557.47 307.397 1553.05 309.691C1545.54 313.592 1533.34 314.149 1525.38 311.406C1518.36 308.979 1514.74 304.352 1511.68 297.894C1505.56 303.719 1494.12 309.826 1485.74 311.135C1379.02 327.822 1355.36 163.582 1459.57 142.349ZM1482.05 260.325C1522.67 252.542 1516.69 190.484 1472.58 193.787C1462.85 196.374 1456.21 200.097 1450.89 209.126C1446.11 217.434 1444.88 227.317 1447.45 236.55C1451.9 252.947 1465.16 261.98 1482.05 260.325Z" fill="#3ABEFF"/>
<path d="M1232.51 74.7213C1265.07 72.6375 1270.11 83.691 1268.91 114.479C1267.86 141.635 1270.9 171.262 1268.36 198.249C1277.31 188.483 1324.76 143.992 1333.87 139.053C1335.51 138.973 1337.16 138.92 1338.8 138.895C1355.04 138.697 1366.86 152.268 1366.43 167.973C1366.29 172.48 1364.79 176.838 1362.11 180.472C1358.16 185.901 1349.63 192.078 1344.29 196.691C1335.49 204.337 1326.78 212.079 1318.15 219.915C1327.11 229.803 1336.84 238.54 1346.14 247.988C1356.89 258.908 1372.42 268.029 1375.09 283.748C1374.56 299.884 1362.15 312.021 1346.18 312.739C1336.17 313.189 1327.08 303.126 1320.71 296.402C1306.04 280.932 1290.57 266.299 1275.74 250.999C1273.73 252.946 1271.32 254.929 1269.17 256.77C1268.91 268.345 1270.64 289.691 1266.48 299.245C1264.06 304.921 1259.34 309.292 1253.49 311.256C1245.27 314.094 1233.96 313.474 1226.07 309.447C1215.27 304.194 1215.33 294.618 1215.28 283.997C1215.15 257.687 1215.22 231.256 1215.23 204.935L1215.26 134.126C1215.27 121.128 1215.08 108.101 1215.6 95.1168C1216.05 84.1444 1222.11 77.4614 1232.51 74.7213Z" fill="#3ABEFF"/>
<path d="M761.01 142.099C763.387 141.927 765.766 141.8 768.148 141.72C779.553 141.354 793.29 147.399 794.29 159.908C796.072 182.193 794.706 206.159 794.946 228.525C793.821 252.791 811.508 268.742 835.668 255.927C859.629 243.219 845.457 192.615 848.985 169.533C850.149 161.914 849.166 155.402 854.926 149.205C864.32 139.098 886.783 139.269 897.1 147.873C906.023 155.895 904.026 175.344 903.976 186.294C903.871 200.28 903.856 214.268 903.933 228.256C903.698 244.128 906.766 287.858 901.125 299.83C898.48 305.442 893.869 309.447 887.937 311.256C880.928 313.394 867.347 313.272 860.976 309.587C856.606 307.061 852.709 303.305 851.32 298.359C851.252 298.115 851.194 297.869 851.131 297.623C849.019 297.971 841.092 304.214 838.167 305.743C818.188 316.22 790.857 314.024 772.026 302.025C736.179 279.233 741.739 234.547 741.658 197.801C741.628 183.89 739.081 162.819 746.038 150.435C748.956 145.242 755.514 143.245 761.01 142.099Z" fill="#3ABEFF"/>
<path d="M987.497 156.756C1012.51 136.818 1048.05 136.114 1073.7 156.798C1108.73 185.058 1094.68 234.839 1097.86 273.723C1098.51 292.898 1098.5 311.213 1074.74 312.694C1044.37 314.587 1043.19 296.867 1044.06 272.682C1044.4 263.487 1044.15 251.074 1044.19 241.29C1044.26 231.862 1044.7 224.124 1043.08 214.381C1038.65 187.657 1003 186.18 992.152 208.525C987.116 218.902 988.81 234.972 988.577 246.417C988.923 256.128 988.318 267.145 988.786 276.707C989.429 289.842 988.661 309.582 971.319 311.905C931.88 317.189 935.344 295.283 935.363 267.959L935.409 225.295C935.424 208.588 935.255 191.809 935.317 175.103C935.386 157.159 935.269 145.172 956.435 142.53C969.585 140.778 981.227 144.352 987.497 156.756Z" fill="#3ABEFF"/>
<path d="M637.941 156.808C638.738 156.087 639.555 155.388 640.392 154.712C655.229 142.6 669.231 141.032 689.493 142.038C723.36 143.72 737.581 171.524 712.454 196.175C700.59 206.206 687.731 194.42 676.233 193.186C652.671 190.659 641.486 205.729 639.205 226.811C638.991 244.512 639.286 262.155 639.32 280.23C640.187 296.29 636.359 310.92 617.722 312.261C599.408 313.583 585.498 308.531 585.156 287.666C584.69 252.114 584.852 216.491 584.935 180.929C584.987 158.778 583.012 143.977 609.881 142.146C623.317 141.457 632.296 143.965 637.941 156.808Z" fill="#3ABEFF"/>
<path d="M1146.23 142.322C1164.92 141.425 1182.03 142.838 1182.18 166.651C1182.45 207.913 1182.43 249.241 1181.98 290.5C1181.85 301.971 1176.29 308.584 1165.44 311.907C1157.53 313.23 1147.68 313.478 1140.36 309.815C1136.47 307.868 1131.55 303.542 1130.18 299.261C1127.54 290.968 1127.76 178.322 1128.82 163.811C1129.1 159.98 1129.57 156.672 1131.38 153.218C1134.76 146.742 1139.58 144.358 1146.23 142.322Z" fill="#3ABEFF"/>
<path d="M1150.09 79.8759C1143.75 67.97 1132.28 62.9521 1137.86 46.6955C1139.3 42.4932 1142.01 32.8197 1147.14 32C1153.13 34.6451 1160.35 42.0389 1162.77 48.1943C1167.05 59.0577 1161.29 69.0728 1158.1 79.079C1171.88 58.5637 1174.8 49.9652 1202.25 58.1203C1193.26 86.9757 1188.62 84.4454 1162.49 84.7176C1172.36 87.0271 1184.04 88.7536 1189.67 98.1866C1192.38 102.718 1196.66 115.658 1194.05 120.436C1182.65 125.392 1163.47 114.897 1160.88 103.416C1159.92 99.14 1156.73 92.2461 1158.1 87.5914C1160.21 87.8389 1160.88 89.4795 1162.59 90.9116C1164.27 93.3993 1167.67 97.2016 1170.53 98.35L1170.64 97.3719C1169 93.5597 1165.38 90.5602 1162.36 87.5914C1161.25 84.8038 1161.28 84.9661 1162 82.0379C1167.13 79.9462 1172.72 75.9905 1177.16 72.7593C1170.15 74.9035 1166.46 76.4409 1160.45 80.6005C1158.96 80.3036 1157.03 80.2808 1156.57 78.9176C1154.17 71.9278 1154.23 67.0672 1151.48 59.9427C1151.43 64.8775 1153.08 78.685 1151.19 81.2163C1147.31 81.242 1137.07 80.2125 1134.94 80.848C1141.84 84.1643 1147.9 82.1656 1149.95 87.3232C1145.31 88.2695 1141.28 89.9267 1136.77 91.2472C1121.34 95.7573 1110.61 88.9496 1103.68 75.3975C1122.22 59.1389 1134.23 64.339 1150.09 79.8759Z" fill="#00B894"/>
<path d="M1149.95 87.3232C1151.15 91.7373 1145.56 101.019 1143.66 106.663C1149.74 99.3171 1151.05 94.0022 1155.76 86.6619C1157.44 101.079 1160.04 112.566 1147.85 123.289C1140.9 126.877 1137.68 128.705 1130.04 130.255C1123.38 105.87 1128.15 98.0362 1149.95 87.3232Z" fill="#00B894"/>
<path d="M158.256 160.77C144.976 123.097 113.608 103.318 137.148 58.1862C143.231 46.5196 155.458 19.3941 170.851 19.2688C187.209 29.6681 205.075 54.5197 209.445 73.6191C217.155 107.327 195.852 134.101 182.074 161.988C231.528 108.022 243.888 84.1372 320.684 120.189C281.554 200.7 269.09 191.234 192.433 180.446C220.315 191.585 253.759 201.818 266.083 231.94C272.003 246.407 278.801 286.198 269.053 299.036C233.441 308.489 181.929 269.255 179.44 234.49C178.51 221.54 172.223 199.938 178.301 186.915C184.38 188.577 185.618 193.678 189.969 198.627C193.806 206.659 202.057 219.298 209.931 223.929L210.68 221.113C207.59 209.226 198.319 198.838 190.783 188.805C188.769 180.15 188.784 180.638 192.195 172.383C208.149 168.533 226.259 159.425 240.7 151.932C219.23 155.105 207.717 157.967 188.272 167.484C184.053 165.956 178.417 165.035 177.656 160.836C173.739 139.306 176.059 125.098 171.158 103.015C168.817 117.443 167.547 158.609 160.897 165.185C149.497 163.536 119.97 155.983 113.459 156.901C132.184 169.669 150.832 166.505 154.538 182.515C140.55 183.232 128.012 186.298 114.194 188.162C67.0082 194.53 38.6073 169.839 24.315 127.081C85.8133 87.6891 118.678 108.24 158.256 160.77Z" fill="#00B894"/>
<path d="M154.538 182.515C156.095 195.973 135.632 220.677 127.544 236.361C148.624 217.547 154.801 202.561 171.858 183.156C170.398 226.12 172.898 260.907 132.445 286.904C110.515 294.33 100.278 298.258 77.1961 299.408C68.5141 225.051 85.9408 204.221 154.538 182.515Z" fill="#00B894"/>
</svg>
