<svg width="106" height="48" viewBox="0 0 106 48" fill="none" xmlns="http://www.w3.org/2000/svg">
<path d="M49.888 30H44.596V29.568L46.054 29.406L44.398 25.266H40.348L38.908 29.1L40.51 29.568V30H36.748V29.568L38.116 29.1L42.472 17.976H43.732L48.502 29.406L49.888 29.568V30ZM44.128 24.6L42.364 20.226L40.6 24.6H44.128ZM53.2638 23.34C53.4678 22.692 53.8398 22.14 54.3798 21.684C54.9318 21.228 55.4298 21 55.8738 21C56.3298 21 56.6358 21.114 56.7918 21.342C56.9478 21.558 57.0258 21.738 57.0258 21.882C57.0258 22.374 56.8458 22.728 56.4858 22.944C56.2458 22.752 55.8858 22.656 55.4058 22.656C54.9378 22.656 54.4698 22.806 54.0018 23.106C53.5338 23.394 53.2998 23.712 53.2998 24.06V29.478L54.9198 29.586V30H49.8978V29.586L51.0858 29.496V21.81L49.6278 21.738V21.324L53.2998 21.126L53.1918 23.34H53.2638ZM60.799 27.498C60.799 28.206 60.883 28.722 61.051 29.046C61.231 29.37 61.585 29.532 62.113 29.532C62.641 29.532 63.163 29.202 63.679 28.542C64.195 27.882 64.453 27.312 64.453 26.832V21.792L63.031 21.72V21.306L66.757 21.072V29.424L68.215 29.496V29.91L64.525 30.126L64.615 28.326H64.435C63.739 29.562 62.731 30.18 61.411 30.18C59.491 30.18 58.531 29.256 58.531 27.408C58.531 25.56 58.597 23.688 58.729 21.792L57.397 21.72V21.306L60.979 21.108C60.859 23.82 60.799 25.95 60.799 27.498ZM76.027 29.478L76.135 23.772C76.135 23.064 76.045 22.548 75.865 22.224C75.685 21.9 75.325 21.738 74.785 21.738C74.245 21.738 73.717 22.062 73.201 22.71C72.697 23.346 72.433 23.898 72.409 24.366V29.478L73.759 29.586V30H68.935V29.586L70.123 29.478V21.81L68.647 21.738V21.36L72.337 21.144L72.247 22.98H72.427C72.751 22.38 73.189 21.918 73.741 21.594C74.293 21.258 74.887 21.09 75.523 21.09C77.443 21.09 78.403 22.014 78.403 23.862C78.403 25.194 78.361 27.066 78.277 29.478L79.519 29.586V30H75.163V29.586L76.027 29.478ZM85.0759 30H80.4319V29.586L81.6019 29.478V21.81L80.0539 21.72V21.342L83.9059 21.108V29.478L85.0759 29.586V30ZM84.0319 18.084C84.0319 18.444 83.8999 18.756 83.6359 19.02C83.3839 19.284 83.0659 19.416 82.6819 19.416C82.2979 19.416 81.9739 19.29 81.7099 19.038C81.4579 18.774 81.3319 18.456 81.3319 18.084C81.3319 17.7 81.4639 17.376 81.7279 17.112C81.9919 16.836 82.3099 16.698 82.6819 16.698C83.0539 16.698 83.3719 16.836 83.6359 17.112C83.8999 17.388 84.0319 17.712 84.0319 18.084ZM91.8546 21.216H95.3826V21.684L94.0506 22.026L90.7386 24.798L94.7346 29.46L95.9406 29.586V30H91.3506V29.586L92.3586 29.478L89.1906 25.842V29.46L90.1806 29.586V30H85.7166V29.586L86.8866 29.478V17.04L85.3386 16.932V16.482L89.1906 16.176V25.338L93.0246 22.026L91.8546 21.684V21.216ZM101.664 25.788C100.272 25.788 99.3963 26.154 99.0363 26.886C98.8803 27.198 98.8023 27.588 98.8023 28.056C98.8023 28.86 99.0783 29.328 99.6303 29.46C99.7143 29.484 99.8043 29.496 99.9003 29.496C100.284 29.496 100.668 29.298 101.052 28.902C101.436 28.494 101.64 27.972 101.664 27.336V25.788ZM98.7843 24.024C98.5203 24.204 98.2443 24.294 97.9563 24.294C97.6683 24.294 97.4223 24.198 97.2183 24.006C97.0143 23.814 96.9123 23.532 96.9123 23.16C96.9123 22.776 97.0263 22.434 97.2543 22.134C97.4823 21.834 97.7763 21.612 98.1363 21.468C98.8443 21.168 99.5163 21.018 100.152 21.018C101.568 21.018 102.534 21.27 103.05 21.774C103.566 22.266 103.824 23.028 103.824 24.06V29.478L105.336 29.586V29.982L101.898 30.198L101.736 28.686C101.172 29.706 100.2 30.216 98.8203 30.216C98.1963 30.216 97.6563 30.03 97.2003 29.658C96.7563 29.274 96.5343 28.74 96.5343 28.056C96.5463 27.144 97.0023 26.46 97.9023 26.004C98.8023 25.536 100.056 25.302 101.664 25.302V23.754C101.664 23.022 101.562 22.458 101.358 22.062C101.154 21.666 100.776 21.468 100.224 21.468C99.6723 21.468 99.2583 21.696 98.9823 22.152C98.8023 22.452 98.7123 22.77 98.7123 23.106C98.7123 23.442 98.7363 23.748 98.7843 24.024Z" fill="#111827"/>
<path d="M5.07895 27.3474C5.2619 27.328 5.82016 27.5317 5.95221 27.6458L5.93386 27.6695C5.704 27.6846 5.64163 27.6461 5.42949 27.5644L5.34757 27.5435L5.32413 27.5665C5.3215 27.6337 5.32824 27.6641 5.33891 27.7311C5.25444 27.8026 5.07351 27.8412 4.96212 27.8512C4.59627 27.6806 4.78596 27.4525 5.07895 27.3474Z" fill="#EB1C40"/>
<path d="M5.34686 26.7203C5.74883 26.7469 5.9241 26.9781 6.20146 27.2516C6.01861 27.1953 5.75155 27.0627 5.56713 26.9804C5.18472 26.8575 4.95713 27.0024 4.65396 27.0569L4.64258 27.006C4.7307 26.8153 5.15454 26.7397 5.34686 26.7203Z" fill="#EB1C40"/>
<path d="M9.94648 26.1278C9.99273 26.1241 9.99206 26.127 10.0368 26.1416L10.0357 26.1847C9.96756 26.2617 9.80961 26.3512 9.71689 26.4094C9.67336 26.4176 9.67403 26.4136 9.63148 26.3984L9.63086 26.3543C9.70778 26.2252 9.80957 26.1769 9.94648 26.1278Z" fill="#EB1C40"/>
<path d="M10.0408 29.1845C10.122 29.1781 10.1758 29.1679 10.2545 29.1887L10.2716 29.2238L10.2364 29.2965C10.1541 29.3039 10.0944 29.3153 10.0145 29.2949L9.99805 29.2535L10.0408 29.1845Z" fill="#EB1C40"/>
<path d="M7.30635 25.8927L7.331 25.9258C7.31716 26.0509 7.25327 26.3018 7.19238 26.412C7.07274 26.189 7.10979 26.0532 7.30635 25.8927Z" fill="#EB1C40"/>
<path d="M7.64667 26.1402C7.80944 26.2489 7.7289 26.437 7.64332 26.565C7.63135 26.5564 7.60689 26.5286 7.59551 26.5164C7.58533 26.3959 7.62162 26.2604 7.64667 26.1402Z" fill="#EB1C40"/>
<path d="M5.47461 21.2676C8.56961 21.1546 11.3333 23.1539 12.9932 25.5908C13.2755 26.0044 13.533 26.4339 13.7627 26.8779C14.3207 27.9465 14.8304 29.2751 16.0273 29.8652C16.318 30.0084 16.7489 30.022 17.0488 29.9004C17.4186 29.7502 17.5518 29.5204 17.6982 29.1826C17.322 29.3161 16.8487 29.3945 16.4902 29.1699C16.0473 28.892 16.0503 28.2918 16.3223 27.8965C16.4703 27.6791 16.7013 27.5293 16.9629 27.4814C18.0797 27.2799 18.9716 28.8523 19.5332 29.6025C20.3488 30.6921 21.0703 31.8419 22.2422 32.6133C23.3721 33.3569 24.5956 33.826 25.9658 33.581C25.6088 34.0925 25.3305 34.613 25.0293 35.1504C24.6766 35.7794 24.3507 36.7264 23.8037 37.209C22.8665 38.0356 21.309 37.7984 20.2178 37.4658C19.1792 37.1584 18.2432 36.6894 17.2852 36.206C16.6752 35.8983 16.0397 35.5524 15.4092 35.2978C14.521 34.9356 13.578 34.72 12.6182 34.6611C12.756 34.1176 12.8134 33.8477 13.0273 33.3301C12.9771 33.2448 12.841 33.0844 12.7715 32.999C12.576 32.7587 12.4962 32.6074 12.3701 32.331C12.9002 32.8746 13.5004 33.3253 14.1494 33.7246C14.6746 34.0292 15.221 34.2975 15.7285 34.626C16.045 34.8309 16.3659 35.1689 16.6914 35.3457C17.0213 35.5249 17.4272 35.7009 17.7725 35.8535C18.5693 36.1984 19.3713 36.5328 20.1777 36.8554C20.4312 36.691 20.5113 36.5301 20.6582 36.2754C20.8771 35.8958 20.5142 35.8127 20.2158 35.623C19.9322 35.4401 19.651 35.2525 19.373 35.0615C18.9911 34.8011 18.6118 34.5366 18.2354 34.2685C18.1131 34.1827 17.9903 34.0928 17.8672 34.0088C17.4058 33.6939 17.0048 33.2868 16.5908 32.914C15.8374 32.245 15.0869 31.5724 14.3408 30.8955C14.0201 30.6042 13.7205 30.3092 13.4033 30.0185C12.6887 29.3638 11.898 29.6178 11.041 29.6767C10.9498 30.5198 10.9326 31.6129 10.3418 32.3017C9.8036 32.9292 9.21549 33.4966 8.72363 34.1699C8.40888 34.6007 7.82525 35.1281 7.30371 34.6631C6.95286 34.4455 6.88898 33.7543 6.70898 33.5244C6.34361 33.0577 6.29171 33.2212 6.24609 32.5498C5.96038 32.75 5.65378 32.9449 5.44043 33.2236C5.28338 33.4288 5.24601 33.713 5.14355 33.9336C4.90824 34.4395 4.37197 35.6151 4.03516 36.0029C4.25018 35.1212 4.87318 34.4058 5.05371 33.5371C5.07995 33.4035 4.58353 32.8454 4.47559 32.7051C3.78497 31.7916 3.15879 30.8325 2.60156 29.8349C1.47376 27.7907 0.745127 25.8081 1.60156 23.5156C2.21294 21.8793 3.84894 21.3474 5.47461 21.2676ZM21.9814 36.6924C21.8271 36.844 21.565 37.0445 21.5322 37.2392C21.5433 37.3312 21.5964 37.37 21.6709 37.4287C21.6812 37.4367 21.6916 37.4444 21.7021 37.4521C21.9328 37.4934 22.155 37.5047 22.376 37.5459L22.3965 37.5273C22.2197 37.362 22.0327 37.3512 21.8711 37.2275C21.8363 37.1538 21.8208 37.155 21.8369 37.0879C21.9635 37.0725 22.5511 37.6055 22.7686 37.3135C22.7792 37.2991 22.7883 37.2831 22.7969 37.2676C22.7493 37.0405 22.4439 37.077 22.2715 36.9804C22.1681 36.9223 22.0597 36.7294 21.9814 36.6924ZM21.958 35.1582C21.6507 35.2463 21.2389 35.4773 20.9473 35.6308C20.9062 36.2422 20.8101 36.4969 20.3652 36.957C20.6577 37.0939 21.0569 37.2365 21.3672 37.3496C21.3096 37.0017 21.436 36.9464 21.6807 36.7187C21.8197 36.6054 21.9255 36.5476 22.0918 36.4765C22.2157 36.7144 22.3577 36.9964 22.6963 36.876C22.8297 36.6715 22.5447 36.134 22.3369 36.0273C22.2329 35.974 22.0958 35.9318 22.0547 35.8349C22.1838 35.6902 22.5344 35.8808 22.6768 35.9482C22.698 35.4774 22.4949 35.1072 21.958 35.1582ZM22.8438 36.5049C22.8815 36.6851 22.8688 36.9347 22.9756 37.0176C23.0451 37.0125 23.0555 37.0085 23.1201 36.9824C23.1688 36.6862 23.0933 36.653 22.8438 36.5049ZM21.748 33.4541C21.1353 33.5357 20.7375 33.8758 20.9385 34.5068C21.5648 33.9837 22.4588 34.059 22.9863 34.6719C23.1392 34.8488 23.214 35.0783 23.1934 35.3095C23.1547 35.7598 22.7895 36.0285 22.8018 36.331C23.6048 36.7115 24.5863 35.439 24.2686 34.7031C24.0289 34.1481 23.4627 33.9141 22.9248 33.7256C22.5316 33.5878 22.1755 33.4407 21.748 33.4541ZM10.7275 29.6172C10.3502 29.8716 10.0999 30.1129 9.68848 30.3711C9.68039 30.9514 9.31856 31.5562 8.90918 31.9609C8.5175 32.3481 7.68732 32.7309 7.22852 32.2412C7.15007 32.1571 7.07713 32.0686 7.00391 31.9795C6.5985 32.2198 6.19233 32.4905 6.53027 33.0127C6.73666 33.3315 6.88097 33.3506 6.99902 33.7334C7.19798 34.2945 7.54992 35.0917 8.26172 34.4092C8.64422 34.0423 8.94138 33.5715 9.29883 33.1806C9.57968 32.842 10.2837 32.1894 10.4541 31.8164C10.7487 31.1713 10.8392 30.3585 10.7744 29.6601C10.7497 29.6284 10.7595 29.6307 10.7275 29.6172ZM5.20312 25.7119C5.05007 25.8393 4.38149 26.5912 4.30859 26.7773C4.03519 27.4755 3.73917 28.2403 3.57422 28.9746C3.43795 29.5819 4.1482 29.2614 4.42383 29.1367C4.51276 29.0964 4.51234 28.9671 4.46484 28.8828C4.28167 28.7831 4.25541 28.9748 4.12598 28.9336C4.09901 28.8601 4.09899 28.8907 4.12402 28.8174C4.19538 28.7511 4.29179 28.7059 4.3916 28.7129C4.47371 28.7187 4.54934 28.7591 4.59961 28.8232C4.72682 28.9859 4.62086 29.1935 4.46582 29.2881C4.37082 29.3459 4.21486 29.3726 4.10645 29.3994C4.10947 29.5247 4.10935 29.6749 4.12012 29.7978C4.24494 29.8325 4.7278 29.8835 4.74414 29.8838C4.72628 29.9517 4.69811 29.9681 4.64355 30.0166C4.56109 30.033 4.50479 30.042 4.4248 30.0713C4.38618 30.2097 4.50451 30.2956 4.60254 30.3818C4.59933 30.5334 4.58502 30.665 4.64453 30.8076C4.89636 31.4102 5.70886 31.0597 6.12109 30.8467C6.16042 30.9449 6.20509 31.0678 6.25781 31.1572C6.3739 31.1388 6.43773 31.1266 6.5498 31.0976C6.68084 31.0638 7.01188 30.8598 7.1123 30.9004C7.07704 31.0034 6.89946 31.1343 6.79785 31.1836C6.72741 31.217 6.65542 31.2491 6.58301 31.2783C6.82841 31.5034 7.35732 32.1493 7.57227 32.2597C8.54982 32.4087 9.25851 31.4406 9.50293 30.6201C9.51668 30.574 9.49605 30.5281 9.47168 30.4902C9.37755 30.4203 9.27849 30.4118 9.16504 30.3984C8.67821 30.3412 8.01272 30.2235 7.78125 29.7441C7.71746 29.7162 7.63302 29.6807 7.58008 29.6328C7.28064 29.3611 7.20189 28.6408 7.64551 28.4629C7.86908 28.3734 8.15582 28.493 8.37207 28.5761C8.42171 28.4158 8.47315 28.2305 8.58496 28.0928C8.85094 27.7654 9.36864 27.6012 9.1123 27.0869C9.08439 27.0311 9.04262 26.9938 8.98828 26.9638C8.7502 26.9226 8.42716 27.0855 8.03613 27.0654C7.92493 27.2662 7.7208 27.694 7.54785 27.8203C7.45786 27.842 7.42236 27.8185 7.34766 27.7773C6.41647 27.2635 6.64318 26.092 5.63867 25.7978C5.50015 25.7573 5.34888 25.7089 5.20312 25.7119ZM10.8203 25.6269C10.2526 25.6703 9.59346 25.7357 9.06641 25.959C8.64596 26.1371 8.34371 26.5465 8.1084 26.9219C8.33421 26.8766 8.94432 26.6871 9.11523 26.8418C9.86064 27.5175 8.8411 27.9208 8.65039 28.334C8.34501 28.9959 8.87689 29.2889 8.01367 29.7539C8.35951 30.0665 8.99803 30.2307 9.45996 30.2666C9.66516 30.0758 9.85644 30.0653 10.1162 29.8535C10.3617 29.6664 10.6086 29.4769 10.8516 29.2861C11.2212 28.9957 11.2661 28.6334 11.3809 28.2099C11.1901 28.3238 11.0112 28.4324 10.7998 28.5469C10.5072 28.7053 10.2695 28.7418 10.002 28.9834C9.75833 29.2034 9.50656 29.6247 9.12695 29.665C9.10263 29.6676 9.0981 29.6487 9.08105 29.624C9.13269 29.5341 9.63937 29.126 9.8418 28.8828C10.4241 28.1831 10.3864 27.265 10.667 26.4414C10.7285 26.2609 10.968 25.6967 10.9619 25.6426C10.9048 25.6075 10.9044 25.6211 10.8203 25.6269ZM7.7002 28.6181C7.45247 28.864 7.39241 29.4264 7.85156 29.4199C7.94694 29.4185 8.05016 29.4346 8.14844 29.4345C8.26121 29.3249 8.3585 29.1894 8.3623 29.0263C8.36472 28.9268 8.32335 28.8304 8.24902 28.7627C8.09664 28.6233 7.89691 28.6079 7.7002 28.6181ZM5.27148 24.8926C5.07109 24.9896 4.80454 25.3122 4.87891 25.5224C4.98864 25.6039 5.11404 25.5246 5.23926 25.4795C5.60885 25.5734 5.91882 25.6506 6.21484 25.8974C6.25941 25.8149 6.27742 25.7641 6.3623 25.7187L6.39844 25.7314C6.41865 25.813 6.37709 25.8847 6.34473 25.9678C6.66999 26.6387 6.87161 27.2428 7.5 27.6826C7.53538 27.6115 7.57534 27.5348 7.60742 27.4629C7.82579 26.9884 8.11353 26.5475 8.46094 26.1543C8.0775 25.8963 7.7116 25.6622 7.23633 25.6113C7.04529 25.5909 6.6553 25.5766 6.50781 25.5019C5.85806 25.1733 6.10522 24.9655 5.27148 24.8926ZM9.2373 24.4219C8.64184 23.9675 7.7767 23.5956 7.00195 23.7041C6.2529 23.7848 5.65548 24.0428 5.26074 24.7119C5.72099 24.7552 5.91117 24.7897 6.25 25.1133C6.34051 25.1996 6.47021 25.2825 6.58984 25.3261C6.82243 25.411 7.07553 25.4113 7.32129 25.4394C7.71905 25.4851 8.1108 25.7023 8.43945 25.9189C8.51725 25.9687 8.54242 26.0026 8.62402 26.0058C8.7489 25.9141 8.82771 25.8392 8.97168 25.7783C9.3324 25.6257 9.66553 25.5625 10.0527 25.5146C9.84775 25.0469 9.65907 24.7437 9.2373 24.4219ZM8.90527 22.7851C8.44719 22.9053 8.11988 23.1218 7.96191 23.5732C8.55088 23.7886 8.76698 23.8671 9.28125 24.2256C9.44466 24.3526 9.5408 24.4399 9.68945 24.584C9.9392 23.9236 9.87044 22.7237 8.90527 22.7851Z" fill="#EB1C40"/>
<path d="M10.6543 10.6725C11.7647 10.5068 13.2197 11.1221 14.1055 11.7262C15.3143 12.5506 15.7279 12.8174 17.1895 12.9332C17.1854 13.0157 17.1825 13.0986 17.1816 13.1813C17.1785 13.8515 17.3841 14.516 17.8701 15.0016C17.5702 15.4736 17.746 16.1611 17.8711 16.6715C17.7979 16.7402 17.5699 16.9617 17.5791 17.0621C17.637 17.5391 18.0728 17.9802 18.2354 18.4069C18.5322 19.1863 18.5317 19.6805 19.4619 19.9264C19.492 20.7617 19.6887 21.4015 20.2119 22.0719C20.8059 22.8329 21.4434 23.1296 22.2979 23.5387C22.4882 23.8161 21.505 25.4265 21.3447 25.7877C20.8113 26.9909 20.396 28.1932 20.2354 29.5016C19.721 28.6946 18.4684 27.2095 17.4883 26.9733C17.0522 26.8694 16.5913 26.9443 16.2129 27.1813C15.6998 27.4981 15.428 28.0291 15.2959 28.5905C14.6109 27.7583 14.2337 26.2941 13.5635 25.3219C11.9534 22.9865 9.98139 21.5547 7.16211 20.941C7.08287 20.9263 7.00325 20.9119 6.92383 20.8981C5.15888 20.5923 3.84841 20.6835 2.36621 21.7047C2.74104 21.1193 2.99071 20.4861 3.31055 19.8756C3.65023 19.2273 4.05391 18.5832 4.44043 17.9596C4.49967 18.0332 4.59548 18.1224 4.66504 18.191C4.73682 18.7469 4.85836 18.9418 5.45117 18.8932C5.72177 19.2913 5.9543 19.325 6.39648 19.1832C6.47981 19.6664 6.69846 19.6835 7.14648 19.692C7.38894 20.1555 7.31994 20.1802 7.87793 20.2838C8.38186 20.8006 8.75523 20.3991 8.80957 19.819C9.29497 19.6185 9.2497 19.516 9.24023 19.028C9.32165 18.9266 9.35146 18.8768 9.41602 18.7633C9.417 18.6529 9.38073 18.4385 9.36426 18.3219C9.57718 18.1437 9.61817 18.1047 9.66895 17.8336C9.98232 17.6742 10.045 17.6455 10.0469 17.2858C10.8237 16.8295 9.74254 16.1275 9.35254 15.8737C9.1854 15.7648 8.90161 15.5359 8.6875 15.5817L8.68066 15.611C8.79307 15.7229 8.94373 15.7165 9.08887 15.8551C9.20592 15.967 9.3096 16.2464 9.42285 16.3112C9.60224 16.3724 9.72316 16.3375 9.89453 16.4479C10.0456 16.5453 10.1507 16.8384 10.0527 16.9987C10.0146 17.061 9.85341 17.0775 9.77441 17.0895C9.97591 17.6091 9.75544 17.7745 9.2627 17.5221C9.38986 17.8488 9.51168 18.0272 9.0918 18.1285C8.76756 18.0536 8.76345 18.0445 8.62598 17.7487C8.27313 17.8099 8.20886 17.6424 8.14355 17.3502C7.60739 17.2177 7.57182 17.1432 7.3916 16.6354C7.59631 16.4173 7.60355 16.3761 7.61328 16.0856C8.45734 15.5376 7.78932 14.9926 7.9873 14.8073C8.21561 14.812 8.26377 14.9878 8.34863 15.1617C8.45728 15.1809 8.53965 15.2235 8.62598 15.191C8.68008 14.7847 7.94542 14.6467 7.71484 14.5192C7.49654 14.3984 7.24195 14.1147 7.08301 13.9205C7.34982 13.5407 7.57626 13.2223 7.65527 13.1031C8.39387 11.9884 9.22742 10.8939 10.6543 10.6725ZM13.2959 22.8278C13.7372 23.1468 14.0428 23.3575 14.1973 23.8961C14.2106 23.9409 14.3916 24.1336 14.4297 24.1842C14.7295 24.5827 15.21 24.8806 15.7305 24.8278C16.1224 24.7878 16.3808 24.3723 16.6182 24.111C16.6759 24.047 16.8261 23.9434 16.9062 23.8873C16.9353 23.7424 16.9446 23.6661 17.043 23.5504C17.2784 23.2741 17.7905 23.1862 18.0879 23.4088C18.1343 23.4436 18.2219 23.5377 18.2656 23.5826C18.8859 23.435 19.3631 23.4474 19.5352 24.1461C19.5417 24.1727 19.5477 24.1994 19.5537 24.2262C20.047 24.2369 20.8005 24.3999 20.1904 25.0631C20.0704 25.1934 19.8627 25.2699 19.6934 25.3248L19.498 25.2428C19.2129 25.4919 18.936 25.7399 18.5273 25.7164C18.1076 25.6921 17.8351 25.4406 17.627 25.1071C17.7953 24.0589 18.9829 24.6264 18.4395 24.9274C18.4046 24.9463 18.3689 24.9639 18.333 24.9811L18.334 25.0084C18.535 25.19 18.7978 24.939 18.792 24.7164C18.6336 24.3334 18.303 24.1643 17.9004 24.3219C17.6919 24.4038 17.5252 24.565 17.4375 24.7682C17.1917 25.3424 17.6968 25.6538 18.166 25.8297C18.4178 25.9241 18.8259 25.9781 19.04 25.8492C19.3924 25.6466 19.4003 25.5515 19.8115 25.5436C19.9945 25.5401 20.5237 25.0752 20.5713 24.8766C20.7047 24.3196 20.3275 24.1826 19.8975 24.1295C19.7034 23.7917 19.5541 23.3654 19.1494 23.2653C18.8725 23.1968 18.5823 23.2325 18.3096 23.2926C17.5954 22.8462 17.1135 23.104 16.6621 23.6901C16.5872 23.787 16.4064 23.9069 16.3223 24.0065C15.948 24.4923 15.4321 24.5256 14.9062 24.2028C14.3903 23.8858 14.1562 23.1844 13.5645 22.9274C13.4839 22.8895 13.3872 22.8328 13.2959 22.8278ZM15.0488 21.942C14.1836 22.1316 14.0657 22.9527 14.7705 23.3805C15.0427 23.5465 15.3719 23.5969 15.6826 23.5201C16.0523 23.431 16.4139 23.0431 16.71 22.7799C16.5926 22.823 16.4375 22.8751 16.3271 22.9264C15.9712 23.1022 15.5975 23.3693 15.2031 23.2301C15.048 23.1754 14.9108 23.109 14.8359 22.9557C14.7874 22.8575 14.7808 22.7439 14.8184 22.6412C14.9125 22.3873 15.2288 22.3178 15.4727 22.3678C15.6457 22.4033 15.5084 22.6334 15.5791 22.7115C15.9391 22.6764 15.9723 21.9007 15.0488 21.942ZM15.8389 18.6891C15.4761 18.7249 15.3566 18.8455 15.1846 19.152C14.4213 18.9291 14.0129 19.4591 13.7539 20.0826C13.2148 20.1367 13.3076 20.1516 12.7393 20.0367C13.0673 20.3738 13.4409 20.8316 13.8955 20.9781C14.0789 21.0372 14.3361 21.0304 14.5205 21.1031C14.8446 21.2599 15.0399 21.4301 15.4268 21.4313C16.0101 21.4331 16.5394 21.2607 16.5635 20.5865C16.5904 19.8311 15.7947 19.7245 15.3037 20.151C14.9299 20.4758 15.5823 20.8117 15.8857 20.7457C15.9861 20.7358 15.9887 20.7324 16.0518 20.6744L16.0557 20.6246H16.0303C15.8703 20.6234 15.5874 20.5576 15.5273 20.3932C15.6275 19.9498 16.5326 20.0589 16.3564 20.6969C16.3175 20.838 16.2214 20.9579 16.0908 21.028C15.5777 21.3054 14.8527 21.0926 14.4355 20.8268C14.3042 20.7434 13.7769 20.853 13.6748 20.5875C13.6327 20.5161 13.6149 20.3522 13.7246 20.3317C13.8146 20.3148 13.925 20.3153 13.9658 20.2174C14.092 19.8402 14.0607 19.6251 14.501 19.4459C14.8376 19.3584 14.9509 19.3937 15.2803 19.3864C15.6363 18.8377 16.0426 18.7517 16.5664 19.1754C17.1064 19.1617 17.4397 19.238 17.6299 19.7887C17.9425 19.9231 18.4862 20.1172 18.2637 20.5729C18.0182 21.0754 16.7905 20.9535 17.0312 21.7565C17.0922 21.969 17.2548 22.124 17.4521 22.2184C18.1192 22.5371 18.6831 22.1835 19.3828 22.5895C19.6378 22.7374 19.6492 22.7665 19.8799 22.9469C19.6097 22.5545 19.3474 22.2485 18.8379 22.1744C18.7153 22.1567 18.4155 22.1049 18.2734 22.1168C17.9623 22.1429 17.2264 21.9141 17.5537 21.4811C17.7912 21.1673 18.5597 20.9786 18.584 20.4664C18.6419 19.9616 18.1574 19.7811 17.8193 19.5299C17.3717 19.1506 17.3701 18.8532 16.6787 19.0065C16.423 18.7549 16.2354 18.6874 15.876 18.6881C15.8636 18.6881 15.8512 18.6888 15.8389 18.6891ZM11.2412 11.8463C11.2267 12.1172 11.1489 12.5088 11.2021 12.7633C11.2637 13.0574 11.5791 13.1966 11.7305 13.4528C12.0544 14.0013 12.1746 14.5965 12.293 15.2067C12.2913 15.2061 12.2897 15.2053 12.2881 15.2047C11.771 14.1043 11.6126 14.3707 10.5859 13.9674C11.2658 14.812 11.2099 14.8534 12.2881 15.2047C12.2909 15.2106 12.2941 15.2163 12.2969 15.2223C12.2959 15.217 12.294 15.2119 12.293 15.2067C12.2946 15.2072 12.2962 15.2081 12.2979 15.2086C12.4043 15.6065 12.4675 16.0719 12.4893 16.4821C11.9978 15.7547 11.4398 15.7951 10.6592 15.5553C11.2463 16.2505 11.5059 16.5661 12.4326 16.7662C12.4609 18.6322 11.8161 19.7414 10.1416 20.6119C10.022 20.6756 9.93401 20.722 9.82129 20.7994C9.92379 20.7649 10.0693 20.7201 10.1641 20.6764C11.168 20.3937 11.6637 19.8473 12.1631 19.0055C13.1255 19.0164 13.3962 18.8521 14.1123 18.2594C13.4245 18.4427 13.0616 18.0313 12.293 18.7155C12.5627 17.9596 12.5866 17.5202 12.6562 16.7233C13.4909 16.4099 13.7148 15.8496 13.959 15.0631C13.1221 15.5898 13.0085 15.4853 12.6494 16.4313C12.5689 15.947 12.5177 15.483 12.4287 14.9821C13.2822 14.4648 13.2844 14.27 13.4648 13.3356C12.8452 14.0181 12.7346 13.8768 12.416 14.8619C12.2385 14.3604 12.0974 13.8109 11.916 13.3053C11.852 13.126 11.9286 12.8361 11.8154 12.6227C11.6606 12.3312 11.4497 12.0986 11.2412 11.8463ZM15.9463 16.3121C15.7841 16.3649 15.7389 16.3959 15.5947 16.4879C15.4209 16.3435 15.2909 16.318 15.1582 16.5172C14.8554 16.9718 15.0289 17.3823 15.4238 17.6783C16.0116 18.1189 16.5792 18.0159 17.1963 18.3444C17.4247 18.4697 17.5595 18.6616 17.7441 18.8151C17.4934 18.1227 16.7952 17.951 16.1963 17.7184C15.7272 17.5361 15.3805 17.3114 15.5205 16.7985C15.5309 16.7603 15.5789 16.7216 15.6191 16.7125C15.8679 16.6598 16.0656 16.9405 16.2744 16.8375C16.4159 16.6173 16.2079 16.3244 15.9463 16.3121ZM10.9756 17.2389C11.318 17.6769 11.526 17.8454 12.0684 17.985C11.8469 17.5308 11.6221 17.4628 11.1484 17.2926C11.0929 17.2727 11.0338 17.2492 10.9756 17.2389ZM8.51172 16.318C8.04865 16.4411 8.18402 16.9646 8.60547 17.0182C8.8206 16.9494 8.97853 16.7839 8.88281 16.5504C8.84631 16.4618 8.77569 16.3912 8.68652 16.3531C8.63906 16.3335 8.56402 16.3228 8.51172 16.318ZM7.08008 13.9244C7.29634 14.4987 8.05473 14.9283 7.80176 15.5953C7.67721 15.9233 7.4758 15.8543 7.21094 15.7428C7.27874 15.9593 7.38668 16.1977 7.24023 16.4117C7.18996 16.4864 7.11091 16.5381 7.02148 16.5553C6.78162 16.6037 6.50186 16.454 6.35449 16.275C6.24891 16.1468 6.24253 16.0506 6.21387 15.8922C6.10404 15.8911 5.9291 15.9061 5.85254 15.8326C5.86113 15.6764 6.54939 14.68 7.08008 13.9244ZM7.04785 15.0641C6.98246 14.9075 6.80064 14.8316 6.64062 14.8942C6.47844 14.9577 6.40065 15.1396 6.4668 15.2985C6.53306 15.4572 6.71799 15.5328 6.87891 15.4664C7.03779 15.4007 7.11316 15.2209 7.04785 15.0641ZM7.08301 13.9205C7.08207 13.9219 7.08101 13.9231 7.08008 13.9244C7.07822 13.9195 7.07599 13.9147 7.07422 13.9098C7.07711 13.9133 7.08005 13.9169 7.08301 13.9205Z" fill="#F9A90D"/>
<path d="M27.6455 32.0311C27.6559 32.0612 27.6607 32.0741 27.658 32.1077C27.5991 32.8437 27.3666 33.626 26.9952 34.2674C26.8038 34.598 26.5685 34.9075 26.4441 35.2631C25.8726 36.8973 25.9496 38.5096 24.6033 39.7986C22.9724 41.3599 21.0149 40.8865 18.957 40.8134C18.4113 40.8012 17.6571 40.8909 17.2681 41.3073C16.8722 41.7312 16.6687 42.5224 16.4668 43.0623C16.347 43.3913 16.2095 43.714 16.055 44.0288C15.3859 45.4047 14.5572 46.3937 13.4428 47.4274C14.3098 45.9563 14.8224 44.1183 14.9671 42.4344C14.9947 42.1128 14.988 41.7098 14.8964 41.4013C14.6692 40.6356 13.766 40.4118 13.056 40.3207C12.2024 40.2112 11.3158 40.2237 10.4564 40.2708C10.1076 40.2899 9.7134 40.2979 9.3701 40.3546C9.4884 40.2826 9.6076 40.212 9.72765 40.1428C11.2968 39.2515 13.2848 38.9497 15.0622 39.2509C17.7009 39.698 20.3521 41.1903 22.9322 39.7141C23.0146 39.6715 23.0893 39.6186 23.1665 39.5673C20.8153 40.3212 18.0984 38.8886 15.8559 38.2664C13.0656 37.4923 11.0241 38.0634 8.47684 39.1832C7.63068 39.5552 6.23215 40.0481 5.31872 39.6619C4.92992 39.4987 4.62497 39.1877 4.47336 38.7999C3.92013 37.4192 5.38211 36.3436 6.52046 35.9625C7.15858 35.7489 7.69506 35.5904 8.34523 35.4474C10.7808 34.9057 13.2571 35.0089 15.5702 35.9847C17.7078 36.8704 19.5066 38.2627 21.9134 38.3951C23.8939 38.5041 24.2653 37.6358 25.0168 36.1142C25.2483 35.64 25.5043 35.1777 25.7836 34.7291C26.432 33.7004 27.129 33.1944 27.6455 32.0311Z" fill="#1DB9BE"/>
<path d="M13.1387 0.892296C13.7012 0.864089 13.878 1.21641 14.2451 1.26925C15.0607 1.3865 15.284 1.27231 15.9463 1.92745C17.5037 3.46842 18.7978 5.20832 20.1074 6.95187C20.6401 7.65625 21.163 8.36785 21.6768 9.08566C21.9217 9.43156 22.2273 9.85585 22.4414 10.2107C21.6599 10.1682 20.8713 10.4573 20.1816 10.7868C19.8991 10.9218 19.6563 11.1806 19.3242 11.0564C19.0139 10.9402 18.8193 10.4442 18.6836 10.1667C18.0729 10.4167 17.7715 10.9294 17.5244 11.4919C17.372 11.8748 17.3161 12.0653 17.2305 12.4685C15.9575 12.4022 15.2924 11.9595 14.2549 11.2673C13.5192 10.7765 12.6201 10.322 11.7412 10.1511C10.6534 9.93969 9.84532 10.3401 8.96973 10.9401C9.27999 10.571 9.66764 9.8597 9.90625 9.42355C10.9851 7.45139 11.9956 5.15639 12.5801 2.98507C12.6721 2.64095 12.7415 2.29115 12.7871 1.93819C12.8196 1.68409 12.833 1.41616 12.8926 1.16866C12.9314 1.00734 13.001 0.968661 13.1387 0.892296ZM17.502 5.62081C17.7518 6.00586 17.9995 6.39088 18.2295 6.7878C18.5514 7.34323 20.0031 10.1335 20.4727 10.2478C20.5004 10.2545 20.5292 10.2565 20.5576 10.2575C20.643 9.4561 18.7657 7.0302 18.2402 6.36886C18.1331 6.23411 17.6514 5.69024 17.502 5.62081Z" fill="#1C6847"/>
<path d="M18.5698 11.8568C18.8804 11.8627 19.1348 12.0947 18.7977 12.31C18.4891 12.3692 18.2782 12.0774 18.5698 11.8568Z" fill="white"/>
<path d="M18.5439 10.8965C18.571 10.9213 18.6611 11.1386 18.6807 11.1836C18.9504 11.8025 19.5509 12.0521 20.1621 12.2607C20.9813 12.5404 21.2627 13.0566 21.6006 13.7764C21.697 13.5675 21.803 13.3448 21.9902 13.1992C22.5183 12.7888 23.2098 12.8014 23.8291 12.8525C24.2132 13.5515 24.5872 14.335 24.9492 15.0518C24.7432 15.1782 24.671 15.2805 24.5225 15.4648C24.201 15.1442 24.0247 14.9621 23.5713 14.8359C23.4694 14.9566 23.3511 15.1308 23.1924 15.1533C22.9431 15.0587 23.0527 14.62 22.9287 14.502C22.8051 14.5587 22.6942 14.8533 22.5361 14.8867C21.8101 15.0396 22.2009 14.0953 21.3535 14.5068C20.7366 13.8522 20.404 13.5818 19.4893 13.4043C20.1328 13.8989 20.6031 13.8844 21.043 14.6777C20.885 14.798 20.8019 14.8335 20.6123 14.8945C20.1358 14.7291 19.6815 14.19 19.1123 14.4688L19.1084 14.5C19.1836 14.553 19.2895 14.5662 19.3779 14.5938C20.0942 14.8169 20.3124 15.2353 20.3174 15.9258C19.7257 15.6992 19.404 15.6402 18.8018 15.875C19.2168 15.8954 19.432 15.8933 19.834 16.0488C20.0558 16.1347 20.4285 16.4332 20.5928 16.4492C20.6888 16.3644 20.6679 16.0185 20.6738 15.8877C20.7329 15.8118 20.7837 15.7323 20.8369 15.6523C20.8438 15.5501 20.8428 15.4356 20.8438 15.332C21.2555 15.1901 21.3733 15.1205 21.7051 14.8574C21.9549 15.3107 22.3813 15.2325 22.8359 15.2012C23.1407 15.4856 23.4118 15.5084 23.7646 15.2969C24.0179 15.4853 24.1435 15.6566 24.2959 15.9326C24.3718 16.0703 24.4521 16.375 24.5605 16.459C24.692 16.4043 24.762 15.671 24.9102 15.5273C24.9649 15.4744 25.0144 15.4127 25.0801 15.3564L25.6357 16.5059C25.4854 16.7709 25.4078 16.9662 25.3574 17.2637C24.7191 16.9404 24.3379 17.0428 23.7158 17.3262C23.7002 17.1167 23.6365 16.9136 23.5303 16.7314C23.2102 16.1818 22.5281 16.0165 21.9805 16.3379C21.6942 16.5087 21.4895 16.7857 21.4141 17.1064C21.2361 17.8323 21.8956 18.1639 22.501 18.3027L22.4385 18.7168C22.4333 18.9122 22.4436 18.9897 22.4775 19.1768C21.6564 19.5126 21.0471 18.7816 20.7607 18.958C20.6845 19.0853 20.7361 19.2289 20.7607 19.3633C20.8829 20.0315 21.4791 20.4538 22.0576 20.79C21.925 21.1863 21.787 21.5398 21.6348 21.9307C22.1559 21.6351 22.6252 21.3432 22.8799 20.7812C24.1399 21.0812 24.9398 21.1316 26.2236 20.8027C26.631 21.3591 26.9435 21.6249 27.5352 21.9736C27.3974 21.6186 27.2032 21.2429 27.1113 20.8701C27.0969 20.8111 27.1321 20.7874 27.167 20.7471C27.2004 20.7436 27.2135 20.7362 27.2441 20.7529C27.4449 20.8627 27.7559 22.1243 27.8418 22.4111C27.513 22.7739 27.0939 23.2031 26.7295 23.5176C25.5158 24.5651 23.0559 26.1634 21.5059 26.5576C21.6891 26.1021 21.912 25.6627 22.1709 25.2441C22.5392 24.6551 23.0928 24.0333 22.5938 23.2598C22.5114 23.1321 22.0716 22.8655 21.9209 22.7842C20.3002 21.9098 19.4616 20.2691 20.2695 18.5479C20.3741 18.4944 20.5299 18.4319 20.5898 18.3408C20.6348 18.2014 20.5054 18.0178 20.4502 17.8838C20.282 17.4753 20.1909 16.9482 19.7295 16.7559C19.2426 16.5484 18.4802 16.9378 18.1963 16.3125C18.0025 15.8854 18.1318 15.4032 18.2939 14.998C18.1961 14.8092 18.0109 14.5762 17.8887 14.3545C17.684 13.9833 17.5287 13.3653 17.6982 12.958C17.7824 12.7804 17.9465 12.5816 17.9785 12.3848C18.0664 11.845 17.9625 11.1952 18.5439 10.8965ZM22.7969 22.416C22.8955 22.7408 23.4084 23.1762 23.708 23.3379C24.1263 23.5677 24.6209 23.6236 25.0811 23.4922C25.5336 23.3615 25.9327 23.0635 26.1621 22.6562C26.1949 22.5833 26.2259 22.5482 26.2168 22.4795C26.1252 22.5272 25.9434 22.7263 25.8574 22.8037C25.1185 23.4681 24.137 23.4535 23.3672 22.8506C23.1881 22.7103 23.0163 22.4552 22.7969 22.416ZM22.959 21.252C22.9082 21.296 22.8382 21.3491 22.833 21.4209C22.8287 21.4806 22.848 21.5314 22.8916 21.5732C23.1701 21.8402 24.7897 21.8599 25.1855 21.8262C25.4078 21.8072 26.0579 21.7768 26.2012 21.6006C26.2309 21.5641 26.2408 21.5214 26.2334 21.4766C26.2219 21.4075 26.1756 21.3518 26.1279 21.3018C25.9836 21.3053 25.9751 21.3284 25.8594 21.417C25.6008 21.3507 25.6401 21.3119 25.415 21.498C25.3437 21.4781 25.2942 21.4478 25.2217 21.4238C25.1682 21.4062 24.8802 21.5342 24.8555 21.5273C24.6014 21.4492 24.6364 21.3226 24.3662 21.5234C24.2472 21.4903 24.2413 21.3962 24.1025 21.3896C24.016 21.3861 23.7904 21.5233 23.752 21.4941C23.5425 21.3353 23.5444 21.2588 23.3027 21.416L23.2832 21.4287C23.2075 21.3752 23.1972 21.3576 23.1455 21.2842C23.0748 21.2471 23.0374 21.252 22.959 21.252ZM20.8848 20.3809C20.9453 20.6527 21.1018 21.2097 21.4961 21.1143C21.5 21.0336 21.5053 20.9917 21.4424 20.9287C21.3058 20.7921 21.0528 20.4581 20.8848 20.3809ZM20.167 12.8662C20.1149 12.8845 20.0772 12.9304 20.0703 12.9844C20.0635 13.0383 20.0888 13.0918 20.1348 13.1221C20.1807 13.1522 20.24 13.1545 20.2881 13.1279C20.3544 13.0912 20.3812 13.0105 20.3496 12.9424C20.318 12.8744 20.2386 12.8412 20.167 12.8662ZM18.5771 12.7275C18.3722 12.9374 18.4793 13.1389 18.7617 13.124C18.7953 13.1221 18.8288 13.1193 18.8623 13.1162C19.1175 12.8802 18.8396 12.6994 18.5771 12.7275ZM19.4092 12.5352C19.198 12.7125 19.2603 12.968 19.5273 12.9902C19.7356 12.8154 19.6549 12.6144 19.4092 12.5352Z" fill="#1C6847"/>
<path d="M27.9066 22.7981L27.9364 22.8141C28.1059 23.3337 28.2594 23.9434 28.4061 24.4771C29.0114 26.6804 29.4723 28.9639 28.7096 31.1933C28.7014 31.146 28.6923 31.0989 28.6824 31.0519C28.4421 29.9245 27.1323 29.1787 25.9968 29.4315C25.2743 29.5922 24.6631 30.23 24.8121 31.0087C24.8777 31.3518 25.1904 31.603 25.4839 31.7776C24.8314 30.8462 25.798 29.962 26.612 30.4563C26.8534 30.603 27.0242 30.8393 27.0856 31.1115C27.1727 31.5008 27.0451 31.8321 26.8373 32.1546C26.6963 32.3322 26.4889 32.5389 26.2075 32.6698C24.1985 33.605 21.699 31.7829 20.6834 30.2192C20.4011 29.7847 21.1257 27.6222 21.3739 26.9049C21.8093 26.8239 22.3447 26.5724 22.7441 26.3785C24.6349 25.4412 26.3745 24.2348 27.9066 22.7981Z" fill="#1C6847"/>
<path d="M24.8779 18C25.0747 18.0154 25.5245 18.3016 25.6631 18.4395C25.7073 18.4835 25.7844 18.6336 25.8154 18.6934C26.0332 18.7273 26.1755 18.7532 26.3457 18.9033C26.5006 19.0428 26.5916 19.238 26.5977 19.4443C26.6082 19.6818 26.5191 19.9135 26.3506 20.084C25.9783 20.4656 25.2597 20.3964 24.7314 20.4033C24.3573 20.4021 23.8004 20.4329 23.4814 20.2588C23.2611 20.139 23.0994 19.9366 23.0312 19.6982C22.975 19.4997 22.9942 19.2941 23.0996 19.1143C23.2645 18.8331 23.5524 18.8135 23.8525 18.7383C23.9509 18.2378 24.4039 18.0584 24.8779 18ZM23.7715 19.6348C23.7112 19.6825 23.6781 19.6997 23.6611 19.7754C23.6868 19.9159 23.7647 19.946 23.9033 19.9697C23.9661 19.9212 23.9936 19.9068 24.0117 19.8301C23.9858 19.6883 23.9118 19.6586 23.7715 19.6348ZM25.627 19.6504C25.5898 19.7282 25.576 19.7476 25.5879 19.834C25.6638 19.9602 25.7475 19.9543 25.8857 19.915C25.9444 19.8231 25.9388 19.859 25.9258 19.7725C25.8621 19.6866 25.7537 19.6685 25.6514 19.6533L25.627 19.6504Z" fill="#1C6847"/>
<path d="M7.33301 16.9785C7.42268 17.0216 7.51153 17.269 7.66797 17.3438C7.77502 17.3948 7.8555 17.4181 7.96777 17.4541C8.06818 17.8156 8.1326 17.8555 8.49512 17.9424C8.66967 18.2734 8.83114 18.2428 9.1748 18.291C9.18721 18.4468 9.22566 18.6203 9.13281 18.7432C9.01103 18.8017 9.06307 18.7426 8.92285 18.7598C8.88557 18.9255 9.03607 19.1746 8.96875 19.373C8.86781 19.6704 8.41512 19.5639 8.18164 19.501C8.40874 19.6838 8.56326 19.751 8.57031 20.0596C8.34138 20.6235 8.02392 20.1206 7.58691 20.0811C7.43312 20.0664 7.32543 19.6916 7.25879 19.5371C7.01566 19.5349 6.92698 19.5415 6.70117 19.4404C6.62385 19.2956 6.54409 19.152 6.46191 19.0098C6.55589 18.7821 6.60318 18.5788 6.65527 18.3389C7.10766 18.1287 7.06639 17.9898 7.05469 17.5312C7.19929 17.3333 7.24323 17.2035 7.33301 16.9785ZM8.14648 18.7627C8.07921 18.6034 7.89324 18.5272 7.73047 18.5918C7.56599 18.6573 7.48693 18.8417 7.55469 19.0029C7.62281 19.1643 7.81204 19.2402 7.97559 19.1719C8.13691 19.1043 8.21343 18.9219 8.14648 18.7627Z" fill="#F9A90D"/>
<path d="M5.87207 16.1494L6.09375 16.0723C6.19313 16.6418 6.53318 16.8104 7.10059 16.8047C7.09261 16.9041 7.07979 17.0399 7.05371 17.1348C6.99313 17.3544 6.9141 17.2531 6.79102 17.3213C6.74887 17.6482 7.25648 18.2791 6.31055 17.9658C6.47216 18.3589 6.50463 18.6053 6.2627 18.9873C5.95931 19.231 5.70782 19.0051 5.55859 18.7354C4.87635 18.756 4.75779 18.465 4.875 17.8584L4.57715 17.7383C4.82331 17.2938 5.3699 16.4876 5.66699 16.0498L5.87207 16.1494ZM5.47363 17.5098C5.02885 17.6275 5.16368 18.1277 5.61035 18.1426C5.71216 18.0954 5.7856 18.0538 5.83008 17.9414C5.86406 17.8566 5.85884 17.7612 5.81543 17.6807C5.77188 17.6011 5.69645 17.5429 5.60742 17.5205C5.56477 17.5097 5.51742 17.5095 5.47363 17.5098Z" fill="#F9A90D"/>
<path d="M20.999 19.225C21.0458 19.2382 21.2275 19.3234 21.283 19.3488C21.7216 19.5493 22.0081 19.6562 22.4829 19.4988C22.7394 19.7126 23.0169 19.9271 23.3488 20.0464C24.1076 20.3191 25.2162 20.2939 25.9651 19.993C26.1618 19.9139 26.3578 19.6985 26.5228 19.6001C26.5683 19.5729 26.7048 19.6162 26.893 19.5345C27.0218 19.8413 27.1557 20.2372 27.2678 20.5533L27.0123 20.4927C26.9901 20.3661 27.0117 20.2385 26.9628 20.1111C26.753 20.0332 26.5624 20.3744 26.271 20.4788C25.9744 20.5852 25.8555 20.5962 25.5517 20.6574C24.676 20.8338 23.8526 20.8155 23.0012 20.5318C22.7754 20.4567 22.618 20.2916 22.4205 20.1735C22.3532 20.1334 22.187 20.0705 22.1071 20.0394C22.127 20.2056 22.1221 20.3008 22.1154 20.4654C21.6531 20.2163 21.0758 19.7623 20.999 19.225Z" fill="#1C6847"/>
<path d="M22.4714 10.6347C22.5196 10.6342 22.5484 10.6387 22.5953 10.6448C22.7436 10.7821 23.5461 12.31 23.703 12.5965C23.5353 12.5736 23.4094 12.5561 23.2436 12.5168C22.9156 12.1268 22.4431 11.6472 21.913 11.5587C21.7773 11.536 21.3191 11.6262 21.3571 11.8125C21.4164 12.1027 21.9379 12.1209 22.1583 12.2317C22.31 12.3042 22.3651 12.3265 22.4871 12.4303L22.5092 12.4492L22.6297 12.6348C21.7971 12.8737 21.7906 12.5874 21.1105 12.2089C20.9166 12.1008 20.7094 12.0175 20.494 11.961C20.366 11.9265 19.9302 11.8253 19.8898 11.7426C19.7514 11.4592 20.6922 11.1212 20.8637 11.0544C21.1207 10.9692 21.3726 10.7679 21.6417 10.919C21.7827 10.9983 22.0193 11.3392 22.139 11.1469C22.2927 10.9 22.2053 10.809 22.4714 10.6347Z" fill="#1C6847"/>
<path d="M18.6924 16.8582C19.2233 16.8011 20.2148 17.6975 20.0576 18.2425L20.0254 18.2547C20.0054 18.2328 19.9845 18.2116 19.9627 18.1913C19.7458 17.9871 19.428 18.0027 19.149 18.011C19.3727 18.2195 19.4986 18.2491 19.7091 18.5288L19.595 18.9438C19.5449 19.1346 19.5033 19.334 19.4604 19.5271C19.4489 19.5234 19.4374 19.5195 19.4259 19.5156C18.6346 19.2407 18.8754 18.6903 18.5831 18.0871C18.4621 17.8373 17.9121 17.3523 18.0058 17.1134C18.1359 16.9719 18.5017 16.8919 18.6924 16.8582Z" fill="#1C6847"/>
<path d="M22.4502 16.4475C22.9004 16.3667 23.3328 16.6566 23.4219 17.0979C23.5107 17.5391 23.223 17.9687 22.7754 18.0627C22.4799 18.1247 22.1729 18.0254 21.9727 17.8029C21.7726 17.5805 21.7099 17.2691 21.8086 16.9885C21.9073 16.7077 22.1529 16.5009 22.4502 16.4475ZM22.4941 16.966C22.1849 17.2391 22.2671 17.7129 22.7393 17.6174C23.0728 17.3178 22.9237 16.9113 22.4941 16.966Z" fill="#1C6847"/>
<path d="M25.7637 16.9111C25.8295 16.9559 26.3473 18.0995 26.3342 18.1956C25.8128 17.8655 25.5626 17.5299 25.7637 16.9111Z" fill="#1C6847"/>
<path d="M5.83008 34.6614C5.97628 34.6842 6.59008 34.8793 6.62579 35.002C6.28195 35.1575 6.04481 34.8786 5.83008 34.6614Z" fill="#EB1C40"/>
</svg>
