<svg width="150" height="84" viewBox="0 0 150 84" fill="none" xmlns="http://www.w3.org/2000/svg">
<path d="M81.904 48.32C82.288 49.208 83.056 49.208 83.056 49.664V49.712C83.056 49.904 82.888 50 82.6 50H79.216C78.928 50 78.76 49.904 78.76 49.712V49.664C78.76 49.208 79.888 49.16 79.576 48.32L78.424 45.488H70.648L69.592 48.32C69.256 49.16 70.408 49.208 70.408 49.664V49.712C70.408 49.904 70.216 50 69.904 50H67.624C67.312 50 67.144 49.904 67.144 49.712V49.664C67.144 49.208 67.936 49.232 68.272 48.32L73.6 34.712C73.888 33.992 72.856 33.68 72.856 33.296V33.224C72.856 33.08 72.952 32.96 73.192 32.96H74.584C75.16 32.96 75.472 33.176 75.712 33.752L81.904 48.32ZM71.056 44.456H78.016L74.416 35.552L71.056 44.456ZM89.9187 38.24C91.3587 38.24 92.1267 39.08 92.1267 40.088C92.1267 40.712 91.8387 41.216 91.1667 41.216C89.9187 41.216 90.5187 39.536 89.0307 39.536C87.7107 39.536 86.9907 41.048 86.9907 42.848V48.32C86.9907 49.16 87.9987 49.184 87.9987 49.616V49.712C87.9987 49.904 87.8307 50 87.5187 50H84.5427C84.2307 50 84.0627 49.904 84.0627 49.712V49.616C84.0627 49.184 84.9507 49.16 84.9507 48.32V41.024C84.9507 40.112 83.9907 40.088 83.9907 39.632V39.584C83.9907 39.416 84.1347 39.272 84.3507 39.152L86.1747 38.336C86.6307 38.12 86.7987 38.312 86.7987 38.672V40.592C87.3267 39.056 88.4307 38.24 89.9187 38.24ZM103.859 47.936C103.859 49.688 105.203 48.944 105.203 49.64C105.203 50.048 104.723 50.144 103.715 50.144C102.635 50.144 101.915 49.712 101.963 48.368L101.915 48.224C101.219 49.496 99.9233 50.24 98.2193 50.24C95.6033 50.24 93.7793 48.32 93.7793 44.768V40.52C93.7793 39.608 92.8913 39.536 92.8913 39.128V39.056C92.8913 38.888 93.0353 38.744 93.2513 38.696L95.2673 38.336C95.6753 38.264 95.9153 38.312 95.9153 38.624L95.8913 44.936C95.8913 47.72 96.8993 49.304 98.7233 49.304C100.427 49.304 101.771 47.864 101.771 45.656V40.52C101.771 39.608 100.835 39.56 100.835 39.128V39.056C100.835 38.888 100.955 38.744 101.195 38.696L103.235 38.336C103.643 38.264 103.859 38.312 103.859 38.624V47.936ZM118.102 48.272C118.15 49.16 118.966 49.16 118.966 49.616V49.712C118.966 49.904 118.774 50.024 118.462 50.024H115.606C115.294 50.024 115.102 49.904 115.102 49.712V49.616C115.102 49.16 116.014 49.16 115.966 48.296L115.726 43.496C115.606 40.568 114.43 39.176 112.774 39.176C110.998 39.176 109.774 40.592 109.774 42.488V48.32C109.774 49.16 110.734 49.16 110.734 49.616V49.712C110.734 49.904 110.542 50.024 110.23 50.024H107.23C106.942 50.024 106.75 49.904 106.75 49.712V49.616C106.75 49.16 107.686 49.16 107.686 48.32V41.048C107.686 40.016 106.678 40.064 106.678 39.632V39.56C106.678 39.392 106.822 39.296 107.062 39.2L108.862 38.336C109.318 38.096 109.534 38.336 109.534 38.696V40.448C110.23 39.104 111.622 38.24 113.278 38.24C115.63 38.24 117.598 39.824 117.838 43.544L118.102 48.272ZM122.427 36.2C121.443 36.2 120.819 35.6 120.819 34.712C120.819 33.824 121.443 33.2 122.427 33.2C123.363 33.2 123.987 33.824 123.987 34.712C123.987 35.6 123.363 36.2 122.427 36.2ZM121.035 50C120.747 50 120.579 49.88 120.579 49.688V49.592C120.579 49.136 121.443 49.136 121.443 48.296V41.144C121.443 40.208 120.579 40.016 120.579 39.656V39.608C120.579 39.44 120.723 39.368 120.939 39.248L122.787 38.336C123.291 38.096 123.531 38.336 123.531 38.672V48.296C123.531 49.136 124.491 49.136 124.491 49.592V49.688C124.491 49.88 124.275 50 123.987 50H121.035ZM136.975 48.632C137.407 49.184 138.175 49.232 138.175 49.664V49.712C138.175 49.904 138.031 50 137.815 50H134.623C134.407 50 134.263 49.88 134.263 49.712V49.664C134.263 49.208 135.151 49.184 134.695 48.632L131.047 44.048L129.223 45.728V48.32C129.223 49.16 130.159 49.136 130.159 49.616V49.688C130.159 49.88 129.967 50 129.655 50H126.727C126.439 50 126.247 49.88 126.247 49.688V49.616C126.247 49.136 127.111 49.16 127.111 48.32V34.832C127.111 33.896 126.175 33.752 126.175 33.392V33.344C126.175 33.152 126.295 33.08 126.511 32.96L128.455 32.048C128.935 31.832 129.223 32.072 129.223 32.384V44.432L134.071 40.16C134.695 39.608 133.543 39.272 133.543 38.84V38.768C133.543 38.576 133.711 38.48 133.927 38.48H136.639C136.831 38.48 136.975 38.576 136.975 38.744V38.816C136.975 39.272 136.039 39.488 135.295 40.136L132.439 42.776L136.975 48.632ZM148.416 48.08C148.56 49.568 149.76 49.04 149.76 49.64C149.76 50 149.112 50.144 148.224 50.144C147.144 50.144 146.568 49.88 146.472 48.56C145.92 49.568 144.768 50.24 143.016 50.24C140.376 50.24 138.552 48.92 138.552 46.616C138.528 44.312 140.448 43.064 142.944 43.064C144.216 43.064 145.248 43.424 145.896 44.024L145.848 43.376C145.584 40.544 144.816 39.008 142.896 39.008C140.4 39.008 140.784 41.744 139.584 41.744C139.008 41.744 138.648 41.408 138.648 40.856C138.648 39.584 140.28 38.24 142.896 38.24C145.848 38.24 147.624 40.136 147.936 43.304L148.416 48.08ZM143.544 49.472C145.152 49.472 146.208 48.296 146.16 46.832L146.064 45.752C145.824 44.624 144.84 43.832 143.424 43.832C141.792 43.832 140.664 44.84 140.664 46.328C140.664 48.08 141.816 49.472 143.544 49.472Z" fill="white"/>
<path d="M23.7953 49.1969C23.4458 48.4315 23.0632 47.1617 22.8708 46.3433C21.9492 42.5253 22.1848 38.5193 23.5474 34.8357C24.6931 31.7651 26.6683 29.0137 29.1533 26.8915C29.6422 26.474 30.1888 26.0015 30.7189 25.6455C31.1952 26.1244 31.664 26.6106 32.1254 27.1039C30.187 28.582 28.5121 30.0893 27.1786 32.1586C27.0835 32.3063 26.9414 32.5182 26.832 32.6537C28.7348 34.5304 30.6727 36.5646 32.5932 38.3897C33.9635 37.3552 35.1745 37.2054 36.8118 36.9666C36.7814 37.7269 36.7704 38.3576 36.7946 39.1242C35.8729 39.0182 34.8071 39.3252 34.0388 39.8283C34.3424 40.1377 34.6998 40.5205 35.0181 40.8043C35.5783 40.8034 36.2657 40.8073 36.8166 40.7541C36.8365 41.3944 36.87 42.0948 36.8471 42.7309L36.799 42.7275C35.9026 42.6703 34.8864 42.9375 34.0342 42.5384C33.5507 42.3118 31.0544 39.6454 30.4547 39.044L25.8495 34.4701C25.7077 34.8854 25.4121 35.6362 25.215 36.0226L29.5212 40.3103C31.7439 42.5354 33.3005 44.729 36.7118 44.7216L43.8904 44.7157C43.9172 45.3954 43.9606 46.0743 44.0207 46.7519C43.676 46.7311 43.0278 46.7172 42.6855 46.7531C42.2737 46.7035 41.2463 46.7558 40.7965 46.769C40.1266 46.753 39.4562 46.7612 38.7868 46.7933C38.405 46.7594 37.4562 46.76 37.0901 46.7951C32.0536 46.5061 30.847 44.4621 27.4828 41.052C26.5576 40.115 25.6163 39.194 24.6595 38.2893C24.1841 41.0239 24.2523 42.752 24.7429 45.4735C25.6995 44.5386 26.645 43.5923 27.5789 42.635L28.9536 44.0466C27.9123 45.0591 26.8816 46.0823 25.8618 47.1163C25.2314 47.7449 24.3697 48.5511 23.7953 49.1969Z" fill="#ED9C27"/>
<path d="M40.0688 37.1589C40.2722 37.156 41.0661 37.1801 41.166 37.0905C41.594 37.0594 42.8887 37.0784 43.1499 37.0277C43.2261 37.1713 44.6191 37.1385 44.8632 37.1389C44.8845 36.067 44.5794 35.0148 43.9889 34.1198L43.9903 34.1185C44.2007 33.8304 45.1792 32.8609 45.4529 32.6407C46.3983 33.8297 46.9193 35.5845 46.8995 37.0954C51.3179 37.2217 52.4967 38.6768 55.4711 41.7544C56.7107 43.022 57.971 44.2692 59.2518 45.495C59.7706 43.3885 59.738 40.5323 59.1869 38.4377C58.2377 39.3556 57.2986 40.2851 56.3709 41.2247C55.9402 40.787 55.4145 40.2768 55.0057 39.8292L60.1675 34.6743C62.166 39.301 62.083 44.7986 60.2344 49.4621C59.1387 52.2032 57.4177 54.6506 55.2094 56.6098C54.4975 57.2333 53.8987 57.6309 53.1882 58.1932L51.7291 56.73C54.017 55.1273 55.6042 53.5748 57.0946 51.2209C56.6437 50.7664 56.0074 50.1551 55.6003 49.6852C56.0822 50.1204 56.6564 50.7156 57.1146 51.1885C57.2995 50.89 58.077 49.6101 58.0689 49.3143C58.2549 48.7904 58.4647 48.2752 58.6973 47.7703L54.0134 43.0837C53.262 42.3313 51.665 40.6432 50.8743 40.1378C50.0142 39.5892 49.0293 39.267 48.0113 39.2015C46.8369 39.1192 45.6538 39.2029 44.4806 39.1925C43.0525 39.1799 41.5588 39.2519 40.1392 39.1752C40.1439 38.4715 40.1373 37.8593 40.0688 37.1589Z" fill="#72C646"/>
<path d="M34.5303 23.5929C39.4567 21.6344 44.9645 21.7418 49.8107 23.8911C50.1373 24.0319 50.5016 24.1936 50.8181 24.3548C50.6515 24.6011 49.6029 25.623 49.34 25.8844C48.8262 25.6324 48.273 25.476 47.797 25.2463C46.3152 26.667 44.8228 28.2327 43.3661 29.6899C42.5929 30.4634 41.2729 31.7276 40.6209 32.5191C40.2793 32.9336 39.9876 33.3867 39.7517 33.8692C39.2218 34.957 39.1848 35.7976 39.1599 36.9849C39.1297 38.4221 39.1274 39.86 39.1531 41.2974C39.1642 42.2227 39.2147 43.6382 39.0896 44.5222C38.6194 44.4241 37.7271 44.4286 37.213 44.3929C37.1452 42.9056 37.1475 41.2303 37.1198 39.7544C37.0574 36.4522 36.8769 33.5225 39.3209 30.9697C41.3577 28.8422 43.4801 26.735 45.5632 24.6372C43.6521 24.2623 41.9651 24.1239 40.0165 24.3472C39.4291 24.4144 38.8872 24.4626 38.312 24.6217L41.3161 27.618L39.911 29.0139L36.3976 25.5108C35.791 24.8993 35.1023 24.2285 34.5303 23.5929Z" fill="#72C646"/>
<path d="M33.1219 59.3547C34.7654 60.1968 36.5327 60.8119 38.3777 61.1697C41.496 61.7802 43.7423 61.5579 46.7708 60.9523C46.1945 60.3882 45.6052 59.7771 45.029 59.2259C42.5633 59.6006 40.8974 59.7043 38.4173 59.1357C37.9866 59.1039 36.5168 58.6193 36.1269 58.4563C35.573 58.2601 35.1693 58.0714 34.6331 57.8278C35.9495 56.6158 37.5112 54.9627 38.8 53.6752L41.0674 51.4092C41.5027 50.9735 42.4561 50.1163 42.692 49.58C42.8777 49.158 42.9129 47.3136 42.7031 46.8995L42.685 46.7531C42.2731 46.7035 41.2457 46.7558 40.796 46.769L40.7995 46.874C40.8555 47.5655 40.8924 48.0388 40.8554 48.7246C40.2747 49.4524 39.169 50.4364 38.4955 51.1458C36.6496 53.09 34.6236 54.962 32.7747 56.8913L31.3429 58.3231C31.3065 58.3595 32.5138 59.026 33.1219 59.3547Z" fill="#ED9C27"/>
<path d="M44.812 39.4801C45.3304 39.5733 46.1635 39.5127 46.7089 39.5248C46.855 41.1461 46.8742 42.9235 46.9295 44.536C47.0364 47.6527 47.2292 49.7613 45.0734 52.3183C44.4379 53.0718 43.8359 53.6484 43.1327 54.3489C42.0821 55.3868 41.0402 56.4336 40.0075 57.4893C39.512 57.9936 38.8679 58.6149 38.4175 59.1357C37.9868 59.1039 36.517 58.6193 36.1271 58.4563C36.6889 58.0036 37.1949 57.4726 37.7057 56.9618L39.7303 54.937L42.1212 52.5608C42.7148 51.9644 43.3605 51.3437 43.859 50.6609C45.2297 48.783 44.8956 46.337 44.8677 44.1486C44.848 42.608 44.8853 41.0126 44.812 39.4801Z" fill="#72C646"/>
<path d="M47.0506 41.1904C48.1364 41.1037 49.6037 40.9241 50.4321 41.6841C51.2531 42.4371 52.0009 43.2654 52.7916 44.0367C54.5505 45.7526 56.2939 47.63 58.0689 49.3145C58.077 49.6103 57.2995 50.8906 57.1148 51.1887C56.6566 50.7158 56.0828 50.1205 55.6009 49.6852C54.2305 48.2941 52.8462 46.9169 51.4483 45.5536C50.5007 46.3287 48.4365 46.9829 47.224 46.9416C47.2467 46.3012 47.2447 45.533 47.1878 44.8944C48.3299 44.8242 48.9922 44.6562 50.0151 44.1408C49.6834 43.7863 49.3906 43.4528 49.0148 43.1437C48.4443 43.0845 47.7459 43.0975 47.1638 43.0939C47.1111 42.4453 47.0985 41.8199 47.0506 41.1904Z" fill="#088436"/>
<path d="M49.3398 25.8844C49.6027 25.623 50.6513 24.6011 50.8179 24.3548C51.439 24.6812 52.0484 25.0292 52.645 25.3987C51.4614 26.6429 50.2102 27.8756 48.9909 29.089C47.8252 30.249 46.6397 31.5096 45.4524 32.6406C45.1787 32.8609 44.1997 33.8308 43.9897 34.1185C43.7274 34.3847 43.3601 34.7388 43.1307 35.0183C43.0475 35.808 43.1855 36.33 43.1505 37.0277C42.8909 37.0785 41.5946 37.0597 41.1662 37.0909C41.11 36.5428 41.1106 35.9893 41.0933 35.4566C41.0587 34.5396 41.2086 34.0863 41.8447 33.429C42.5855 32.6637 43.3308 31.9167 44.0791 31.1649L49.3398 25.8844Z" fill="#088436"/>
<path d="M31.2106 25.2845C31.7584 24.9688 32.4788 24.5995 32.9867 24.2574C33.632 24.8668 38.7593 29.9855 38.7959 30.1331C38.3639 30.6058 37.9513 31.1034 37.5378 31.5929C37.2176 31.3011 36.8696 30.957 36.5683 30.6452C34.8247 28.84 32.9262 27.1104 31.2106 25.2845Z" fill="#088436"/>
<path d="M46.2346 52.425C46.2991 52.3335 46.3093 52.3295 46.3913 52.2592C46.5526 52.2759 52.1251 57.8745 52.7449 58.5053C52.3631 58.7292 51.9757 58.9437 51.5834 59.1485C51.3296 59.2745 51.1723 59.3563 50.9359 59.5098C48.9819 57.5688 47.0382 55.6173 45.105 53.6555C45.5019 53.2611 45.8676 52.8463 46.2346 52.425Z" fill="#088436"/>
<path d="M54.6534 35.0879L58.4574 31.2479C58.8542 31.8558 59.1641 32.4699 59.5461 33.0579L57.7141 34.8725C56.4357 36.1733 55.1463 37.4633 53.8461 38.7422C53.3477 38.2932 52.8528 37.8401 52.3615 37.3832C53.0855 36.7156 53.9444 35.8003 54.6534 35.0879Z" fill="#F5B72A"/>
<path d="M24.4944 50.6783C26.3242 49.0106 28.2797 46.8871 30.0841 45.1248C30.5805 45.5409 31.096 45.9892 31.6184 46.3679L31.3042 46.6887C30.3858 47.5976 29.4737 48.5128 28.568 49.4344C27.6274 50.3999 26.4967 51.5881 25.4995 52.4867C25.1531 51.9126 24.8174 51.2703 24.4944 50.6783Z" fill="#ED9C27"/>
<path d="M42.6327 56.214C43.0411 55.7664 43.5437 55.2721 43.9712 54.8334C45.2531 56.0001 46.4629 57.3394 47.7199 58.541C48.2454 59.0434 48.8367 59.6228 49.3135 60.1629C48.8141 60.3797 47.8269 60.6489 47.2821 60.8121C47.0961 60.6488 46.9142 60.4642 46.7368 60.2902C45.3681 58.947 43.9325 57.6241 42.6327 56.214Z" fill="#72C646"/>
<path d="M37.0895 46.7951C37.4556 46.76 38.4044 46.7594 38.7862 46.7933C38.9177 47.1365 39.0217 47.7109 39.1306 48.0877C39.3064 48.6973 39.471 48.9756 39.7733 49.5284C39.3114 49.9991 38.84 50.4605 38.3593 50.9119C37.507 49.7724 36.9055 48.2317 37.0895 46.7951Z" fill="#72C646"/>
<path d="M40.6743 40.7591C40.8813 40.6685 43.0736 40.7276 43.4763 40.7255C43.4953 41.5175 43.5095 42.3095 43.5191 43.1015C42.5938 43.0905 41.5739 43.1082 40.6516 43.1319C40.7634 42.4205 40.7343 41.4742 40.6743 40.7591Z" fill="#72C646"/>
</svg>
