<svg width="106" height="48" viewBox="0 0 106 48" fill="none" xmlns="http://www.w3.org/2000/svg">
<path d="M49.888 30H44.596V29.568L46.054 29.406L44.398 25.266H40.348L38.908 29.1L40.51 29.568V30H36.748V29.568L38.116 29.1L42.472 17.976H43.732L48.502 29.406L49.888 29.568V30ZM44.128 24.6L42.364 20.226L40.6 24.6H44.128ZM53.2638 23.34C53.4678 22.692 53.8398 22.14 54.3798 21.684C54.9318 21.228 55.4298 21 55.8738 21C56.3298 21 56.6358 21.114 56.7918 21.342C56.9478 21.558 57.0258 21.738 57.0258 21.882C57.0258 22.374 56.8458 22.728 56.4858 22.944C56.2458 22.752 55.8858 22.656 55.4058 22.656C54.9378 22.656 54.4698 22.806 54.0018 23.106C53.5338 23.394 53.2998 23.712 53.2998 24.06V29.478L54.9198 29.586V30H49.8978V29.586L51.0858 29.496V21.81L49.6278 21.738V21.324L53.2998 21.126L53.1918 23.34H53.2638ZM60.799 27.498C60.799 28.206 60.883 28.722 61.051 29.046C61.231 29.37 61.585 29.532 62.113 29.532C62.641 29.532 63.163 29.202 63.679 28.542C64.195 27.882 64.453 27.312 64.453 26.832V21.792L63.031 21.72V21.306L66.757 21.072V29.424L68.215 29.496V29.91L64.525 30.126L64.615 28.326H64.435C63.739 29.562 62.731 30.18 61.411 30.18C59.491 30.18 58.531 29.256 58.531 27.408C58.531 25.56 58.597 23.688 58.729 21.792L57.397 21.72V21.306L60.979 21.108C60.859 23.82 60.799 25.95 60.799 27.498ZM76.027 29.478L76.135 23.772C76.135 23.064 76.045 22.548 75.865 22.224C75.685 21.9 75.325 21.738 74.785 21.738C74.245 21.738 73.717 22.062 73.201 22.71C72.697 23.346 72.433 23.898 72.409 24.366V29.478L73.759 29.586V30H68.935V29.586L70.123 29.478V21.81L68.647 21.738V21.36L72.337 21.144L72.247 22.98H72.427C72.751 22.38 73.189 21.918 73.741 21.594C74.293 21.258 74.887 21.09 75.523 21.09C77.443 21.09 78.403 22.014 78.403 23.862C78.403 25.194 78.361 27.066 78.277 29.478L79.519 29.586V30H75.163V29.586L76.027 29.478ZM85.0759 30H80.4319V29.586L81.6019 29.478V21.81L80.0539 21.72V21.342L83.9059 21.108V29.478L85.0759 29.586V30ZM84.0319 18.084C84.0319 18.444 83.8999 18.756 83.6359 19.02C83.3839 19.284 83.0659 19.416 82.6819 19.416C82.2979 19.416 81.9739 19.29 81.7099 19.038C81.4579 18.774 81.3319 18.456 81.3319 18.084C81.3319 17.7 81.4639 17.376 81.7279 17.112C81.9919 16.836 82.3099 16.698 82.6819 16.698C83.0539 16.698 83.3719 16.836 83.6359 17.112C83.8999 17.388 84.0319 17.712 84.0319 18.084ZM91.8546 21.216H95.3826V21.684L94.0506 22.026L90.7386 24.798L94.7346 29.46L95.9406 29.586V30H91.3506V29.586L92.3586 29.478L89.1906 25.842V29.46L90.1806 29.586V30H85.7166V29.586L86.8866 29.478V17.04L85.3386 16.932V16.482L89.1906 16.176V25.338L93.0246 22.026L91.8546 21.684V21.216ZM101.664 25.788C100.272 25.788 99.3963 26.154 99.0363 26.886C98.8803 27.198 98.8023 27.588 98.8023 28.056C98.8023 28.86 99.0783 29.328 99.6303 29.46C99.7143 29.484 99.8043 29.496 99.9003 29.496C100.284 29.496 100.668 29.298 101.052 28.902C101.436 28.494 101.64 27.972 101.664 27.336V25.788ZM98.7843 24.024C98.5203 24.204 98.2443 24.294 97.9563 24.294C97.6683 24.294 97.4223 24.198 97.2183 24.006C97.0143 23.814 96.9123 23.532 96.9123 23.16C96.9123 22.776 97.0263 22.434 97.2543 22.134C97.4823 21.834 97.7763 21.612 98.1363 21.468C98.8443 21.168 99.5163 21.018 100.152 21.018C101.568 21.018 102.534 21.27 103.05 21.774C103.566 22.266 103.824 23.028 103.824 24.06V29.478L105.336 29.586V29.982L101.898 30.198L101.736 28.686C101.172 29.706 100.2 30.216 98.8203 30.216C98.1963 30.216 97.6563 30.03 97.2003 29.658C96.7563 29.274 96.5343 28.74 96.5343 28.056C96.5463 27.144 97.0023 26.46 97.9023 26.004C98.8023 25.536 100.056 25.302 101.664 25.302V23.754C101.664 23.022 101.562 22.458 101.358 22.062C101.154 21.666 100.776 21.468 100.224 21.468C99.6723 21.468 99.2583 21.696 98.9823 22.152C98.8023 22.452 98.7123 22.77 98.7123 23.106C98.7123 23.442 98.7363 23.748 98.7843 24.024Z" fill="white"/>
<path d="M5.07895 27.3475C5.2619 27.328 5.82016 27.5317 5.95221 27.6458L5.93386 27.6695C5.704 27.6846 5.64163 27.6461 5.42949 27.5644L5.34757 27.5435L5.32413 27.5665C5.3215 27.6337 5.32824 27.6641 5.33891 27.7311C5.25444 27.8026 5.07351 27.8412 4.96212 27.8512C4.59627 27.6806 4.78596 27.4525 5.07895 27.3475Z" fill="#EB1C40"/>
<path d="M5.34686 26.7203C5.74883 26.7469 5.9241 26.9782 6.20146 27.2516C6.01861 27.1953 5.75155 27.0627 5.56713 26.9804C5.18472 26.8575 4.95713 27.0024 4.65396 27.057L4.64258 27.006C4.7307 26.8153 5.15454 26.7397 5.34686 26.7203Z" fill="#EB1C40"/>
<path d="M9.94648 26.1278C9.99273 26.1241 9.99206 26.127 10.0368 26.1416L10.0357 26.1847C9.96756 26.2617 9.80961 26.3512 9.71689 26.4094C9.67336 26.4176 9.67403 26.4136 9.63148 26.3984L9.63086 26.3543C9.70778 26.2252 9.80957 26.1769 9.94648 26.1278Z" fill="#EB1C40"/>
<path d="M10.0408 29.1845C10.122 29.1781 10.1758 29.1678 10.2545 29.1887L10.2716 29.2238L10.2364 29.2965C10.1541 29.3039 10.0944 29.3153 10.0145 29.2949L9.99805 29.2535L10.0408 29.1845Z" fill="#EB1C40"/>
<path d="M7.30635 25.8927L7.331 25.9257C7.31716 26.0509 7.25327 26.3018 7.19238 26.412C7.07274 26.189 7.10979 26.0532 7.30635 25.8927Z" fill="#EB1C40"/>
<path d="M7.64667 26.1402C7.80944 26.2489 7.7289 26.437 7.64332 26.565C7.63135 26.5564 7.60689 26.5286 7.59551 26.5164C7.58533 26.3959 7.62162 26.2604 7.64667 26.1402Z" fill="#EB1C40"/>
<path d="M5.47461 21.2682C8.56959 21.1552 11.3332 23.1536 12.9932 25.5905C13.2755 26.0042 13.533 26.4345 13.7627 26.8786C14.3206 27.947 14.8306 29.2748 16.0273 29.8649C16.318 30.0081 16.7489 30.0217 17.0488 29.9C17.4187 29.7499 17.5518 29.5201 17.6982 29.1823C17.322 29.3157 16.8487 29.3942 16.4902 29.1696C16.0474 28.8916 16.0502 28.2914 16.3223 27.8961C16.4703 27.6788 16.7013 27.529 16.9629 27.4811C18.0797 27.2796 18.9716 28.853 19.5332 29.6032C20.3487 30.6926 21.0705 31.8417 22.2422 32.6129C23.3721 33.3567 24.5955 33.8257 25.9658 33.5807C25.6087 34.0923 25.3306 34.6135 25.0293 35.151C24.6766 35.7801 24.3506 36.7262 23.8037 37.2086C22.8665 38.0354 21.309 37.7981 20.2178 37.4655C19.1793 37.1581 18.2431 36.69 17.2852 36.2067C16.6752 35.8989 16.0397 35.5521 15.4092 35.2975C14.521 34.9353 13.5779 34.7206 12.6182 34.6618C12.7561 34.1179 12.8142 33.8477 13.0283 33.3297C12.9781 33.2445 12.841 33.0851 12.7715 32.9997C12.5758 32.7592 12.4963 32.6072 12.3701 32.3307C12.9001 32.8742 13.5005 33.325 14.1494 33.7243C14.6746 34.0288 15.2211 34.2972 15.7285 34.6256C16.045 34.8305 16.3659 35.1685 16.6914 35.3454C17.0213 35.5246 17.4272 35.7006 17.7725 35.8532C18.5694 36.1982 19.3712 36.5324 20.1777 36.8551C20.4311 36.6907 20.5114 36.5305 20.6582 36.276C20.8772 35.8963 20.5142 35.8124 20.2158 35.6227C19.9322 35.4397 19.6511 35.2522 19.373 35.0612C18.9912 34.8008 18.6117 34.5372 18.2354 34.2692C18.1131 34.1834 17.9903 34.0935 17.8672 34.0094C17.4057 33.6945 17.0049 33.2866 16.5908 32.9137C15.8374 32.2447 15.0869 31.572 14.3408 30.8952C14.0202 30.604 13.7204 30.3088 13.4033 30.0182C12.6888 29.3637 11.8979 29.6175 11.041 29.6764C10.9498 30.5195 10.9326 31.6125 10.3418 32.3014C9.80361 32.9289 9.21549 33.4963 8.72363 34.1696C8.40886 34.6004 7.82532 35.128 7.30371 34.6627C6.95304 34.4453 6.88878 33.7553 6.70898 33.525C6.34354 33.0583 6.29172 33.2212 6.24609 32.5495C5.9604 32.7497 5.65378 32.9446 5.44043 33.2233C5.2832 33.4287 5.24619 33.7135 5.14355 33.9342C4.90821 34.4402 4.37195 35.6148 4.03516 36.0026C4.25017 35.1209 4.87314 34.4064 5.05371 33.5377C5.08127 33.4052 4.58429 32.8469 4.47559 32.7057C3.78504 31.7923 3.15874 30.8331 2.60156 29.8356C1.47371 27.7913 0.745107 25.8078 1.60156 23.5153C2.21301 21.8792 3.84906 21.3481 5.47461 21.2682ZM21.9814 36.692C21.827 36.8438 21.5648 37.045 21.5322 37.2399C21.5434 37.3315 21.5965 37.3697 21.6709 37.4284C21.6813 37.4365 21.6915 37.445 21.7021 37.4528C21.9328 37.4941 22.155 37.5044 22.376 37.5456L22.3965 37.527C22.2198 37.3618 22.0326 37.3517 21.8711 37.2282C21.8362 37.1541 21.8207 37.155 21.8369 37.0875C21.9635 37.0722 22.5511 37.6061 22.7686 37.3141C22.7793 37.2996 22.7882 37.2839 22.7969 37.2682C22.7496 37.0407 22.444 37.0778 22.2715 36.9811C22.1681 36.9231 22.0598 36.7291 21.9814 36.692ZM21.958 35.1579C21.6507 35.246 21.2399 35.478 20.9482 35.6315C20.9072 36.2428 20.8103 36.4974 20.3652 36.9577C20.6577 37.0946 21.057 37.2362 21.3672 37.3493C21.3097 37.0016 21.4362 36.9469 21.6807 36.7194C21.8198 36.6059 21.9254 36.5473 22.0918 36.4762C22.2157 36.7142 22.3577 36.9961 22.6963 36.8756C22.8296 36.6711 22.5447 36.1336 22.3369 36.027C22.2331 35.9738 22.096 35.9321 22.0547 35.8356C22.1837 35.6904 22.5345 35.8815 22.6768 35.9489C22.6982 35.4778 22.4951 35.1069 21.958 35.1579ZM22.8438 36.5045C22.8815 36.6847 22.8689 36.9343 22.9756 37.0172C23.045 37.0122 23.0557 37.0091 23.1201 36.9831C23.1689 36.6865 23.0935 36.6528 22.8438 36.5045ZM21.748 33.4538C21.1353 33.5353 20.7375 33.8755 20.9385 34.5065C21.5648 33.9835 22.4598 34.0586 22.9873 34.6715C23.14 34.8484 23.2139 35.0782 23.1934 35.3092C23.1547 35.7594 22.7896 36.0282 22.8018 36.3307C23.6047 36.7113 24.5858 35.4398 24.2686 34.7038C24.029 34.1487 23.4627 33.9148 22.9248 33.7262C22.5316 33.5885 22.1755 33.4404 21.748 33.4538ZM10.7275 29.6178C10.3502 29.8723 10.0999 30.1125 9.68848 30.3708C9.68049 30.9511 9.31856 31.5558 8.90918 31.9606C8.51748 32.3478 7.68731 32.7307 7.22852 32.2409C7.15008 32.1568 7.07712 32.0683 7.00391 31.9792C6.59851 32.2195 6.19233 32.4902 6.53027 33.0124C6.73675 33.3314 6.88094 33.3502 6.99902 33.7331C7.19796 34.2942 7.54983 35.0924 8.26172 34.4098C8.64439 34.0429 8.94222 33.5722 9.2998 33.1813C9.58065 32.8426 10.2837 32.1891 10.4541 31.8161C10.7486 31.1711 10.8391 30.359 10.7744 29.6608C10.7497 29.6291 10.7593 29.6312 10.7275 29.6178ZM5.20312 25.7116C5.05032 25.8387 4.38151 26.5908 4.30859 26.777C4.03518 27.4752 3.73919 28.2399 3.57422 28.9743C3.43772 29.5819 4.14822 29.2611 4.42383 29.1364C4.51286 29.0961 4.51249 28.9668 4.46484 28.8825C4.28167 28.7828 4.25541 28.9745 4.12598 28.9333C4.09908 28.86 4.09895 28.8906 4.12402 28.817C4.19538 28.7508 4.29179 28.7066 4.3916 28.7135C4.47383 28.7194 4.54934 28.7596 4.59961 28.8239C4.72666 28.9865 4.62077 29.1932 4.46582 29.2877C4.37082 29.3456 4.21486 29.3723 4.10645 29.3991C4.10948 29.5245 4.1093 29.6755 4.12012 29.7985C4.2448 29.8331 4.72677 29.8831 4.74414 29.8834C4.72629 29.9513 4.69806 29.9678 4.64355 30.0163C4.561 30.0327 4.50493 30.0426 4.4248 30.0719C4.38634 30.2103 4.50451 30.2962 4.60254 30.3825C4.59932 30.5341 4.58492 30.6656 4.64453 30.8083C4.89649 31.4105 5.70892 31.0594 6.12109 30.8463C6.16039 30.9445 6.20515 31.0675 6.25781 31.1569C6.37391 31.1385 6.43771 31.1262 6.5498 31.0973C6.68078 31.0635 7.0117 30.8598 7.1123 30.9C7.07711 31.0032 6.89945 31.135 6.79785 31.1842C6.72741 31.2177 6.65542 31.2488 6.58301 31.278C6.82831 31.503 7.35719 32.1487 7.57227 32.2594C8.54993 32.4084 9.25859 31.4403 9.50293 30.6198C9.51664 30.5738 9.49596 30.5287 9.47168 30.4909C9.37755 30.421 9.27849 30.4124 9.16504 30.3991C8.67832 30.3418 8.01287 30.2239 7.78125 29.7448C7.71746 29.7169 7.63303 29.6814 7.58008 29.6334C7.28039 29.3619 7.20168 28.6405 7.64551 28.4625C7.86908 28.373 8.15582 28.4927 8.37207 28.5758C8.42172 28.4154 8.47309 28.2301 8.58496 28.0924C8.85092 27.7651 9.3685 27.6018 9.1123 27.0875C9.08436 27.0315 9.04283 26.9936 8.98828 26.9635C8.7502 26.9223 8.42716 27.0862 8.03613 27.0661C7.92489 27.267 7.72072 27.6938 7.54785 27.82C7.45794 27.8417 7.42221 27.8191 7.34766 27.778C6.41643 27.2641 6.64333 26.0916 5.63867 25.7975C5.50015 25.757 5.34888 25.7085 5.20312 25.7116ZM10.8203 25.6276C10.2527 25.6709 9.59345 25.7354 9.06641 25.9586C8.64602 26.1368 8.3437 26.5462 8.1084 26.9215C8.33425 26.8763 8.94443 26.6876 9.11523 26.8424C9.86015 27.518 8.84121 27.9206 8.65039 28.3336C8.34489 28.9956 8.87681 29.2885 8.01367 29.7536C8.35961 30.0663 8.99893 30.2314 9.46094 30.2672C9.66614 30.0765 9.85641 30.065 10.1162 29.8532C10.3617 29.6661 10.6086 29.4766 10.8516 29.2858C11.2211 28.9955 11.2662 28.6339 11.3809 28.2106C11.1901 28.3244 11.0112 28.4321 10.7998 28.5465C10.5072 28.705 10.2695 28.7425 10.002 28.984C9.75843 29.2042 9.50638 29.6244 9.12695 29.6647C9.10262 29.6673 9.09811 29.6484 9.08105 29.6237C9.13338 29.5334 9.63954 29.1255 9.8418 28.8825C10.424 28.1827 10.3863 27.2647 10.667 26.4411C10.7286 26.2602 10.969 25.6944 10.9619 25.6422C10.9048 25.6073 10.9045 25.6218 10.8203 25.6276ZM7.7002 28.6178C7.45247 28.8637 7.39241 29.4261 7.85156 29.4196C7.94694 29.4182 8.05016 29.4343 8.14844 29.4342C8.26126 29.3245 8.35862 29.1892 8.3623 29.026C8.36471 28.9266 8.32321 28.831 8.24902 28.7633C8.09662 28.6239 7.89696 28.6076 7.7002 28.6178ZM5.27148 24.8922C5.07108 24.9892 4.80453 25.3119 4.87891 25.5221C4.9887 25.6039 5.11395 25.5243 5.23926 25.4792C5.60886 25.5731 5.91882 25.6512 6.21484 25.8981C6.25962 25.8153 6.27722 25.7639 6.3623 25.7184L6.39844 25.7321C6.41847 25.8136 6.37705 25.8855 6.34473 25.9684C6.66993 26.6393 6.87172 27.2426 7.5 27.6823C7.53537 27.6112 7.57536 27.5345 7.60742 27.4625C7.82581 26.988 8.1135 26.5472 8.46094 26.154C8.07754 25.896 7.71155 25.6628 7.23633 25.612C7.04534 25.5916 6.65538 25.5772 6.50781 25.5026C5.8579 25.1739 6.10528 24.9652 5.27148 24.8922ZM9.23828 24.4215C8.64279 23.9671 7.77686 23.5962 7.00195 23.7047C6.25283 23.7855 5.65546 24.0432 5.26074 24.7125C5.72097 24.7559 5.91119 24.7894 6.25 25.1129C6.34048 25.1993 6.47018 25.2821 6.58984 25.3258C6.82241 25.4106 7.07555 25.411 7.32129 25.4391C7.71904 25.4847 8.1108 25.702 8.43945 25.9186C8.51735 25.9684 8.54237 26.0033 8.62402 26.0065C8.74902 25.9147 8.82776 25.8399 8.97168 25.779C9.33236 25.6264 9.66558 25.5631 10.0527 25.5153C9.84771 25.0474 9.66008 24.7435 9.23828 24.4215ZM8.90527 22.7848C8.44728 22.905 8.11991 23.1216 7.96191 23.5729C8.55099 23.7884 8.76693 23.8678 9.28125 24.2262C9.44459 24.3532 9.54071 24.4405 9.68945 24.5846C9.93934 23.9243 9.87061 22.7234 8.90527 22.7848Z" fill="#EB1C40"/>
<path d="M10.6543 10.6725C11.7647 10.5069 13.2197 11.1222 14.1055 11.7262C15.3142 12.5506 15.7279 12.8174 17.1895 12.9333C17.1854 13.0158 17.1825 13.0987 17.1816 13.1813C17.1785 13.8516 17.3841 14.516 17.8701 15.0016C17.5702 15.4737 17.746 16.1611 17.8711 16.6716C17.7979 16.7402 17.5699 16.9617 17.5791 17.0622C17.637 17.5391 18.0728 17.9802 18.2354 18.4069C18.5321 19.1864 18.5317 19.6806 19.4619 19.9264C19.492 20.7617 19.6887 21.4015 20.2119 22.0719C20.8059 22.8329 21.4434 23.1296 22.2979 23.5387C22.4881 23.8162 21.505 25.4266 21.3447 25.7878C20.8113 26.991 20.396 28.1932 20.2354 29.5016C19.721 28.6946 18.4684 27.2095 17.4883 26.9733C17.0521 26.8694 16.5913 26.9443 16.2129 27.1813C15.6997 27.4982 15.428 28.0291 15.2959 28.5905C14.6109 27.7583 14.2337 26.2941 13.5635 25.3219C11.9534 22.9866 9.98139 21.5547 7.16211 20.9411C7.08287 20.9263 7.00325 20.9119 6.92383 20.8981C5.1588 20.5924 3.84752 20.6834 2.36523 21.7048C2.74006 21.1194 2.99072 20.4862 3.31055 19.8757C3.65022 19.2273 4.05392 18.5832 4.44043 17.9596C4.49968 18.0332 4.59549 18.1224 4.66504 18.1911C4.73682 18.7469 4.85836 18.9419 5.45117 18.8932C5.72176 19.2913 5.95431 19.325 6.39648 19.1833C6.47981 19.6665 6.69846 19.6835 7.14648 19.6921C7.38894 20.1555 7.31994 20.1803 7.87793 20.2839C8.38184 20.8007 8.75522 20.3991 8.80957 19.819C9.29498 19.6186 9.2497 19.5161 9.24023 19.028C9.32166 18.9266 9.35147 18.8768 9.41602 18.7634C9.417 18.653 9.38073 18.4385 9.36426 18.3219C9.57718 18.1437 9.61818 18.1047 9.66895 17.8337C9.98234 17.6742 10.045 17.6455 10.0469 17.2858C10.8237 16.8295 9.74255 16.1275 9.35254 15.8737C9.1854 15.7648 8.90161 15.536 8.6875 15.5817L8.68066 15.611C8.79307 15.7229 8.94373 15.7165 9.08887 15.8551C9.20592 15.967 9.3096 16.2465 9.42285 16.3112C9.60224 16.3725 9.72315 16.3375 9.89453 16.4479C10.0456 16.5453 10.1507 16.8385 10.0527 16.9987C10.0146 17.061 9.8534 17.0775 9.77441 17.0895C9.97589 17.6091 9.75543 17.7745 9.2627 17.5221C9.38985 17.8488 9.51166 18.0273 9.0918 18.1286C8.76747 18.0536 8.76357 18.0438 8.62598 17.7477C8.27301 17.8091 8.20886 17.6425 8.14355 17.3503C7.60739 17.2177 7.57182 17.1432 7.3916 16.6354C7.59633 16.4173 7.60355 16.3762 7.61328 16.0856C8.45734 15.5377 7.78939 14.9926 7.9873 14.8073C8.21561 14.812 8.26377 14.9878 8.34863 15.1618C8.45728 15.181 8.53965 15.2225 8.62598 15.1901C8.67946 14.7841 7.94534 14.6467 7.71484 14.5192C7.49655 14.3985 7.24196 14.1148 7.08301 13.9206C7.34981 13.5408 7.57624 13.2224 7.65527 13.1032C8.39387 11.9885 9.22743 10.894 10.6543 10.6725ZM13.2959 22.8278C13.7372 23.1468 14.0428 23.3576 14.1973 23.8962C14.2107 23.9411 14.3917 24.1337 14.4297 24.1842C14.7295 24.5828 15.21 24.8806 15.7305 24.8278C16.1224 24.7879 16.3808 24.3723 16.6182 24.111C16.6759 24.0471 16.8261 23.9435 16.9062 23.8874C16.9353 23.7424 16.9446 23.6661 17.043 23.5505C17.2784 23.2741 17.7905 23.1862 18.0879 23.4089C18.1343 23.4436 18.2219 23.5377 18.2656 23.5827C18.8859 23.4351 19.3631 23.4474 19.5352 24.1462C19.5417 24.1728 19.5477 24.1995 19.5537 24.2262C20.047 24.237 20.8005 24.3999 20.1904 25.0632C20.0704 25.1935 19.8627 25.27 19.6934 25.3249L19.498 25.2428C19.2129 25.492 18.936 25.739 18.5273 25.7155C18.1076 25.6912 17.835 25.4406 17.627 25.1071C17.7953 24.0589 18.9829 24.6265 18.4395 24.9274C18.4046 24.9464 18.3688 24.964 18.333 24.9811L18.334 25.0085C18.535 25.1901 18.7978 24.939 18.792 24.7165C18.6336 24.3334 18.303 24.1644 17.9004 24.3219C17.6919 24.4039 17.5252 24.5651 17.4375 24.7682C17.1917 25.3424 17.6968 25.6538 18.166 25.8298C18.4178 25.9241 18.8259 25.9782 19.04 25.8493C19.3924 25.6466 19.4003 25.5515 19.8115 25.5436C19.9945 25.5402 20.5237 25.0752 20.5713 24.8766C20.7047 24.3196 20.3276 24.1826 19.8975 24.1296C19.7034 23.7917 19.5541 23.3654 19.1494 23.2653C18.8725 23.1968 18.5823 23.2325 18.3096 23.2926C17.5954 22.8463 17.1135 23.1041 16.6621 23.6901C16.5872 23.787 16.4065 23.906 16.3223 24.0055C15.9479 24.4917 15.4322 24.5258 14.9062 24.2028C14.3903 23.8858 14.1562 23.1845 13.5645 22.9274C13.4839 22.8895 13.3872 22.8328 13.2959 22.8278ZM15.0488 21.9421C14.1836 22.1316 14.0657 22.9528 14.7705 23.3805C15.0427 23.5466 15.3719 23.5969 15.6826 23.5202C16.0523 23.4311 16.4139 23.0431 16.71 22.78C16.5926 22.8231 16.4375 22.8751 16.3271 22.9264C15.9712 23.1023 15.5975 23.3684 15.2031 23.2292C15.0482 23.1744 14.9108 23.109 14.8359 22.9557C14.7874 22.8576 14.7808 22.744 14.8184 22.6413C14.9124 22.3874 15.2288 22.317 15.4727 22.3669C15.6458 22.4024 15.5083 22.6335 15.5791 22.7116C15.9391 22.6764 15.9723 21.9008 15.0488 21.9421ZM15.8389 18.6891C15.4761 18.7249 15.3566 18.8456 15.1846 19.152C14.4213 18.9291 14.0129 19.4591 13.7539 20.0827C13.2148 20.1367 13.3076 20.1517 12.7393 20.0368C13.0673 20.3738 13.4409 20.8317 13.8955 20.9782C14.0789 21.0373 14.3361 21.0305 14.5205 21.1032C14.8446 21.26 15.0399 21.4301 15.4268 21.4313C16.0101 21.4331 16.5394 21.2607 16.5635 20.5866C16.5904 19.8311 15.7947 19.7246 15.3037 20.151C14.9299 20.4759 15.5823 20.8118 15.8857 20.7458C15.9861 20.7359 15.9887 20.7325 16.0518 20.6745L16.0557 20.6247H16.0303C15.8703 20.6234 15.5874 20.5576 15.5273 20.3932C15.6274 19.9498 16.5327 20.0588 16.3564 20.6969C16.3175 20.838 16.2214 20.958 16.0908 21.028C15.5777 21.3055 14.8527 21.0926 14.4355 20.8268C14.3042 20.7434 13.7769 20.8531 13.6748 20.5876C13.6327 20.5161 13.6149 20.3523 13.7246 20.3317C13.8146 20.3148 13.925 20.3153 13.9658 20.2175C14.092 19.8403 14.0607 19.6251 14.501 19.446C14.8376 19.3584 14.9509 19.3938 15.2803 19.3864C15.6364 18.8377 16.0425 18.7517 16.5664 19.1755C17.1064 19.1618 17.4397 19.2381 17.6299 19.7887C17.9425 19.9232 18.4863 20.1172 18.2637 20.5729C18.0182 21.0755 16.7904 20.9535 17.0312 21.7565C17.0922 21.969 17.2548 22.1241 17.4521 22.2184C18.1192 22.5372 18.6831 22.1835 19.3828 22.5895C19.6378 22.7374 19.6492 22.7665 19.8799 22.9469C19.6097 22.5545 19.3473 22.2485 18.8379 22.1745C18.7153 22.1567 18.4155 22.1049 18.2734 22.1169C17.9623 22.143 17.2265 21.9142 17.5537 21.4811C17.7912 21.1674 18.5597 20.9787 18.584 20.4665C18.642 19.9616 18.1574 19.7812 17.8193 19.53C17.3717 19.1507 17.3701 18.8533 16.6787 19.0065C16.423 18.7549 16.2354 18.6874 15.876 18.6882C15.8636 18.6882 15.8512 18.6889 15.8389 18.6891ZM11.2412 11.8464C11.2267 12.1173 11.1489 12.5088 11.2021 12.7634C11.2637 13.0575 11.5791 13.1967 11.7305 13.4528C12.0544 14.0013 12.1746 14.5966 12.293 15.2067C12.2913 15.2062 12.2897 15.2053 12.2881 15.2048C11.7709 14.1043 11.6126 14.3707 10.5859 13.9675C11.2658 14.8121 11.2099 14.8534 12.2881 15.2048C12.2909 15.2106 12.2941 15.2164 12.2969 15.2223C12.2959 15.2171 12.294 15.212 12.293 15.2067C12.2946 15.2073 12.2962 15.2081 12.2979 15.2087C12.4043 15.6066 12.4675 16.0719 12.4893 16.4821C11.9978 15.7547 11.4398 15.7952 10.6592 15.5553C11.2463 16.2505 11.5059 16.5662 12.4326 16.7663C12.4609 18.6323 11.8161 19.7415 10.1416 20.612C10.022 20.6756 9.93401 20.722 9.82129 20.7995C9.92379 20.7649 10.0693 20.7202 10.1641 20.6764C11.168 20.3938 11.6637 19.8473 12.1631 19.0055C13.1255 19.0164 13.3962 18.8522 14.1123 18.2594C13.4246 18.4427 13.0613 18.0308 12.293 18.7145C12.5626 17.959 12.5866 17.52 12.6562 16.7233C13.4909 16.41 13.7148 15.8496 13.959 15.0632C13.1221 15.5898 13.0086 15.4854 12.6494 16.4313C12.5689 15.9471 12.5177 15.4831 12.4287 14.9821C13.2822 14.4648 13.2844 14.27 13.4648 13.3356C12.8452 14.0181 12.7346 13.8768 12.416 14.862C12.2385 14.3604 12.0974 13.8109 11.916 13.3053C11.8519 13.126 11.9286 12.8362 11.8154 12.6227C11.6606 12.3313 11.4497 12.0987 11.2412 11.8464ZM15.9463 16.3122C15.7842 16.365 15.7389 16.3959 15.5947 16.488C15.4209 16.3435 15.2909 16.3181 15.1582 16.5173C14.8555 16.9719 15.0289 17.3824 15.4238 17.6784C16.0116 18.1189 16.5792 18.0159 17.1963 18.3444C17.4247 18.4698 17.5595 18.6616 17.7441 18.8151C17.4934 18.1226 16.7953 17.9501 16.1963 17.7175C15.7272 17.5352 15.3805 17.3114 15.5205 16.7985C15.5309 16.7604 15.5789 16.7216 15.6191 16.7126C15.8679 16.6599 16.0656 16.9405 16.2744 16.8376C16.4159 16.6173 16.2079 16.3245 15.9463 16.3122ZM10.9756 17.2389C11.318 17.6769 11.526 17.8454 12.0684 17.985C11.8469 17.5309 11.6221 17.4628 11.1484 17.2926C11.0929 17.2727 11.0338 17.2493 10.9756 17.2389ZM8.51172 16.318C8.04865 16.4412 8.18401 16.9646 8.60547 17.0182C8.8206 16.9494 8.97853 16.7839 8.88281 16.5505C8.84632 16.4619 8.7757 16.3913 8.68652 16.3532C8.63906 16.3335 8.56402 16.3228 8.51172 16.318ZM7.08008 13.9245C7.29636 14.4987 8.05472 14.9283 7.80176 15.5954C7.67721 15.9233 7.47578 15.8543 7.21094 15.7428C7.27874 15.9594 7.3867 16.1978 7.24023 16.4118C7.18996 16.4865 7.11091 16.5381 7.02148 16.5553C6.78163 16.6037 6.50186 16.4541 6.35449 16.2751C6.24891 16.1468 6.24253 16.0507 6.21387 15.8923C6.10405 15.8912 5.92911 15.9061 5.85254 15.8327C5.86099 15.6766 6.54934 14.6801 7.08008 13.9245ZM7.04785 15.0641C6.98248 14.9076 6.80066 14.8316 6.64062 14.8942C6.47845 14.9578 6.40066 15.1397 6.4668 15.2985C6.53307 15.4572 6.718 15.5329 6.87891 15.4665C7.03779 15.4008 7.11316 15.2209 7.04785 15.0641ZM7.08301 13.9206C7.08207 13.9219 7.08101 13.9232 7.08008 13.9245C7.07822 13.9196 7.07599 13.9148 7.07422 13.9098C7.07711 13.9134 7.08005 13.917 7.08301 13.9206Z" fill="#F9A90D"/>
<path d="M27.6455 32.0311C27.6559 32.0612 27.6607 32.0741 27.658 32.1077C27.5991 32.8437 27.3666 33.626 26.9952 34.2674C26.8038 34.598 26.5685 34.9075 26.4441 35.2631C25.8726 36.8973 25.9496 38.5096 24.6033 39.7986C22.9724 41.3599 21.0149 40.8865 18.957 40.8134C18.4113 40.8012 17.6571 40.8909 17.2681 41.3073C16.8722 41.7312 16.6687 42.5224 16.4668 43.0623C16.347 43.3913 16.2095 43.714 16.055 44.0288C15.3859 45.4047 14.5572 46.3937 13.4428 47.4274C14.3098 45.9563 14.8224 44.1183 14.9671 42.4344C14.9947 42.1128 14.988 41.7098 14.8964 41.4013C14.6692 40.6356 13.766 40.4118 13.056 40.3207C12.2024 40.2112 11.3158 40.2237 10.4564 40.2708C10.1076 40.2899 9.7134 40.2979 9.3701 40.3546C9.4884 40.2826 9.6076 40.212 9.72765 40.1428C11.2968 39.2515 13.2848 38.9497 15.0622 39.2509C17.7009 39.698 20.3521 41.1903 22.9322 39.7141C23.0146 39.6715 23.0893 39.6186 23.1665 39.5673C20.8153 40.3212 18.0984 38.8886 15.8559 38.2664C13.0656 37.4923 11.0241 38.0634 8.47684 39.1832C7.63068 39.5552 6.23215 40.0481 5.31872 39.6619C4.92992 39.4987 4.62497 39.1877 4.47336 38.7999C3.92013 37.4192 5.38211 36.3436 6.52046 35.9625C7.15858 35.7489 7.69506 35.5904 8.34523 35.4474C10.7808 34.9057 13.2571 35.0089 15.5702 35.9847C17.7078 36.8704 19.5066 38.2627 21.9134 38.3951C23.8939 38.5041 24.2653 37.6358 25.0168 36.1142C25.2483 35.64 25.5043 35.1777 25.7836 34.7291C26.432 33.7004 27.129 33.1944 27.6455 32.0311Z" fill="#1DB9BE"/>
<path d="M13.1387 0.892925C13.7012 0.864705 13.878 1.21604 14.2451 1.2689C15.0609 1.38617 15.2838 1.27259 15.9463 1.92808C17.5037 3.46899 18.7979 5.20805 20.1074 6.95152C20.64 7.65584 21.163 8.36756 21.6768 9.08531C21.9217 9.43122 22.2273 9.85549 22.4414 10.2103C21.6599 10.1679 20.8713 10.457 20.1816 10.7865C19.8991 10.9214 19.6563 11.1803 19.3242 11.056C19.0141 10.9398 18.8193 10.4449 18.6836 10.1673C18.0731 10.4173 17.7714 10.9292 17.5244 11.4916C17.372 11.8743 17.3161 12.0651 17.2305 12.4681C15.9575 12.4019 15.2924 11.9591 14.2549 11.2669C13.5193 10.7762 12.6201 10.3217 11.7412 10.1507C10.6535 9.93938 9.84524 10.3398 8.96973 10.9398C9.27993 10.5706 9.66768 9.86026 9.90625 9.42418C10.9852 7.45188 11.9956 5.15623 12.5801 2.98472C12.6721 2.64053 12.7415 2.29088 12.7871 1.93785C12.8197 1.68365 12.833 1.41589 12.8926 1.16832C12.9314 1.00708 13.0011 0.969236 13.1387 0.892925ZM17.502 5.62046C17.7519 6.00575 17.9994 6.39126 18.2295 6.78843C18.5514 7.34386 20.0031 10.1341 20.4727 10.2484C20.5003 10.2551 20.5293 10.2562 20.5576 10.2572C20.6425 9.45545 18.7656 7.02977 18.2402 6.36851C18.1327 6.23337 17.6512 5.6896 17.502 5.62046Z" fill="#1C6847"/>
<path d="M18.5698 11.8568C18.8804 11.8627 19.1348 12.0947 18.7977 12.31C18.4891 12.3692 18.2782 12.0774 18.5698 11.8568Z" fill="white"/>
<path d="M18.5439 10.8965C18.571 10.9213 18.6611 11.1386 18.6807 11.1836C18.9504 11.8025 19.5509 12.0521 20.1621 12.2607C20.9813 12.5404 21.2627 13.0566 21.6006 13.7764C21.697 13.5675 21.803 13.3448 21.9902 13.1992C22.5183 12.7888 23.2098 12.8014 23.8291 12.8525C24.2132 13.5515 24.5872 14.335 24.9492 15.0518C24.7432 15.1782 24.671 15.2805 24.5225 15.4648C24.201 15.1442 24.0247 14.9621 23.5713 14.8359C23.4694 14.9566 23.3511 15.1308 23.1924 15.1533C22.9432 15.0587 23.0527 14.62 22.9287 14.502C22.8051 14.5587 22.6942 14.8533 22.5361 14.8867C21.8102 15.0395 22.2009 14.0953 21.3535 14.5068C20.7366 13.8522 20.404 13.5818 19.4893 13.4043C20.1328 13.8989 20.6031 13.8844 21.043 14.6777C20.885 14.798 20.8019 14.8335 20.6123 14.8945C20.1358 14.7291 19.6815 14.19 19.1123 14.4688L19.1084 14.5C19.1836 14.553 19.2895 14.5662 19.3779 14.5938C20.0942 14.8169 20.3124 15.2353 20.3174 15.9258C19.7257 15.6992 19.404 15.6402 18.8018 15.875C19.2168 15.8954 19.432 15.8933 19.834 16.0488C20.0557 16.1347 20.4285 16.4331 20.5928 16.4492C20.6888 16.3644 20.6679 16.0185 20.6738 15.8877C20.7329 15.8118 20.7837 15.7323 20.8369 15.6523C20.8438 15.5501 20.8428 15.4356 20.8438 15.332C21.2555 15.1901 21.3733 15.1205 21.7051 14.8574C21.9549 15.3107 22.3813 15.2325 22.8359 15.2012C23.1407 15.4856 23.4118 15.5083 23.7646 15.2969C24.0179 15.4853 24.1435 15.6566 24.2959 15.9326C24.3718 16.0703 24.4521 16.375 24.5605 16.459C24.6919 16.4043 24.762 15.671 24.9102 15.5273C24.9649 15.4744 25.0144 15.4127 25.0801 15.3564L25.6357 16.5059C25.4854 16.7709 25.4078 16.9662 25.3574 17.2637C24.7191 16.9405 24.3379 17.0428 23.7158 17.3262C23.7002 17.1167 23.6365 16.9136 23.5303 16.7314C23.2102 16.1818 22.528 16.0166 21.9805 16.3379C21.6942 16.5087 21.4895 16.7857 21.4141 17.1064C21.2362 17.8322 21.8956 18.1639 22.501 18.3027L22.4385 18.7168C22.4333 18.9122 22.4436 18.9897 22.4775 19.1768C21.6564 19.5125 21.0471 18.7816 20.7607 18.958C20.6845 19.0853 20.7361 19.2289 20.7607 19.3633C20.8829 20.0315 21.4791 20.4538 22.0576 20.79C21.925 21.1863 21.787 21.5398 21.6348 21.9307C22.1559 21.6351 22.6252 21.3432 22.8799 20.7812C24.1399 21.0812 24.9398 21.1316 26.2236 20.8027C26.631 21.3591 26.9435 21.6249 27.5352 21.9736C27.3974 21.6186 27.2032 21.2429 27.1113 20.8701C27.0969 20.8112 27.1321 20.7874 27.167 20.7471C27.2004 20.7437 27.2136 20.7362 27.2441 20.7529C27.4449 20.8627 27.7559 22.1243 27.8418 22.4111C27.513 22.7739 27.0939 23.2031 26.7295 23.5176C25.5158 24.5651 23.0559 26.1634 21.5059 26.5576C21.6891 26.1021 21.912 25.6627 22.1709 25.2441C22.5392 24.6551 23.0928 24.0333 22.5938 23.2598C22.5114 23.1321 22.0716 22.8655 21.9209 22.7842C20.3003 21.9098 19.4617 20.2691 20.2695 18.5479C20.3741 18.4944 20.5299 18.4319 20.5898 18.3408C20.6348 18.2014 20.5054 18.0178 20.4502 17.8838C20.282 17.4753 20.1909 16.9482 19.7295 16.7559C19.2426 16.5484 18.4802 16.9378 18.1963 16.3125C18.0025 15.8854 18.1318 15.4032 18.2939 14.998C18.1961 14.8092 18.0109 14.5762 17.8887 14.3545C17.684 13.9833 17.5288 13.3653 17.6982 12.958C17.7824 12.7804 17.9465 12.5816 17.9785 12.3848C18.0664 11.845 17.9625 11.1952 18.5439 10.8965ZM22.7969 22.416C22.8955 22.7408 23.4084 23.1762 23.708 23.3379C24.1263 23.5677 24.6209 23.6236 25.0811 23.4922C25.5336 23.3616 25.9327 23.0635 26.1621 22.6562C26.1949 22.5833 26.2259 22.5482 26.2168 22.4795C26.1252 22.5272 25.9434 22.7263 25.8574 22.8037C25.1185 23.4681 24.137 23.4535 23.3672 22.8506C23.1881 22.7103 23.0163 22.4552 22.7969 22.416ZM22.959 21.252C22.9082 21.296 22.8382 21.3491 22.833 21.4209C22.8287 21.4806 22.848 21.5314 22.8916 21.5732C23.1701 21.8402 24.7897 21.8599 25.1855 21.8262C25.4078 21.8072 26.0578 21.7768 26.2012 21.6006C26.2309 21.5641 26.2408 21.5214 26.2334 21.4766C26.2219 21.4075 26.1756 21.3518 26.1279 21.3018C25.9837 21.3054 25.9751 21.3284 25.8594 21.417C25.6009 21.3507 25.6401 21.3119 25.415 21.498C25.3437 21.4781 25.2942 21.4478 25.2217 21.4238C25.1681 21.4063 24.8802 21.5342 24.8555 21.5273C24.6014 21.4492 24.6364 21.3226 24.3662 21.5234C24.2473 21.4903 24.2413 21.3962 24.1025 21.3896C24.016 21.3861 23.7904 21.5233 23.752 21.4941C23.5425 21.3353 23.5444 21.2588 23.3027 21.416L23.2832 21.4287C23.2075 21.3752 23.1972 21.3576 23.1455 21.2842C23.0748 21.2471 23.0374 21.252 22.959 21.252ZM20.8848 20.3809C20.9453 20.6527 21.1018 21.2097 21.4961 21.1143C21.5 21.0336 21.5053 20.9917 21.4424 20.9287C21.3058 20.7921 21.0528 20.4581 20.8848 20.3809ZM20.167 12.8662C20.1149 12.8845 20.0772 12.9304 20.0703 12.9844C20.0635 13.0383 20.0888 13.0918 20.1348 13.1221C20.1807 13.1522 20.24 13.1545 20.2881 13.1279C20.3544 13.0912 20.3812 13.0105 20.3496 12.9424C20.318 12.8744 20.2386 12.8412 20.167 12.8662ZM18.5771 12.7275C18.3722 12.9374 18.4793 13.1389 18.7617 13.124C18.7953 13.1221 18.8288 13.1193 18.8623 13.1162C19.1175 12.8802 18.8396 12.6994 18.5771 12.7275ZM19.4092 12.5352C19.198 12.7125 19.2603 12.968 19.5273 12.9902C19.7356 12.8154 19.6549 12.6144 19.4092 12.5352Z" fill="#1C6847"/>
<path d="M27.9066 22.7981L27.9364 22.8141C28.1059 23.3337 28.2594 23.9434 28.4061 24.4771C29.0114 26.6804 29.4723 28.9639 28.7096 31.1933C28.7014 31.146 28.6923 31.0989 28.6824 31.0519C28.4421 29.9245 27.1323 29.1787 25.9968 29.4315C25.2743 29.5922 24.6631 30.23 24.8121 31.0087C24.8777 31.3518 25.1904 31.603 25.4839 31.7776C24.8314 30.8462 25.798 29.962 26.612 30.4564C26.8534 30.603 27.0242 30.8393 27.0856 31.1115C27.1727 31.5008 27.0451 31.8321 26.8373 32.1546C26.6963 32.3322 26.4889 32.5389 26.2075 32.6698C24.1985 33.605 21.699 31.7829 20.6834 30.2192C20.4011 29.7847 21.1257 27.6222 21.3739 26.9049C21.8093 26.8239 22.3447 26.5724 22.7441 26.3785C24.6349 25.4412 26.3745 24.2348 27.9066 22.7981Z" fill="#1C6847"/>
<path d="M24.8779 18C25.0746 18.0156 25.5232 18.3016 25.6621 18.4395C25.7063 18.4835 25.7844 18.6336 25.8154 18.6934C26.0331 18.7273 26.1755 18.7531 26.3457 18.9033C26.5006 19.0428 26.5916 19.238 26.5977 19.4443C26.6082 19.6818 26.5181 19.9135 26.3496 20.084C25.9772 20.4652 25.2596 20.3964 24.7314 20.4033C24.3573 20.4021 23.8005 20.4329 23.4814 20.2588C23.261 20.139 23.0984 19.9366 23.0303 19.6982C22.9741 19.4997 22.9942 19.294 23.0996 19.1143C23.2644 18.8332 23.5515 18.8135 23.8516 18.7383C23.95 18.2378 24.4039 18.0584 24.8779 18ZM23.7715 19.6348C23.7112 19.6825 23.6781 19.6997 23.6611 19.7754C23.6868 19.9159 23.7647 19.946 23.9033 19.9697C23.9661 19.9212 23.9936 19.9067 24.0117 19.8301C23.9858 19.6883 23.9116 19.6586 23.7715 19.6348ZM25.627 19.6504C25.5898 19.7284 25.576 19.7475 25.5879 19.834C25.6638 19.9601 25.7467 19.9542 25.8848 19.915C25.9436 19.8227 25.9389 19.859 25.9258 19.7725C25.8622 19.6866 25.7537 19.6685 25.6514 19.6533L25.627 19.6504Z" fill="#1C6847"/>
<path d="M7.33301 16.9785C7.42268 17.0216 7.51153 17.269 7.66797 17.3438C7.77502 17.3948 7.8555 17.4181 7.96777 17.4541C8.06818 17.8156 8.1326 17.8555 8.49512 17.9424C8.66967 18.2734 8.83114 18.2428 9.1748 18.291C9.18721 18.4468 9.22566 18.6203 9.13281 18.7432C9.01103 18.8017 9.06307 18.7426 8.92285 18.7598C8.88557 18.9255 9.03607 19.1746 8.96875 19.373C8.86781 19.6704 8.41512 19.5639 8.18164 19.501C8.40874 19.6838 8.56326 19.751 8.57031 20.0596C8.34138 20.6235 8.02392 20.1206 7.58691 20.0811C7.43312 20.0664 7.32543 19.6916 7.25879 19.5371C7.01566 19.5349 6.92698 19.5415 6.70117 19.4404C6.62385 19.2956 6.54409 19.152 6.46191 19.0098C6.55589 18.7821 6.60318 18.5788 6.65527 18.3389C7.10766 18.1287 7.06639 17.9898 7.05469 17.5312C7.19929 17.3333 7.24323 17.2035 7.33301 16.9785ZM8.14648 18.7627C8.07921 18.6034 7.89324 18.5272 7.73047 18.5918C7.56599 18.6573 7.48693 18.8417 7.55469 19.0029C7.62281 19.1643 7.81204 19.2402 7.97559 19.1719C8.13691 19.1043 8.21343 18.9219 8.14648 18.7627Z" fill="#F9A90D"/>
<path d="M5.87207 16.1494L6.09375 16.0723C6.19313 16.6418 6.53318 16.8104 7.10059 16.8047C7.09261 16.9041 7.07979 17.0399 7.05371 17.1348C6.99313 17.3544 6.9141 17.2531 6.79102 17.3213C6.74887 17.6482 7.25648 18.2791 6.31055 17.9658C6.47216 18.3589 6.50463 18.6053 6.2627 18.9873C5.95931 19.231 5.70782 19.0051 5.55859 18.7354C4.87635 18.756 4.75779 18.465 4.875 17.8584L4.57715 17.7383C4.82331 17.2938 5.3699 16.4876 5.66699 16.0498L5.87207 16.1494ZM5.47363 17.5098C5.02885 17.6275 5.16368 18.1277 5.61035 18.1426C5.71216 18.0954 5.7856 18.0538 5.83008 17.9414C5.86406 17.8566 5.85884 17.7612 5.81543 17.6807C5.77188 17.6011 5.69645 17.5429 5.60742 17.5205C5.56477 17.5097 5.51742 17.5095 5.47363 17.5098Z" fill="#F9A90D"/>
<path d="M20.999 19.225C21.0458 19.2382 21.2275 19.3234 21.283 19.3488C21.7216 19.5493 22.0081 19.6562 22.4829 19.4988C22.7394 19.7126 23.0169 19.9271 23.3488 20.0464C24.1076 20.3191 25.2162 20.2939 25.9651 19.993C26.1618 19.9139 26.3578 19.6985 26.5228 19.6001C26.5683 19.5729 26.7048 19.6162 26.893 19.5346C27.0218 19.8413 27.1557 20.2372 27.2678 20.5533L27.0123 20.4928C26.9901 20.3661 27.0117 20.2385 26.9628 20.1111C26.753 20.0332 26.5624 20.3744 26.271 20.4788C25.9744 20.5852 25.8555 20.5962 25.5517 20.6574C24.676 20.8338 23.8526 20.8155 23.0012 20.5318C22.7754 20.4567 22.618 20.2916 22.4205 20.1735C22.3532 20.1334 22.187 20.0705 22.1071 20.0394C22.127 20.2056 22.1221 20.3008 22.1154 20.4654C21.6531 20.2163 21.0758 19.7623 20.999 19.225Z" fill="#1C6847"/>
<path d="M22.4714 10.6347C22.5196 10.6341 22.5484 10.6387 22.5953 10.6448C22.7436 10.7821 23.5461 12.31 23.703 12.5965C23.5353 12.5736 23.4094 12.5561 23.2436 12.5168C22.9156 12.1268 22.4431 11.6472 21.913 11.5587C21.7773 11.536 21.3191 11.6262 21.3571 11.8125C21.4164 12.1027 21.9379 12.1209 22.1583 12.2317C22.31 12.3042 22.3651 12.3265 22.4871 12.4303L22.5092 12.4492L22.6297 12.6348C21.7971 12.8737 21.7906 12.5874 21.1105 12.2089C20.9166 12.1008 20.7094 12.0175 20.494 11.961C20.366 11.9265 19.9302 11.8253 19.8898 11.7426C19.7514 11.4592 20.6922 11.1212 20.8637 11.0543C21.1207 10.9692 21.3726 10.7679 21.6417 10.919C21.7827 10.9983 22.0193 11.3392 22.139 11.1469C22.2927 10.9 22.2053 10.809 22.4714 10.6347Z" fill="#1C6847"/>
<path d="M18.6924 16.8582C19.2233 16.8011 20.2148 17.6975 20.0576 18.2425L20.0254 18.2547C20.0054 18.2328 19.9845 18.2116 19.9627 18.1913C19.7458 17.9871 19.428 18.0027 19.149 18.011C19.3727 18.2195 19.4986 18.2491 19.7091 18.5288L19.595 18.9438C19.5449 19.1346 19.5033 19.334 19.4604 19.5271C19.4489 19.5234 19.4374 19.5195 19.4259 19.5156C18.6346 19.2407 18.8754 18.6903 18.5831 18.0871C18.4621 17.8373 17.9121 17.3523 18.0058 17.1134C18.1359 16.9719 18.5017 16.8919 18.6924 16.8582Z" fill="#1C6847"/>
<path d="M22.4502 16.4475C22.9004 16.3667 23.3328 16.6566 23.4219 17.0979C23.5107 17.5391 23.223 17.9687 22.7754 18.0627C22.4799 18.1247 22.1729 18.0254 21.9727 17.8029C21.7726 17.5805 21.7099 17.2691 21.8086 16.9885C21.9073 16.7077 22.1529 16.5009 22.4502 16.4475ZM22.4941 16.966C22.1849 17.2391 22.2671 17.7129 22.7393 17.6174C23.0728 17.3178 22.9237 16.9113 22.4941 16.966Z" fill="#1C6847"/>
<path d="M25.7637 16.9111C25.8295 16.9559 26.3473 18.0995 26.3342 18.1956C25.8128 17.8655 25.5626 17.5299 25.7637 16.9111Z" fill="#1C6847"/>
<path d="M5.83008 34.6614C5.97628 34.6842 6.59008 34.8793 6.62579 35.002C6.28195 35.1575 6.04481 34.8786 5.83008 34.6614Z" fill="#EB1C40"/>
</svg>
