<svg width="121" height="50" viewBox="0 0 121 50" fill="none" xmlns="http://www.w3.org/2000/svg">
<path d="M66.582 31H61.722V30.622L63.126 30.406L61.542 26.266H57.492L55.98 30.1L57.582 30.568V31H53.82V30.568L55.188 30.1L59.616 18.976H60.498L65.196 30.406L66.582 30.568V31ZM61.272 25.6L59.508 21.226L57.744 25.6H61.272ZM72.4996 22C72.8116 22 73.0576 22.078 73.2376 22.234C73.4176 22.378 73.5076 22.582 73.5076 22.846C73.5076 23.302 73.3336 23.602 72.9856 23.746C72.7936 23.59 72.4456 23.512 71.9416 23.512C71.4376 23.512 70.9516 23.68 70.4836 24.016C70.0276 24.34 69.7996 24.712 69.7996 25.132V30.478L71.4196 30.568V31H66.8476V30.568L68.0356 30.496V22.81L66.6136 22.738V22.324L69.7996 22.126L69.6916 24.34H69.7636C69.9676 23.692 70.3396 23.14 70.8796 22.684C71.4316 22.228 71.9716 22 72.4996 22ZM78.1507 31.216C76.2307 31.216 75.2707 30.292 75.2707 28.444C75.2707 27.088 75.3127 25.204 75.3967 22.792L73.9567 22.72V22.306L77.1607 22.108C77.0767 25.276 77.0347 27.43 77.0347 28.57C77.0347 29.254 77.1607 29.764 77.4127 30.1C77.6647 30.436 78.0847 30.604 78.6727 30.604C79.2727 30.604 79.8367 30.274 80.3647 29.614C80.8927 28.942 81.1567 28.354 81.1567 27.85V22.792L79.6627 22.72V22.306L82.9207 22.108V30.442L84.4507 30.514L84.4687 30.928L81.2287 31.144L81.3547 29.2H81.1387C80.5147 30.544 79.5187 31.216 78.1507 31.216ZM88.3458 24.124C88.8858 22.732 89.9718 22.036 91.6038 22.036C92.4198 22.036 93.0798 22.282 93.5838 22.774C94.0878 23.254 94.3398 23.944 94.3398 24.844C94.3398 26.392 94.2918 28.27 94.1958 30.478L95.4378 30.568V31H91.4598V30.568L92.4318 30.496C92.5278 27.784 92.5758 26.23 92.5758 25.834C92.5758 25.438 92.5698 25.138 92.5578 24.934C92.5458 24.718 92.5098 24.46 92.4498 24.16C92.4018 23.848 92.3238 23.602 92.2158 23.422C91.9518 22.978 91.5378 22.756 90.9738 22.756C90.2058 22.756 89.5758 23.074 89.0838 23.71C88.5918 24.346 88.3458 25.036 88.3458 25.78V30.478L89.6958 30.568V31H85.3938V30.568L86.5818 30.478V22.864L85.0518 22.792V22.378L88.2738 22.162L88.1838 24.106L88.3458 24.124ZM99.6335 19.282C99.6335 19.57 99.5315 19.822 99.3275 20.038C99.1235 20.242 98.8655 20.344 98.5535 20.344C98.2535 20.344 98.0015 20.242 97.7975 20.038C97.5935 19.834 97.4915 19.582 97.4915 19.282C97.4915 18.97 97.5935 18.712 97.7975 18.508C98.0015 18.292 98.2535 18.184 98.5535 18.184C98.8535 18.184 99.1055 18.292 99.3095 18.508C99.5255 18.724 99.6335 18.982 99.6335 19.282ZM96.5735 31V30.568L97.7615 30.478V22.828L96.1775 22.774V22.36L99.5255 22.126V30.478L100.714 30.568V31H96.5735ZM107.175 22.216H110.703V22.63L109.371 22.972L105.933 25.924L109.929 30.442L111.135 30.568V31H106.869V30.568L107.877 30.478L104.529 26.536V30.478L105.645 30.568V31H101.595V30.568L102.765 30.478V18.076L101.181 18.004L101.163 17.59L104.529 17.212V26.32L108.345 22.972L107.175 22.63V22.216ZM113.771 29.056C113.771 29.836 114.089 30.298 114.725 30.442C114.869 30.478 115.007 30.496 115.139 30.496C115.595 30.496 116.069 30.304 116.561 29.92C117.053 29.524 117.311 28.996 117.335 28.336V26.788C114.959 26.812 113.771 27.568 113.771 29.056ZM114.491 31.216C113.807 31.216 113.219 31.03 112.727 30.658C112.247 30.274 112.007 29.74 112.007 29.056C112.019 28.132 112.481 27.442 113.393 26.986C114.317 26.53 115.631 26.302 117.335 26.302V24.754C117.335 23.23 116.783 22.468 115.679 22.468C115.115 22.468 114.659 22.702 114.311 23.17C114.071 23.494 113.951 23.896 113.951 24.376C113.951 24.58 113.975 24.796 114.023 25.024C113.855 25.144 113.681 25.204 113.501 25.204C113.333 25.204 113.165 25.168 112.997 25.096C112.613 24.952 112.421 24.676 112.421 24.268C112.421 23.716 112.619 23.26 113.015 22.9C113.663 22.312 114.557 22.018 115.697 22.018C116.837 22.018 117.665 22.264 118.181 22.756C118.697 23.236 118.955 23.998 118.955 25.042V30.496L120.467 30.568L120.485 30.982L117.479 31.198L117.317 29.596C116.765 30.676 115.823 31.216 114.491 31.216Z" fill="white"/>
<circle cx="25" cy="25" r="25" fill="#FFFEFE"/>
<path d="M15.4749 22.268C18.5699 22.1551 21.3337 24.1535 22.9936 26.5904C23.276 27.0041 23.5328 27.4341 23.7625 27.8782C24.3205 28.9467 24.8305 30.2749 26.0274 30.865C26.318 31.0082 26.7487 31.0222 27.0487 30.9005C27.4189 30.7504 27.5518 30.5203 27.6984 30.1823C27.3221 30.3158 26.8493 30.3946 26.4909 30.17C26.0475 29.8921 26.0504 29.2916 26.3226 28.8962C26.4706 28.6788 26.7014 28.5294 26.963 28.4814C28.0799 28.2797 28.9718 29.8526 29.5334 30.6027C30.349 31.6923 31.0706 32.8415 32.2425 33.6129C33.3725 34.3566 34.5958 34.8258 35.9661 34.5808C35.6089 35.0924 35.3306 35.6131 35.0293 36.1507C34.6766 36.7797 34.351 37.7263 33.8041 38.2088C32.8669 39.0356 31.3093 38.7983 30.2181 38.4657C29.1794 38.1582 28.2431 37.6898 27.2849 37.2064C26.675 36.8986 26.0402 36.5521 25.4097 36.2975C24.5213 35.9352 23.5779 35.7202 22.6179 35.6614C22.7559 35.1175 22.8139 34.8478 23.0281 34.3298C22.9778 34.2446 22.8414 34.0849 22.7719 33.9994C22.5763 33.7589 22.4967 33.6075 22.3706 33.3311C22.9006 33.8746 23.5007 34.3253 24.1498 34.7246C24.675 35.0292 25.2213 35.2975 25.7289 35.6261C26.0453 35.831 26.3662 36.1685 26.6917 36.3453C27.0216 36.5246 27.4272 36.7008 27.7724 36.8534C28.5694 37.1984 29.3713 37.5323 30.1778 37.855C30.4313 37.6906 30.5119 37.5305 30.6589 37.2757C30.8779 36.8959 30.5142 36.8124 30.2157 36.6226C29.9321 36.4396 29.6511 36.2526 29.3731 36.0615C28.9912 35.8011 28.612 35.5368 28.2356 35.2687C28.1133 35.1829 27.9906 35.0932 27.8674 35.0091C27.4059 34.6942 27.0048 34.2869 26.5906 33.914C25.8373 33.2449 25.0875 32.572 24.3414 31.8951C24.0207 31.6039 23.7209 31.3092 23.4037 31.0186C22.689 30.3638 21.8986 30.6174 21.0416 30.6763C20.9503 31.5194 20.9329 32.6126 20.342 33.3015C19.8038 33.9291 19.2158 34.4965 18.7239 35.1699C18.4092 35.6007 17.8254 36.1282 17.3038 35.6629C16.9529 35.4453 16.8889 34.7546 16.7089 34.5247C16.3435 34.0579 16.2915 34.2213 16.2459 33.5496C15.9602 33.7498 15.6543 33.9448 15.4409 34.2236C15.2837 34.429 15.2463 34.7133 15.1436 34.934C14.9083 35.44 14.3721 36.6147 14.0353 37.0025C14.2503 36.1208 14.873 35.4063 15.0535 34.5375C15.0811 34.4048 14.5835 33.8459 14.4755 33.7053C13.7848 32.7918 13.1587 31.8329 12.6015 30.8353C11.4737 28.791 10.7451 26.8082 11.6015 24.5157C12.2129 22.8792 13.8492 22.3479 15.4749 22.268Z" fill="#EB1C40"/>
<path d="M15.2034 26.7115C15.3491 26.7085 15.5 26.7574 15.6385 26.7979C16.6434 27.0919 16.4162 28.2638 17.3475 28.7777C17.4224 28.819 17.4581 28.8418 17.5484 28.8199C17.7213 28.6936 17.9254 28.2667 18.0366 28.0659C18.4276 28.086 18.75 27.9223 18.9881 27.9635C19.0428 27.9936 19.0847 28.0312 19.1127 28.0873C19.369 28.6017 18.8515 28.7651 18.5855 29.0924C18.4735 29.2301 18.4219 29.4155 18.3722 29.576C18.156 29.4928 17.8694 29.3729 17.6459 29.4624C17.2018 29.6402 17.2809 30.3614 17.5806 30.633C17.6336 30.6809 17.7176 30.7165 17.7814 30.7444C18.0129 31.2238 18.678 31.3416 19.1648 31.3989C19.2785 31.4123 19.3776 31.4204 19.4718 31.4904C19.4962 31.5283 19.5172 31.5737 19.5035 31.6198C19.2591 32.4404 18.5502 33.4089 17.5725 33.2599C17.3576 33.1496 16.8287 32.5032 16.5833 32.2781C16.6557 32.2489 16.7272 32.2175 16.7977 32.184C16.8992 32.1349 17.0777 32.0035 17.1129 31.9003C17.0128 31.8593 16.6812 32.0635 16.5501 32.0973C16.4379 32.1262 16.3741 32.1388 16.2579 32.1573C16.2052 32.0679 16.1604 31.945 16.1211 31.8468C15.7089 32.0598 14.8965 32.4106 14.6446 31.808C14.585 31.6652 14.5997 31.534 14.6029 31.3822C14.5048 31.2959 14.3859 31.2101 14.4246 31.0716C14.5048 31.0422 14.5609 31.0326 14.6435 31.0161C14.6981 30.9676 14.7269 30.9518 14.7448 30.8839C14.7501 30.886 14.2481 30.8338 14.1204 30.7983C14.1096 30.6753 14.11 30.5248 14.107 30.3993C14.2154 30.3726 14.3706 30.3457 14.4656 30.2879C14.6208 30.1934 14.7275 29.9862 14.6002 29.8234C14.5499 29.7592 14.4741 29.7191 14.3919 29.7132C14.2921 29.7062 14.196 29.751 14.1247 29.8172C14.0995 29.8909 14.0992 29.86 14.1262 29.9335C14.2557 29.9747 14.2818 29.7828 14.4649 29.8824C14.5126 29.9668 14.5133 30.0962 14.4242 30.1365C14.1487 30.2612 13.4383 30.5822 13.5749 29.9745C13.7398 29.2401 14.0357 28.4753 14.3091 27.777C14.382 27.5908 15.0507 26.8385 15.2034 26.7115Z" fill="white"/>
<path d="M15.079 28.3475C15.2619 28.328 15.8202 28.5317 15.9522 28.6458L15.9339 28.6695C15.704 28.6846 15.6416 28.6461 15.4295 28.5644L15.3476 28.5435L15.3241 28.5665C15.3215 28.6337 15.3282 28.6641 15.3389 28.7311C15.2544 28.8026 15.0735 28.8412 14.9621 28.8512C14.5963 28.6806 14.786 28.4525 15.079 28.3475Z" fill="#EB1C40"/>
<path d="M15.3469 27.7203C15.7488 27.7469 15.9241 27.9782 16.2015 28.2516C16.0186 28.1953 15.7516 28.0627 15.5671 27.9804C15.1847 27.8575 14.9571 28.0024 14.654 28.057L14.6426 28.006C14.7307 27.8153 15.1545 27.7397 15.3469 27.7203Z" fill="#EB1C40"/>
<path d="M20.7274 30.6176C20.7595 30.6312 20.7495 30.6287 20.7742 30.6604C20.839 31.3589 20.7488 32.1713 20.4542 32.8164C20.2838 33.1894 19.5804 33.8422 19.2995 34.1809C18.942 34.5718 18.6445 35.0426 18.2618 35.4096C17.5498 36.0923 17.1978 35.2941 16.9989 34.7329C16.8808 34.35 16.7365 34.3317 16.53 34.0126C16.1921 33.4905 16.5986 33.2197 17.004 32.9794C17.0772 33.0686 17.1506 33.1566 17.2291 33.2408C17.6879 33.7306 18.5173 33.3478 18.909 32.9606C19.3185 32.5558 19.6809 31.9513 19.6889 31.3708C20.1003 31.1126 20.3501 30.8721 20.7274 30.6176Z" fill="white"/>
<path d="M20.8203 26.6273C20.9047 26.6215 20.905 26.6072 20.9622 26.6422C20.9693 26.6944 20.7284 27.2601 20.6668 27.4409C20.3861 28.2646 20.4245 29.1831 19.8422 29.8828C19.6396 30.1263 19.1319 30.5347 19.081 30.6242C19.0981 30.6489 19.1024 30.6678 19.1267 30.6652C19.5066 30.6252 19.7587 30.2037 20.0025 29.9836C20.2701 29.742 20.5076 29.7054 20.8002 29.547C21.0116 29.4325 21.1901 29.324 21.3809 29.2102C21.2662 29.6336 21.2214 29.9956 20.8518 30.2859C20.6088 30.4767 20.3618 30.6659 20.1163 30.8531C19.8564 31.0649 19.6659 31.076 19.4607 31.2668C18.9987 31.231 18.3596 31.0667 18.0137 30.7539C18.8772 30.2888 18.3451 29.9959 18.6507 29.3338C18.8414 28.9207 19.8608 28.5177 19.1154 27.842C18.9446 27.6872 18.3345 27.8765 18.1087 27.9218C18.344 27.5465 18.6458 27.1368 19.0662 26.9587C19.5933 26.7353 20.2525 26.6707 20.8203 26.6273Z" fill="white"/>
<path d="M19.9465 27.1278C19.9927 27.1241 19.9921 27.127 20.0368 27.1416L20.0357 27.1847C19.9676 27.2617 19.8096 27.3512 19.7169 27.4094C19.6734 27.4176 19.674 27.4136 19.6315 27.3984L19.6309 27.3543C19.7078 27.2252 19.8096 27.1769 19.9465 27.1278Z" fill="#EB1C40"/>
<path d="M20.0408 30.1845C20.122 30.1781 20.1758 30.1678 20.2545 30.1887L20.2716 30.2238L20.2364 30.2965C20.1541 30.3039 20.0944 30.3153 20.0145 30.2949L19.998 30.2535L20.0408 30.1845Z" fill="#EB1C40"/>
<path d="M17.0022 24.7045C17.7771 24.5959 18.6425 24.9674 19.238 25.4219C19.6599 25.7439 19.8482 26.047 20.0533 26.5149C19.666 26.5628 19.3332 26.626 18.9723 26.7786C18.8281 26.8396 18.749 26.9142 18.6239 27.0061C18.5422 27.0029 18.5175 26.9686 18.4396 26.9187C18.111 26.7021 17.7193 26.4851 17.3215 26.4394C17.0757 26.4113 16.823 26.4108 16.5904 26.326C16.4707 26.2823 16.3405 26.1998 16.2499 26.1133C15.911 25.7897 15.7211 25.7554 15.2607 25.7121C15.6555 25.0428 16.253 24.7853 17.0022 24.7045Z" fill="white"/>
<path d="M31.7485 34.454C32.176 34.4406 32.5317 34.5881 32.9249 34.7259C33.4629 34.9145 34.0289 35.1484 34.2685 35.7035C34.5862 36.4394 33.605 37.7115 32.8019 37.3308C32.7896 37.0283 33.155 36.7598 33.1937 36.3096C33.2143 36.0783 33.1399 35.8486 32.987 35.6717C32.4595 35.0586 31.5646 34.9833 30.9383 35.5066C30.7373 34.8755 31.1357 34.5355 31.7485 34.454Z" fill="white"/>
<path d="M15.2718 25.8925C16.1056 25.9654 15.8582 26.1735 16.5081 26.5022C16.6557 26.5769 17.0461 26.5912 17.2369 26.6116C17.7122 26.6624 18.0778 26.8961 18.4612 27.1541C18.1137 27.5473 17.8262 27.9882 17.6078 28.4628C17.5757 28.5348 17.5355 28.6114 17.5001 28.6825C16.8717 28.2428 16.6706 27.6389 16.3453 26.968C16.3777 26.8849 16.419 26.8133 16.3988 26.7317L16.3623 26.7183C16.2773 26.7638 16.2594 26.815 16.2147 26.8979C15.9186 26.651 15.6092 26.573 15.2396 26.4791C15.1142 26.5242 14.9888 26.604 14.879 26.522C14.8046 26.3118 15.0714 25.9894 15.2718 25.8925Z" fill="white"/>
<path d="M17.3064 26.8927L17.331 26.9257C17.3172 27.0509 17.2533 27.3018 17.1924 27.412C17.0727 27.189 17.1098 27.0532 17.3064 26.8927Z" fill="#EB1C40"/>
<path d="M17.6467 27.1402C17.8094 27.2489 17.7289 27.437 17.6433 27.565C17.6314 27.5564 17.6069 27.5286 17.5955 27.5164C17.5853 27.3959 17.6216 27.2604 17.6467 27.1402Z" fill="#EB1C40"/>
<path d="M31.9584 36.1581C32.4955 36.1071 32.6985 36.4776 32.6771 36.9487C32.5349 36.8814 32.1838 36.6899 32.0547 36.8352C32.0958 36.932 32.233 36.9739 32.3371 37.0273C32.5448 37.1339 32.8299 37.6712 32.6965 37.8757C32.3579 37.9962 32.2162 37.7142 32.0923 37.4763C31.9257 37.5474 31.8202 37.6057 31.681 37.7192C31.4363 37.9469 31.3097 38.0015 31.3673 38.3494C31.057 38.2363 30.6577 38.0944 30.3652 37.9574C30.8104 37.4971 30.9069 37.2427 30.948 36.6312C31.2397 36.4777 31.651 36.2462 31.9584 36.1581Z" fill="white"/>
<path d="M18.9052 23.785C19.8708 23.7233 19.9398 24.924 19.6899 25.5844C19.5411 25.4402 19.4447 25.3531 19.2812 25.2259C18.7669 24.8675 18.551 24.7887 17.9619 24.5733C18.1199 24.1217 18.447 23.9052 18.9052 23.785Z" fill="white"/>
<path d="M17.7002 29.6182C17.897 29.608 18.0968 29.6234 18.2492 29.7629C18.3235 29.8306 18.3647 29.9264 18.3623 30.026C18.3586 30.1892 18.2617 30.3248 18.1488 30.4346C18.0505 30.4347 17.9472 30.4185 17.8518 30.4199C17.3926 30.4264 17.4525 29.8641 17.7002 29.6182Z" fill="white"/>
<path d="M31.9821 37.6925C32.0604 37.7296 32.1685 37.923 32.272 37.9809C32.4445 38.0775 32.7495 38.0405 32.7968 38.268C32.7881 38.2838 32.7793 38.2994 32.7685 38.3139C32.5511 38.6059 31.9639 38.072 31.8373 38.0874C31.821 38.1551 31.8363 38.1537 31.8713 38.2279C32.0329 38.3516 32.2201 38.3618 32.3969 38.5271L32.3766 38.546C32.1555 38.5048 31.9332 38.4938 31.7024 38.4525C31.6917 38.4447 31.6812 38.4367 31.6708 38.4286C31.5963 38.3698 31.5433 38.3315 31.5322 38.2395C31.5648 38.0446 31.8277 37.8442 31.9821 37.6925Z" fill="white"/>
<path d="M32.8438 37.5048C33.0935 37.6531 33.1695 37.6862 33.1207 37.9827C33.0558 38.0089 33.0454 38.0126 32.9757 38.0176C32.8689 37.9347 32.8815 37.685 32.8438 37.5048Z" fill="white"/>
<path d="M20.6543 11.6726C21.7647 11.5069 23.2197 12.1222 24.1055 12.7263C25.3142 13.5507 25.7279 13.8174 27.1895 13.9333C27.1854 14.0158 27.1825 14.0988 27.1816 14.1814C27.1785 14.8516 27.3841 15.5161 27.8701 16.0017C27.5702 16.4737 27.746 17.1612 27.8711 17.6716C27.7979 17.7403 27.5699 17.9618 27.5791 18.0622C27.637 18.5391 28.0728 18.9803 28.2354 19.407C28.5321 20.1864 28.5317 20.6806 29.4619 20.9265C29.492 21.7617 29.6887 22.4016 30.2119 23.072C30.8059 23.833 31.4434 24.1297 32.2979 24.5388C32.488 24.8163 31.5049 26.4267 31.3447 26.7878C30.8113 27.991 30.396 29.1933 30.2354 30.5017C29.721 29.6947 28.4684 28.2096 27.4883 27.9734C27.0521 27.8694 26.5913 27.9444 26.2129 28.1814C25.6997 28.4982 25.428 29.0292 25.2959 29.5905C24.6109 28.7584 24.2337 27.2941 23.5635 26.322C21.9534 23.9866 19.9814 22.5548 17.1621 21.9411C17.0829 21.9264 17.0033 21.912 16.9238 21.8982C15.1589 21.5924 13.8484 21.6836 12.3662 22.7048C12.7411 22.1192 12.9906 21.4854 13.3105 20.8747C13.6502 20.2265 14.054 19.5832 14.4404 18.9597C14.4997 19.0333 14.5955 19.1225 14.665 19.1911C14.7368 19.7469 14.8584 19.9419 15.4512 19.8933C15.7218 20.2913 15.9543 20.325 16.3965 20.1833C16.4798 20.6665 16.6985 20.6836 17.1465 20.6921C17.3889 21.1556 17.3199 21.1803 17.8779 21.2839C18.3818 21.8007 18.7552 21.3991 18.8096 20.8191C19.295 20.6186 19.2497 20.5161 19.2402 20.028C19.3217 19.9267 19.3515 19.8769 19.416 19.7634C19.417 19.653 19.3807 19.4386 19.3643 19.322C19.5772 19.1438 19.6182 19.1047 19.6689 18.8337C19.9824 18.6742 20.045 18.6456 20.0469 18.2859C20.8237 17.8296 19.7426 17.1276 19.3525 16.8737C19.1854 16.7649 18.9016 16.536 18.6875 16.5818L18.6807 16.6111C18.7931 16.723 18.9437 16.7165 19.0889 16.8552C19.2059 16.9671 19.3096 17.2465 19.4229 17.3112C19.6023 17.3725 19.7231 17.3376 19.8945 17.448C20.0456 17.5454 20.1507 17.8385 20.0527 17.9987C20.0146 18.0611 19.8534 18.0776 19.7744 18.0896C19.9759 18.6091 19.7554 18.7746 19.2627 18.5222C19.3898 18.8488 19.5116 19.0273 19.0918 19.1286C18.7675 19.0537 18.7636 19.0438 18.626 18.7478C18.273 18.8091 18.2089 18.6425 18.1436 18.3503C17.6074 18.2178 17.5718 18.1433 17.3916 17.6355C17.5964 17.4173 17.6036 17.3763 17.6133 17.0857C18.4573 16.5378 17.7895 15.9927 17.9873 15.8073C18.2156 15.8121 18.2638 15.9879 18.3486 16.1618C18.4573 16.181 18.5397 16.2226 18.626 16.1902C18.6795 15.7841 17.9453 15.6457 17.7148 15.5183C17.4966 15.3974 17.2419 15.1147 17.083 14.9206C17.3498 14.5408 17.5762 14.2225 17.6553 14.1032C18.3939 12.9885 19.2274 11.894 20.6543 11.6726ZM23.2959 23.8279C23.7372 24.1468 24.0429 24.3576 24.1973 24.8962C24.2108 24.9412 24.3917 25.1338 24.4297 25.1843C24.7295 25.5828 25.21 25.8807 25.7305 25.8279C26.1224 25.7879 26.3808 25.3724 26.6182 25.1111C26.6759 25.0471 26.8261 24.9435 26.9062 24.8874C26.9353 24.7425 26.9446 24.6662 27.043 24.5505C27.2784 24.2741 27.7905 24.1862 28.0879 24.4089C28.1343 24.4437 28.2219 24.5378 28.2656 24.5827C28.8859 24.4351 29.3631 24.4474 29.5352 25.1462C29.5417 25.1728 29.5477 25.1995 29.5537 25.2263C30.047 25.237 30.8005 25.4 30.1904 26.0632C30.0704 26.1935 29.8626 26.27 29.6934 26.3249L29.498 26.2429C29.2129 26.492 28.9359 26.7391 28.5273 26.7155C28.1076 26.6912 27.835 26.4406 27.627 26.1071C27.7953 25.0589 28.9829 25.6265 28.4395 25.9275C28.4046 25.9464 28.3688 25.964 28.333 25.9812L28.334 26.0085C28.535 26.1901 28.7978 25.9391 28.792 25.7165C28.6336 25.3334 28.303 25.1644 27.9004 25.322C27.6919 25.4039 27.5252 25.5651 27.4375 25.7683C27.1917 26.3424 27.6968 26.6539 28.166 26.8298C28.4178 26.9242 28.8259 26.9782 29.04 26.8493C29.3925 26.6467 29.4003 26.5516 29.8115 26.5437C29.9945 26.5402 30.5237 26.0753 30.5713 25.8767C30.7047 25.3196 30.3276 25.1827 29.8975 25.1296C29.7034 24.7918 29.5541 24.3655 29.1494 24.2654C28.8725 24.1969 28.5824 24.2326 28.3096 24.2927C27.5954 23.8463 27.1135 24.1041 26.6621 24.6902C26.5872 24.7871 26.4064 24.906 26.3223 25.0056C25.9479 25.4918 25.4322 25.5258 24.9062 25.2029C24.3903 24.8859 24.1562 24.1845 23.5645 23.9275C23.4839 23.8896 23.3872 23.8329 23.2959 23.8279ZM25.0488 22.9421C24.1836 23.1317 24.0657 23.9528 24.7705 24.3806C25.0427 24.5466 25.3719 24.597 25.6826 24.5202C26.0522 24.4311 26.4139 24.0432 26.71 23.78C26.5927 23.8231 26.4374 23.8752 26.3271 23.9265C25.9712 24.1023 25.5975 24.3684 25.2031 24.2292C25.0481 24.1745 24.9108 24.109 24.8359 23.9558C24.7874 23.8576 24.7808 23.744 24.8184 23.6413C24.9124 23.3874 25.2288 23.317 25.4727 23.3669C25.6458 23.4024 25.5083 23.6335 25.5791 23.7116C25.9391 23.6765 25.9723 22.9008 25.0488 22.9421ZM25.8389 19.6892C25.4761 19.725 25.3566 19.8456 25.1846 20.1521C24.4213 19.9291 24.0129 20.4592 23.7539 21.0827C23.2148 21.1367 23.3076 21.1517 22.7393 21.0368C23.0673 21.3739 23.4409 21.8317 23.8955 21.9782C24.0789 22.0373 24.3361 22.0305 24.5205 22.1032C24.8446 22.26 25.0399 22.4302 25.4268 22.4314C26.0101 22.4331 26.5394 22.2607 26.5635 21.5866C26.5904 20.8312 25.7947 20.7246 25.3037 21.1511C24.93 21.4759 25.5823 21.8118 25.8857 21.7458C25.9861 21.7359 25.9887 21.7325 26.0518 21.6745L26.0557 21.6247H26.0303C25.8703 21.6235 25.5874 21.5576 25.5273 21.3933C25.6274 20.9498 26.5328 21.0588 26.3564 21.697C26.3175 21.8381 26.2214 21.958 26.0908 22.028C25.5777 22.3055 24.8527 22.0927 24.4355 21.8269C24.3042 21.7434 23.7764 21.8529 23.6748 21.5866C23.6328 21.5151 23.615 21.3523 23.7246 21.3318C23.8146 21.3149 23.9249 21.3153 23.9658 21.2175C24.092 20.8402 24.0604 20.6242 24.501 20.445C24.8376 20.3575 24.9509 20.3938 25.2803 20.3864C25.6363 19.8379 26.0428 19.7512 26.5664 20.1745C27.1064 20.1608 27.4397 20.2381 27.6299 20.7888C27.9425 20.9232 28.4863 21.1173 28.2637 21.573C28.0182 22.0755 26.7904 21.9535 27.0312 22.7566C27.0922 22.9691 27.2548 23.1241 27.4521 23.2185C28.1192 23.5372 28.6831 23.1836 29.3828 23.5896C29.6377 23.7374 29.6494 23.7658 29.8799 23.946C29.6097 23.5537 29.3472 23.2485 28.8379 23.1745C28.7153 23.1568 28.4155 23.105 28.2734 23.1169C27.9623 23.143 27.2265 22.9142 27.5537 22.4812C27.7912 22.1674 28.5597 21.9787 28.584 21.4665C28.642 20.9616 28.1574 20.7812 27.8193 20.53C27.3717 20.1507 27.3701 19.8533 26.6787 20.0066C26.423 19.755 26.2354 19.6875 25.876 19.6882C25.8636 19.6882 25.8512 19.6889 25.8389 19.6892ZM21.2412 12.8464C21.2267 13.1173 21.1489 13.5089 21.2021 13.7634C21.2637 14.0575 21.5791 14.1967 21.7305 14.4529C22.0544 15.0014 22.1746 15.5966 22.293 16.2068C22.2913 16.2062 22.2897 16.2053 22.2881 16.2048C21.7709 15.1043 21.6126 15.3708 20.5859 14.9675C21.2658 15.8121 21.2099 15.8535 22.2881 16.2048C22.2909 16.2107 22.2941 16.2164 22.2969 16.2224C22.2959 16.2171 22.294 16.212 22.293 16.2068C22.2946 16.2073 22.2962 16.2082 22.2979 16.2087C22.4043 16.6067 22.4675 17.0719 22.4893 17.4821C21.9978 16.7548 21.4399 16.7952 20.6592 16.5554C21.2463 17.2506 21.5059 17.5662 22.4326 17.7663C22.4609 19.6323 21.8161 20.7415 20.1416 21.612C20.022 21.6756 19.934 21.7221 19.8213 21.7995C19.9238 21.765 20.0693 21.7202 20.1641 21.6765C21.168 21.3938 21.6638 20.8473 22.1631 20.0056C23.1255 20.0165 23.3962 19.8522 24.1123 19.2595C23.4246 19.4427 23.0613 19.0308 22.293 19.7146C22.5626 18.9591 22.5866 18.52 22.6562 17.7234C23.4909 17.41 23.7148 16.8497 23.959 16.0632C23.1221 16.5899 23.0086 16.4854 22.6494 17.4314C22.5689 16.9471 22.5177 16.4831 22.4287 15.9821C23.2822 15.4649 23.2844 15.2701 23.4648 14.3357C22.8452 15.0181 22.7346 14.8768 22.416 15.862C22.2385 15.3604 22.0974 14.811 21.916 14.3054C21.8519 14.1261 21.9286 13.8362 21.8154 13.6228C21.6606 13.3313 21.4497 13.0987 21.2412 12.8464ZM25.9463 17.3122C25.7842 17.365 25.7389 17.3959 25.5947 17.488C25.4209 17.3436 25.2909 17.3181 25.1582 17.5173C24.8555 17.9719 25.029 18.3824 25.4238 18.6784C26.0115 19.119 26.5792 19.0159 27.1963 19.3445C27.4247 19.4698 27.5595 19.6617 27.7441 19.8152C27.4934 19.1227 26.7953 18.9502 26.1963 18.7175C25.7272 18.5353 25.3805 18.3114 25.5205 17.7986C25.5309 17.7604 25.5789 17.7217 25.6191 17.7126C25.8679 17.6599 26.0656 17.9405 26.2744 17.8376C26.4159 17.6174 26.2079 17.3245 25.9463 17.3122ZM20.9756 18.239C21.318 18.677 21.526 18.8455 22.0684 18.9851C21.8469 18.5309 21.6221 18.4629 21.1484 18.2927C21.0929 18.2728 21.0338 18.2493 20.9756 18.239ZM18.5117 17.3181C18.0486 17.4412 18.184 17.9647 18.6055 18.0183C18.8206 17.9495 18.9785 17.784 18.8828 17.5505C18.8463 17.4619 18.7757 17.3913 18.6865 17.3532C18.6391 17.3336 18.564 17.3228 18.5117 17.3181ZM17.0801 14.9245C17.2964 15.4988 18.0547 15.9284 17.8018 16.5954C17.6772 16.9233 17.4758 16.8544 17.2109 16.7429C17.2787 16.9594 17.3867 17.1978 17.2402 17.4118C17.19 17.4865 17.1109 17.5382 17.0215 17.5554C16.7816 17.6038 16.5019 17.4541 16.3545 17.2751C16.2489 17.1469 16.2425 17.0507 16.2139 16.8923C16.1041 16.8912 15.9291 16.9061 15.8525 16.8327C15.8609 16.6768 16.5493 15.6802 17.0801 14.9245ZM17.0479 16.0642C16.9825 15.9076 16.8007 15.8316 16.6406 15.8943C16.4785 15.9578 16.4007 16.1397 16.4668 16.2986C16.5331 16.4572 16.718 16.5329 16.8789 16.4665C17.0378 16.4008 17.1132 16.2209 17.0479 16.0642ZM17.083 14.9206C17.0821 14.922 17.081 14.9232 17.0801 14.9245C17.0782 14.9196 17.076 14.9148 17.0742 14.9099C17.0771 14.9134 17.08 14.917 17.083 14.9206Z" fill="#F9A90D"/>
<path d="M37.6455 33.0311C37.6559 33.0612 37.6607 33.0741 37.658 33.1077C37.5991 33.8437 37.3666 34.626 36.9952 35.2674C36.8038 35.598 36.5685 35.9075 36.4441 36.2631C35.8726 37.8973 35.9496 39.5096 34.6033 40.7986C32.9724 42.3599 31.0149 41.8865 28.957 41.8134C28.4113 41.8012 27.6571 41.8909 27.2681 42.3073C26.8722 42.7312 26.6687 43.5224 26.4668 44.0623C26.347 44.3913 26.2095 44.714 26.055 45.0288C25.3859 46.4047 24.5572 47.3937 23.4428 48.4274C24.3098 46.9563 24.8224 45.1183 24.9671 43.4344C24.9947 43.1128 24.988 42.7098 24.8964 42.4013C24.6692 41.6356 23.766 41.4118 23.056 41.3207C22.2024 41.2112 21.3158 41.2237 20.4564 41.2708C20.1076 41.2899 19.7134 41.2979 19.3701 41.3546C19.4884 41.2826 19.6076 41.212 19.7276 41.1428C21.2968 40.2515 23.2848 39.9497 25.0622 40.2509C27.7009 40.698 30.3521 42.1903 32.9322 40.7141C33.0146 40.6715 33.0893 40.6186 33.1665 40.5673C30.8153 41.3212 28.0984 39.8886 25.8559 39.2664C23.0656 38.4923 21.0241 39.0634 18.4768 40.1832C17.6307 40.5552 16.2322 41.0481 15.3187 40.6619C14.9299 40.4987 14.625 40.1877 14.4734 39.7999C13.9201 38.4192 15.3821 37.3436 16.5205 36.9625C17.1586 36.7489 17.6951 36.5904 18.3452 36.4474C20.7808 35.9057 23.2571 36.0089 25.5702 36.9847C27.7078 37.8704 29.5066 39.2627 31.9134 39.3951C33.8939 39.5041 34.2653 38.6358 35.0168 37.1142C35.2483 36.64 35.5043 36.1777 35.7836 35.7291C36.432 34.7004 37.129 34.1944 37.6455 33.0311Z" fill="#1DB9BE"/>
<path d="M23.1386 1.89251C23.7012 1.86426 23.878 2.21643 24.2452 2.26922C25.061 2.38649 25.2842 2.2722 25.9467 2.9277C27.5041 4.4687 28.7979 6.20831 30.1076 7.95188C30.6402 8.65626 31.1635 9.36744 31.6772 10.0852C31.9222 10.4312 32.2274 10.8554 32.4415 11.2102C31.66 11.1677 30.8714 11.4572 30.1817 11.7867C29.8991 11.9217 29.6566 12.1803 29.3245 12.056C29.0141 11.9399 28.8197 11.4445 28.684 11.1669C28.073 11.4169 27.7713 11.9293 27.5242 12.492C27.3718 12.8748 27.3163 13.0652 27.2307 13.4684C25.9576 13.4022 25.2924 12.9596 24.2549 12.2674C23.5192 11.7766 22.6205 11.3221 21.7416 11.1511C20.6536 10.9396 19.8454 11.3401 18.9697 11.9402C19.28 11.5711 19.6677 10.8602 19.9063 10.424C20.9853 8.45171 21.9956 6.15636 22.5801 3.98485C22.6721 3.6406 22.7411 3.29081 22.7866 2.93772C22.8192 2.68353 22.8333 2.41603 22.8929 2.16845C22.9318 2.00713 23.001 1.96887 23.1386 1.89251Z" fill="#1C6847"/>
<path d="M27.502 6.62034C27.6512 6.68945 28.1334 7.23443 28.2403 7.369C28.7658 8.03033 30.6434 10.4561 30.558 11.2575C30.5294 11.2565 30.5002 11.2548 30.4722 11.248C30.0026 11.1338 28.5517 8.34365 28.2299 7.78823C27.9997 7.39102 27.752 7.00566 27.502 6.62034Z" fill="white"/>
<path d="M28.5436 11.8965C28.5704 11.9206 28.6613 12.1385 28.6809 12.1835C28.9507 12.8024 29.5506 13.0519 30.1619 13.2606C30.9812 13.5402 31.2631 14.0563 31.601 14.7762C31.6974 14.5673 31.8029 14.3453 31.9902 14.1997C32.5183 13.7891 33.2095 13.8014 33.8288 13.8525C34.213 14.5515 34.5871 15.3349 34.9491 16.0518C34.7431 16.1782 34.6713 16.2806 34.5228 16.4649C34.2012 16.1441 34.0247 15.9624 33.5712 15.8362C33.4693 15.9568 33.3512 16.1304 33.1925 16.153C32.9432 16.0584 33.0528 15.6205 32.9289 15.5024C32.8053 15.5591 32.6941 15.8537 32.536 15.887C31.81 16.0398 32.2008 15.095 31.3535 15.5065C30.7365 14.8517 30.404 14.5815 29.489 14.404C30.1327 14.8989 30.6027 14.8845 31.0427 15.678C30.8847 15.7983 30.802 15.8332 30.6123 15.8943C30.1358 15.7288 29.6818 15.1903 29.1125 15.4691L29.1087 15.5002C29.184 15.5533 29.2897 15.5664 29.3782 15.594C30.0945 15.8172 30.3124 16.2349 30.3174 16.9254C29.7257 16.6989 29.4041 16.6404 28.8017 16.8752C29.2168 16.8956 29.4318 16.8934 29.8338 17.049C30.0556 17.1349 30.428 17.4333 30.5923 17.4493C30.6887 17.365 30.6678 17.0189 30.6737 16.888C30.7329 16.8121 30.7841 16.7328 30.8373 16.6528C30.8443 16.5503 30.8429 16.4354 30.8439 16.3316C31.2557 16.1897 31.3734 16.1209 31.7052 15.8578C31.955 16.311 32.3808 16.2324 32.8355 16.2011C33.1404 16.4858 33.4119 16.5089 33.7649 16.2973C34.0183 16.4858 34.1439 16.6566 34.2963 16.9328C34.3723 17.0705 34.452 17.3748 34.5604 17.4588C34.6918 17.4042 34.7622 16.6712 34.9104 16.5276C34.9652 16.4745 35.0145 16.4124 35.0804 16.3561L35.6353 17.5054C35.4849 17.7706 35.4082 17.9663 35.3578 18.2639C34.7192 17.9404 34.3382 18.0429 33.7159 18.3264C33.7003 18.1169 33.637 17.9135 33.5307 17.7312C33.2106 17.1815 32.5279 17.0162 31.9803 17.3376C31.694 17.5083 31.4899 17.7855 31.4145 18.1063C31.2363 18.8324 31.8957 19.1642 32.5012 19.303L32.4384 19.7172C32.4333 19.9126 32.4435 19.9895 32.4774 20.1765C31.6561 20.5125 31.0465 19.7809 30.7603 19.9577C30.6839 20.0852 30.7358 20.2293 30.7604 20.3637C30.8826 21.0321 31.4791 21.4542 32.0578 21.7905C31.9251 22.1868 31.7868 22.5398 31.6345 22.9308C32.1558 22.6351 32.625 22.3432 32.8798 21.7811C34.1399 22.0811 34.9395 22.1319 36.2234 21.803C36.6308 22.3595 36.9436 22.6248 37.5355 22.9737C37.3978 22.6186 37.2032 22.2433 37.1113 21.8704C37.0966 21.8111 37.1319 21.7872 37.167 21.7467C37.2003 21.7432 37.2137 21.7359 37.2443 21.7526C37.445 21.8624 37.7559 23.1241 37.8418 23.4109C37.513 23.7737 37.0943 24.2034 36.7298 24.5179C35.5161 25.5654 33.0563 27.1636 31.5062 27.5579C31.6895 27.1023 31.9118 26.6629 32.1707 26.2443C32.5391 25.6552 33.0932 25.0331 32.5938 24.2593C32.5114 24.1315 32.071 23.8648 31.9207 23.7837C30.3 22.9093 29.4615 21.2694 30.2694 19.5481C30.3741 19.4945 30.5303 19.4318 30.5901 19.3405C30.6351 19.201 30.5053 19.0177 30.4501 18.8837C30.2819 18.4752 30.191 17.9477 29.7295 17.7554C29.2427 17.5479 28.4802 17.9378 28.1963 17.3123C28.0024 16.8851 28.132 16.403 28.2943 15.9978C28.1964 15.8088 28.0108 15.5759 27.8885 15.3541C27.6838 14.9828 27.5287 14.3651 27.6985 13.9577C27.7827 13.7801 27.9469 13.582 27.9789 13.3851C28.0669 12.8453 27.962 12.1953 28.5436 11.8965Z" fill="#1C6847"/>
<path d="M32.9589 22.2522C33.0373 22.2523 33.0748 22.2469 33.1456 22.284C33.1974 22.3575 33.2075 22.3752 33.2834 22.4288L33.3023 22.4163C33.5444 22.2587 33.5425 22.335 33.7522 22.494C33.7907 22.5233 34.0167 22.3855 34.1029 22.3896C34.2418 22.3962 34.2471 22.4908 34.3663 22.5239C34.6367 22.3229 34.6012 22.4489 34.8554 22.5271C34.8792 22.5344 35.1677 22.4064 35.2212 22.4241C35.2941 22.4482 35.3437 22.4784 35.4154 22.4984C35.6405 22.3123 35.6003 22.3507 35.8589 22.417C35.975 22.3282 35.9834 22.305 36.1283 22.3014C36.176 22.3514 36.222 22.4071 36.2335 22.4761C36.241 22.5212 36.2314 22.5643 36.2016 22.601C36.0582 22.7773 35.4071 22.8076 35.1852 22.8265C34.7894 22.8603 33.1696 22.8402 32.8915 22.5731C32.8478 22.5312 32.8283 22.4804 32.8326 22.4205C32.8379 22.3487 32.9081 22.2963 32.9589 22.2522Z" fill="white"/>
<path d="M32.7969 23.4162C33.0163 23.4554 33.1878 23.7105 33.3669 23.8508C34.1367 24.4537 35.1181 24.4684 35.8571 23.8039C35.9429 23.7267 36.1249 23.5268 36.2166 23.4791C36.2259 23.548 36.1947 23.5827 36.1619 23.6559C35.9325 24.0632 35.5339 24.3611 35.0813 24.4918C34.6208 24.6233 34.126 24.5679 33.7076 24.3379C33.408 24.1762 32.8955 23.7409 32.7969 23.4162Z" fill="white"/>
<path d="M28.5698 12.8568C28.8804 12.8627 29.1348 13.0947 28.7977 13.31C28.4891 13.3692 28.2782 13.0774 28.5698 12.8568Z" fill="white"/>
<path d="M30.8848 21.3805C31.0528 21.4577 31.3053 21.7922 31.4419 21.9289C31.5049 21.992 31.4995 22.0334 31.4957 22.1141C31.1012 22.2096 30.9453 21.6522 30.8848 21.3805Z" fill="white"/>
<path d="M28.5773 13.7278C28.8397 13.6997 29.1178 13.8805 28.8625 14.1164C28.8288 14.1195 28.7951 14.122 28.7613 14.1239C28.4789 14.1387 28.3723 13.9377 28.5773 13.7278Z" fill="white"/>
<path d="M29.4089 13.535C29.655 13.6143 29.7358 13.8156 29.5268 13.9906C29.2598 13.9684 29.1977 13.7124 29.4089 13.535Z" fill="white"/>
<path d="M30.1667 13.8666C30.2385 13.8414 30.3179 13.8744 30.3496 13.9425C30.3812 14.0107 30.3544 14.0914 30.2879 14.128C30.2397 14.1547 30.1802 14.1524 30.1343 14.122C30.0883 14.0917 30.0636 14.0385 30.0705 13.9845C30.0773 13.9305 30.1145 13.8849 30.1667 13.8666Z" fill="white"/>
<path d="M37.9066 23.7981L37.9364 23.8141C38.1059 24.3337 38.2594 24.9434 38.4061 25.4771C39.0114 27.6804 39.4723 29.9639 38.7096 32.1933C38.7014 32.146 38.6923 32.0989 38.6824 32.0519C38.4421 30.9245 37.1323 30.1787 35.9968 30.4315C35.2743 30.5922 34.6631 31.23 34.8121 32.0087C34.8777 32.3518 35.1904 32.603 35.4839 32.7776C34.8314 31.8462 35.798 30.962 36.612 31.4564C36.8534 31.603 37.0242 31.8393 37.0856 32.1115C37.1727 32.5008 37.0451 32.8321 36.8373 33.1546C36.6963 33.3322 36.4889 33.5389 36.2075 33.6698C34.1985 34.605 31.699 32.7829 30.6834 31.2192C30.4011 30.7847 31.1257 28.6222 31.3739 27.9049C31.8093 27.8239 32.3447 27.5724 32.7441 27.3785C34.6349 26.4412 36.3745 25.2348 37.9066 23.7981Z" fill="#1C6847"/>
<path d="M34.6143 18.539C34.8111 18.5544 35.2605 18.8411 35.399 18.9789C35.4432 19.0229 35.5206 19.1725 35.5517 19.2323C35.7696 19.2663 35.9121 19.292 36.0824 19.4424C36.2373 19.5818 36.3281 19.777 36.3341 19.9833C36.3446 20.2208 36.2551 20.4521 36.0866 20.6225C35.7143 21.0042 34.9965 20.9354 34.4682 20.9423C34.094 20.9411 33.5372 20.9716 33.2182 20.7974C32.9978 20.6776 32.8353 20.476 32.7671 20.2376C32.7108 20.0389 32.7305 19.8331 32.836 19.6532C33.0008 19.372 33.2883 19.3522 33.5884 19.277C33.6868 18.7765 34.1403 18.5974 34.6143 18.539Z" fill="#1C6847"/>
<path d="M33.5078 20.1737C33.6483 20.1976 33.7225 20.2272 33.7484 20.3693C33.7302 20.446 33.7023 20.4597 33.6395 20.5083C33.5009 20.4846 33.4232 20.4551 33.3975 20.3146C33.4144 20.2387 33.4475 20.2215 33.5078 20.1737Z" fill="white"/>
<path d="M35.3635 20.1892L35.3878 20.1928C35.4901 20.2079 35.5988 20.2255 35.6625 20.3114C35.6755 20.3981 35.6805 20.3619 35.6217 20.4542C35.4835 20.4934 35.4005 20.4995 35.3245 20.3733C35.3125 20.2865 35.3262 20.2673 35.3635 20.1892Z" fill="white"/>
<path d="M17.333 17.9785C17.4227 18.0216 17.5115 18.269 17.668 18.3438C17.775 18.3948 17.8555 18.4181 17.9678 18.4541C18.0682 18.8156 18.1326 18.8555 18.4951 18.9424C18.6697 19.2734 18.8311 19.2428 19.1748 19.291C19.1872 19.4468 19.2257 19.6203 19.1328 19.7432C19.011 19.8017 19.0631 19.7426 18.9229 19.7598C18.8856 19.9255 19.0361 20.1746 18.9688 20.373C18.8678 20.6704 18.4151 20.5639 18.1816 20.501C18.4087 20.6838 18.5633 20.751 18.5703 21.0596C18.3414 21.6235 18.0239 21.1206 17.5869 21.0811C17.4331 21.0664 17.3254 20.6916 17.2588 20.5371C17.0157 20.5349 16.927 20.5415 16.7012 20.4404C16.6239 20.2956 16.5441 20.152 16.4619 20.0098C16.5559 19.7821 16.6032 19.5788 16.6553 19.3389C17.1077 19.1287 17.0664 18.9898 17.0547 18.5312C17.1993 18.3333 17.2432 18.2035 17.333 17.9785ZM18.1465 19.7627C18.0792 19.6034 17.8932 19.5272 17.7305 19.5918C17.566 19.6573 17.4869 19.8417 17.5547 20.0029C17.6228 20.1643 17.812 20.2402 17.9756 20.1719C18.1369 20.1043 18.2134 19.9219 18.1465 19.7627Z" fill="#F9A90D"/>
<path d="M15.8721 17.1494L16.0938 17.0723C16.1931 17.6418 16.5332 17.8104 17.1006 17.8047C17.0926 17.9041 17.0798 18.0399 17.0537 18.1348C16.9931 18.3544 16.9141 18.2531 16.791 18.3213C16.7489 18.6482 17.2565 19.2791 16.3105 18.9658C16.4722 19.3589 16.5046 19.6053 16.2627 19.9873C15.9593 20.231 15.7078 20.0051 15.5586 19.7354C14.8764 19.756 14.7578 19.465 14.875 18.8584L14.5771 18.7383C14.8233 18.2938 15.3699 17.4876 15.667 17.0498L15.8721 17.1494ZM15.4736 18.5098C15.0288 18.6275 15.1637 19.1277 15.6104 19.1426C15.7122 19.0954 15.7856 19.0538 15.8301 18.9414C15.8641 18.8566 15.8588 18.7612 15.8154 18.6807C15.7719 18.6011 15.6964 18.5429 15.6074 18.5205C15.5648 18.5097 15.5174 18.5095 15.4736 18.5098Z" fill="#F9A90D"/>
<path d="M30.999 20.225C31.0458 20.2382 31.2275 20.3234 31.283 20.3488C31.7216 20.5493 32.0081 20.6562 32.4829 20.4988C32.7394 20.7126 33.0169 20.9271 33.3488 21.0464C34.1076 21.3191 35.2162 21.2939 35.9651 20.993C36.1618 20.9139 36.3578 20.6985 36.5228 20.6001C36.5683 20.5729 36.7048 20.6162 36.893 20.5346C37.0218 20.8413 37.1557 21.2372 37.2678 21.5533L37.0123 21.4928C36.9901 21.3661 37.0117 21.2385 36.9628 21.1111C36.753 21.0332 36.5624 21.3744 36.271 21.4788C35.9744 21.5852 35.8555 21.5962 35.5517 21.6574C34.676 21.8338 33.8526 21.8155 33.0012 21.5318C32.7754 21.4567 32.618 21.2916 32.4205 21.1735C32.3532 21.1334 32.187 21.0705 32.1071 21.0394C32.127 21.2056 32.1221 21.3008 32.1154 21.4654C31.6531 21.2163 31.0758 20.7623 30.999 20.225Z" fill="#1C6847"/>
<path d="M32.4714 11.6347C32.5196 11.6341 32.5484 11.6387 32.5953 11.6448C32.7436 11.7821 33.5461 13.31 33.703 13.5965C33.5353 13.5736 33.4094 13.5561 33.2436 13.5168C32.9156 13.1268 32.4431 12.6472 31.913 12.5587C31.7773 12.536 31.3191 12.6262 31.3571 12.8125C31.4164 13.1027 31.9379 13.1209 32.1583 13.2317C32.31 13.3042 32.3651 13.3265 32.4871 13.4303L32.5092 13.4492L32.6297 13.6348C31.7971 13.8737 31.7906 13.5874 31.1105 13.2089C30.9166 13.1008 30.7094 13.0175 30.494 12.961C30.366 12.9265 29.9302 12.8253 29.8898 12.7426C29.7514 12.4592 30.6922 12.1212 30.8637 12.0543C31.1207 11.9692 31.3726 11.7679 31.6417 11.919C31.7827 11.9983 32.0193 12.3392 32.139 12.1469C32.2927 11.9 32.2053 11.809 32.4714 11.6347Z" fill="#1C6847"/>
<path d="M28.6924 17.8582C29.2233 17.8011 30.2148 18.6975 30.0576 19.2425L30.0254 19.2547C30.0054 19.2328 29.9845 19.2116 29.9627 19.1913C29.7458 18.9871 29.428 19.0027 29.149 19.011C29.3727 19.2195 29.4986 19.2491 29.7091 19.5288L29.595 19.9438C29.5449 20.1346 29.5033 20.334 29.4604 20.5271C29.4489 20.5234 29.4374 20.5195 29.4259 20.5156C28.6346 20.2407 28.8754 19.6903 28.5831 19.0871C28.4621 18.8373 27.9121 18.3523 28.0058 18.1134C28.1359 17.9719 28.5017 17.8919 28.6924 17.8582Z" fill="#1C6847"/>
<path d="M32.4497 17.4476C32.9001 17.3666 33.3331 17.656 33.4222 18.0974C33.5113 18.5388 33.2233 18.9687 32.7755 19.0627C32.4799 19.1248 32.1733 19.0256 31.973 18.8031C31.7727 18.5806 31.7099 18.2693 31.8087 17.9886C31.9074 17.7078 32.1524 17.5011 32.4497 17.4476Z" fill="#1C6847"/>
<path d="M32.4938 17.9662C32.9236 17.9112 33.073 18.3175 32.7394 18.6171C32.267 18.7128 32.1845 18.2394 32.4938 17.9662Z" fill="white"/>
<path d="M35.7637 17.9111C35.8295 17.9559 36.3473 19.0995 36.3342 19.1956C35.8128 18.8655 35.5626 18.5299 35.7637 17.9111Z" fill="#1C6847"/>
<path d="M15.8301 35.6614C15.9763 35.6842 16.5901 35.8793 16.6258 36.002C16.282 36.1575 16.0448 35.8786 15.8301 35.6614Z" fill="#EB1C40"/>
</svg>
