<svg width="30" height="30" viewBox="0 0 30 30" fill="none" xmlns="http://www.w3.org/2000/svg">
<path d="M3.125 15C4.1425 12.7931 6.40125 8.90687 8.55438 6.43688C9.335 5.54187 10.665 5.54187 11.4456 6.43688C13.5987 8.90625 15.8581 12.7931 16.875 15" stroke="#6FAF7E" stroke-width="1.875" stroke-linecap="round" stroke-linejoin="round"/>
<path d="M11.9084 6.98625C13.1765 5.25062 14.5259 3.6125 15.8209 2.39C16.1886 2.03742 16.6783 1.84058 17.1877 1.84058C17.6972 1.84058 18.1869 2.03742 18.5546 2.39C18.7229 2.54875 18.8923 2.71479 19.0627 2.88812M26.2502 15C27.2859 15 28.139 15.8437 27.9927 16.8694C27.0865 23.2325 21.614 28.125 15.0002 28.125C8.38648 28.125 2.91461 23.2325 2.00648 16.8694C1.86086 15.8444 2.71461 15 3.75023 15H26.2502Z" stroke="#6FAF7E" stroke-width="1.875" stroke-linecap="round" stroke-linejoin="round"/>
<path d="M9.70211 15C10.324 16.075 10.5334 17.2375 10.0002 18.4375C9.45586 19.6625 8.43648 20.1168 7.40773 20.575C6.29836 21.07 5.17773 21.5693 4.63086 23.0468M15.2677 15C15.1752 18.0525 17.2002 18.5893 18.9427 19.0518C19.9809 19.3268 20.9184 19.5756 21.2502 20.3125C21.494 21.045 20.9565 21.6825 20.3434 22.4093C19.3865 23.5425 18.2452 24.8943 19.599 27.1668M23.9809 1.95558C22.6984 3.35496 21.2427 6.05558 20.6252 7.51808C20.6252 7.51808 20.9402 7.65433 22.1065 7.74121C21.4827 8.90996 20.9427 10.0987 20.6252 10.9268C20.6252 10.9268 21.3071 11.25 24.3752 11.25C27.4434 11.25 28.1252 10.9268 28.1252 10.9268C27.8077 10.0987 27.2677 8.90996 26.644 7.74121C27.8102 7.65433 28.1252 7.51871 28.1252 7.51871C27.5077 6.05558 26.0521 3.35496 24.7696 1.95558C24.7198 1.90039 24.659 1.85627 24.591 1.82607C24.5231 1.79588 24.4496 1.78027 24.3752 1.78027C24.3009 1.78027 24.2274 1.79588 24.1594 1.82607C24.0915 1.85627 24.0307 1.90039 23.9809 1.95558Z" stroke="#6FAF7E" stroke-width="1.875" stroke-linecap="round" stroke-linejoin="round"/>
<path d="M24.375 11.25V15" stroke="#6FAF7E" stroke-width="1.875" stroke-linecap="round"/>
</svg>
