<svg width="30" height="30" viewBox="0 0 30 30" fill="none" xmlns="http://www.w3.org/2000/svg">
<path d="M7.49805 15V22.1051C7.49805 24.369 7.49805 25.501 8.22966 26.2044C9.06096 27.0035 12.0203 27.4731 14.9917 27.4989C17.8867 27.524 20.7932 27.1277 21.7537 26.2044C22.4853 25.501 22.4853 24.369 22.4853 22.1051V15" stroke="#72B9FF" stroke-width="1.88" stroke-linecap="round" stroke-linejoin="round"/>
<path d="M7.15285 17.5275C6.07075 17.1354 4.03714 16.7993 3.11985 15.879C1.8574 14.6125 2.6733 12.9002 4.22134 9.67366C4.91811 8.2214 6.25117 7.15306 7.80452 6.73068C8.01547 6.67331 8.19855 6.54145 8.3199 6.35946L9.92416 3.86086C9.97049 3.79139 10.0293 3.73169 10.1008 3.68858C10.8239 3.25246 12.6151 2.5 14.9906 2.5C17.3661 2.5 19.0401 3.25246 19.7631 3.68858C19.8346 3.73169 19.8935 3.79139 19.9398 3.86086L21.5901 6.3359C21.7115 6.51789 21.8945 6.64975 22.1055 6.70711C23.6589 7.1295 24.9314 8.06267 25.6282 9.51494C27.3671 12.6766 28.1381 14.5884 26.8756 15.8549C25.9584 16.7751 23.8967 17.1395 22.8146 17.5317" stroke="#72B9FF" stroke-width="1.88" stroke-linecap="round" stroke-linejoin="round"/>
<path d="M8.12598 6.875L13.4179 10.9908C14.1759 11.5803 14.5548 11.875 15.001 11.875C15.4473 11.875 15.8261 11.5803 16.5841 10.9908L21.876 6.875" stroke="#72B9FF" stroke-width="1.88" stroke-linecap="round" stroke-linejoin="round"/>
<path d="M11.876 3.75L13.751 11.25M18.126 3.75L16.251 11.25" stroke="#72B9FF" stroke-width="1.88" stroke-linecap="round" stroke-linejoin="round"/>
</svg>
